<svg width="531" height="364" viewBox="0 0 531 364" fill="none" xmlns="http://www.w3.org/2000/svg">
<g filter="url(#filter0_d)">
<rect x="6" y="25" width="415" height="325" rx="2" fill="white"/>
</g>
<rect x="6" y="25" width="416" height="325" rx="2" fill="#F2F2F2"/>
<path d="M45.24 82H47.72V70.28H52.16V68H40.8V70.28H45.24V82ZM54.2934 82H56.7134V76.04C56.7134 74.4 57.6934 73.42 59.0934 73.42C60.5334 73.42 61.3534 74.36 61.3534 76V82H63.7734V75.26C63.7734 72.82 62.3934 71.22 60.0134 71.22C58.3734 71.22 57.3934 72.08 56.7134 73.06V67.4H54.2934V82ZM71.5358 82.24C73.4758 82.24 74.8558 81.46 75.8558 80.26L74.4358 79C73.5958 79.82 72.7558 80.26 71.5758 80.26C70.0158 80.26 68.7958 79.3 68.5358 77.58H76.2958C76.3158 77.34 76.3358 77.12 76.3358 76.9C76.3358 73.86 74.6358 71.22 71.2758 71.22C68.2558 71.22 66.1158 73.7 66.1158 76.72V76.76C66.1158 80.02 68.4758 82.24 71.5358 82.24ZM68.5158 75.98C68.7358 74.34 69.7758 73.2 71.2558 73.2C72.8558 73.2 73.7758 74.42 73.9358 75.98H68.5158ZM78.7661 82H81.1861V77.98C81.1861 75.18 82.6661 73.8 84.7861 73.8H84.9261V71.24C83.0661 71.16 81.8461 72.24 81.1861 73.82V71.44H78.7661V82ZM87.0278 82H89.4478V76.04C89.4478 74.42 90.3678 73.42 91.7078 73.42C93.0478 73.42 93.8478 74.34 93.8478 75.98V82H96.2678V76.04C96.2678 74.34 97.2078 73.42 98.5278 73.42C99.8878 73.42 100.668 74.32 100.668 76V82H103.088V75.26C103.088 72.68 101.688 71.22 99.3878 71.22C97.7878 71.22 96.6678 71.96 95.8278 73.08C95.2678 71.96 94.1878 71.22 92.6678 71.22C91.0478 71.22 90.1278 72.1 89.4478 73.04V71.44H87.0278V82ZM105.112 82H107.632L109.072 78.62H115.692L117.112 82H119.712L113.552 67.9H111.272L105.112 82ZM109.972 76.44L112.372 70.84L114.792 76.44H109.972ZM121.873 69.82H124.473V67.52H121.873V69.82ZM121.973 82H124.393V71.44H121.973V82ZM131.915 82.22C133.635 82.22 134.735 81.34 135.515 80.24V82H137.935V67.4H135.515V73.08C134.755 72.08 133.655 71.22 131.915 71.22C129.395 71.22 127.015 73.2 127.015 76.7V76.74C127.015 80.24 129.435 82.22 131.915 82.22ZM132.495 80.12C130.855 80.12 129.455 78.78 129.455 76.74V76.7C129.455 74.6 130.835 73.32 132.495 73.32C134.115 73.32 135.555 74.66 135.555 76.7V76.74C135.555 78.76 134.115 80.12 132.495 80.12ZM143.273 74.8C145.213 74.8 146.753 73.2 146.753 71.3V71.28C146.753 69.38 145.233 67.8 143.273 67.8C141.333 67.8 139.793 69.4 139.793 71.3V71.32C139.793 73.22 141.313 74.8 143.273 74.8ZM143.273 74.42C141.513 74.42 140.193 73.02 140.193 71.32V71.3C140.193 69.6 141.533 68.18 143.273 68.18C145.033 68.18 146.353 69.58 146.353 71.28V71.3C146.353 73 145.013 74.42 143.273 74.42ZM141.833 73.04H142.713V71.9H143.273L144.053 73.04H145.113L144.193 71.74C144.673 71.58 144.993 71.2 144.993 70.62C144.993 69.8 144.373 69.42 143.533 69.42H141.833V73.04ZM142.713 71.18V70.18H143.473C143.853 70.18 144.093 70.36 144.093 70.68C144.093 70.98 143.873 71.18 143.473 71.18H142.713ZM154.886 82H157.346V77.5H160.126C163.206 77.5 165.726 75.86 165.726 72.72V72.68C165.726 69.86 163.686 68 160.406 68H154.886V82ZM157.346 75.28V70.24H160.206C162.046 70.24 163.226 71.1 163.226 72.74V72.78C163.226 74.24 162.066 75.28 160.206 75.28H157.346ZM170.81 82.22C172.43 82.22 173.53 81.54 174.25 80.68V82H176.61V75.74C176.61 74.36 176.25 73.24 175.47 72.48C174.73 71.72 173.55 71.3 171.97 71.3C170.29 71.3 169.15 71.64 167.99 72.16L168.63 74.06C169.59 73.66 170.47 73.4 171.65 73.4C173.35 73.4 174.27 74.2 174.27 75.7V75.96C173.45 75.7 172.61 75.52 171.43 75.52C168.85 75.52 167.07 76.64 167.07 78.92V78.96C167.07 81.08 168.83 82.22 170.81 82.22ZM171.49 80.46C170.33 80.46 169.43 79.88 169.43 78.86V78.82C169.43 77.72 170.35 77.06 171.91 77.06C172.87 77.06 173.69 77.24 174.31 77.48V78.2C174.31 79.54 173.09 80.46 171.49 80.46ZM182.951 82.18C183.871 82.18 184.531 81.98 185.131 81.64V79.66C184.651 79.9 184.171 80.02 183.631 80.02C182.811 80.02 182.331 79.64 182.331 78.7V73.52H185.171V71.44H182.331V68.54H179.911V71.44H178.571V73.52H179.911V79.08C179.911 81.4 181.171 82.18 182.951 82.18ZM192.18 82.24C194.12 82.24 195.5 81.46 196.5 80.26L195.08 79C194.24 79.82 193.4 80.26 192.22 80.26C190.66 80.26 189.44 79.3 189.18 77.58H196.94C196.96 77.34 196.98 77.12 196.98 76.9C196.98 73.86 195.28 71.22 191.92 71.22C188.9 71.22 186.76 73.7 186.76 76.72V76.76C186.76 80.02 189.12 82.24 192.18 82.24ZM189.16 75.98C189.38 74.34 190.42 73.2 191.9 73.2C193.5 73.2 194.42 74.42 194.58 75.98H189.16ZM199.411 82H201.831V76.04C201.831 74.4 202.811 73.42 204.211 73.42C205.651 73.42 206.471 74.36 206.471 76V82H208.891V75.26C208.891 72.82 207.511 71.22 205.131 71.22C203.491 71.22 202.511 72.08 201.831 73.06V71.44H199.411V82ZM215.353 82.18C216.273 82.18 216.933 81.98 217.533 81.64V79.66C217.053 79.9 216.573 80.02 216.033 80.02C215.213 80.02 214.733 79.64 214.733 78.7V73.52H217.573V71.44H214.733V68.54H212.313V71.44H210.973V73.52H212.313V79.08C212.313 81.4 213.573 82.18 215.353 82.18ZM224.583 82.24C226.523 82.24 227.903 81.46 228.903 80.26L227.483 79C226.643 79.82 225.803 80.26 224.623 80.26C223.063 80.26 221.843 79.3 221.583 77.58H229.343C229.363 77.34 229.383 77.12 229.383 76.9C229.383 73.86 227.683 71.22 224.323 71.22C221.303 71.22 219.163 73.7 219.163 76.72V76.76C219.163 80.02 221.523 82.24 224.583 82.24ZM221.563 75.98C221.783 74.34 222.823 73.2 224.303 73.2C225.903 73.2 226.823 74.42 226.983 75.98H221.563ZM236.173 82.22C237.893 82.22 238.993 81.34 239.773 80.24V82H242.193V67.4H239.773V73.08C239.013 72.08 237.913 71.22 236.173 71.22C233.653 71.22 231.273 73.2 231.273 76.7V76.74C231.273 80.24 233.693 82.22 236.173 82.22ZM236.753 80.12C235.113 80.12 233.713 78.78 233.713 76.74V76.7C233.713 74.6 235.093 73.32 236.753 73.32C238.373 73.32 239.813 74.66 239.813 76.7V76.74C239.813 78.76 238.373 80.12 236.753 80.12ZM41.8 110H44.26V104.1H50.94V110H53.4V96H50.94V101.82H44.26V96H41.8V110ZM61.5553 110.24C63.4953 110.24 64.8753 109.46 65.8753 108.26L64.4553 107C63.6153 107.82 62.7753 108.26 61.5953 108.26C60.0353 108.26 58.8153 107.3 58.5553 105.58H66.3153C66.3353 105.34 66.3553 105.12 66.3553 104.9C66.3553 101.86 64.6553 99.22 61.2953 99.22C58.2753 99.22 56.1353 101.7 56.1353 104.72V104.76C56.1353 108.02 58.4953 110.24 61.5553 110.24ZM58.5353 103.98C58.7553 102.34 59.7953 101.2 61.2753 101.2C62.8753 101.2 63.7953 102.42 63.9553 103.98H58.5353ZM71.8256 110.22C73.4456 110.22 74.5456 109.54 75.2656 108.68V110H77.6256V103.74C77.6256 102.36 77.2656 101.24 76.4856 100.48C75.7456 99.72 74.5656 99.3 72.9856 99.3C71.3056 99.3 70.1656 99.64 69.0056 100.16L69.6456 102.06C70.6056 101.66 71.4856 101.4 72.6656 101.4C74.3656 101.4 75.2856 102.2 75.2856 103.7V103.96C74.4656 103.7 73.6256 103.52 72.4456 103.52C69.8656 103.52 68.0856 104.64 68.0856 106.92V106.96C68.0856 109.08 69.8456 110.22 71.8256 110.22ZM72.5056 108.46C71.3456 108.46 70.4456 107.88 70.4456 106.86V106.82C70.4456 105.72 71.3656 105.06 72.9256 105.06C73.8856 105.06 74.7056 105.24 75.3256 105.48V106.2C75.3256 107.54 74.1056 108.46 72.5056 108.46ZM83.9663 110.18C84.8863 110.18 85.5463 109.98 86.1463 109.64V107.66C85.6663 107.9 85.1863 108.02 84.6463 108.02C83.8263 108.02 83.3463 107.64 83.3463 106.7V101.52H86.1863V99.44H83.3463V96.54H80.9263V99.44H79.5863V101.52H80.9263V107.08C80.9263 109.4 82.1863 110.18 83.9663 110.18ZM101.425 110.24C104.045 110.24 105.645 109.28 107.105 107.76L105.525 106.16C104.325 107.28 103.225 107.96 101.505 107.96C98.825 107.96 96.885 105.74 96.885 103V102.96C96.885 100.22 98.845 98.02 101.505 98.02C103.105 98.02 104.305 98.72 105.425 99.76L107.005 97.94C105.665 96.66 104.105 95.76 101.525 95.76C97.285 95.76 94.305 99.02 94.305 103V103.04C94.305 107.06 97.345 110.24 101.425 110.24ZM114.055 110.24C115.995 110.24 117.375 109.46 118.375 108.26L116.955 107C116.115 107.82 115.275 108.26 114.095 108.26C112.535 108.26 111.315 107.3 111.055 105.58H118.815C118.835 105.34 118.855 105.12 118.855 104.9C118.855 101.86 117.155 99.22 113.795 99.22C110.775 99.22 108.635 101.7 108.635 104.72V104.76C108.635 108.02 110.995 110.24 114.055 110.24ZM111.035 103.98C111.255 102.34 112.295 101.2 113.775 101.2C115.375 101.2 116.295 102.42 116.455 103.98H111.035ZM121.426 110H123.846V95.4H121.426V110ZM127.148 110H129.568V95.4H127.148V110ZM142.447 110H144.927V98.28H149.367V96H138.007V98.28H142.447V110ZM154.251 110.24C156.191 110.24 157.571 109.46 158.571 108.26L157.151 107C156.311 107.82 155.471 108.26 154.291 108.26C152.731 108.26 151.511 107.3 151.251 105.58H159.011C159.031 105.34 159.051 105.12 159.051 104.9C159.051 101.86 157.351 99.22 153.991 99.22C150.971 99.22 148.831 101.7 148.831 104.72V104.76C148.831 108.02 151.191 110.24 154.251 110.24ZM151.231 103.98C151.451 102.34 152.491 101.2 153.971 101.2C155.571 101.2 156.491 102.42 156.651 103.98H151.231ZM166.361 110.24C168.421 110.24 169.641 109.42 170.681 108.26L169.221 106.82C168.461 107.6 167.621 108.12 166.481 108.12C164.621 108.12 163.321 106.62 163.321 104.74V104.7C163.321 102.86 164.621 101.34 166.381 101.34C167.581 101.34 168.361 101.88 169.101 102.66L170.621 101.04C169.621 99.96 168.381 99.22 166.401 99.22C163.221 99.22 160.901 101.74 160.901 104.74V104.78C160.901 107.78 163.221 110.24 166.361 110.24ZM172.907 110H175.327V104.04C175.327 102.4 176.307 101.42 177.707 101.42C179.147 101.42 179.967 102.36 179.967 104V110H182.387V103.26C182.387 100.82 181.007 99.22 178.627 99.22C176.987 99.22 176.007 100.08 175.327 101.06V95.4H172.907V110ZM185.309 110H187.729V104.04C187.729 102.4 188.709 101.42 190.109 101.42C191.549 101.42 192.369 102.36 192.369 104V110H194.789V103.26C194.789 100.82 193.409 99.22 191.029 99.22C189.389 99.22 188.409 100.08 187.729 101.06V99.44H185.309V110ZM202.731 110.24C205.991 110.24 208.391 107.74 208.391 104.74V104.7C208.391 101.68 206.011 99.22 202.771 99.22C199.531 99.22 197.131 101.72 197.131 104.74V104.78C197.131 107.78 199.511 110.24 202.731 110.24ZM202.771 108.12C200.891 108.12 199.551 106.58 199.551 104.74V104.7C199.551 102.86 200.791 101.34 202.731 101.34C204.631 101.34 205.971 102.88 205.971 104.74V104.78C205.971 106.6 204.731 108.12 202.771 108.12ZM210.996 110H213.416V95.4H210.996V110ZM221.599 110.24C224.859 110.24 227.259 107.74 227.259 104.74V104.7C227.259 101.68 224.879 99.22 221.639 99.22C218.399 99.22 215.999 101.72 215.999 104.74V104.78C215.999 107.78 218.379 110.24 221.599 110.24ZM221.639 108.12C219.759 108.12 218.419 106.58 218.419 104.74V104.7C218.419 102.86 219.659 101.34 221.599 101.34C223.499 101.34 224.839 102.88 224.839 104.74V104.78C224.839 106.6 223.599 108.12 221.639 108.12ZM234.423 113.24C236.323 113.24 237.803 112.78 238.763 111.82C239.643 110.94 240.103 109.62 240.103 107.84V99.44H237.683V101.02C236.863 100.04 235.763 99.22 233.983 99.22C231.523 99.22 229.183 101.06 229.183 104.18V104.22C229.183 107.32 231.503 109.16 233.983 109.16C235.723 109.16 236.823 108.36 237.703 107.22V108.04C237.703 110.16 236.523 111.28 234.363 111.28C232.923 111.28 231.743 110.86 230.603 110.16L229.703 111.98C231.063 112.8 232.683 113.24 234.423 113.24ZM234.623 107.1C232.963 107.1 231.623 105.92 231.623 104.2V104.16C231.623 102.42 232.943 101.26 234.623 101.26C236.303 101.26 237.723 102.44 237.723 104.16V104.2C237.723 105.92 236.303 107.1 234.623 107.1ZM247.721 107.28L244.741 99.44H242.141L246.541 110.02C246.141 110.92 245.721 111.22 245.041 111.22C244.541 111.22 244.061 111.06 243.621 110.82L242.801 112.62C243.541 113.02 244.301 113.26 245.301 113.26C247.001 113.26 247.941 112.46 248.781 110.3L252.981 99.44H250.461L247.721 107.28ZM254.995 102.18H257.655V99.44H254.995V102.18ZM254.995 110H257.655V107.24H254.995V110Z" fill="#CC112C"/>
<path d="M40.624 154H41.92L43.248 151.04H49.344L50.656 154H52.016L46.912 142.72H45.728L40.624 154ZM43.744 149.888L46.304 144.192L48.848 149.888H43.744ZM56.7526 154.16C58.4006 154.16 59.6966 153.248 59.6966 151.68V151.648C59.6966 150.16 58.3206 149.664 57.0406 149.28C55.9366 148.944 54.9126 148.64 54.9126 147.856V147.824C54.9126 147.136 55.5366 146.624 56.5126 146.624C57.3126 146.624 58.1926 146.928 58.9606 147.424L59.5206 146.496C58.6726 145.936 57.5526 145.584 56.5446 145.584C54.9126 145.584 53.7286 146.528 53.7286 147.952V147.984C53.7286 149.504 55.1686 149.952 56.4646 150.32C57.5526 150.624 58.5286 150.944 58.5286 151.776V151.808C58.5286 152.608 57.8086 153.12 56.8166 153.12C55.8406 153.12 54.8486 152.736 53.9526 152.064L53.3286 152.944C54.2566 153.696 55.5686 154.16 56.7526 154.16ZM69.5182 154.16C71.1663 154.16 72.4623 153.248 72.4623 151.68V151.648C72.4623 150.16 71.0863 149.664 69.8063 149.28C68.7023 148.944 67.6783 148.64 67.6783 147.856V147.824C67.6783 147.136 68.3023 146.624 69.2783 146.624C70.0783 146.624 70.9583 146.928 71.7263 147.424L72.2863 146.496C71.4383 145.936 70.3183 145.584 69.3103 145.584C67.6783 145.584 66.4943 146.528 66.4943 147.952V147.984C66.4943 149.504 67.9343 149.952 69.2303 150.32C70.3183 150.624 71.2943 150.944 71.2943 151.776V151.808C71.2943 152.608 70.5743 153.12 69.5823 153.12C68.6063 153.12 67.6143 152.736 66.7183 152.064L66.0943 152.944C67.0223 153.696 68.3343 154.16 69.5182 154.16ZM78.527 154.192C81.023 154.192 82.863 152.208 82.863 149.872V149.84C82.863 147.504 81.039 145.552 78.559 145.552C76.063 145.552 74.239 147.536 74.239 149.872V149.904C74.239 152.24 76.047 154.192 78.527 154.192ZM78.559 153.088C76.815 153.088 75.503 151.648 75.503 149.872V149.84C75.503 148.096 76.735 146.64 78.527 146.64C80.271 146.64 81.599 148.096 81.599 149.872V149.904C81.599 151.648 80.351 153.088 78.559 153.088ZM88.8708 154.192C91.3668 154.192 93.2068 152.208 93.2068 149.872V149.84C93.2068 147.504 91.3828 145.552 88.9028 145.552C86.4068 145.552 84.5828 147.536 84.5828 149.872V149.904C84.5828 152.24 86.3908 154.192 88.8708 154.192ZM88.9028 153.088C87.1588 153.088 85.8468 151.648 85.8468 149.872V149.84C85.8468 148.096 87.0788 146.64 88.8708 146.64C90.6148 146.64 91.9427 148.096 91.9427 149.872V149.904C91.9427 151.648 90.6948 153.088 88.9028 153.088ZM95.4385 154H96.6705V149.264C96.6705 147.712 97.7265 146.672 99.1505 146.672C100.607 146.672 101.439 147.632 101.439 149.168V154H102.671V148.864C102.671 146.896 101.503 145.552 99.5025 145.552C98.0785 145.552 97.2145 146.272 96.6705 147.168V145.728H95.4385V154ZM112.559 154.176C114.015 154.176 114.975 153.504 115.551 152.752V154H116.735V148.944C116.735 147.888 116.447 147.088 115.887 146.528C115.279 145.92 114.383 145.616 113.215 145.616C112.015 145.616 111.119 145.888 110.207 146.304L110.575 147.312C111.343 146.96 112.111 146.704 113.087 146.704C114.639 146.704 115.551 147.472 115.551 148.96V149.248C114.815 149.04 114.063 148.896 113.007 148.896C110.911 148.896 109.471 149.824 109.471 151.568V151.6C109.471 153.296 111.023 154.176 112.559 154.176ZM112.799 153.2C111.679 153.2 110.719 152.592 110.719 151.552V151.52C110.719 150.48 111.583 149.808 113.135 149.808C114.143 149.808 114.959 149.984 115.567 150.16V150.96C115.567 152.272 114.319 153.2 112.799 153.2ZM122.096 154.16C123.744 154.16 125.04 153.248 125.04 151.68V151.648C125.04 150.16 123.664 149.664 122.384 149.28C121.28 148.944 120.256 148.64 120.256 147.856V147.824C120.256 147.136 120.88 146.624 121.856 146.624C122.656 146.624 123.536 146.928 124.304 147.424L124.864 146.496C124.016 145.936 122.896 145.584 121.888 145.584C120.256 145.584 119.072 146.528 119.072 147.952V147.984C119.072 149.504 120.512 149.952 121.808 150.32C122.896 150.624 123.872 150.944 123.872 151.776V151.808C123.872 152.608 123.152 153.12 122.16 153.12C121.184 153.12 120.192 152.736 119.296 152.064L118.672 152.944C119.6 153.696 120.912 154.16 122.096 154.16ZM134.894 154.144C135.486 154.144 135.95 154.016 136.382 153.792V152.736C135.95 152.944 135.598 153.024 135.182 153.024C134.35 153.024 133.79 152.656 133.79 151.648V146.816H136.414V145.728H133.79V143.232H132.558V145.728H131.406V146.816H132.558V151.808C132.558 153.488 133.566 154.144 134.894 154.144ZM138.595 154H139.827V149.264C139.827 147.712 140.883 146.672 142.307 146.672C143.763 146.672 144.595 147.632 144.595 149.168V154H145.827V148.864C145.827 146.896 144.659 145.552 142.659 145.552C141.235 145.552 140.371 146.272 139.827 147.168V142.32H138.595V154ZM152.07 154.192C153.638 154.192 154.646 153.568 155.478 152.64L154.71 151.952C154.038 152.656 153.238 153.12 152.102 153.12C150.63 153.12 149.366 152.112 149.19 150.32H155.75C155.766 150.176 155.766 150.08 155.766 149.92C155.766 147.504 154.358 145.552 151.91 145.552C149.622 145.552 147.942 147.472 147.942 149.856V149.888C147.942 152.448 149.798 154.192 152.07 154.192ZM149.19 149.408C149.35 147.792 150.438 146.592 151.878 146.592C153.526 146.592 154.39 147.904 154.518 149.408H149.19ZM162.72 156.56H163.952V152.416C164.592 153.344 165.584 154.176 167.12 154.176C169.12 154.176 171.072 152.576 171.072 149.872V149.84C171.072 147.12 169.104 145.552 167.12 145.552C165.6 145.552 164.624 146.4 163.952 147.392V145.728H162.72V156.56ZM166.896 153.072C165.36 153.072 163.904 151.792 163.904 149.872V149.84C163.904 147.952 165.36 146.656 166.896 146.656C168.464 146.656 169.808 147.904 169.808 149.856V149.888C169.808 151.888 168.496 153.072 166.896 153.072ZM177.121 154.192C179.617 154.192 181.457 152.208 181.457 149.872V149.84C181.457 147.504 179.633 145.552 177.153 145.552C174.657 145.552 172.833 147.536 172.833 149.872V149.904C172.833 152.24 174.641 154.192 177.121 154.192ZM177.153 153.088C175.409 153.088 174.097 151.648 174.097 149.872V149.84C174.097 148.096 175.329 146.64 177.121 146.64C178.865 146.64 180.193 148.096 180.193 149.872V149.904C180.193 151.648 178.945 153.088 177.153 153.088ZM186.729 154.176C188.153 154.176 189.001 153.456 189.561 152.56V154H190.777V145.728H189.561V150.464C189.561 152.016 188.489 153.056 187.081 153.056C185.625 153.056 184.793 152.096 184.793 150.56V145.728H183.561V150.864C183.561 152.832 184.729 154.176 186.729 154.176ZM197.276 154.192C198.828 154.192 199.82 153.52 200.652 152.592L199.868 151.856C199.212 152.56 198.396 153.088 197.34 153.088C195.612 153.088 194.3 151.664 194.3 149.872V149.84C194.3 148.064 195.58 146.64 197.26 146.64C198.38 146.64 199.116 147.2 199.772 147.888L200.588 147.024C199.82 146.208 198.844 145.552 197.276 145.552C194.86 145.552 193.036 147.536 193.036 149.872V149.904C193.036 152.224 194.86 154.192 197.276 154.192ZM202.689 154H203.921V149.264C203.921 147.712 204.977 146.672 206.401 146.672C207.857 146.672 208.689 147.632 208.689 149.168V154H209.921V148.864C209.921 146.896 208.753 145.552 206.753 145.552C205.329 145.552 204.465 146.272 203.921 147.168V142.32H202.689V154ZM217.377 143.92H218.785V142.56H217.377V143.92ZM217.457 154H218.689V145.728H217.457V154ZM224.284 154.16C225.932 154.16 227.228 153.248 227.228 151.68V151.648C227.228 150.16 225.852 149.664 224.572 149.28C223.468 148.944 222.444 148.64 222.444 147.856V147.824C222.444 147.136 223.068 146.624 224.044 146.624C224.844 146.624 225.724 146.928 226.492 147.424L227.052 146.496C226.204 145.936 225.084 145.584 224.076 145.584C222.444 145.584 221.26 146.528 221.26 147.952V147.984C221.26 149.504 222.7 149.952 223.996 150.32C225.084 150.624 226.06 150.944 226.06 151.776V151.808C226.06 152.608 225.34 153.12 224.348 153.12C223.372 153.12 222.38 152.736 221.484 152.064L220.86 152.944C221.788 153.696 223.1 154.16 224.284 154.16ZM238.09 154.192C240.586 154.192 242.426 152.208 242.426 149.872V149.84C242.426 147.504 240.602 145.552 238.122 145.552C235.626 145.552 233.802 147.536 233.802 149.872V149.904C233.802 152.24 235.61 154.192 238.09 154.192ZM238.122 153.088C236.378 153.088 235.066 151.648 235.066 149.872V149.84C235.066 148.096 236.298 146.64 238.09 146.64C239.834 146.64 241.161 148.096 241.161 149.872V149.904C241.161 151.648 239.914 153.088 238.122 153.088ZM244.657 156.56H245.889V152.416C246.529 153.344 247.521 154.176 249.057 154.176C251.057 154.176 253.009 152.576 253.009 149.872V149.84C253.009 147.12 251.041 145.552 249.057 145.552C247.537 145.552 246.561 146.4 245.889 147.392V145.728H244.657V156.56ZM248.833 153.072C247.297 153.072 245.841 151.792 245.841 149.872V149.84C245.841 147.952 247.297 146.656 248.833 146.656C250.401 146.656 251.745 147.904 251.745 149.856V149.888C251.745 151.888 250.433 153.072 248.833 153.072ZM258.898 154.192C260.466 154.192 261.474 153.568 262.306 152.64L261.538 151.952C260.866 152.656 260.066 153.12 258.93 153.12C257.458 153.12 256.194 152.112 256.018 150.32H262.578C262.594 150.176 262.594 150.08 262.594 149.92C262.594 147.504 261.186 145.552 258.738 145.552C256.45 145.552 254.77 147.472 254.77 149.856V149.888C254.77 152.448 256.626 154.192 258.898 154.192ZM256.018 149.408C256.178 147.792 257.266 146.592 258.706 146.592C260.354 146.592 261.218 147.904 261.346 149.408H256.018ZM264.751 154H265.983V149.264C265.983 147.712 267.039 146.672 268.463 146.672C269.919 146.672 270.751 147.632 270.751 149.168V154H271.983V148.864C271.983 146.896 270.815 145.552 268.815 145.552C267.391 145.552 266.527 146.272 265.983 147.168V145.728H264.751V154ZM278.226 154.192C279.794 154.192 280.802 153.568 281.634 152.64L280.866 151.952C280.194 152.656 279.394 153.12 278.258 153.12C276.786 153.12 275.522 152.112 275.346 150.32H281.906C281.922 150.176 281.922 150.08 281.922 149.92C281.922 147.504 280.514 145.552 278.066 145.552C275.778 145.552 274.098 147.472 274.098 149.856V149.888C274.098 152.448 275.954 154.192 278.226 154.192ZM275.346 149.408C275.506 147.792 276.594 146.592 278.034 146.592C279.682 146.592 280.546 147.904 280.674 149.408H275.346ZM287.551 154.176C289.071 154.176 290.047 153.328 290.719 152.336V154H291.951V142.32H290.719V147.312C290.079 146.384 289.087 145.552 287.551 145.552C285.567 145.552 283.599 147.152 283.599 149.856V149.888C283.599 152.608 285.567 154.176 287.551 154.176ZM287.775 153.072C286.223 153.072 284.863 151.824 284.863 149.872V149.84C284.863 147.84 286.175 146.656 287.775 146.656C289.311 146.656 290.767 147.936 290.767 149.84V149.872C290.767 151.776 289.311 153.072 287.775 153.072ZM294.256 155.952C295.472 155.68 296.032 155.056 296.032 153.76V152.32H294.56V154H295.136C295.2 154.688 294.864 155.104 294.064 155.392L294.256 155.952ZM45.152 176.192C47.648 176.192 49.488 174.208 49.488 171.872V171.84C49.488 169.504 47.664 167.552 45.184 167.552C42.688 167.552 40.864 169.536 40.864 171.872V171.904C40.864 174.24 42.672 176.192 45.152 176.192ZM45.184 175.088C43.44 175.088 42.128 173.648 42.128 171.872V171.84C42.128 170.096 43.36 168.64 45.152 168.64C46.896 168.64 48.224 170.096 48.224 171.872V171.904C48.224 173.648 46.976 175.088 45.184 175.088ZM51.9413 167.728H50.5333L53.6373 171.792L50.4053 176H51.7812L54.3573 172.592L56.9173 176H58.3413L55.0773 171.776L58.2133 167.728H56.8373L54.3733 170.96L51.9413 167.728ZM63.7245 174.624L60.7165 167.728H59.3565L63.1165 175.968C62.6205 177.136 62.1565 177.52 61.4205 177.52C60.8925 177.52 60.5245 177.424 60.1245 177.216L59.7085 178.192C60.2685 178.464 60.7805 178.608 61.4685 178.608C62.7165 178.608 63.5165 177.984 64.2205 176.272L67.6925 167.728H66.3805L63.7245 174.624ZM72.8994 178.592C74.2114 178.592 75.3154 178.224 76.0514 177.488C76.7234 176.816 77.1074 175.84 77.1074 174.56V167.728H75.8754V169.216C75.2034 168.32 74.1954 167.552 72.6434 167.552C70.6754 167.552 68.7554 169.04 68.7554 171.456V171.488C68.7554 173.872 70.6594 175.36 72.6434 175.36C74.1634 175.36 75.1714 174.576 75.8914 173.616V174.592C75.8914 176.528 74.7074 177.536 72.8834 177.536C71.6994 177.536 70.6434 177.168 69.6994 176.48L69.1394 177.44C70.2434 178.208 71.5234 178.592 72.8994 178.592ZM72.8834 174.272C71.3474 174.272 70.0194 173.12 70.0194 171.456V171.424C70.0194 169.728 71.3154 168.64 72.8834 168.64C74.4514 168.64 75.9234 169.744 75.9234 171.44V171.472C75.9234 173.136 74.4514 174.272 72.8834 174.272ZM83.4764 176.192C85.0444 176.192 86.0524 175.568 86.8844 174.64L86.1164 173.952C85.4444 174.656 84.6444 175.12 83.5084 175.12C82.0364 175.12 80.7724 174.112 80.5964 172.32H87.1564C87.1724 172.176 87.1724 172.08 87.1724 171.92C87.1724 169.504 85.7644 167.552 83.3164 167.552C81.0284 167.552 79.3484 169.472 79.3484 171.856V171.888C79.3484 174.448 81.2044 176.192 83.4764 176.192ZM80.5964 171.408C80.7564 169.792 81.8444 168.592 83.2844 168.592C84.9324 168.592 85.7964 169.904 85.9244 171.408H80.5964ZM89.3291 176H90.5611V171.264C90.5611 169.712 91.6171 168.672 93.0411 168.672C94.4971 168.672 95.3291 169.632 95.3291 171.168V176H96.5611V170.864C96.5611 168.896 95.3931 167.552 93.3931 167.552C91.9691 167.552 91.1051 168.272 90.5611 169.168V167.728H89.3291V176ZM103.985 178.56H105.217V174.416C105.857 175.344 106.849 176.176 108.385 176.176C110.385 176.176 112.337 174.576 112.337 171.872V171.84C112.337 169.12 110.369 167.552 108.385 167.552C106.865 167.552 105.889 168.4 105.217 169.392V167.728H103.985V178.56ZM108.161 175.072C106.625 175.072 105.169 173.792 105.169 171.872V171.84C105.169 169.952 106.625 168.656 108.161 168.656C109.729 168.656 111.073 169.904 111.073 171.856V171.888C111.073 173.888 109.761 175.072 108.161 175.072ZM118.226 176.192C119.794 176.192 120.802 175.568 121.634 174.64L120.866 173.952C120.194 174.656 119.394 175.12 118.258 175.12C116.786 175.12 115.522 174.112 115.346 172.32H121.906C121.922 172.176 121.922 172.08 121.922 171.92C121.922 169.504 120.514 167.552 118.066 167.552C115.778 167.552 114.098 169.472 114.098 171.856V171.888C114.098 174.448 115.954 176.192 118.226 176.192ZM115.346 171.408C115.506 169.792 116.594 168.592 118.034 168.592C119.682 168.592 120.546 169.904 120.674 171.408H115.346ZM124.079 176H125.311V171.264C125.311 169.712 126.367 168.672 127.791 168.672C129.247 168.672 130.079 169.632 130.079 171.168V176H131.311V170.864C131.311 168.896 130.143 167.552 128.143 167.552C126.719 167.552 125.855 168.272 125.311 169.168V167.728H124.079V176ZM137.555 176.192C139.123 176.192 140.131 175.568 140.963 174.64L140.195 173.952C139.523 174.656 138.723 175.12 137.587 175.12C136.115 175.12 134.851 174.112 134.674 172.32H141.235C141.251 172.176 141.251 172.08 141.251 171.92C141.251 169.504 139.843 167.552 137.395 167.552C135.107 167.552 133.427 169.472 133.427 171.856V171.888C133.427 174.448 135.283 176.192 137.555 176.192ZM134.674 171.408C134.835 169.792 135.923 168.592 137.363 168.592C139.011 168.592 139.875 169.904 140.003 171.408H134.674ZM146.175 176.144C146.767 176.144 147.231 176.016 147.663 175.792V174.736C147.231 174.944 146.879 175.024 146.463 175.024C145.631 175.024 145.071 174.656 145.071 173.648V168.816H147.695V167.728H145.071V165.232H143.839V167.728H142.687V168.816H143.839V173.808C143.839 175.488 144.847 176.144 146.175 176.144ZM149.876 176H151.108V172.704C151.108 170.208 152.58 168.912 154.388 168.912H154.484V167.584C152.916 167.52 151.716 168.512 151.108 169.888V167.728H149.876V176ZM158.418 176.176C159.874 176.176 160.834 175.504 161.41 174.752V176H162.594V170.944C162.594 169.888 162.306 169.088 161.746 168.528C161.138 167.92 160.242 167.616 159.074 167.616C157.874 167.616 156.978 167.888 156.066 168.304L156.434 169.312C157.202 168.96 157.97 168.704 158.946 168.704C160.498 168.704 161.41 169.472 161.41 170.96V171.248C160.674 171.04 159.922 170.896 158.866 170.896C156.77 170.896 155.33 171.824 155.33 173.568V173.6C155.33 175.296 156.882 176.176 158.418 176.176ZM158.658 175.2C157.538 175.2 156.578 174.592 156.578 173.552V173.52C156.578 172.48 157.442 171.808 158.994 171.808C160.002 171.808 160.818 171.984 161.426 172.16V172.96C161.426 174.272 160.178 175.2 158.658 175.2ZM167.91 176.144C168.502 176.144 168.966 176.016 169.398 175.792V174.736C168.966 174.944 168.614 175.024 168.198 175.024C167.366 175.024 166.806 174.656 166.806 173.648V168.816H169.43V167.728H166.806V165.232H165.574V167.728H164.422V168.816H165.574V173.808C165.574 175.488 166.582 176.144 167.91 176.144ZM174.992 176.192C176.56 176.192 177.568 175.568 178.4 174.64L177.632 173.952C176.96 174.656 176.16 175.12 175.024 175.12C173.552 175.12 172.288 174.112 172.112 172.32H178.672C178.688 172.176 178.688 172.08 178.688 171.92C178.688 169.504 177.28 167.552 174.832 167.552C172.544 167.552 170.864 169.472 170.864 171.856V171.888C170.864 174.448 172.72 176.192 174.992 176.192ZM172.112 171.408C172.272 169.792 173.36 168.592 174.8 168.592C176.448 168.592 177.312 169.904 177.44 171.408H172.112ZM183.581 176.16C185.229 176.16 186.525 175.248 186.525 173.68V173.648C186.525 172.16 185.149 171.664 183.869 171.28C182.765 170.944 181.741 170.64 181.741 169.856V169.824C181.741 169.136 182.365 168.624 183.341 168.624C184.141 168.624 185.021 168.928 185.789 169.424L186.349 168.496C185.501 167.936 184.381 167.584 183.373 167.584C181.741 167.584 180.557 168.528 180.557 169.952V169.984C180.557 171.504 181.997 171.952 183.293 172.32C184.381 172.624 185.357 172.944 185.357 173.776V173.808C185.357 174.608 184.637 175.12 183.645 175.12C182.669 175.12 181.677 174.736 180.781 174.064L180.157 174.944C181.085 175.696 182.397 176.16 183.581 176.16ZM193.642 165.92H195.05V164.56H193.642V165.92ZM193.722 176H194.954V167.728H193.722V176ZM197.814 176H199.046V171.264C199.046 169.712 200.102 168.672 201.526 168.672C202.982 168.672 203.814 169.632 203.814 171.168V176H205.046V170.864C205.046 168.896 203.878 167.552 201.878 167.552C200.454 167.552 199.59 168.272 199.046 169.168V167.728H197.814V176ZM210.441 176.144C211.033 176.144 211.497 176.016 211.929 175.792V174.736C211.497 174.944 211.145 175.024 210.729 175.024C209.897 175.024 209.337 174.656 209.337 173.648V168.816H211.961V167.728H209.337V165.232H208.105V167.728H206.953V168.816H208.105V173.808C208.105 175.488 209.113 176.144 210.441 176.144ZM217.683 176.192C220.179 176.192 222.019 174.208 222.019 171.872V171.84C222.019 169.504 220.195 167.552 217.715 167.552C215.219 167.552 213.395 169.536 213.395 171.872V171.904C213.395 174.24 215.203 176.192 217.683 176.192ZM217.715 175.088C215.971 175.088 214.659 173.648 214.659 171.872V171.84C214.659 170.096 215.891 168.64 217.683 168.64C219.427 168.64 220.755 170.096 220.755 171.872V171.904C220.755 173.648 219.507 175.088 217.715 175.088ZM231.816 176.144C232.408 176.144 232.872 176.016 233.304 175.792V174.736C232.872 174.944 232.52 175.024 232.104 175.024C231.272 175.024 230.712 174.656 230.712 173.648V168.816H233.336V167.728H230.712V165.232H229.48V167.728H228.328V168.816H229.48V173.808C229.48 175.488 230.488 176.144 231.816 176.144ZM235.517 176H236.749V171.264C236.749 169.712 237.805 168.672 239.229 168.672C240.685 168.672 241.517 169.632 241.517 171.168V176H242.749V170.864C242.749 168.896 241.581 167.552 239.581 167.552C238.157 167.552 237.293 168.272 236.749 169.168V164.32H235.517V176ZM248.992 176.192C250.56 176.192 251.568 175.568 252.4 174.64L251.632 173.952C250.96 174.656 250.16 175.12 249.024 175.12C247.552 175.12 246.288 174.112 246.112 172.32H252.672C252.688 172.176 252.688 172.08 252.688 171.92C252.688 169.504 251.28 167.552 248.832 167.552C246.544 167.552 244.864 169.472 244.864 171.856V171.888C244.864 174.448 246.72 176.192 248.992 176.192ZM246.112 171.408C246.272 169.792 247.36 168.592 248.8 168.592C250.448 168.592 251.312 169.904 251.44 171.408H246.112ZM259.642 176H260.874V171.264C260.874 169.712 261.93 168.672 263.354 168.672C264.81 168.672 265.642 169.632 265.642 171.168V176H266.874V170.864C266.874 168.896 265.706 167.552 263.706 167.552C262.282 167.552 261.418 168.272 260.874 169.168V164.32H259.642V176ZM273.117 176.192C274.685 176.192 275.693 175.568 276.525 174.64L275.757 173.952C275.085 174.656 274.285 175.12 273.149 175.12C271.677 175.12 270.413 174.112 270.237 172.32H276.797C276.813 172.176 276.813 172.08 276.813 171.92C276.813 169.504 275.405 167.552 272.957 167.552C270.669 167.552 268.989 169.472 268.989 171.856V171.888C268.989 174.448 270.845 176.192 273.117 176.192ZM270.237 171.408C270.397 169.792 271.485 168.592 272.925 168.592C274.573 168.592 275.437 169.904 275.565 171.408H270.237ZM281.434 176.176C282.89 176.176 283.85 175.504 284.426 174.752V176H285.61V170.944C285.61 169.888 285.322 169.088 284.762 168.528C284.154 167.92 283.258 167.616 282.09 167.616C280.89 167.616 279.994 167.888 279.082 168.304L279.45 169.312C280.218 168.96 280.986 168.704 281.962 168.704C283.514 168.704 284.426 169.472 284.426 170.96V171.248C283.69 171.04 282.938 170.896 281.882 170.896C279.786 170.896 278.346 171.824 278.346 173.568V173.6C278.346 175.296 279.898 176.176 281.434 176.176ZM281.674 175.2C280.554 175.2 279.594 174.592 279.594 173.552V173.52C279.594 172.48 280.458 171.808 282.01 171.808C283.018 171.808 283.834 171.984 284.442 172.16V172.96C284.442 174.272 283.194 175.2 281.674 175.2ZM290.925 176.144C291.517 176.144 291.981 176.016 292.413 175.792V174.736C291.981 174.944 291.629 175.024 291.213 175.024C290.381 175.024 289.821 174.656 289.821 173.648V168.816H292.445V167.728H289.821V165.232H288.589V167.728H287.437V168.816H288.589V173.808C288.589 175.488 289.597 176.144 290.925 176.144ZM303.151 176.192C304.703 176.192 305.695 175.52 306.527 174.592L305.743 173.856C305.087 174.56 304.271 175.088 303.215 175.088C301.487 175.088 300.175 173.664 300.175 171.872V171.84C300.175 170.064 301.455 168.64 303.135 168.64C304.255 168.64 304.991 169.2 305.647 169.888L306.463 169.024C305.695 168.208 304.719 167.552 303.151 167.552C300.735 167.552 298.911 169.536 298.911 171.872V171.904C298.911 174.224 300.735 176.192 303.151 176.192ZM311.945 176.192C313.513 176.192 314.521 175.568 315.353 174.64L314.585 173.952C313.913 174.656 313.113 175.12 311.977 175.12C310.505 175.12 309.241 174.112 309.065 172.32H315.625C315.641 172.176 315.641 172.08 315.641 171.92C315.641 169.504 314.233 167.552 311.785 167.552C309.497 167.552 307.817 169.472 307.817 171.856V171.888C307.817 174.448 309.673 176.192 311.945 176.192ZM309.065 171.408C309.225 169.792 310.313 168.592 311.753 168.592C313.401 168.592 314.265 169.904 314.393 171.408H309.065ZM317.91 176H319.142V164.32H317.91V176ZM322.113 176H323.345V164.32H322.113V176ZM328.94 176.16C330.588 176.16 331.884 175.248 331.884 173.68V173.648C331.884 172.16 330.508 171.664 329.228 171.28C328.124 170.944 327.1 170.64 327.1 169.856V169.824C327.1 169.136 327.724 168.624 328.7 168.624C329.5 168.624 330.38 168.928 331.148 169.424L331.708 168.496C330.86 167.936 329.74 167.584 328.732 167.584C327.1 167.584 325.916 168.528 325.916 169.952V169.984C325.916 171.504 327.356 171.952 328.652 172.32C329.74 172.624 330.716 172.944 330.716 173.776V173.808C330.716 174.608 329.996 175.12 329.004 175.12C328.028 175.12 327.036 174.736 326.14 174.064L325.516 174.944C326.444 175.696 327.756 176.16 328.94 176.16ZM334.029 176H335.501V174.32H334.029V176ZM44.544 198H45.824V187.968H49.584V186.8H40.784V187.968H44.544V198ZM51.501 198H52.733V193.264C52.733 191.712 53.789 190.672 55.213 190.672C56.669 190.672 57.501 191.632 57.501 193.168V198H58.733V192.864C58.733 190.896 57.565 189.552 55.565 189.552C54.141 189.552 53.277 190.272 52.733 191.168V186.32H51.501V198ZM64.9764 198.192C66.5444 198.192 67.5524 197.568 68.3844 196.64L67.6164 195.952C66.9444 196.656 66.1444 197.12 65.0084 197.12C63.5364 197.12 62.2724 196.112 62.0964 194.32H68.6564C68.6724 194.176 68.6724 194.08 68.6724 193.92C68.6724 191.504 67.2644 189.552 64.8164 189.552C62.5284 189.552 60.8484 191.472 60.8484 193.856V193.888C60.8484 196.448 62.7044 198.192 64.9764 198.192ZM62.0964 193.408C62.2564 191.792 63.3444 190.592 64.7844 190.592C66.4324 190.592 67.2964 191.904 67.4244 193.408H62.0964ZM79.354 198.192C80.906 198.192 81.898 197.52 82.73 196.592L81.946 195.856C81.29 196.56 80.474 197.088 79.418 197.088C77.69 197.088 76.378 195.664 76.378 193.872V193.84C76.378 192.064 77.658 190.64 79.338 190.64C80.458 190.64 81.194 191.2 81.85 191.888L82.666 191.024C81.898 190.208 80.922 189.552 79.354 189.552C76.938 189.552 75.114 191.536 75.114 193.872V193.904C75.114 196.224 76.938 198.192 79.354 198.192ZM84.7666 198H85.9986V193.264C85.9986 191.712 87.0546 190.672 88.4786 190.672C89.9346 190.672 90.7666 191.632 90.7666 193.168V198H91.9986V192.864C91.9986 190.896 90.8306 189.552 88.8306 189.552C87.4066 189.552 86.5426 190.272 85.9986 191.168V186.32H84.7666V198ZM98.242 198.192C99.81 198.192 100.818 197.568 101.65 196.64L100.882 195.952C100.21 196.656 99.41 197.12 98.274 197.12C96.802 197.12 95.538 196.112 95.362 194.32H101.922C101.938 194.176 101.938 194.08 101.938 193.92C101.938 191.504 100.53 189.552 98.082 189.552C95.794 189.552 94.114 191.472 94.114 193.856V193.888C94.114 196.448 95.97 198.192 98.242 198.192ZM95.362 193.408C95.522 191.792 96.61 190.592 98.05 190.592C99.698 190.592 100.562 191.904 100.69 193.408H95.362ZM104.095 198H105.327V193.28C105.327 191.76 106.319 190.672 107.631 190.672C108.943 190.672 109.759 191.584 109.759 193.136V198H110.991V193.232C110.991 191.6 112.015 190.672 113.263 190.672C114.607 190.672 115.407 191.568 115.407 193.168V198H116.639V192.88C116.639 190.832 115.471 189.552 113.567 189.552C112.127 189.552 111.247 190.288 110.655 191.2C110.207 190.272 109.343 189.552 107.999 189.552C106.607 189.552 105.871 190.304 105.327 191.12V189.728H104.095V198ZM119.346 187.92H120.754V186.56H119.346V187.92ZM119.426 198H120.658V189.728H119.426V198ZM127.245 198.192C128.797 198.192 129.789 197.52 130.621 196.592L129.837 195.856C129.181 196.56 128.365 197.088 127.309 197.088C125.581 197.088 124.269 195.664 124.269 193.872V193.84C124.269 192.064 125.549 190.64 127.229 190.64C128.349 190.64 129.085 191.2 129.741 191.888L130.557 191.024C129.789 190.208 128.813 189.552 127.245 189.552C124.829 189.552 123.005 191.536 123.005 193.872V193.904C123.005 196.224 124.829 198.192 127.245 198.192ZM135.121 198.176C136.577 198.176 137.537 197.504 138.113 196.752V198H139.297V192.944C139.297 191.888 139.009 191.088 138.449 190.528C137.841 189.92 136.945 189.616 135.777 189.616C134.577 189.616 133.681 189.888 132.769 190.304L133.137 191.312C133.905 190.96 134.673 190.704 135.649 190.704C137.201 190.704 138.113 191.472 138.113 192.96V193.248C137.377 193.04 136.625 192.896 135.569 192.896C133.473 192.896 132.033 193.824 132.033 195.568V195.6C132.033 197.296 133.585 198.176 135.121 198.176ZM135.361 197.2C134.241 197.2 133.281 196.592 133.281 195.552V195.52C133.281 194.48 134.145 193.808 135.697 193.808C136.705 193.808 137.521 193.984 138.129 194.16V194.96C138.129 196.272 136.881 197.2 135.361 197.2ZM142.035 198H143.267V186.32H142.035V198ZM150.923 198H152.155V194.704C152.155 192.208 153.627 190.912 155.435 190.912H155.531V189.584C153.963 189.52 152.763 190.512 152.155 191.888V189.728H150.923V198ZM160.664 198.192C162.232 198.192 163.24 197.568 164.072 196.64L163.304 195.952C162.632 196.656 161.832 197.12 160.696 197.12C159.224 197.12 157.96 196.112 157.784 194.32H164.344C164.36 194.176 164.36 194.08 164.36 193.92C164.36 191.504 162.952 189.552 160.504 189.552C158.216 189.552 156.536 191.472 156.536 193.856V193.888C156.536 196.448 158.392 198.192 160.664 198.192ZM157.784 193.408C157.944 191.792 159.032 190.592 160.472 190.592C162.12 190.592 162.984 191.904 163.112 193.408H157.784ZM168.981 198.176C170.437 198.176 171.397 197.504 171.973 196.752V198H173.157V192.944C173.157 191.888 172.869 191.088 172.309 190.528C171.701 189.92 170.805 189.616 169.637 189.616C168.437 189.616 167.541 189.888 166.629 190.304L166.997 191.312C167.765 190.96 168.533 190.704 169.509 190.704C171.061 190.704 171.973 191.472 171.973 192.96V193.248C171.237 193.04 170.485 192.896 169.429 192.896C167.333 192.896 165.893 193.824 165.893 195.568V195.6C165.893 197.296 167.445 198.176 168.981 198.176ZM169.221 197.2C168.101 197.2 167.141 196.592 167.141 195.552V195.52C167.141 194.48 168.005 193.808 169.557 193.808C170.565 193.808 171.381 193.984 171.989 194.16V194.96C171.989 196.272 170.741 197.2 169.221 197.2ZM179.51 198.192C181.062 198.192 182.054 197.52 182.886 196.592L182.102 195.856C181.446 196.56 180.63 197.088 179.574 197.088C177.846 197.088 176.534 195.664 176.534 193.872V193.84C176.534 192.064 177.814 190.64 179.494 190.64C180.614 190.64 181.35 191.2 182.006 191.888L182.822 191.024C182.054 190.208 181.078 189.552 179.51 189.552C177.094 189.552 175.27 191.536 175.27 193.872V193.904C175.27 196.224 177.094 198.192 179.51 198.192ZM187.691 198.144C188.283 198.144 188.747 198.016 189.179 197.792V196.736C188.747 196.944 188.395 197.024 187.979 197.024C187.147 197.024 186.587 196.656 186.587 195.648V190.816H189.211V189.728H186.587V187.232H185.355V189.728H184.203V190.816H185.355V195.808C185.355 197.488 186.363 198.144 187.691 198.144ZM191.424 187.92H192.832V186.56H191.424V187.92ZM191.504 198H192.736V189.728H191.504V198ZM199.371 198.192C201.867 198.192 203.707 196.208 203.707 193.872V193.84C203.707 191.504 201.883 189.552 199.403 189.552C196.907 189.552 195.083 191.536 195.083 193.872V193.904C195.083 196.24 196.891 198.192 199.371 198.192ZM199.403 197.088C197.659 197.088 196.347 195.648 196.347 193.872V193.84C196.347 192.096 197.579 190.64 199.371 190.64C201.115 190.64 202.443 192.096 202.443 193.872V193.904C202.443 195.648 201.195 197.088 199.403 197.088ZM205.939 198H207.171V193.264C207.171 191.712 208.227 190.672 209.651 190.672C211.107 190.672 211.939 191.632 211.939 193.168V198H213.171V192.864C213.171 190.896 212.003 189.552 210.003 189.552C208.579 189.552 207.715 190.272 207.171 191.168V189.728H205.939V198ZM220.627 187.92H222.035V186.56H220.627V187.92ZM220.707 198H221.939V189.728H220.707V198ZM227.534 198.16C229.182 198.16 230.478 197.248 230.478 195.68V195.648C230.478 194.16 229.102 193.664 227.822 193.28C226.718 192.944 225.694 192.64 225.694 191.856V191.824C225.694 191.136 226.318 190.624 227.294 190.624C228.094 190.624 228.974 190.928 229.742 191.424L230.302 190.496C229.454 189.936 228.334 189.584 227.326 189.584C225.694 189.584 224.51 190.528 224.51 191.952V191.984C224.51 193.504 225.95 193.952 227.246 194.32C228.334 194.624 229.31 194.944 229.31 195.776V195.808C229.31 196.608 228.59 197.12 227.598 197.12C226.622 197.12 225.63 196.736 224.734 196.064L224.11 196.944C225.038 197.696 226.35 198.16 227.534 198.16ZM240.332 198.144C240.924 198.144 241.388 198.016 241.82 197.792V196.736C241.388 196.944 241.036 197.024 240.62 197.024C239.788 197.024 239.228 196.656 239.228 195.648V190.816H241.852V189.728H239.228V187.232H237.996V189.728H236.844V190.816H237.996V195.808C237.996 197.488 239.004 198.144 240.332 198.144ZM244.032 198H245.264V194.704C245.264 192.208 246.736 190.912 248.544 190.912H248.64V189.584C247.072 189.52 245.872 190.512 245.264 191.888V189.728H244.032V198ZM250.549 187.92H251.957V186.56H250.549V187.92ZM250.629 198H251.861V189.728H250.629V198ZM258.384 200.592C259.696 200.592 260.8 200.224 261.536 199.488C262.208 198.816 262.592 197.84 262.592 196.56V189.728H261.36V191.216C260.688 190.32 259.68 189.552 258.128 189.552C256.16 189.552 254.24 191.04 254.24 193.456V193.488C254.24 195.872 256.144 197.36 258.128 197.36C259.648 197.36 260.656 196.576 261.376 195.616V196.592C261.376 198.528 260.192 199.536 258.368 199.536C257.184 199.536 256.128 199.168 255.184 198.48L254.624 199.44C255.728 200.208 257.008 200.592 258.384 200.592ZM258.368 196.272C256.832 196.272 255.504 195.12 255.504 193.456V193.424C255.504 191.728 256.8 190.64 258.368 190.64C259.936 190.64 261.408 191.744 261.408 193.44V193.472C261.408 195.136 259.936 196.272 258.368 196.272ZM269.009 200.592C270.321 200.592 271.425 200.224 272.161 199.488C272.833 198.816 273.217 197.84 273.217 196.56V189.728H271.985V191.216C271.313 190.32 270.305 189.552 268.753 189.552C266.785 189.552 264.865 191.04 264.865 193.456V193.488C264.865 195.872 266.769 197.36 268.753 197.36C270.273 197.36 271.281 196.576 272.001 195.616V196.592C272.001 198.528 270.817 199.536 268.993 199.536C267.809 199.536 266.753 199.168 265.809 198.48L265.249 199.44C266.353 200.208 267.633 200.592 269.009 200.592ZM268.993 196.272C267.457 196.272 266.129 195.12 266.129 193.456V193.424C266.129 191.728 267.425 190.64 268.993 190.64C270.561 190.64 272.033 191.744 272.033 193.44V193.472C272.033 195.136 270.561 196.272 268.993 196.272ZM279.586 198.192C281.154 198.192 282.162 197.568 282.994 196.64L282.226 195.952C281.554 196.656 280.754 197.12 279.618 197.12C278.146 197.12 276.882 196.112 276.706 194.32H283.266C283.282 194.176 283.282 194.08 283.282 193.92C283.282 191.504 281.874 189.552 279.426 189.552C277.138 189.552 275.458 191.472 275.458 193.856V193.888C275.458 196.448 277.314 198.192 279.586 198.192ZM276.706 193.408C276.866 191.792 277.954 190.592 279.394 190.592C281.042 190.592 281.906 191.904 282.034 193.408H276.706ZM285.439 198H286.671V194.704C286.671 192.208 288.143 190.912 289.951 190.912H290.047V189.584C288.479 189.52 287.279 190.512 286.671 191.888V189.728H285.439V198ZM295.18 198.192C296.748 198.192 297.756 197.568 298.588 196.64L297.82 195.952C297.148 196.656 296.348 197.12 295.212 197.12C293.74 197.12 292.476 196.112 292.299 194.32H298.86C298.876 194.176 298.876 194.08 298.876 193.92C298.876 191.504 297.468 189.552 295.02 189.552C292.732 189.552 291.052 191.472 291.052 193.856V193.888C291.052 196.448 292.908 198.192 295.18 198.192ZM292.299 193.408C292.46 191.792 293.548 190.592 294.988 190.592C296.636 190.592 297.5 191.904 297.628 193.408H292.299ZM304.504 198.176C306.024 198.176 307 197.328 307.672 196.336V198H308.904V186.32H307.672V191.312C307.032 190.384 306.04 189.552 304.504 189.552C302.52 189.552 300.552 191.152 300.552 193.856V193.888C300.552 196.608 302.52 198.176 304.504 198.176ZM304.728 197.072C303.176 197.072 301.816 195.824 301.816 193.872V193.84C301.816 191.84 303.128 190.656 304.728 190.656C306.264 190.656 307.72 191.936 307.72 193.84V193.872C307.72 195.776 306.264 197.072 304.728 197.072ZM43.84 220.176C45.296 220.176 46.256 219.504 46.832 218.752V220H48.016V214.944C48.016 213.888 47.728 213.088 47.168 212.528C46.56 211.92 45.664 211.616 44.496 211.616C43.296 211.616 42.4 211.888 41.488 212.304L41.856 213.312C42.624 212.96 43.392 212.704 44.368 212.704C45.92 212.704 46.832 213.472 46.832 214.96V215.248C46.096 215.04 45.344 214.896 44.288 214.896C42.192 214.896 40.752 215.824 40.752 217.568V217.6C40.752 219.296 42.304 220.176 43.84 220.176ZM44.08 219.2C42.96 219.2 42 218.592 42 217.552V217.52C42 216.48 42.864 215.808 44.416 215.808C45.424 215.808 46.24 215.984 46.848 216.16V216.96C46.848 218.272 45.6 219.2 44.08 219.2ZM50.6416 220H51.8736V215.264C51.8736 213.712 52.9296 212.672 54.3536 212.672C55.8096 212.672 56.6416 213.632 56.6416 215.168V220H57.8736V214.864C57.8736 212.896 56.7056 211.552 54.7056 211.552C53.2816 211.552 52.4176 212.272 51.8736 213.168V211.728H50.6416V220ZM63.973 220.176C65.493 220.176 66.469 219.328 67.141 218.336V220H68.373V208.32H67.141V213.312C66.501 212.384 65.509 211.552 63.973 211.552C61.989 211.552 60.021 213.152 60.021 215.856V215.888C60.021 218.608 61.989 220.176 63.973 220.176ZM64.197 219.072C62.645 219.072 61.285 217.824 61.285 215.872V215.84C61.285 213.84 62.597 212.656 64.197 212.656C65.733 212.656 67.189 213.936 67.189 215.84V215.872C67.189 217.776 65.733 219.072 64.197 219.072ZM79.6509 220.192C81.2029 220.192 82.1949 219.52 83.0269 218.592L82.2429 217.856C81.5869 218.56 80.7709 219.088 79.7149 219.088C77.9869 219.088 76.6749 217.664 76.6749 215.872V215.84C76.6749 214.064 77.9549 212.64 79.6349 212.64C80.7549 212.64 81.4909 213.2 82.1469 213.888L82.9629 213.024C82.1949 212.208 81.2189 211.552 79.6509 211.552C77.2349 211.552 75.4109 213.536 75.4109 215.872V215.904C75.4109 218.224 77.2349 220.192 79.6509 220.192ZM88.6051 220.192C91.1011 220.192 92.9411 218.208 92.9411 215.872V215.84C92.9411 213.504 91.1171 211.552 88.6371 211.552C86.1411 211.552 84.3171 213.536 84.3171 215.872V215.904C84.3171 218.24 86.1251 220.192 88.6051 220.192ZM88.6371 219.088C86.8931 219.088 85.5811 217.648 85.5811 215.872V215.84C85.5811 214.096 86.8131 212.64 88.6051 212.64C90.3491 212.64 91.6771 214.096 91.6771 215.872V215.904C91.6771 217.648 90.4291 219.088 88.6371 219.088ZM95.1729 220H96.4049V215.28C96.4049 213.76 97.3969 212.672 98.7089 212.672C100.021 212.672 100.837 213.584 100.837 215.136V220H102.069V215.232C102.069 213.6 103.093 212.672 104.341 212.672C105.685 212.672 106.485 213.568 106.485 215.168V220H107.717V214.88C107.717 212.832 106.549 211.552 104.645 211.552C103.205 211.552 102.325 212.288 101.733 213.2C101.285 212.272 100.421 211.552 99.0769 211.552C97.6849 211.552 96.9489 212.304 96.4049 213.12V211.728H95.1729V220ZM110.392 220H111.624V215.28C111.624 213.76 112.616 212.672 113.928 212.672C115.24 212.672 116.056 213.584 116.056 215.136V220H117.288V215.232C117.288 213.6 118.312 212.672 119.56 212.672C120.904 212.672 121.704 213.568 121.704 215.168V220H122.936V214.88C122.936 212.832 121.768 211.552 119.864 211.552C118.424 211.552 117.544 212.288 116.952 213.2C116.504 212.272 115.64 211.552 114.296 211.552C112.904 211.552 112.168 212.304 111.624 213.12V211.728H110.392V220ZM129.226 220.192C130.794 220.192 131.802 219.568 132.634 218.64L131.866 217.952C131.194 218.656 130.394 219.12 129.258 219.12C127.786 219.12 126.522 218.112 126.346 216.32H132.906C132.922 216.176 132.922 216.08 132.922 215.92C132.922 213.504 131.514 211.552 129.066 211.552C126.778 211.552 125.098 213.472 125.098 215.856V215.888C125.098 218.448 126.954 220.192 129.226 220.192ZM126.346 215.408C126.506 213.792 127.594 212.592 129.034 212.592C130.682 212.592 131.546 213.904 131.674 215.408H126.346ZM135.079 220H136.311V215.264C136.311 213.712 137.367 212.672 138.791 212.672C140.247 212.672 141.079 213.632 141.079 215.168V220H142.311V214.864C142.311 212.896 141.143 211.552 139.143 211.552C137.719 211.552 136.855 212.272 136.311 213.168V211.728H135.079V220ZM148.667 220.192C150.219 220.192 151.211 219.52 152.043 218.592L151.259 217.856C150.603 218.56 149.787 219.088 148.731 219.088C147.003 219.088 145.691 217.664 145.691 215.872V215.84C145.691 214.064 146.971 212.64 148.651 212.64C149.771 212.64 150.507 213.2 151.163 213.888L151.979 213.024C151.211 212.208 150.235 211.552 148.667 211.552C146.251 211.552 144.427 213.536 144.427 215.872V215.904C144.427 218.224 146.251 220.192 148.667 220.192ZM157.461 220.192C159.029 220.192 160.037 219.568 160.869 218.64L160.101 217.952C159.429 218.656 158.629 219.12 157.493 219.12C156.021 219.12 154.757 218.112 154.581 216.32H161.141C161.157 216.176 161.157 216.08 161.157 215.92C161.157 213.504 159.749 211.552 157.301 211.552C155.013 211.552 153.333 213.472 153.333 215.856V215.888C153.333 218.448 155.189 220.192 157.461 220.192ZM154.581 215.408C154.741 213.792 155.829 212.592 157.269 212.592C158.917 212.592 159.781 213.904 159.909 215.408H154.581ZM166.049 220.16C167.698 220.16 168.994 219.248 168.994 217.68V217.648C168.994 216.16 167.618 215.664 166.338 215.28C165.234 214.944 164.21 214.64 164.21 213.856V213.824C164.21 213.136 164.834 212.624 165.81 212.624C166.61 212.624 167.49 212.928 168.258 213.424L168.818 212.496C167.97 211.936 166.85 211.584 165.842 211.584C164.21 211.584 163.026 212.528 163.026 213.952V213.984C163.026 215.504 164.466 215.952 165.762 216.32C166.85 216.624 167.826 216.944 167.826 217.776V217.808C167.826 218.608 167.106 219.12 166.114 219.12C165.138 219.12 164.146 218.736 163.25 218.064L162.626 218.944C163.554 219.696 164.866 220.16 166.049 220.16ZM176.079 222.56H177.311V218.416C177.951 219.344 178.943 220.176 180.479 220.176C182.479 220.176 184.431 218.576 184.431 215.872V215.84C184.431 213.12 182.463 211.552 180.479 211.552C178.959 211.552 177.983 212.4 177.311 213.392V211.728H176.079V222.56ZM180.255 219.072C178.719 219.072 177.263 217.792 177.263 215.872V215.84C177.263 213.952 178.719 212.656 180.255 212.656C181.823 212.656 183.167 213.904 183.167 215.856V215.888C183.167 217.888 181.855 219.072 180.255 219.072ZM186.704 220H187.936V216.704C187.936 214.208 189.408 212.912 191.216 212.912H191.312V211.584C189.744 211.52 188.544 212.512 187.936 213.888V211.728H186.704V220ZM196.605 220.192C199.101 220.192 200.941 218.208 200.941 215.872V215.84C200.941 213.504 199.117 211.552 196.637 211.552C194.141 211.552 192.317 213.536 192.317 215.872V215.904C192.317 218.24 194.125 220.192 196.605 220.192ZM196.637 219.088C194.893 219.088 193.581 217.648 193.581 215.872V215.84C193.581 214.096 194.813 212.64 196.605 212.64C198.349 212.64 199.677 214.096 199.677 215.872V215.904C199.677 217.648 198.429 219.088 196.637 219.088ZM206.645 220.176C208.165 220.176 209.141 219.328 209.813 218.336V220H211.045V208.32H209.813V213.312C209.173 212.384 208.181 211.552 206.645 211.552C204.661 211.552 202.693 213.152 202.693 215.856V215.888C202.693 218.608 204.661 220.176 206.645 220.176ZM206.869 219.072C205.317 219.072 203.957 217.824 203.957 215.872V215.84C203.957 213.84 205.269 212.656 206.869 212.656C208.405 212.656 209.861 213.936 209.861 215.84V215.872C209.861 217.776 208.405 219.072 206.869 219.072ZM216.838 220.176C218.262 220.176 219.11 219.456 219.67 218.56V220H220.886V211.728H219.67V216.464C219.67 218.016 218.598 219.056 217.19 219.056C215.734 219.056 214.902 218.096 214.902 216.56V211.728H213.67V216.864C213.67 218.832 214.838 220.176 216.838 220.176ZM227.385 220.192C228.937 220.192 229.929 219.52 230.761 218.592L229.977 217.856C229.321 218.56 228.505 219.088 227.449 219.088C225.721 219.088 224.409 217.664 224.409 215.872V215.84C224.409 214.064 225.689 212.64 227.369 212.64C228.489 212.64 229.225 213.2 229.881 213.888L230.697 213.024C229.929 212.208 228.953 211.552 227.385 211.552C224.969 211.552 223.145 213.536 223.145 215.872V215.904C223.145 218.224 224.969 220.192 227.385 220.192ZM232.83 209.92H234.238V208.56H232.83V209.92ZM232.91 220H234.142V211.728H232.91V220ZM237.001 220H238.233V215.264C238.233 213.712 239.289 212.672 240.713 212.672C242.169 212.672 243.001 213.632 243.001 215.168V220H244.233V214.864C244.233 212.896 243.065 211.552 241.065 211.552C239.641 211.552 238.777 212.272 238.233 213.168V211.728H237.001V220ZM250.524 222.592C251.836 222.592 252.94 222.224 253.676 221.488C254.348 220.816 254.732 219.84 254.732 218.56V211.728H253.5V213.216C252.828 212.32 251.82 211.552 250.268 211.552C248.3 211.552 246.38 213.04 246.38 215.456V215.488C246.38 217.872 248.284 219.36 250.268 219.36C251.788 219.36 252.796 218.576 253.516 217.616V218.592C253.516 220.528 252.332 221.536 250.508 221.536C249.324 221.536 248.268 221.168 247.324 220.48L246.764 221.44C247.868 222.208 249.148 222.592 250.524 222.592ZM250.508 218.272C248.972 218.272 247.644 217.12 247.644 215.456V215.424C247.644 213.728 248.94 212.64 250.508 212.64C252.076 212.64 253.548 213.744 253.548 215.44V215.472C253.548 217.136 252.076 218.272 250.508 218.272ZM262.282 220H263.514V215.264C263.514 213.712 264.57 212.672 265.994 212.672C267.45 212.672 268.282 213.632 268.282 215.168V220H269.514V214.864C269.514 212.896 268.346 211.552 266.346 211.552C264.922 211.552 264.058 212.272 263.514 213.168V208.32H262.282V220ZM275.758 220.192C277.326 220.192 278.334 219.568 279.166 218.64L278.398 217.952C277.726 218.656 276.926 219.12 275.79 219.12C274.318 219.12 273.054 218.112 272.878 216.32H279.438C279.454 216.176 279.454 216.08 279.454 215.92C279.454 213.504 278.046 211.552 275.598 211.552C273.31 211.552 271.63 213.472 271.63 215.856V215.888C271.63 218.448 273.486 220.192 275.758 220.192ZM272.878 215.408C273.038 213.792 274.126 212.592 275.566 212.592C277.214 212.592 278.078 213.904 278.206 215.408H272.878ZM284.074 220.176C285.53 220.176 286.49 219.504 287.066 218.752V220H288.25V214.944C288.25 213.888 287.962 213.088 287.402 212.528C286.794 211.92 285.898 211.616 284.73 211.616C283.53 211.616 282.634 211.888 281.722 212.304L282.09 213.312C282.858 212.96 283.626 212.704 284.602 212.704C286.154 212.704 287.066 213.472 287.066 214.96V215.248C286.33 215.04 285.578 214.896 284.522 214.896C282.426 214.896 280.986 215.824 280.986 217.568V217.6C280.986 219.296 282.538 220.176 284.074 220.176ZM284.314 219.2C283.194 219.2 282.234 218.592 282.234 217.552V217.52C282.234 216.48 283.098 215.808 284.65 215.808C285.658 215.808 286.474 215.984 287.082 216.16V216.96C287.082 218.272 285.834 219.2 284.314 219.2ZM293.566 220.144C294.158 220.144 294.622 220.016 295.054 219.792V218.736C294.622 218.944 294.27 219.024 293.854 219.024C293.022 219.024 292.462 218.656 292.462 217.648V212.816H295.086V211.728H292.462V209.232H291.23V211.728H290.078V212.816H291.23V217.808C291.23 219.488 292.238 220.144 293.566 220.144ZM297.123 220H298.595V218.32H297.123V220ZM46.704 242.192C48.736 242.192 50.016 241.408 51.184 240.224L50.352 239.408C49.28 240.432 48.272 241.024 46.736 241.024C44.272 241.024 42.4 238.992 42.4 236.4V236.368C42.4 233.792 44.256 231.776 46.736 231.776C48.256 231.776 49.312 232.416 50.256 233.312L51.12 232.384C50 231.328 48.784 230.608 46.752 230.608C43.456 230.608 41.088 233.232 41.088 236.4V236.432C41.088 239.648 43.472 242.192 46.704 242.192ZM56.8083 242.192C59.3043 242.192 61.1443 240.208 61.1443 237.872V237.84C61.1443 235.504 59.3203 233.552 56.8403 233.552C54.3443 233.552 52.5203 235.536 52.5203 237.872V237.904C52.5203 240.24 54.3283 242.192 56.8083 242.192ZM56.8403 241.088C55.0963 241.088 53.7843 239.648 53.7843 237.872V237.84C53.7843 236.096 55.0163 234.64 56.8083 234.64C58.5523 234.64 59.8802 236.096 59.8802 237.872V237.904C59.8802 239.648 58.6323 241.088 56.8403 241.088ZM63.376 242H64.608V237.264C64.608 235.712 65.664 234.672 67.088 234.672C68.544 234.672 69.376 235.632 69.376 237.168V242H70.608V236.864C70.608 234.896 69.44 233.552 67.44 233.552C66.016 233.552 65.152 234.272 64.608 235.168V233.728H63.376V242ZM75.9714 242.16C77.6194 242.16 78.9154 241.248 78.9154 239.68V239.648C78.9154 238.16 77.5394 237.664 76.2594 237.28C75.1554 236.944 74.1314 236.64 74.1314 235.856V235.824C74.1314 235.136 74.7554 234.624 75.7314 234.624C76.5314 234.624 77.4114 234.928 78.1794 235.424L78.7394 234.496C77.8914 233.936 76.7714 233.584 75.7634 233.584C74.1314 233.584 72.9474 234.528 72.9474 235.952V235.984C72.9474 237.504 74.3874 237.952 75.6834 238.32C76.7714 238.624 77.7474 238.944 77.7474 239.776V239.808C77.7474 240.608 77.0274 241.12 76.0354 241.12C75.0594 241.12 74.0674 240.736 73.1714 240.064L72.5474 240.944C73.4754 241.696 74.7874 242.16 75.9714 242.16ZM83.8159 242.144C84.4079 242.144 84.8719 242.016 85.3039 241.792V240.736C84.8719 240.944 84.5199 241.024 84.1039 241.024C83.2719 241.024 82.7119 240.656 82.7119 239.648V234.816H85.3359V233.728H82.7119V231.232H81.4799V233.728H80.3279V234.816H81.4799V239.808C81.4799 241.488 82.4879 242.144 83.8159 242.144ZM89.9806 242.176C91.4366 242.176 92.3966 241.504 92.9726 240.752V242H94.1566V236.944C94.1566 235.888 93.8686 235.088 93.3086 234.528C92.7006 233.92 91.8046 233.616 90.6366 233.616C89.4366 233.616 88.5406 233.888 87.6286 234.304L87.9966 235.312C88.7646 234.96 89.5326 234.704 90.5086 234.704C92.0606 234.704 92.9726 235.472 92.9726 236.96V237.248C92.2366 237.04 91.4846 236.896 90.4286 236.896C88.3326 236.896 86.8926 237.824 86.8926 239.568V239.6C86.8926 241.296 88.4446 242.176 89.9806 242.176ZM90.2206 241.2C89.1006 241.2 88.1406 240.592 88.1406 239.552V239.52C88.1406 238.48 89.0046 237.808 90.5566 237.808C91.5646 237.808 92.3806 237.984 92.9886 238.16V238.96C92.9886 240.272 91.7406 241.2 90.2206 241.2ZM96.7823 242H98.0143V237.264C98.0143 235.712 99.0703 234.672 100.494 234.672C101.95 234.672 102.782 235.632 102.782 237.168V242H104.014V236.864C104.014 234.896 102.846 233.552 100.846 233.552C99.4223 233.552 98.5583 234.272 98.0143 235.168V233.728H96.7823V242ZM109.41 242.144C110.002 242.144 110.466 242.016 110.898 241.792V240.736C110.466 240.944 110.114 241.024 109.698 241.024C108.866 241.024 108.306 240.656 108.306 239.648V234.816H110.93V233.728H108.306V231.232H107.074V233.728H105.922V234.816H107.074V239.808C107.074 241.488 108.082 242.144 109.41 242.144ZM120.675 242.144C121.267 242.144 121.731 242.016 122.163 241.792V240.736C121.731 240.944 121.379 241.024 120.963 241.024C120.131 241.024 119.571 240.656 119.571 239.648V234.816H122.195V233.728H119.571V231.232H118.339V233.728H117.187V234.816H118.339V239.808C118.339 241.488 119.347 242.144 120.675 242.144ZM127.758 242.192C129.326 242.192 130.334 241.568 131.166 240.64L130.398 239.952C129.726 240.656 128.926 241.12 127.79 241.12C126.318 241.12 125.054 240.112 124.878 238.32H131.438C131.454 238.176 131.454 238.08 131.454 237.92C131.454 235.504 130.046 233.552 127.598 233.552C125.31 233.552 123.63 235.472 123.63 237.856V237.888C123.63 240.448 125.486 242.192 127.758 242.192ZM124.878 237.408C125.038 235.792 126.126 234.592 127.566 234.592C129.214 234.592 130.078 235.904 130.206 237.408H124.878ZM133.61 242H134.842V237.28C134.842 235.76 135.834 234.672 137.146 234.672C138.458 234.672 139.274 235.584 139.274 237.136V242H140.506V237.232C140.506 235.6 141.53 234.672 142.778 234.672C144.122 234.672 144.922 235.568 144.922 237.168V242H146.154V236.88C146.154 234.832 144.986 233.552 143.082 233.552C141.642 233.552 140.762 234.288 140.17 235.2C139.722 234.272 138.858 233.552 137.514 233.552C136.122 233.552 135.386 234.304 134.842 235.12V233.728H133.61V242ZM148.829 244.56H150.061V240.416C150.701 241.344 151.693 242.176 153.229 242.176C155.229 242.176 157.181 240.576 157.181 237.872V237.84C157.181 235.12 155.213 233.552 153.229 233.552C151.709 233.552 150.733 234.4 150.061 235.392V233.728H148.829V244.56ZM153.005 241.072C151.469 241.072 150.013 239.792 150.013 237.872V237.84C150.013 235.952 151.469 234.656 153.005 234.656C154.573 234.656 155.917 235.904 155.917 237.856V237.888C155.917 239.888 154.605 241.072 153.005 241.072ZM163.07 242.192C164.638 242.192 165.646 241.568 166.478 240.64L165.71 239.952C165.038 240.656 164.238 241.12 163.102 241.12C161.63 241.12 160.366 240.112 160.19 238.32H166.75C166.766 238.176 166.766 238.08 166.766 237.92C166.766 235.504 165.358 233.552 162.91 233.552C160.622 233.552 158.942 235.472 158.942 237.856V237.888C158.942 240.448 160.798 242.192 163.07 242.192ZM160.19 237.408C160.35 235.792 161.438 234.592 162.878 234.592C164.526 234.592 165.39 235.904 165.518 237.408H160.19ZM168.923 242H170.155V238.704C170.155 236.208 171.627 234.912 173.435 234.912H173.531V233.584C171.963 233.52 170.763 234.512 170.155 235.888V233.728H168.923V242ZM177.465 242.176C178.921 242.176 179.881 241.504 180.457 240.752V242H181.641V236.944C181.641 235.888 181.353 235.088 180.793 234.528C180.185 233.92 179.289 233.616 178.121 233.616C176.921 233.616 176.025 233.888 175.113 234.304L175.481 235.312C176.249 234.96 177.017 234.704 177.993 234.704C179.545 234.704 180.457 235.472 180.457 236.96V237.248C179.721 237.04 178.969 236.896 177.913 236.896C175.817 236.896 174.377 237.824 174.377 239.568V239.6C174.377 241.296 175.929 242.176 177.465 242.176ZM177.705 241.2C176.585 241.2 175.625 240.592 175.625 239.552V239.52C175.625 238.48 176.489 237.808 178.041 237.808C179.049 237.808 179.865 237.984 180.473 238.16V238.96C180.473 240.272 179.225 241.2 177.705 241.2ZM186.957 242.144C187.549 242.144 188.013 242.016 188.445 241.792V240.736C188.013 240.944 187.661 241.024 187.245 241.024C186.413 241.024 185.853 240.656 185.853 239.648V234.816H188.477V233.728H185.853V231.232H184.621V233.728H183.469V234.816H184.621V239.808C184.621 241.488 185.629 242.144 186.957 242.144ZM193.697 242.176C195.121 242.176 195.969 241.456 196.529 240.56V242H197.745V233.728H196.529V238.464C196.529 240.016 195.457 241.056 194.049 241.056C192.593 241.056 191.761 240.096 191.761 238.56V233.728H190.529V238.864C190.529 240.832 191.697 242.176 193.697 242.176ZM200.517 242H201.749V238.704C201.749 236.208 203.221 234.912 205.029 234.912H205.125V233.584C203.557 233.52 202.357 234.512 201.749 235.888V233.728H200.517V242ZM210.258 242.192C211.826 242.192 212.834 241.568 213.666 240.64L212.898 239.952C212.226 240.656 211.426 241.12 210.29 241.12C208.818 241.12 207.554 240.112 207.378 238.32H213.938C213.954 238.176 213.954 238.08 213.954 237.92C213.954 235.504 212.546 233.552 210.098 233.552C207.81 233.552 206.13 235.472 206.13 237.856V237.888C206.13 240.448 207.986 242.192 210.258 242.192ZM207.378 237.408C207.538 235.792 208.626 234.592 210.066 234.592C211.714 234.592 212.578 235.904 212.706 237.408H207.378ZM224.683 242.192C227.179 242.192 229.019 240.208 229.019 237.872V237.84C229.019 235.504 227.195 233.552 224.715 233.552C222.219 233.552 220.395 235.536 220.395 237.872V237.904C220.395 240.24 222.203 242.192 224.683 242.192ZM224.715 241.088C222.971 241.088 221.659 239.648 221.659 237.872V237.84C221.659 236.096 222.891 234.64 224.683 234.64C226.427 234.64 227.755 236.096 227.755 237.872V237.904C227.755 239.648 226.507 241.088 224.715 241.088ZM231.715 242H232.947V234.816H235.555V233.76H232.931V233.088C232.931 231.904 233.411 231.328 234.371 231.328C234.787 231.328 235.123 231.408 235.571 231.536V230.464C235.171 230.32 234.787 230.256 234.211 230.256C233.459 230.256 232.851 230.48 232.435 230.896C231.971 231.36 231.715 232.08 231.715 233.024V233.744H230.579V234.816H231.715V242ZM43.84 264.176C45.296 264.176 46.256 263.504 46.832 262.752V264H48.016V258.944C48.016 257.888 47.728 257.088 47.168 256.528C46.56 255.92 45.664 255.616 44.496 255.616C43.296 255.616 42.4 255.888 41.488 256.304L41.856 257.312C42.624 256.96 43.392 256.704 44.368 256.704C45.92 256.704 46.832 257.472 46.832 258.96V259.248C46.096 259.04 45.344 258.896 44.288 258.896C42.192 258.896 40.752 259.824 40.752 261.568V261.6C40.752 263.296 42.304 264.176 43.84 264.176ZM44.08 263.2C42.96 263.2 42 262.592 42 261.552V261.52C42 260.48 42.864 259.808 44.416 259.808C45.424 259.808 46.24 259.984 46.848 260.16V260.96C46.848 262.272 45.6 263.2 44.08 263.2ZM50.6416 266.56H51.8736V262.416C52.5136 263.344 53.5056 264.176 55.0416 264.176C57.0416 264.176 58.9936 262.576 58.9936 259.872V259.84C58.9936 257.12 57.0256 255.552 55.0416 255.552C53.5216 255.552 52.5456 256.4 51.8736 257.392V255.728H50.6416V266.56ZM54.8176 263.072C53.2816 263.072 51.8256 261.792 51.8256 259.872V259.84C51.8256 257.952 53.2816 256.656 54.8176 256.656C56.3856 256.656 57.7296 257.904 57.7296 259.856V259.888C57.7296 261.888 56.4176 263.072 54.8176 263.072ZM61.2666 266.56H62.4986V262.416C63.1386 263.344 64.1306 264.176 65.6666 264.176C67.6666 264.176 69.6186 262.576 69.6186 259.872V259.84C69.6186 257.12 67.6506 255.552 65.6666 255.552C64.1466 255.552 63.1706 256.4 62.4986 257.392V255.728H61.2666V266.56ZM65.4426 263.072C63.9066 263.072 62.4506 261.792 62.4506 259.872V259.84C62.4506 257.952 63.9066 256.656 65.4426 256.656C67.0106 256.656 68.3546 257.904 68.3546 259.856V259.888C68.3546 261.888 67.0426 263.072 65.4426 263.072ZM71.8916 264H73.1236V260.704C73.1236 258.208 74.5956 256.912 76.4036 256.912H76.4996V255.584C74.9316 255.52 73.7316 256.512 73.1236 257.888V255.728H71.8916V264ZM81.7926 264.192C84.2886 264.192 86.1286 262.208 86.1286 259.872V259.84C86.1286 257.504 84.3046 255.552 81.8246 255.552C79.3286 255.552 77.5046 257.536 77.5046 259.872V259.904C77.5046 262.24 79.3126 264.192 81.7926 264.192ZM81.8246 263.088C80.0806 263.088 78.7686 261.648 78.7686 259.872V259.84C78.7686 258.096 80.0006 256.64 81.7926 256.64C83.5366 256.64 84.8646 258.096 84.8646 259.872V259.904C84.8646 261.648 83.6166 263.088 81.8246 263.088ZM88.5819 255.728H87.1739L90.2779 259.792L87.0459 264H88.4219L90.9979 260.592L93.5579 264H94.9819L91.7179 259.776L94.8539 255.728H93.4779L91.0139 258.96L88.5819 255.728ZM97.0174 253.92H98.4254V252.56H97.0174V253.92ZM97.0974 264H98.3294V255.728H97.0974V264ZM101.189 264H102.421V259.28C102.421 257.76 103.413 256.672 104.725 256.672C106.037 256.672 106.853 257.584 106.853 259.136V264H108.085V259.232C108.085 257.6 109.109 256.672 110.357 256.672C111.701 256.672 112.501 257.568 112.501 259.168V264H113.733V258.88C113.733 256.832 112.565 255.552 110.661 255.552C109.22 255.552 108.341 256.288 107.749 257.2C107.301 256.272 106.437 255.552 105.093 255.552C103.701 255.552 102.965 256.304 102.421 257.12V255.728H101.189V264ZM118.871 264.176C120.327 264.176 121.287 263.504 121.863 262.752V264H123.047V258.944C123.047 257.888 122.759 257.088 122.199 256.528C121.591 255.92 120.695 255.616 119.527 255.616C118.327 255.616 117.431 255.888 116.519 256.304L116.887 257.312C117.655 256.96 118.423 256.704 119.399 256.704C120.951 256.704 121.863 257.472 121.863 258.96V259.248C121.127 259.04 120.375 258.896 119.319 258.896C117.223 258.896 115.783 259.824 115.783 261.568V261.6C115.783 263.296 117.335 264.176 118.871 264.176ZM119.111 263.2C117.991 263.2 117.031 262.592 117.031 261.552V261.52C117.031 260.48 117.895 259.808 119.447 259.808C120.455 259.808 121.271 259.984 121.879 260.16V260.96C121.879 262.272 120.631 263.2 119.111 263.2ZM128.363 264.144C128.955 264.144 129.419 264.016 129.851 263.792V262.736C129.419 262.944 129.067 263.024 128.651 263.024C127.819 263.024 127.259 262.656 127.259 261.648V256.816H129.883V255.728H127.259V253.232H126.027V255.728H124.875V256.816H126.027V261.808C126.027 263.488 127.035 264.144 128.363 264.144ZM135.445 264.192C137.013 264.192 138.021 263.568 138.853 262.64L138.085 261.952C137.413 262.656 136.613 263.12 135.477 263.12C134.005 263.12 132.741 262.112 132.565 260.32H139.125C139.141 260.176 139.141 260.08 139.141 259.92C139.141 257.504 137.733 255.552 135.285 255.552C132.997 255.552 131.317 257.472 131.317 259.856V259.888C131.317 262.448 133.173 264.192 135.445 264.192ZM132.565 259.408C132.725 257.792 133.813 256.592 135.253 256.592C136.901 256.592 137.765 257.904 137.893 259.408H132.565ZM141.41 264H142.642V252.32H141.41V264ZM149.037 262.624L146.029 255.728H144.669L148.429 263.968C147.933 265.136 147.469 265.52 146.733 265.52C146.205 265.52 145.837 265.424 145.437 265.216L145.021 266.192C145.581 266.464 146.093 266.608 146.781 266.608C148.029 266.608 148.829 265.984 149.533 264.272L153.005 255.728H151.693L149.037 262.624ZM165.287 264H166.519V261.344H168.247V260.288H166.519V252.72H165.399L159.063 260.416L159.383 261.344H165.287V264ZM160.583 260.288L165.287 254.512V260.288H160.583ZM174.821 264.192C177.701 264.192 179.557 261.536 179.557 258.4V258.368C179.557 255.232 177.733 252.608 174.853 252.608C171.973 252.608 170.101 255.264 170.101 258.4V258.432C170.101 261.568 171.925 264.192 174.821 264.192ZM174.853 263.04C172.757 263.04 171.413 260.848 171.413 258.4V258.368C171.413 255.904 172.725 253.76 174.821 253.76C176.901 253.76 178.245 255.952 178.245 258.4V258.432C178.245 260.88 176.949 263.04 174.853 263.04ZM184.211 257.6C185.523 257.6 186.723 256.464 186.723 255.168V255.136C186.723 253.824 185.523 252.704 184.211 252.704C182.899 252.704 181.699 253.824 181.699 255.136V255.168C181.699 256.464 182.899 257.6 184.211 257.6ZM184.211 256.768C183.299 256.768 182.627 256 182.627 255.168V255.136C182.627 254.304 183.299 253.536 184.211 253.536C185.123 253.536 185.795 254.304 185.795 255.136V255.168C185.795 256 185.123 256.768 184.211 256.768ZM194.579 264.192C196.611 264.192 197.891 263.408 199.059 262.224L198.227 261.408C197.155 262.432 196.147 263.024 194.611 263.024C192.147 263.024 190.275 260.992 190.275 258.4V258.368C190.275 255.792 192.131 253.776 194.611 253.776C196.131 253.776 197.187 254.416 198.131 255.312L198.995 254.384C197.875 253.328 196.659 252.608 194.627 252.608C191.331 252.608 188.963 255.232 188.963 258.4V258.432C188.963 261.648 191.347 264.192 194.579 264.192ZM205.892 253.92H207.3V252.56H205.892V253.92ZM205.972 264H207.204V255.728H205.972V264ZM212.799 264.16C214.448 264.16 215.744 263.248 215.744 261.68V261.648C215.744 260.16 214.368 259.664 213.088 259.28C211.984 258.944 210.96 258.64 210.96 257.856V257.824C210.96 257.136 211.584 256.624 212.56 256.624C213.36 256.624 214.24 256.928 215.008 257.424L215.568 256.496C214.72 255.936 213.6 255.584 212.592 255.584C210.96 255.584 209.776 256.528 209.776 257.952V257.984C209.776 259.504 211.216 259.952 212.512 260.32C213.6 260.624 214.576 260.944 214.576 261.776V261.808C214.576 262.608 213.856 263.12 212.864 263.12C211.888 263.12 210.896 262.736 210 262.064L209.376 262.944C210.304 263.696 211.616 264.16 212.799 264.16ZM226.493 266.592C227.805 266.592 228.909 266.224 229.645 265.488C230.317 264.816 230.701 263.84 230.701 262.56V255.728H229.469V257.216C228.797 256.32 227.789 255.552 226.237 255.552C224.269 255.552 222.349 257.04 222.349 259.456V259.488C222.349 261.872 224.253 263.36 226.237 263.36C227.757 263.36 228.765 262.576 229.485 261.616V262.592C229.485 264.528 228.301 265.536 226.477 265.536C225.293 265.536 224.237 265.168 223.293 264.48L222.733 265.44C223.837 266.208 225.117 266.592 226.493 266.592ZM226.477 262.272C224.941 262.272 223.613 261.12 223.613 259.456V259.424C223.613 257.728 224.909 256.64 226.477 256.64C228.045 256.64 229.517 257.744 229.517 259.44V259.472C229.517 261.136 228.045 262.272 226.477 262.272ZM237.07 264.192C238.638 264.192 239.646 263.568 240.478 262.64L239.71 261.952C239.038 262.656 238.238 263.12 237.102 263.12C235.63 263.12 234.366 262.112 234.19 260.32H240.75C240.766 260.176 240.766 260.08 240.766 259.92C240.766 257.504 239.358 255.552 236.91 255.552C234.622 255.552 232.942 257.472 232.942 259.856V259.888C232.942 262.448 234.798 264.192 237.07 264.192ZM234.19 259.408C234.35 257.792 235.438 256.592 236.878 256.592C238.526 256.592 239.39 257.904 239.518 259.408H234.19ZM242.923 264H244.155V259.264C244.155 257.712 245.211 256.672 246.635 256.672C248.091 256.672 248.923 257.632 248.923 259.168V264H250.155V258.864C250.155 256.896 248.987 255.552 246.987 255.552C245.563 255.552 244.699 256.272 244.155 257.168V255.728H242.923V264ZM256.398 264.192C257.966 264.192 258.974 263.568 259.806 262.64L259.038 261.952C258.366 262.656 257.566 263.12 256.43 263.12C254.958 263.12 253.694 262.112 253.518 260.32H260.078C260.094 260.176 260.094 260.08 260.094 259.92C260.094 257.504 258.686 255.552 256.238 255.552C253.95 255.552 252.27 257.472 252.27 259.856V259.888C252.27 262.448 254.126 264.192 256.398 264.192ZM253.518 259.408C253.678 257.792 254.766 256.592 256.206 256.592C257.854 256.592 258.718 257.904 258.846 259.408H253.518ZM262.251 264H263.483V260.704C263.483 258.208 264.955 256.912 266.763 256.912H266.859V255.584C265.291 255.52 264.091 256.512 263.483 257.888V255.728H262.251V264ZM270.793 264.176C272.249 264.176 273.209 263.504 273.785 262.752V264H274.969V258.944C274.969 257.888 274.681 257.088 274.121 256.528C273.513 255.92 272.617 255.616 271.449 255.616C270.249 255.616 269.353 255.888 268.441 256.304L268.809 257.312C269.577 256.96 270.345 256.704 271.321 256.704C272.873 256.704 273.785 257.472 273.785 258.96V259.248C273.049 259.04 272.297 258.896 271.241 258.896C269.145 258.896 267.705 259.824 267.705 261.568V261.6C267.705 263.296 269.257 264.176 270.793 264.176ZM271.033 263.2C269.913 263.2 268.953 262.592 268.953 261.552V261.52C268.953 260.48 269.817 259.808 271.369 259.808C272.377 259.808 273.193 259.984 273.801 260.16V260.96C273.801 262.272 272.553 263.2 271.033 263.2ZM280.285 264.144C280.877 264.144 281.341 264.016 281.773 263.792V262.736C281.341 262.944 280.989 263.024 280.573 263.024C279.741 263.024 279.181 262.656 279.181 261.648V256.816H281.805V255.728H279.181V253.232H277.949V255.728H276.797V256.816H277.949V261.808C277.949 263.488 278.957 264.144 280.285 264.144ZM287.367 264.192C288.935 264.192 289.943 263.568 290.775 262.64L290.007 261.952C289.335 262.656 288.535 263.12 287.399 263.12C285.927 263.12 284.663 262.112 284.487 260.32H291.047C291.063 260.176 291.063 260.08 291.063 259.92C291.063 257.504 289.655 255.552 287.207 255.552C284.919 255.552 283.239 257.472 283.239 259.856V259.888C283.239 262.448 285.095 264.192 287.367 264.192ZM284.487 259.408C284.647 257.792 285.735 256.592 287.175 256.592C288.823 256.592 289.687 257.904 289.815 259.408H284.487ZM296.692 264.176C298.212 264.176 299.188 263.328 299.86 262.336V264H301.092V252.32H299.86V257.312C299.22 256.384 298.228 255.552 296.692 255.552C294.708 255.552 292.74 257.152 292.74 259.856V259.888C292.74 262.608 294.708 264.176 296.692 264.176ZM296.916 263.072C295.364 263.072 294.004 261.824 294.004 259.872V259.84C294.004 257.84 295.316 256.656 296.916 256.656C298.452 256.656 299.908 257.936 299.908 259.84V259.872C299.908 261.776 298.452 263.072 296.916 263.072ZM303.397 265.952C304.613 265.68 305.173 265.056 305.173 263.76V262.32H303.701V264H304.277C304.341 264.688 304.005 265.104 303.205 265.392L303.397 265.952ZM44.144 286.144C44.736 286.144 45.2 286.016 45.632 285.792V284.736C45.2 284.944 44.848 285.024 44.432 285.024C43.6 285.024 43.04 284.656 43.04 283.648V278.816H45.664V277.728H43.04V275.232H41.808V277.728H40.656V278.816H41.808V283.808C41.808 285.488 42.816 286.144 44.144 286.144ZM47.8448 286H49.0768V281.264C49.0768 279.712 50.1328 278.672 51.5568 278.672C53.0128 278.672 53.8448 279.632 53.8448 281.168V286H55.0768V280.864C55.0768 278.896 53.9088 277.552 51.9088 277.552C50.4848 277.552 49.6208 278.272 49.0768 279.168V274.32H47.8448V286ZM60.1681 286.176C61.6241 286.176 62.5841 285.504 63.1601 284.752V286H64.3441V280.944C64.3441 279.888 64.0561 279.088 63.4961 278.528C62.8881 277.92 61.9921 277.616 60.8241 277.616C59.6241 277.616 58.7281 277.888 57.8161 278.304L58.1841 279.312C58.9521 278.96 59.7201 278.704 60.6961 278.704C62.2481 278.704 63.1601 279.472 63.1601 280.96V281.248C62.4241 281.04 61.6721 280.896 60.6161 280.896C58.5201 280.896 57.0801 281.824 57.0801 283.568V283.6C57.0801 285.296 58.6321 286.176 60.1681 286.176ZM60.4081 285.2C59.2881 285.2 58.3281 284.592 58.3281 283.552V283.52C58.3281 282.48 59.1921 281.808 60.7441 281.808C61.7521 281.808 62.5681 281.984 63.1761 282.16V282.96C63.1761 284.272 61.9281 285.2 60.4081 285.2ZM66.9698 286H68.2018V281.264C68.2018 279.712 69.2578 278.672 70.6818 278.672C72.1378 278.672 72.9698 279.632 72.9698 281.168V286H74.2018V280.864C74.2018 278.896 73.0338 277.552 71.0338 277.552C69.6098 277.552 68.7458 278.272 68.2018 279.168V277.728H66.9698V286ZM76.8291 286H78.0611V283.84L79.7411 282.144L82.7011 286H84.1731L80.5891 281.28L84.0611 277.728H82.5251L78.0611 282.384V274.32H76.8291V286ZM88.6745 286.16C90.3225 286.16 91.6185 285.248 91.6185 283.68V283.648C91.6185 282.16 90.2425 281.664 88.9625 281.28C87.8585 280.944 86.8345 280.64 86.8345 279.856V279.824C86.8345 279.136 87.4585 278.624 88.4345 278.624C89.2345 278.624 90.1145 278.928 90.8825 279.424L91.4425 278.496C90.5945 277.936 89.4745 277.584 88.4665 277.584C86.8345 277.584 85.6505 278.528 85.6505 279.952V279.984C85.6505 281.504 87.0905 281.952 88.3865 282.32C89.4745 282.624 90.4505 282.944 90.4505 283.776V283.808C90.4505 284.608 89.7305 285.12 88.7385 285.12C87.7625 285.12 86.7705 284.736 85.8745 284.064L85.2505 284.944C86.1785 285.696 87.4905 286.16 88.6745 286.16ZM101.472 286.144C102.064 286.144 102.528 286.016 102.96 285.792V284.736C102.528 284.944 102.176 285.024 101.76 285.024C100.928 285.024 100.368 284.656 100.368 283.648V278.816H102.992V277.728H100.368V275.232H99.1361V277.728H97.9841V278.816H99.1361V283.808C99.1361 285.488 100.144 286.144 101.472 286.144ZM108.715 286.192C111.211 286.192 113.051 284.208 113.051 281.872V281.84C113.051 279.504 111.227 277.552 108.747 277.552C106.251 277.552 104.427 279.536 104.427 281.872V281.904C104.427 284.24 106.235 286.192 108.715 286.192ZM108.747 285.088C107.003 285.088 105.691 283.648 105.691 281.872V281.84C105.691 280.096 106.923 278.64 108.715 278.64C110.459 278.64 111.786 280.096 111.786 281.872V281.904C111.786 283.648 110.539 285.088 108.747 285.088ZM122.847 286.144C123.439 286.144 123.903 286.016 124.335 285.792V284.736C123.903 284.944 123.551 285.024 123.135 285.024C122.303 285.024 121.743 284.656 121.743 283.648V278.816H124.367V277.728H121.743V275.232H120.511V277.728H119.359V278.816H120.511V283.808C120.511 285.488 121.519 286.144 122.847 286.144ZM126.548 286H127.78V281.264C127.78 279.712 128.836 278.672 130.26 278.672C131.716 278.672 132.548 279.632 132.548 281.168V286H133.78V280.864C133.78 278.896 132.612 277.552 130.612 277.552C129.188 277.552 128.324 278.272 127.78 279.168V274.32H126.548V286ZM140.023 286.192C141.591 286.192 142.599 285.568 143.431 284.64L142.663 283.952C141.991 284.656 141.191 285.12 140.055 285.12C138.583 285.12 137.319 284.112 137.143 282.32H143.703C143.719 282.176 143.719 282.08 143.719 281.92C143.719 279.504 142.311 277.552 139.863 277.552C137.575 277.552 135.895 279.472 135.895 281.856V281.888C135.895 284.448 137.751 286.192 140.023 286.192ZM137.143 281.408C137.303 279.792 138.391 278.592 139.831 278.592C141.479 278.592 142.343 279.904 142.471 281.408H137.143ZM154.401 286.192C155.953 286.192 156.945 285.52 157.777 284.592L156.993 283.856C156.337 284.56 155.521 285.088 154.465 285.088C152.737 285.088 151.425 283.664 151.425 281.872V281.84C151.425 280.064 152.705 278.64 154.385 278.64C155.505 278.64 156.241 279.2 156.897 279.888L157.713 279.024C156.945 278.208 155.969 277.552 154.401 277.552C151.985 277.552 150.161 279.536 150.161 281.872V281.904C150.161 284.224 151.985 286.192 154.401 286.192ZM163.355 286.192C165.851 286.192 167.691 284.208 167.691 281.872V281.84C167.691 279.504 165.867 277.552 163.387 277.552C160.891 277.552 159.067 279.536 159.067 281.872V281.904C159.067 284.24 160.875 286.192 163.355 286.192ZM163.387 285.088C161.643 285.088 160.331 283.648 160.331 281.872V281.84C160.331 280.096 161.563 278.64 163.355 278.64C165.099 278.64 166.427 280.096 166.427 281.872V281.904C166.427 283.648 165.179 285.088 163.387 285.088ZM169.923 286H171.155V281.264C171.155 279.712 172.211 278.672 173.635 278.672C175.091 278.672 175.923 279.632 175.923 281.168V286H177.155V280.864C177.155 278.896 175.987 277.552 173.987 277.552C172.563 277.552 171.699 278.272 171.155 279.168V277.728H169.923V286ZM182.55 286.144C183.142 286.144 183.606 286.016 184.038 285.792V284.736C183.606 284.944 183.254 285.024 182.838 285.024C182.006 285.024 181.446 284.656 181.446 283.648V278.816H184.07V277.728H181.446V275.232H180.214V277.728H179.062V278.816H180.214V283.808C180.214 285.488 181.222 286.144 182.55 286.144ZM186.283 275.92H187.691V274.56H186.283V275.92ZM186.363 286H187.595V277.728H186.363V286ZM190.454 286H191.686V281.264C191.686 279.712 192.742 278.672 194.166 278.672C195.622 278.672 196.454 279.632 196.454 281.168V286H197.686V280.864C197.686 278.896 196.518 277.552 194.518 277.552C193.094 277.552 192.23 278.272 191.686 279.168V277.728H190.454V286ZM203.354 286.176C204.778 286.176 205.626 285.456 206.186 284.56V286H207.402V277.728H206.186V282.464C206.186 284.016 205.114 285.056 203.706 285.056C202.25 285.056 201.418 284.096 201.418 282.56V277.728H200.186V282.864C200.186 284.832 201.354 286.176 203.354 286.176ZM213.949 286.192C216.445 286.192 218.285 284.208 218.285 281.872V281.84C218.285 279.504 216.461 277.552 213.981 277.552C211.485 277.552 209.661 279.536 209.661 281.872V281.904C209.661 284.24 211.469 286.192 213.949 286.192ZM213.981 285.088C212.237 285.088 210.925 283.648 210.925 281.872V281.84C210.925 280.096 212.157 278.64 213.949 278.64C215.693 278.64 217.021 280.096 217.021 281.872V281.904C217.021 283.648 215.773 285.088 213.981 285.088ZM223.557 286.176C224.981 286.176 225.829 285.456 226.389 284.56V286H227.605V277.728H226.389V282.464C226.389 284.016 225.317 285.056 223.909 285.056C222.453 285.056 221.621 284.096 221.621 282.56V277.728H220.389V282.864C220.389 284.832 221.557 286.176 223.557 286.176ZM233.112 286.16C234.76 286.16 236.056 285.248 236.056 283.68V283.648C236.056 282.16 234.68 281.664 233.4 281.28C232.296 280.944 231.272 280.64 231.272 279.856V279.824C231.272 279.136 231.896 278.624 232.872 278.624C233.672 278.624 234.552 278.928 235.32 279.424L235.88 278.496C235.032 277.936 233.912 277.584 232.904 277.584C231.272 277.584 230.088 278.528 230.088 279.952V279.984C230.088 281.504 231.528 281.952 232.824 282.32C233.912 282.624 234.888 282.944 234.888 283.776V283.808C234.888 284.608 234.168 285.12 233.176 285.12C232.2 285.12 231.208 284.736 230.312 284.064L229.688 284.944C230.616 285.696 231.928 286.16 233.112 286.16ZM246.918 286.192C249.414 286.192 251.254 284.208 251.254 281.872V281.84C251.254 279.504 249.43 277.552 246.95 277.552C244.454 277.552 242.63 279.536 242.63 281.872V281.904C242.63 284.24 244.438 286.192 246.918 286.192ZM246.95 285.088C245.206 285.088 243.894 283.648 243.894 281.872V281.84C243.894 280.096 245.126 278.64 246.918 278.64C248.662 278.64 249.99 280.096 249.99 281.872V281.904C249.99 283.648 248.742 285.088 246.95 285.088ZM253.707 277.728H252.299L255.403 281.792L252.171 286H253.547L256.123 282.592L258.683 286H260.107L256.843 281.776L259.979 277.728H258.603L256.139 280.96L253.707 277.728ZM265.49 284.624L262.482 277.728H261.122L264.882 285.968C264.386 287.136 263.922 287.52 263.186 287.52C262.658 287.52 262.29 287.424 261.89 287.216L261.474 288.192C262.034 288.464 262.546 288.608 263.234 288.608C264.482 288.608 265.282 287.984 265.986 286.272L269.458 277.728H268.146L265.49 284.624ZM274.665 288.592C275.977 288.592 277.081 288.224 277.817 287.488C278.489 286.816 278.873 285.84 278.873 284.56V277.728H277.641V279.216C276.969 278.32 275.961 277.552 274.409 277.552C272.441 277.552 270.521 279.04 270.521 281.456V281.488C270.521 283.872 272.425 285.36 274.409 285.36C275.929 285.36 276.937 284.576 277.657 283.616V284.592C277.657 286.528 276.473 287.536 274.649 287.536C273.465 287.536 272.409 287.168 271.465 286.48L270.905 287.44C272.009 288.208 273.289 288.592 274.665 288.592ZM274.649 284.272C273.113 284.272 271.785 283.12 271.785 281.456V281.424C271.785 279.728 273.081 278.64 274.649 278.64C276.217 278.64 277.689 279.744 277.689 281.44V281.472C277.689 283.136 276.217 284.272 274.649 284.272ZM285.242 286.192C286.81 286.192 287.818 285.568 288.65 284.64L287.882 283.952C287.21 284.656 286.41 285.12 285.274 285.12C283.802 285.12 282.538 284.112 282.362 282.32H288.922C288.938 282.176 288.938 282.08 288.938 281.92C288.938 279.504 287.53 277.552 285.082 277.552C282.794 277.552 281.114 279.472 281.114 281.856V281.888C281.114 284.448 282.97 286.192 285.242 286.192ZM282.362 281.408C282.522 279.792 283.61 278.592 285.05 278.592C286.698 278.592 287.562 279.904 287.69 281.408H282.362ZM291.095 286H292.327V281.264C292.327 279.712 293.383 278.672 294.807 278.672C296.263 278.672 297.095 279.632 297.095 281.168V286H298.327V280.864C298.327 278.896 297.159 277.552 295.159 277.552C293.735 277.552 292.871 278.272 292.327 279.168V277.728H291.095V286ZM306.215 286H307.447V278.816H310.055V277.76H307.431V277.088C307.431 275.904 307.911 275.328 308.871 275.328C309.287 275.328 309.623 275.408 310.071 275.536V274.464C309.671 274.32 309.287 274.256 308.711 274.256C307.959 274.256 307.351 274.48 306.935 274.896C306.471 275.36 306.215 276.08 306.215 277.024V277.744H305.079V278.816H306.215V286ZM311.751 286H312.967V274.32H311.751V286ZM319.621 286.192C322.117 286.192 323.957 284.208 323.957 281.872V281.84C323.957 279.504 322.133 277.552 319.653 277.552C317.157 277.552 315.333 279.536 315.333 281.872V281.904C315.333 284.24 317.141 286.192 319.621 286.192ZM319.653 285.088C317.909 285.088 316.597 283.648 316.597 281.872V281.84C316.597 280.096 317.829 278.64 319.621 278.64C321.365 278.64 322.693 280.096 322.693 281.872V281.904C322.693 283.648 321.445 285.088 319.653 285.088ZM327.974 286.064H329.062L331.302 279.536L333.526 286.064H334.598L337.51 277.728H336.23L334.054 284.368L331.814 277.696H330.79L328.566 284.368L326.39 277.728H325.078L327.974 286.064ZM45.104 308.192C46.656 308.192 47.648 307.52 48.48 306.592L47.696 305.856C47.04 306.56 46.224 307.088 45.168 307.088C43.44 307.088 42.128 305.664 42.128 303.872V303.84C42.128 302.064 43.408 300.64 45.088 300.64C46.208 300.64 46.944 301.2 47.6 301.888L48.416 301.024C47.648 300.208 46.672 299.552 45.104 299.552C42.688 299.552 40.864 301.536 40.864 303.872V303.904C40.864 306.224 42.688 308.192 45.104 308.192ZM54.0583 308.192C56.5543 308.192 58.3943 306.208 58.3943 303.872V303.84C58.3943 301.504 56.5703 299.552 54.0903 299.552C51.5943 299.552 49.7703 301.536 49.7703 303.872V303.904C49.7703 306.24 51.5783 308.192 54.0583 308.192ZM54.0903 307.088C52.3463 307.088 51.0343 305.648 51.0343 303.872V303.84C51.0343 302.096 52.2663 300.64 54.0583 300.64C55.8023 300.64 57.1302 302.096 57.1302 303.872V303.904C57.1302 305.648 55.8823 307.088 54.0903 307.088ZM60.626 308H61.858V303.264C61.858 301.712 62.914 300.672 64.338 300.672C65.794 300.672 66.626 301.632 66.626 303.168V308H67.858V302.864C67.858 300.896 66.69 299.552 64.69 299.552C63.266 299.552 62.402 300.272 61.858 301.168V299.728H60.626V308ZM73.2534 308.144C73.8454 308.144 74.3094 308.016 74.7414 307.792V306.736C74.3094 306.944 73.9574 307.024 73.5414 307.024C72.7094 307.024 72.1494 306.656 72.1494 305.648V300.816H74.7734V299.728H72.1494V297.232H70.9174V299.728H69.7654V300.816H70.9174V305.808C70.9174 307.488 71.9254 308.144 73.2534 308.144ZM76.9541 308H78.1861V304.704C78.1861 302.208 79.6581 300.912 81.4661 300.912H81.5621V299.584C79.9941 299.52 78.7941 300.512 78.1861 301.888V299.728H76.9541V308ZM86.8551 308.192C89.3511 308.192 91.1911 306.208 91.1911 303.872V303.84C91.1911 301.504 89.3671 299.552 86.8871 299.552C84.3911 299.552 82.5671 301.536 82.5671 303.872V303.904C82.5671 306.24 84.3751 308.192 86.8551 308.192ZM86.8871 307.088C85.1431 307.088 83.8311 305.648 83.8311 303.872V303.84C83.8311 302.096 85.0631 300.64 86.8551 300.64C88.5991 300.64 89.9271 302.096 89.9271 303.872V303.904C89.9271 305.648 88.6791 307.088 86.8871 307.088ZM93.5349 308H94.7669V296.32H93.5349V308ZM97.738 308H98.97V296.32H97.738V308ZM105.445 308.192C107.013 308.192 108.021 307.568 108.853 306.64L108.085 305.952C107.413 306.656 106.613 307.12 105.477 307.12C104.005 307.12 102.741 306.112 102.565 304.32H109.125C109.141 304.176 109.141 304.08 109.141 303.92C109.141 301.504 107.733 299.552 105.285 299.552C102.997 299.552 101.317 301.472 101.317 303.856V303.888C101.317 306.448 103.173 308.192 105.445 308.192ZM102.565 303.408C102.725 301.792 103.813 300.592 105.253 300.592C106.901 300.592 107.765 301.904 107.893 303.408H102.565ZM114.77 308.176C116.29 308.176 117.266 307.328 117.938 306.336V308H119.17V296.32H117.938V301.312C117.298 300.384 116.306 299.552 114.77 299.552C112.786 299.552 110.818 301.152 110.818 303.856V303.888C110.818 306.608 112.786 308.176 114.77 308.176ZM114.994 307.072C113.442 307.072 112.082 305.824 112.082 303.872V303.84C112.082 301.84 113.394 300.656 114.994 300.656C116.53 300.656 117.986 301.936 117.986 303.84V303.872C117.986 305.776 116.53 307.072 114.994 307.072ZM131.12 308.176C133.12 308.176 135.072 306.576 135.072 303.872V303.84C135.072 301.12 133.104 299.552 131.12 299.552C129.6 299.552 128.624 300.4 127.952 301.392V296.32H126.72V308H127.952V306.416C128.592 307.344 129.584 308.176 131.12 308.176ZM130.896 307.072C129.36 307.072 127.904 305.792 127.904 303.872V303.84C127.904 301.952 129.36 300.656 130.896 300.656C132.464 300.656 133.808 301.904 133.808 303.856V303.888C133.808 305.888 132.496 307.072 130.896 307.072ZM140.475 306.624L137.467 299.728H136.107L139.867 307.968C139.371 309.136 138.907 309.52 138.171 309.52C137.643 309.52 137.275 309.424 136.875 309.216L136.459 310.192C137.019 310.464 137.531 310.608 138.219 310.608C139.467 310.608 140.266 309.984 140.971 308.272L144.443 299.728H143.131L140.475 306.624ZM153.957 308.144C154.549 308.144 155.013 308.016 155.445 307.792V306.736C155.013 306.944 154.661 307.024 154.245 307.024C153.413 307.024 152.853 306.656 152.853 305.648V300.816H155.477V299.728H152.853V297.232H151.621V299.728H150.469V300.816H151.621V305.808C151.621 307.488 152.629 308.144 153.957 308.144ZM157.657 308H158.889V303.264C158.889 301.712 159.945 300.672 161.369 300.672C162.825 300.672 163.657 301.632 163.657 303.168V308H164.889V302.864C164.889 300.896 163.721 299.552 161.721 299.552C160.297 299.552 159.433 300.272 158.889 301.168V296.32H157.657V308ZM171.133 308.192C172.701 308.192 173.709 307.568 174.541 306.64L173.773 305.952C173.101 306.656 172.301 307.12 171.165 307.12C169.693 307.12 168.429 306.112 168.253 304.32H174.813C174.829 304.176 174.829 304.08 174.829 303.92C174.829 301.504 173.421 299.552 170.973 299.552C168.685 299.552 167.005 301.472 167.005 303.856V303.888C167.005 306.448 168.861 308.192 171.133 308.192ZM168.253 303.408C168.413 301.792 169.501 300.592 170.941 300.592C172.589 300.592 173.453 301.904 173.581 303.408H168.253ZM181.782 308H183.014V303.28C183.014 301.76 184.006 300.672 185.318 300.672C186.63 300.672 187.446 301.584 187.446 303.136V308H188.678V303.232C188.678 301.6 189.702 300.672 190.95 300.672C192.294 300.672 193.094 301.568 193.094 303.168V308H194.326V302.88C194.326 300.832 193.158 299.552 191.254 299.552C189.814 299.552 188.934 300.288 188.342 301.2C187.894 300.272 187.03 299.552 185.686 299.552C184.294 299.552 183.558 300.304 183.014 301.12V299.728H181.782V308ZM200.617 308.192C202.185 308.192 203.193 307.568 204.025 306.64L203.257 305.952C202.585 306.656 201.785 307.12 200.649 307.12C199.177 307.12 197.913 306.112 197.737 304.32H204.297C204.313 304.176 204.313 304.08 204.313 303.92C204.313 301.504 202.905 299.552 200.457 299.552C198.169 299.552 196.489 301.472 196.489 303.856V303.888C196.489 306.448 198.345 308.192 200.617 308.192ZM197.737 303.408C197.897 301.792 198.985 300.592 200.425 300.592C202.073 300.592 202.937 301.904 203.065 303.408H197.737ZM206.47 308H207.702V303.28C207.702 301.76 208.694 300.672 210.006 300.672C211.318 300.672 212.134 301.584 212.134 303.136V308H213.366V303.232C213.366 301.6 214.39 300.672 215.638 300.672C216.982 300.672 217.782 301.568 217.782 303.168V308H219.014V302.88C219.014 300.832 217.846 299.552 215.942 299.552C214.502 299.552 213.622 300.288 213.03 301.2C212.582 300.272 211.718 299.552 210.374 299.552C208.982 299.552 208.246 300.304 207.702 301.12V299.728H206.47V308ZM226.089 308.176C228.089 308.176 230.041 306.576 230.041 303.872V303.84C230.041 301.12 228.073 299.552 226.089 299.552C224.569 299.552 223.593 300.4 222.921 301.392V296.32H221.689V308H222.921V306.416C223.561 307.344 224.553 308.176 226.089 308.176ZM225.865 307.072C224.329 307.072 222.873 305.792 222.873 303.872V303.84C222.873 301.952 224.329 300.656 225.865 300.656C227.433 300.656 228.777 301.904 228.777 303.856V303.888C228.777 305.888 227.465 307.072 225.865 307.072ZM232.314 308H233.546V304.704C233.546 302.208 235.018 300.912 236.826 300.912H236.922V299.584C235.354 299.52 234.154 300.512 233.546 301.888V299.728H232.314V308ZM240.856 308.176C242.312 308.176 243.272 307.504 243.848 306.752V308H245.032V302.944C245.032 301.888 244.744 301.088 244.184 300.528C243.576 299.92 242.68 299.616 241.512 299.616C240.312 299.616 239.416 299.888 238.504 300.304L238.872 301.312C239.64 300.96 240.408 300.704 241.384 300.704C242.936 300.704 243.848 301.472 243.848 302.96V303.248C243.112 303.04 242.36 302.896 241.304 302.896C239.208 302.896 237.768 303.824 237.768 305.568V305.6C237.768 307.296 239.32 308.176 240.856 308.176ZM241.096 307.2C239.976 307.2 239.016 306.592 239.016 305.552V305.52C239.016 304.48 239.88 303.808 241.432 303.808C242.44 303.808 243.256 303.984 243.864 304.16V304.96C243.864 306.272 242.616 307.2 241.096 307.2ZM247.657 308H248.889V303.264C248.889 301.712 249.945 300.672 251.369 300.672C252.825 300.672 253.657 301.632 253.657 303.168V308H254.889V302.864C254.889 300.896 253.721 299.552 251.721 299.552C250.297 299.552 249.433 300.272 248.889 301.168V299.728H247.657V308ZM261.133 308.192C262.701 308.192 263.709 307.568 264.541 306.64L263.773 305.952C263.101 306.656 262.301 307.12 261.165 307.12C259.693 307.12 258.429 306.112 258.253 304.32H264.813C264.829 304.176 264.829 304.08 264.829 303.92C264.829 301.504 263.421 299.552 260.973 299.552C258.685 299.552 257.005 301.472 257.005 303.856V303.888C257.005 306.448 258.861 308.192 261.133 308.192ZM258.253 303.408C258.413 301.792 259.501 300.592 260.941 300.592C262.589 300.592 263.453 301.904 263.581 303.408H258.253ZM269.721 308.16C271.369 308.16 272.665 307.248 272.665 305.68V305.648C272.665 304.16 271.289 303.664 270.009 303.28C268.905 302.944 267.881 302.64 267.881 301.856V301.824C267.881 301.136 268.505 300.624 269.481 300.624C270.281 300.624 271.161 300.928 271.929 301.424L272.489 300.496C271.641 299.936 270.521 299.584 269.513 299.584C267.881 299.584 266.697 300.528 266.697 301.952V301.984C266.697 303.504 268.137 303.952 269.433 304.32C270.521 304.624 271.497 304.944 271.497 305.776V305.808C271.497 306.608 270.777 307.12 269.785 307.12C268.809 307.12 267.817 306.736 266.921 306.064L266.297 306.944C267.225 307.696 268.537 308.16 269.721 308.16ZM274.81 308H276.282V306.32H274.81V308Z" fill="#540F16"/>
<circle cx="433" cy="98" r="98" fill="#CC112C" fill-opacity="0.1"/>
<circle cx="433" cy="98" r="92" fill="#CC112C" fill-opacity="0.1"/>
<circle cx="433" cy="98" r="87" fill="#CC112C"/>
<circle cx="433" cy="98" r="80" fill="white"/>
<path d="M405.836 128.019C405.836 119.783 401.657 119.783 401.657 111.548C401.657 103.312 405.836 103.312 405.836 95.0765C405.836 86.8409 401.657 86.8409 401.657 78.6052C401.657 70.3696 405.836 70.3696 405.836 62.1339M424.92 62.067C424.92 70.3026 420.741 70.3026 420.741 78.5383C420.741 86.7739 424.92 86.7739 424.92 95.0096C424.92 103.245 420.741 103.245 420.741 111.481C420.741 119.717 424.92 119.717 424.92 127.952M444.075 62.067C444.075 70.3026 439.896 70.3026 439.896 78.5383C439.896 86.7739 444.075 86.7739 444.075 95.0096C444.075 103.245 439.896 103.245 439.896 111.481C439.896 119.717 444.075 119.717 444.075 127.952M463.159 62.067C463.159 70.3026 458.98 70.3026 458.98 78.5383C458.98 86.7739 463.159 86.7739 463.159 95.0096C463.159 103.245 458.98 103.245 458.98 111.481C458.98 119.717 463.159 119.717 463.159 127.952M391 119.984V131.635C391 135.719 394.413 139 398.662 139H467.338C471.587 139 475 135.719 475 131.635V119.984M410.92 67.0217L405.766 62.067L400.612 67.0217M430.005 67.0217L424.851 62.067L419.697 67.0217M449.09 67.0217L443.935 62L438.781 66.9548M468.174 67.0217L463.02 62.067L457.866 67.0217" stroke="#540F16" stroke-width="3" stroke-miterlimit="10"/>
<defs>
<filter id="filter0_d" x="0" y="19" width="435" height="345" filterUnits="userSpaceOnUse" color-interpolation-filters="sRGB">
<feFlood flood-opacity="0" result="BackgroundImageFix"/>
<feColorMatrix in="SourceAlpha" type="matrix" values="0 0 0 0 0 0 0 0 0 0 0 0 0 0 0 0 0 0 127 0" result="hardAlpha"/>
<feOffset dx="4" dy="4"/>
<feGaussianBlur stdDeviation="5"/>
<feColorMatrix type="matrix" values="0 0 0 0 0.329412 0 0 0 0 0.0588235 0 0 0 0 0.0862745 0 0 0 0.2 0"/>
<feBlend mode="normal" in2="BackgroundImageFix" result="effect1_dropShadow"/>
<feBlend mode="normal" in="SourceGraphic" in2="effect1_dropShadow" result="shape"/>
</filter>
</defs>
</svg>
