<svg width="544" height="314" viewBox="0 0 544 314" fill="none" xmlns="http://www.w3.org/2000/svg">
<g filter="url(#filter0_d)">
<rect x="114" y="20" width="416" height="280" rx="2" fill="white"/>
</g>
<rect x="114" y="19" width="416" height="281" rx="2" fill="#F2F2F2"/>
<circle cx="98" cy="98" r="98" fill="#CC112C" fill-opacity="0.1"/>
<circle cx="98" cy="98" r="92" fill="#CC112C" fill-opacity="0.1"/>
<circle cx="98" cy="98" r="87" fill="#CC112C"/>
<circle cx="98" cy="98" r="80" fill="white"/>
<path d="M98.03 87.9201C95.268 79.8201 84.4603 78.5001 79.5968 83.9601C64.6462 100.76 98.3903 119.24 98.3903 119.24C98.3903 119.24 130.333 100.7 117.184 83.9601C112.56 78.2001 101.272 79.6401 98.03 87.9201Z" stroke="#540F16" stroke-width="3" stroke-miterlimit="10"/>
<path d="M71.5 130.5C78.6451 136.14 88.183 140 97.9699 140C121.147 140 140 121.22 140 98C140 88.16 136.638 79.16 130.933 72.02" stroke="#540F16" stroke-width="3" stroke-miterlimit="10"/>
<path d="M123.248 64.46C116.223 59.12 107.517 56 98.03 56C74.7934 56 56 74.78 56 98C56 107.48 59.1222 116.24 64.466 123.26" stroke="#540F16" stroke-width="3" stroke-miterlimit="10"/>
<path d="M76.6154 129.16H70.3109V135.46" stroke="#540F16" stroke-width="3" stroke-miterlimit="10"/>
<path d="M118.124 66.1799H124.428V59.8799" stroke="#540F16" stroke-width="3" stroke-miterlimit="10"/>
<path d="M221.94 69H224.4V55H221.94V69ZM227.868 69H230.288V63.04C230.288 61.4 231.268 60.42 232.668 60.42C234.108 60.42 234.928 61.36 234.928 63V69H237.348V62.26C237.348 59.82 235.968 58.22 233.588 58.22C231.948 58.22 230.968 59.08 230.288 60.06V58.44H227.868V69ZM245.15 69.24C247.21 69.24 248.43 68.42 249.47 67.26L248.01 65.82C247.25 66.6 246.41 67.12 245.27 67.12C243.41 67.12 242.11 65.62 242.11 63.74V63.7C242.11 61.86 243.41 60.34 245.17 60.34C246.37 60.34 247.15 60.88 247.89 61.66L249.41 60.04C248.41 58.96 247.17 58.22 245.19 58.22C242.01 58.22 239.69 60.74 239.69 63.74V63.78C239.69 66.78 242.01 69.24 245.15 69.24ZM251.696 69H254.116V64.98C254.116 62.18 255.596 60.8 257.716 60.8H257.856V58.24C255.996 58.16 254.776 59.24 254.116 60.82V58.44H251.696V69ZM264.446 69.24C266.386 69.24 267.766 68.46 268.766 67.26L267.346 66C266.506 66.82 265.666 67.26 264.486 67.26C262.926 67.26 261.706 66.3 261.446 64.58H269.206C269.226 64.34 269.246 64.12 269.246 63.9C269.246 60.86 267.546 58.22 264.186 58.22C261.166 58.22 259.026 60.7 259.026 63.72V63.76C259.026 67.02 261.386 69.24 264.446 69.24ZM261.426 62.98C261.646 61.34 262.686 60.2 264.166 60.2C265.766 60.2 266.686 61.42 266.846 62.98H261.426ZM274.716 69.22C276.336 69.22 277.436 68.54 278.156 67.68V69H280.516V62.74C280.516 61.36 280.156 60.24 279.376 59.48C278.636 58.72 277.456 58.3 275.876 58.3C274.196 58.3 273.056 58.64 271.896 59.16L272.536 61.06C273.496 60.66 274.376 60.4 275.556 60.4C277.256 60.4 278.176 61.2 278.176 62.7V62.96C277.356 62.7 276.516 62.52 275.336 62.52C272.756 62.52 270.976 63.64 270.976 65.92V65.96C270.976 68.08 272.736 69.22 274.716 69.22ZM275.396 67.46C274.236 67.46 273.336 66.88 273.336 65.86V65.82C273.336 64.72 274.256 64.06 275.816 64.06C276.776 64.06 277.596 64.24 278.216 64.48V65.2C278.216 66.54 276.996 67.46 275.396 67.46ZM287.035 69.2C289.235 69.2 290.955 68.1 290.955 65.88V65.84C290.955 63.94 289.215 63.24 287.675 62.76C286.435 62.36 285.295 62.04 285.295 61.26V61.22C285.295 60.62 285.835 60.18 286.775 60.18C287.655 60.18 288.735 60.56 289.755 61.18L290.715 59.46C289.595 58.72 288.155 58.26 286.835 58.26C284.735 58.26 283.075 59.48 283.075 61.48V61.52C283.075 63.54 284.815 64.18 286.375 64.62C287.615 65 288.735 65.28 288.735 66.1V66.14C288.735 66.84 288.135 67.28 287.095 67.28C286.015 67.28 284.795 66.84 283.635 65.98L282.555 67.62C283.875 68.66 285.535 69.2 287.035 69.2ZM298.274 69.24C300.214 69.24 301.594 68.46 302.594 67.26L301.174 66C300.334 66.82 299.494 67.26 298.314 67.26C296.754 67.26 295.534 66.3 295.274 64.58H303.034C303.054 64.34 303.074 64.12 303.074 63.9C303.074 60.86 301.374 58.22 298.014 58.22C294.994 58.22 292.854 60.7 292.854 63.72V63.76C292.854 67.02 295.214 69.24 298.274 69.24ZM295.254 62.98C295.474 61.34 296.514 60.2 297.994 60.2C299.594 60.2 300.514 61.42 300.674 62.98H295.254ZM309.864 69.22C311.584 69.22 312.684 68.34 313.464 67.24V69H315.884V54.4H313.464V60.08C312.704 59.08 311.604 58.22 309.864 58.22C307.344 58.22 304.964 60.2 304.964 63.7V63.74C304.964 67.24 307.384 69.22 309.864 69.22ZM310.444 67.12C308.804 67.12 307.404 65.78 307.404 63.74V63.7C307.404 61.6 308.784 60.32 310.444 60.32C312.064 60.32 313.504 61.66 313.504 63.7V63.74C313.504 65.76 312.064 67.12 310.444 67.12ZM330.938 69.22C333.438 69.22 335.838 67.24 335.838 63.74V63.7C335.838 60.18 333.418 58.22 330.938 58.22C329.218 58.22 328.118 59.1 327.338 60.2V54.4H324.918V69H327.338V67.36C328.078 68.34 329.178 69.22 330.938 69.22ZM330.358 67.12C328.718 67.12 327.278 65.76 327.278 63.74V63.7C327.278 61.68 328.718 60.32 330.358 60.32C331.998 60.32 333.378 61.66 333.378 63.7V63.74C333.378 65.82 332.018 67.12 330.358 67.12ZM338.476 69H340.896V54.4H338.476V69ZM349.079 69.24C352.339 69.24 354.739 66.74 354.739 63.74V63.7C354.739 60.68 352.359 58.22 349.119 58.22C345.879 58.22 343.479 60.72 343.479 63.74V63.78C343.479 66.78 345.859 69.24 349.079 69.24ZM349.119 67.12C347.239 67.12 345.899 65.58 345.899 63.74V63.7C345.899 61.86 347.139 60.34 349.079 60.34C350.979 60.34 352.319 61.88 352.319 63.74V63.78C352.319 65.6 351.079 67.12 349.119 67.12ZM362.224 69.24C365.484 69.24 367.884 66.74 367.884 63.74V63.7C367.884 60.68 365.504 58.22 362.264 58.22C359.024 58.22 356.624 60.72 356.624 63.74V63.78C356.624 66.78 359.004 69.24 362.224 69.24ZM362.264 67.12C360.384 67.12 359.044 65.58 359.044 63.74V63.7C359.044 61.86 360.284 60.34 362.224 60.34C364.124 60.34 365.464 61.88 365.464 63.74V63.78C365.464 65.6 364.224 67.12 362.264 67.12ZM374.708 69.22C376.428 69.22 377.528 68.34 378.308 67.24V69H380.728V54.4H378.308V60.08C377.548 59.08 376.448 58.22 374.708 58.22C372.188 58.22 369.808 60.2 369.808 63.7V63.74C369.808 67.24 372.228 69.22 374.708 69.22ZM375.288 67.12C373.648 67.12 372.248 65.78 372.248 63.74V63.7C372.248 61.6 373.628 60.32 375.288 60.32C376.908 60.32 378.348 61.66 378.348 63.7V63.74C378.348 65.76 376.908 67.12 375.288 67.12ZM226.4 93.24C228.46 93.24 229.68 92.42 230.72 91.26L229.26 89.82C228.5 90.6 227.66 91.12 226.52 91.12C224.66 91.12 223.36 89.62 223.36 87.74V87.7C223.36 85.86 224.66 84.34 226.42 84.34C227.62 84.34 228.4 84.88 229.14 85.66L230.66 84.04C229.66 82.96 228.42 82.22 226.44 82.22C223.26 82.22 220.94 84.74 220.94 87.74V87.78C220.94 90.78 223.26 93.24 226.4 93.24ZM232.986 80.82H235.586V78.52H232.986V80.82ZM233.086 93H235.506V82.44H233.086V93ZM238.668 93H241.088V88.98C241.088 86.18 242.568 84.8 244.688 84.8H244.828V82.24C242.968 82.16 241.748 83.24 241.088 84.82V82.44H238.668V93ZM251.459 93.24C253.519 93.24 254.739 92.42 255.779 91.26L254.319 89.82C253.559 90.6 252.719 91.12 251.579 91.12C249.719 91.12 248.419 89.62 248.419 87.74V87.7C248.419 85.86 249.719 84.34 251.479 84.34C252.679 84.34 253.459 84.88 254.199 85.66L255.719 84.04C254.719 82.96 253.479 82.22 251.499 82.22C248.319 82.22 245.999 84.74 245.999 87.74V87.78C245.999 90.78 248.319 93.24 251.459 93.24ZM261.644 93.22C263.284 93.22 264.264 92.36 264.944 91.36V93H267.384V82.44H264.944V88.4C264.944 90.04 263.964 91 262.564 91C261.124 91 260.304 90.08 260.304 88.44V82.44H257.884V89.16C257.884 91.62 259.264 93.22 261.644 93.22ZM270.547 93H272.967V78.4H270.547V93ZM279.169 93.22C280.789 93.22 281.889 92.54 282.609 91.68V93H284.969V86.74C284.969 85.36 284.609 84.24 283.829 83.48C283.089 82.72 281.909 82.3 280.329 82.3C278.649 82.3 277.509 82.64 276.349 83.16L276.989 85.06C277.949 84.66 278.829 84.4 280.009 84.4C281.709 84.4 282.629 85.2 282.629 86.7V86.96C281.809 86.7 280.969 86.52 279.789 86.52C277.209 86.52 275.429 87.64 275.429 89.92V89.96C275.429 92.08 277.189 93.22 279.169 93.22ZM279.849 91.46C278.689 91.46 277.789 90.88 277.789 89.86V89.82C277.789 88.72 278.709 88.06 280.269 88.06C281.229 88.06 282.049 88.24 282.669 88.48V89.2C282.669 90.54 281.449 91.46 279.849 91.46ZM291.31 93.18C292.23 93.18 292.89 92.98 293.49 92.64V90.66C293.01 90.9 292.53 91.02 291.99 91.02C291.17 91.02 290.69 90.64 290.69 89.7V84.52H293.53V82.44H290.69V79.54H288.27V82.44H286.93V84.52H288.27V90.08C288.27 92.4 289.53 93.18 291.31 93.18ZM296.033 80.82H298.633V78.52H296.033V80.82ZM296.133 93H298.553V82.44H296.133V93ZM306.735 93.24C309.995 93.24 312.395 90.74 312.395 87.74V87.7C312.395 84.68 310.015 82.22 306.775 82.22C303.535 82.22 301.135 84.72 301.135 87.74V87.78C301.135 90.78 303.515 93.24 306.735 93.24ZM306.775 91.12C304.895 91.12 303.555 89.58 303.555 87.74V87.7C303.555 85.86 304.795 84.34 306.735 84.34C308.635 84.34 309.975 85.88 309.975 87.74V87.78C309.975 89.6 308.735 91.12 306.775 91.12ZM314.86 93H317.28V87.04C317.28 85.4 318.26 84.42 319.66 84.42C321.1 84.42 321.92 85.36 321.92 87V93H324.34V86.26C324.34 83.82 322.96 82.22 320.58 82.22C318.94 82.22 317.96 83.08 317.28 84.06V82.44H314.86V93Z" fill="#CC112C"/>
<path d="M224.544 131H225.824V120.968H229.584V119.8H220.784V120.968H224.544V131ZM231.501 131H232.733V126.264C232.733 124.712 233.789 123.672 235.213 123.672C236.669 123.672 237.501 124.632 237.501 126.168V131H238.733V125.864C238.733 123.896 237.565 122.552 235.565 122.552C234.141 122.552 233.277 123.272 232.733 124.168V119.32H231.501V131ZM244.976 131.192C246.544 131.192 247.552 130.568 248.384 129.64L247.616 128.952C246.944 129.656 246.144 130.12 245.008 130.12C243.536 130.12 242.272 129.112 242.096 127.32H248.656C248.672 127.176 248.672 127.08 248.672 126.92C248.672 124.504 247.264 122.552 244.816 122.552C242.528 122.552 240.848 124.472 240.848 126.856V126.888C240.848 129.448 242.704 131.192 244.976 131.192ZM242.096 126.408C242.256 124.792 243.344 123.592 244.784 123.592C246.432 123.592 247.296 124.904 247.424 126.408H242.096ZM258.794 131H260.074V120.968H263.834V119.8H255.034V120.968H258.794V131ZM265.751 131H266.983V126.264C266.983 124.712 268.039 123.672 269.463 123.672C270.919 123.672 271.751 124.632 271.751 126.168V131H272.983V125.864C272.983 123.896 271.815 122.552 269.815 122.552C268.391 122.552 267.527 123.272 266.983 124.168V119.32H265.751V131ZM279.226 131.192C280.794 131.192 281.802 130.568 282.634 129.64L281.866 128.952C281.194 129.656 280.394 130.12 279.258 130.12C277.786 130.12 276.522 129.112 276.346 127.32H282.906C282.922 127.176 282.922 127.08 282.922 126.92C282.922 124.504 281.514 122.552 279.066 122.552C276.778 122.552 275.098 124.472 275.098 126.856V126.888C275.098 129.448 276.954 131.192 279.226 131.192ZM276.346 126.408C276.506 124.792 277.594 123.592 279.034 123.592C280.682 123.592 281.546 124.904 281.674 126.408H276.346ZM285.079 131H286.311V127.704C286.311 125.208 287.783 123.912 289.591 123.912H289.687V122.584C288.119 122.52 286.919 123.512 286.311 124.888V122.728H285.079V131ZM291.564 131H292.796V126.28C292.796 124.76 293.788 123.672 295.1 123.672C296.412 123.672 297.228 124.584 297.228 126.136V131H298.46V126.232C298.46 124.6 299.484 123.672 300.732 123.672C302.076 123.672 302.876 124.568 302.876 126.168V131H304.108V125.88C304.108 123.832 302.94 122.552 301.036 122.552C299.595 122.552 298.716 123.288 298.124 124.2C297.676 123.272 296.812 122.552 295.468 122.552C294.076 122.552 293.34 123.304 292.796 124.12V122.728H291.564V131ZM306.03 131H307.326L308.654 128.04H314.75L316.062 131H317.422L312.318 119.72H311.134L306.03 131ZM309.15 126.888L311.71 121.192L314.254 126.888H309.15ZM319.455 120.92H320.863V119.56H319.455V120.92ZM319.535 131H320.767V122.728H319.535V131ZM327.098 131.176C328.618 131.176 329.594 130.328 330.266 129.336V131H331.498V119.32H330.266V124.312C329.626 123.384 328.634 122.552 327.098 122.552C325.114 122.552 323.146 124.152 323.146 126.856V126.888C323.146 129.608 325.114 131.176 327.098 131.176ZM327.322 130.072C325.77 130.072 324.41 128.824 324.41 126.872V126.84C324.41 124.84 325.722 123.656 327.322 123.656C328.858 123.656 330.314 124.936 330.314 126.84V126.872C330.314 128.776 328.858 130.072 327.322 130.072ZM336.107 125.24C337.659 125.24 338.891 123.96 338.891 122.44V122.424C338.891 120.904 337.675 119.64 336.107 119.64C334.555 119.64 333.323 120.92 333.323 122.44V122.456C333.323 123.976 334.539 125.24 336.107 125.24ZM336.107 124.936C334.699 124.936 333.643 123.816 333.643 122.456V122.44C333.643 121.08 334.715 119.944 336.107 119.944C337.515 119.944 338.571 121.064 338.571 122.424V122.44C338.571 123.8 337.499 124.936 336.107 124.936ZM335.019 123.8H335.563V122.824H336.155L336.827 123.8H337.483L336.731 122.728C337.115 122.616 337.387 122.328 337.387 121.864C337.387 121.272 336.923 120.968 336.299 120.968H335.019V123.8ZM335.563 122.376V121.448H336.251C336.619 121.448 336.827 121.608 336.827 121.912C336.827 122.184 336.619 122.376 336.251 122.376H335.563ZM345.501 133.56H346.733V129.416C347.373 130.344 348.365 131.176 349.901 131.176C351.901 131.176 353.853 129.576 353.853 126.872V126.84C353.853 124.12 351.885 122.552 349.901 122.552C348.381 122.552 347.405 123.4 346.733 124.392V122.728H345.501V133.56ZM349.677 130.072C348.141 130.072 346.685 128.792 346.685 126.872V126.84C346.685 124.952 348.141 123.656 349.677 123.656C351.245 123.656 352.589 124.904 352.589 126.856V126.888C352.589 128.888 351.277 130.072 349.677 130.072ZM356.126 131H357.358V127.704C357.358 125.208 358.83 123.912 360.638 123.912H360.734V122.584C359.166 122.52 357.966 123.512 357.358 124.888V122.728H356.126V131ZM366.027 131.192C368.523 131.192 370.363 129.208 370.363 126.872V126.84C370.363 124.504 368.539 122.552 366.059 122.552C363.563 122.552 361.739 124.536 361.739 126.872V126.904C361.739 129.24 363.547 131.192 366.027 131.192ZM366.059 130.088C364.315 130.088 363.003 128.648 363.003 126.872V126.84C363.003 125.096 364.235 123.64 366.027 123.64C367.771 123.64 369.099 125.096 369.099 126.872V126.904C369.099 128.648 367.851 130.088 366.059 130.088ZM374.878 131.064H375.966L379.566 122.728H378.238L375.438 129.592L372.654 122.728H371.294L374.878 131.064ZM381.533 120.92H382.941V119.56H381.533V120.92ZM381.613 131H382.845V122.728H381.613V131ZM389.176 131.176C390.696 131.176 391.672 130.328 392.344 129.336V131H393.576V119.32H392.344V124.312C391.704 123.384 390.712 122.552 389.176 122.552C387.192 122.552 385.224 124.152 385.224 126.856V126.888C385.224 129.608 387.192 131.176 389.176 131.176ZM389.4 130.072C387.848 130.072 386.488 128.824 386.488 126.872V126.84C386.488 124.84 387.8 123.656 389.4 123.656C390.936 123.656 392.392 124.936 392.392 126.84V126.872C392.392 128.776 390.936 130.072 389.4 130.072ZM399.945 131.192C401.513 131.192 402.521 130.568 403.353 129.64L402.585 128.952C401.913 129.656 401.113 130.12 399.977 130.12C398.505 130.12 397.241 129.112 397.065 127.32H403.625C403.641 127.176 403.641 127.08 403.641 126.92C403.641 124.504 402.233 122.552 399.785 122.552C397.497 122.552 395.817 124.472 395.817 126.856V126.888C395.817 129.448 397.673 131.192 399.945 131.192ZM397.065 126.408C397.225 124.792 398.313 123.592 399.753 123.592C401.401 123.592 402.265 124.904 402.393 126.408H397.065ZM408.534 131.16C410.182 131.16 411.478 130.248 411.478 128.68V128.648C411.478 127.16 410.102 126.664 408.822 126.28C407.718 125.944 406.694 125.64 406.694 124.856V124.824C406.694 124.136 407.318 123.624 408.294 123.624C409.094 123.624 409.974 123.928 410.742 124.424L411.302 123.496C410.454 122.936 409.334 122.584 408.326 122.584C406.694 122.584 405.51 123.528 405.51 124.952V124.984C405.51 126.504 406.95 126.952 408.246 127.32C409.334 127.624 410.31 127.944 410.31 128.776V128.808C410.31 129.608 409.59 130.12 408.598 130.12C407.622 130.12 406.63 129.736 405.734 129.064L405.11 129.944C406.038 130.696 407.35 131.16 408.534 131.16ZM422.292 131.192C423.844 131.192 424.836 130.52 425.668 129.592L424.884 128.856C424.228 129.56 423.412 130.088 422.356 130.088C420.628 130.088 419.316 128.664 419.316 126.872V126.84C419.316 125.064 420.596 123.64 422.276 123.64C423.396 123.64 424.132 124.2 424.788 124.888L425.604 124.024C424.836 123.208 423.86 122.552 422.292 122.552C419.876 122.552 418.052 124.536 418.052 126.872V126.904C418.052 129.224 419.876 131.192 422.292 131.192ZM431.246 131.192C433.742 131.192 435.582 129.208 435.582 126.872V126.84C435.582 124.504 433.758 122.552 431.278 122.552C428.782 122.552 426.958 124.536 426.958 126.872V126.904C426.958 129.24 428.766 131.192 431.246 131.192ZM431.278 130.088C429.534 130.088 428.222 128.648 428.222 126.872V126.84C428.222 125.096 429.454 123.64 431.246 123.64C432.99 123.64 434.318 125.096 434.318 126.872V126.904C434.318 128.648 433.07 130.088 431.278 130.088ZM437.814 131H439.046V126.264C439.046 124.712 440.102 123.672 441.526 123.672C442.982 123.672 443.814 124.632 443.814 126.168V131H445.046V125.864C445.046 123.896 443.878 122.552 441.878 122.552C440.454 122.552 439.59 123.272 439.046 124.168V122.728H437.814V131ZM450.409 131.16C452.057 131.16 453.353 130.248 453.353 128.68V128.648C453.353 127.16 451.977 126.664 450.697 126.28C449.593 125.944 448.569 125.64 448.569 124.856V124.824C448.569 124.136 449.193 123.624 450.169 123.624C450.969 123.624 451.849 123.928 452.617 124.424L453.177 123.496C452.329 122.936 451.209 122.584 450.201 122.584C448.569 122.584 447.385 123.528 447.385 124.952V124.984C447.385 126.504 448.825 126.952 450.121 127.32C451.209 127.624 452.185 127.944 452.185 128.776V128.808C452.185 129.608 451.465 130.12 450.473 130.12C449.497 130.12 448.505 129.736 447.609 129.064L446.985 129.944C447.913 130.696 449.225 131.16 450.409 131.16ZM458.253 131.144C458.845 131.144 459.309 131.016 459.741 130.792V129.736C459.309 129.944 458.957 130.024 458.541 130.024C457.709 130.024 457.149 129.656 457.149 128.648V123.816H459.773V122.728H457.149V120.232H455.917V122.728H454.765V123.816H455.917V128.808C455.917 130.488 456.925 131.144 458.253 131.144ZM464.418 131.176C465.874 131.176 466.834 130.504 467.41 129.752V131H468.594V125.944C468.594 124.888 468.306 124.088 467.746 123.528C467.138 122.92 466.242 122.616 465.074 122.616C463.874 122.616 462.978 122.888 462.066 123.304L462.434 124.312C463.202 123.96 463.97 123.704 464.946 123.704C466.498 123.704 467.41 124.472 467.41 125.96V126.248C466.674 126.04 465.922 125.896 464.866 125.896C462.77 125.896 461.33 126.824 461.33 128.568V128.6C461.33 130.296 462.882 131.176 464.418 131.176ZM464.658 130.2C463.538 130.2 462.578 129.592 462.578 128.552V128.52C462.578 127.48 463.442 126.808 464.994 126.808C466.002 126.808 466.818 126.984 467.426 127.16V127.96C467.426 129.272 466.178 130.2 464.658 130.2ZM471.22 131H472.452V126.264C472.452 124.712 473.508 123.672 474.932 123.672C476.388 123.672 477.22 124.632 477.22 126.168V131H478.452V125.864C478.452 123.896 477.284 122.552 475.284 122.552C473.86 122.552 472.996 123.272 472.452 124.168V122.728H471.22V131ZM483.847 131.144C484.439 131.144 484.903 131.016 485.335 130.792V129.736C484.903 129.944 484.551 130.024 484.135 130.024C483.303 130.024 482.743 129.656 482.743 128.648V123.816H485.367V122.728H482.743V120.232H481.511V122.728H480.359V123.816H481.511V128.808C481.511 130.488 482.519 131.144 483.847 131.144ZM221.376 150H222.608V145.264C222.608 143.712 223.664 142.672 225.088 142.672C226.544 142.672 227.376 143.632 227.376 145.168V150H228.608V144.864C228.608 142.896 227.44 141.552 225.44 141.552C224.016 141.552 223.152 142.272 222.608 143.168V138.32H221.376V150ZM234.851 150.192C236.419 150.192 237.427 149.568 238.259 148.64L237.491 147.952C236.819 148.656 236.019 149.12 234.883 149.12C233.411 149.12 232.147 148.112 231.971 146.32H238.531C238.547 146.176 238.547 146.08 238.547 145.92C238.547 143.504 237.139 141.552 234.691 141.552C232.403 141.552 230.723 143.472 230.723 145.856V145.888C230.723 148.448 232.579 150.192 234.851 150.192ZM231.971 145.408C232.131 143.792 233.219 142.592 234.659 142.592C236.307 142.592 237.171 143.904 237.299 145.408H231.971ZM243.168 150.176C244.624 150.176 245.584 149.504 246.16 148.752V150H247.344V144.944C247.344 143.888 247.056 143.088 246.496 142.528C245.888 141.92 244.992 141.616 243.824 141.616C242.624 141.616 241.728 141.888 240.816 142.304L241.184 143.312C241.952 142.96 242.72 142.704 243.696 142.704C245.248 142.704 246.16 143.472 246.16 144.96V145.248C245.424 145.04 244.672 144.896 243.616 144.896C241.52 144.896 240.08 145.824 240.08 147.568V147.6C240.08 149.296 241.632 150.176 243.168 150.176ZM243.408 149.2C242.288 149.2 241.328 148.592 241.328 147.552V147.52C241.328 146.48 242.192 145.808 243.744 145.808C244.752 145.808 245.568 145.984 246.176 146.16V146.96C246.176 148.272 244.928 149.2 243.408 149.2ZM252.66 150.144C253.252 150.144 253.716 150.016 254.148 149.792V148.736C253.716 148.944 253.364 149.024 252.948 149.024C252.116 149.024 251.556 148.656 251.556 147.648V142.816H254.18V141.728H251.556V139.232H250.324V141.728H249.172V142.816H250.324V147.808C250.324 149.488 251.332 150.144 252.66 150.144ZM263.349 150.064H264.437L266.677 143.536L268.901 150.064H269.973L272.885 141.728H271.605L269.429 148.368L267.189 141.696H266.165L263.941 148.368L261.765 141.728H260.453L263.349 150.064ZM274.939 150H276.171V145.264C276.171 143.712 277.227 142.672 278.651 142.672C280.107 142.672 280.939 143.632 280.939 145.168V150H282.171V144.864C282.171 142.896 281.003 141.552 279.003 141.552C277.579 141.552 276.715 142.272 276.171 143.168V138.32H274.939V150ZM284.83 139.92H286.238V138.56H284.83V139.92ZM284.91 150H286.142V141.728H284.91V150ZM292.729 150.192C294.281 150.192 295.273 149.52 296.105 148.592L295.321 147.856C294.665 148.56 293.849 149.088 292.793 149.088C291.065 149.088 289.753 147.664 289.753 145.872V145.84C289.753 144.064 291.033 142.64 292.713 142.64C293.833 142.64 294.569 143.2 295.225 143.888L296.041 143.024C295.273 142.208 294.297 141.552 292.729 141.552C290.313 141.552 288.489 143.536 288.489 145.872V145.904C288.489 148.224 290.313 150.192 292.729 150.192ZM298.142 150H299.374V145.264C299.374 143.712 300.43 142.672 301.854 142.672C303.31 142.672 304.142 143.632 304.142 145.168V150H305.374V144.864C305.374 142.896 304.206 141.552 302.206 141.552C300.782 141.552 299.918 142.272 299.374 143.168V138.32H298.142V150ZM312.83 139.92H314.238V138.56H312.83V139.92ZM312.91 150H314.142V141.728H312.91V150ZM317.001 150H318.233V145.264C318.233 143.712 319.289 142.672 320.713 142.672C322.169 142.672 323.001 143.632 323.001 145.168V150H324.233V144.864C324.233 142.896 323.065 141.552 321.065 141.552C319.641 141.552 318.777 142.272 318.233 143.168V141.728H317.001V150ZM330.588 150.192C332.14 150.192 333.132 149.52 333.964 148.592L333.18 147.856C332.524 148.56 331.708 149.088 330.652 149.088C328.924 149.088 327.612 147.664 327.612 145.872V145.84C327.612 144.064 328.892 142.64 330.572 142.64C331.692 142.64 332.428 143.2 333.084 143.888L333.9 143.024C333.132 142.208 332.156 141.552 330.588 141.552C328.172 141.552 326.348 143.536 326.348 145.872V145.904C326.348 148.224 328.172 150.192 330.588 150.192ZM336.001 150H337.233V146.704C337.233 144.208 338.705 142.912 340.513 142.912H340.609V141.584C339.041 141.52 337.841 142.512 337.233 143.888V141.728H336.001V150ZM345.742 150.192C347.31 150.192 348.318 149.568 349.15 148.64L348.382 147.952C347.71 148.656 346.91 149.12 345.774 149.12C344.302 149.12 343.038 148.112 342.862 146.32H349.422C349.438 146.176 349.438 146.08 349.438 145.92C349.438 143.504 348.03 141.552 345.582 141.552C343.294 141.552 341.614 143.472 341.614 145.856V145.888C341.614 148.448 343.47 150.192 345.742 150.192ZM342.862 145.408C343.022 143.792 344.11 142.592 345.55 142.592C347.198 142.592 348.062 143.904 348.19 145.408H342.862ZM354.059 150.176C355.515 150.176 356.475 149.504 357.051 148.752V150H358.235V144.944C358.235 143.888 357.947 143.088 357.387 142.528C356.779 141.92 355.883 141.616 354.715 141.616C353.515 141.616 352.619 141.888 351.707 142.304L352.075 143.312C352.843 142.96 353.611 142.704 354.587 142.704C356.139 142.704 357.051 143.472 357.051 144.96V145.248C356.315 145.04 355.563 144.896 354.507 144.896C352.411 144.896 350.971 145.824 350.971 147.568V147.6C350.971 149.296 352.523 150.176 354.059 150.176ZM354.299 149.2C353.179 149.2 352.219 148.592 352.219 147.552V147.52C352.219 146.48 353.083 145.808 354.635 145.808C355.643 145.808 356.459 145.984 357.067 146.16V146.96C357.067 148.272 355.819 149.2 354.299 149.2ZM363.596 150.16C365.244 150.16 366.54 149.248 366.54 147.68V147.648C366.54 146.16 365.164 145.664 363.884 145.28C362.78 144.944 361.756 144.64 361.756 143.856V143.824C361.756 143.136 362.38 142.624 363.356 142.624C364.156 142.624 365.036 142.928 365.804 143.424L366.364 142.496C365.516 141.936 364.396 141.584 363.388 141.584C361.756 141.584 360.572 142.528 360.572 143.952V143.984C360.572 145.504 362.012 145.952 363.308 146.32C364.396 146.624 365.372 146.944 365.372 147.776V147.808C365.372 148.608 364.652 149.12 363.66 149.12C362.684 149.12 361.692 148.736 360.796 148.064L360.172 148.944C361.1 149.696 362.412 150.16 363.596 150.16ZM372.445 150.192C374.013 150.192 375.021 149.568 375.853 148.64L375.085 147.952C374.413 148.656 373.613 149.12 372.477 149.12C371.005 149.12 369.741 148.112 369.565 146.32H376.125C376.141 146.176 376.141 146.08 376.141 145.92C376.141 143.504 374.733 141.552 372.285 141.552C369.997 141.552 368.317 143.472 368.317 145.856V145.888C368.317 148.448 370.173 150.192 372.445 150.192ZM369.565 145.408C369.725 143.792 370.813 142.592 372.253 142.592C373.901 142.592 374.765 143.904 374.893 145.408H369.565ZM381.034 150.16C382.682 150.16 383.978 149.248 383.978 147.68V147.648C383.978 146.16 382.602 145.664 381.322 145.28C380.218 144.944 379.194 144.64 379.194 143.856V143.824C379.194 143.136 379.818 142.624 380.794 142.624C381.594 142.624 382.474 142.928 383.242 143.424L383.802 142.496C382.954 141.936 381.834 141.584 380.826 141.584C379.194 141.584 378.01 142.528 378.01 143.952V143.984C378.01 145.504 379.45 145.952 380.746 146.32C381.834 146.624 382.81 146.944 382.81 147.776V147.808C382.81 148.608 382.09 149.12 381.098 149.12C380.122 149.12 379.13 148.736 378.234 148.064L377.61 148.944C378.538 149.696 379.85 150.16 381.034 150.16ZM395.464 150.176C397.464 150.176 399.416 148.576 399.416 145.872V145.84C399.416 143.12 397.448 141.552 395.464 141.552C393.944 141.552 392.968 142.4 392.296 143.392V138.32H391.064V150H392.296V148.416C392.936 149.344 393.928 150.176 395.464 150.176ZM395.24 149.072C393.704 149.072 392.248 147.792 392.248 145.872V145.84C392.248 143.952 393.704 142.656 395.24 142.656C396.808 142.656 398.152 143.904 398.152 145.856V145.888C398.152 147.888 396.84 149.072 395.24 149.072ZM401.801 150H403.033V138.32H401.801V150ZM409.668 150.192C412.164 150.192 414.004 148.208 414.004 145.872V145.84C414.004 143.504 412.18 141.552 409.7 141.552C407.204 141.552 405.38 143.536 405.38 145.872V145.904C405.38 148.24 407.188 150.192 409.668 150.192ZM409.7 149.088C407.956 149.088 406.644 147.648 406.644 145.872V145.84C406.644 144.096 407.876 142.64 409.668 142.64C411.412 142.64 412.74 144.096 412.74 145.872V145.904C412.74 147.648 411.492 149.088 409.7 149.088ZM420.011 150.192C422.507 150.192 424.347 148.208 424.347 145.872V145.84C424.347 143.504 422.523 141.552 420.043 141.552C417.547 141.552 415.723 143.536 415.723 145.872V145.904C415.723 148.24 417.531 150.192 420.011 150.192ZM420.043 149.088C418.299 149.088 416.987 147.648 416.987 145.872V145.84C416.987 144.096 418.219 142.64 420.011 142.64C421.755 142.64 423.083 144.096 423.083 145.872V145.904C423.083 147.648 421.835 149.088 420.043 149.088ZM430.051 150.176C431.571 150.176 432.547 149.328 433.219 148.336V150H434.451V138.32H433.219V143.312C432.579 142.384 431.587 141.552 430.051 141.552C428.067 141.552 426.099 143.152 426.099 145.856V145.888C426.099 148.608 428.067 150.176 430.051 150.176ZM430.275 149.072C428.723 149.072 427.363 147.824 427.363 145.872V145.84C427.363 143.84 428.675 142.656 430.275 142.656C431.811 142.656 433.267 143.936 433.267 145.84V145.872C433.267 147.776 431.811 149.072 430.275 149.072ZM442.465 150H443.697V142.816H446.305V141.76H443.681V141.088C443.681 139.904 444.161 139.328 445.121 139.328C445.537 139.328 445.873 139.408 446.321 139.536V138.464C445.921 138.32 445.537 138.256 444.961 138.256C444.209 138.256 443.601 138.48 443.185 138.896C442.721 139.36 442.465 140.08 442.465 141.024V141.744H441.329V142.816H442.465V150ZM448.001 150H449.217V138.32H448.001V150ZM455.871 150.192C458.367 150.192 460.207 148.208 460.207 145.872V145.84C460.207 143.504 458.383 141.552 455.903 141.552C453.407 141.552 451.583 143.536 451.583 145.872V145.904C451.583 148.24 453.391 150.192 455.871 150.192ZM455.903 149.088C454.159 149.088 452.847 147.648 452.847 145.872V145.84C452.847 144.096 454.079 142.64 455.871 142.64C457.615 142.64 458.943 144.096 458.943 145.872V145.904C458.943 147.648 457.695 149.088 455.903 149.088ZM464.224 150.064H465.312L467.552 143.536L469.776 150.064H470.848L473.76 141.728H472.48L470.304 148.368L468.064 141.696H467.04L464.816 148.368L462.64 141.728H461.328L464.224 150.064ZM224.144 169.144C224.736 169.144 225.2 169.016 225.632 168.792V167.736C225.2 167.944 224.848 168.024 224.432 168.024C223.6 168.024 223.04 167.656 223.04 166.648V161.816H225.664V160.728H223.04V158.232H221.808V160.728H220.656V161.816H221.808V166.808C221.808 168.488 222.816 169.144 224.144 169.144ZM231.386 169.192C233.882 169.192 235.722 167.208 235.722 164.872V164.84C235.722 162.504 233.898 160.552 231.418 160.552C228.922 160.552 227.098 162.536 227.098 164.872V164.904C227.098 167.24 228.906 169.192 231.386 169.192ZM231.418 168.088C229.674 168.088 228.362 166.648 228.362 164.872V164.84C228.362 163.096 229.594 161.64 231.386 161.64C233.13 161.64 234.458 163.096 234.458 164.872V164.904C234.458 166.648 233.21 168.088 231.418 168.088ZM245.519 169.144C246.111 169.144 246.575 169.016 247.007 168.792V167.736C246.575 167.944 246.223 168.024 245.807 168.024C244.975 168.024 244.415 167.656 244.415 166.648V161.816H247.039V160.728H244.415V158.232H243.183V160.728H242.031V161.816H243.183V166.808C243.183 168.488 244.191 169.144 245.519 169.144ZM249.252 158.92H250.66V157.56H249.252V158.92ZM249.332 169H250.564V160.728H249.332V169ZM256.159 169.16C257.807 169.16 259.103 168.248 259.103 166.68V166.648C259.103 165.16 257.727 164.664 256.447 164.28C255.343 163.944 254.319 163.64 254.319 162.856V162.824C254.319 162.136 254.943 161.624 255.919 161.624C256.719 161.624 257.599 161.928 258.367 162.424L258.927 161.496C258.079 160.936 256.959 160.584 255.951 160.584C254.319 160.584 253.135 161.528 253.135 162.952V162.984C253.135 164.504 254.575 164.952 255.871 165.32C256.959 165.624 257.935 165.944 257.935 166.776V166.808C257.935 167.608 257.215 168.12 256.223 168.12C255.247 168.12 254.255 167.736 253.359 167.064L252.735 167.944C253.663 168.696 254.975 169.16 256.159 169.16ZM263.971 169.16C265.619 169.16 266.915 168.248 266.915 166.68V166.648C266.915 165.16 265.539 164.664 264.259 164.28C263.155 163.944 262.131 163.64 262.131 162.856V162.824C262.131 162.136 262.755 161.624 263.731 161.624C264.531 161.624 265.411 161.928 266.179 162.424L266.739 161.496C265.891 160.936 264.771 160.584 263.763 160.584C262.131 160.584 260.947 161.528 260.947 162.952V162.984C260.947 164.504 262.387 164.952 263.683 165.32C264.771 165.624 265.747 165.944 265.747 166.776V166.808C265.747 167.608 265.027 168.12 264.035 168.12C263.059 168.12 262.067 167.736 261.171 167.064L260.547 167.944C261.475 168.696 262.787 169.16 263.971 169.16ZM272.244 169.176C273.668 169.176 274.516 168.456 275.076 167.56V169H276.292V160.728H275.076V165.464C275.076 167.016 274.004 168.056 272.596 168.056C271.14 168.056 270.308 167.096 270.308 165.56V160.728H269.076V165.864C269.076 167.832 270.244 169.176 272.244 169.176ZM282.68 169.192C284.248 169.192 285.256 168.568 286.088 167.64L285.32 166.952C284.648 167.656 283.848 168.12 282.712 168.12C281.24 168.12 279.976 167.112 279.799 165.32H286.36C286.376 165.176 286.376 165.08 286.376 164.92C286.376 162.504 284.968 160.552 282.52 160.552C280.232 160.552 278.552 162.472 278.552 164.856V164.888C278.552 167.448 280.408 169.192 282.68 169.192ZM279.799 164.408C279.96 162.792 281.048 161.592 282.488 161.592C284.136 161.592 285 162.904 285.128 164.408H279.799ZM291.268 169.16C292.916 169.16 294.212 168.248 294.212 166.68V166.648C294.212 165.16 292.836 164.664 291.556 164.28C290.452 163.944 289.428 163.64 289.428 162.856V162.824C289.428 162.136 290.052 161.624 291.028 161.624C291.828 161.624 292.708 161.928 293.476 162.424L294.036 161.496C293.188 160.936 292.068 160.584 291.06 160.584C289.428 160.584 288.244 161.528 288.244 162.952V162.984C288.244 164.504 289.684 164.952 290.98 165.32C292.068 165.624 293.044 165.944 293.044 166.776V166.808C293.044 167.608 292.324 168.12 291.332 168.12C290.356 168.12 289.364 167.736 288.468 167.064L287.844 167.944C288.772 168.696 290.084 169.16 291.268 169.16ZM296.053 170.952C297.269 170.68 297.829 170.056 297.829 168.76V167.32H296.357V169H296.933C296.997 169.688 296.661 170.104 295.861 170.392L296.053 170.952ZM308.884 171.592C310.196 171.592 311.3 171.224 312.036 170.488C312.708 169.816 313.092 168.84 313.092 167.56V160.728H311.86V162.216C311.188 161.32 310.18 160.552 308.628 160.552C306.66 160.552 304.74 162.04 304.74 164.456V164.488C304.74 166.872 306.644 168.36 308.628 168.36C310.148 168.36 311.156 167.576 311.876 166.616V167.592C311.876 169.528 310.692 170.536 308.868 170.536C307.684 170.536 306.628 170.168 305.684 169.48L305.124 170.44C306.228 171.208 307.508 171.592 308.884 171.592ZM308.868 167.272C307.332 167.272 306.004 166.12 306.004 164.456V164.424C306.004 162.728 307.3 161.64 308.868 161.64C310.436 161.64 311.908 162.744 311.908 164.44V164.472C311.908 166.136 310.436 167.272 308.868 167.272ZM315.877 158.92H317.285V157.56H315.877V158.92ZM315.957 169H317.189V160.728H315.957V169ZM322.816 169.064H323.904L327.504 160.728H326.176L323.376 167.592L320.592 160.728H319.232L322.816 169.064ZM329.471 158.92H330.879V157.56H329.471V158.92ZM329.551 169H330.783V160.728H329.551V169ZM333.642 169H334.874V164.264C334.874 162.712 335.93 161.672 337.354 161.672C338.81 161.672 339.642 162.632 339.642 164.168V169H340.874V163.864C340.874 161.896 339.706 160.552 337.706 160.552C336.282 160.552 335.418 161.272 334.874 162.168V160.728H333.642V169ZM347.165 171.592C348.477 171.592 349.581 171.224 350.317 170.488C350.989 169.816 351.373 168.84 351.373 167.56V160.728H350.141V162.216C349.469 161.32 348.461 160.552 346.909 160.552C344.941 160.552 343.021 162.04 343.021 164.456V164.488C343.021 166.872 344.925 168.36 346.909 168.36C348.429 168.36 349.437 167.576 350.157 166.616V167.592C350.157 169.528 348.973 170.536 347.149 170.536C345.965 170.536 344.909 170.168 343.965 169.48L343.405 170.44C344.509 171.208 345.789 171.592 347.165 171.592ZM347.149 167.272C345.613 167.272 344.285 166.12 344.285 164.456V164.424C344.285 162.728 345.581 161.64 347.149 161.64C348.717 161.64 350.189 162.744 350.189 164.44V164.472C350.189 166.136 348.717 167.272 347.149 167.272ZM361.387 169.176C362.843 169.176 363.803 168.504 364.379 167.752V169H365.563V163.944C365.563 162.888 365.275 162.088 364.715 161.528C364.107 160.92 363.211 160.616 362.043 160.616C360.843 160.616 359.947 160.888 359.035 161.304L359.403 162.312C360.171 161.96 360.939 161.704 361.915 161.704C363.467 161.704 364.379 162.472 364.379 163.96V164.248C363.643 164.04 362.891 163.896 361.835 163.896C359.739 163.896 358.299 164.824 358.299 166.568V166.6C358.299 168.296 359.851 169.176 361.387 169.176ZM361.627 168.2C360.507 168.2 359.547 167.592 359.547 166.552V166.52C359.547 165.48 360.411 164.808 361.963 164.808C362.971 164.808 363.787 164.984 364.395 165.16V165.96C364.395 167.272 363.147 168.2 361.627 168.2ZM368.189 169H369.421V164.264C369.421 162.712 370.477 161.672 371.901 161.672C373.357 161.672 374.189 162.632 374.189 164.168V169H375.421V163.864C375.421 161.896 374.253 160.552 372.253 160.552C370.829 160.552 369.965 161.272 369.421 162.168V160.728H368.189V169ZM380.512 169.176C381.968 169.176 382.928 168.504 383.504 167.752V169H384.688V163.944C384.688 162.888 384.4 162.088 383.84 161.528C383.232 160.92 382.336 160.616 381.168 160.616C379.968 160.616 379.072 160.888 378.16 161.304L378.528 162.312C379.296 161.96 380.064 161.704 381.04 161.704C382.592 161.704 383.504 162.472 383.504 163.96V164.248C382.768 164.04 382.016 163.896 380.96 163.896C378.864 163.896 377.424 164.824 377.424 166.568V166.6C377.424 168.296 378.976 169.176 380.512 169.176ZM380.752 168.2C379.632 168.2 378.672 167.592 378.672 166.552V166.52C378.672 165.48 379.536 164.808 381.088 164.808C382.096 164.808 382.912 164.984 383.52 165.16V165.96C383.52 167.272 382.272 168.2 380.752 168.2ZM387.426 169H388.658V157.32H387.426V169ZM395.181 171.592C396.493 171.592 397.597 171.224 398.333 170.488C399.005 169.816 399.389 168.84 399.389 167.56V160.728H398.157V162.216C397.485 161.32 396.477 160.552 394.925 160.552C392.957 160.552 391.037 162.04 391.037 164.456V164.488C391.037 166.872 392.941 168.36 394.925 168.36C396.445 168.36 397.453 167.576 398.173 166.616V167.592C398.173 169.528 396.989 170.536 395.165 170.536C393.981 170.536 392.925 170.168 391.981 169.48L391.421 170.44C392.525 171.208 393.805 171.592 395.181 171.592ZM395.165 167.272C393.629 167.272 392.301 166.12 392.301 164.456V164.424C392.301 162.728 393.597 161.64 395.165 161.64C396.733 161.64 398.205 162.744 398.205 164.44V164.472C398.205 166.136 396.733 167.272 395.165 167.272ZM405.758 169.192C407.326 169.192 408.334 168.568 409.166 167.64L408.398 166.952C407.726 167.656 406.926 168.12 405.79 168.12C404.318 168.12 403.054 167.112 402.878 165.32H409.438C409.454 165.176 409.454 165.08 409.454 164.92C409.454 162.504 408.046 160.552 405.598 160.552C403.31 160.552 401.63 162.472 401.63 164.856V164.888C401.63 167.448 403.486 169.192 405.758 169.192ZM402.878 164.408C403.038 162.792 404.126 161.592 405.566 161.592C407.214 161.592 408.078 162.904 408.206 164.408H402.878ZM414.346 169.16C415.994 169.16 417.29 168.248 417.29 166.68V166.648C417.29 165.16 415.914 164.664 414.634 164.28C413.53 163.944 412.506 163.64 412.506 162.856V162.824C412.506 162.136 413.13 161.624 414.106 161.624C414.906 161.624 415.786 161.928 416.554 162.424L417.114 161.496C416.266 160.936 415.146 160.584 414.138 160.584C412.506 160.584 411.322 161.528 411.322 162.952V162.984C411.322 164.504 412.762 164.952 414.058 165.32C415.146 165.624 416.122 165.944 416.122 166.776V166.808C416.122 167.608 415.402 168.12 414.41 168.12C413.434 168.12 412.442 167.736 411.546 167.064L410.922 167.944C411.85 168.696 413.162 169.16 414.346 169.16ZM419.611 158.92H421.019V157.56H419.611V158.92ZM419.691 169H420.923V160.728H419.691V169ZM427.51 169.192C429.062 169.192 430.054 168.52 430.886 167.592L430.102 166.856C429.446 167.56 428.63 168.088 427.574 168.088C425.846 168.088 424.534 166.664 424.534 164.872V164.84C424.534 163.064 425.814 161.64 427.494 161.64C428.614 161.64 429.35 162.2 430.006 162.888L430.822 162.024C430.054 161.208 429.078 160.552 427.51 160.552C425.094 160.552 423.27 162.536 423.27 164.872V164.904C423.27 167.224 425.094 169.192 427.51 169.192ZM441.336 169.192C442.904 169.192 443.912 168.568 444.744 167.64L443.976 166.952C443.304 167.656 442.504 168.12 441.368 168.12C439.896 168.12 438.632 167.112 438.456 165.32H445.016C445.032 165.176 445.032 165.08 445.032 164.92C445.032 162.504 443.624 160.552 441.176 160.552C438.888 160.552 437.208 162.472 437.208 164.856V164.888C437.208 167.448 439.064 169.192 441.336 169.192ZM438.456 164.408C438.616 162.792 439.704 161.592 441.144 161.592C442.792 161.592 443.656 162.904 443.784 164.408H438.456ZM447.653 169H448.885V161.816H451.493V160.76H448.869V160.088C448.869 158.904 449.349 158.328 450.309 158.328C450.725 158.328 451.061 158.408 451.509 158.536V157.464C451.109 157.32 450.725 157.256 450.149 157.256C449.397 157.256 448.789 157.48 448.373 157.896C447.909 158.36 447.653 159.08 447.653 160.024V160.744H446.517V161.816H447.653V169ZM453.541 169H454.757V161.816H457.365V160.76H454.757V160.088C454.757 158.904 455.22 158.328 456.197 158.328C456.613 158.328 456.949 158.408 457.381 158.536V157.464C456.997 157.32 456.597 157.256 456.021 157.256C455.269 157.256 454.677 157.48 454.245 157.896C453.781 158.36 453.541 159.08 453.541 160.024V160.744H452.405V161.816H453.541V169ZM462.414 169.192C463.982 169.192 464.99 168.568 465.822 167.64L465.054 166.952C464.382 167.656 463.582 168.12 462.446 168.12C460.974 168.12 459.71 167.112 459.534 165.32H466.094C466.11 165.176 466.11 165.08 466.11 164.92C466.11 162.504 464.702 160.552 462.254 160.552C459.966 160.552 458.286 162.472 458.286 164.856V164.888C458.286 167.448 460.142 169.192 462.414 169.192ZM459.534 164.408C459.694 162.792 460.782 161.592 462.222 161.592C463.87 161.592 464.734 162.904 464.862 164.408H459.534ZM471.995 169.192C473.547 169.192 474.539 168.52 475.371 167.592L474.587 166.856C473.931 167.56 473.115 168.088 472.059 168.088C470.331 168.088 469.019 166.664 469.019 164.872V164.84C469.019 163.064 470.299 161.64 471.979 161.64C473.099 161.64 473.835 162.2 474.491 162.888L475.307 162.024C474.539 161.208 473.563 160.552 471.995 160.552C469.579 160.552 467.755 162.536 467.755 164.872V164.904C467.755 167.224 469.579 169.192 471.995 169.192ZM480.175 169.144C480.767 169.144 481.231 169.016 481.663 168.792V167.736C481.231 167.944 480.879 168.024 480.463 168.024C479.631 168.024 479.071 167.656 479.071 166.648V161.816H481.695V160.728H479.071V158.232H477.839V160.728H476.687V161.816H477.839V166.808C477.839 168.488 478.847 169.144 480.175 169.144ZM486.612 169.16C488.26 169.16 489.556 168.248 489.556 166.68V166.648C489.556 165.16 488.18 164.664 486.9 164.28C485.796 163.944 484.772 163.64 484.772 162.856V162.824C484.772 162.136 485.396 161.624 486.372 161.624C487.172 161.624 488.052 161.928 488.82 162.424L489.38 161.496C488.532 160.936 487.412 160.584 486.404 160.584C484.772 160.584 483.588 161.528 483.588 162.952V162.984C483.588 164.504 485.028 164.952 486.324 165.32C487.412 165.624 488.388 165.944 488.388 166.776V166.808C488.388 167.608 487.668 168.12 486.676 168.12C485.7 168.12 484.708 167.736 483.812 167.064L483.188 167.944C484.116 168.696 485.428 169.16 486.612 169.16ZM223.568 188.064H224.656L226.896 181.536L229.12 188.064H230.192L233.104 179.728H231.824L229.648 186.368L227.408 179.696H226.384L224.16 186.368L221.984 179.728H220.672L223.568 188.064ZM235.157 188H236.389V183.264C236.389 181.712 237.445 180.672 238.869 180.672C240.325 180.672 241.157 181.632 241.157 183.168V188H242.389V182.864C242.389 180.896 241.221 179.552 239.221 179.552C237.797 179.552 236.933 180.272 236.389 181.168V176.32H235.157V188ZM245.049 177.92H246.457V176.56H245.049V177.92ZM245.129 188H246.361V179.728H245.129V188ZM252.948 188.192C254.5 188.192 255.492 187.52 256.324 186.592L255.54 185.856C254.884 186.56 254.068 187.088 253.012 187.088C251.284 187.088 249.972 185.664 249.972 183.872V183.84C249.972 182.064 251.252 180.64 252.932 180.64C254.052 180.64 254.788 181.2 255.444 181.888L256.26 181.024C255.492 180.208 254.516 179.552 252.948 179.552C250.532 179.552 248.708 181.536 248.708 183.872V183.904C248.708 186.224 250.532 188.192 252.948 188.192ZM258.36 188H259.592V183.264C259.592 181.712 260.648 180.672 262.072 180.672C263.528 180.672 264.36 181.632 264.36 183.168V188H265.592V182.864C265.592 180.896 264.424 179.552 262.424 179.552C261 179.552 260.136 180.272 259.592 181.168V176.32H258.36V188ZM273.129 188H274.361V176.32H273.129V188ZM279.684 188.176C281.14 188.176 282.1 187.504 282.676 186.752V188H283.86V182.944C283.86 181.888 283.572 181.088 283.012 180.528C282.404 179.92 281.508 179.616 280.34 179.616C279.14 179.616 278.244 179.888 277.332 180.304L277.7 181.312C278.468 180.96 279.236 180.704 280.212 180.704C281.764 180.704 282.676 181.472 282.676 182.96V183.248C281.94 183.04 281.188 182.896 280.132 182.896C278.036 182.896 276.596 183.824 276.596 185.568V185.6C276.596 187.296 278.148 188.176 279.684 188.176ZM279.924 187.2C278.804 187.2 277.844 186.592 277.844 185.552V185.52C277.844 184.48 278.708 183.808 280.26 183.808C281.268 183.808 282.084 183.984 282.692 184.16V184.96C282.692 186.272 281.444 187.2 279.924 187.2ZM289.221 188.16C290.869 188.16 292.165 187.248 292.165 185.68V185.648C292.165 184.16 290.789 183.664 289.509 183.28C288.405 182.944 287.381 182.64 287.381 181.856V181.824C287.381 181.136 288.005 180.624 288.981 180.624C289.781 180.624 290.661 180.928 291.429 181.424L291.989 180.496C291.141 179.936 290.021 179.584 289.013 179.584C287.381 179.584 286.197 180.528 286.197 181.952V181.984C286.197 183.504 287.637 183.952 288.933 184.32C290.021 184.624 290.997 184.944 290.997 185.776V185.808C290.997 186.608 290.277 187.12 289.285 187.12C288.309 187.12 287.317 186.736 286.421 186.064L285.797 186.944C286.725 187.696 288.037 188.16 289.221 188.16ZM297.066 188.144C297.658 188.144 298.122 188.016 298.554 187.792V186.736C298.122 186.944 297.77 187.024 297.354 187.024C296.522 187.024 295.962 186.656 295.962 185.648V180.816H298.586V179.728H295.962V177.232H294.73V179.728H293.578V180.816H294.73V185.808C294.73 187.488 295.738 188.144 297.066 188.144ZM309.18 188.192C310.748 188.192 311.756 187.568 312.588 186.64L311.82 185.952C311.148 186.656 310.348 187.12 309.212 187.12C307.74 187.12 306.476 186.112 306.299 184.32H312.86C312.876 184.176 312.876 184.08 312.876 183.92C312.876 181.504 311.468 179.552 309.02 179.552C306.732 179.552 305.052 181.472 305.052 183.856V183.888C305.052 186.448 306.908 188.192 309.18 188.192ZM306.299 183.408C306.46 181.792 307.548 180.592 308.988 180.592C310.636 180.592 311.5 181.904 311.628 183.408H306.299ZM317.394 188.064H318.482L322.082 179.728H320.754L317.954 186.592L315.17 179.728H313.81L317.394 188.064ZM327.148 188.192C328.716 188.192 329.724 187.568 330.556 186.64L329.788 185.952C329.116 186.656 328.316 187.12 327.18 187.12C325.708 187.12 324.444 186.112 324.268 184.32H330.828C330.844 184.176 330.844 184.08 330.844 183.92C330.844 181.504 329.436 179.552 326.988 179.552C324.7 179.552 323.02 181.472 323.02 183.856V183.888C323.02 186.448 324.876 188.192 327.148 188.192ZM324.268 183.408C324.428 181.792 325.516 180.592 326.956 180.592C328.604 180.592 329.468 181.904 329.596 183.408H324.268ZM333.001 188H334.233V183.264C334.233 181.712 335.289 180.672 336.713 180.672C338.169 180.672 339.001 181.632 339.001 183.168V188H340.233V182.864C340.233 180.896 339.065 179.552 337.065 179.552C335.641 179.552 334.777 180.272 334.233 181.168V179.728H333.001V188ZM350.121 188.176C351.577 188.176 352.537 187.504 353.113 186.752V188H354.297V182.944C354.297 181.888 354.009 181.088 353.449 180.528C352.841 179.92 351.945 179.616 350.777 179.616C349.577 179.616 348.681 179.888 347.769 180.304L348.137 181.312C348.905 180.96 349.673 180.704 350.649 180.704C352.201 180.704 353.113 181.472 353.113 182.96V183.248C352.377 183.04 351.625 182.896 350.569 182.896C348.473 182.896 347.033 183.824 347.033 185.568V185.6C347.033 187.296 348.585 188.176 350.121 188.176ZM350.361 187.2C349.241 187.2 348.281 186.592 348.281 185.552V185.52C348.281 184.48 349.145 183.808 350.697 183.808C351.705 183.808 352.521 183.984 353.129 184.16V184.96C353.129 186.272 351.881 187.2 350.361 187.2ZM357.387 188H358.619V180.816H361.227V179.76H358.603V179.088C358.603 177.904 359.083 177.328 360.043 177.328C360.459 177.328 360.795 177.408 361.243 177.536V176.464C360.843 176.32 360.459 176.256 359.883 176.256C359.131 176.256 358.523 176.48 358.107 176.896C357.643 177.36 357.387 178.08 357.387 179.024V179.744H356.251V180.816H357.387V188ZM365.566 188.144C366.158 188.144 366.622 188.016 367.054 187.792V186.736C366.622 186.944 366.27 187.024 365.854 187.024C365.022 187.024 364.462 186.656 364.462 185.648V180.816H367.086V179.728H364.462V177.232H363.23V179.728H362.078V180.816H363.23V185.808C363.23 187.488 364.238 188.144 365.566 188.144ZM372.648 188.192C374.216 188.192 375.224 187.568 376.056 186.64L375.288 185.952C374.616 186.656 373.816 187.12 372.68 187.12C371.208 187.12 369.944 186.112 369.768 184.32H376.328C376.344 184.176 376.344 184.08 376.344 183.92C376.344 181.504 374.936 179.552 372.488 179.552C370.2 179.552 368.52 181.472 368.52 183.856V183.888C368.52 186.448 370.376 188.192 372.648 188.192ZM369.768 183.408C369.928 181.792 371.016 180.592 372.456 180.592C374.104 180.592 374.968 181.904 375.096 183.408H369.768ZM378.501 188H379.733V184.704C379.733 182.208 381.205 180.912 383.013 180.912H383.109V179.584C381.541 179.52 380.341 180.512 379.733 181.888V179.728H378.501V188ZM392.55 188.144C393.142 188.144 393.606 188.016 394.038 187.792V186.736C393.606 186.944 393.254 187.024 392.838 187.024C392.006 187.024 391.446 186.656 391.446 185.648V180.816H394.07V179.728H391.446V177.232H390.214V179.728H389.062V180.816H390.214V185.808C390.214 187.488 391.222 188.144 392.55 188.144ZM396.251 188H397.483V183.264C397.483 181.712 398.539 180.672 399.963 180.672C401.419 180.672 402.251 181.632 402.251 183.168V188H403.483V182.864C403.483 180.896 402.315 179.552 400.315 179.552C398.891 179.552 398.027 180.272 397.483 181.168V176.32H396.251V188ZM409.726 188.192C411.294 188.192 412.302 187.568 413.134 186.64L412.366 185.952C411.694 186.656 410.894 187.12 409.758 187.12C408.286 187.12 407.022 186.112 406.846 184.32H413.406C413.422 184.176 413.422 184.08 413.422 183.92C413.422 181.504 412.014 179.552 409.566 179.552C407.278 179.552 405.598 181.472 405.598 183.856V183.888C405.598 186.448 407.454 188.192 409.726 188.192ZM406.846 183.408C407.006 181.792 408.094 180.592 409.534 180.592C411.182 180.592 412.046 181.904 412.174 183.408H406.846ZM422.568 188.064H423.656L425.896 181.536L428.12 188.064H429.192L432.104 179.728H430.824L428.648 186.368L426.408 179.696H425.384L423.16 186.368L420.984 179.728H419.672L422.568 188.064ZM434.157 188H435.389V184.704C435.389 182.208 436.861 180.912 438.669 180.912H438.765V179.584C437.197 179.52 435.997 180.512 435.389 181.888V179.728H434.157V188ZM442.699 188.176C444.155 188.176 445.115 187.504 445.691 186.752V188H446.875V182.944C446.875 181.888 446.587 181.088 446.027 180.528C445.419 179.92 444.523 179.616 443.355 179.616C442.155 179.616 441.259 179.888 440.347 180.304L440.715 181.312C441.483 180.96 442.251 180.704 443.227 180.704C444.779 180.704 445.691 181.472 445.691 182.96V183.248C444.955 183.04 444.203 182.896 443.147 182.896C441.051 182.896 439.611 183.824 439.611 185.568V185.6C439.611 187.296 441.163 188.176 442.699 188.176ZM442.939 187.2C441.819 187.2 440.859 186.592 440.859 185.552V185.52C440.859 184.48 441.723 183.808 443.275 183.808C444.283 183.808 445.099 183.984 445.707 184.16V184.96C445.707 186.272 444.459 187.2 442.939 187.2ZM449.501 190.56H450.733V186.416C451.373 187.344 452.365 188.176 453.901 188.176C455.901 188.176 457.853 186.576 457.853 183.872V183.84C457.853 181.12 455.885 179.552 453.901 179.552C452.381 179.552 451.405 180.4 450.733 181.392V179.728H449.501V190.56ZM453.677 187.072C452.141 187.072 450.685 185.792 450.685 183.872V183.84C450.685 181.952 452.141 180.656 453.677 180.656C455.245 180.656 456.589 181.904 456.589 183.856V183.888C456.589 185.888 455.277 187.072 453.677 187.072ZM464.923 188H466.155V183.264C466.155 181.712 467.211 180.672 468.635 180.672C470.091 180.672 470.923 181.632 470.923 183.168V188H472.155V182.864C472.155 180.896 470.987 179.552 468.987 179.552C467.563 179.552 466.699 180.272 466.155 181.168V176.32H464.923V188ZM477.246 188.176C478.702 188.176 479.662 187.504 480.238 186.752V188H481.422V182.944C481.422 181.888 481.134 181.088 480.574 180.528C479.966 179.92 479.07 179.616 477.902 179.616C476.702 179.616 475.806 179.888 474.894 180.304L475.262 181.312C476.03 180.96 476.798 180.704 477.774 180.704C479.326 180.704 480.238 181.472 480.238 182.96V183.248C479.502 183.04 478.75 182.896 477.694 182.896C475.598 182.896 474.158 183.824 474.158 185.568V185.6C474.158 187.296 475.71 188.176 477.246 188.176ZM477.486 187.2C476.366 187.2 475.406 186.592 475.406 185.552V185.52C475.406 184.48 476.27 183.808 477.822 183.808C478.83 183.808 479.646 183.984 480.254 184.16V184.96C480.254 186.272 479.006 187.2 477.486 187.2ZM486.784 188.16C488.432 188.16 489.728 187.248 489.728 185.68V185.648C489.728 184.16 488.352 183.664 487.072 183.28C485.968 182.944 484.944 182.64 484.944 181.856V181.824C484.944 181.136 485.568 180.624 486.544 180.624C487.344 180.624 488.224 180.928 488.992 181.424L489.552 180.496C488.704 179.936 487.584 179.584 486.576 179.584C484.944 179.584 483.76 180.528 483.76 181.952V181.984C483.76 183.504 485.2 183.952 486.496 184.32C487.584 184.624 488.56 184.944 488.56 185.776V185.808C488.56 186.608 487.84 187.12 486.848 187.12C485.872 187.12 484.88 186.736 483.984 186.064L483.36 186.944C484.288 187.696 485.6 188.16 486.784 188.16ZM225.776 207.176C227.776 207.176 229.728 205.576 229.728 202.872V202.84C229.728 200.12 227.76 198.552 225.776 198.552C224.256 198.552 223.28 199.4 222.608 200.392V195.32H221.376V207H222.608V205.416C223.248 206.344 224.24 207.176 225.776 207.176ZM225.552 206.072C224.016 206.072 222.56 204.792 222.56 202.872V202.84C222.56 200.952 224.016 199.656 225.552 199.656C227.12 199.656 228.464 200.904 228.464 202.856V202.888C228.464 204.888 227.152 206.072 225.552 206.072ZM235.617 207.192C237.185 207.192 238.193 206.568 239.025 205.64L238.257 204.952C237.585 205.656 236.785 206.12 235.649 206.12C234.177 206.12 232.913 205.112 232.737 203.32H239.297C239.313 203.176 239.313 203.08 239.313 202.92C239.313 200.504 237.905 198.552 235.457 198.552C233.169 198.552 231.489 200.472 231.489 202.856V202.888C231.489 205.448 233.345 207.192 235.617 207.192ZM232.737 202.408C232.897 200.792 233.985 199.592 235.425 199.592C237.073 199.592 237.937 200.904 238.065 202.408H232.737ZM245.086 207.192C246.654 207.192 247.662 206.568 248.494 205.64L247.726 204.952C247.054 205.656 246.254 206.12 245.118 206.12C243.646 206.12 242.382 205.112 242.206 203.32H248.766C248.782 203.176 248.782 203.08 248.782 202.92C248.782 200.504 247.374 198.552 244.926 198.552C242.638 198.552 240.958 200.472 240.958 202.856V202.888C240.958 205.448 242.814 207.192 245.086 207.192ZM242.206 202.408C242.366 200.792 243.454 199.592 244.894 199.592C246.542 199.592 247.406 200.904 247.534 202.408H242.206ZM250.939 207H252.171V202.264C252.171 200.712 253.227 199.672 254.651 199.672C256.107 199.672 256.939 200.632 256.939 202.168V207H258.171V201.864C258.171 199.896 257.003 198.552 255.003 198.552C253.579 198.552 252.715 199.272 252.171 200.168V198.728H250.939V207ZM265.595 207H266.827V203.704C266.827 201.208 268.299 199.912 270.107 199.912H270.203V198.584C268.635 198.52 267.435 199.512 266.827 200.888V198.728H265.595V207ZM275.336 207.192C276.904 207.192 277.912 206.568 278.744 205.64L277.976 204.952C277.304 205.656 276.504 206.12 275.368 206.12C273.896 206.12 272.632 205.112 272.456 203.32H279.016C279.032 203.176 279.032 203.08 279.032 202.92C279.032 200.504 277.624 198.552 275.176 198.552C272.888 198.552 271.208 200.472 271.208 202.856V202.888C271.208 205.448 273.064 207.192 275.336 207.192ZM272.456 202.408C272.616 200.792 273.704 199.592 275.144 199.592C276.792 199.592 277.656 200.904 277.784 202.408H272.456ZM281.189 207H282.421V202.28C282.421 200.76 283.413 199.672 284.725 199.672C286.037 199.672 286.853 200.584 286.853 202.136V207H288.085V202.232C288.085 200.6 289.109 199.672 290.357 199.672C291.701 199.672 292.501 200.568 292.501 202.168V207H293.733V201.88C293.733 199.832 292.565 198.552 290.661 198.552C289.22 198.552 288.341 199.288 287.749 200.2C287.301 199.272 286.437 198.552 285.093 198.552C283.701 198.552 282.965 199.304 282.421 200.12V198.728H281.189V207ZM300.183 207.192C302.679 207.192 304.519 205.208 304.519 202.872V202.84C304.519 200.504 302.695 198.552 300.215 198.552C297.719 198.552 295.895 200.536 295.895 202.872V202.904C295.895 205.24 297.703 207.192 300.183 207.192ZM300.215 206.088C298.471 206.088 297.159 204.648 297.159 202.872V202.84C297.159 201.096 298.391 199.64 300.183 199.64C301.927 199.64 303.255 201.096 303.255 202.872V202.904C303.255 204.648 302.007 206.088 300.215 206.088ZM309.035 207.064H310.123L313.723 198.728H312.395L309.595 205.592L306.811 198.728H305.451L309.035 207.064ZM318.789 207.192C320.357 207.192 321.365 206.568 322.197 205.64L321.429 204.952C320.757 205.656 319.957 206.12 318.821 206.12C317.349 206.12 316.085 205.112 315.909 203.32H322.469C322.485 203.176 322.485 203.08 322.485 202.92C322.485 200.504 321.077 198.552 318.629 198.552C316.341 198.552 314.661 200.472 314.661 202.856V202.888C314.661 205.448 316.517 207.192 318.789 207.192ZM315.909 202.408C316.069 200.792 317.157 199.592 318.597 199.592C320.245 199.592 321.109 200.904 321.237 202.408H315.909ZM328.114 207.176C329.634 207.176 330.61 206.328 331.282 205.336V207H332.514V195.32H331.282V200.312C330.642 199.384 329.65 198.552 328.114 198.552C326.13 198.552 324.162 200.152 324.162 202.856V202.888C324.162 205.608 326.13 207.176 328.114 207.176ZM328.338 206.072C326.786 206.072 325.426 204.824 325.426 202.872V202.84C325.426 200.84 326.738 199.656 328.338 199.656C329.874 199.656 331.33 200.936 331.33 202.84V202.872C331.33 204.776 329.874 206.072 328.338 206.072ZM335.123 207H336.595V205.32H335.123V207ZM343.233 207H344.529L345.857 204.04H351.953L353.265 207H354.625L349.521 195.72H348.337L343.233 207ZM346.353 202.888L348.913 197.192L351.457 202.888H346.353ZM359.362 207.16C361.01 207.16 362.306 206.248 362.306 204.68V204.648C362.306 203.16 360.93 202.664 359.65 202.28C358.546 201.944 357.522 201.64 357.522 200.856V200.824C357.522 200.136 358.146 199.624 359.122 199.624C359.922 199.624 360.802 199.928 361.57 200.424L362.13 199.496C361.282 198.936 360.162 198.584 359.154 198.584C357.522 198.584 356.338 199.528 356.338 200.952V200.984C356.338 202.504 357.778 202.952 359.074 203.32C360.162 203.624 361.138 203.944 361.138 204.776V204.808C361.138 205.608 360.418 206.12 359.426 206.12C358.45 206.12 357.458 205.736 356.562 205.064L355.938 205.944C356.866 206.696 358.178 207.16 359.362 207.16ZM369.392 207H370.624V202.28C370.624 200.76 371.616 199.672 372.928 199.672C374.24 199.672 375.056 200.584 375.056 202.136V207H376.288V202.232C376.288 200.6 377.312 199.672 378.56 199.672C379.904 199.672 380.704 200.568 380.704 202.168V207H381.936V201.88C381.936 199.832 380.768 198.552 378.864 198.552C377.424 198.552 376.544 199.288 375.952 200.2C375.504 199.272 374.64 198.552 373.296 198.552C371.904 198.552 371.168 199.304 370.624 200.12V198.728H369.392V207ZM387.65 207.176C389.074 207.176 389.922 206.456 390.482 205.56V207H391.698V198.728H390.482V203.464C390.482 205.016 389.41 206.056 388.002 206.056C386.546 206.056 385.714 205.096 385.714 203.56V198.728H384.482V203.864C384.482 205.832 385.65 207.176 387.65 207.176ZM397.206 207.16C398.854 207.16 400.15 206.248 400.15 204.68V204.648C400.15 203.16 398.774 202.664 397.494 202.28C396.39 201.944 395.366 201.64 395.366 200.856V200.824C395.366 200.136 395.99 199.624 396.966 199.624C397.766 199.624 398.646 199.928 399.414 200.424L399.974 199.496C399.126 198.936 398.006 198.584 396.998 198.584C395.366 198.584 394.182 199.528 394.182 200.952V200.984C394.182 202.504 395.622 202.952 396.918 203.32C398.006 203.624 398.982 203.944 398.982 204.776V204.808C398.982 205.608 398.262 206.12 397.27 206.12C396.294 206.12 395.302 205.736 394.406 205.064L393.782 205.944C394.71 206.696 396.022 207.16 397.206 207.16ZM406.167 207.192C407.719 207.192 408.711 206.52 409.543 205.592L408.759 204.856C408.103 205.56 407.287 206.088 406.231 206.088C404.503 206.088 403.191 204.664 403.191 202.872V202.84C403.191 201.064 404.471 199.64 406.151 199.64C407.271 199.64 408.007 200.2 408.663 200.888L409.479 200.024C408.711 199.208 407.735 198.552 406.167 198.552C403.751 198.552 401.927 200.536 401.927 202.872V202.904C401.927 205.224 403.751 207.192 406.167 207.192ZM411.691 207H412.923V195.32H411.691V207ZM419.398 207.192C420.966 207.192 421.974 206.568 422.806 205.64L422.038 204.952C421.366 205.656 420.566 206.12 419.43 206.12C417.958 206.12 416.694 205.112 416.518 203.32H423.078C423.094 203.176 423.094 203.08 423.094 202.92C423.094 200.504 421.686 198.552 419.238 198.552C416.95 198.552 415.27 200.472 415.27 202.856V202.888C415.27 205.448 417.126 207.192 419.398 207.192ZM416.518 202.408C416.678 200.792 417.766 199.592 419.206 199.592C420.854 199.592 421.718 200.904 421.846 202.408H416.518ZM427.987 207.16C429.635 207.16 430.931 206.248 430.931 204.68V204.648C430.931 203.16 429.555 202.664 428.275 202.28C427.171 201.944 426.147 201.64 426.147 200.856V200.824C426.147 200.136 426.771 199.624 427.747 199.624C428.547 199.624 429.427 199.928 430.195 200.424L430.755 199.496C429.907 198.936 428.787 198.584 427.779 198.584C426.147 198.584 424.963 199.528 424.963 200.952V200.984C424.963 202.504 426.403 202.952 427.699 203.32C428.787 203.624 429.763 203.944 429.763 204.776V204.808C429.763 205.608 429.043 206.12 428.051 206.12C427.075 206.12 426.083 205.736 425.187 205.064L424.563 205.944C425.491 206.696 426.803 207.16 427.987 207.16ZM438.017 207H439.249V203.704C439.249 201.208 440.721 199.912 442.529 199.912H442.625V198.584C441.057 198.52 439.857 199.512 439.249 200.888V198.728H438.017V207ZM447.758 207.192C449.326 207.192 450.334 206.568 451.166 205.64L450.398 204.952C449.726 205.656 448.926 206.12 447.79 206.12C446.318 206.12 445.054 205.112 444.878 203.32H451.438C451.454 203.176 451.454 203.08 451.454 202.92C451.454 200.504 450.046 198.552 447.598 198.552C445.31 198.552 443.63 200.472 443.63 202.856V202.888C443.63 205.448 445.486 207.192 447.758 207.192ZM444.878 202.408C445.038 200.792 446.126 199.592 447.566 199.592C449.214 199.592 450.078 200.904 450.206 202.408H444.878ZM453.722 207H454.954V195.32H453.722V207ZM460.278 207.176C461.734 207.176 462.694 206.504 463.27 205.752V207H464.454V201.944C464.454 200.888 464.166 200.088 463.606 199.528C462.998 198.92 462.102 198.616 460.934 198.616C459.734 198.616 458.838 198.888 457.926 199.304L458.294 200.312C459.062 199.96 459.83 199.704 460.806 199.704C462.358 199.704 463.27 200.472 463.27 201.96V202.248C462.534 202.04 461.782 201.896 460.726 201.896C458.63 201.896 457.19 202.824 457.19 204.568V204.6C457.19 206.296 458.742 207.176 460.278 207.176ZM460.518 206.2C459.398 206.2 458.438 205.592 458.438 204.552V204.52C458.438 203.48 459.302 202.808 460.854 202.808C461.862 202.808 462.678 202.984 463.286 203.16V203.96C463.286 205.272 462.038 206.2 460.518 206.2ZM467.863 198.728H466.455L469.559 202.792L466.327 207H467.703L470.279 203.592L472.839 207H474.263L470.999 202.776L474.135 198.728H472.759L470.295 201.96L467.863 198.728ZM475.819 208.952C477.035 208.68 477.595 208.056 477.595 206.76V205.32H476.123V207H476.699C476.763 207.688 476.427 208.104 475.627 208.392L475.819 208.952ZM221.376 226H222.608V221.28C222.608 219.76 223.6 218.672 224.912 218.672C226.224 218.672 227.04 219.584 227.04 221.136V226H228.272V221.232C228.272 219.6 229.296 218.672 230.544 218.672C231.888 218.672 232.688 219.568 232.688 221.168V226H233.92V220.88C233.92 218.832 232.752 217.552 230.848 217.552C229.408 217.552 228.528 218.288 227.936 219.2C227.488 218.272 226.624 217.552 225.28 217.552C223.888 217.552 223.152 218.304 222.608 219.12V217.728H221.376V226ZM240.371 226.192C242.867 226.192 244.707 224.208 244.707 221.872V221.84C244.707 219.504 242.883 217.552 240.403 217.552C237.907 217.552 236.083 219.536 236.083 221.872V221.904C236.083 224.24 237.891 226.192 240.371 226.192ZM240.403 225.088C238.659 225.088 237.347 223.648 237.347 221.872V221.84C237.347 220.096 238.579 218.64 240.371 218.64C242.115 218.64 243.443 220.096 243.443 221.872V221.904C243.443 223.648 242.195 225.088 240.403 225.088ZM246.939 226H248.171V222.704C248.171 220.208 249.643 218.912 251.451 218.912H251.547V217.584C249.979 217.52 248.779 218.512 248.171 219.888V217.728H246.939V226ZM256.68 226.192C258.248 226.192 259.256 225.568 260.088 224.64L259.32 223.952C258.648 224.656 257.848 225.12 256.712 225.12C255.24 225.12 253.976 224.112 253.799 222.32H260.36C260.376 222.176 260.376 222.08 260.376 221.92C260.376 219.504 258.968 217.552 256.52 217.552C254.232 217.552 252.552 219.472 252.552 221.856V221.888C252.552 224.448 254.408 226.192 256.68 226.192ZM253.799 221.408C253.96 219.792 255.048 218.592 256.488 218.592C258.136 218.592 259 219.904 259.128 221.408H253.799ZM271.105 226.192C273.601 226.192 275.441 224.208 275.441 221.872V221.84C275.441 219.504 273.617 217.552 271.137 217.552C268.641 217.552 266.817 219.536 266.817 221.872V221.904C266.817 224.24 268.625 226.192 271.105 226.192ZM271.137 225.088C269.393 225.088 268.081 223.648 268.081 221.872V221.84C268.081 220.096 269.313 218.64 271.105 218.64C272.849 218.64 274.177 220.096 274.177 221.872V221.904C274.177 223.648 272.929 225.088 271.137 225.088ZM277.894 217.728H276.486L279.59 221.792L276.358 226H277.734L280.31 222.592L282.87 226H284.294L281.03 221.776L284.166 217.728H282.79L280.326 220.96L277.894 217.728ZM289.678 224.624L286.67 217.728H285.31L289.07 225.968C288.574 227.136 288.11 227.52 287.374 227.52C286.846 227.52 286.478 227.424 286.078 227.216L285.662 228.192C286.222 228.464 286.734 228.608 287.422 228.608C288.67 228.608 289.47 227.984 290.174 226.272L293.646 217.728H292.334L289.678 224.624ZM298.853 228.592C300.165 228.592 301.269 228.224 302.005 227.488C302.677 226.816 303.061 225.84 303.061 224.56V217.728H301.829V219.216C301.157 218.32 300.149 217.552 298.597 217.552C296.629 217.552 294.709 219.04 294.709 221.456V221.488C294.709 223.872 296.613 225.36 298.597 225.36C300.117 225.36 301.125 224.576 301.845 223.616V224.592C301.845 226.528 300.661 227.536 298.837 227.536C297.653 227.536 296.597 227.168 295.653 226.48L295.093 227.44C296.197 228.208 297.477 228.592 298.853 228.592ZM298.837 224.272C297.301 224.272 295.973 223.12 295.973 221.456V221.424C295.973 219.728 297.269 218.64 298.837 218.64C300.405 218.64 301.877 219.744 301.877 221.44V221.472C301.877 223.136 300.405 224.272 298.837 224.272ZM309.43 226.192C310.998 226.192 312.006 225.568 312.838 224.64L312.07 223.952C311.398 224.656 310.598 225.12 309.462 225.12C307.99 225.12 306.726 224.112 306.549 222.32H313.11C313.126 222.176 313.126 222.08 313.126 221.92C313.126 219.504 311.718 217.552 309.27 217.552C306.982 217.552 305.302 219.472 305.302 221.856V221.888C305.302 224.448 307.158 226.192 309.43 226.192ZM306.549 221.408C306.71 219.792 307.798 218.592 309.238 218.592C310.886 218.592 311.75 219.904 311.878 221.408H306.549ZM315.282 226H316.514V221.264C316.514 219.712 317.57 218.672 318.994 218.672C320.45 218.672 321.282 219.632 321.282 221.168V226H322.514V220.864C322.514 218.896 321.346 217.552 319.346 217.552C317.922 217.552 317.058 218.272 316.514 219.168V217.728H315.282V226ZM329.971 215.92H331.379V214.56H329.971V215.92ZM330.051 226H331.283V217.728H330.051V226ZM336.878 226.16C338.526 226.16 339.822 225.248 339.822 223.68V223.648C339.822 222.16 338.446 221.664 337.166 221.28C336.062 220.944 335.038 220.64 335.038 219.856V219.824C335.038 219.136 335.662 218.624 336.638 218.624C337.438 218.624 338.318 218.928 339.086 219.424L339.646 218.496C338.798 217.936 337.678 217.584 336.67 217.584C335.038 217.584 333.854 218.528 333.854 219.952V219.984C333.854 221.504 335.294 221.952 336.59 222.32C337.678 222.624 338.654 222.944 338.654 223.776V223.808C338.654 224.608 337.934 225.12 336.942 225.12C335.966 225.12 334.974 224.736 334.078 224.064L333.454 224.944C334.382 225.696 335.694 226.16 336.878 226.16ZM346.907 228.56H348.139V224.416C348.779 225.344 349.771 226.176 351.307 226.176C353.307 226.176 355.259 224.576 355.259 221.872V221.84C355.259 219.12 353.291 217.552 351.307 217.552C349.787 217.552 348.811 218.4 348.139 219.392V217.728H346.907V228.56ZM351.083 225.072C349.547 225.072 348.091 223.792 348.091 221.872V221.84C348.091 219.952 349.547 218.656 351.083 218.656C352.651 218.656 353.995 219.904 353.995 221.856V221.888C353.995 223.888 352.683 225.072 351.083 225.072ZM357.532 226H358.764V222.704C358.764 220.208 360.236 218.912 362.044 218.912H362.14V217.584C360.572 217.52 359.372 218.512 358.764 219.888V217.728H357.532V226ZM367.433 226.192C369.929 226.192 371.769 224.208 371.769 221.872V221.84C371.769 219.504 369.945 217.552 367.465 217.552C364.969 217.552 363.145 219.536 363.145 221.872V221.904C363.145 224.24 364.953 226.192 367.433 226.192ZM367.465 225.088C365.721 225.088 364.409 223.648 364.409 221.872V221.84C364.409 220.096 365.641 218.64 367.433 218.64C369.177 218.64 370.505 220.096 370.505 221.872V221.904C370.505 223.648 369.257 225.088 367.465 225.088ZM376.285 226.064H377.373L380.973 217.728H379.645L376.845 224.592L374.061 217.728H372.701L376.285 226.064ZM382.939 215.92H384.347V214.56H382.939V215.92ZM383.019 226H384.251V217.728H383.019V226ZM390.582 226.176C392.102 226.176 393.078 225.328 393.75 224.336V226H394.982V214.32H393.75V219.312C393.11 218.384 392.118 217.552 390.582 217.552C388.598 217.552 386.63 219.152 386.63 221.856V221.888C386.63 224.608 388.598 226.176 390.582 226.176ZM390.806 225.072C389.254 225.072 387.894 223.824 387.894 221.872V221.84C387.894 219.84 389.206 218.656 390.806 218.656C392.342 218.656 393.798 219.936 393.798 221.84V221.872C393.798 223.776 392.342 225.072 390.806 225.072ZM401.351 226.192C402.919 226.192 403.927 225.568 404.759 224.64L403.991 223.952C403.319 224.656 402.519 225.12 401.383 225.12C399.911 225.12 398.647 224.112 398.471 222.32H405.031C405.047 222.176 405.047 222.08 405.047 221.92C405.047 219.504 403.639 217.552 401.191 217.552C398.903 217.552 397.223 219.472 397.223 221.856V221.888C397.223 224.448 399.079 226.192 401.351 226.192ZM398.471 221.408C398.631 219.792 399.719 218.592 401.159 218.592C402.807 218.592 403.671 219.904 403.799 221.408H398.471ZM410.676 226.176C412.196 226.176 413.172 225.328 413.844 224.336V226H415.076V214.32H413.844V219.312C413.204 218.384 412.212 217.552 410.676 217.552C408.692 217.552 406.724 219.152 406.724 221.856V221.888C406.724 224.608 408.692 226.176 410.676 226.176ZM410.9 225.072C409.348 225.072 407.988 223.824 407.988 221.872V221.84C407.988 219.84 409.3 218.656 410.9 218.656C412.436 218.656 413.892 219.936 413.892 221.84V221.872C413.892 223.776 412.436 225.072 410.9 225.072ZM425.394 226.144C425.986 226.144 426.45 226.016 426.882 225.792V224.736C426.45 224.944 426.098 225.024 425.682 225.024C424.85 225.024 424.29 224.656 424.29 223.648V218.816H426.914V217.728H424.29V215.232H423.058V217.728H421.906V218.816H423.058V223.808C423.058 225.488 424.066 226.144 425.394 226.144ZM432.636 226.192C435.132 226.192 436.972 224.208 436.972 221.872V221.84C436.972 219.504 435.148 217.552 432.668 217.552C430.172 217.552 428.348 219.536 428.348 221.872V221.904C428.348 224.24 430.156 226.192 432.636 226.192ZM432.668 225.088C430.924 225.088 429.612 223.648 429.612 221.872V221.84C429.612 220.096 430.844 218.64 432.636 218.64C434.38 218.64 435.708 220.096 435.708 221.872V221.904C435.708 223.648 434.46 225.088 432.668 225.088ZM446.769 226.144C447.361 226.144 447.825 226.016 448.257 225.792V224.736C447.825 224.944 447.473 225.024 447.057 225.024C446.225 225.024 445.665 224.656 445.665 223.648V218.816H448.289V217.728H445.665V215.232H444.433V217.728H443.281V218.816H444.433V223.808C444.433 225.488 445.441 226.144 446.769 226.144ZM450.47 226H451.702V221.264C451.702 219.712 452.758 218.672 454.182 218.672C455.638 218.672 456.47 219.632 456.47 221.168V226H457.702V220.864C457.702 218.896 456.534 217.552 454.534 217.552C453.11 217.552 452.246 218.272 451.702 219.168V214.32H450.47V226ZM463.945 226.192C465.513 226.192 466.521 225.568 467.353 224.64L466.585 223.952C465.913 224.656 465.113 225.12 463.977 225.12C462.505 225.12 461.241 224.112 461.065 222.32H467.625C467.641 222.176 467.641 222.08 467.641 221.92C467.641 219.504 466.233 217.552 463.785 217.552C461.497 217.552 459.817 219.472 459.817 221.856V221.888C459.817 224.448 461.673 226.192 463.945 226.192ZM461.065 221.408C461.225 219.792 462.313 218.592 463.753 218.592C465.401 218.592 466.265 219.904 466.393 221.408H461.065ZM224.848 245.176C226.368 245.176 227.344 244.328 228.016 243.336V245H229.248V233.32H228.016V238.312C227.376 237.384 226.384 236.552 224.848 236.552C222.864 236.552 220.896 238.152 220.896 240.856V240.888C220.896 243.608 222.864 245.176 224.848 245.176ZM225.072 244.072C223.52 244.072 222.16 242.824 222.16 240.872V240.84C222.16 238.84 223.472 237.656 225.072 237.656C226.608 237.656 228.064 238.936 228.064 240.84V240.872C228.064 242.776 226.608 244.072 225.072 244.072ZM234.465 245.176C235.921 245.176 236.881 244.504 237.457 243.752V245H238.641V239.944C238.641 238.888 238.353 238.088 237.793 237.528C237.185 236.92 236.289 236.616 235.121 236.616C233.921 236.616 233.025 236.888 232.113 237.304L232.481 238.312C233.249 237.96 234.017 237.704 234.993 237.704C236.545 237.704 237.457 238.472 237.457 239.96V240.248C236.721 240.04 235.969 239.896 234.913 239.896C232.817 239.896 231.377 240.824 231.377 242.568V242.6C231.377 244.296 232.929 245.176 234.465 245.176ZM234.705 244.2C233.585 244.2 232.625 243.592 232.625 242.552V242.52C232.625 241.48 233.489 240.808 235.041 240.808C236.049 240.808 236.865 240.984 237.473 241.16V241.96C237.473 243.272 236.225 244.2 234.705 244.2ZM241.267 245H242.499V240.28C242.499 238.76 243.491 237.672 244.803 237.672C246.115 237.672 246.931 238.584 246.931 240.136V245H248.163V240.232C248.163 238.6 249.187 237.672 250.435 237.672C251.779 237.672 252.579 238.568 252.579 240.168V245H253.811V239.88C253.811 237.832 252.643 236.552 250.739 236.552C249.299 236.552 248.419 237.288 247.827 238.2C247.379 237.272 246.515 236.552 245.171 236.552C243.779 236.552 243.043 237.304 242.499 238.12V236.728H241.267V245ZM258.949 245.176C260.405 245.176 261.365 244.504 261.941 243.752V245H263.125V239.944C263.125 238.888 262.837 238.088 262.277 237.528C261.669 236.92 260.773 236.616 259.605 236.616C258.405 236.616 257.509 236.888 256.597 237.304L256.965 238.312C257.733 237.96 258.501 237.704 259.477 237.704C261.029 237.704 261.941 238.472 261.941 239.96V240.248C261.205 240.04 260.453 239.896 259.397 239.896C257.301 239.896 255.861 240.824 255.861 242.568V242.6C255.861 244.296 257.413 245.176 258.949 245.176ZM259.189 244.2C258.069 244.2 257.109 243.592 257.109 242.552V242.52C257.109 241.48 257.973 240.808 259.525 240.808C260.533 240.808 261.349 240.984 261.957 241.16V241.96C261.957 243.272 260.709 244.2 259.189 244.2ZM269.415 247.592C270.727 247.592 271.831 247.224 272.567 246.488C273.239 245.816 273.623 244.84 273.623 243.56V236.728H272.391V238.216C271.719 237.32 270.711 236.552 269.159 236.552C267.191 236.552 265.271 238.04 265.271 240.456V240.488C265.271 242.872 267.175 244.36 269.159 244.36C270.679 244.36 271.687 243.576 272.407 242.616V243.592C272.407 245.528 271.223 246.536 269.399 246.536C268.215 246.536 267.159 246.168 266.215 245.48L265.655 246.44C266.759 247.208 268.039 247.592 269.415 247.592ZM269.399 243.272C267.863 243.272 266.535 242.12 266.535 240.456V240.424C266.535 238.728 267.831 237.64 269.399 237.64C270.967 237.64 272.439 238.744 272.439 240.44V240.472C272.439 242.136 270.967 243.272 269.399 243.272ZM279.992 245.192C281.56 245.192 282.568 244.568 283.4 243.64L282.632 242.952C281.96 243.656 281.16 244.12 280.024 244.12C278.552 244.12 277.288 243.112 277.112 241.32H283.672C283.688 241.176 283.688 241.08 283.688 240.92C283.688 238.504 282.28 236.552 279.832 236.552C277.544 236.552 275.864 238.472 275.864 240.856V240.888C275.864 243.448 277.72 245.192 279.992 245.192ZM277.112 240.408C277.272 238.792 278.36 237.592 279.8 237.592C281.448 237.592 282.312 238.904 282.44 240.408H277.112ZM289.317 245.176C290.837 245.176 291.813 244.328 292.485 243.336V245H293.717V233.32H292.485V238.312C291.845 237.384 290.853 236.552 289.317 236.552C287.333 236.552 285.365 238.152 285.365 240.856V240.888C285.365 243.608 287.333 245.176 289.317 245.176ZM289.541 244.072C287.989 244.072 286.629 242.824 286.629 240.872V240.84C286.629 238.84 287.941 237.656 289.541 237.656C291.077 237.656 292.533 238.936 292.533 240.84V240.872C292.533 242.776 291.077 244.072 289.541 244.072ZM304.035 245.144C304.627 245.144 305.091 245.016 305.523 244.792V243.736C305.091 243.944 304.739 244.024 304.323 244.024C303.491 244.024 302.931 243.656 302.931 242.648V237.816H305.555V236.728H302.931V234.232H301.699V236.728H300.547V237.816H301.699V242.808C301.699 244.488 302.707 245.144 304.035 245.144ZM307.767 234.92H309.175V233.56H307.767V234.92ZM307.847 245H309.079V236.728H307.847V245ZM314.674 245.16C316.323 245.16 317.619 244.248 317.619 242.68V242.648C317.619 241.16 316.243 240.664 314.963 240.28C313.859 239.944 312.835 239.64 312.835 238.856V238.824C312.835 238.136 313.459 237.624 314.435 237.624C315.235 237.624 316.115 237.928 316.883 238.424L317.443 237.496C316.595 236.936 315.475 236.584 314.467 236.584C312.835 236.584 311.651 237.528 311.651 238.952V238.984C311.651 240.504 313.091 240.952 314.387 241.32C315.475 241.624 316.451 241.944 316.451 242.776V242.808C316.451 243.608 315.731 244.12 314.739 244.12C313.763 244.12 312.771 243.736 311.875 243.064L311.251 243.944C312.179 244.696 313.491 245.16 314.674 245.16ZM322.487 245.16C324.135 245.16 325.431 244.248 325.431 242.68V242.648C325.431 241.16 324.055 240.664 322.775 240.28C321.671 239.944 320.647 239.64 320.647 238.856V238.824C320.647 238.136 321.271 237.624 322.247 237.624C323.047 237.624 323.927 237.928 324.695 238.424L325.255 237.496C324.407 236.936 323.287 236.584 322.279 236.584C320.647 236.584 319.463 237.528 319.463 238.952V238.984C319.463 240.504 320.903 240.952 322.199 241.32C323.287 241.624 324.263 241.944 324.263 242.776V242.808C324.263 243.608 323.543 244.12 322.551 244.12C321.575 244.12 320.583 243.736 319.687 243.064L319.063 243.944C319.991 244.696 321.303 245.16 322.487 245.16ZM330.76 245.176C332.184 245.176 333.032 244.456 333.592 243.56V245H334.808V236.728H333.592V241.464C333.592 243.016 332.52 244.056 331.112 244.056C329.656 244.056 328.824 243.096 328.824 241.56V236.728H327.592V241.864C327.592 243.832 328.76 245.176 330.76 245.176ZM341.195 245.192C342.763 245.192 343.771 244.568 344.603 243.64L343.835 242.952C343.163 243.656 342.363 244.12 341.227 244.12C339.755 244.12 338.491 243.112 338.315 241.32H344.875C344.891 241.176 344.891 241.08 344.891 240.92C344.891 238.504 343.483 236.552 341.035 236.552C338.747 236.552 337.067 238.472 337.067 240.856V240.888C337.067 243.448 338.923 245.192 341.195 245.192ZM338.315 240.408C338.475 238.792 339.563 237.592 341.003 237.592C342.651 237.592 343.515 238.904 343.643 240.408H338.315ZM349.784 245.16C351.432 245.16 352.728 244.248 352.728 242.68V242.648C352.728 241.16 351.352 240.664 350.072 240.28C348.968 239.944 347.944 239.64 347.944 238.856V238.824C347.944 238.136 348.568 237.624 349.544 237.624C350.344 237.624 351.224 237.928 351.992 238.424L352.552 237.496C351.704 236.936 350.584 236.584 349.576 236.584C347.944 236.584 346.76 237.528 346.76 238.952V238.984C346.76 240.504 348.2 240.952 349.496 241.32C350.584 241.624 351.56 241.944 351.56 242.776V242.808C351.56 243.608 350.84 244.12 349.848 244.12C348.872 244.12 347.88 243.736 346.984 243.064L346.36 243.944C347.288 244.696 348.6 245.16 349.784 245.16ZM354.569 246.952C355.785 246.68 356.345 246.056 356.345 244.76V243.32H354.873V245H355.449C355.513 245.688 355.177 246.104 354.377 246.392L354.569 246.952ZM363.735 245H364.967V240.264C364.967 238.712 366.023 237.672 367.447 237.672C368.903 237.672 369.735 238.632 369.735 240.168V245H370.967V239.864C370.967 237.896 369.799 236.552 367.799 236.552C366.375 236.552 365.511 237.272 364.967 238.168V233.32H363.735V245ZM377.211 245.192C378.779 245.192 379.787 244.568 380.619 243.64L379.851 242.952C379.179 243.656 378.379 244.12 377.243 244.12C375.771 244.12 374.507 243.112 374.331 241.32H380.891C380.907 241.176 380.907 241.08 380.907 240.92C380.907 238.504 379.499 236.552 377.051 236.552C374.763 236.552 373.083 238.472 373.083 240.856V240.888C373.083 243.448 374.939 245.192 377.211 245.192ZM374.331 240.408C374.491 238.792 375.579 237.592 377.019 237.592C378.667 237.592 379.531 238.904 379.659 240.408H374.331ZM383.176 245H384.408V233.32H383.176V245ZM387.267 247.56H388.499V243.416C389.139 244.344 390.131 245.176 391.667 245.176C393.667 245.176 395.619 243.576 395.619 240.872V240.84C395.619 238.12 393.651 236.552 391.667 236.552C390.147 236.552 389.171 237.4 388.499 238.392V236.728H387.267V247.56ZM391.443 244.072C389.907 244.072 388.451 242.792 388.451 240.872V240.84C388.451 238.952 389.907 237.656 391.443 237.656C393.011 237.656 394.355 238.904 394.355 240.856V240.888C394.355 242.888 393.043 244.072 391.443 244.072ZM397.924 234.92H399.332V233.56H397.924V234.92ZM398.004 245H399.236V236.728H398.004V245ZM402.095 245H403.327V240.264C403.327 238.712 404.383 237.672 405.807 237.672C407.263 237.672 408.095 238.632 408.095 240.168V245H409.327V239.864C409.327 237.896 408.159 236.552 406.159 236.552C404.735 236.552 403.871 237.272 403.327 238.168V236.728H402.095V245ZM415.618 247.592C416.93 247.592 418.034 247.224 418.77 246.488C419.442 245.816 419.826 244.84 419.826 243.56V236.728H418.594V238.216C417.922 237.32 416.914 236.552 415.362 236.552C413.394 236.552 411.474 238.04 411.474 240.456V240.488C411.474 242.872 413.378 244.36 415.362 244.36C416.882 244.36 417.89 243.576 418.61 242.616V243.592C418.61 245.528 417.426 246.536 415.602 246.536C414.418 246.536 413.362 246.168 412.418 245.48L411.858 246.44C412.962 247.208 414.242 247.592 415.618 247.592ZM415.602 243.272C414.066 243.272 412.738 242.12 412.738 240.456V240.424C412.738 238.728 414.034 237.64 415.602 237.64C417.17 237.64 418.642 238.744 418.642 240.44V240.472C418.642 242.136 417.17 243.272 415.602 243.272ZM430.144 245.144C430.736 245.144 431.2 245.016 431.632 244.792V243.736C431.2 243.944 430.848 244.024 430.432 244.024C429.6 244.024 429.04 243.656 429.04 242.648V237.816H431.664V236.728H429.04V234.232H427.808V236.728H426.656V237.816H427.808V242.808C427.808 244.488 428.816 245.144 430.144 245.144ZM437.386 245.192C439.882 245.192 441.722 243.208 441.722 240.872V240.84C441.722 238.504 439.898 236.552 437.418 236.552C434.922 236.552 433.098 238.536 433.098 240.872V240.904C433.098 243.24 434.906 245.192 437.386 245.192ZM437.418 244.088C435.674 244.088 434.362 242.648 434.362 240.872V240.84C434.362 239.096 435.594 237.64 437.386 237.64C439.13 237.64 440.458 239.096 440.458 240.872V240.904C440.458 242.648 439.21 244.088 437.418 244.088ZM221.376 264H222.608V260.704C222.608 258.208 224.08 256.912 225.888 256.912H225.984V255.584C224.416 255.52 223.216 256.512 222.608 257.888V255.728H221.376V264ZM231.117 264.192C232.685 264.192 233.693 263.568 234.525 262.64L233.757 261.952C233.085 262.656 232.285 263.12 231.149 263.12C229.677 263.12 228.413 262.112 228.237 260.32H234.797C234.813 260.176 234.813 260.08 234.813 259.92C234.813 257.504 233.405 255.552 230.957 255.552C228.669 255.552 226.989 257.472 226.989 259.856V259.888C226.989 262.448 228.845 264.192 231.117 264.192ZM228.237 259.408C228.397 257.792 229.485 256.592 230.925 256.592C232.573 256.592 233.437 257.904 233.565 259.408H228.237ZM239.706 264.16C241.354 264.16 242.65 263.248 242.65 261.68V261.648C242.65 260.16 241.274 259.664 239.994 259.28C238.89 258.944 237.866 258.64 237.866 257.856V257.824C237.866 257.136 238.49 256.624 239.466 256.624C240.266 256.624 241.146 256.928 241.914 257.424L242.474 256.496C241.626 255.936 240.506 255.584 239.498 255.584C237.866 255.584 236.682 256.528 236.682 257.952V257.984C236.682 259.504 238.122 259.952 239.418 260.32C240.506 260.624 241.482 260.944 241.482 261.776V261.808C241.482 262.608 240.762 263.12 239.77 263.12C238.794 263.12 237.802 262.736 236.906 262.064L236.282 262.944C237.21 263.696 238.522 264.16 239.706 264.16ZM247.55 264.144C248.142 264.144 248.606 264.016 249.038 263.792V262.736C248.606 262.944 248.254 263.024 247.838 263.024C247.006 263.024 246.446 262.656 246.446 261.648V256.816H249.07V255.728H246.446V253.232H245.214V255.728H244.062V256.816H245.214V261.808C245.214 263.488 246.222 264.144 247.55 264.144ZM254.793 264.192C257.289 264.192 259.129 262.208 259.129 259.872V259.84C259.129 257.504 257.305 255.552 254.825 255.552C252.329 255.552 250.505 257.536 250.505 259.872V259.904C250.505 262.24 252.313 264.192 254.793 264.192ZM254.825 263.088C253.081 263.088 251.769 261.648 251.769 259.872V259.84C251.769 258.096 253.001 256.64 254.793 256.64C256.537 256.64 257.865 258.096 257.865 259.872V259.904C257.865 261.648 256.617 263.088 254.825 263.088ZM261.36 264H262.592V260.704C262.592 258.208 264.064 256.912 265.872 256.912H265.968V255.584C264.4 255.52 263.2 256.512 262.592 257.888V255.728H261.36V264ZM271.101 264.192C272.669 264.192 273.677 263.568 274.509 262.64L273.741 261.952C273.069 262.656 272.269 263.12 271.133 263.12C269.661 263.12 268.397 262.112 268.221 260.32H274.781C274.797 260.176 274.797 260.08 274.797 259.92C274.797 257.504 273.389 255.552 270.941 255.552C268.653 255.552 266.973 257.472 266.973 259.856V259.888C266.973 262.448 268.829 264.192 271.101 264.192ZM268.221 259.408C268.381 257.792 269.469 256.592 270.909 256.592C272.557 256.592 273.421 257.904 273.549 259.408H268.221ZM284.215 264.176C285.671 264.176 286.631 263.504 287.207 262.752V264H288.391V258.944C288.391 257.888 288.103 257.088 287.543 256.528C286.935 255.92 286.039 255.616 284.871 255.616C283.671 255.616 282.775 255.888 281.863 256.304L282.231 257.312C282.999 256.96 283.767 256.704 284.743 256.704C286.295 256.704 287.207 257.472 287.207 258.96V259.248C286.471 259.04 285.719 258.896 284.663 258.896C282.567 258.896 281.127 259.824 281.127 261.568V261.6C281.127 263.296 282.679 264.176 284.215 264.176ZM284.455 263.2C283.335 263.2 282.375 262.592 282.375 261.552V261.52C282.375 260.48 283.239 259.808 284.791 259.808C285.799 259.808 286.615 259.984 287.223 260.16V260.96C287.223 262.272 285.975 263.2 284.455 263.2ZM294.745 264.192C296.297 264.192 297.289 263.52 298.121 262.592L297.337 261.856C296.681 262.56 295.865 263.088 294.809 263.088C293.081 263.088 291.769 261.664 291.769 259.872V259.84C291.769 258.064 293.049 256.64 294.729 256.64C295.849 256.64 296.585 257.2 297.241 257.888L298.057 257.024C297.289 256.208 296.313 255.552 294.745 255.552C292.329 255.552 290.505 257.536 290.505 259.872V259.904C290.505 262.224 292.329 264.192 294.745 264.192ZM300.157 264H301.389V259.264C301.389 257.712 302.445 256.672 303.869 256.672C305.325 256.672 306.157 257.632 306.157 259.168V264H307.389V258.864C307.389 256.896 306.221 255.552 304.221 255.552C302.797 255.552 301.933 256.272 301.389 257.168V252.32H300.157V264ZM310.049 253.92H311.457V252.56H310.049V253.92ZM310.129 264H311.361V255.728H310.129V264ZM314.22 264H315.452V259.264C315.452 257.712 316.508 256.672 317.932 256.672C319.388 256.672 320.22 257.632 320.22 259.168V264H321.452V258.864C321.452 256.896 320.284 255.552 318.284 255.552C316.86 255.552 315.996 256.272 315.452 257.168V255.728H314.22V264ZM327.743 266.592C329.055 266.592 330.159 266.224 330.895 265.488C331.567 264.816 331.951 263.84 331.951 262.56V255.728H330.719V257.216C330.047 256.32 329.039 255.552 327.487 255.552C325.519 255.552 323.599 257.04 323.599 259.456V259.488C323.599 261.872 325.503 263.36 327.487 263.36C329.007 263.36 330.015 262.576 330.735 261.616V262.592C330.735 264.528 329.551 265.536 327.727 265.536C326.543 265.536 325.487 265.168 324.543 264.48L323.983 265.44C325.087 266.208 326.367 266.592 327.743 266.592ZM327.727 262.272C326.191 262.272 324.863 261.12 324.863 259.456V259.424C324.863 257.728 326.159 256.64 327.727 256.64C329.295 256.64 330.767 257.744 330.767 259.44V259.472C330.767 261.136 329.295 262.272 327.727 262.272ZM339.501 264H340.733V259.28C340.733 257.76 341.725 256.672 343.037 256.672C344.349 256.672 345.165 257.584 345.165 259.136V264H346.397V259.232C346.397 257.6 347.421 256.672 348.669 256.672C350.013 256.672 350.813 257.568 350.813 259.168V264H352.045V258.88C352.045 256.832 350.877 255.552 348.973 255.552C347.533 255.552 346.653 256.288 346.061 257.2C345.613 256.272 344.749 255.552 343.405 255.552C342.013 255.552 341.277 256.304 340.733 257.12V255.728H339.501V264ZM357.76 264.176C359.184 264.176 360.032 263.456 360.592 262.56V264H361.808V255.728H360.592V260.464C360.592 262.016 359.52 263.056 358.112 263.056C356.656 263.056 355.824 262.096 355.824 260.56V255.728H354.592V260.864C354.592 262.832 355.76 264.176 357.76 264.176ZM367.315 264.16C368.963 264.16 370.259 263.248 370.259 261.68V261.648C370.259 260.16 368.883 259.664 367.603 259.28C366.499 258.944 365.475 258.64 365.475 257.856V257.824C365.475 257.136 366.099 256.624 367.075 256.624C367.875 256.624 368.755 256.928 369.523 257.424L370.083 256.496C369.235 255.936 368.115 255.584 367.107 255.584C365.475 255.584 364.291 256.528 364.291 257.952V257.984C364.291 259.504 365.731 259.952 367.027 260.32C368.115 260.624 369.091 260.944 369.091 261.776V261.808C369.091 262.608 368.371 263.12 367.379 263.12C366.403 263.12 365.411 262.736 364.515 262.064L363.891 262.944C364.819 263.696 366.131 264.16 367.315 264.16ZM376.276 264.192C377.828 264.192 378.82 263.52 379.652 262.592L378.868 261.856C378.212 262.56 377.396 263.088 376.34 263.088C374.612 263.088 373.3 261.664 373.3 259.872V259.84C373.3 258.064 374.58 256.64 376.26 256.64C377.38 256.64 378.116 257.2 378.772 257.888L379.588 257.024C378.82 256.208 377.844 255.552 376.276 255.552C373.86 255.552 372.036 257.536 372.036 259.872V259.904C372.036 262.224 373.86 264.192 376.276 264.192ZM381.801 264H383.033V252.32H381.801V264ZM389.508 264.192C391.076 264.192 392.084 263.568 392.916 262.64L392.148 261.952C391.476 262.656 390.676 263.12 389.54 263.12C388.068 263.12 386.804 262.112 386.628 260.32H393.188C393.204 260.176 393.204 260.08 393.204 259.92C393.204 257.504 391.796 255.552 389.348 255.552C387.06 255.552 385.38 257.472 385.38 259.856V259.888C385.38 262.448 387.236 264.192 389.508 264.192ZM386.628 259.408C386.788 257.792 387.876 256.592 389.316 256.592C390.964 256.592 391.828 257.904 391.956 259.408H386.628ZM398.096 264.16C399.744 264.16 401.04 263.248 401.04 261.68V261.648C401.04 260.16 399.664 259.664 398.384 259.28C397.28 258.944 396.256 258.64 396.256 257.856V257.824C396.256 257.136 396.88 256.624 397.856 256.624C398.656 256.624 399.536 256.928 400.304 257.424L400.864 256.496C400.016 255.936 398.896 255.584 397.888 255.584C396.256 255.584 395.072 256.528 395.072 257.952V257.984C395.072 259.504 396.512 259.952 397.808 260.32C398.896 260.624 399.872 260.944 399.872 261.776V261.808C399.872 262.608 399.152 263.12 398.16 263.12C397.184 263.12 396.192 262.736 395.296 262.064L394.672 262.944C395.6 263.696 396.912 264.16 398.096 264.16ZM410.59 264.176C412.046 264.176 413.006 263.504 413.582 262.752V264H414.766V258.944C414.766 257.888 414.478 257.088 413.918 256.528C413.31 255.92 412.414 255.616 411.246 255.616C410.046 255.616 409.15 255.888 408.238 256.304L408.606 257.312C409.374 256.96 410.142 256.704 411.118 256.704C412.67 256.704 413.582 257.472 413.582 258.96V259.248C412.846 259.04 412.094 258.896 411.038 258.896C408.942 258.896 407.502 259.824 407.502 261.568V261.6C407.502 263.296 409.054 264.176 410.59 264.176ZM410.83 263.2C409.71 263.2 408.75 262.592 408.75 261.552V261.52C408.75 260.48 409.614 259.808 411.166 259.808C412.174 259.808 412.99 259.984 413.598 260.16V260.96C413.598 262.272 412.35 263.2 410.83 263.2ZM417.392 264H418.624V259.264C418.624 257.712 419.68 256.672 421.104 256.672C422.56 256.672 423.392 257.632 423.392 259.168V264H424.624V258.864C424.624 256.896 423.456 255.552 421.456 255.552C420.032 255.552 419.168 256.272 418.624 257.168V255.728H417.392V264ZM430.723 264.176C432.243 264.176 433.219 263.328 433.891 262.336V264H435.123V252.32H433.891V257.312C433.251 256.384 432.259 255.552 430.723 255.552C428.739 255.552 426.771 257.152 426.771 259.856V259.888C426.771 262.608 428.739 264.176 430.723 264.176ZM430.947 263.072C429.395 263.072 428.035 261.824 428.035 259.872V259.84C428.035 257.84 429.347 256.656 430.947 256.656C432.483 256.656 433.939 257.936 433.939 259.84V259.872C433.939 261.776 432.483 263.072 430.947 263.072ZM442.705 253.92H444.113V252.56H442.705V253.92ZM442.001 266.608C443.249 266.608 444.017 265.936 444.017 264.48V255.728H442.785V264.464C442.785 265.232 442.401 265.568 441.841 265.568C441.665 265.568 441.425 265.552 441.233 265.52V266.528C441.505 266.592 441.713 266.608 442.001 266.608ZM450.652 264.192C453.148 264.192 454.988 262.208 454.988 259.872V259.84C454.988 257.504 453.164 255.552 450.684 255.552C448.188 255.552 446.364 257.536 446.364 259.872V259.904C446.364 262.24 448.172 264.192 450.652 264.192ZM450.684 263.088C448.94 263.088 447.628 261.648 447.628 259.872V259.84C447.628 258.096 448.86 256.64 450.652 256.64C452.396 256.64 453.724 258.096 453.724 259.872V259.904C453.724 261.648 452.476 263.088 450.684 263.088ZM457.252 253.92H458.66V252.56H457.252V253.92ZM457.332 264H458.564V255.728H457.332V264ZM461.423 264H462.655V259.264C462.655 257.712 463.711 256.672 465.135 256.672C466.591 256.672 467.423 257.632 467.423 259.168V264H468.655V258.864C468.655 256.896 467.487 255.552 465.487 255.552C464.063 255.552 463.199 256.272 462.655 257.168V255.728H461.423V264ZM474.05 264.144C474.642 264.144 475.106 264.016 475.538 263.792V262.736C475.106 262.944 474.754 263.024 474.338 263.024C473.506 263.024 472.946 262.656 472.946 261.648V256.816H475.57V255.728H472.946V253.232H471.714V255.728H470.562V256.816H471.714V261.808C471.714 263.488 472.722 264.144 474.05 264.144ZM480.487 264.16C482.135 264.16 483.431 263.248 483.431 261.68V261.648C483.431 260.16 482.055 259.664 480.775 259.28C479.671 258.944 478.647 258.64 478.647 257.856V257.824C478.647 257.136 479.271 256.624 480.247 256.624C481.047 256.624 481.927 256.928 482.695 257.424L483.255 256.496C482.407 255.936 481.287 255.584 480.279 255.584C478.647 255.584 477.463 256.528 477.463 257.952V257.984C477.463 259.504 478.903 259.952 480.199 260.32C481.287 260.624 482.263 260.944 482.263 261.776V261.808C482.263 262.608 481.543 263.12 480.551 263.12C479.575 263.12 478.583 262.736 477.687 262.064L477.063 262.944C477.991 263.696 479.303 264.16 480.487 264.16ZM485.576 264H487.048V262.32H485.576V264Z" fill="#540F16"/>
<defs>
<filter id="filter0_d" x="108" y="14" width="436" height="300" filterUnits="userSpaceOnUse" color-interpolation-filters="sRGB">
<feFlood flood-opacity="0" result="BackgroundImageFix"/>
<feColorMatrix in="SourceAlpha" type="matrix" values="0 0 0 0 0 0 0 0 0 0 0 0 0 0 0 0 0 0 127 0" result="hardAlpha"/>
<feOffset dx="4" dy="4"/>
<feGaussianBlur stdDeviation="5"/>
<feColorMatrix type="matrix" values="0 0 0 0 0.329412 0 0 0 0 0.0588235 0 0 0 0 0.0862745 0 0 0 0.2 0"/>
<feBlend mode="normal" in2="BackgroundImageFix" result="effect1_dropShadow"/>
<feBlend mode="normal" in="SourceGraphic" in2="effect1_dropShadow" result="shape"/>
</filter>
</defs>
</svg>
