<svg width="533" height="262" viewBox="0 0 533 262" fill="none" xmlns="http://www.w3.org/2000/svg">
<g filter="url(#filter0_d)">
<rect x="6" y="23" width="416" height="218" rx="2" fill="white"/>
</g>
<rect x="6" y="20" width="416" height="242" rx="2" fill="#F2F2F2"/>
<circle cx="435" cy="98" r="98" fill="#CC112C" fill-opacity="0.1"/>
<circle cx="435" cy="98" r="92" fill="#CC112C" fill-opacity="0.1"/>
<circle cx="435" cy="98" r="87" fill="#CC112C"/>
<circle cx="435" cy="98" r="80" fill="white"/>
<path d="M422.028 137C373.547 105.855 433.971 78.1594 425.267 53C425.267 53 452.022 62.1304 440.955 89.0145C431.517 111.942 463.728 112.855 460.59 92.2609C460.59 92.2609 483.161 126.348 443.485 137" stroke="#540F16" stroke-width="3" stroke-miterlimit="10" stroke-linejoin="round"/>
<path d="M425.267 53C446.623 70.4493 404.518 113.971 434.983 137" stroke="#540F16" stroke-width="3" stroke-miterlimit="10" stroke-linejoin="round"/>
<path d="M41.8 70H51.62V67.76H44.26V56H41.8V70ZM58.7275 70.24C61.9875 70.24 64.3875 67.74 64.3875 64.74V64.7C64.3875 61.68 62.0075 59.22 58.7675 59.22C55.5275 59.22 53.1275 61.72 53.1275 64.74V64.78C53.1275 67.78 55.5075 70.24 58.7275 70.24ZM58.7675 68.12C56.8875 68.12 55.5475 66.58 55.5475 64.74V64.7C55.5475 62.86 56.7875 61.34 58.7275 61.34C60.6275 61.34 61.9675 62.88 61.9675 64.74V64.78C61.9675 66.6 60.7275 68.12 58.7675 68.12ZM66.852 70H69.272V64.04C69.272 62.4 70.252 61.42 71.652 61.42C73.092 61.42 73.912 62.36 73.912 64V70H76.332V63.26C76.332 60.82 74.952 59.22 72.572 59.22C70.932 59.22 69.952 60.08 69.272 61.06V59.44H66.852V70ZM83.9544 73.24C85.8544 73.24 87.3344 72.78 88.2944 71.82C89.1744 70.94 89.6344 69.62 89.6344 67.84V59.44H87.2144V61.02C86.3944 60.04 85.2944 59.22 83.5144 59.22C81.0544 59.22 78.7144 61.06 78.7144 64.18V64.22C78.7144 67.32 81.0344 69.16 83.5144 69.16C85.2544 69.16 86.3544 68.36 87.2344 67.22V68.04C87.2344 70.16 86.0544 71.28 83.8944 71.28C82.4544 71.28 81.2744 70.86 80.1344 70.16L79.2344 71.98C80.5944 72.8 82.2144 73.24 83.9544 73.24ZM84.1544 67.1C82.4944 67.1 81.1544 65.92 81.1544 64.2V64.16C81.1544 62.42 82.4744 61.26 84.1544 61.26C85.8344 61.26 87.2544 62.44 87.2544 64.16V64.2C87.2544 65.92 85.8344 67.1 84.1544 67.1ZM98.8084 70H101.228V55.4H98.8084V70ZM107.431 70.22C109.051 70.22 110.151 69.54 110.871 68.68V70H113.231V63.74C113.231 62.36 112.871 61.24 112.091 60.48C111.351 59.72 110.171 59.3 108.591 59.3C106.911 59.3 105.771 59.64 104.611 60.16L105.251 62.06C106.211 61.66 107.091 61.4 108.271 61.4C109.971 61.4 110.891 62.2 110.891 63.7V63.96C110.071 63.7 109.231 63.52 108.051 63.52C105.471 63.52 103.691 64.64 103.691 66.92V66.96C103.691 69.08 105.451 70.22 107.431 70.22ZM108.111 68.46C106.951 68.46 106.051 67.88 106.051 66.86V66.82C106.051 65.72 106.971 65.06 108.531 65.06C109.491 65.06 110.311 65.24 110.931 65.48V66.2C110.931 67.54 109.711 68.46 108.111 68.46ZM119.749 70.2C121.949 70.2 123.669 69.1 123.669 66.88V66.84C123.669 64.94 121.929 64.24 120.389 63.76C119.149 63.36 118.009 63.04 118.009 62.26V62.22C118.009 61.62 118.549 61.18 119.489 61.18C120.369 61.18 121.449 61.56 122.469 62.18L123.429 60.46C122.309 59.72 120.869 59.26 119.549 59.26C117.449 59.26 115.789 60.48 115.789 62.48V62.52C115.789 64.54 117.529 65.18 119.089 65.62C120.329 66 121.449 66.28 121.449 67.1V67.14C121.449 67.84 120.849 68.28 119.809 68.28C118.729 68.28 117.509 67.84 116.349 66.98L115.269 68.62C116.589 69.66 118.249 70.2 119.749 70.2ZM129.494 70.18C130.414 70.18 131.074 69.98 131.674 69.64V67.66C131.194 67.9 130.714 68.02 130.174 68.02C129.354 68.02 128.874 67.64 128.874 66.7V61.52H131.714V59.44H128.874V56.54H126.454V59.44H125.114V61.52H126.454V67.08C126.454 69.4 127.714 70.18 129.494 70.18ZM134.216 57.82H136.816V55.52H134.216V57.82ZM134.316 70H136.736V59.44H134.316V70ZM139.899 70H142.319V64.04C142.319 62.4 143.299 61.42 144.699 61.42C146.139 61.42 146.959 62.36 146.959 64V70H149.379V63.26C149.379 60.82 147.999 59.22 145.619 59.22C143.979 59.22 142.999 60.08 142.319 61.06V59.44H139.899V70ZM157.001 73.24C158.901 73.24 160.381 72.78 161.341 71.82C162.221 70.94 162.681 69.62 162.681 67.84V59.44H160.261V61.02C159.441 60.04 158.341 59.22 156.561 59.22C154.101 59.22 151.761 61.06 151.761 64.18V64.22C151.761 67.32 154.081 69.16 156.561 69.16C158.301 69.16 159.401 68.36 160.281 67.22V68.04C160.281 70.16 159.101 71.28 156.941 71.28C155.501 71.28 154.321 70.86 153.181 70.16L152.281 71.98C153.641 72.8 155.261 73.24 157.001 73.24ZM157.201 67.1C155.541 67.1 154.201 65.92 154.201 64.2V64.16C154.201 62.42 155.521 61.26 157.201 61.26C158.881 61.26 160.301 62.44 160.301 64.16V64.2C160.301 65.92 158.881 67.1 157.201 67.1ZM171.715 70H174.135V64.04C174.135 62.4 175.115 61.42 176.515 61.42C177.955 61.42 178.775 62.36 178.775 64V70H181.195V63.26C181.195 60.82 179.815 59.22 177.435 59.22C175.795 59.22 174.815 60.08 174.135 61.06V55.4H171.715V70ZM188.958 70.24C190.898 70.24 192.278 69.46 193.278 68.26L191.858 67C191.018 67.82 190.178 68.26 188.998 68.26C187.438 68.26 186.218 67.3 185.958 65.58H193.718C193.738 65.34 193.758 65.12 193.758 64.9C193.758 61.86 192.058 59.22 188.698 59.22C185.678 59.22 183.538 61.7 183.538 64.72V64.76C183.538 68.02 185.898 70.24 188.958 70.24ZM185.938 63.98C186.158 62.34 187.198 61.2 188.678 61.2C190.278 61.2 191.198 62.42 191.358 63.98H185.938ZM199.228 70.22C200.848 70.22 201.948 69.54 202.668 68.68V70H205.028V63.74C205.028 62.36 204.668 61.24 203.888 60.48C203.148 59.72 201.968 59.3 200.388 59.3C198.708 59.3 197.568 59.64 196.408 60.16L197.048 62.06C198.008 61.66 198.888 61.4 200.068 61.4C201.768 61.4 202.688 62.2 202.688 63.7V63.96C201.868 63.7 201.028 63.52 199.848 63.52C197.268 63.52 195.488 64.64 195.488 66.92V66.96C195.488 69.08 197.248 70.22 199.228 70.22ZM199.908 68.46C198.748 68.46 197.848 67.88 197.848 66.86V66.82C197.848 65.72 198.768 65.06 200.328 65.06C201.288 65.06 202.108 65.24 202.728 65.48V66.2C202.728 67.54 201.508 68.46 199.908 68.46ZM211.369 70.18C212.289 70.18 212.949 69.98 213.549 69.64V67.66C213.069 67.9 212.589 68.02 212.049 68.02C211.229 68.02 210.749 67.64 210.749 66.7V61.52H213.589V59.44H210.749V56.54H208.329V59.44H206.989V61.52H208.329V67.08C208.329 69.4 209.589 70.18 211.369 70.18Z" fill="#CC112C"/>
<path d="M44.544 108H45.824V97.968H49.584V96.8H40.784V97.968H44.544V108ZM51.501 108H52.733V103.264C52.733 101.712 53.789 100.672 55.213 100.672C56.669 100.672 57.501 101.632 57.501 103.168V108H58.733V102.864C58.733 100.896 57.565 99.552 55.565 99.552C54.141 99.552 53.277 100.272 52.733 101.168V96.32H51.501V108ZM64.9764 108.192C66.5444 108.192 67.5524 107.568 68.3844 106.64L67.6164 105.952C66.9444 106.656 66.1444 107.12 65.0084 107.12C63.5364 107.12 62.2724 106.112 62.0964 104.32H68.6564C68.6724 104.176 68.6724 104.08 68.6724 103.92C68.6724 101.504 67.2644 99.552 64.8164 99.552C62.5284 99.552 60.8484 101.472 60.8484 103.856V103.888C60.8484 106.448 62.7044 108.192 64.9764 108.192ZM62.0964 103.408C62.2564 101.792 63.3444 100.592 64.7844 100.592C66.4324 100.592 67.2964 101.904 67.4244 103.408H62.0964ZM70.8291 108H72.0611V104.704C72.0611 102.208 73.5331 100.912 75.3411 100.912H75.4371V99.584C73.8691 99.52 72.6691 100.512 72.0611 101.888V99.728H70.8291V108ZM77.3135 108H78.5455V103.28C78.5455 101.76 79.5375 100.672 80.8495 100.672C82.1615 100.672 82.9775 101.584 82.9775 103.136V108H84.2095V103.232C84.2095 101.6 85.2335 100.672 86.4815 100.672C87.8255 100.672 88.6255 101.568 88.6255 103.168V108H89.8575V102.88C89.8575 100.832 88.6895 99.552 86.7855 99.552C85.3455 99.552 84.4655 100.288 83.8735 101.2C83.4255 100.272 82.5615 99.552 81.2175 99.552C79.8255 99.552 79.0895 100.304 78.5455 101.12V99.728H77.3135V108ZM91.7803 108H93.0763L94.4043 105.04H100.5L101.812 108H103.172L98.0683 96.72H96.8843L91.7803 108ZM94.9003 103.888L97.4603 98.192L100.004 103.888H94.9003ZM105.205 97.92H106.613V96.56H105.205V97.92ZM105.285 108H106.517V99.728H105.285V108ZM112.848 108.176C114.368 108.176 115.344 107.328 116.016 106.336V108H117.248V96.32H116.016V101.312C115.376 100.384 114.384 99.552 112.848 99.552C110.864 99.552 108.896 101.152 108.896 103.856V103.888C108.896 106.608 110.864 108.176 112.848 108.176ZM113.072 107.072C111.52 107.072 110.16 105.824 110.16 103.872V103.84C110.16 101.84 111.472 100.656 113.072 100.656C114.608 100.656 116.064 101.936 116.064 103.84V103.872C116.064 105.776 114.608 107.072 113.072 107.072ZM121.857 102.24C123.409 102.24 124.641 100.96 124.641 99.44V99.424C124.641 97.904 123.425 96.64 121.857 96.64C120.305 96.64 119.073 97.92 119.073 99.44V99.456C119.073 100.976 120.289 102.24 121.857 102.24ZM121.857 101.936C120.449 101.936 119.393 100.816 119.393 99.456V99.44C119.393 98.08 120.465 96.944 121.857 96.944C123.265 96.944 124.321 98.064 124.321 99.424V99.44C124.321 100.8 123.249 101.936 121.857 101.936ZM120.769 100.8H121.313V99.824H121.905L122.577 100.8H123.233L122.481 99.728C122.865 99.616 123.137 99.328 123.137 98.864C123.137 98.272 122.673 97.968 122.049 97.968H120.769V100.8ZM121.313 99.376V98.448H122.001C122.369 98.448 122.577 98.608 122.577 98.912C122.577 99.184 122.369 99.376 122.001 99.376H121.313ZM131.283 97.92H132.691V96.56H131.283V97.92ZM131.363 108H132.595V99.728H131.363V108ZM138.19 108.16C139.838 108.16 141.134 107.248 141.134 105.68V105.648C141.134 104.16 139.758 103.664 138.478 103.28C137.374 102.944 136.35 102.64 136.35 101.856V101.824C136.35 101.136 136.974 100.624 137.95 100.624C138.75 100.624 139.63 100.928 140.398 101.424L140.958 100.496C140.11 99.936 138.99 99.584 137.982 99.584C136.35 99.584 135.166 100.528 135.166 101.952V101.984C135.166 103.504 136.606 103.952 137.902 104.32C138.99 104.624 139.966 104.944 139.966 105.776V105.808C139.966 106.608 139.246 107.12 138.254 107.12C137.278 107.12 136.286 106.736 135.39 106.064L134.766 106.944C135.694 107.696 137.006 108.16 138.19 108.16ZM151.948 108.192C153.5 108.192 154.492 107.52 155.324 106.592L154.54 105.856C153.884 106.56 153.068 107.088 152.012 107.088C150.284 107.088 148.972 105.664 148.972 103.872V103.84C148.972 102.064 150.252 100.64 151.932 100.64C153.052 100.64 153.788 101.2 154.444 101.888L155.26 101.024C154.492 100.208 153.516 99.552 151.948 99.552C149.532 99.552 147.708 101.536 147.708 103.872V103.904C147.708 106.224 149.532 108.192 151.948 108.192ZM157.472 108H158.704V96.32H157.472V108ZM161.596 97.92H163.004V96.56H161.596V97.92ZM161.676 108H162.908V99.728H161.676V108ZM165.767 108H166.999V103.264C166.999 101.712 168.055 100.672 169.479 100.672C170.935 100.672 171.767 101.632 171.767 103.168V108H172.999V102.864C172.999 100.896 171.831 99.552 169.831 99.552C168.407 99.552 167.543 100.272 166.999 101.168V99.728H165.767V108ZM175.658 97.92H177.066V96.56H175.658V97.92ZM175.738 108H176.97V99.728H175.738V108ZM183.557 108.192C185.109 108.192 186.101 107.52 186.933 106.592L186.149 105.856C185.493 106.56 184.677 107.088 183.621 107.088C181.893 107.088 180.581 105.664 180.581 103.872V103.84C180.581 102.064 181.861 100.64 183.541 100.64C184.661 100.64 185.397 101.2 186.053 101.888L186.869 101.024C186.101 100.208 185.125 99.552 183.557 99.552C181.141 99.552 179.317 101.536 179.317 103.872V103.904C179.317 106.224 181.141 108.192 183.557 108.192ZM191.434 108.176C192.89 108.176 193.85 107.504 194.426 106.752V108H195.61V102.944C195.61 101.888 195.322 101.088 194.762 100.528C194.154 99.92 193.258 99.616 192.09 99.616C190.89 99.616 189.994 99.888 189.082 100.304L189.45 101.312C190.218 100.96 190.986 100.704 191.962 100.704C193.514 100.704 194.426 101.472 194.426 102.96V103.248C193.69 103.04 192.938 102.896 191.882 102.896C189.786 102.896 188.346 103.824 188.346 105.568V105.6C188.346 107.296 189.898 108.176 191.434 108.176ZM191.674 107.2C190.554 107.2 189.594 106.592 189.594 105.552V105.52C189.594 104.48 190.458 103.808 192.01 103.808C193.018 103.808 193.834 103.984 194.442 104.16V104.96C194.442 106.272 193.194 107.2 191.674 107.2ZM198.347 108H199.579V96.32H198.347V108ZM202.551 108H203.783V96.32H202.551V108ZM210.178 106.624L207.17 99.728H205.81L209.57 107.968C209.074 109.136 208.61 109.52 207.874 109.52C207.346 109.52 206.978 109.424 206.578 109.216L206.162 110.192C206.722 110.464 207.234 110.608 207.922 110.608C209.17 110.608 209.97 109.984 210.674 108.272L214.146 99.728H212.834L210.178 106.624ZM220.892 110.56H222.124V106.416C222.764 107.344 223.756 108.176 225.292 108.176C227.292 108.176 229.244 106.576 229.244 103.872V103.84C229.244 101.12 227.276 99.552 225.292 99.552C223.772 99.552 222.796 100.4 222.124 101.392V99.728H220.892V110.56ZM225.068 107.072C223.532 107.072 222.076 105.792 222.076 103.872V103.84C222.076 101.952 223.532 100.656 225.068 100.656C226.636 100.656 227.98 101.904 227.98 103.856V103.888C227.98 105.888 226.668 107.072 225.068 107.072ZM231.517 108H232.749V104.704C232.749 102.208 234.221 100.912 236.029 100.912H236.125V99.584C234.557 99.52 233.357 100.512 232.749 101.888V99.728H231.517V108ZM241.418 108.192C243.914 108.192 245.754 106.208 245.754 103.872V103.84C245.754 101.504 243.93 99.552 241.45 99.552C238.954 99.552 237.13 101.536 237.13 103.872V103.904C237.13 106.24 238.938 108.192 241.418 108.192ZM241.45 107.088C239.706 107.088 238.394 105.648 238.394 103.872V103.84C238.394 102.096 239.626 100.64 241.418 100.64C243.162 100.64 244.49 102.096 244.49 103.872V103.904C244.49 105.648 243.242 107.088 241.45 107.088ZM250.269 108.064H251.357L254.957 99.728H253.629L250.829 106.592L248.045 99.728H246.685L250.269 108.064ZM260.023 108.192C261.591 108.192 262.599 107.568 263.431 106.64L262.663 105.952C261.991 106.656 261.191 107.12 260.055 107.12C258.583 107.12 257.319 106.112 257.143 104.32H263.703C263.719 104.176 263.719 104.08 263.719 103.92C263.719 101.504 262.311 99.552 259.863 99.552C257.575 99.552 255.895 101.472 255.895 103.856V103.888C255.895 106.448 257.751 108.192 260.023 108.192ZM257.143 103.408C257.303 101.792 258.391 100.592 259.831 100.592C261.479 100.592 262.343 101.904 262.471 103.408H257.143ZM265.876 108H267.108V103.264C267.108 101.712 268.164 100.672 269.588 100.672C271.044 100.672 271.876 101.632 271.876 103.168V108H273.108V102.864C273.108 100.896 271.94 99.552 269.94 99.552C268.516 99.552 267.652 100.272 267.108 101.168V99.728H265.876V108ZM283.3 108.144C283.892 108.144 284.356 108.016 284.788 107.792V106.736C284.356 106.944 284.004 107.024 283.588 107.024C282.756 107.024 282.196 106.656 282.196 105.648V100.816H284.82V99.728H282.196V97.232H280.964V99.728H279.812V100.816H280.964V105.808C280.964 107.488 281.972 108.144 283.3 108.144ZM290.543 108.192C293.039 108.192 294.879 106.208 294.879 103.872V103.84C294.879 101.504 293.055 99.552 290.575 99.552C288.079 99.552 286.255 101.536 286.255 103.872V103.904C286.255 106.24 288.063 108.192 290.543 108.192ZM290.575 107.088C288.831 107.088 287.519 105.648 287.519 103.872V103.84C287.519 102.096 288.751 100.64 290.543 100.64C292.287 100.64 293.615 102.096 293.615 103.872V103.904C293.615 105.648 292.367 107.088 290.575 107.088ZM41.376 129.56H42.608V125.416C43.248 126.344 44.24 127.176 45.776 127.176C47.776 127.176 49.728 125.576 49.728 122.872V122.84C49.728 120.12 47.76 118.552 45.776 118.552C44.256 118.552 43.28 119.4 42.608 120.392V118.728H41.376V129.56ZM45.552 126.072C44.016 126.072 42.56 124.792 42.56 122.872V122.84C42.56 120.952 44.016 119.656 45.552 119.656C47.12 119.656 48.464 120.904 48.464 122.856V122.888C48.464 124.888 47.152 126.072 45.552 126.072ZM52.001 127H53.233V123.704C53.233 121.208 54.705 119.912 56.513 119.912H56.609V118.584C55.041 118.52 53.841 119.512 53.233 120.888V118.728H52.001V127ZM61.902 127.192C64.398 127.192 66.238 125.208 66.238 122.872V122.84C66.238 120.504 64.414 118.552 61.934 118.552C59.438 118.552 57.614 120.536 57.614 122.872V122.904C57.614 125.24 59.422 127.192 61.902 127.192ZM61.934 126.088C60.19 126.088 58.878 124.648 58.878 122.872V122.84C58.878 121.096 60.11 119.64 61.902 119.64C63.646 119.64 64.974 121.096 64.974 122.872V122.904C64.974 124.648 63.726 126.088 61.934 126.088ZM70.7534 127.064H71.8414L75.4414 118.728H74.1134L71.3134 125.592L68.5294 118.728H67.1694L70.7534 127.064ZM77.408 116.92H78.816V115.56H77.408V116.92ZM77.488 127H78.72V118.728H77.488V127ZM85.0511 127.176C86.5711 127.176 87.5471 126.328 88.2191 125.336V127H89.4511V115.32H88.2191V120.312C87.5791 119.384 86.5871 118.552 85.0511 118.552C83.0671 118.552 81.0991 120.152 81.0991 122.856V122.888C81.0991 125.608 83.0671 127.176 85.0511 127.176ZM85.2751 126.072C83.7231 126.072 82.3631 124.824 82.3631 122.872V122.84C82.3631 120.84 83.6751 119.656 85.2751 119.656C86.8111 119.656 88.2671 120.936 88.2671 122.84V122.872C88.2671 124.776 86.8111 126.072 85.2751 126.072ZM95.8201 127.192C97.3881 127.192 98.3961 126.568 99.2281 125.64L98.4601 124.952C97.7881 125.656 96.9881 126.12 95.8521 126.12C94.3801 126.12 93.1161 125.112 92.9401 123.32H99.5001C99.5161 123.176 99.5161 123.08 99.5161 122.92C99.5161 120.504 98.1081 118.552 95.6601 118.552C93.3721 118.552 91.6921 120.472 91.6921 122.856V122.888C91.6921 125.448 93.5481 127.192 95.8201 127.192ZM92.9401 122.408C93.1001 120.792 94.1881 119.592 95.6281 119.592C97.2761 119.592 98.1401 120.904 98.2681 122.408H92.9401ZM109.238 127.144C109.83 127.144 110.294 127.016 110.726 126.792V125.736C110.294 125.944 109.942 126.024 109.526 126.024C108.694 126.024 108.134 125.656 108.134 124.648V119.816H110.758V118.728H108.134V116.232H106.902V118.728H105.75V119.816H106.902V124.808C106.902 126.488 107.91 127.144 109.238 127.144ZM112.939 127H114.171V122.264C114.171 120.712 115.227 119.672 116.651 119.672C118.107 119.672 118.939 120.632 118.939 122.168V127H120.171V121.864C120.171 119.896 119.003 118.552 117.003 118.552C115.579 118.552 114.715 119.272 114.171 120.168V115.32H112.939V127ZM126.414 127.192C127.982 127.192 128.99 126.568 129.822 125.64L129.054 124.952C128.382 125.656 127.582 126.12 126.446 126.12C124.974 126.12 123.71 125.112 123.534 123.32H130.094C130.11 123.176 130.11 123.08 130.11 122.92C130.11 120.504 128.702 118.552 126.254 118.552C123.966 118.552 122.286 120.472 122.286 122.856V122.888C122.286 125.448 124.142 127.192 126.414 127.192ZM123.534 122.408C123.694 120.792 124.782 119.592 126.222 119.592C127.87 119.592 128.734 120.904 128.862 122.408H123.534ZM132.267 127H133.499V123.704C133.499 121.208 134.971 119.912 136.779 119.912H136.875V118.584C135.307 118.52 134.107 119.512 133.499 120.888V118.728H132.267V127ZM140.809 127.176C142.265 127.176 143.225 126.504 143.801 125.752V127H144.985V121.944C144.985 120.888 144.697 120.088 144.137 119.528C143.529 118.92 142.633 118.616 141.465 118.616C140.265 118.616 139.369 118.888 138.457 119.304L138.825 120.312C139.593 119.96 140.361 119.704 141.337 119.704C142.889 119.704 143.801 120.472 143.801 121.96V122.248C143.065 122.04 142.313 121.896 141.257 121.896C139.161 121.896 137.721 122.824 137.721 124.568V124.6C137.721 126.296 139.273 127.176 140.809 127.176ZM141.049 126.2C139.929 126.2 138.969 125.592 138.969 124.552V124.52C138.969 123.48 139.833 122.808 141.385 122.808C142.393 122.808 143.209 122.984 143.817 123.16V123.96C143.817 125.272 142.569 126.2 141.049 126.2ZM147.61 129.56H148.842V125.416C149.482 126.344 150.474 127.176 152.01 127.176C154.01 127.176 155.962 125.576 155.962 122.872V122.84C155.962 120.12 153.994 118.552 152.01 118.552C150.49 118.552 149.514 119.4 148.842 120.392V118.728H147.61V129.56ZM151.786 126.072C150.25 126.072 148.794 124.792 148.794 122.872V122.84C148.794 120.952 150.25 119.656 151.786 119.656C153.354 119.656 154.698 120.904 154.698 122.856V122.888C154.698 124.888 153.386 126.072 151.786 126.072ZM161.851 127.192C163.419 127.192 164.427 126.568 165.259 125.64L164.491 124.952C163.819 125.656 163.019 126.12 161.883 126.12C160.411 126.12 159.147 125.112 158.971 123.32H165.531C165.547 123.176 165.547 123.08 165.547 122.92C165.547 120.504 164.139 118.552 161.691 118.552C159.403 118.552 157.723 120.472 157.723 122.856V122.888C157.723 125.448 159.579 127.192 161.851 127.192ZM158.971 122.408C159.131 120.792 160.219 119.592 161.659 119.592C163.307 119.592 164.171 120.904 164.299 122.408H158.971ZM170.744 127.176C172.168 127.176 173.016 126.456 173.576 125.56V127H174.792V118.728H173.576V123.464C173.576 125.016 172.504 126.056 171.096 126.056C169.64 126.056 168.808 125.096 168.808 123.56V118.728H167.576V123.864C167.576 125.832 168.744 127.176 170.744 127.176ZM180.332 127.144C180.924 127.144 181.388 127.016 181.82 126.792V125.736C181.388 125.944 181.036 126.024 180.62 126.024C179.788 126.024 179.228 125.656 179.228 124.648V119.816H181.852V118.728H179.228V116.232H177.996V118.728H176.844V119.816H177.996V124.808C177.996 126.488 179.004 127.144 180.332 127.144ZM184.064 116.92H185.472V115.56H184.064V116.92ZM184.144 127H185.376V118.728H184.144V127ZM191.963 127.192C193.515 127.192 194.507 126.52 195.339 125.592L194.555 124.856C193.899 125.56 193.083 126.088 192.027 126.088C190.299 126.088 188.987 124.664 188.987 122.872V122.84C188.987 121.064 190.267 119.64 191.947 119.64C193.067 119.64 193.803 120.2 194.459 120.888L195.275 120.024C194.507 119.208 193.531 118.552 191.963 118.552C189.547 118.552 187.723 120.536 187.723 122.872V122.904C187.723 125.224 189.547 127.192 191.963 127.192ZM202.173 127H203.405V122.28C203.405 120.76 204.397 119.672 205.709 119.672C207.021 119.672 207.837 120.584 207.837 122.136V127H209.069V122.232C209.069 120.6 210.093 119.672 211.341 119.672C212.685 119.672 213.485 120.568 213.485 122.168V127H214.717V121.88C214.717 119.832 213.549 118.552 211.645 118.552C210.205 118.552 209.325 119.288 208.733 120.2C208.285 119.272 207.421 118.552 206.077 118.552C204.685 118.552 203.949 119.304 203.405 120.12V118.728H202.173V127ZM220.432 127.176C221.856 127.176 222.704 126.456 223.264 125.56V127H224.48V118.728H223.264V123.464C223.264 125.016 222.192 126.056 220.784 126.056C219.328 126.056 218.496 125.096 218.496 123.56V118.728H217.264V123.864C217.264 125.832 218.432 127.176 220.432 127.176ZM229.987 127.16C231.635 127.16 232.931 126.248 232.931 124.68V124.648C232.931 123.16 231.555 122.664 230.275 122.28C229.171 121.944 228.147 121.64 228.147 120.856V120.824C228.147 120.136 228.771 119.624 229.747 119.624C230.547 119.624 231.427 119.928 232.195 120.424L232.755 119.496C231.907 118.936 230.787 118.584 229.779 118.584C228.147 118.584 226.963 119.528 226.963 120.952V120.984C226.963 122.504 228.403 122.952 229.699 123.32C230.787 123.624 231.763 123.944 231.763 124.776V124.808C231.763 125.608 231.043 126.12 230.051 126.12C229.075 126.12 228.083 125.736 227.187 125.064L226.563 125.944C227.491 126.696 228.803 127.16 229.987 127.16ZM238.948 127.192C240.5 127.192 241.492 126.52 242.324 125.592L241.54 124.856C240.884 125.56 240.068 126.088 239.012 126.088C237.284 126.088 235.972 124.664 235.972 122.872V122.84C235.972 121.064 237.252 119.64 238.932 119.64C240.052 119.64 240.788 120.2 241.444 120.888L242.26 120.024C241.492 119.208 240.516 118.552 238.948 118.552C236.532 118.552 234.708 120.536 234.708 122.872V122.904C234.708 125.224 236.532 127.192 238.948 127.192ZM244.472 127H245.704V115.32H244.472V127ZM252.18 127.192C253.748 127.192 254.756 126.568 255.588 125.64L254.82 124.952C254.148 125.656 253.348 126.12 252.212 126.12C250.74 126.12 249.476 125.112 249.299 123.32H255.86C255.876 123.176 255.876 123.08 255.876 122.92C255.876 120.504 254.468 118.552 252.02 118.552C249.732 118.552 248.052 120.472 248.052 122.856V122.888C248.052 125.448 249.908 127.192 252.18 127.192ZM249.299 122.408C249.46 120.792 250.548 119.592 251.988 119.592C253.636 119.592 254.5 120.904 254.628 122.408H249.299ZM41.376 148.56H42.608V144.416C43.248 145.344 44.24 146.176 45.776 146.176C47.776 146.176 49.728 144.576 49.728 141.872V141.84C49.728 139.12 47.76 137.552 45.776 137.552C44.256 137.552 43.28 138.4 42.608 139.392V137.728H41.376V148.56ZM45.552 145.072C44.016 145.072 42.56 143.792 42.56 141.872V141.84C42.56 139.952 44.016 138.656 45.552 138.656C47.12 138.656 48.464 139.904 48.464 141.856V141.888C48.464 143.888 47.152 145.072 45.552 145.072ZM55.617 146.192C57.185 146.192 58.193 145.568 59.025 144.64L58.257 143.952C57.585 144.656 56.785 145.12 55.649 145.12C54.177 145.12 52.913 144.112 52.737 142.32H59.297C59.313 142.176 59.313 142.08 59.313 141.92C59.313 139.504 57.905 137.552 55.457 137.552C53.169 137.552 51.489 139.472 51.489 141.856V141.888C51.489 144.448 53.345 146.192 55.617 146.192ZM52.737 141.408C52.897 139.792 53.985 138.592 55.425 138.592C57.073 138.592 57.937 139.904 58.065 141.408H52.737ZM61.4698 146H62.7018V141.264C62.7018 139.712 63.7578 138.672 65.1818 138.672C66.6378 138.672 67.4698 139.632 67.4698 141.168V146H68.7018V140.864C68.7018 138.896 67.5338 137.552 65.5338 137.552C64.1098 137.552 63.2458 138.272 62.7018 139.168V137.728H61.4698V146ZM74.9451 146.192C76.5131 146.192 77.5211 145.568 78.3531 144.64L77.5851 143.952C76.9131 144.656 76.1131 145.12 74.9771 145.12C73.5051 145.12 72.2411 144.112 72.0651 142.32H78.6251C78.6411 142.176 78.6411 142.08 78.6411 141.92C78.6411 139.504 77.2331 137.552 74.7851 137.552C72.4971 137.552 70.8171 139.472 70.8171 141.856V141.888C70.8171 144.448 72.6731 146.192 74.9451 146.192ZM72.0651 141.408C72.2251 139.792 73.3131 138.592 74.7531 138.592C76.4011 138.592 77.2651 139.904 77.3931 141.408H72.0651ZM83.5659 146.144C84.1579 146.144 84.6219 146.016 85.0539 145.792V144.736C84.6219 144.944 84.2699 145.024 83.8539 145.024C83.0219 145.024 82.4619 144.656 82.4619 143.648V138.816H85.0859V137.728H82.4619V135.232H81.2299V137.728H80.0779V138.816H81.2299V143.808C81.2299 145.488 82.2379 146.144 83.5659 146.144ZM87.2666 146H88.4986V142.704C88.4986 140.208 89.9706 138.912 91.7786 138.912H91.8746V137.584C90.3066 137.52 89.1066 138.512 88.4986 139.888V137.728H87.2666V146ZM95.8088 146.176C97.2648 146.176 98.2248 145.504 98.8008 144.752V146H99.9848V140.944C99.9848 139.888 99.6968 139.088 99.1368 138.528C98.5288 137.92 97.6328 137.616 96.4648 137.616C95.2648 137.616 94.3688 137.888 93.4568 138.304L93.8248 139.312C94.5928 138.96 95.3608 138.704 96.3368 138.704C97.8888 138.704 98.8008 139.472 98.8008 140.96V141.248C98.0648 141.04 97.3128 140.896 96.2568 140.896C94.1608 140.896 92.7208 141.824 92.7208 143.568V143.6C92.7208 145.296 94.2728 146.176 95.8088 146.176ZM96.0488 145.2C94.9288 145.2 93.9688 144.592 93.9688 143.552V143.52C93.9688 142.48 94.8328 141.808 96.3848 141.808C97.3928 141.808 98.2088 141.984 98.8168 142.16V142.96C98.8168 144.272 97.5688 145.2 96.0488 145.2ZM105.3 146.144C105.892 146.144 106.356 146.016 106.788 145.792V144.736C106.356 144.944 106.004 145.024 105.588 145.024C104.756 145.024 104.196 144.656 104.196 143.648V138.816H106.82V137.728H104.196V135.232H102.964V137.728H101.812V138.816H102.964V143.808C102.964 145.488 103.972 146.144 105.3 146.144ZM109.033 135.92H110.441V134.56H109.033V135.92ZM109.113 146H110.345V137.728H109.113V146ZM113.204 146H114.436V141.264C114.436 139.712 115.492 138.672 116.916 138.672C118.372 138.672 119.204 139.632 119.204 141.168V146H120.436V140.864C120.436 138.896 119.268 137.552 117.268 137.552C115.844 137.552 114.98 138.272 114.436 139.168V137.728H113.204V146ZM126.728 148.592C128.04 148.592 129.144 148.224 129.88 147.488C130.552 146.816 130.936 145.84 130.936 144.56V137.728H129.704V139.216C129.032 138.32 128.024 137.552 126.472 137.552C124.504 137.552 122.584 139.04 122.584 141.456V141.488C122.584 143.872 124.488 145.36 126.472 145.36C127.992 145.36 129 144.576 129.72 143.616V144.592C129.72 146.528 128.536 147.536 126.712 147.536C125.528 147.536 124.472 147.168 123.528 146.48L122.968 147.44C124.072 148.208 125.352 148.592 126.728 148.592ZM126.712 144.272C125.176 144.272 123.848 143.12 123.848 141.456V141.424C123.848 139.728 125.144 138.64 126.712 138.64C128.28 138.64 129.752 139.744 129.752 141.44V141.472C129.752 143.136 128.28 144.272 126.712 144.272ZM138.485 146H139.717V141.264C139.717 139.712 140.773 138.672 142.197 138.672C143.653 138.672 144.485 139.632 144.485 141.168V146H145.717V140.864C145.717 138.896 144.549 137.552 142.549 137.552C141.125 137.552 140.261 138.272 139.717 139.168V134.32H138.485V146ZM151.961 146.192C153.529 146.192 154.537 145.568 155.369 144.64L154.601 143.952C153.929 144.656 153.129 145.12 151.993 145.12C150.521 145.12 149.257 144.112 149.081 142.32H155.641C155.657 142.176 155.657 142.08 155.657 141.92C155.657 139.504 154.249 137.552 151.801 137.552C149.513 137.552 147.833 139.472 147.833 141.856V141.888C147.833 144.448 149.689 146.192 151.961 146.192ZM149.081 141.408C149.241 139.792 150.329 138.592 151.769 138.592C153.417 138.592 154.281 139.904 154.409 141.408H149.081ZM160.278 146.176C161.734 146.176 162.694 145.504 163.27 144.752V146H164.454V140.944C164.454 139.888 164.166 139.088 163.606 138.528C162.998 137.92 162.102 137.616 160.934 137.616C159.734 137.616 158.838 137.888 157.926 138.304L158.294 139.312C159.062 138.96 159.83 138.704 160.806 138.704C162.358 138.704 163.27 139.472 163.27 140.96V141.248C162.534 141.04 161.782 140.896 160.726 140.896C158.63 140.896 157.19 141.824 157.19 143.568V143.6C157.19 145.296 158.742 146.176 160.278 146.176ZM160.518 145.2C159.398 145.2 158.438 144.592 158.438 143.552V143.52C158.438 142.48 159.302 141.808 160.854 141.808C161.862 141.808 162.678 141.984 163.286 142.16V142.96C163.286 144.272 162.038 145.2 160.518 145.2ZM169.769 146.144C170.361 146.144 170.825 146.016 171.257 145.792V144.736C170.825 144.944 170.473 145.024 170.057 145.024C169.225 145.024 168.665 144.656 168.665 143.648V138.816H171.289V137.728H168.665V135.232H167.433V137.728H166.281V138.816H167.433V143.808C167.433 145.488 168.441 146.144 169.769 146.144ZM180.731 146.176C182.187 146.176 183.147 145.504 183.723 144.752V146H184.907V140.944C184.907 139.888 184.619 139.088 184.059 138.528C183.451 137.92 182.555 137.616 181.387 137.616C180.187 137.616 179.291 137.888 178.379 138.304L178.747 139.312C179.515 138.96 180.283 138.704 181.259 138.704C182.811 138.704 183.723 139.472 183.723 140.96V141.248C182.987 141.04 182.235 140.896 181.179 140.896C179.083 140.896 177.643 141.824 177.643 143.568V143.6C177.643 145.296 179.195 146.176 180.731 146.176ZM180.971 145.2C179.851 145.2 178.891 144.592 178.891 143.552V143.52C178.891 142.48 179.755 141.808 181.307 141.808C182.315 141.808 183.131 141.984 183.739 142.16V142.96C183.739 144.272 182.491 145.2 180.971 145.2ZM187.532 146H188.764V141.264C188.764 139.712 189.82 138.672 191.244 138.672C192.7 138.672 193.532 139.632 193.532 141.168V146H194.764V140.864C194.764 138.896 193.596 137.552 191.596 137.552C190.172 137.552 189.308 138.272 188.764 139.168V137.728H187.532V146ZM200.864 146.176C202.384 146.176 203.36 145.328 204.032 144.336V146H205.264V134.32H204.032V139.312C203.392 138.384 202.4 137.552 200.864 137.552C198.88 137.552 196.912 139.152 196.912 141.856V141.888C196.912 144.608 198.88 146.176 200.864 146.176ZM201.088 145.072C199.536 145.072 198.176 143.824 198.176 141.872V141.84C198.176 139.84 199.488 138.656 201.088 138.656C202.624 138.656 204.08 139.936 204.08 141.84V141.872C204.08 143.776 202.624 145.072 201.088 145.072ZM215.854 146.176C217.278 146.176 218.126 145.456 218.686 144.56V146H219.902V137.728H218.686V142.464C218.686 144.016 217.614 145.056 216.206 145.056C214.75 145.056 213.918 144.096 213.918 142.56V137.728H212.686V142.864C212.686 144.832 213.854 146.176 215.854 146.176ZM222.673 148.56H223.905V144.416C224.545 145.344 225.537 146.176 227.073 146.176C229.073 146.176 231.025 144.576 231.025 141.872V141.84C231.025 139.12 229.057 137.552 227.073 137.552C225.553 137.552 224.577 138.4 223.905 139.392V137.728H222.673V148.56ZM226.849 145.072C225.313 145.072 223.857 143.792 223.857 141.872V141.84C223.857 139.952 225.313 138.656 226.849 138.656C228.417 138.656 229.761 139.904 229.761 141.856V141.888C229.761 143.888 228.449 145.072 226.849 145.072ZM240.863 146.144C241.455 146.144 241.919 146.016 242.351 145.792V144.736C241.919 144.944 241.567 145.024 241.151 145.024C240.319 145.024 239.759 144.656 239.759 143.648V138.816H242.383V137.728H239.759V135.232H238.527V137.728H237.375V138.816H238.527V143.808C238.527 145.488 239.535 146.144 240.863 146.144ZM248.105 146.192C250.601 146.192 252.441 144.208 252.441 141.872V141.84C252.441 139.504 250.617 137.552 248.137 137.552C245.641 137.552 243.817 139.536 243.817 141.872V141.904C243.817 144.24 245.625 146.192 248.105 146.192ZM248.137 145.088C246.393 145.088 245.081 143.648 245.081 141.872V141.84C245.081 140.096 246.313 138.64 248.105 138.64C249.849 138.64 251.177 140.096 251.177 141.872V141.904C251.177 143.648 249.929 145.088 248.137 145.088ZM260.958 146H262.206V134.72H261.278L258.542 135.664L258.846 136.688L260.958 136.032V146ZM269.156 146.192C271.428 146.192 273.172 144.624 273.172 142.464V142.432C273.172 140.336 271.38 138.992 269.3 138.992C267.844 138.992 266.836 139.648 266.1 140.72V140.56C266.1 138.032 267.236 135.76 269.396 135.76C270.42 135.76 271.204 136.16 272.036 136.864L272.772 135.888C271.796 135.088 270.804 134.608 269.46 134.608C266.532 134.608 264.804 137.28 264.804 140.688V140.72C264.804 143.008 265.316 144.16 266.212 145.056C266.916 145.76 267.924 146.192 269.156 146.192ZM269.172 145.072C267.524 145.072 266.34 143.984 266.34 142.56V142.528C266.34 141.28 267.46 140.08 269.14 140.08C270.756 140.08 271.876 141.104 271.876 142.48V142.512C271.876 143.936 270.82 145.072 269.172 145.072ZM280.36 146H281.592V141.264C281.592 139.712 282.648 138.672 284.072 138.672C285.528 138.672 286.36 139.632 286.36 141.168V146H287.592V140.864C287.592 138.896 286.424 137.552 284.424 137.552C283 137.552 282.136 138.272 281.592 139.168V134.32H280.36V146ZM293.996 146.192C296.492 146.192 298.332 144.208 298.332 141.872V141.84C298.332 139.504 296.508 137.552 294.028 137.552C291.532 137.552 289.708 139.536 289.708 141.872V141.904C289.708 144.24 291.516 146.192 293.996 146.192ZM294.028 145.088C292.284 145.088 290.972 143.648 290.972 141.872V141.84C290.972 140.096 292.204 138.64 293.996 138.64C295.74 138.64 297.068 140.096 297.068 141.872V141.904C297.068 143.648 295.82 145.088 294.028 145.088ZM303.604 146.176C305.028 146.176 305.876 145.456 306.436 144.56V146H307.652V137.728H306.436V142.464C306.436 144.016 305.364 145.056 303.956 145.056C302.5 145.056 301.668 144.096 301.668 142.56V137.728H300.436V142.864C300.436 144.832 301.604 146.176 303.604 146.176ZM310.423 146H311.655V142.704C311.655 140.208 313.127 138.912 314.935 138.912H315.031V137.584C313.463 137.52 312.263 138.512 311.655 139.888V137.728H310.423V146ZM319.643 146.16C321.291 146.16 322.587 145.248 322.587 143.68V143.648C322.587 142.16 321.211 141.664 319.931 141.28C318.827 140.944 317.803 140.64 317.803 139.856V139.824C317.803 139.136 318.427 138.624 319.403 138.624C320.203 138.624 321.083 138.928 321.851 139.424L322.411 138.496C321.563 137.936 320.443 137.584 319.435 137.584C317.803 137.584 316.619 138.528 316.619 139.952V139.984C316.619 141.504 318.059 141.952 319.355 142.32C320.443 142.624 321.419 142.944 321.419 143.776V143.808C321.419 144.608 320.699 145.12 319.707 145.12C318.731 145.12 317.739 144.736 316.843 144.064L316.219 144.944C317.147 145.696 318.459 146.16 319.643 146.16ZM41.376 167.56H42.608V163.416C43.248 164.344 44.24 165.176 45.776 165.176C47.776 165.176 49.728 163.576 49.728 160.872V160.84C49.728 158.12 47.76 156.552 45.776 156.552C44.256 156.552 43.28 157.4 42.608 158.392V156.728H41.376V167.56ZM45.552 164.072C44.016 164.072 42.56 162.792 42.56 160.872V160.84C42.56 158.952 44.016 157.656 45.552 157.656C47.12 157.656 48.464 158.904 48.464 160.856V160.888C48.464 162.888 47.152 164.072 45.552 164.072ZM54.465 165.176C55.921 165.176 56.881 164.504 57.457 163.752V165H58.641V159.944C58.641 158.888 58.353 158.088 57.793 157.528C57.185 156.92 56.289 156.616 55.121 156.616C53.921 156.616 53.025 156.888 52.113 157.304L52.481 158.312C53.249 157.96 54.017 157.704 54.993 157.704C56.545 157.704 57.457 158.472 57.457 159.96V160.248C56.721 160.04 55.969 159.896 54.913 159.896C52.817 159.896 51.377 160.824 51.377 162.568V162.6C51.377 164.296 52.929 165.176 54.465 165.176ZM54.705 164.2C53.585 164.2 52.625 163.592 52.625 162.552V162.52C52.625 161.48 53.489 160.808 55.041 160.808C56.049 160.808 56.865 160.984 57.473 161.16V161.96C57.473 163.272 56.225 164.2 54.705 164.2ZM61.2986 154.92H62.7066V153.56H61.2986V154.92ZM61.3786 165H62.6106V156.728H61.3786V165ZM65.4698 165H66.7018V160.264C66.7018 158.712 67.7578 157.672 69.1818 157.672C70.6378 157.672 71.4698 158.632 71.4698 160.168V165H72.7018V159.864C72.7018 157.896 71.5338 156.552 69.5338 156.552C68.1098 156.552 67.2458 157.272 66.7018 158.168V156.728H65.4698V165ZM80.126 165H81.358V161.704C81.358 159.208 82.83 157.912 84.638 157.912H84.734V156.584C83.166 156.52 81.966 157.512 81.358 158.888V156.728H80.126V165ZM89.867 165.192C91.435 165.192 92.443 164.568 93.275 163.64L92.507 162.952C91.835 163.656 91.035 164.12 89.899 164.12C88.427 164.12 87.163 163.112 86.987 161.32H93.547C93.563 161.176 93.563 161.08 93.563 160.92C93.563 158.504 92.155 156.552 89.707 156.552C87.419 156.552 85.739 158.472 85.739 160.856V160.888C85.739 163.448 87.595 165.192 89.867 165.192ZM86.987 160.408C87.147 158.792 88.235 157.592 89.675 157.592C91.323 157.592 92.187 158.904 92.315 160.408H86.987ZM95.8318 165H97.0638V153.32H95.8318V165ZM99.9549 154.92H101.363V153.56H99.9549V154.92ZM100.035 165H101.267V156.728H100.035V165ZM107.742 165.192C109.31 165.192 110.318 164.568 111.15 163.64L110.382 162.952C109.71 163.656 108.91 164.12 107.774 164.12C106.302 164.12 105.038 163.112 104.862 161.32H111.422C111.438 161.176 111.438 161.08 111.438 160.92C111.438 158.504 110.03 156.552 107.582 156.552C105.294 156.552 103.614 158.472 103.614 160.856V160.888C103.614 163.448 105.47 165.192 107.742 165.192ZM104.862 160.408C105.022 158.792 106.11 157.592 107.55 157.592C109.198 157.592 110.062 158.904 110.19 160.408H104.862ZM114.059 165H115.291V157.816H117.899V156.76H115.275V156.088C115.275 154.904 115.755 154.328 116.715 154.328C117.131 154.328 117.467 154.408 117.915 154.536V153.464C117.515 153.32 117.131 153.256 116.555 153.256C115.803 153.256 115.195 153.48 114.779 153.896C114.315 154.36 114.059 155.08 114.059 156.024V156.744H112.923V157.816H114.059V165ZM118.607 165H120.079V163.32H118.607V165ZM130.638 165H131.918V154.968H135.678V153.8H126.878V154.968H130.638V165ZM137.595 165H138.827V160.264C138.827 158.712 139.883 157.672 141.307 157.672C142.763 157.672 143.595 158.632 143.595 160.168V165H144.827V159.864C144.827 157.896 143.659 156.552 141.659 156.552C140.235 156.552 139.371 157.272 138.827 158.168V153.32H137.595V165ZM149.918 165.176C151.374 165.176 152.334 164.504 152.91 163.752V165H154.094V159.944C154.094 158.888 153.806 158.088 153.246 157.528C152.638 156.92 151.742 156.616 150.574 156.616C149.374 156.616 148.478 156.888 147.566 157.304L147.934 158.312C148.702 157.96 149.47 157.704 150.446 157.704C151.998 157.704 152.91 158.472 152.91 159.96V160.248C152.174 160.04 151.422 159.896 150.366 159.896C148.27 159.896 146.83 160.824 146.83 162.568V162.6C146.83 164.296 148.382 165.176 149.918 165.176ZM150.158 164.2C149.038 164.2 148.078 163.592 148.078 162.552V162.52C148.078 161.48 148.942 160.808 150.494 160.808C151.502 160.808 152.318 160.984 152.926 161.16V161.96C152.926 163.272 151.678 164.2 150.158 164.2ZM159.41 165.144C160.002 165.144 160.466 165.016 160.898 164.792V163.736C160.466 163.944 160.114 164.024 159.698 164.024C158.866 164.024 158.306 163.656 158.306 162.648V157.816H160.93V156.728H158.306V154.232H157.074V156.728H155.922V157.816H157.074V162.808C157.074 164.488 158.082 165.144 159.41 165.144ZM162.789 157.432C164.005 157.16 164.565 156.536 164.565 155.24V153.8H163.093V155.48H163.669C163.733 156.168 163.397 156.584 162.597 156.872L162.789 157.432ZM169.393 165.16C171.041 165.16 172.337 164.248 172.337 162.68V162.648C172.337 161.16 170.961 160.664 169.681 160.28C168.577 159.944 167.553 159.64 167.553 158.856V158.824C167.553 158.136 168.177 157.624 169.153 157.624C169.953 157.624 170.833 157.928 171.601 158.424L172.161 157.496C171.313 156.936 170.193 156.584 169.185 156.584C167.553 156.584 166.369 157.528 166.369 158.952V158.984C166.369 160.504 167.809 160.952 169.105 161.32C170.193 161.624 171.169 161.944 171.169 162.776V162.808C171.169 163.608 170.449 164.12 169.457 164.12C168.481 164.12 167.489 163.736 166.593 163.064L165.969 163.944C166.897 164.696 168.209 165.16 169.393 165.16ZM182.463 165.176C183.887 165.176 184.735 164.456 185.295 163.56V165H186.511V156.728H185.295V161.464C185.295 163.016 184.223 164.056 182.815 164.056C181.359 164.056 180.527 163.096 180.527 161.56V156.728H179.295V161.864C179.295 163.832 180.463 165.176 182.463 165.176ZM189.282 167.56H190.514V163.416C191.154 164.344 192.146 165.176 193.682 165.176C195.682 165.176 197.634 163.576 197.634 160.872V160.84C197.634 158.12 195.666 156.552 193.682 156.552C192.162 156.552 191.186 157.4 190.514 158.392V156.728H189.282V167.56ZM193.458 164.072C191.922 164.072 190.466 162.792 190.466 160.872V160.84C190.466 158.952 191.922 157.656 193.458 157.656C195.026 157.656 196.37 158.904 196.37 160.856V160.888C196.37 162.888 195.058 164.072 193.458 164.072ZM207.472 165.144C208.064 165.144 208.528 165.016 208.96 164.792V163.736C208.528 163.944 208.176 164.024 207.76 164.024C206.928 164.024 206.368 163.656 206.368 162.648V157.816H208.992V156.728H206.368V154.232H205.136V156.728H203.984V157.816H205.136V162.808C205.136 164.488 206.144 165.144 207.472 165.144ZM214.715 165.192C217.211 165.192 219.051 163.208 219.051 160.872V160.84C219.051 158.504 217.227 156.552 214.747 156.552C212.251 156.552 210.427 158.536 210.427 160.872V160.904C210.427 163.24 212.235 165.192 214.715 165.192ZM214.747 164.088C213.003 164.088 211.691 162.648 211.691 160.872V160.84C211.691 159.096 212.923 157.64 214.715 157.64C216.459 157.64 217.786 159.096 217.786 160.872V160.904C217.786 162.648 216.539 164.088 214.747 164.088ZM229.743 165.16C232.127 165.16 233.951 163.88 233.951 161.976V161.944C233.951 160.616 232.975 159.704 231.647 159.208C232.687 158.728 233.567 157.928 233.567 156.632V156.6C233.567 154.872 231.791 153.64 229.743 153.64C227.695 153.64 225.919 154.872 225.919 156.6V156.632C225.919 157.928 226.799 158.728 227.839 159.208C226.495 159.688 225.535 160.632 225.535 161.96V161.992C225.535 163.864 227.359 165.16 229.743 165.16ZM229.743 158.76C228.319 158.76 227.183 157.928 227.183 156.712V156.68C227.183 155.56 228.287 154.744 229.743 154.744C231.199 154.744 232.303 155.576 232.303 156.68V156.712C232.303 157.928 231.167 158.76 229.743 158.76ZM229.743 164.056C227.903 164.056 226.815 163.08 226.815 161.96V161.928C226.815 160.68 228.111 159.8 229.743 159.8C231.375 159.8 232.671 160.68 232.671 161.928V161.96C232.671 163.096 231.583 164.056 229.743 164.056ZM240.954 165H242.186V160.264C242.186 158.712 243.242 157.672 244.666 157.672C246.122 157.672 246.954 158.632 246.954 160.168V165H248.186V159.864C248.186 157.896 247.018 156.552 245.018 156.552C243.594 156.552 242.73 157.272 242.186 158.168V153.32H240.954V165ZM254.59 165.192C257.086 165.192 258.926 163.208 258.926 160.872V160.84C258.926 158.504 257.102 156.552 254.622 156.552C252.126 156.552 250.302 158.536 250.302 160.872V160.904C250.302 163.24 252.11 165.192 254.59 165.192ZM254.622 164.088C252.878 164.088 251.566 162.648 251.566 160.872V160.84C251.566 159.096 252.798 157.64 254.59 157.64C256.334 157.64 257.661 159.096 257.661 160.872V160.904C257.661 162.648 256.414 164.088 254.622 164.088ZM264.197 165.176C265.621 165.176 266.469 164.456 267.029 163.56V165H268.245V156.728H267.029V161.464C267.029 163.016 265.957 164.056 264.549 164.056C263.093 164.056 262.261 163.096 262.261 161.56V156.728H261.029V161.864C261.029 163.832 262.197 165.176 264.197 165.176ZM271.017 165H272.249V161.704C272.249 159.208 273.721 157.912 275.529 157.912H275.625V156.584C274.057 156.52 272.857 157.512 272.249 158.888V156.728H271.017V165ZM280.237 165.16C281.885 165.16 283.181 164.248 283.181 162.68V162.648C283.181 161.16 281.805 160.664 280.525 160.28C279.421 159.944 278.397 159.64 278.397 158.856V158.824C278.397 158.136 279.021 157.624 279.997 157.624C280.797 157.624 281.677 157.928 282.445 158.424L283.005 157.496C282.157 156.936 281.037 156.584 280.029 156.584C278.397 156.584 277.213 157.528 277.213 158.952V158.984C277.213 160.504 278.653 160.952 279.949 161.32C281.037 161.624 282.013 161.944 282.013 162.776V162.808C282.013 163.608 281.293 164.12 280.301 164.12C279.325 164.12 278.333 163.736 277.437 163.064L276.813 163.944C277.741 164.696 279.053 165.16 280.237 165.16ZM43.568 184.064H44.656L46.896 177.536L49.12 184.064H50.192L53.104 175.728H51.824L49.648 182.368L47.408 175.696H46.384L44.16 182.368L41.984 175.728H40.672L43.568 184.064ZM55.1573 184H56.3893V179.264C56.3893 177.712 57.4453 176.672 58.8693 176.672C60.3253 176.672 61.1573 177.632 61.1573 179.168V184H62.3893V178.864C62.3893 176.896 61.2213 175.552 59.2213 175.552C57.7973 175.552 56.9333 176.272 56.3893 177.168V172.32H55.1573V184ZM65.0486 173.92H66.4566V172.56H65.0486V173.92ZM65.1286 184H66.3606V175.728H65.1286V184ZM69.3318 184H70.5638V172.32H69.3318V184ZM77.0389 184.192C78.6069 184.192 79.6149 183.568 80.4469 182.64L79.6789 181.952C79.0069 182.656 78.2069 183.12 77.0709 183.12C75.5989 183.12 74.3349 182.112 74.1589 180.32H80.7189C80.7349 180.176 80.7349 180.08 80.7349 179.92C80.7349 177.504 79.3269 175.552 76.8789 175.552C74.5909 175.552 72.9109 177.472 72.9109 179.856V179.888C72.9109 182.448 74.7669 184.192 77.0389 184.192ZM74.1589 179.408C74.3189 177.792 75.4069 176.592 76.8469 176.592C78.4949 176.592 79.3589 177.904 79.4869 179.408H74.1589ZM91.2245 182.624L88.2165 175.728H86.8565L90.6165 183.968C90.1205 185.136 89.6565 185.52 88.9205 185.52C88.3925 185.52 88.0245 185.424 87.6245 185.216L87.2085 186.192C87.7685 186.464 88.2805 186.608 88.9685 186.608C90.2165 186.608 91.0165 185.984 91.7205 184.272L95.1925 175.728H93.8805L91.2245 182.624ZM100.433 184.192C102.929 184.192 104.769 182.208 104.769 179.872V179.84C104.769 177.504 102.945 175.552 100.465 175.552C97.9693 175.552 96.1453 177.536 96.1453 179.872V179.904C96.1453 182.24 97.9533 184.192 100.433 184.192ZM100.465 183.088C98.7213 183.088 97.4093 181.648 97.4093 179.872V179.84C97.4093 178.096 98.6413 176.64 100.433 176.64C102.177 176.64 103.505 178.096 103.505 179.872V179.904C103.505 181.648 102.257 183.088 100.465 183.088ZM110.041 184.176C111.465 184.176 112.313 183.456 112.873 182.56V184H114.089V175.728H112.873V180.464C112.873 182.016 111.801 183.056 110.393 183.056C108.937 183.056 108.105 182.096 108.105 180.56V175.728H106.873V180.864C106.873 182.832 108.041 184.176 110.041 184.176ZM123.849 184.064H124.937L127.177 177.536L129.401 184.064H130.473L133.385 175.728H132.105L129.929 182.368L127.689 175.696H126.665L124.441 182.368L122.265 175.728H120.953L123.849 184.064ZM138.648 184.192C140.216 184.192 141.224 183.568 142.056 182.64L141.288 181.952C140.616 182.656 139.816 183.12 138.68 183.12C137.208 183.12 135.944 182.112 135.768 180.32H142.328C142.344 180.176 142.344 180.08 142.344 179.92C142.344 177.504 140.936 175.552 138.488 175.552C136.2 175.552 134.52 177.472 134.52 179.856V179.888C134.52 182.448 136.376 184.192 138.648 184.192ZM135.768 179.408C135.928 177.792 137.016 176.592 138.456 176.592C140.104 176.592 140.968 177.904 141.096 179.408H135.768ZM146.965 184.176C148.421 184.176 149.381 183.504 149.957 182.752V184H151.141V178.944C151.141 177.888 150.853 177.088 150.293 176.528C149.685 175.92 148.789 175.616 147.621 175.616C146.421 175.616 145.525 175.888 144.613 176.304L144.981 177.312C145.749 176.96 146.517 176.704 147.493 176.704C149.045 176.704 149.957 177.472 149.957 178.96V179.248C149.221 179.04 148.469 178.896 147.413 178.896C145.317 178.896 143.877 179.824 143.877 181.568V181.6C143.877 183.296 145.429 184.176 146.965 184.176ZM147.205 183.2C146.085 183.2 145.125 182.592 145.125 181.552V181.52C145.125 180.48 145.989 179.808 147.541 179.808C148.549 179.808 149.365 179.984 149.973 180.16V180.96C149.973 182.272 148.725 183.2 147.205 183.2ZM153.767 184H154.999V180.704C154.999 178.208 156.471 176.912 158.279 176.912H158.375V175.584C156.807 175.52 155.607 176.512 154.999 177.888V175.728H153.767V184ZM167.816 184.144C168.408 184.144 168.872 184.016 169.304 183.792V182.736C168.872 182.944 168.52 183.024 168.104 183.024C167.272 183.024 166.712 182.656 166.712 181.648V176.816H169.336V175.728H166.712V173.232H165.48V175.728H164.328V176.816H165.48V181.808C165.48 183.488 166.488 184.144 167.816 184.144ZM171.517 184H172.749V179.264C172.749 177.712 173.805 176.672 175.229 176.672C176.685 176.672 177.517 177.632 177.517 179.168V184H178.749V178.864C178.749 176.896 177.581 175.552 175.581 175.552C174.157 175.552 173.293 176.272 172.749 177.168V172.32H171.517V184ZM184.992 184.192C186.56 184.192 187.568 183.568 188.4 182.64L187.632 181.952C186.96 182.656 186.16 183.12 185.024 183.12C183.552 183.12 182.288 182.112 182.112 180.32H188.672C188.688 180.176 188.688 180.08 188.688 179.92C188.688 177.504 187.28 175.552 184.832 175.552C182.544 175.552 180.864 177.472 180.864 179.856V179.888C180.864 182.448 182.72 184.192 184.992 184.192ZM182.112 179.408C182.272 177.792 183.36 176.592 184.8 176.592C186.448 176.592 187.312 177.904 187.44 179.408H182.112ZM195.642 184H196.874V179.264C196.874 177.712 197.93 176.672 199.354 176.672C200.81 176.672 201.642 177.632 201.642 179.168V184H202.874V178.864C202.874 176.896 201.706 175.552 199.706 175.552C198.282 175.552 197.418 176.272 196.874 177.168V172.32H195.642V184ZM209.117 184.192C210.685 184.192 211.693 183.568 212.525 182.64L211.757 181.952C211.085 182.656 210.285 183.12 209.149 183.12C207.677 183.12 206.413 182.112 206.237 180.32H212.797C212.813 180.176 212.813 180.08 212.813 179.92C212.813 177.504 211.405 175.552 208.957 175.552C206.669 175.552 204.989 177.472 204.989 179.856V179.888C204.989 182.448 206.845 184.192 209.117 184.192ZM206.237 179.408C206.397 177.792 207.485 176.592 208.925 176.592C210.573 176.592 211.437 177.904 211.565 179.408H206.237ZM217.434 184.176C218.89 184.176 219.85 183.504 220.426 182.752V184H221.61V178.944C221.61 177.888 221.322 177.088 220.762 176.528C220.154 175.92 219.258 175.616 218.09 175.616C216.89 175.616 215.994 175.888 215.082 176.304L215.45 177.312C216.218 176.96 216.986 176.704 217.962 176.704C219.514 176.704 220.426 177.472 220.426 178.96V179.248C219.69 179.04 218.938 178.896 217.882 178.896C215.786 178.896 214.346 179.824 214.346 181.568V181.6C214.346 183.296 215.898 184.176 217.434 184.176ZM217.674 183.2C216.554 183.2 215.594 182.592 215.594 181.552V181.52C215.594 180.48 216.458 179.808 218.01 179.808C219.018 179.808 219.834 179.984 220.442 180.16V180.96C220.442 182.272 219.194 183.2 217.674 183.2ZM226.925 184.144C227.517 184.144 227.981 184.016 228.413 183.792V182.736C227.981 182.944 227.629 183.024 227.213 183.024C226.381 183.024 225.821 182.656 225.821 181.648V176.816H228.445V175.728H225.821V173.232H224.589V175.728H223.437V176.816H224.589V181.808C224.589 183.488 225.597 184.144 226.925 184.144ZM237.615 184.064H238.703L240.943 177.536L243.167 184.064H244.239L247.151 175.728H245.871L243.695 182.368L241.455 175.696H240.431L238.207 182.368L236.031 175.728H234.719L237.615 184.064ZM249.204 184H250.436V180.704C250.436 178.208 251.908 176.912 253.716 176.912H253.812V175.584C252.244 175.52 251.044 176.512 250.436 177.888V175.728H249.204V184ZM257.746 184.176C259.202 184.176 260.162 183.504 260.738 182.752V184H261.922V178.944C261.922 177.888 261.634 177.088 261.074 176.528C260.466 175.92 259.57 175.616 258.402 175.616C257.202 175.616 256.306 175.888 255.394 176.304L255.762 177.312C256.53 176.96 257.298 176.704 258.274 176.704C259.826 176.704 260.738 177.472 260.738 178.96V179.248C260.002 179.04 259.25 178.896 258.194 178.896C256.098 178.896 254.658 179.824 254.658 181.568V181.6C254.658 183.296 256.21 184.176 257.746 184.176ZM257.986 183.2C256.866 183.2 255.906 182.592 255.906 181.552V181.52C255.906 180.48 256.77 179.808 258.322 179.808C259.33 179.808 260.146 179.984 260.754 180.16V180.96C260.754 182.272 259.506 183.2 257.986 183.2ZM264.548 186.56H265.78V182.416C266.42 183.344 267.412 184.176 268.948 184.176C270.948 184.176 272.9 182.576 272.9 179.872V179.84C272.9 177.12 270.932 175.552 268.948 175.552C267.428 175.552 266.452 176.4 265.78 177.392V175.728H264.548V186.56ZM268.724 183.072C267.188 183.072 265.732 181.792 265.732 179.872V179.84C265.732 177.952 267.188 176.656 268.724 176.656C270.292 176.656 271.636 177.904 271.636 179.856V179.888C271.636 181.888 270.324 183.072 268.724 183.072ZM279.97 186.56H281.202V182.416C281.842 183.344 282.834 184.176 284.37 184.176C286.37 184.176 288.322 182.576 288.322 179.872V179.84C288.322 177.12 286.354 175.552 284.37 175.552C282.85 175.552 281.874 176.4 281.202 177.392V175.728H279.97V186.56ZM284.146 183.072C282.61 183.072 281.154 181.792 281.154 179.872V179.84C281.154 177.952 282.61 176.656 284.146 176.656C285.714 176.656 287.058 177.904 287.058 179.856V179.888C287.058 181.888 285.746 183.072 284.146 183.072ZM290.707 184H291.939V172.32H290.707V184ZM297.838 184.176C299.262 184.176 300.11 183.456 300.67 182.56V184H301.886V175.728H300.67V180.464C300.67 182.016 299.598 183.056 298.19 183.056C296.734 183.056 295.902 182.096 295.902 180.56V175.728H294.67V180.864C294.67 182.832 295.838 184.176 297.838 184.176ZM307.393 184.16C309.041 184.16 310.337 183.248 310.337 181.68V181.648C310.337 180.16 308.961 179.664 307.681 179.28C306.577 178.944 305.553 178.64 305.553 177.856V177.824C305.553 177.136 306.177 176.624 307.153 176.624C307.953 176.624 308.833 176.928 309.601 177.424L310.161 176.496C309.313 175.936 308.193 175.584 307.185 175.584C305.553 175.584 304.369 176.528 304.369 177.952V177.984C304.369 179.504 305.809 179.952 307.105 180.32C308.193 180.624 309.169 180.944 309.169 181.776V181.808C309.169 182.608 308.449 183.12 307.457 183.12C306.481 183.12 305.489 182.736 304.593 182.064L303.969 182.944C304.897 183.696 306.209 184.16 307.393 184.16ZM43.84 203.176C45.296 203.176 46.256 202.504 46.832 201.752V203H48.016V197.944C48.016 196.888 47.728 196.088 47.168 195.528C46.56 194.92 45.664 194.616 44.496 194.616C43.296 194.616 42.4 194.888 41.488 195.304L41.856 196.312C42.624 195.96 43.392 195.704 44.368 195.704C45.92 195.704 46.832 196.472 46.832 197.96V198.248C46.096 198.04 45.344 197.896 44.288 197.896C42.192 197.896 40.752 198.824 40.752 200.568V200.6C40.752 202.296 42.304 203.176 43.84 203.176ZM44.08 202.2C42.96 202.2 42 201.592 42 200.552V200.52C42 199.48 42.864 198.808 44.416 198.808C45.424 198.808 46.24 198.984 46.848 199.16V199.96C46.848 201.272 45.6 202.2 44.08 202.2ZM50.6416 203H51.8736V198.264C51.8736 196.712 52.9296 195.672 54.3536 195.672C55.8096 195.672 56.6416 196.632 56.6416 198.168V203H57.8736V197.864C57.8736 195.896 56.7056 194.552 54.7056 194.552C53.2816 194.552 52.4176 195.272 51.8736 196.168V194.728H50.6416V203ZM67.7619 203.176C69.2179 203.176 70.1779 202.504 70.7539 201.752V203H71.9379V197.944C71.9379 196.888 71.6499 196.088 71.0899 195.528C70.4819 194.92 69.5859 194.616 68.4179 194.616C67.2179 194.616 66.3219 194.888 65.4099 195.304L65.7779 196.312C66.5459 195.96 67.3139 195.704 68.2899 195.704C69.8419 195.704 70.7539 196.472 70.7539 197.96V198.248C70.0179 198.04 69.2659 197.896 68.2099 197.896C66.1139 197.896 64.6739 198.824 64.6739 200.568V200.6C64.6739 202.296 66.2259 203.176 67.7619 203.176ZM68.0019 202.2C66.8819 202.2 65.9219 201.592 65.9219 200.552V200.52C65.9219 199.48 66.7859 198.808 68.3379 198.808C69.3459 198.808 70.1619 198.984 70.7699 199.16V199.96C70.7699 201.272 69.5219 202.2 68.0019 202.2ZM78.0355 203.176C79.5555 203.176 80.5315 202.328 81.2035 201.336V203H82.4355V191.32H81.2035V196.312C80.5635 195.384 79.5715 194.552 78.0355 194.552C76.0515 194.552 74.0835 196.152 74.0835 198.856V198.888C74.0835 201.608 76.0515 203.176 78.0355 203.176ZM78.2595 202.072C76.7075 202.072 75.3475 200.824 75.3475 198.872V198.84C75.3475 196.84 76.6595 195.656 78.2595 195.656C79.7955 195.656 81.2515 196.936 81.2515 198.84V198.872C81.2515 200.776 79.7955 202.072 78.2595 202.072ZM88.6605 203.176C90.1805 203.176 91.1565 202.328 91.8285 201.336V203H93.0605V191.32H91.8285V196.312C91.1885 195.384 90.1965 194.552 88.6605 194.552C86.6765 194.552 84.7085 196.152 84.7085 198.856V198.888C84.7085 201.608 86.6765 203.176 88.6605 203.176ZM88.8845 202.072C87.3325 202.072 85.9725 200.824 85.9725 198.872V198.84C85.9725 196.84 87.2845 195.656 88.8845 195.656C90.4205 195.656 91.8765 196.936 91.8765 198.84V198.872C91.8765 200.776 90.4205 202.072 88.8845 202.072ZM95.8455 192.92H97.2535V191.56H95.8455V192.92ZM95.9255 203H97.1575V194.728H95.9255V203ZM102.785 203.144C103.377 203.144 103.841 203.016 104.273 202.792V201.736C103.841 201.944 103.489 202.024 103.073 202.024C102.241 202.024 101.681 201.656 101.681 200.648V195.816H104.305V194.728H101.681V192.232H100.449V194.728H99.2966V195.816H100.449V200.808C100.449 202.488 101.457 203.144 102.785 203.144ZM106.517 192.92H107.925V191.56H106.517V192.92ZM106.597 203H107.829V194.728H106.597V203ZM114.465 203.192C116.961 203.192 118.801 201.208 118.801 198.872V198.84C118.801 196.504 116.977 194.552 114.497 194.552C112.001 194.552 110.177 196.536 110.177 198.872V198.904C110.177 201.24 111.985 203.192 114.465 203.192ZM114.497 202.088C112.753 202.088 111.441 200.648 111.441 198.872V198.84C111.441 197.096 112.673 195.64 114.465 195.64C116.209 195.64 117.536 197.096 117.536 198.872V198.904C117.536 200.648 116.289 202.088 114.497 202.088ZM121.032 203H122.264V198.264C122.264 196.712 123.32 195.672 124.744 195.672C126.2 195.672 127.032 196.632 127.032 198.168V203H128.264V197.864C128.264 195.896 127.096 194.552 125.096 194.552C123.672 194.552 122.808 195.272 122.264 196.168V194.728H121.032V203ZM133.356 203.176C134.812 203.176 135.772 202.504 136.348 201.752V203H137.532V197.944C137.532 196.888 137.244 196.088 136.684 195.528C136.076 194.92 135.18 194.616 134.012 194.616C132.812 194.616 131.916 194.888 131.004 195.304L131.372 196.312C132.14 195.96 132.908 195.704 133.884 195.704C135.436 195.704 136.348 196.472 136.348 197.96V198.248C135.612 198.04 134.86 197.896 133.804 197.896C131.708 197.896 130.268 198.824 130.268 200.568V200.6C130.268 202.296 131.82 203.176 133.356 203.176ZM133.596 202.2C132.476 202.2 131.516 201.592 131.516 200.552V200.52C131.516 199.48 132.38 198.808 133.932 198.808C134.94 198.808 135.756 198.984 136.364 199.16V199.96C136.364 201.272 135.116 202.2 133.596 202.2ZM140.269 203H141.501V191.32H140.269V203ZM152.821 203.16C155.205 203.16 157.029 201.88 157.029 199.976V199.944C157.029 198.616 156.053 197.704 154.725 197.208C155.765 196.728 156.645 195.928 156.645 194.632V194.6C156.645 192.872 154.869 191.64 152.821 191.64C150.773 191.64 148.997 192.872 148.997 194.6V194.632C148.997 195.928 149.877 196.728 150.917 197.208C149.573 197.688 148.613 198.632 148.613 199.96V199.992C148.613 201.864 150.437 203.16 152.821 203.16ZM152.821 196.76C151.397 196.76 150.261 195.928 150.261 194.712V194.68C150.261 193.56 151.365 192.744 152.821 192.744C154.277 192.744 155.381 193.576 155.381 194.68V194.712C155.381 195.928 154.245 196.76 152.821 196.76ZM152.821 202.056C150.981 202.056 149.893 201.08 149.893 199.96V199.928C149.893 198.68 151.189 197.8 152.821 197.8C154.453 197.8 155.749 198.68 155.749 199.928V199.96C155.749 201.096 154.661 202.056 152.821 202.056ZM164.032 203H165.264V198.264C165.264 196.712 166.32 195.672 167.744 195.672C169.2 195.672 170.032 196.632 170.032 198.168V203H171.264V197.864C171.264 195.896 170.096 194.552 168.096 194.552C166.672 194.552 165.808 195.272 165.264 196.168V191.32H164.032V203ZM177.668 203.192C180.164 203.192 182.004 201.208 182.004 198.872V198.84C182.004 196.504 180.18 194.552 177.7 194.552C175.204 194.552 173.38 196.536 173.38 198.872V198.904C173.38 201.24 175.188 203.192 177.668 203.192ZM177.7 202.088C175.956 202.088 174.644 200.648 174.644 198.872V198.84C174.644 197.096 175.876 195.64 177.668 195.64C179.412 195.64 180.74 197.096 180.74 198.872V198.904C180.74 200.648 179.492 202.088 177.7 202.088ZM187.275 203.176C188.699 203.176 189.547 202.456 190.107 201.56V203H191.323V194.728H190.107V199.464C190.107 201.016 189.035 202.056 187.627 202.056C186.171 202.056 185.339 201.096 185.339 199.56V194.728H184.107V199.864C184.107 201.832 185.275 203.176 187.275 203.176ZM194.095 203H195.327V199.704C195.327 197.208 196.799 195.912 198.607 195.912H198.703V194.584C197.135 194.52 195.935 195.512 195.327 196.888V194.728H194.095V203ZM203.315 203.16C204.963 203.16 206.259 202.248 206.259 200.68V200.648C206.259 199.16 204.883 198.664 203.603 198.28C202.499 197.944 201.475 197.64 201.475 196.856V196.824C201.475 196.136 202.099 195.624 203.075 195.624C203.875 195.624 204.755 195.928 205.523 196.424L206.083 195.496C205.235 194.936 204.115 194.584 203.107 194.584C201.475 194.584 200.291 195.528 200.291 196.952V196.984C200.291 198.504 201.731 198.952 203.027 199.32C204.115 199.624 205.091 199.944 205.091 200.776V200.808C205.091 201.608 204.371 202.12 203.379 202.12C202.403 202.12 201.411 201.736 200.515 201.064L199.891 201.944C200.819 202.696 202.131 203.16 203.315 203.16ZM217.121 203.192C219.617 203.192 221.457 201.208 221.457 198.872V198.84C221.457 196.504 219.633 194.552 217.153 194.552C214.657 194.552 212.833 196.536 212.833 198.872V198.904C212.833 201.24 214.641 203.192 217.121 203.192ZM217.153 202.088C215.409 202.088 214.097 200.648 214.097 198.872V198.84C214.097 197.096 215.329 195.64 217.121 195.64C218.865 195.64 220.193 197.096 220.193 198.872V198.904C220.193 200.648 218.945 202.088 217.153 202.088ZM224.153 203H225.385V195.816H227.993V194.76H225.369V194.088C225.369 192.904 225.849 192.328 226.809 192.328C227.225 192.328 227.561 192.408 228.009 192.536V191.464C227.609 191.32 227.225 191.256 226.649 191.256C225.897 191.256 225.289 191.48 224.873 191.896C224.409 192.36 224.153 193.08 224.153 194.024V194.744H223.017V195.816H224.153V203ZM234.36 205.56H235.592V201.416C236.232 202.344 237.224 203.176 238.76 203.176C240.76 203.176 242.712 201.576 242.712 198.872V198.84C242.712 196.12 240.744 194.552 238.76 194.552C237.24 194.552 236.264 195.4 235.592 196.392V194.728H234.36V205.56ZM238.536 202.072C237 202.072 235.544 200.792 235.544 198.872V198.84C235.544 196.952 237 195.656 238.536 195.656C240.104 195.656 241.448 196.904 241.448 198.856V198.888C241.448 200.888 240.136 202.072 238.536 202.072ZM247.449 203.176C248.905 203.176 249.865 202.504 250.441 201.752V203H251.625V197.944C251.625 196.888 251.337 196.088 250.777 195.528C250.169 194.92 249.273 194.616 248.105 194.616C246.905 194.616 246.009 194.888 245.097 195.304L245.465 196.312C246.233 195.96 247.001 195.704 247.977 195.704C249.529 195.704 250.441 196.472 250.441 197.96V198.248C249.705 198.04 248.953 197.896 247.897 197.896C245.801 197.896 244.361 198.824 244.361 200.568V200.6C244.361 202.296 245.913 203.176 247.449 203.176ZM247.689 202.2C246.569 202.2 245.609 201.592 245.609 200.552V200.52C245.609 199.48 246.473 198.808 248.025 198.808C249.033 198.808 249.849 198.984 250.457 199.16V199.96C250.457 201.272 249.209 202.2 247.689 202.2ZM254.283 192.92H255.691V191.56H254.283V192.92ZM254.363 203H255.595V194.728H254.363V203ZM258.454 203H259.686V198.264C259.686 196.712 260.742 195.672 262.166 195.672C263.622 195.672 264.454 196.632 264.454 198.168V203H265.686V197.864C265.686 195.896 264.518 194.552 262.518 194.552C261.094 194.552 260.23 195.272 259.686 196.168V194.728H258.454V203ZM273.11 203H274.342V199.704C274.342 197.208 275.814 195.912 277.622 195.912H277.718V194.584C276.15 194.52 274.95 195.512 274.342 196.888V194.728H273.11V203ZM282.851 203.192C284.419 203.192 285.427 202.568 286.259 201.64L285.491 200.952C284.819 201.656 284.019 202.12 282.883 202.12C281.411 202.12 280.147 201.112 279.971 199.32H286.531C286.547 199.176 286.547 199.08 286.547 198.92C286.547 196.504 285.139 194.552 282.691 194.552C280.403 194.552 278.723 196.472 278.723 198.856V198.888C278.723 201.448 280.579 203.192 282.851 203.192ZM279.971 198.408C280.131 196.792 281.219 195.592 282.659 195.592C284.307 195.592 285.171 196.904 285.299 198.408H279.971ZM288.816 203H290.048V191.32H288.816V203ZM292.939 192.92H294.347V191.56H292.939V192.92ZM293.019 203H294.251V194.728H293.019V203ZM300.726 203.192C302.294 203.192 303.302 202.568 304.134 201.64L303.366 200.952C302.694 201.656 301.894 202.12 300.758 202.12C299.286 202.12 298.022 201.112 297.846 199.32H304.406C304.422 199.176 304.422 199.08 304.422 198.92C304.422 196.504 303.014 194.552 300.566 194.552C298.278 194.552 296.598 196.472 296.598 198.856V198.888C296.598 201.448 298.454 203.192 300.726 203.192ZM297.846 198.408C298.006 196.792 299.094 195.592 300.534 195.592C302.182 195.592 303.046 196.904 303.174 198.408H297.846ZM307.043 203H308.275V195.816H310.883V194.76H308.259V194.088C308.259 192.904 308.739 192.328 309.699 192.328C310.115 192.328 310.451 192.408 310.899 192.536V191.464C310.499 191.32 310.115 191.256 309.539 191.256C308.787 191.256 308.179 191.48 307.763 191.896C307.299 192.36 307.043 193.08 307.043 194.024V194.744H305.907V195.816H307.043V203ZM43.84 222.176C45.296 222.176 46.256 221.504 46.832 220.752V222H48.016V216.944C48.016 215.888 47.728 215.088 47.168 214.528C46.56 213.92 45.664 213.616 44.496 213.616C43.296 213.616 42.4 213.888 41.488 214.304L41.856 215.312C42.624 214.96 43.392 214.704 44.368 214.704C45.92 214.704 46.832 215.472 46.832 216.96V217.248C46.096 217.04 45.344 216.896 44.288 216.896C42.192 216.896 40.752 217.824 40.752 219.568V219.6C40.752 221.296 42.304 222.176 43.84 222.176ZM44.08 221.2C42.96 221.2 42 220.592 42 219.552V219.52C42 218.48 42.864 217.808 44.416 217.808C45.424 217.808 46.24 217.984 46.848 218.16V218.96C46.848 220.272 45.6 221.2 44.08 221.2ZM51.1056 222H52.3376V214.816H54.9456V213.76H52.3216V213.088C52.3216 211.904 52.8016 211.328 53.7616 211.328C54.1776 211.328 54.5136 211.408 54.9616 211.536V210.464C54.5616 210.32 54.1776 210.256 53.6016 210.256C52.8496 210.256 52.2416 210.48 51.8256 210.896C51.3616 211.36 51.1056 212.08 51.1056 213.024V213.744H49.9696V214.816H51.1056V222ZM59.2846 222.144C59.8766 222.144 60.3406 222.016 60.7726 221.792V220.736C60.3406 220.944 59.9886 221.024 59.5726 221.024C58.7406 221.024 58.1806 220.656 58.1806 219.648V214.816H60.8046V213.728H58.1806V211.232H56.9486V213.728H55.7966V214.816H56.9486V219.808C56.9486 221.488 57.9566 222.144 59.2846 222.144ZM66.367 222.192C67.935 222.192 68.943 221.568 69.775 220.64L69.007 219.952C68.335 220.656 67.535 221.12 66.399 221.12C64.927 221.12 63.663 220.112 63.487 218.32H70.047C70.063 218.176 70.063 218.08 70.063 217.92C70.063 215.504 68.655 213.552 66.207 213.552C63.919 213.552 62.239 215.472 62.239 217.856V217.888C62.239 220.448 64.095 222.192 66.367 222.192ZM63.487 217.408C63.647 215.792 64.735 214.592 66.175 214.592C67.823 214.592 68.687 215.904 68.815 217.408H63.487ZM72.2198 222H73.4518V218.704C73.4518 216.208 74.9238 214.912 76.7318 214.912H76.8278V213.584C75.2598 213.52 74.0598 214.512 73.4518 215.888V213.728H72.2198V222ZM87.037 220.624L84.029 213.728H82.669L86.429 221.968C85.933 223.136 85.469 223.52 84.733 223.52C84.205 223.52 83.837 223.424 83.437 223.216L83.021 224.192C83.581 224.464 84.093 224.608 84.781 224.608C86.029 224.608 86.829 223.984 87.533 222.272L91.005 213.728H89.693L87.037 220.624ZM96.2458 222.192C98.7418 222.192 100.582 220.208 100.582 217.872V217.84C100.582 215.504 98.7578 213.552 96.2778 213.552C93.7818 213.552 91.9578 215.536 91.9578 217.872V217.904C91.9578 220.24 93.7658 222.192 96.2458 222.192ZM96.2778 221.088C94.5338 221.088 93.2218 219.648 93.2218 217.872V217.84C93.2218 216.096 94.4538 214.64 96.2458 214.64C97.9898 214.64 99.3177 216.096 99.3177 217.872V217.904C99.3177 219.648 98.0698 221.088 96.2778 221.088ZM105.854 222.176C107.278 222.176 108.126 221.456 108.686 220.56V222H109.902V213.728H108.686V218.464C108.686 220.016 107.614 221.056 106.206 221.056C104.75 221.056 103.918 220.096 103.918 218.56V213.728H102.686V218.864C102.686 220.832 103.854 222.176 105.854 222.176ZM120.238 222.144C120.83 222.144 121.294 222.016 121.726 221.792V220.736C121.294 220.944 120.942 221.024 120.526 221.024C119.694 221.024 119.134 220.656 119.134 219.648V214.816H121.758V213.728H119.134V211.232H117.902V213.728H116.75V214.816H117.902V219.808C117.902 221.488 118.91 222.144 120.238 222.144ZM126.403 222.176C127.859 222.176 128.819 221.504 129.395 220.752V222H130.579V216.944C130.579 215.888 130.291 215.088 129.731 214.528C129.123 213.92 128.227 213.616 127.059 213.616C125.859 213.616 124.963 213.888 124.051 214.304L124.419 215.312C125.187 214.96 125.955 214.704 126.931 214.704C128.483 214.704 129.395 215.472 129.395 216.96V217.248C128.659 217.04 127.907 216.896 126.851 216.896C124.755 216.896 123.315 217.824 123.315 219.568V219.6C123.315 221.296 124.867 222.176 126.403 222.176ZM126.643 221.2C125.523 221.2 124.562 220.592 124.562 219.552V219.52C124.562 218.48 125.427 217.808 126.979 217.808C127.987 217.808 128.803 217.984 129.411 218.16V218.96C129.411 220.272 128.163 221.2 126.643 221.2ZM133.204 222H134.436V219.84L136.116 218.144L139.076 222H140.548L136.964 217.28L140.436 213.728H138.9L134.436 218.384V210.32H133.204V222ZM145.523 222.192C147.091 222.192 148.099 221.568 148.931 220.64L148.163 219.952C147.491 220.656 146.691 221.12 145.555 221.12C144.083 221.12 142.819 220.112 142.643 218.32H149.203C149.219 218.176 149.219 218.08 149.219 217.92C149.219 215.504 147.811 213.552 145.363 213.552C143.075 213.552 141.395 215.472 141.395 217.856V217.888C141.395 220.448 143.251 222.192 145.523 222.192ZM142.643 217.408C142.803 215.792 143.891 214.592 145.331 214.592C146.979 214.592 147.843 215.904 147.971 217.408H142.643ZM156.205 211.92H157.613V210.56H156.205V211.92ZM156.285 222H157.517V213.728H156.285V222ZM163.144 222.144C163.736 222.144 164.2 222.016 164.632 221.792V220.736C164.2 220.944 163.848 221.024 163.432 221.024C162.6 221.024 162.04 220.656 162.04 219.648V214.816H164.664V213.728H162.04V211.232H160.808V213.728H159.656V214.816H160.808V219.808C160.808 221.488 161.816 222.144 163.144 222.144ZM175.418 222.192C177.914 222.192 179.754 220.208 179.754 217.872V217.84C179.754 215.504 177.93 213.552 175.45 213.552C172.954 213.552 171.13 215.536 171.13 217.872V217.904C171.13 220.24 172.938 222.192 175.418 222.192ZM175.45 221.088C173.706 221.088 172.394 219.648 172.394 217.872V217.84C172.394 216.096 173.626 214.64 175.418 214.64C177.162 214.64 178.49 216.096 178.49 217.872V217.904C178.49 219.648 177.242 221.088 175.45 221.088ZM182.449 222H183.681V214.816H186.289V213.76H183.665V213.088C183.665 211.904 184.145 211.328 185.105 211.328C185.521 211.328 185.857 211.408 186.305 211.536V210.464C185.905 210.32 185.521 210.256 184.945 210.256C184.193 210.256 183.585 210.48 183.169 210.896C182.705 211.36 182.449 212.08 182.449 213.024V213.744H181.313V214.816H182.449V222ZM188.337 222H189.553V214.816H192.161V213.76H189.553V213.088C189.553 211.904 190.017 211.328 190.993 211.328C191.409 211.328 191.745 211.408 192.177 211.536V210.464C191.793 210.32 191.393 210.256 190.817 210.256C190.065 210.256 189.473 210.48 189.041 210.896C188.577 211.36 188.337 212.08 188.337 213.024V213.744H187.201V214.816H188.337V222ZM192.888 222H194.36V220.32H192.888V222Z" fill="#540F16"/>
<defs>
<filter id="filter0_d" x="0" y="17" width="436" height="238" filterUnits="userSpaceOnUse" color-interpolation-filters="sRGB">
<feFlood flood-opacity="0" result="BackgroundImageFix"/>
<feColorMatrix in="SourceAlpha" type="matrix" values="0 0 0 0 0 0 0 0 0 0 0 0 0 0 0 0 0 0 127 0" result="hardAlpha"/>
<feOffset dx="4" dy="4"/>
<feGaussianBlur stdDeviation="5"/>
<feColorMatrix type="matrix" values="0 0 0 0 0.329412 0 0 0 0 0.0588235 0 0 0 0 0.0862745 0 0 0 0.2 0"/>
<feBlend mode="normal" in2="BackgroundImageFix" result="effect1_dropShadow"/>
<feBlend mode="normal" in="SourceGraphic" in2="effect1_dropShadow" result="shape"/>
</filter>
</defs>
</svg>
