<svg width="544" height="196" viewBox="0 0 544 196" fill="none" xmlns="http://www.w3.org/2000/svg">
<g filter="url(#filter0_d)">
<rect x="118" y="18" width="412" height="160" rx="2" fill="white"/>
</g>
<rect x="118" y="18" width="412" height="160" rx="2" fill="#F2F2F2"/>
<circle cx="98" cy="98" r="98" fill="#CC112C" fill-opacity="0.1"/>
<circle cx="98" cy="98" r="92" fill="#CC112C" fill-opacity="0.1"/>
<circle cx="98" cy="98" r="87" fill="#CC112C"/>
<circle cx="98" cy="98" r="80" fill="white"/>
<path d="M90.1345 56C89.8001 65.2477 85.1175 68.8807 77.2016 71.0826C69.2858 73.2844 59.3632 78.2385 60.0321 113.798" stroke="#540F16" stroke-width="3" stroke-miterlimit="10" stroke-linejoin="round"/>
<path d="M71.5156 113.798C71.5156 113.798 72.6305 99.8166 72.296 92.4405C71.85 83.9634 84.4485 121.064 73.9684 140" stroke="#540F16" stroke-width="3" stroke-miterlimit="10" stroke-linejoin="round"/>
<path d="M98.0504 113.798V138.679" stroke="#540F16" stroke-width="3" stroke-miterlimit="10" stroke-linejoin="round"/>
<path d="M105.855 56C106.189 65.2477 110.872 68.8807 118.788 71.0826C126.703 73.2844 136.738 78.1284 135.957 113.688" stroke="#540F16" stroke-width="3" stroke-miterlimit="10" stroke-linejoin="round"/>
<path d="M124.585 113.798C124.585 113.798 123.47 99.8166 123.805 92.4405C124.251 83.9634 111.652 121.064 122.132 140" stroke="#540F16" stroke-width="3" stroke-miterlimit="10" stroke-linejoin="round"/>
<path d="M103.513 77.688C104.294 85.2843 108.976 90.7889 112.433 92.7706" stroke="#540F16" stroke-width="3" stroke-miterlimit="10" stroke-linejoin="round"/>
<path d="M92.4759 77.688C91.6954 85.2843 87.0128 90.7889 83.5566 92.7706" stroke="#540F16" stroke-width="3" stroke-miterlimit="10" stroke-linejoin="round"/>
<path d="M226.8 69H229.22V59L233.6 65.56H233.68L238.1 58.96V69H240.56V55H237.94L233.68 61.62L229.42 55H226.8V69ZM247.523 69.22C249.163 69.22 250.143 68.36 250.823 67.36V69H253.263V58.44H250.823V64.4C250.823 66.04 249.843 67 248.443 67C247.003 67 246.183 66.08 246.183 64.44V58.44H243.763V65.16C243.763 67.62 245.143 69.22 247.523 69.22ZM259.906 69.2C262.106 69.2 263.826 68.1 263.826 65.88V65.84C263.826 63.94 262.086 63.24 260.546 62.76C259.306 62.36 258.166 62.04 258.166 61.26V61.22C258.166 60.62 258.706 60.18 259.646 60.18C260.526 60.18 261.606 60.56 262.626 61.18L263.586 59.46C262.466 58.72 261.026 58.26 259.706 58.26C257.606 58.26 255.946 59.48 255.946 61.48V61.52C255.946 63.54 257.686 64.18 259.246 64.62C260.486 65 261.606 65.28 261.606 66.1V66.14C261.606 66.84 261.006 67.28 259.966 67.28C258.886 67.28 257.666 66.84 256.506 65.98L255.426 67.62C256.746 68.66 258.406 69.2 259.906 69.2ZM271.185 69.24C273.245 69.24 274.465 68.42 275.505 67.26L274.045 65.82C273.285 66.6 272.445 67.12 271.305 67.12C269.445 67.12 268.145 65.62 268.145 63.74V63.7C268.145 61.86 269.445 60.34 271.205 60.34C272.405 60.34 273.185 60.88 273.925 61.66L275.445 60.04C274.445 58.96 273.205 58.22 271.225 58.22C268.045 58.22 265.725 60.74 265.725 63.74V63.78C265.725 66.78 268.045 69.24 271.185 69.24ZM277.871 69H280.291V54.4H277.871V69ZM288.294 69.24C290.234 69.24 291.614 68.46 292.614 67.26L291.194 66C290.354 66.82 289.514 67.26 288.334 67.26C286.774 67.26 285.554 66.3 285.294 64.58H293.054C293.074 64.34 293.094 64.12 293.094 63.9C293.094 60.86 291.394 58.22 288.034 58.22C285.014 58.22 282.874 60.7 282.874 63.72V63.76C282.874 67.02 285.234 69.24 288.294 69.24ZM285.274 62.98C285.494 61.34 286.534 60.2 288.014 60.2C289.614 60.2 290.534 61.42 290.694 62.98H285.274ZM299.144 69.2C301.344 69.2 303.064 68.1 303.064 65.88V65.84C303.064 63.94 301.324 63.24 299.784 62.76C298.544 62.36 297.404 62.04 297.404 61.26V61.22C297.404 60.62 297.944 60.18 298.884 60.18C299.764 60.18 300.844 60.56 301.864 61.18L302.824 59.46C301.704 58.72 300.264 58.26 298.944 58.26C296.844 58.26 295.184 59.48 295.184 61.48V61.52C295.184 63.54 296.924 64.18 298.484 64.62C299.724 65 300.844 65.28 300.844 66.1V66.14C300.844 66.84 300.244 67.28 299.204 67.28C298.124 67.28 296.904 66.84 295.744 65.98L294.664 67.62C295.984 68.66 297.644 69.2 299.144 69.2ZM311.54 69H313.96V64.98C313.96 62.18 315.44 60.8 317.56 60.8H317.7V58.24C315.84 58.16 314.62 59.24 313.96 60.82V58.44H311.54V69ZM324.29 69.24C326.23 69.24 327.61 68.46 328.61 67.26L327.19 66C326.35 66.82 325.51 67.26 324.33 67.26C322.77 67.26 321.55 66.3 321.29 64.58H329.05C329.07 64.34 329.09 64.12 329.09 63.9C329.09 60.86 327.39 58.22 324.03 58.22C321.01 58.22 318.87 60.7 318.87 63.72V63.76C318.87 67.02 321.23 69.24 324.29 69.24ZM321.27 62.98C321.49 61.34 322.53 60.2 324.01 60.2C325.61 60.2 326.53 61.42 326.69 62.98H321.27ZM331.66 69H334.08V54.4H331.66V69ZM340.283 69.22C341.903 69.22 343.003 68.54 343.723 67.68V69H346.083V62.74C346.083 61.36 345.723 60.24 344.943 59.48C344.203 58.72 343.023 58.3 341.443 58.3C339.763 58.3 338.623 58.64 337.463 59.16L338.103 61.06C339.063 60.66 339.943 60.4 341.123 60.4C342.823 60.4 343.743 61.2 343.743 62.7V62.96C342.923 62.7 342.083 62.52 340.903 62.52C338.323 62.52 336.543 63.64 336.543 65.92V65.96C336.543 68.08 338.303 69.22 340.283 69.22ZM340.963 67.46C339.803 67.46 338.903 66.88 338.903 65.86V65.82C338.903 64.72 339.823 64.06 341.383 64.06C342.343 64.06 343.163 64.24 343.783 64.48V65.2C343.783 66.54 342.563 67.46 340.963 67.46ZM350.841 58.44H348.201L351.921 63.62L348.061 69H350.641L353.221 65.24L355.821 69H358.461L354.581 63.6L358.301 58.44H355.721L353.281 61.98L350.841 58.44ZM360.623 56.82H363.223V54.52H360.623V56.82ZM360.723 69H363.143V58.44H360.723V69ZM366.305 69H368.725V63.04C368.725 61.4 369.705 60.42 371.105 60.42C372.545 60.42 373.365 61.36 373.365 63V69H375.785V62.26C375.785 59.82 374.405 58.22 372.025 58.22C370.385 58.22 369.405 59.08 368.725 60.06V58.44H366.305V69ZM383.408 72.24C385.308 72.24 386.788 71.78 387.747 70.82C388.628 69.94 389.088 68.62 389.088 66.84V58.44H386.668V60.02C385.848 59.04 384.748 58.22 382.968 58.22C380.508 58.22 378.168 60.06 378.168 63.18V63.22C378.168 66.32 380.488 68.16 382.968 68.16C384.708 68.16 385.808 67.36 386.688 66.22V67.04C386.688 69.16 385.508 70.28 383.348 70.28C381.908 70.28 380.728 69.86 379.588 69.16L378.688 70.98C380.048 71.8 381.668 72.24 383.408 72.24ZM383.608 66.1C381.948 66.1 380.608 64.92 380.608 63.2V63.16C380.608 61.42 381.928 60.26 383.608 60.26C385.288 60.26 386.708 61.44 386.708 63.16V63.2C386.708 64.92 385.288 66.1 383.608 66.1Z" fill="#CC112C"/>
<path d="M229.544 107H230.824V96.968H234.584V95.8H225.784V96.968H229.544V107ZM236.501 107H237.733V102.264C237.733 100.712 238.789 99.672 240.213 99.672C241.669 99.672 242.501 100.632 242.501 102.168V107H243.733V101.864C243.733 99.896 242.565 98.552 240.565 98.552C239.141 98.552 238.277 99.272 237.733 100.168V95.32H236.501V107ZM249.976 107.192C251.544 107.192 252.552 106.568 253.384 105.64L252.616 104.952C251.944 105.656 251.144 106.12 250.008 106.12C248.536 106.12 247.272 105.112 247.096 103.32H253.656C253.672 103.176 253.672 103.08 253.672 102.92C253.672 100.504 252.264 98.552 249.816 98.552C247.528 98.552 245.848 100.472 245.848 102.856V102.888C245.848 105.448 247.704 107.192 249.976 107.192ZM247.096 102.408C247.256 100.792 248.344 99.592 249.784 99.592C251.432 99.592 252.296 100.904 252.424 102.408H247.096ZM255.829 107H257.061V103.704C257.061 101.208 258.533 99.912 260.341 99.912H260.437V98.584C258.869 98.52 257.669 99.512 257.061 100.888V98.728H255.829V107ZM262.314 107H263.546V102.28C263.546 100.76 264.538 99.672 265.85 99.672C267.162 99.672 267.978 100.584 267.978 102.136V107H269.21V102.232C269.21 100.6 270.234 99.672 271.482 99.672C272.826 99.672 273.626 100.568 273.626 102.168V107H274.858V101.88C274.858 99.832 273.69 98.552 271.786 98.552C270.345 98.552 269.466 99.288 268.874 100.2C268.426 99.272 267.562 98.552 266.218 98.552C264.826 98.552 264.09 99.304 263.546 100.12V98.728H262.314V107ZM276.78 107H278.076L279.404 104.04H285.5L286.812 107H288.172L283.068 95.72H281.884L276.78 107ZM279.9 102.888L282.46 97.192L285.004 102.888H279.9ZM290.205 96.92H291.613V95.56H290.205V96.92ZM290.285 107H291.517V98.728H290.285V107ZM297.848 107.176C299.368 107.176 300.344 106.328 301.016 105.336V107H302.248V95.32H301.016V100.312C300.376 99.384 299.384 98.552 297.848 98.552C295.864 98.552 293.896 100.152 293.896 102.856V102.888C293.896 105.608 295.864 107.176 297.848 107.176ZM298.072 106.072C296.52 106.072 295.16 104.824 295.16 102.872V102.84C295.16 100.84 296.472 99.656 298.072 99.656C299.608 99.656 301.064 100.936 301.064 102.84V102.872C301.064 104.776 299.608 106.072 298.072 106.072ZM306.857 101.24C308.409 101.24 309.641 99.96 309.641 98.44V98.424C309.641 96.904 308.425 95.64 306.857 95.64C305.305 95.64 304.073 96.92 304.073 98.44V98.456C304.073 99.976 305.289 101.24 306.857 101.24ZM306.857 100.936C305.449 100.936 304.393 99.816 304.393 98.456V98.44C304.393 97.08 305.465 95.944 306.857 95.944C308.265 95.944 309.321 97.064 309.321 98.424V98.44C309.321 99.8 308.249 100.936 306.857 100.936ZM305.769 99.8H306.313V98.824H306.905L307.577 99.8H308.233L307.481 98.728C307.865 98.616 308.137 98.328 308.137 97.864C308.137 97.272 307.673 96.968 307.049 96.968H305.769V99.8ZM306.313 98.376V97.448H307.001C307.369 97.448 307.577 97.608 307.577 97.912C307.577 98.184 307.369 98.376 307.001 98.376H306.313ZM316.251 107H317.483V102.264C317.483 100.712 318.539 99.672 319.963 99.672C321.419 99.672 322.251 100.632 322.251 102.168V107H323.483V101.864C323.483 99.896 322.315 98.552 320.315 98.552C318.891 98.552 318.027 99.272 317.483 100.168V95.32H316.251V107ZM329.726 107.192C331.294 107.192 332.302 106.568 333.134 105.64L332.366 104.952C331.694 105.656 330.894 106.12 329.758 106.12C328.286 106.12 327.022 105.112 326.846 103.32H333.406C333.422 103.176 333.422 103.08 333.422 102.92C333.422 100.504 332.014 98.552 329.566 98.552C327.278 98.552 325.598 100.472 325.598 102.856V102.888C325.598 105.448 327.454 107.192 329.726 107.192ZM326.846 102.408C327.006 100.792 328.094 99.592 329.534 99.592C331.182 99.592 332.046 100.904 332.174 102.408H326.846ZM338.043 107.176C339.499 107.176 340.459 106.504 341.035 105.752V107H342.219V101.944C342.219 100.888 341.931 100.088 341.371 99.528C340.763 98.92 339.867 98.616 338.699 98.616C337.499 98.616 336.603 98.888 335.691 99.304L336.059 100.312C336.827 99.96 337.595 99.704 338.571 99.704C340.123 99.704 341.035 100.472 341.035 101.96V102.248C340.299 102.04 339.547 101.896 338.491 101.896C336.395 101.896 334.955 102.824 334.955 104.568V104.6C334.955 106.296 336.507 107.176 338.043 107.176ZM338.283 106.2C337.163 106.2 336.203 105.592 336.203 104.552V104.52C336.203 103.48 337.067 102.808 338.619 102.808C339.627 102.808 340.443 102.984 341.051 103.16V103.96C341.051 105.272 339.803 106.2 338.283 106.2ZM347.535 107.144C348.127 107.144 348.591 107.016 349.023 106.792V105.736C348.591 105.944 348.239 106.024 347.823 106.024C346.991 106.024 346.431 105.656 346.431 104.648V99.816H349.055V98.728H346.431V96.232H345.199V98.728H344.047V99.816H345.199V104.808C345.199 106.488 346.207 107.144 347.535 107.144ZM358.224 107.064H359.312L361.552 100.536L363.776 107.064H364.848L367.76 98.728H366.48L364.304 105.368L362.064 98.696H361.04L358.816 105.368L356.64 98.728H355.328L358.224 107.064ZM369.814 107H371.046V103.704C371.046 101.208 372.518 99.912 374.326 99.912H374.422V98.584C372.854 98.52 371.654 99.512 371.046 100.888V98.728H369.814V107ZM378.356 107.176C379.812 107.176 380.772 106.504 381.348 105.752V107H382.532V101.944C382.532 100.888 382.244 100.088 381.684 99.528C381.076 98.92 380.18 98.616 379.012 98.616C377.812 98.616 376.916 98.888 376.004 99.304L376.372 100.312C377.14 99.96 377.908 99.704 378.884 99.704C380.436 99.704 381.348 100.472 381.348 101.96V102.248C380.612 102.04 379.86 101.896 378.804 101.896C376.708 101.896 375.268 102.824 375.268 104.568V104.6C375.268 106.296 376.82 107.176 378.356 107.176ZM378.596 106.2C377.476 106.2 376.516 105.592 376.516 104.552V104.52C376.516 103.48 377.38 102.808 378.932 102.808C379.94 102.808 380.756 102.984 381.364 103.16V103.96C381.364 105.272 380.116 106.2 378.596 106.2ZM385.157 109.56H386.389V105.416C387.029 106.344 388.021 107.176 389.557 107.176C391.557 107.176 393.509 105.576 393.509 102.872V102.84C393.509 100.12 391.541 98.552 389.557 98.552C388.037 98.552 387.061 99.4 386.389 100.392V98.728H385.157V109.56ZM389.333 106.072C387.797 106.072 386.341 104.792 386.341 102.872V102.84C386.341 100.952 387.797 99.656 389.333 99.656C390.901 99.656 392.245 100.904 392.245 102.856V102.888C392.245 104.888 390.933 106.072 389.333 106.072ZM398.518 107.16C400.166 107.16 401.462 106.248 401.462 104.68V104.648C401.462 103.16 400.086 102.664 398.806 102.28C397.702 101.944 396.678 101.64 396.678 100.856V100.824C396.678 100.136 397.302 99.624 398.278 99.624C399.078 99.624 399.958 99.928 400.726 100.424L401.286 99.496C400.438 98.936 399.318 98.584 398.31 98.584C396.678 98.584 395.494 99.528 395.494 100.952V100.984C395.494 102.504 396.934 102.952 398.23 103.32C399.318 103.624 400.294 103.944 400.294 104.776V104.808C400.294 105.608 399.574 106.12 398.582 106.12C397.606 106.12 396.614 105.736 395.718 105.064L395.094 105.944C396.022 106.696 397.334 107.16 398.518 107.16ZM408.548 107H409.78V102.264C409.78 100.712 410.836 99.672 412.26 99.672C413.716 99.672 414.548 100.632 414.548 102.168V107H415.78V101.864C415.78 99.896 414.612 98.552 412.612 98.552C411.188 98.552 410.324 99.272 409.78 100.168V95.32H408.548V107ZM422.023 107.192C423.591 107.192 424.599 106.568 425.431 105.64L424.663 104.952C423.991 105.656 423.191 106.12 422.055 106.12C420.583 106.12 419.319 105.112 419.143 103.32H425.703C425.719 103.176 425.719 103.08 425.719 102.92C425.719 100.504 424.311 98.552 421.863 98.552C419.575 98.552 417.895 100.472 417.895 102.856V102.888C417.895 105.448 419.751 107.192 422.023 107.192ZM419.143 102.408C419.303 100.792 420.391 99.592 421.831 99.592C423.479 99.592 424.343 100.904 424.471 102.408H419.143ZM427.988 107H429.22V95.32H427.988V107ZM432.079 109.56H433.311V105.416C433.951 106.344 434.943 107.176 436.479 107.176C438.479 107.176 440.431 105.576 440.431 102.872V102.84C440.431 100.12 438.463 98.552 436.479 98.552C434.959 98.552 433.983 99.4 433.311 100.392V98.728H432.079V109.56ZM436.255 106.072C434.719 106.072 433.263 104.792 433.263 102.872V102.84C433.263 100.952 434.719 99.656 436.255 99.656C437.823 99.656 439.167 100.904 439.167 102.856V102.888C439.167 104.888 437.855 106.072 436.255 106.072ZM445.44 107.16C447.088 107.16 448.384 106.248 448.384 104.68V104.648C448.384 103.16 447.008 102.664 445.728 102.28C444.624 101.944 443.6 101.64 443.6 100.856V100.824C443.6 100.136 444.224 99.624 445.2 99.624C446 99.624 446.88 99.928 447.648 100.424L448.208 99.496C447.36 98.936 446.24 98.584 445.232 98.584C443.6 98.584 442.416 99.528 442.416 100.952V100.984C442.416 102.504 443.856 102.952 445.152 103.32C446.24 103.624 447.216 103.944 447.216 104.776V104.808C447.216 105.608 446.496 106.12 445.504 106.12C444.528 106.12 443.536 105.736 442.64 105.064L442.016 105.944C442.944 106.696 444.256 107.16 445.44 107.16ZM226.376 126H227.608V122.704C227.608 120.208 229.08 118.912 230.888 118.912H230.984V117.584C229.416 117.52 228.216 118.512 227.608 119.888V117.728H226.376V126ZM236.117 126.192C237.685 126.192 238.693 125.568 239.525 124.64L238.757 123.952C238.085 124.656 237.285 125.12 236.149 125.12C234.677 125.12 233.413 124.112 233.237 122.32H239.797C239.813 122.176 239.813 122.08 239.813 121.92C239.813 119.504 238.405 117.552 235.957 117.552C233.669 117.552 231.989 119.472 231.989 121.856V121.888C231.989 124.448 233.845 126.192 236.117 126.192ZM233.237 121.408C233.397 119.792 234.485 118.592 235.925 118.592C237.573 118.592 238.437 119.904 238.565 121.408H233.237ZM242.082 126H243.314V114.32H242.082V126ZM248.637 126.176C250.093 126.176 251.053 125.504 251.629 124.752V126H252.813V120.944C252.813 119.888 252.525 119.088 251.965 118.528C251.357 117.92 250.461 117.616 249.293 117.616C248.093 117.616 247.197 117.888 246.285 118.304L246.653 119.312C247.421 118.96 248.189 118.704 249.165 118.704C250.717 118.704 251.629 119.472 251.629 120.96V121.248C250.893 121.04 250.141 120.896 249.085 120.896C246.989 120.896 245.549 121.824 245.549 123.568V123.6C245.549 125.296 247.101 126.176 248.637 126.176ZM248.877 125.2C247.757 125.2 246.797 124.592 246.797 123.552V123.52C246.797 122.48 247.661 121.808 249.213 121.808C250.221 121.808 251.037 121.984 251.645 122.16V122.96C251.645 124.272 250.397 125.2 248.877 125.2ZM256.223 117.728H254.815L257.919 121.792L254.687 126H256.062L258.639 122.592L261.199 126H262.623L259.359 121.776L262.495 117.728H261.119L258.655 120.96L256.223 117.728ZM272.895 126.176C274.415 126.176 275.391 125.328 276.063 124.336V126H277.295V114.32H276.063V119.312C275.423 118.384 274.431 117.552 272.895 117.552C270.911 117.552 268.943 119.152 268.943 121.856V121.888C268.943 124.608 270.911 126.176 272.895 126.176ZM273.119 125.072C271.567 125.072 270.207 123.824 270.207 121.872V121.84C270.207 119.84 271.519 118.656 273.119 118.656C274.655 118.656 276.111 119.936 276.111 121.84V121.872C276.111 123.776 274.655 125.072 273.119 125.072ZM282.512 126.176C283.968 126.176 284.928 125.504 285.504 124.752V126H286.688V120.944C286.688 119.888 286.4 119.088 285.84 118.528C285.232 117.92 284.336 117.616 283.168 117.616C281.968 117.616 281.072 117.888 280.16 118.304L280.528 119.312C281.296 118.96 282.064 118.704 283.04 118.704C284.592 118.704 285.504 119.472 285.504 120.96V121.248C284.768 121.04 284.016 120.896 282.96 120.896C280.864 120.896 279.424 121.824 279.424 123.568V123.6C279.424 125.296 280.976 126.176 282.512 126.176ZM282.752 125.2C281.632 125.2 280.672 124.592 280.672 123.552V123.52C280.672 122.48 281.536 121.808 283.088 121.808C284.096 121.808 284.912 121.984 285.52 122.16V122.96C285.52 124.272 284.272 125.2 282.752 125.2ZM289.314 126H290.546V121.28C290.546 119.76 291.538 118.672 292.85 118.672C294.162 118.672 294.978 119.584 294.978 121.136V126H296.21V121.232C296.21 119.6 297.234 118.672 298.482 118.672C299.826 118.672 300.626 119.568 300.626 121.168V126H301.858V120.88C301.858 118.832 300.69 117.552 298.786 117.552C297.345 117.552 296.466 118.288 295.874 119.2C295.426 118.272 294.562 117.552 293.218 117.552C291.826 117.552 291.09 118.304 290.546 119.12V117.728H289.314V126ZM306.996 126.176C308.452 126.176 309.412 125.504 309.988 124.752V126H311.172V120.944C311.172 119.888 310.884 119.088 310.324 118.528C309.716 117.92 308.82 117.616 307.652 117.616C306.452 117.616 305.556 117.888 304.644 118.304L305.012 119.312C305.78 118.96 306.548 118.704 307.524 118.704C309.076 118.704 309.988 119.472 309.988 120.96V121.248C309.252 121.04 308.5 120.896 307.444 120.896C305.348 120.896 303.908 121.824 303.908 123.568V123.6C303.908 125.296 305.46 126.176 306.996 126.176ZM307.236 125.2C306.116 125.2 305.156 124.592 305.156 123.552V123.52C305.156 122.48 306.02 121.808 307.572 121.808C308.58 121.808 309.396 121.984 310.004 122.16V122.96C310.004 124.272 308.756 125.2 307.236 125.2ZM317.462 128.592C318.774 128.592 319.878 128.224 320.614 127.488C321.286 126.816 321.67 125.84 321.67 124.56V117.728H320.438V119.216C319.766 118.32 318.758 117.552 317.206 117.552C315.238 117.552 313.318 119.04 313.318 121.456V121.488C313.318 123.872 315.222 125.36 317.206 125.36C318.726 125.36 319.734 124.576 320.454 123.616V124.592C320.454 126.528 319.27 127.536 317.446 127.536C316.262 127.536 315.206 127.168 314.262 126.48L313.702 127.44C314.806 128.208 316.086 128.592 317.462 128.592ZM317.446 124.272C315.91 124.272 314.582 123.12 314.582 121.456V121.424C314.582 119.728 315.878 118.64 317.446 118.64C319.014 118.64 320.486 119.744 320.486 121.44V121.472C320.486 123.136 319.014 124.272 317.446 124.272ZM328.039 126.192C329.607 126.192 330.615 125.568 331.447 124.64L330.679 123.952C330.007 124.656 329.207 125.12 328.071 125.12C326.599 125.12 325.335 124.112 325.159 122.32H331.719C331.735 122.176 331.735 122.08 331.735 121.92C331.735 119.504 330.327 117.552 327.879 117.552C325.591 117.552 323.911 119.472 323.911 121.856V121.888C323.911 124.448 325.767 126.192 328.039 126.192ZM325.159 121.408C325.319 119.792 326.407 118.592 327.847 118.592C329.495 118.592 330.359 119.904 330.487 121.408H325.159ZM337.364 126.176C338.884 126.176 339.86 125.328 340.532 124.336V126H341.764V114.32H340.532V119.312C339.892 118.384 338.9 117.552 337.364 117.552C335.38 117.552 333.412 119.152 333.412 121.856V121.888C333.412 124.608 335.38 126.176 337.364 126.176ZM337.588 125.072C336.036 125.072 334.676 123.824 334.676 121.872V121.84C334.676 119.84 335.988 118.656 337.588 118.656C339.124 118.656 340.58 119.936 340.58 121.84V121.872C340.58 123.776 339.124 125.072 337.588 125.072ZM344.069 127.952C345.285 127.68 345.845 127.056 345.845 125.76V124.32H344.373V126H344.949C345.013 126.688 344.677 127.104 343.877 127.392L344.069 127.952ZM356.003 126.144C356.595 126.144 357.059 126.016 357.491 125.792V124.736C357.059 124.944 356.707 125.024 356.291 125.024C355.459 125.024 354.899 124.656 354.899 123.648V118.816H357.523V117.728H354.899V115.232H353.667V117.728H352.515V118.816H353.667V123.808C353.667 125.488 354.675 126.144 356.003 126.144ZM359.736 115.92H361.144V114.56H359.736V115.92ZM359.816 126H361.048V117.728H359.816V126ZM367.571 128.592C368.883 128.592 369.987 128.224 370.723 127.488C371.395 126.816 371.779 125.84 371.779 124.56V117.728H370.547V119.216C369.875 118.32 368.867 117.552 367.315 117.552C365.347 117.552 363.427 119.04 363.427 121.456V121.488C363.427 123.872 365.331 125.36 367.315 125.36C368.835 125.36 369.843 124.576 370.563 123.616V124.592C370.563 126.528 369.379 127.536 367.555 127.536C366.371 127.536 365.315 127.168 364.371 126.48L363.811 127.44C364.915 128.208 366.195 128.592 367.571 128.592ZM367.555 124.272C366.019 124.272 364.691 123.12 364.691 121.456V121.424C364.691 119.728 365.987 118.64 367.555 118.64C369.123 118.64 370.595 119.744 370.595 121.44V121.472C370.595 123.136 369.123 124.272 367.555 124.272ZM374.532 126H375.764V121.264C375.764 119.712 376.82 118.672 378.244 118.672C379.7 118.672 380.532 119.632 380.532 121.168V126H381.764V120.864C381.764 118.896 380.596 117.552 378.596 117.552C377.172 117.552 376.308 118.272 375.764 119.168V114.32H374.532V126ZM387.16 126.144C387.752 126.144 388.216 126.016 388.648 125.792V124.736C388.216 124.944 387.864 125.024 387.448 125.024C386.616 125.024 386.056 124.656 386.056 123.648V118.816H388.68V117.728H386.056V115.232H384.824V117.728H383.672V118.816H384.824V123.808C384.824 125.488 385.832 126.144 387.16 126.144ZM390.412 127.952C391.628 127.68 392.188 127.056 392.188 125.76V124.32H390.716V126H391.292C391.356 126.688 391.02 127.104 390.22 127.392L390.412 127.952ZM402.043 126.176C403.499 126.176 404.459 125.504 405.035 124.752V126H406.219V120.944C406.219 119.888 405.931 119.088 405.371 118.528C404.763 117.92 403.867 117.616 402.699 117.616C401.499 117.616 400.603 117.888 399.691 118.304L400.059 119.312C400.827 118.96 401.595 118.704 402.571 118.704C404.123 118.704 405.035 119.472 405.035 120.96V121.248C404.299 121.04 403.547 120.896 402.491 120.896C400.395 120.896 398.955 121.824 398.955 123.568V123.6C398.955 125.296 400.507 126.176 402.043 126.176ZM402.283 125.2C401.163 125.2 400.203 124.592 400.203 123.552V123.52C400.203 122.48 401.067 121.808 402.619 121.808C403.627 121.808 404.443 121.984 405.051 122.16V122.96C405.051 124.272 403.803 125.2 402.283 125.2ZM408.845 126H410.077V121.264C410.077 119.712 411.133 118.672 412.557 118.672C414.013 118.672 414.845 119.632 414.845 121.168V126H416.077V120.864C416.077 118.896 414.909 117.552 412.909 117.552C411.485 117.552 410.621 118.272 410.077 119.168V117.728H408.845V126ZM422.176 126.176C423.696 126.176 424.672 125.328 425.344 124.336V126H426.576V114.32H425.344V119.312C424.704 118.384 423.712 117.552 422.176 117.552C420.192 117.552 418.224 119.152 418.224 121.856V121.888C418.224 124.608 420.192 126.176 422.176 126.176ZM422.4 125.072C420.848 125.072 419.488 123.824 419.488 121.872V121.84C419.488 119.84 420.8 118.656 422.4 118.656C423.936 118.656 425.392 119.936 425.392 121.84V121.872C425.392 123.776 423.936 125.072 422.4 125.072ZM436.862 126.16C438.51 126.16 439.806 125.248 439.806 123.68V123.648C439.806 122.16 438.43 121.664 437.15 121.28C436.046 120.944 435.022 120.64 435.022 119.856V119.824C435.022 119.136 435.646 118.624 436.622 118.624C437.422 118.624 438.302 118.928 439.07 119.424L439.63 118.496C438.782 117.936 437.662 117.584 436.654 117.584C435.022 117.584 433.838 118.528 433.838 119.952V119.984C433.838 121.504 435.278 121.952 436.574 122.32C437.662 122.624 438.638 122.944 438.638 123.776V123.808C438.638 124.608 437.918 125.12 436.926 125.12C435.95 125.12 434.958 124.736 434.062 124.064L433.438 124.944C434.366 125.696 435.678 126.16 436.862 126.16ZM445.871 126.192C448.367 126.192 450.207 124.208 450.207 121.872V121.84C450.207 119.504 448.383 117.552 445.903 117.552C443.407 117.552 441.583 119.536 441.583 121.872V121.904C441.583 124.24 443.391 126.192 445.871 126.192ZM445.903 125.088C444.159 125.088 442.847 123.648 442.847 121.872V121.84C442.847 120.096 444.079 118.64 445.871 118.64C447.615 118.64 448.943 120.096 448.943 121.872V121.904C448.943 123.648 447.695 125.088 445.903 125.088ZM452.439 126H453.671V122.704C453.671 120.208 455.143 118.912 456.951 118.912H457.047V117.584C455.479 117.52 454.279 118.512 453.671 119.888V117.728H452.439V126ZM462.18 126.192C463.748 126.192 464.756 125.568 465.588 124.64L464.82 123.952C464.148 124.656 463.348 125.12 462.212 125.12C460.74 125.12 459.476 124.112 459.299 122.32H465.86C465.876 122.176 465.876 122.08 465.876 121.92C465.876 119.504 464.468 117.552 462.02 117.552C459.732 117.552 458.052 119.472 458.052 121.856V121.888C458.052 124.448 459.908 126.192 462.18 126.192ZM459.299 121.408C459.46 119.792 460.548 118.592 461.988 118.592C463.636 118.592 464.5 119.904 464.628 121.408H459.299ZM226.376 145H227.608V140.28C227.608 138.76 228.6 137.672 229.912 137.672C231.224 137.672 232.04 138.584 232.04 140.136V145H233.272V140.232C233.272 138.6 234.296 137.672 235.544 137.672C236.888 137.672 237.688 138.568 237.688 140.168V145H238.92V139.88C238.92 137.832 237.752 136.552 235.848 136.552C234.408 136.552 233.528 137.288 232.936 138.2C232.488 137.272 231.624 136.552 230.28 136.552C228.888 136.552 228.152 137.304 227.608 138.12V136.728H226.376V145ZM244.635 145.176C246.059 145.176 246.907 144.456 247.467 143.56V145H248.683V136.728H247.467V141.464C247.467 143.016 246.395 144.056 244.987 144.056C243.531 144.056 242.699 143.096 242.699 141.56V136.728H241.467V141.864C241.467 143.832 242.635 145.176 244.635 145.176ZM254.19 145.16C255.838 145.16 257.134 144.248 257.134 142.68V142.648C257.134 141.16 255.758 140.664 254.478 140.28C253.374 139.944 252.35 139.64 252.35 138.856V138.824C252.35 138.136 252.974 137.624 253.95 137.624C254.75 137.624 255.63 137.928 256.398 138.424L256.958 137.496C256.11 136.936 254.99 136.584 253.982 136.584C252.35 136.584 251.166 137.528 251.166 138.952V138.984C251.166 140.504 252.606 140.952 253.902 141.32C254.99 141.624 255.966 141.944 255.966 142.776V142.808C255.966 143.608 255.246 144.12 254.254 144.12C253.278 144.12 252.286 143.736 251.39 143.064L250.766 143.944C251.694 144.696 253.006 145.16 254.19 145.16ZM263.151 145.192C264.703 145.192 265.695 144.52 266.527 143.592L265.743 142.856C265.087 143.56 264.271 144.088 263.215 144.088C261.487 144.088 260.175 142.664 260.175 140.872V140.84C260.175 139.064 261.455 137.64 263.135 137.64C264.255 137.64 264.991 138.2 265.647 138.888L266.463 138.024C265.695 137.208 264.719 136.552 263.151 136.552C260.735 136.552 258.911 138.536 258.911 140.872V140.904C258.911 143.224 260.735 145.192 263.151 145.192ZM268.676 145H269.908V133.32H268.676V145ZM276.383 145.192C277.951 145.192 278.959 144.568 279.791 143.64L279.023 142.952C278.351 143.656 277.551 144.12 276.415 144.12C274.943 144.12 273.679 143.112 273.503 141.32H280.063C280.079 141.176 280.079 141.08 280.079 140.92C280.079 138.504 278.671 136.552 276.223 136.552C273.935 136.552 272.255 138.472 272.255 140.856V140.888C272.255 143.448 274.111 145.192 276.383 145.192ZM273.503 140.408C273.663 138.792 274.751 137.592 276.191 137.592C277.839 137.592 278.703 138.904 278.831 140.408H273.503ZM284.971 145.16C286.619 145.16 287.915 144.248 287.915 142.68V142.648C287.915 141.16 286.539 140.664 285.259 140.28C284.155 139.944 283.131 139.64 283.131 138.856V138.824C283.131 138.136 283.755 137.624 284.731 137.624C285.531 137.624 286.411 137.928 287.179 138.424L287.739 137.496C286.891 136.936 285.771 136.584 284.763 136.584C283.131 136.584 281.947 137.528 281.947 138.952V138.984C281.947 140.504 283.387 140.952 284.683 141.32C285.771 141.624 286.747 141.944 286.747 142.776V142.808C286.747 143.608 286.027 144.12 285.035 144.12C284.059 144.12 283.067 143.736 282.171 143.064L281.547 143.944C282.475 144.696 283.787 145.16 284.971 145.16ZM289.756 146.952C290.972 146.68 291.532 146.056 291.532 144.76V143.32H290.06V145H290.636C290.7 145.688 290.364 146.104 289.564 146.392L289.756 146.952ZM298.955 134.92H300.363V133.56H298.955V134.92ZM299.035 145H300.267V136.728H299.035V145ZM303.126 145H304.358V140.28C304.358 138.76 305.35 137.672 306.662 137.672C307.974 137.672 308.79 138.584 308.79 140.136V145H310.022V140.232C310.022 138.6 311.046 137.672 312.294 137.672C313.638 137.672 314.438 138.568 314.438 140.168V145H315.67V139.88C315.67 137.832 314.502 136.552 312.598 136.552C311.158 136.552 310.278 137.288 309.686 138.2C309.238 137.272 308.374 136.552 307.03 136.552C305.638 136.552 304.902 137.304 304.358 138.12V136.728H303.126V145ZM318.345 147.56H319.577V143.416C320.217 144.344 321.209 145.176 322.745 145.176C324.745 145.176 326.697 143.576 326.697 140.872V140.84C326.697 138.12 324.729 136.552 322.745 136.552C321.225 136.552 320.249 137.4 319.577 138.392V136.728H318.345V147.56ZM322.521 144.072C320.985 144.072 319.529 142.792 319.529 140.872V140.84C319.529 138.952 320.985 137.656 322.521 137.656C324.089 137.656 325.433 138.904 325.433 140.856V140.888C325.433 142.888 324.121 144.072 322.521 144.072ZM328.97 145H330.202V141.704C330.202 139.208 331.674 137.912 333.482 137.912H333.578V136.584C332.01 136.52 330.81 137.512 330.202 138.888V136.728H328.97V145ZM338.871 145.192C341.367 145.192 343.207 143.208 343.207 140.872V140.84C343.207 138.504 341.383 136.552 338.903 136.552C336.407 136.552 334.583 138.536 334.583 140.872V140.904C334.583 143.24 336.391 145.192 338.871 145.192ZM338.903 144.088C337.159 144.088 335.847 142.648 335.847 140.872V140.84C335.847 139.096 337.079 137.64 338.871 137.64C340.615 137.64 341.943 139.096 341.943 140.872V140.904C341.943 142.648 340.695 144.088 338.903 144.088ZM347.722 145.064H348.81L352.41 136.728H351.082L348.282 143.592L345.498 136.728H344.138L347.722 145.064ZM357.476 145.192C359.044 145.192 360.052 144.568 360.884 143.64L360.116 142.952C359.444 143.656 358.644 144.12 357.508 144.12C356.036 144.12 354.772 143.112 354.596 141.32H361.156C361.172 141.176 361.172 141.08 361.172 140.92C361.172 138.504 359.764 136.552 357.316 136.552C355.028 136.552 353.348 138.472 353.348 140.856V140.888C353.348 143.448 355.204 145.192 357.476 145.192ZM354.596 140.408C354.756 138.792 355.844 137.592 357.284 137.592C358.932 137.592 359.796 138.904 359.924 140.408H354.596ZM366.065 145.16C367.713 145.16 369.009 144.248 369.009 142.68V142.648C369.009 141.16 367.633 140.664 366.353 140.28C365.249 139.944 364.225 139.64 364.225 138.856V138.824C364.225 138.136 364.849 137.624 365.825 137.624C366.625 137.624 367.505 137.928 368.273 138.424L368.833 137.496C367.985 136.936 366.865 136.584 365.857 136.584C364.225 136.584 363.041 137.528 363.041 138.952V138.984C363.041 140.504 364.481 140.952 365.777 141.32C366.865 141.624 367.841 141.944 367.841 142.776V142.808C367.841 143.608 367.121 144.12 366.129 144.12C365.153 144.12 364.161 143.736 363.265 143.064L362.641 143.944C363.569 144.696 364.881 145.16 366.065 145.16ZM376.559 145H377.791V137.816H380.399V136.76H377.775V136.088C377.775 134.904 378.255 134.328 379.215 134.328C379.631 134.328 379.967 134.408 380.415 134.536V133.464C380.015 133.32 379.631 133.256 379.055 133.256C378.303 133.256 377.695 133.48 377.279 133.896C376.815 134.36 376.559 135.08 376.559 136.024V136.744H375.423V137.816H376.559V145ZM382.095 145H383.311V133.32H382.095V145ZM389.805 145.192C391.373 145.192 392.381 144.568 393.213 143.64L392.445 142.952C391.773 143.656 390.973 144.12 389.837 144.12C388.365 144.12 387.101 143.112 386.924 141.32H393.485C393.501 141.176 393.501 141.08 393.501 140.92C393.501 138.504 392.093 136.552 389.645 136.552C387.357 136.552 385.677 138.472 385.677 140.856V140.888C385.677 143.448 387.533 145.192 389.805 145.192ZM386.924 140.408C387.085 138.792 388.173 137.592 389.613 137.592C391.261 137.592 392.125 138.904 392.253 140.408H386.924ZM395.957 136.728H394.549L397.653 140.792L394.421 145H395.797L398.373 141.592L400.933 145H402.357L399.093 140.776L402.229 136.728H400.853L398.389 139.96L395.957 136.728ZM404.392 134.92H405.8V133.56H404.392V134.92ZM404.472 145H405.704V136.728H404.472V145ZM412.964 145.176C414.964 145.176 416.916 143.576 416.916 140.872V140.84C416.916 138.12 414.948 136.552 412.964 136.552C411.444 136.552 410.468 137.4 409.796 138.392V133.32H408.564V145H409.796V143.416C410.436 144.344 411.428 145.176 412.964 145.176ZM412.74 144.072C411.204 144.072 409.748 142.792 409.748 140.872V140.84C409.748 138.952 411.204 137.656 412.74 137.656C414.308 137.656 415.652 138.904 415.652 140.856V140.888C415.652 142.888 414.34 144.072 412.74 144.072ZM419.221 134.92H420.629V133.56H419.221V134.92ZM419.301 145H420.533V136.728H419.301V145ZM423.504 145H424.736V133.32H423.504V145ZM427.627 134.92H429.035V133.56H427.627V134.92ZM427.707 145H428.939V136.728H427.707V145ZM434.566 145.144C435.158 145.144 435.622 145.016 436.054 144.792V143.736C435.622 143.944 435.27 144.024 434.854 144.024C434.022 144.024 433.462 143.656 433.462 142.648V137.816H436.086V136.728H433.462V134.232H432.23V136.728H431.078V137.816H432.23V142.808C432.23 144.488 433.238 145.144 434.566 145.144ZM441.803 143.624L438.795 136.728H437.435L441.195 144.968C440.699 146.136 440.235 146.52 439.499 146.52C438.971 146.52 438.603 146.424 438.203 146.216L437.787 147.192C438.347 147.464 438.859 147.608 439.547 147.608C440.795 147.608 441.595 146.984 442.299 145.272L445.771 136.728H444.459L441.803 143.624ZM446.216 145H447.688V143.32H446.216V145Z" fill="#540F16"/>
<defs>
<filter id="filter0_d" x="112" y="12" width="432" height="180" filterUnits="userSpaceOnUse" color-interpolation-filters="sRGB">
<feFlood flood-opacity="0" result="BackgroundImageFix"/>
<feColorMatrix in="SourceAlpha" type="matrix" values="0 0 0 0 0 0 0 0 0 0 0 0 0 0 0 0 0 0 127 0" result="hardAlpha"/>
<feOffset dx="4" dy="4"/>
<feGaussianBlur stdDeviation="5"/>
<feColorMatrix type="matrix" values="0 0 0 0 0.329412 0 0 0 0 0.0588235 0 0 0 0 0.0862745 0 0 0 0.2 0"/>
<feBlend mode="normal" in2="BackgroundImageFix" result="effect1_dropShadow"/>
<feBlend mode="normal" in="SourceGraphic" in2="effect1_dropShadow" result="shape"/>
</filter>
</defs>
</svg>
