<svg width="544" height="196" viewBox="0 0 544 196" fill="none" xmlns="http://www.w3.org/2000/svg">
<g filter="url(#filter0_d)">
<rect x="114" y="18" width="416" height="160" rx="2" fill="white"/>
</g>
<rect x="114" y="18" width="416" height="160" rx="2" fill="#F2F2F2"/>
<path d="M226.8 67H229.26V62.5H232.04C235.12 62.5 237.64 60.86 237.64 57.72V57.68C237.64 54.86 235.6 53 232.32 53H226.8V67ZM229.26 60.28V55.24H232.12C233.96 55.24 235.14 56.1 235.14 57.74V57.78C235.14 59.24 233.98 60.28 232.12 60.28H229.26ZM242.724 67.22C244.344 67.22 245.444 66.54 246.164 65.68V67H248.524V60.74C248.524 59.36 248.164 58.24 247.384 57.48C246.644 56.72 245.464 56.3 243.884 56.3C242.204 56.3 241.064 56.64 239.904 57.16L240.544 59.06C241.504 58.66 242.384 58.4 243.564 58.4C245.264 58.4 246.184 59.2 246.184 60.7V60.96C245.364 60.7 244.524 60.52 243.344 60.52C240.764 60.52 238.984 61.64 238.984 63.92V63.96C238.984 66.08 240.744 67.22 242.724 67.22ZM243.404 65.46C242.244 65.46 241.344 64.88 241.344 63.86V63.82C241.344 62.72 242.264 62.06 243.824 62.06C244.784 62.06 245.604 62.24 246.224 62.48V63.2C246.224 64.54 245.004 65.46 243.404 65.46ZM251.462 54.82H254.062V52.52H251.462V54.82ZM251.562 67H253.982V56.44H251.562V67ZM257.145 67H259.565V61.04C259.565 59.4 260.545 58.42 261.945 58.42C263.385 58.42 264.205 59.36 264.205 61V67H266.625V60.26C266.625 57.82 265.245 56.22 262.865 56.22C261.225 56.22 260.245 57.08 259.565 58.06V56.44H257.145V67ZM275.543 67H277.963V62.98C277.963 60.18 279.443 58.8 281.563 58.8H281.703V56.24C279.843 56.16 278.623 57.24 277.963 58.82V56.44H275.543V67ZM288.294 67.24C290.234 67.24 291.614 66.46 292.614 65.26L291.194 64C290.354 64.82 289.514 65.26 288.334 65.26C286.774 65.26 285.554 64.3 285.294 62.58H293.054C293.074 62.34 293.094 62.12 293.094 61.9C293.094 58.86 291.394 56.22 288.034 56.22C285.014 56.22 282.874 58.7 282.874 61.72V61.76C282.874 65.02 285.234 67.24 288.294 67.24ZM285.274 60.98C285.494 59.34 286.534 58.2 288.014 58.2C289.614 58.2 290.534 59.42 290.694 60.98H285.274ZM295.664 67H298.084V52.4H295.664V67ZM301.287 54.82H303.887V52.52H301.287V54.82ZM301.387 67H303.807V56.44H301.387V67ZM311.809 67.24C313.749 67.24 315.129 66.46 316.129 65.26L314.709 64C313.869 64.82 313.029 65.26 311.849 65.26C310.289 65.26 309.069 64.3 308.809 62.58H316.569C316.589 62.34 316.609 62.12 316.609 61.9C316.609 58.86 314.909 56.22 311.549 56.22C308.529 56.22 306.389 58.7 306.389 61.72V61.76C306.389 65.02 308.749 67.24 311.809 67.24ZM308.789 60.98C309.009 59.34 310.049 58.2 311.529 58.2C313.129 58.2 314.049 59.42 314.209 60.98H308.789ZM321.872 67.08H324.052L328.372 56.44H325.832L322.972 64.2L320.132 56.44H317.532L321.872 67.08ZM330.466 54.82H333.066V52.52H330.466V54.82ZM330.566 67H332.986V56.44H330.566V67ZM336.149 67H338.569V61.04C338.569 59.4 339.549 58.42 340.949 58.42C342.389 58.42 343.209 59.36 343.209 61V67H345.629V60.26C345.629 57.82 344.249 56.22 341.869 56.22C340.229 56.22 339.249 57.08 338.569 58.06V56.44H336.149V67ZM353.251 70.24C355.151 70.24 356.631 69.78 357.591 68.82C358.471 67.94 358.931 66.62 358.931 64.84V56.44H356.511V58.02C355.691 57.04 354.591 56.22 352.811 56.22C350.351 56.22 348.011 58.06 348.011 61.18V61.22C348.011 64.32 350.331 66.16 352.811 66.16C354.551 66.16 355.651 65.36 356.531 64.22V65.04C356.531 67.16 355.351 68.28 353.191 68.28C351.751 68.28 350.571 67.86 349.431 67.16L348.531 68.98C349.891 69.8 351.511 70.24 353.251 70.24ZM353.451 64.1C351.791 64.1 350.451 62.92 350.451 61.2V61.16C350.451 59.42 351.771 58.26 353.451 58.26C355.131 58.26 356.551 59.44 356.551 61.16V61.2C356.551 62.92 355.131 64.1 353.451 64.1Z" fill="#CC112C"/>
<path d="M229.544 105H230.824V94.968H234.584V93.8H225.784V94.968H229.544V105ZM236.501 105H237.733V100.264C237.733 98.712 238.789 97.672 240.213 97.672C241.669 97.672 242.501 98.632 242.501 100.168V105H243.733V99.864C243.733 97.896 242.565 96.552 240.565 96.552C239.141 96.552 238.277 97.272 237.733 98.168V93.32H236.501V105ZM249.976 105.192C251.544 105.192 252.552 104.568 253.384 103.64L252.616 102.952C251.944 103.656 251.144 104.12 250.008 104.12C248.536 104.12 247.272 103.112 247.096 101.32H253.656C253.672 101.176 253.672 101.08 253.672 100.92C253.672 98.504 252.264 96.552 249.816 96.552C247.528 96.552 245.848 98.472 245.848 100.856V100.888C245.848 103.448 247.704 105.192 249.976 105.192ZM247.096 100.408C247.256 98.792 248.344 97.592 249.784 97.592C251.432 97.592 252.296 98.904 252.424 100.408H247.096ZM255.829 105H257.061V101.704C257.061 99.208 258.533 97.912 260.341 97.912H260.437V96.584C258.869 96.52 257.669 97.512 257.061 98.888V96.728H255.829V105ZM262.314 105H263.546V100.28C263.546 98.76 264.538 97.672 265.85 97.672C267.162 97.672 267.978 98.584 267.978 100.136V105H269.21V100.232C269.21 98.6 270.234 97.672 271.482 97.672C272.826 97.672 273.626 98.568 273.626 100.168V105H274.858V99.88C274.858 97.832 273.69 96.552 271.786 96.552C270.345 96.552 269.466 97.288 268.874 98.2C268.426 97.272 267.562 96.552 266.218 96.552C264.826 96.552 264.09 97.304 263.546 98.12V96.728H262.314V105ZM276.78 105H278.076L279.404 102.04H285.5L286.812 105H288.172L283.068 93.72H281.884L276.78 105ZM279.9 100.888L282.46 95.192L285.004 100.888H279.9ZM290.205 94.92H291.613V93.56H290.205V94.92ZM290.285 105H291.517V96.728H290.285V105ZM297.848 105.176C299.368 105.176 300.344 104.328 301.016 103.336V105H302.248V93.32H301.016V98.312C300.376 97.384 299.384 96.552 297.848 96.552C295.864 96.552 293.896 98.152 293.896 100.856V100.888C293.896 103.608 295.864 105.176 297.848 105.176ZM298.072 104.072C296.52 104.072 295.16 102.824 295.16 100.872V100.84C295.16 98.84 296.472 97.656 298.072 97.656C299.608 97.656 301.064 98.936 301.064 100.84V100.872C301.064 102.776 299.608 104.072 298.072 104.072ZM306.857 99.24C308.409 99.24 309.641 97.96 309.641 96.44V96.424C309.641 94.904 308.425 93.64 306.857 93.64C305.305 93.64 304.073 94.92 304.073 96.44V96.456C304.073 97.976 305.289 99.24 306.857 99.24ZM306.857 98.936C305.449 98.936 304.393 97.816 304.393 96.456V96.44C304.393 95.08 305.465 93.944 306.857 93.944C308.265 93.944 309.321 95.064 309.321 96.424V96.44C309.321 97.8 308.249 98.936 306.857 98.936ZM305.769 97.8H306.313V96.824H306.905L307.577 97.8H308.233L307.481 96.728C307.865 96.616 308.137 96.328 308.137 95.864C308.137 95.272 307.673 94.968 307.049 94.968H305.769V97.8ZM306.313 96.376V95.448H307.001C307.369 95.448 307.577 95.608 307.577 95.912C307.577 96.184 307.369 96.376 307.001 96.376H306.313ZM316.459 105H317.723V99.96H324.187V105H325.451V93.8H324.187V98.776H317.723V93.8H316.459V105ZM332.023 105.192C333.591 105.192 334.599 104.568 335.431 103.64L334.663 102.952C333.991 103.656 333.191 104.12 332.055 104.12C330.583 104.12 329.319 103.112 329.143 101.32H335.703C335.719 101.176 335.719 101.08 335.719 100.92C335.719 98.504 334.311 96.552 331.863 96.552C329.575 96.552 327.895 98.472 327.895 100.856V100.888C327.895 103.448 329.751 105.192 332.023 105.192ZM329.143 100.408C329.303 98.792 330.391 97.592 331.831 97.592C333.479 97.592 334.343 98.904 334.471 100.408H329.143ZM340.34 105.176C341.796 105.176 342.756 104.504 343.332 103.752V105H344.516V99.944C344.516 98.888 344.228 98.088 343.668 97.528C343.06 96.92 342.164 96.616 340.996 96.616C339.796 96.616 338.9 96.888 337.988 97.304L338.356 98.312C339.124 97.96 339.892 97.704 340.868 97.704C342.42 97.704 343.332 98.472 343.332 99.96V100.248C342.596 100.04 341.844 99.896 340.788 99.896C338.692 99.896 337.252 100.824 337.252 102.568V102.6C337.252 104.296 338.804 105.176 340.34 105.176ZM340.58 104.2C339.46 104.2 338.5 103.592 338.5 102.552V102.52C338.5 101.48 339.364 100.808 340.916 100.808C341.924 100.808 342.74 100.984 343.348 101.16V101.96C343.348 103.272 342.1 104.2 340.58 104.2ZM349.832 105.144C350.424 105.144 350.888 105.016 351.32 104.792V103.736C350.888 103.944 350.536 104.024 350.12 104.024C349.288 104.024 348.728 103.656 348.728 102.648V97.816H351.352V96.728H348.728V94.232H347.496V96.728H346.344V97.816H347.496V102.808C347.496 104.488 348.504 105.144 349.832 105.144ZM361.065 105.16C362.713 105.16 364.009 104.248 364.009 102.68V102.648C364.009 101.16 362.633 100.664 361.353 100.28C360.249 99.944 359.225 99.64 359.225 98.856V98.824C359.225 98.136 359.849 97.624 360.825 97.624C361.625 97.624 362.505 97.928 363.273 98.424L363.833 97.496C362.985 96.936 361.865 96.584 360.857 96.584C359.225 96.584 358.041 97.528 358.041 98.952V98.984C358.041 100.504 359.481 100.952 360.777 101.32C361.865 101.624 362.841 101.944 362.841 102.776V102.808C362.841 103.608 362.121 104.12 361.129 104.12C360.153 104.12 359.161 103.736 358.265 103.064L357.641 103.944C358.569 104.696 359.881 105.16 361.065 105.16ZM368.91 105.144C369.502 105.144 369.966 105.016 370.398 104.792V103.736C369.966 103.944 369.614 104.024 369.198 104.024C368.366 104.024 367.806 103.656 367.806 102.648V97.816H370.43V96.728H367.806V94.232H366.574V96.728H365.422V97.816H366.574V102.808C366.574 104.488 367.582 105.144 368.91 105.144ZM372.642 94.92H374.05V93.56H372.642V94.92ZM372.722 105H373.954V96.728H372.722V105ZM376.814 105H378.046V100.28C378.046 98.76 379.038 97.672 380.35 97.672C381.662 97.672 382.478 98.584 382.478 100.136V105H383.71V100.232C383.71 98.6 384.734 97.672 385.982 97.672C387.326 97.672 388.126 98.568 388.126 100.168V105H389.358V99.88C389.358 97.832 388.19 96.552 386.286 96.552C384.845 96.552 383.966 97.288 383.374 98.2C382.926 97.272 382.062 96.552 380.718 96.552C379.326 96.552 378.59 97.304 378.046 98.12V96.728H376.814V105ZM395.072 105.176C396.496 105.176 397.344 104.456 397.904 103.56V105H399.12V96.728H397.904V101.464C397.904 103.016 396.832 104.056 395.424 104.056C393.968 104.056 393.136 103.096 393.136 101.56V96.728H391.904V101.864C391.904 103.832 393.072 105.176 395.072 105.176ZM402.004 105H403.236V93.32H402.004V105ZM408.559 105.176C410.015 105.176 410.975 104.504 411.551 103.752V105H412.735V99.944C412.735 98.888 412.447 98.088 411.887 97.528C411.279 96.92 410.383 96.616 409.215 96.616C408.015 96.616 407.119 96.888 406.207 97.304L406.575 98.312C407.343 97.96 408.111 97.704 409.087 97.704C410.639 97.704 411.551 98.472 411.551 99.96V100.248C410.815 100.04 410.063 99.896 409.007 99.896C406.911 99.896 405.471 100.824 405.471 102.568V102.6C405.471 104.296 407.023 105.176 408.559 105.176ZM408.799 104.2C407.679 104.2 406.719 103.592 406.719 102.552V102.52C406.719 101.48 407.583 100.808 409.135 100.808C410.143 100.808 410.959 100.984 411.567 101.16V101.96C411.567 103.272 410.319 104.2 408.799 104.2ZM418.05 105.144C418.642 105.144 419.106 105.016 419.538 104.792V103.736C419.106 103.944 418.754 104.024 418.338 104.024C417.506 104.024 416.946 103.656 416.946 102.648V97.816H419.57V96.728H416.946V94.232H415.714V96.728H414.562V97.816H415.714V102.808C415.714 104.488 416.722 105.144 418.05 105.144ZM425.133 105.192C426.701 105.192 427.709 104.568 428.541 103.64L427.773 102.952C427.101 103.656 426.301 104.12 425.165 104.12C423.693 104.12 422.429 103.112 422.253 101.32H428.813C428.829 101.176 428.829 101.08 428.829 100.92C428.829 98.504 427.421 96.552 424.973 96.552C422.685 96.552 421.005 98.472 421.005 100.856V100.888C421.005 103.448 422.861 105.192 425.133 105.192ZM422.253 100.408C422.413 98.792 423.501 97.592 424.941 97.592C426.589 97.592 427.453 98.904 427.581 100.408H422.253ZM433.721 105.16C435.369 105.16 436.665 104.248 436.665 102.68V102.648C436.665 101.16 435.289 100.664 434.009 100.28C432.905 99.944 431.881 99.64 431.881 98.856V98.824C431.881 98.136 432.505 97.624 433.481 97.624C434.281 97.624 435.161 97.928 435.929 98.424L436.489 97.496C435.641 96.936 434.521 96.584 433.513 96.584C431.881 96.584 430.697 97.528 430.697 98.952V98.984C430.697 100.504 432.137 100.952 433.433 101.32C434.521 101.624 435.497 101.944 435.497 102.776V102.808C435.497 103.608 434.777 104.12 433.785 104.12C432.809 104.12 431.817 103.736 430.921 103.064L430.297 103.944C431.225 104.696 432.537 105.16 433.721 105.16ZM229.144 124.144C229.736 124.144 230.2 124.016 230.632 123.792V122.736C230.2 122.944 229.848 123.024 229.432 123.024C228.6 123.024 228.04 122.656 228.04 121.648V116.816H230.664V115.728H228.04V113.232H226.808V115.728H225.656V116.816H226.808V121.808C226.808 123.488 227.816 124.144 229.144 124.144ZM232.845 124H234.077V119.264C234.077 117.712 235.133 116.672 236.557 116.672C238.013 116.672 238.845 117.632 238.845 119.168V124H240.077V118.864C240.077 116.896 238.909 115.552 236.909 115.552C235.485 115.552 234.621 116.272 234.077 117.168V112.32H232.845V124ZM246.32 124.192C247.888 124.192 248.896 123.568 249.728 122.64L248.96 121.952C248.288 122.656 247.488 123.12 246.352 123.12C244.88 123.12 243.616 122.112 243.44 120.32H250C250.016 120.176 250.016 120.08 250.016 119.92C250.016 117.504 248.608 115.552 246.16 115.552C243.872 115.552 242.192 117.472 242.192 119.856V119.888C242.192 122.448 244.048 124.192 246.32 124.192ZM243.44 119.408C243.6 117.792 244.688 116.592 246.128 116.592C247.776 116.592 248.64 117.904 248.768 119.408H243.44ZM252.173 124H253.405V120.704C253.405 118.208 254.877 116.912 256.685 116.912H256.781V115.584C255.213 115.52 254.013 116.512 253.405 117.888V115.728H252.173V124ZM258.657 124H259.889V119.28C259.889 117.76 260.881 116.672 262.193 116.672C263.505 116.672 264.321 117.584 264.321 119.136V124H265.553V119.232C265.553 117.6 266.577 116.672 267.825 116.672C269.169 116.672 269.969 117.568 269.969 119.168V124H271.201V118.88C271.201 116.832 270.033 115.552 268.129 115.552C266.689 115.552 265.809 116.288 265.217 117.2C264.769 116.272 263.905 115.552 262.561 115.552C261.169 115.552 260.433 116.304 259.889 117.12V115.728H258.657V124ZM277.652 124.192C280.148 124.192 281.988 122.208 281.988 119.872V119.84C281.988 117.504 280.164 115.552 277.684 115.552C275.188 115.552 273.364 117.536 273.364 119.872V119.904C273.364 122.24 275.172 124.192 277.652 124.192ZM277.684 123.088C275.94 123.088 274.628 121.648 274.628 119.872V119.84C274.628 118.096 275.86 116.64 277.652 116.64C279.396 116.64 280.724 118.096 280.724 119.872V119.904C280.724 121.648 279.476 123.088 277.684 123.088ZM284.22 124H285.452V120.704C285.452 118.208 286.924 116.912 288.732 116.912H288.828V115.584C287.26 115.52 286.06 116.512 285.452 117.888V115.728H284.22V124ZM293.961 124.192C295.529 124.192 296.537 123.568 297.369 122.64L296.601 121.952C295.929 122.656 295.129 123.12 293.993 123.12C292.521 123.12 291.257 122.112 291.081 120.32H297.641C297.657 120.176 297.657 120.08 297.657 119.92C297.657 117.504 296.249 115.552 293.801 115.552C291.513 115.552 289.833 117.472 289.833 119.856V119.888C289.833 122.448 291.689 124.192 293.961 124.192ZM291.081 119.408C291.241 117.792 292.329 116.592 293.769 116.592C295.417 116.592 296.281 117.904 296.409 119.408H291.081ZM303.542 124.192C305.094 124.192 306.086 123.52 306.918 122.592L306.134 121.856C305.478 122.56 304.662 123.088 303.606 123.088C301.878 123.088 300.566 121.664 300.566 119.872V119.84C300.566 118.064 301.846 116.64 303.526 116.64C304.646 116.64 305.382 117.2 306.038 117.888L306.854 117.024C306.086 116.208 305.11 115.552 303.542 115.552C301.126 115.552 299.302 117.536 299.302 119.872V119.904C299.302 122.224 301.126 124.192 303.542 124.192ZM312.336 124.192C313.904 124.192 314.912 123.568 315.744 122.64L314.976 121.952C314.304 122.656 313.504 123.12 312.368 123.12C310.896 123.12 309.632 122.112 309.456 120.32H316.016C316.032 120.176 316.032 120.08 316.032 119.92C316.032 117.504 314.624 115.552 312.176 115.552C309.888 115.552 308.208 117.472 308.208 119.856V119.888C308.208 122.448 310.064 124.192 312.336 124.192ZM309.456 119.408C309.616 117.792 310.704 116.592 312.144 116.592C313.792 116.592 314.656 117.904 314.784 119.408H309.456ZM318.189 126.56H319.421V122.416C320.061 123.344 321.053 124.176 322.589 124.176C324.589 124.176 326.541 122.576 326.541 119.872V119.84C326.541 117.12 324.573 115.552 322.589 115.552C321.069 115.552 320.093 116.4 319.421 117.392V115.728H318.189V126.56ZM322.365 123.072C320.829 123.072 319.373 121.792 319.373 119.872V119.84C319.373 117.952 320.829 116.656 322.365 116.656C323.933 116.656 325.277 117.904 325.277 119.856V119.888C325.277 121.888 323.965 123.072 322.365 123.072ZM331.582 124.144C332.174 124.144 332.638 124.016 333.07 123.792V122.736C332.638 122.944 332.286 123.024 331.87 123.024C331.038 123.024 330.478 122.656 330.478 121.648V116.816H333.102V115.728H330.478V113.232H329.246V115.728H328.094V116.816H329.246V121.808C329.246 123.488 330.254 124.144 331.582 124.144ZM338.824 124.192C341.32 124.192 343.16 122.208 343.16 119.872V119.84C343.16 117.504 341.336 115.552 338.856 115.552C336.36 115.552 334.536 117.536 334.536 119.872V119.904C334.536 122.24 336.344 124.192 338.824 124.192ZM338.856 123.088C337.112 123.088 335.8 121.648 335.8 119.872V119.84C335.8 118.096 337.032 116.64 338.824 116.64C340.568 116.64 341.896 118.096 341.896 119.872V119.904C341.896 121.648 340.648 123.088 338.856 123.088ZM345.392 124H346.624V120.704C346.624 118.208 348.096 116.912 349.904 116.912H350V115.584C348.432 115.52 347.232 116.512 346.624 117.888V115.728H345.392V124ZM354.612 124.16C356.26 124.16 357.556 123.248 357.556 121.68V121.648C357.556 120.16 356.18 119.664 354.9 119.28C353.796 118.944 352.772 118.64 352.772 117.856V117.824C352.772 117.136 353.396 116.624 354.372 116.624C355.172 116.624 356.052 116.928 356.82 117.424L357.38 116.496C356.532 115.936 355.412 115.584 354.404 115.584C352.772 115.584 351.588 116.528 351.588 117.952V117.984C351.588 119.504 353.028 119.952 354.324 120.32C355.412 120.624 356.388 120.944 356.388 121.776V121.808C356.388 122.608 355.668 123.12 354.676 123.12C353.7 123.12 352.708 122.736 351.812 122.064L351.188 122.944C352.116 123.696 353.428 124.16 354.612 124.16ZM367.41 124.144C368.002 124.144 368.466 124.016 368.898 123.792V122.736C368.466 122.944 368.114 123.024 367.698 123.024C366.866 123.024 366.306 122.656 366.306 121.648V116.816H368.93V115.728H366.306V113.232H365.074V115.728H363.922V116.816H365.074V121.808C365.074 123.488 366.082 124.144 367.41 124.144ZM371.11 124H372.342V119.264C372.342 117.712 373.398 116.672 374.822 116.672C376.278 116.672 377.11 117.632 377.11 119.168V124H378.342V118.864C378.342 116.896 377.174 115.552 375.174 115.552C373.75 115.552 372.886 116.272 372.342 117.168V112.32H371.11V124ZM384.01 124.176C385.434 124.176 386.282 123.456 386.842 122.56V124H388.058V115.728H386.842V120.464C386.842 122.016 385.77 123.056 384.362 123.056C382.906 123.056 382.074 122.096 382.074 120.56V115.728H380.842V120.864C380.842 122.832 382.01 124.176 384.01 124.176ZM393.565 124.16C395.213 124.16 396.509 123.248 396.509 121.68V121.648C396.509 120.16 395.133 119.664 393.853 119.28C392.749 118.944 391.725 118.64 391.725 117.856V117.824C391.725 117.136 392.349 116.624 393.325 116.624C394.125 116.624 395.005 116.928 395.773 117.424L396.333 116.496C395.485 115.936 394.365 115.584 393.357 115.584C391.725 115.584 390.541 116.528 390.541 117.952V117.984C390.541 119.504 391.981 119.952 393.277 120.32C394.365 120.624 395.341 120.944 395.341 121.776V121.808C395.341 122.608 394.621 123.12 393.629 123.12C392.653 123.12 391.661 122.736 390.765 122.064L390.141 122.944C391.069 123.696 392.381 124.16 393.565 124.16ZM407.995 124.176C409.995 124.176 411.947 122.576 411.947 119.872V119.84C411.947 117.12 409.979 115.552 407.995 115.552C406.475 115.552 405.499 116.4 404.827 117.392V112.32H403.595V124H404.827V122.416C405.467 123.344 406.459 124.176 407.995 124.176ZM407.771 123.072C406.235 123.072 404.779 121.792 404.779 119.872V119.84C404.779 117.952 406.235 116.656 407.771 116.656C409.339 116.656 410.683 117.904 410.683 119.856V119.888C410.683 121.888 409.371 123.072 407.771 123.072ZM414.332 124H415.564V112.32H414.332V124ZM422.199 124.192C424.695 124.192 426.535 122.208 426.535 119.872V119.84C426.535 117.504 424.711 115.552 422.231 115.552C419.735 115.552 417.911 117.536 417.911 119.872V119.904C417.911 122.24 419.719 124.192 422.199 124.192ZM422.231 123.088C420.487 123.088 419.175 121.648 419.175 119.872V119.84C419.175 118.096 420.407 116.64 422.199 116.64C423.943 116.64 425.271 118.096 425.271 119.872V119.904C425.271 121.648 424.023 123.088 422.231 123.088ZM432.495 124.192C434.047 124.192 435.039 123.52 435.871 122.592L435.087 121.856C434.431 122.56 433.615 123.088 432.559 123.088C430.831 123.088 429.519 121.664 429.519 119.872V119.84C429.519 118.064 430.799 116.64 432.479 116.64C433.599 116.64 434.335 117.2 434.991 117.888L435.807 117.024C435.039 116.208 434.063 115.552 432.495 115.552C430.079 115.552 428.255 117.536 428.255 119.872V119.904C428.255 122.224 430.079 124.192 432.495 124.192ZM437.907 124H439.139V121.84L440.819 120.144L443.779 124H445.251L441.667 119.28L445.139 115.728H443.603L439.139 120.384V112.32H437.907V124ZM447.049 113.92H448.457V112.56H447.049V113.92ZM447.129 124H448.361V115.728H447.129V124ZM451.22 124H452.452V119.264C452.452 117.712 453.508 116.672 454.932 116.672C456.388 116.672 457.22 117.632 457.22 119.168V124H458.452V118.864C458.452 116.896 457.284 115.552 455.284 115.552C453.86 115.552 452.996 116.272 452.452 117.168V115.728H451.22V124ZM464.743 126.592C466.055 126.592 467.159 126.224 467.895 125.488C468.567 124.816 468.951 123.84 468.951 122.56V115.728H467.719V117.216C467.047 116.32 466.039 115.552 464.487 115.552C462.519 115.552 460.599 117.04 460.599 119.456V119.488C460.599 121.872 462.503 123.36 464.487 123.36C466.007 123.36 467.015 122.576 467.735 121.616V122.592C467.735 124.528 466.551 125.536 464.727 125.536C463.543 125.536 462.487 125.168 461.543 124.48L460.983 125.44C462.087 126.208 463.367 126.592 464.743 126.592ZM464.727 122.272C463.191 122.272 461.863 121.12 461.863 119.456V119.424C461.863 117.728 463.159 116.64 464.727 116.64C466.295 116.64 467.767 117.744 467.767 119.44V119.472C467.767 121.136 466.295 122.272 464.727 122.272ZM226.376 145.56H227.608V141.416C228.248 142.344 229.24 143.176 230.776 143.176C232.776 143.176 234.728 141.576 234.728 138.872V138.84C234.728 136.12 232.76 134.552 230.776 134.552C229.256 134.552 228.28 135.4 227.608 136.392V134.728H226.376V145.56ZM230.552 142.072C229.016 142.072 227.56 140.792 227.56 138.872V138.84C227.56 136.952 229.016 135.656 230.552 135.656C232.12 135.656 233.464 136.904 233.464 138.856V138.888C233.464 140.888 232.152 142.072 230.552 142.072ZM239.465 143.176C240.921 143.176 241.881 142.504 242.457 141.752V143H243.641V137.944C243.641 136.888 243.353 136.088 242.793 135.528C242.185 134.92 241.289 134.616 240.121 134.616C238.921 134.616 238.025 134.888 237.113 135.304L237.481 136.312C238.249 135.96 239.017 135.704 239.993 135.704C241.545 135.704 242.457 136.472 242.457 137.96V138.248C241.721 138.04 240.969 137.896 239.913 137.896C237.817 137.896 236.377 138.824 236.377 140.568V140.6C236.377 142.296 237.929 143.176 239.465 143.176ZM239.705 142.2C238.585 142.2 237.625 141.592 237.625 140.552V140.52C237.625 139.48 238.489 138.808 240.041 138.808C241.049 138.808 241.865 138.984 242.473 139.16V139.96C242.473 141.272 241.225 142.2 239.705 142.2ZM246.299 132.92H247.707V131.56H246.299V132.92ZM246.379 143H247.611V134.728H246.379V143ZM250.47 143H251.702V138.264C251.702 136.712 252.758 135.672 254.182 135.672C255.638 135.672 256.47 136.632 256.47 138.168V143H257.702V137.864C257.702 135.896 256.534 134.552 254.534 134.552C253.11 134.552 252.246 135.272 251.702 136.168V134.728H250.47V143ZM267.862 143.16C269.51 143.16 270.806 142.248 270.806 140.68V140.648C270.806 139.16 269.43 138.664 268.15 138.28C267.046 137.944 266.022 137.64 266.022 136.856V136.824C266.022 136.136 266.646 135.624 267.622 135.624C268.422 135.624 269.302 135.928 270.07 136.424L270.63 135.496C269.782 134.936 268.662 134.584 267.654 134.584C266.022 134.584 264.838 135.528 264.838 136.952V136.984C264.838 138.504 266.278 138.952 267.574 139.32C268.662 139.624 269.638 139.944 269.638 140.776V140.808C269.638 141.608 268.918 142.12 267.926 142.12C266.95 142.12 265.958 141.736 265.062 141.064L264.438 141.944C265.366 142.696 266.678 143.16 267.862 143.16ZM273.127 132.92H274.535V131.56H273.127V132.92ZM273.207 143H274.439V134.728H273.207V143ZM280.962 145.592C282.274 145.592 283.378 145.224 284.114 144.488C284.786 143.816 285.17 142.84 285.17 141.56V134.728H283.938V136.216C283.266 135.32 282.258 134.552 280.706 134.552C278.738 134.552 276.818 136.04 276.818 138.456V138.488C276.818 140.872 278.722 142.36 280.706 142.36C282.226 142.36 283.234 141.576 283.954 140.616V141.592C283.954 143.528 282.77 144.536 280.946 144.536C279.762 144.536 278.706 144.168 277.762 143.48L277.202 144.44C278.306 145.208 279.586 145.592 280.962 145.592ZM280.946 141.272C279.41 141.272 278.082 140.12 278.082 138.456V138.424C278.082 136.728 279.378 135.64 280.946 135.64C282.514 135.64 283.986 136.744 283.986 138.44V138.472C283.986 140.136 282.514 141.272 280.946 141.272ZM287.923 143H289.155V138.264C289.155 136.712 290.211 135.672 291.635 135.672C293.091 135.672 293.923 136.632 293.923 138.168V143H295.155V137.864C295.155 135.896 293.987 134.552 291.987 134.552C290.563 134.552 289.699 135.272 289.155 136.168V134.728H287.923V143ZM300.246 143.176C301.702 143.176 302.662 142.504 303.238 141.752V143H304.422V137.944C304.422 136.888 304.134 136.088 303.574 135.528C302.966 134.92 302.07 134.616 300.902 134.616C299.702 134.616 298.806 134.888 297.894 135.304L298.262 136.312C299.03 135.96 299.798 135.704 300.774 135.704C302.326 135.704 303.238 136.472 303.238 137.96V138.248C302.502 138.04 301.75 137.896 300.694 137.896C298.598 137.896 297.158 138.824 297.158 140.568V140.6C297.158 142.296 298.71 143.176 300.246 143.176ZM300.486 142.2C299.366 142.2 298.406 141.592 298.406 140.552V140.52C298.406 139.48 299.27 138.808 300.822 138.808C301.83 138.808 302.646 138.984 303.254 139.16V139.96C303.254 141.272 302.006 142.2 300.486 142.2ZM307.16 143H308.392V131.32H307.16V143ZM313.987 143.16C315.635 143.16 316.931 142.248 316.931 140.68V140.648C316.931 139.16 315.555 138.664 314.275 138.28C313.171 137.944 312.147 137.64 312.147 136.856V136.824C312.147 136.136 312.771 135.624 313.747 135.624C314.547 135.624 315.427 135.928 316.195 136.424L316.755 135.496C315.907 134.936 314.787 134.584 313.779 134.584C312.147 134.584 310.963 135.528 310.963 136.952V136.984C310.963 138.504 312.403 138.952 313.699 139.32C314.787 139.624 315.763 139.944 315.763 140.776V140.808C315.763 141.608 315.043 142.12 314.051 142.12C313.075 142.12 312.083 141.736 311.187 141.064L310.563 141.944C311.491 142.696 312.803 143.16 313.987 143.16ZM326.785 143.144C327.377 143.144 327.841 143.016 328.273 142.792V141.736C327.841 141.944 327.489 142.024 327.073 142.024C326.241 142.024 325.681 141.656 325.681 140.648V135.816H328.305V134.728H325.681V132.232H324.449V134.728H323.297V135.816H324.449V140.808C324.449 142.488 325.457 143.144 326.785 143.144ZM334.027 143.192C336.523 143.192 338.363 141.208 338.363 138.872V138.84C338.363 136.504 336.539 134.552 334.059 134.552C331.563 134.552 329.739 136.536 329.739 138.872V138.904C329.739 141.24 331.547 143.192 334.027 143.192ZM334.059 142.088C332.315 142.088 331.003 140.648 331.003 138.872V138.84C331.003 137.096 332.235 135.64 334.027 135.64C335.771 135.64 337.099 137.096 337.099 138.872V138.904C337.099 140.648 335.851 142.088 334.059 142.088ZM348.16 143.144C348.752 143.144 349.216 143.016 349.648 142.792V141.736C349.216 141.944 348.864 142.024 348.448 142.024C347.616 142.024 347.056 141.656 347.056 140.648V135.816H349.68V134.728H347.056V132.232H345.824V134.728H344.672V135.816H345.824V140.808C345.824 142.488 346.832 143.144 348.16 143.144ZM351.86 143H353.092V138.264C353.092 136.712 354.148 135.672 355.572 135.672C357.028 135.672 357.86 136.632 357.86 138.168V143H359.092V137.864C359.092 135.896 357.924 134.552 355.924 134.552C354.5 134.552 353.636 135.272 353.092 136.168V131.32H351.86V143ZM365.336 143.192C366.904 143.192 367.912 142.568 368.744 141.64L367.976 140.952C367.304 141.656 366.504 142.12 365.368 142.12C363.896 142.12 362.632 141.112 362.456 139.32H369.016C369.032 139.176 369.032 139.08 369.032 138.92C369.032 136.504 367.624 134.552 365.176 134.552C362.888 134.552 361.208 136.472 361.208 138.856V138.888C361.208 141.448 363.064 143.192 365.336 143.192ZM362.456 138.408C362.616 136.792 363.704 135.592 365.144 135.592C366.792 135.592 367.656 136.904 367.784 138.408H362.456ZM380.385 143.176C382.385 143.176 384.337 141.576 384.337 138.872V138.84C384.337 136.12 382.369 134.552 380.385 134.552C378.865 134.552 377.889 135.4 377.217 136.392V131.32H375.985V143H377.217V141.416C377.857 142.344 378.849 143.176 380.385 143.176ZM380.161 142.072C378.625 142.072 377.169 140.792 377.169 138.872V138.84C377.169 136.952 378.625 135.656 380.161 135.656C381.729 135.656 383.073 136.904 383.073 138.856V138.888C383.073 140.888 381.761 142.072 380.161 142.072ZM386.61 143H387.842V139.704C387.842 137.208 389.314 135.912 391.122 135.912H391.218V134.584C389.65 134.52 388.45 135.512 387.842 136.888V134.728H386.61V143ZM395.153 143.176C396.609 143.176 397.569 142.504 398.145 141.752V143H399.329V137.944C399.329 136.888 399.041 136.088 398.481 135.528C397.873 134.92 396.977 134.616 395.809 134.616C394.609 134.616 393.713 134.888 392.801 135.304L393.169 136.312C393.937 135.96 394.705 135.704 395.681 135.704C397.233 135.704 398.145 136.472 398.145 137.96V138.248C397.409 138.04 396.657 137.896 395.601 137.896C393.505 137.896 392.065 138.824 392.065 140.568V140.6C392.065 142.296 393.617 143.176 395.153 143.176ZM395.393 142.2C394.273 142.2 393.312 141.592 393.312 140.552V140.52C393.312 139.48 394.177 138.808 395.729 138.808C396.737 138.808 397.553 138.984 398.161 139.16V139.96C398.161 141.272 396.913 142.2 395.393 142.2ZM401.986 132.92H403.394V131.56H401.986V132.92ZM402.066 143H403.298V134.728H402.066V143ZM406.157 143H407.389V138.264C407.389 136.712 408.445 135.672 409.869 135.672C411.325 135.672 412.157 136.632 412.157 138.168V143H413.389V137.864C413.389 135.896 412.221 134.552 410.221 134.552C408.797 134.552 407.933 135.272 407.389 136.168V134.728H406.157V143ZM415.873 143H417.345V141.32H415.873V143Z" fill="#540F16"/>
<circle cx="98" cy="98" r="98" fill="#CC112C" fill-opacity="0.1"/>
<circle cx="98" cy="98" r="92" fill="#CC112C" fill-opacity="0.1"/>
<circle cx="98" cy="98" r="87" fill="#CC112C"/>
<circle cx="98" cy="98" r="80" fill="white"/>
<path d="M73.9908 94.3679H85.8107L88.8111 84.9121L93.8118 108.552L100.54 77.2747L105.813 102.005L108.996 94.277H121.27" stroke="#540F16" stroke-width="3" stroke-miterlimit="10" stroke-linejoin="round"/>
<path d="M77.6277 72.3646C79.3553 68.8187 86.1744 58.9991 98.9943 67.9094" stroke="#540F16" stroke-width="3" stroke-miterlimit="10" stroke-linejoin="round"/>
<path d="M111.723 69.0916C116.636 67.1823 129.999 72.3648 129.999 86.2758" stroke="#540F16" stroke-width="3" stroke-miterlimit="10" stroke-linejoin="round"/>
<path d="M132.908 115.462C131.363 120.917 125.362 124.19 121.27 124.372" stroke="#540F16" stroke-width="3" stroke-miterlimit="10" stroke-linejoin="round"/>
<path d="M106.632 119.099C107.359 123.463 109.996 127.282 117.088 128.282C124.18 129.282 127.089 138.465 127.089 138.465" stroke="#540F16" stroke-width="3" stroke-miterlimit="10" stroke-linejoin="round"/>
<path d="M124.998 123.463C131.272 126.827 131.908 137.374 131.908 137.374" stroke="#540F16" stroke-width="3" stroke-miterlimit="10" stroke-linejoin="round"/>
<path d="M59.6252 91.2766C52.9903 96.7319 53.4449 119.462 78.446 115.644" stroke="#540F16" stroke-width="3" stroke-miterlimit="10" stroke-linejoin="round"/>
<path d="M65.8988 100.369C68.3537 102.642 70.4449 104.187 74.991 101.46" stroke="#540F16" stroke-width="3" stroke-miterlimit="10" stroke-linejoin="round"/>
<path d="M71.6269 103.005C71.536 107.006 74.4455 109.097 77.6277 109.824" stroke="#540F16" stroke-width="3" stroke-miterlimit="10" stroke-linejoin="round"/>
<path d="M97.9033 71.0919C97.9033 67.1823 101.086 64 104.995 64C108.905 64 112.087 67.1823 112.087 71.0919" stroke="#540F16" stroke-width="3" stroke-miterlimit="10" stroke-linejoin="round"/>
<path d="M128.089 86.7304C131.726 85.3666 135.818 87.185 137.272 90.8219C138.727 94.4587 136.818 98.5502 133.181 100.005" stroke="#540F16" stroke-width="3" stroke-miterlimit="10" stroke-linejoin="round"/>
<path d="M118.997 103.005C120.997 105.46 120.543 109.006 118.179 110.916C115.724 112.916 112.178 112.461 110.269 110.097" stroke="#540F16" stroke-width="3" stroke-miterlimit="10" stroke-linejoin="round"/>
<path d="M81.6283 103.824C71.6269 108.461 80.4463 132.646 100.813 119.008C106.995 119.735 111.451 119.735 115.269 119.553" stroke="#540F16" stroke-width="3" stroke-miterlimit="10" stroke-linejoin="round"/>
<path d="M79.2643 70.0917C72.0839 67.1822 64.8102 70.8191 65.3533 79.7294" stroke="#540F16" stroke-width="3" stroke-miterlimit="10" stroke-linejoin="round"/>
<path d="M71.6269 82.0934C66.3535 74.9106 52.1697 83.9119 60.8982 92.9131" stroke="#540F16" stroke-width="3" stroke-miterlimit="10" stroke-linejoin="round"/>
<path d="M137.091 96.3682C138.909 98.4594 140 101.187 140 104.187C140 110.825 134.636 116.098 128.089 116.098C123.998 116.098 120.452 114.098 118.27 110.916" stroke="#540F16" stroke-width="3" stroke-miterlimit="10" stroke-linejoin="round"/>
<defs>
<filter id="filter0_d" x="108" y="12" width="436" height="180" filterUnits="userSpaceOnUse" color-interpolation-filters="sRGB">
<feFlood flood-opacity="0" result="BackgroundImageFix"/>
<feColorMatrix in="SourceAlpha" type="matrix" values="0 0 0 0 0 0 0 0 0 0 0 0 0 0 0 0 0 0 127 0" result="hardAlpha"/>
<feOffset dx="4" dy="4"/>
<feGaussianBlur stdDeviation="5"/>
<feColorMatrix type="matrix" values="0 0 0 0 0.329412 0 0 0 0 0.0588235 0 0 0 0 0.0862745 0 0 0 0.2 0"/>
<feBlend mode="normal" in2="BackgroundImageFix" result="effect1_dropShadow"/>
<feBlend mode="normal" in="SourceGraphic" in2="effect1_dropShadow" result="shape"/>
</filter>
</defs>
</svg>
