<svg width="355" height="444" viewBox="0 0 355 444" fill="none" xmlns="http://www.w3.org/2000/svg">
<g filter="url(#filter0_d)">
<rect x="6" y="50" width="335" height="380" rx="2" fill="white"/>
</g>
<rect x="6" y="50" width="335" height="380" rx="2" fill="#F2F2F2"/>
<circle cx="173" cy="62" r="62" fill="#CC112C" fill-opacity="0.1"/>
<circle cx="173" cy="62.0002" r="58.2041" fill="#CC112C" fill-opacity="0.1"/>
<circle cx="173" cy="62.0003" r="55.0408" fill="#CC112C"/>
<circle cx="173" cy="62.0001" r="50.6122" fill="white"/>
<path d="M155.858 79.0707C155.858 73.8553 153.212 73.8553 153.212 68.6399C153.212 63.4245 155.858 63.4245 155.858 58.2091C155.858 52.9937 153.212 52.9937 153.212 47.7783C153.212 42.563 155.858 42.563 155.858 37.3476M167.944 37.3052C167.944 42.5206 165.297 42.5206 165.297 47.7359C165.297 52.9513 167.944 52.9513 167.944 58.1667C167.944 63.3821 165.297 63.3821 165.297 68.5975C165.297 73.8129 167.944 73.8129 167.944 79.0283M180.074 37.3052C180.074 42.5206 177.427 42.5206 177.427 47.7359C177.427 52.9513 180.074 52.9513 180.074 58.1667C180.074 63.3821 177.427 63.3821 177.427 68.5975C177.427 73.8129 180.074 73.8129 180.074 79.0283M192.159 37.3052C192.159 42.5206 189.513 42.5206 189.513 47.7359C189.513 52.9513 192.159 52.9513 192.159 58.1667C192.159 63.3821 189.513 63.3821 189.513 68.5975C189.513 73.8129 192.159 73.8129 192.159 79.0283M146.463 73.9825V81.3604C146.463 83.9469 148.624 86.0246 151.315 86.0246H194.806C197.497 86.0246 199.658 83.9469 199.658 81.3604V73.9825M159.078 40.4429L155.814 37.3052L152.55 40.4429M171.164 40.4429L167.9 37.3052L164.636 40.4429M183.25 40.4429L179.986 37.2628L176.721 40.4005M195.335 40.4429L192.071 37.3052L188.807 40.4429" stroke="#540F16" stroke-width="3" stroke-miterlimit="10"/>
<path d="M73.8865 162H76.3665V150.28H80.8065V148H69.4465V150.28H73.8865V162ZM82.9399 162H85.3599V156.04C85.3599 154.4 86.3399 153.42 87.7399 153.42C89.1799 153.42 89.9999 154.36 89.9999 156V162H92.4199V155.26C92.4199 152.82 91.0399 151.22 88.6599 151.22C87.0199 151.22 86.0399 152.08 85.3599 153.06V147.4H82.9399V162ZM100.182 162.24C102.122 162.24 103.502 161.46 104.502 160.26L103.082 159C102.242 159.82 101.402 160.26 100.222 160.26C98.6623 160.26 97.4423 159.3 97.1823 157.58H104.942C104.962 157.34 104.982 157.12 104.982 156.9C104.982 153.86 103.282 151.22 99.9223 151.22C96.9023 151.22 94.7623 153.7 94.7623 156.72V156.76C94.7623 160.02 97.1223 162.24 100.182 162.24ZM97.1623 155.98C97.3823 154.34 98.4223 153.2 99.9023 153.2C101.502 153.2 102.422 154.42 102.582 155.98H97.1623ZM107.413 162H109.833V157.98C109.833 155.18 111.313 153.8 113.433 153.8H113.573V151.24C111.713 151.16 110.493 152.24 109.833 153.82V151.44H107.413V162ZM115.674 162H118.094V156.04C118.094 154.42 119.014 153.42 120.354 153.42C121.694 153.42 122.494 154.34 122.494 155.98V162H124.914V156.04C124.914 154.34 125.854 153.42 127.174 153.42C128.534 153.42 129.314 154.32 129.314 156V162H131.734V155.26C131.734 152.68 130.334 151.22 128.034 151.22C126.434 151.22 125.314 151.96 124.474 153.08C123.914 151.96 122.834 151.22 121.314 151.22C119.694 151.22 118.774 152.1 118.094 153.04V151.44H115.674V162ZM133.758 162H136.278L137.718 158.62H144.338L145.758 162H148.358L142.198 147.9H139.918L133.758 162ZM138.618 156.44L141.018 150.84L143.438 156.44H138.618ZM150.519 149.82H153.119V147.52H150.519V149.82ZM150.619 162H153.039V151.44H150.619V162ZM160.562 162.22C162.282 162.22 163.382 161.34 164.162 160.24V162H166.582V147.4H164.162V153.08C163.402 152.08 162.302 151.22 160.562 151.22C158.042 151.22 155.662 153.2 155.662 156.7V156.74C155.662 160.24 158.082 162.22 160.562 162.22ZM161.142 160.12C159.502 160.12 158.102 158.78 158.102 156.74V156.7C158.102 154.6 159.482 153.32 161.142 153.32C162.762 153.32 164.202 154.66 164.202 156.7V156.74C164.202 158.76 162.762 160.12 161.142 160.12ZM171.92 154.8C173.86 154.8 175.4 153.2 175.4 151.3V151.28C175.4 149.38 173.88 147.8 171.92 147.8C169.98 147.8 168.44 149.4 168.44 151.3V151.32C168.44 153.22 169.96 154.8 171.92 154.8ZM171.92 154.42C170.16 154.42 168.84 153.02 168.84 151.32V151.3C168.84 149.6 170.18 148.18 171.92 148.18C173.68 148.18 175 149.58 175 151.28V151.3C175 153 173.66 154.42 171.92 154.42ZM170.48 153.04H171.36V151.9H171.92L172.7 153.04H173.76L172.84 151.74C173.32 151.58 173.64 151.2 173.64 150.62C173.64 149.8 173.02 149.42 172.18 149.42H170.48V153.04ZM171.36 151.18V150.18H172.12C172.5 150.18 172.74 150.36 172.74 150.68C172.74 150.98 172.52 151.18 172.12 151.18H171.36ZM183.532 162H185.992V157.5H188.772C191.852 157.5 194.372 155.86 194.372 152.72V152.68C194.372 149.86 192.332 148 189.052 148H183.532V162ZM185.992 155.28V150.24H188.852C190.692 150.24 191.872 151.1 191.872 152.74V152.78C191.872 154.24 190.712 155.28 188.852 155.28H185.992ZM199.456 162.22C201.076 162.22 202.176 161.54 202.896 160.68V162H205.256V155.74C205.256 154.36 204.896 153.24 204.116 152.48C203.376 151.72 202.196 151.3 200.616 151.3C198.936 151.3 197.796 151.64 196.636 152.16L197.276 154.06C198.236 153.66 199.116 153.4 200.296 153.4C201.996 153.4 202.916 154.2 202.916 155.7V155.96C202.096 155.7 201.256 155.52 200.076 155.52C197.496 155.52 195.716 156.64 195.716 158.92V158.96C195.716 161.08 197.476 162.22 199.456 162.22ZM200.136 160.46C198.976 160.46 198.076 159.88 198.076 158.86V158.82C198.076 157.72 198.996 157.06 200.556 157.06C201.516 157.06 202.336 157.24 202.956 157.48V158.2C202.956 159.54 201.736 160.46 200.136 160.46ZM211.597 162.18C212.517 162.18 213.177 161.98 213.777 161.64V159.66C213.297 159.9 212.817 160.02 212.277 160.02C211.457 160.02 210.977 159.64 210.977 158.7V153.52H213.817V151.44H210.977V148.54H208.557V151.44H207.217V153.52H208.557V159.08C208.557 161.4 209.817 162.18 211.597 162.18ZM220.827 162.24C222.767 162.24 224.147 161.46 225.147 160.26L223.727 159C222.887 159.82 222.047 160.26 220.867 160.26C219.307 160.26 218.087 159.3 217.827 157.58H225.587C225.607 157.34 225.627 157.12 225.627 156.9C225.627 153.86 223.927 151.22 220.567 151.22C217.547 151.22 215.407 153.7 215.407 156.72V156.76C215.407 160.02 217.767 162.24 220.827 162.24ZM217.807 155.98C218.027 154.34 219.067 153.2 220.547 153.2C222.147 153.2 223.067 154.42 223.227 155.98H217.807ZM228.057 162H230.477V156.04C230.477 154.4 231.457 153.42 232.857 153.42C234.297 153.42 235.117 154.36 235.117 156V162H237.537V155.26C237.537 152.82 236.157 151.22 233.777 151.22C232.137 151.22 231.157 152.08 230.477 153.06V151.44H228.057V162ZM243.999 162.18C244.919 162.18 245.579 161.98 246.179 161.64V159.66C245.699 159.9 245.219 160.02 244.679 160.02C243.859 160.02 243.379 159.64 243.379 158.7V153.52H246.219V151.44H243.379V148.54H240.959V151.44H239.619V153.52H240.959V159.08C240.959 161.4 242.219 162.18 243.999 162.18ZM253.229 162.24C255.169 162.24 256.549 161.46 257.549 160.26L256.129 159C255.289 159.82 254.449 160.26 253.269 160.26C251.709 160.26 250.489 159.3 250.229 157.58H257.989C258.009 157.34 258.029 157.12 258.029 156.9C258.029 153.86 256.329 151.22 252.969 151.22C249.949 151.22 247.809 153.7 247.809 156.72V156.76C247.809 160.02 250.169 162.24 253.229 162.24ZM250.209 155.98C250.429 154.34 251.469 153.2 252.949 153.2C254.549 153.2 255.469 154.42 255.629 155.98H250.209ZM264.819 162.22C266.539 162.22 267.639 161.34 268.419 160.24V162H270.839V147.4H268.419V153.08C267.659 152.08 266.559 151.22 264.819 151.22C262.299 151.22 259.919 153.2 259.919 156.7V156.74C259.919 160.24 262.339 162.22 264.819 162.22ZM265.399 160.12C263.759 160.12 262.359 158.78 262.359 156.74V156.7C262.359 154.6 263.739 153.32 265.399 153.32C267.019 153.32 268.459 154.66 268.459 156.7V156.74C268.459 158.76 267.019 160.12 265.399 160.12ZM65.7395 190H68.1995V184.1H74.8795V190H77.3395V176H74.8795V181.82H68.1995V176H65.7395V190ZM85.4948 190.24C87.4348 190.24 88.8148 189.46 89.8148 188.26L88.3948 187C87.5548 187.82 86.7148 188.26 85.5348 188.26C83.9748 188.26 82.7548 187.3 82.4948 185.58H90.2548C90.2748 185.34 90.2948 185.12 90.2948 184.9C90.2948 181.86 88.5948 179.22 85.2348 179.22C82.2148 179.22 80.0748 181.7 80.0748 184.72V184.76C80.0748 188.02 82.4348 190.24 85.4948 190.24ZM82.4748 183.98C82.6948 182.34 83.7348 181.2 85.2148 181.2C86.8148 181.2 87.7348 182.42 87.8948 183.98H82.4748ZM95.7651 190.22C97.3851 190.22 98.4851 189.54 99.2051 188.68V190H101.565V183.74C101.565 182.36 101.205 181.24 100.425 180.48C99.6851 179.72 98.5051 179.3 96.9251 179.3C95.2451 179.3 94.1051 179.64 92.9451 180.16L93.5851 182.06C94.5451 181.66 95.4251 181.4 96.6051 181.4C98.3051 181.4 99.2251 182.2 99.2251 183.7V183.96C98.4051 183.7 97.5651 183.52 96.3851 183.52C93.8051 183.52 92.0251 184.64 92.0251 186.92V186.96C92.0251 189.08 93.7851 190.22 95.7651 190.22ZM96.4451 188.46C95.2851 188.46 94.3851 187.88 94.3851 186.86V186.82C94.3851 185.72 95.3051 185.06 96.8651 185.06C97.8251 185.06 98.6451 185.24 99.2651 185.48V186.2C99.2651 187.54 98.0451 188.46 96.4451 188.46ZM107.906 190.18C108.826 190.18 109.486 189.98 110.086 189.64V187.66C109.606 187.9 109.126 188.02 108.586 188.02C107.766 188.02 107.286 187.64 107.286 186.7V181.52H110.126V179.44H107.286V176.54H104.866V179.44H103.526V181.52H104.866V187.08C104.866 189.4 106.126 190.18 107.906 190.18ZM125.364 190.24C127.984 190.24 129.584 189.28 131.044 187.76L129.464 186.16C128.264 187.28 127.164 187.96 125.444 187.96C122.764 187.96 120.824 185.74 120.824 183V182.96C120.824 180.22 122.784 178.02 125.444 178.02C127.044 178.02 128.244 178.72 129.364 179.76L130.944 177.94C129.604 176.66 128.044 175.76 125.464 175.76C121.224 175.76 118.244 179.02 118.244 183V183.04C118.244 187.06 121.284 190.24 125.364 190.24ZM137.995 190.24C139.935 190.24 141.315 189.46 142.315 188.26L140.895 187C140.055 187.82 139.215 188.26 138.035 188.26C136.475 188.26 135.255 187.3 134.995 185.58H142.755C142.775 185.34 142.795 185.12 142.795 184.9C142.795 181.86 141.095 179.22 137.735 179.22C134.715 179.22 132.575 181.7 132.575 184.72V184.76C132.575 188.02 134.935 190.24 137.995 190.24ZM134.975 183.98C135.195 182.34 136.235 181.2 137.715 181.2C139.315 181.2 140.235 182.42 140.395 183.98H134.975ZM145.365 190H147.785V175.4H145.365V190ZM151.088 190H153.508V175.4H151.088V190ZM166.386 190H168.866V178.28H173.306V176H161.946V178.28H166.386V190ZM178.19 190.24C180.13 190.24 181.51 189.46 182.51 188.26L181.09 187C180.25 187.82 179.41 188.26 178.23 188.26C176.67 188.26 175.45 187.3 175.19 185.58H182.95C182.97 185.34 182.99 185.12 182.99 184.9C182.99 181.86 181.29 179.22 177.93 179.22C174.91 179.22 172.77 181.7 172.77 184.72V184.76C172.77 188.02 175.13 190.24 178.19 190.24ZM175.17 183.98C175.39 182.34 176.43 181.2 177.91 181.2C179.51 181.2 180.43 182.42 180.59 183.98H175.17ZM190.3 190.24C192.36 190.24 193.58 189.42 194.62 188.26L193.16 186.82C192.4 187.6 191.56 188.12 190.42 188.12C188.56 188.12 187.26 186.62 187.26 184.74V184.7C187.26 182.86 188.56 181.34 190.32 181.34C191.52 181.34 192.3 181.88 193.04 182.66L194.56 181.04C193.56 179.96 192.32 179.22 190.34 179.22C187.16 179.22 184.84 181.74 184.84 184.74V184.78C184.84 187.78 187.16 190.24 190.3 190.24ZM196.846 190H199.266V184.04C199.266 182.4 200.246 181.42 201.646 181.42C203.086 181.42 203.906 182.36 203.906 184V190H206.326V183.26C206.326 180.82 204.946 179.22 202.566 179.22C200.926 179.22 199.946 180.08 199.266 181.06V175.4H196.846V190ZM209.249 190H211.669V184.04C211.669 182.4 212.649 181.42 214.049 181.42C215.489 181.42 216.309 182.36 216.309 184V190H218.729V183.26C218.729 180.82 217.349 179.22 214.969 179.22C213.329 179.22 212.349 180.08 211.669 181.06V179.44H209.249V190ZM226.671 190.24C229.931 190.24 232.331 187.74 232.331 184.74V184.7C232.331 181.68 229.951 179.22 226.711 179.22C223.471 179.22 221.071 181.72 221.071 184.74V184.78C221.071 187.78 223.451 190.24 226.671 190.24ZM226.711 188.12C224.831 188.12 223.491 186.58 223.491 184.74V184.7C223.491 182.86 224.731 181.34 226.671 181.34C228.571 181.34 229.911 182.88 229.911 184.74V184.78C229.911 186.6 228.671 188.12 226.711 188.12ZM234.935 190H237.355V175.4H234.935V190ZM245.538 190.24C248.798 190.24 251.198 187.74 251.198 184.74V184.7C251.198 181.68 248.818 179.22 245.578 179.22C242.338 179.22 239.938 181.72 239.938 184.74V184.78C239.938 187.78 242.318 190.24 245.538 190.24ZM245.578 188.12C243.698 188.12 242.358 186.58 242.358 184.74V184.7C242.358 182.86 243.598 181.34 245.538 181.34C247.438 181.34 248.778 182.88 248.778 184.74V184.78C248.778 186.6 247.538 188.12 245.578 188.12ZM258.363 193.24C260.263 193.24 261.743 192.78 262.703 191.82C263.583 190.94 264.043 189.62 264.043 187.84V179.44H261.623V181.02C260.803 180.04 259.703 179.22 257.923 179.22C255.463 179.22 253.123 181.06 253.123 184.18V184.22C253.123 187.32 255.443 189.16 257.923 189.16C259.663 189.16 260.763 188.36 261.643 187.22V188.04C261.643 190.16 260.463 191.28 258.303 191.28C256.863 191.28 255.683 190.86 254.543 190.16L253.643 191.98C255.003 192.8 256.623 193.24 258.363 193.24ZM258.563 187.1C256.903 187.1 255.563 185.92 255.563 184.2V184.16C255.563 182.42 256.883 181.26 258.563 181.26C260.243 181.26 261.663 182.44 261.663 184.16V184.2C261.663 185.92 260.243 187.1 258.563 187.1ZM271.661 187.28L268.681 179.44H266.081L270.481 190.02C270.081 190.92 269.661 191.22 268.981 191.22C268.481 191.22 268.001 191.06 267.561 190.82L266.741 192.62C267.481 193.02 268.241 193.26 269.241 193.26C270.941 193.26 271.881 192.46 272.721 190.3L276.921 179.44H274.401L271.661 187.28ZM278.935 182.18H281.595V179.44H278.935V182.18ZM278.935 190H281.595V187.24H278.935V190Z" fill="#CC112C"/>
<path d="M45.499 234H46.795L48.123 231.04H54.219L55.531 234H56.891L51.787 222.72H50.603L45.499 234ZM48.619 229.888L51.179 224.192L53.723 229.888H48.619ZM61.6276 234.16C63.2756 234.16 64.5716 233.248 64.5716 231.68V231.648C64.5716 230.16 63.1956 229.664 61.9156 229.28C60.8116 228.944 59.7876 228.64 59.7876 227.856V227.824C59.7876 227.136 60.4116 226.624 61.3876 226.624C62.1876 226.624 63.0676 226.928 63.8356 227.424L64.3956 226.496C63.5476 225.936 62.4276 225.584 61.4196 225.584C59.7876 225.584 58.6036 226.528 58.6036 227.952V227.984C58.6036 229.504 60.0436 229.952 61.3396 230.32C62.4276 230.624 63.4036 230.944 63.4036 231.776V231.808C63.4036 232.608 62.6836 233.12 61.6916 233.12C60.7156 233.12 59.7236 232.736 58.8276 232.064L58.2036 232.944C59.1316 233.696 60.4436 234.16 61.6276 234.16ZM74.3932 234.16C76.0413 234.16 77.3373 233.248 77.3373 231.68V231.648C77.3373 230.16 75.9613 229.664 74.6813 229.28C73.5773 228.944 72.5533 228.64 72.5533 227.856V227.824C72.5533 227.136 73.1773 226.624 74.1533 226.624C74.9533 226.624 75.8333 226.928 76.6013 227.424L77.1613 226.496C76.3133 225.936 75.1933 225.584 74.1853 225.584C72.5533 225.584 71.3693 226.528 71.3693 227.952V227.984C71.3693 229.504 72.8093 229.952 74.1053 230.32C75.1933 230.624 76.1693 230.944 76.1693 231.776V231.808C76.1693 232.608 75.4493 233.12 74.4573 233.12C73.4813 233.12 72.4893 232.736 71.5933 232.064L70.9693 232.944C71.8973 233.696 73.2093 234.16 74.3932 234.16ZM83.402 234.192C85.898 234.192 87.738 232.208 87.738 229.872V229.84C87.738 227.504 85.914 225.552 83.434 225.552C80.938 225.552 79.114 227.536 79.114 229.872V229.904C79.114 232.24 80.922 234.192 83.402 234.192ZM83.434 233.088C81.69 233.088 80.378 231.648 80.378 229.872V229.84C80.378 228.096 81.61 226.64 83.402 226.64C85.146 226.64 86.474 228.096 86.474 229.872V229.904C86.474 231.648 85.226 233.088 83.434 233.088ZM93.7458 234.192C96.2418 234.192 98.0818 232.208 98.0818 229.872V229.84C98.0818 227.504 96.2578 225.552 93.7778 225.552C91.2818 225.552 89.4578 227.536 89.4578 229.872V229.904C89.4578 232.24 91.2658 234.192 93.7458 234.192ZM93.7778 233.088C92.0338 233.088 90.7218 231.648 90.7218 229.872V229.84C90.7218 228.096 91.9538 226.64 93.7458 226.64C95.4898 226.64 96.8177 228.096 96.8177 229.872V229.904C96.8177 231.648 95.5698 233.088 93.7778 233.088ZM100.314 234H101.546V229.264C101.546 227.712 102.602 226.672 104.026 226.672C105.482 226.672 106.314 227.632 106.314 229.168V234H107.546V228.864C107.546 226.896 106.378 225.552 104.378 225.552C102.954 225.552 102.09 226.272 101.546 227.168V225.728H100.314V234ZM117.434 234.176C118.89 234.176 119.85 233.504 120.426 232.752V234H121.61V228.944C121.61 227.888 121.322 227.088 120.762 226.528C120.154 225.92 119.258 225.616 118.09 225.616C116.89 225.616 115.994 225.888 115.082 226.304L115.45 227.312C116.218 226.96 116.986 226.704 117.962 226.704C119.514 226.704 120.426 227.472 120.426 228.96V229.248C119.69 229.04 118.938 228.896 117.882 228.896C115.786 228.896 114.346 229.824 114.346 231.568V231.6C114.346 233.296 115.898 234.176 117.434 234.176ZM117.674 233.2C116.554 233.2 115.594 232.592 115.594 231.552V231.52C115.594 230.48 116.458 229.808 118.01 229.808C119.018 229.808 119.834 229.984 120.442 230.16V230.96C120.442 232.272 119.194 233.2 117.674 233.2ZM126.971 234.16C128.619 234.16 129.915 233.248 129.915 231.68V231.648C129.915 230.16 128.539 229.664 127.259 229.28C126.155 228.944 125.131 228.64 125.131 227.856V227.824C125.131 227.136 125.755 226.624 126.731 226.624C127.531 226.624 128.411 226.928 129.179 227.424L129.739 226.496C128.891 225.936 127.771 225.584 126.763 225.584C125.131 225.584 123.947 226.528 123.947 227.952V227.984C123.947 229.504 125.387 229.952 126.683 230.32C127.771 230.624 128.747 230.944 128.747 231.776V231.808C128.747 232.608 128.027 233.12 127.035 233.12C126.059 233.12 125.067 232.736 124.171 232.064L123.547 232.944C124.475 233.696 125.787 234.16 126.971 234.16ZM139.769 234.144C140.361 234.144 140.825 234.016 141.257 233.792V232.736C140.825 232.944 140.473 233.024 140.057 233.024C139.225 233.024 138.665 232.656 138.665 231.648V226.816H141.289V225.728H138.665V223.232H137.433V225.728H136.281V226.816H137.433V231.808C137.433 233.488 138.441 234.144 139.769 234.144ZM143.47 234H144.702V229.264C144.702 227.712 145.758 226.672 147.182 226.672C148.638 226.672 149.47 227.632 149.47 229.168V234H150.702V228.864C150.702 226.896 149.534 225.552 147.534 225.552C146.11 225.552 145.246 226.272 144.702 227.168V222.32H143.47V234ZM156.945 234.192C158.513 234.192 159.521 233.568 160.353 232.64L159.585 231.952C158.913 232.656 158.113 233.12 156.977 233.12C155.505 233.12 154.241 232.112 154.065 230.32H160.625C160.641 230.176 160.641 230.08 160.641 229.92C160.641 227.504 159.233 225.552 156.785 225.552C154.497 225.552 152.817 227.472 152.817 229.856V229.888C152.817 232.448 154.673 234.192 156.945 234.192ZM154.065 229.408C154.225 227.792 155.313 226.592 156.753 226.592C158.401 226.592 159.265 227.904 159.393 229.408H154.065ZM167.595 236.56H168.827V232.416C169.467 233.344 170.459 234.176 171.995 234.176C173.995 234.176 175.947 232.576 175.947 229.872V229.84C175.947 227.12 173.979 225.552 171.995 225.552C170.475 225.552 169.499 226.4 168.827 227.392V225.728H167.595V236.56ZM171.771 233.072C170.235 233.072 168.779 231.792 168.779 229.872V229.84C168.779 227.952 170.235 226.656 171.771 226.656C173.339 226.656 174.683 227.904 174.683 229.856V229.888C174.683 231.888 173.371 233.072 171.771 233.072ZM181.996 234.192C184.492 234.192 186.332 232.208 186.332 229.872V229.84C186.332 227.504 184.508 225.552 182.028 225.552C179.532 225.552 177.708 227.536 177.708 229.872V229.904C177.708 232.24 179.516 234.192 181.996 234.192ZM182.028 233.088C180.284 233.088 178.972 231.648 178.972 229.872V229.84C178.972 228.096 180.204 226.64 181.996 226.64C183.74 226.64 185.068 228.096 185.068 229.872V229.904C185.068 231.648 183.82 233.088 182.028 233.088ZM191.604 234.176C193.028 234.176 193.876 233.456 194.436 232.56V234H195.652V225.728H194.436V230.464C194.436 232.016 193.364 233.056 191.956 233.056C190.5 233.056 189.668 232.096 189.668 230.56V225.728H188.436V230.864C188.436 232.832 189.604 234.176 191.604 234.176ZM202.151 234.192C203.703 234.192 204.695 233.52 205.527 232.592L204.743 231.856C204.087 232.56 203.271 233.088 202.215 233.088C200.487 233.088 199.175 231.664 199.175 229.872V229.84C199.175 228.064 200.455 226.64 202.135 226.64C203.255 226.64 203.991 227.2 204.647 227.888L205.463 227.024C204.695 226.208 203.719 225.552 202.151 225.552C199.735 225.552 197.911 227.536 197.911 229.872V229.904C197.911 232.224 199.735 234.192 202.151 234.192ZM207.564 234H208.796V229.264C208.796 227.712 209.852 226.672 211.276 226.672C212.732 226.672 213.564 227.632 213.564 229.168V234H214.796V228.864C214.796 226.896 213.628 225.552 211.628 225.552C210.204 225.552 209.34 226.272 208.796 227.168V222.32H207.564V234ZM222.252 223.92H223.66V222.56H222.252V223.92ZM222.332 234H223.564V225.728H222.332V234ZM229.159 234.16C230.807 234.16 232.103 233.248 232.103 231.68V231.648C232.103 230.16 230.727 229.664 229.447 229.28C228.343 228.944 227.319 228.64 227.319 227.856V227.824C227.319 227.136 227.943 226.624 228.919 226.624C229.719 226.624 230.599 226.928 231.367 227.424L231.927 226.496C231.079 225.936 229.959 225.584 228.951 225.584C227.319 225.584 226.135 226.528 226.135 227.952V227.984C226.135 229.504 227.575 229.952 228.871 230.32C229.959 230.624 230.935 230.944 230.935 231.776V231.808C230.935 232.608 230.215 233.12 229.223 233.12C228.247 233.12 227.255 232.736 226.359 232.064L225.735 232.944C226.663 233.696 227.975 234.16 229.159 234.16ZM242.965 234.192C245.461 234.192 247.301 232.208 247.301 229.872V229.84C247.301 227.504 245.477 225.552 242.997 225.552C240.501 225.552 238.677 227.536 238.677 229.872V229.904C238.677 232.24 240.485 234.192 242.965 234.192ZM242.997 233.088C241.253 233.088 239.941 231.648 239.941 229.872V229.84C239.941 228.096 241.173 226.64 242.965 226.64C244.709 226.64 246.036 228.096 246.036 229.872V229.904C246.036 231.648 244.789 233.088 242.997 233.088ZM249.532 236.56H250.764V232.416C251.404 233.344 252.396 234.176 253.932 234.176C255.932 234.176 257.884 232.576 257.884 229.872V229.84C257.884 227.12 255.916 225.552 253.932 225.552C252.412 225.552 251.436 226.4 250.764 227.392V225.728H249.532V236.56ZM253.708 233.072C252.172 233.072 250.716 231.792 250.716 229.872V229.84C250.716 227.952 252.172 226.656 253.708 226.656C255.276 226.656 256.62 227.904 256.62 229.856V229.888C256.62 231.888 255.308 233.072 253.708 233.072ZM263.773 234.192C265.341 234.192 266.349 233.568 267.181 232.64L266.413 231.952C265.741 232.656 264.941 233.12 263.805 233.12C262.333 233.12 261.069 232.112 260.893 230.32H267.453C267.469 230.176 267.469 230.08 267.469 229.92C267.469 227.504 266.061 225.552 263.613 225.552C261.325 225.552 259.645 227.472 259.645 229.856V229.888C259.645 232.448 261.501 234.192 263.773 234.192ZM260.893 229.408C261.053 227.792 262.141 226.592 263.581 226.592C265.229 226.592 266.093 227.904 266.221 229.408H260.893ZM269.626 234H270.858V229.264C270.858 227.712 271.914 226.672 273.338 226.672C274.794 226.672 275.626 227.632 275.626 229.168V234H276.858V228.864C276.858 226.896 275.69 225.552 273.69 225.552C272.266 225.552 271.402 226.272 270.858 227.168V225.728H269.626V234ZM283.101 234.192C284.669 234.192 285.677 233.568 286.509 232.64L285.741 231.952C285.069 232.656 284.269 233.12 283.133 233.12C281.661 233.12 280.397 232.112 280.221 230.32H286.781C286.797 230.176 286.797 230.08 286.797 229.92C286.797 227.504 285.389 225.552 282.941 225.552C280.653 225.552 278.973 227.472 278.973 229.856V229.888C278.973 232.448 280.829 234.192 283.101 234.192ZM280.221 229.408C280.381 227.792 281.469 226.592 282.909 226.592C284.557 226.592 285.421 227.904 285.549 229.408H280.221ZM292.426 234.176C293.946 234.176 294.922 233.328 295.594 232.336V234H296.826V222.32H295.594V227.312C294.954 226.384 293.962 225.552 292.426 225.552C290.442 225.552 288.474 227.152 288.474 229.856V229.888C288.474 232.608 290.442 234.176 292.426 234.176ZM292.65 233.072C291.098 233.072 289.738 231.824 289.738 229.872V229.84C289.738 227.84 291.05 226.656 292.65 226.656C294.186 226.656 295.642 227.936 295.642 229.84V229.872C295.642 231.776 294.186 233.072 292.65 233.072ZM299.131 235.952C300.347 235.68 300.907 235.056 300.907 233.76V232.32H299.435V234H300.011C300.075 234.688 299.739 235.104 298.939 235.392L299.131 235.952ZM30.2926 256.192C32.7886 256.192 34.6286 254.208 34.6286 251.872V251.84C34.6286 249.504 32.8046 247.552 30.3246 247.552C27.8286 247.552 26.0046 249.536 26.0046 251.872V251.904C26.0046 254.24 27.8126 256.192 30.2926 256.192ZM30.3246 255.088C28.5806 255.088 27.2686 253.648 27.2686 251.872V251.84C27.2686 250.096 28.5006 248.64 30.2926 248.64C32.0366 248.64 33.3646 250.096 33.3646 251.872V251.904C33.3646 253.648 32.1166 255.088 30.3246 255.088ZM37.0819 247.728H35.6739L38.7779 251.792L35.5459 256H36.9219L39.4979 252.592L42.0579 256H43.4819L40.2179 251.776L43.3539 247.728H41.9779L39.5139 250.96L37.0819 247.728ZM48.8651 254.624L45.8571 247.728H44.4971L48.2571 255.968C47.7611 257.136 47.2971 257.52 46.5611 257.52C46.0331 257.52 45.6651 257.424 45.2651 257.216L44.8491 258.192C45.4091 258.464 45.9211 258.608 46.6091 258.608C47.8571 258.608 48.6571 257.984 49.3611 256.272L52.8331 247.728H51.5211L48.8651 254.624ZM58.04 258.592C59.352 258.592 60.456 258.224 61.192 257.488C61.864 256.816 62.248 255.84 62.248 254.56V247.728H61.016V249.216C60.344 248.32 59.336 247.552 57.784 247.552C55.816 247.552 53.896 249.04 53.896 251.456V251.488C53.896 253.872 55.8 255.36 57.784 255.36C59.304 255.36 60.312 254.576 61.032 253.616V254.592C61.032 256.528 59.848 257.536 58.024 257.536C56.84 257.536 55.784 257.168 54.84 256.48L54.28 257.44C55.384 258.208 56.664 258.592 58.04 258.592ZM58.024 254.272C56.488 254.272 55.16 253.12 55.16 251.456V251.424C55.16 249.728 56.456 248.64 58.024 248.64C59.592 248.64 61.064 249.744 61.064 251.44V251.472C61.064 253.136 59.592 254.272 58.024 254.272ZM68.617 256.192C70.185 256.192 71.193 255.568 72.025 254.64L71.257 253.952C70.585 254.656 69.785 255.12 68.649 255.12C67.177 255.12 65.913 254.112 65.737 252.32H72.297C72.313 252.176 72.313 252.08 72.313 251.92C72.313 249.504 70.905 247.552 68.457 247.552C66.169 247.552 64.489 249.472 64.489 251.856V251.888C64.489 254.448 66.345 256.192 68.617 256.192ZM65.737 251.408C65.897 249.792 66.985 248.592 68.425 248.592C70.073 248.592 70.937 249.904 71.065 251.408H65.737ZM74.4698 256H75.7018V251.264C75.7018 249.712 76.7578 248.672 78.1818 248.672C79.6378 248.672 80.4698 249.632 80.4698 251.168V256H81.7018V250.864C81.7018 248.896 80.5338 247.552 78.5338 247.552C77.1098 247.552 76.2458 248.272 75.7018 249.168V247.728H74.4698V256ZM89.126 258.56H90.358V254.416C90.998 255.344 91.99 256.176 93.526 256.176C95.526 256.176 97.478 254.576 97.478 251.872V251.84C97.478 249.12 95.51 247.552 93.526 247.552C92.006 247.552 91.03 248.4 90.358 249.392V247.728H89.126V258.56ZM93.302 255.072C91.766 255.072 90.31 253.792 90.31 251.872V251.84C90.31 249.952 91.766 248.656 93.302 248.656C94.87 248.656 96.214 249.904 96.214 251.856V251.888C96.214 253.888 94.902 255.072 93.302 255.072ZM103.367 256.192C104.935 256.192 105.943 255.568 106.775 254.64L106.007 253.952C105.335 254.656 104.535 255.12 103.399 255.12C101.927 255.12 100.663 254.112 100.487 252.32H107.047C107.063 252.176 107.063 252.08 107.063 251.92C107.063 249.504 105.655 247.552 103.207 247.552C100.919 247.552 99.239 249.472 99.239 251.856V251.888C99.239 254.448 101.095 256.192 103.367 256.192ZM100.487 251.408C100.647 249.792 101.735 248.592 103.175 248.592C104.823 248.592 105.687 249.904 105.815 251.408H100.487ZM109.22 256H110.452V251.264C110.452 249.712 111.508 248.672 112.932 248.672C114.388 248.672 115.22 249.632 115.22 251.168V256H116.452V250.864C116.452 248.896 115.284 247.552 113.284 247.552C111.86 247.552 110.996 248.272 110.452 249.168V247.728H109.22V256ZM122.695 256.192C124.263 256.192 125.271 255.568 126.103 254.64L125.335 253.952C124.663 254.656 123.863 255.12 122.727 255.12C121.255 255.12 119.991 254.112 119.815 252.32H126.375C126.391 252.176 126.391 252.08 126.391 251.92C126.391 249.504 124.983 247.552 122.535 247.552C120.247 247.552 118.567 249.472 118.567 251.856V251.888C118.567 254.448 120.423 256.192 122.695 256.192ZM119.815 251.408C119.975 249.792 121.063 248.592 122.503 248.592C124.151 248.592 125.015 249.904 125.143 251.408H119.815ZM131.316 256.144C131.908 256.144 132.372 256.016 132.804 255.792V254.736C132.372 254.944 132.02 255.024 131.604 255.024C130.772 255.024 130.212 254.656 130.212 253.648V248.816H132.836V247.728H130.212V245.232H128.98V247.728H127.828V248.816H128.98V253.808C128.98 255.488 129.988 256.144 131.316 256.144ZM135.017 256H136.249V252.704C136.249 250.208 137.721 248.912 139.529 248.912H139.625V247.584C138.057 247.52 136.857 248.512 136.249 249.888V247.728H135.017V256ZM143.559 256.176C145.015 256.176 145.975 255.504 146.551 254.752V256H147.735V250.944C147.735 249.888 147.447 249.088 146.887 248.528C146.279 247.92 145.383 247.616 144.215 247.616C143.015 247.616 142.119 247.888 141.207 248.304L141.575 249.312C142.343 248.96 143.111 248.704 144.087 248.704C145.639 248.704 146.551 249.472 146.551 250.96V251.248C145.815 251.04 145.063 250.896 144.007 250.896C141.911 250.896 140.471 251.824 140.471 253.568V253.6C140.471 255.296 142.023 256.176 143.559 256.176ZM143.799 255.2C142.679 255.2 141.719 254.592 141.719 253.552V253.52C141.719 252.48 142.583 251.808 144.135 251.808C145.143 251.808 145.959 251.984 146.567 252.16V252.96C146.567 254.272 145.319 255.2 143.799 255.2ZM153.05 256.144C153.642 256.144 154.106 256.016 154.538 255.792V254.736C154.106 254.944 153.754 255.024 153.338 255.024C152.506 255.024 151.946 254.656 151.946 253.648V248.816H154.57V247.728H151.946V245.232H150.714V247.728H149.562V248.816H150.714V253.808C150.714 255.488 151.722 256.144 153.05 256.144ZM160.133 256.192C161.701 256.192 162.709 255.568 163.541 254.64L162.773 253.952C162.101 254.656 161.301 255.12 160.165 255.12C158.693 255.12 157.429 254.112 157.253 252.32H163.813C163.829 252.176 163.829 252.08 163.829 251.92C163.829 249.504 162.421 247.552 159.973 247.552C157.685 247.552 156.005 249.472 156.005 251.856V251.888C156.005 254.448 157.861 256.192 160.133 256.192ZM157.253 251.408C157.413 249.792 158.501 248.592 159.941 248.592C161.589 248.592 162.453 249.904 162.581 251.408H157.253ZM168.721 256.16C170.369 256.16 171.665 255.248 171.665 253.68V253.648C171.665 252.16 170.289 251.664 169.009 251.28C167.905 250.944 166.881 250.64 166.881 249.856V249.824C166.881 249.136 167.505 248.624 168.481 248.624C169.281 248.624 170.161 248.928 170.929 249.424L171.489 248.496C170.641 247.936 169.521 247.584 168.513 247.584C166.881 247.584 165.697 248.528 165.697 249.952V249.984C165.697 251.504 167.137 251.952 168.433 252.32C169.521 252.624 170.497 252.944 170.497 253.776V253.808C170.497 254.608 169.777 255.12 168.785 255.12C167.809 255.12 166.817 254.736 165.921 254.064L165.297 254.944C166.225 255.696 167.537 256.16 168.721 256.16ZM178.783 245.92H180.191V244.56H178.783V245.92ZM178.863 256H180.095V247.728H178.863V256ZM182.954 256H184.186V251.264C184.186 249.712 185.242 248.672 186.666 248.672C188.122 248.672 188.954 249.632 188.954 251.168V256H190.186V250.864C190.186 248.896 189.018 247.552 187.018 247.552C185.594 247.552 184.73 248.272 184.186 249.168V247.728H182.954V256ZM195.582 256.144C196.174 256.144 196.638 256.016 197.07 255.792V254.736C196.638 254.944 196.286 255.024 195.87 255.024C195.038 255.024 194.478 254.656 194.478 253.648V248.816H197.102V247.728H194.478V245.232H193.246V247.728H192.094V248.816H193.246V253.808C193.246 255.488 194.254 256.144 195.582 256.144ZM202.824 256.192C205.32 256.192 207.16 254.208 207.16 251.872V251.84C207.16 249.504 205.336 247.552 202.856 247.552C200.36 247.552 198.536 249.536 198.536 251.872V251.904C198.536 254.24 200.344 256.192 202.824 256.192ZM202.856 255.088C201.112 255.088 199.8 253.648 199.8 251.872V251.84C199.8 250.096 201.032 248.64 202.824 248.64C204.568 248.64 205.896 250.096 205.896 251.872V251.904C205.896 253.648 204.648 255.088 202.856 255.088ZM216.957 256.144C217.549 256.144 218.013 256.016 218.445 255.792V254.736C218.013 254.944 217.661 255.024 217.245 255.024C216.413 255.024 215.853 254.656 215.853 253.648V248.816H218.477V247.728H215.853V245.232H214.621V247.728H213.469V248.816H214.621V253.808C214.621 255.488 215.629 256.144 216.957 256.144ZM220.657 256H221.889V251.264C221.889 249.712 222.945 248.672 224.369 248.672C225.825 248.672 226.657 249.632 226.657 251.168V256H227.889V250.864C227.889 248.896 226.721 247.552 224.721 247.552C223.297 247.552 222.433 248.272 221.889 249.168V244.32H220.657V256ZM234.133 256.192C235.701 256.192 236.709 255.568 237.541 254.64L236.773 253.952C236.101 254.656 235.301 255.12 234.165 255.12C232.693 255.12 231.429 254.112 231.253 252.32H237.813C237.829 252.176 237.829 252.08 237.829 251.92C237.829 249.504 236.421 247.552 233.973 247.552C231.685 247.552 230.005 249.472 230.005 251.856V251.888C230.005 254.448 231.861 256.192 234.133 256.192ZM231.253 251.408C231.413 249.792 232.501 248.592 233.941 248.592C235.589 248.592 236.453 249.904 236.581 251.408H231.253ZM244.782 256H246.014V251.264C246.014 249.712 247.07 248.672 248.494 248.672C249.95 248.672 250.782 249.632 250.782 251.168V256H252.014V250.864C252.014 248.896 250.846 247.552 248.846 247.552C247.422 247.552 246.558 248.272 246.014 249.168V244.32H244.782V256ZM258.258 256.192C259.826 256.192 260.834 255.568 261.666 254.64L260.898 253.952C260.226 254.656 259.426 255.12 258.29 255.12C256.818 255.12 255.554 254.112 255.378 252.32H261.938C261.954 252.176 261.954 252.08 261.954 251.92C261.954 249.504 260.546 247.552 258.098 247.552C255.81 247.552 254.13 249.472 254.13 251.856V251.888C254.13 254.448 255.986 256.192 258.258 256.192ZM255.378 251.408C255.538 249.792 256.626 248.592 258.066 248.592C259.714 248.592 260.578 249.904 260.706 251.408H255.378ZM266.574 256.176C268.03 256.176 268.99 255.504 269.566 254.752V256H270.75V250.944C270.75 249.888 270.462 249.088 269.902 248.528C269.294 247.92 268.398 247.616 267.23 247.616C266.03 247.616 265.134 247.888 264.222 248.304L264.59 249.312C265.358 248.96 266.126 248.704 267.102 248.704C268.654 248.704 269.566 249.472 269.566 250.96V251.248C268.83 251.04 268.078 250.896 267.022 250.896C264.926 250.896 263.486 251.824 263.486 253.568V253.6C263.486 255.296 265.038 256.176 266.574 256.176ZM266.814 255.2C265.694 255.2 264.734 254.592 264.734 253.552V253.52C264.734 252.48 265.598 251.808 267.15 251.808C268.158 251.808 268.974 251.984 269.582 252.16V252.96C269.582 254.272 268.334 255.2 266.814 255.2ZM276.066 256.144C276.658 256.144 277.122 256.016 277.554 255.792V254.736C277.122 254.944 276.77 255.024 276.354 255.024C275.522 255.024 274.962 254.656 274.962 253.648V248.816H277.586V247.728H274.962V245.232H273.73V247.728H272.578V248.816H273.73V253.808C273.73 255.488 274.738 256.144 276.066 256.144ZM288.292 256.192C289.844 256.192 290.836 255.52 291.668 254.592L290.884 253.856C290.228 254.56 289.412 255.088 288.356 255.088C286.628 255.088 285.316 253.664 285.316 251.872V251.84C285.316 250.064 286.596 248.64 288.276 248.64C289.396 248.64 290.132 249.2 290.788 249.888L291.604 249.024C290.836 248.208 289.86 247.552 288.292 247.552C285.876 247.552 284.052 249.536 284.052 251.872V251.904C284.052 254.224 285.876 256.192 288.292 256.192ZM297.086 256.192C298.654 256.192 299.662 255.568 300.494 254.64L299.726 253.952C299.054 254.656 298.254 255.12 297.118 255.12C295.646 255.12 294.382 254.112 294.206 252.32H300.766C300.782 252.176 300.782 252.08 300.782 251.92C300.782 249.504 299.374 247.552 296.926 247.552C294.638 247.552 292.958 249.472 292.958 251.856V251.888C292.958 254.448 294.814 256.192 297.086 256.192ZM294.206 251.408C294.366 249.792 295.454 248.592 296.894 248.592C298.542 248.592 299.406 249.904 299.534 251.408H294.206ZM303.051 256H304.283V244.32H303.051V256ZM307.254 256H308.486V244.32H307.254V256ZM314.081 256.16C315.729 256.16 317.025 255.248 317.025 253.68V253.648C317.025 252.16 315.649 251.664 314.369 251.28C313.265 250.944 312.241 250.64 312.241 249.856V249.824C312.241 249.136 312.865 248.624 313.841 248.624C314.641 248.624 315.521 248.928 316.289 249.424L316.849 248.496C316.001 247.936 314.881 247.584 313.873 247.584C312.241 247.584 311.057 248.528 311.057 249.952V249.984C311.057 251.504 312.497 251.952 313.793 252.32C314.881 252.624 315.857 252.944 315.857 253.776V253.808C315.857 254.608 315.137 255.12 314.145 255.12C313.169 255.12 312.177 254.736 311.281 254.064L310.657 254.944C311.585 255.696 312.897 256.16 314.081 256.16ZM319.17 256H320.642V254.32H319.17V256ZM25.6299 278H26.9099V267.968H30.6699V266.8H21.8699V267.968H25.6299V278ZM32.5869 278H33.8189V273.264C33.8189 271.712 34.8749 270.672 36.2989 270.672C37.7549 270.672 38.5869 271.632 38.5869 273.168V278H39.8189V272.864C39.8189 270.896 38.6509 269.552 36.6509 269.552C35.2269 269.552 34.3629 270.272 33.8189 271.168V266.32H32.5869V278ZM46.0623 278.192C47.6303 278.192 48.6383 277.568 49.4703 276.64L48.7023 275.952C48.0303 276.656 47.2303 277.12 46.0943 277.12C44.6223 277.12 43.3583 276.112 43.1823 274.32H49.7423C49.7583 274.176 49.7583 274.08 49.7583 273.92C49.7583 271.504 48.3503 269.552 45.9023 269.552C43.6143 269.552 41.9343 271.472 41.9343 273.856V273.888C41.9343 276.448 43.7903 278.192 46.0623 278.192ZM43.1823 273.408C43.3423 271.792 44.4303 270.592 45.8703 270.592C47.5183 270.592 48.3823 271.904 48.5103 273.408H43.1823ZM60.4399 278.192C61.9919 278.192 62.9839 277.52 63.8159 276.592L63.0319 275.856C62.3759 276.56 61.5599 277.088 60.5039 277.088C58.7759 277.088 57.4639 275.664 57.4639 273.872V273.84C57.4639 272.064 58.7439 270.64 60.4239 270.64C61.5439 270.64 62.2799 271.2 62.9359 271.888L63.7519 271.024C62.9839 270.208 62.0079 269.552 60.4399 269.552C58.0239 269.552 56.1999 271.536 56.1999 273.872V273.904C56.1999 276.224 58.0239 278.192 60.4399 278.192ZM65.8526 278H67.0846V273.264C67.0846 271.712 68.1406 270.672 69.5646 270.672C71.0206 270.672 71.8526 271.632 71.8526 273.168V278H73.0846V272.864C73.0846 270.896 71.9166 269.552 69.9166 269.552C68.4926 269.552 67.6286 270.272 67.0846 271.168V266.32H65.8526V278ZM79.3279 278.192C80.8959 278.192 81.9039 277.568 82.7359 276.64L81.9679 275.952C81.2959 276.656 80.4959 277.12 79.3599 277.12C77.8879 277.12 76.6239 276.112 76.4479 274.32H83.0079C83.0239 274.176 83.0239 274.08 83.0239 273.92C83.0239 271.504 81.6159 269.552 79.1679 269.552C76.8799 269.552 75.1999 271.472 75.1999 273.856V273.888C75.1999 276.448 77.0559 278.192 79.3279 278.192ZM76.4479 273.408C76.6079 271.792 77.6959 270.592 79.1359 270.592C80.7839 270.592 81.6479 271.904 81.7759 273.408H76.4479ZM85.1807 278H86.4127V273.28C86.4127 271.76 87.4047 270.672 88.7167 270.672C90.0287 270.672 90.8447 271.584 90.8447 273.136V278H92.0767V273.232C92.0767 271.6 93.1007 270.672 94.3487 270.672C95.6927 270.672 96.4927 271.568 96.4927 273.168V278H97.7247V272.88C97.7247 270.832 96.5567 269.552 94.6527 269.552C93.2127 269.552 92.3327 270.288 91.7407 271.2C91.2927 270.272 90.4287 269.552 89.0847 269.552C87.6927 269.552 86.9567 270.304 86.4127 271.12V269.728H85.1807V278ZM100.431 267.92H101.839V266.56H100.431V267.92ZM100.511 278H101.743V269.728H100.511V278ZM108.331 278.192C109.883 278.192 110.875 277.52 111.707 276.592L110.923 275.856C110.267 276.56 109.451 277.088 108.395 277.088C106.667 277.088 105.355 275.664 105.355 273.872V273.84C105.355 272.064 106.635 270.64 108.315 270.64C109.435 270.64 110.171 271.2 110.827 271.888L111.643 271.024C110.875 270.208 109.899 269.552 108.331 269.552C105.915 269.552 104.091 271.536 104.091 273.872V273.904C104.091 276.224 105.915 278.192 108.331 278.192ZM116.207 278.176C117.663 278.176 118.623 277.504 119.199 276.752V278H120.383V272.944C120.383 271.888 120.095 271.088 119.535 270.528C118.927 269.92 118.031 269.616 116.863 269.616C115.663 269.616 114.767 269.888 113.855 270.304L114.223 271.312C114.991 270.96 115.759 270.704 116.735 270.704C118.287 270.704 119.199 271.472 119.199 272.96V273.248C118.463 273.04 117.711 272.896 116.655 272.896C114.559 272.896 113.119 273.824 113.119 275.568V275.6C113.119 277.296 114.671 278.176 116.207 278.176ZM116.447 277.2C115.327 277.2 114.367 276.592 114.367 275.552V275.52C114.367 274.48 115.231 273.808 116.783 273.808C117.791 273.808 118.607 273.984 119.215 274.16V274.96C119.215 276.272 117.967 277.2 116.447 277.2ZM123.121 278H124.353V266.32H123.121V278ZM132.009 278H133.241V274.704C133.241 272.208 134.713 270.912 136.521 270.912H136.617V269.584C135.049 269.52 133.849 270.512 133.241 271.888V269.728H132.009V278ZM141.75 278.192C143.318 278.192 144.326 277.568 145.158 276.64L144.39 275.952C143.718 276.656 142.918 277.12 141.782 277.12C140.31 277.12 139.046 276.112 138.87 274.32H145.43C145.446 274.176 145.446 274.08 145.446 273.92C145.446 271.504 144.038 269.552 141.59 269.552C139.302 269.552 137.622 271.472 137.622 273.856V273.888C137.622 276.448 139.478 278.192 141.75 278.192ZM138.87 273.408C139.03 271.792 140.118 270.592 141.558 270.592C143.206 270.592 144.07 271.904 144.198 273.408H138.87ZM150.067 278.176C151.523 278.176 152.483 277.504 153.059 276.752V278H154.243V272.944C154.243 271.888 153.955 271.088 153.395 270.528C152.787 269.92 151.891 269.616 150.723 269.616C149.523 269.616 148.627 269.888 147.715 270.304L148.083 271.312C148.851 270.96 149.619 270.704 150.595 270.704C152.147 270.704 153.059 271.472 153.059 272.96V273.248C152.323 273.04 151.571 272.896 150.515 272.896C148.419 272.896 146.979 273.824 146.979 275.568V275.6C146.979 277.296 148.531 278.176 150.067 278.176ZM150.307 277.2C149.187 277.2 148.227 276.592 148.227 275.552V275.52C148.227 274.48 149.091 273.808 150.643 273.808C151.651 273.808 152.467 273.984 153.075 274.16V274.96C153.075 276.272 151.827 277.2 150.307 277.2ZM160.596 278.192C162.148 278.192 163.14 277.52 163.972 276.592L163.188 275.856C162.532 276.56 161.716 277.088 160.66 277.088C158.932 277.088 157.62 275.664 157.62 273.872V273.84C157.62 272.064 158.9 270.64 160.58 270.64C161.7 270.64 162.436 271.2 163.092 271.888L163.908 271.024C163.14 270.208 162.164 269.552 160.596 269.552C158.18 269.552 156.356 271.536 156.356 273.872V273.904C156.356 276.224 158.18 278.192 160.596 278.192ZM168.777 278.144C169.369 278.144 169.833 278.016 170.265 277.792V276.736C169.833 276.944 169.481 277.024 169.065 277.024C168.233 277.024 167.673 276.656 167.673 275.648V270.816H170.297V269.728H167.673V267.232H166.441V269.728H165.289V270.816H166.441V275.808C166.441 277.488 167.449 278.144 168.777 278.144ZM172.51 267.92H173.918V266.56H172.51V267.92ZM172.59 278H173.822V269.728H172.59V278ZM180.457 278.192C182.953 278.192 184.793 276.208 184.793 273.872V273.84C184.793 271.504 182.969 269.552 180.489 269.552C177.993 269.552 176.169 271.536 176.169 273.872V273.904C176.169 276.24 177.977 278.192 180.457 278.192ZM180.489 277.088C178.745 277.088 177.433 275.648 177.433 273.872V273.84C177.433 272.096 178.665 270.64 180.457 270.64C182.201 270.64 183.529 272.096 183.529 273.872V273.904C183.529 275.648 182.281 277.088 180.489 277.088ZM187.024 278H188.256V273.264C188.256 271.712 189.312 270.672 190.736 270.672C192.192 270.672 193.024 271.632 193.024 273.168V278H194.256V272.864C194.256 270.896 193.088 269.552 191.088 269.552C189.664 269.552 188.8 270.272 188.256 271.168V269.728H187.024V278ZM201.713 267.92H203.121V266.56H201.713V267.92ZM201.793 278H203.025V269.728H201.793V278ZM208.62 278.16C210.268 278.16 211.564 277.248 211.564 275.68V275.648C211.564 274.16 210.188 273.664 208.908 273.28C207.804 272.944 206.78 272.64 206.78 271.856V271.824C206.78 271.136 207.404 270.624 208.38 270.624C209.18 270.624 210.06 270.928 210.828 271.424L211.388 270.496C210.54 269.936 209.42 269.584 208.412 269.584C206.78 269.584 205.596 270.528 205.596 271.952V271.984C205.596 273.504 207.036 273.952 208.332 274.32C209.42 274.624 210.396 274.944 210.396 275.776V275.808C210.396 276.608 209.676 277.12 208.684 277.12C207.708 277.12 206.716 276.736 205.82 276.064L205.196 276.944C206.124 277.696 207.436 278.16 208.62 278.16ZM221.417 278.144C222.009 278.144 222.473 278.016 222.905 277.792V276.736C222.473 276.944 222.121 277.024 221.705 277.024C220.873 277.024 220.313 276.656 220.313 275.648V270.816H222.937V269.728H220.313V267.232H219.081V269.728H217.929V270.816H219.081V275.808C219.081 277.488 220.089 278.144 221.417 278.144ZM225.118 278H226.35V274.704C226.35 272.208 227.822 270.912 229.63 270.912H229.726V269.584C228.158 269.52 226.958 270.512 226.35 271.888V269.728H225.118V278ZM231.635 267.92H233.043V266.56H231.635V267.92ZM231.715 278H232.947V269.728H231.715V278ZM239.47 280.592C240.782 280.592 241.886 280.224 242.622 279.488C243.294 278.816 243.678 277.84 243.678 276.56V269.728H242.446V271.216C241.774 270.32 240.766 269.552 239.214 269.552C237.246 269.552 235.326 271.04 235.326 273.456V273.488C235.326 275.872 237.23 277.36 239.214 277.36C240.734 277.36 241.742 276.576 242.462 275.616V276.592C242.462 278.528 241.278 279.536 239.454 279.536C238.27 279.536 237.214 279.168 236.27 278.48L235.71 279.44C236.814 280.208 238.094 280.592 239.47 280.592ZM239.454 276.272C237.918 276.272 236.59 275.12 236.59 273.456V273.424C236.59 271.728 237.886 270.64 239.454 270.64C241.022 270.64 242.494 271.744 242.494 273.44V273.472C242.494 275.136 241.022 276.272 239.454 276.272ZM250.095 280.592C251.407 280.592 252.511 280.224 253.247 279.488C253.919 278.816 254.303 277.84 254.303 276.56V269.728H253.071V271.216C252.399 270.32 251.391 269.552 249.839 269.552C247.871 269.552 245.951 271.04 245.951 273.456V273.488C245.951 275.872 247.855 277.36 249.839 277.36C251.359 277.36 252.367 276.576 253.087 275.616V276.592C253.087 278.528 251.903 279.536 250.079 279.536C248.895 279.536 247.839 279.168 246.895 278.48L246.335 279.44C247.439 280.208 248.719 280.592 250.095 280.592ZM250.079 276.272C248.543 276.272 247.215 275.12 247.215 273.456V273.424C247.215 271.728 248.511 270.64 250.079 270.64C251.647 270.64 253.119 271.744 253.119 273.44V273.472C253.119 275.136 251.647 276.272 250.079 276.272ZM260.672 278.192C262.24 278.192 263.248 277.568 264.08 276.64L263.312 275.952C262.64 276.656 261.84 277.12 260.704 277.12C259.232 277.12 257.968 276.112 257.792 274.32H264.352C264.368 274.176 264.368 274.08 264.368 273.92C264.368 271.504 262.96 269.552 260.512 269.552C258.224 269.552 256.544 271.472 256.544 273.856V273.888C256.544 276.448 258.4 278.192 260.672 278.192ZM257.792 273.408C257.952 271.792 259.04 270.592 260.48 270.592C262.128 270.592 262.992 271.904 263.12 273.408H257.792ZM266.524 278H267.756V274.704C267.756 272.208 269.228 270.912 271.036 270.912H271.132V269.584C269.564 269.52 268.364 270.512 267.756 271.888V269.728H266.524V278ZM276.265 278.192C277.833 278.192 278.841 277.568 279.673 276.64L278.905 275.952C278.233 276.656 277.433 277.12 276.297 277.12C274.825 277.12 273.561 276.112 273.385 274.32H279.945C279.961 274.176 279.961 274.08 279.961 273.92C279.961 271.504 278.553 269.552 276.105 269.552C273.817 269.552 272.137 271.472 272.137 273.856V273.888C272.137 276.448 273.993 278.192 276.265 278.192ZM273.385 273.408C273.545 271.792 274.633 270.592 276.073 270.592C277.721 270.592 278.585 271.904 278.713 273.408H273.385ZM285.59 278.176C287.11 278.176 288.086 277.328 288.758 276.336V278H289.99V266.32H288.758V271.312C288.118 270.384 287.126 269.552 285.59 269.552C283.606 269.552 281.638 271.152 281.638 273.856V273.888C281.638 276.608 283.606 278.176 285.59 278.176ZM285.814 277.072C284.262 277.072 282.902 275.824 282.902 273.872V273.84C282.902 271.84 284.214 270.656 285.814 270.656C287.35 270.656 288.806 271.936 288.806 273.84V273.872C288.806 275.776 287.35 277.072 285.814 277.072ZM300.004 278.176C301.46 278.176 302.42 277.504 302.996 276.752V278H304.18V272.944C304.18 271.888 303.892 271.088 303.332 270.528C302.724 269.92 301.828 269.616 300.66 269.616C299.46 269.616 298.564 269.888 297.652 270.304L298.02 271.312C298.788 270.96 299.556 270.704 300.532 270.704C302.084 270.704 302.996 271.472 302.996 272.96V273.248C302.26 273.04 301.508 272.896 300.452 272.896C298.356 272.896 296.916 273.824 296.916 275.568V275.6C296.916 277.296 298.468 278.176 300.004 278.176ZM300.244 277.2C299.124 277.2 298.164 276.592 298.164 275.552V275.52C298.164 274.48 299.028 273.808 300.58 273.808C301.588 273.808 302.404 273.984 303.012 274.16V274.96C303.012 276.272 301.764 277.2 300.244 277.2ZM306.806 278H308.038V273.264C308.038 271.712 309.094 270.672 310.518 270.672C311.974 270.672 312.806 271.632 312.806 273.168V278H314.038V272.864C314.038 270.896 312.87 269.552 310.87 269.552C309.446 269.552 308.582 270.272 308.038 271.168V269.728H306.806V278ZM320.137 278.176C321.657 278.176 322.633 277.328 323.305 276.336V278H324.537V266.32H323.305V271.312C322.665 270.384 321.673 269.552 320.137 269.552C318.153 269.552 316.185 271.152 316.185 273.856V273.888C316.185 276.608 318.153 278.176 320.137 278.176ZM320.361 277.072C318.809 277.072 317.449 275.824 317.449 273.872V273.84C317.449 271.84 318.761 270.656 320.361 270.656C321.897 270.656 323.353 271.936 323.353 273.84V273.872C323.353 275.776 321.897 277.072 320.361 277.072ZM27.7056 300.192C29.2576 300.192 30.2496 299.52 31.0816 298.592L30.2976 297.856C29.6416 298.56 28.8256 299.088 27.7696 299.088C26.0416 299.088 24.7296 297.664 24.7296 295.872V295.84C24.7296 294.064 26.0096 292.64 27.6896 292.64C28.8096 292.64 29.5456 293.2 30.2016 293.888L31.0176 293.024C30.2496 292.208 29.2736 291.552 27.7056 291.552C25.2896 291.552 23.4656 293.536 23.4656 295.872V295.904C23.4656 298.224 25.2896 300.192 27.7056 300.192ZM36.6598 300.192C39.1558 300.192 40.9958 298.208 40.9958 295.872V295.84C40.9958 293.504 39.1718 291.552 36.6918 291.552C34.1958 291.552 32.3718 293.536 32.3718 295.872V295.904C32.3718 298.24 34.1798 300.192 36.6598 300.192ZM36.6918 299.088C34.9478 299.088 33.6358 297.648 33.6358 295.872V295.84C33.6358 294.096 34.8678 292.64 36.6598 292.64C38.4038 292.64 39.7318 294.096 39.7318 295.872V295.904C39.7318 297.648 38.4838 299.088 36.6918 299.088ZM43.2276 300H44.4596V295.28C44.4596 293.76 45.4516 292.672 46.7636 292.672C48.0756 292.672 48.8916 293.584 48.8916 295.136V300H50.1236V295.232C50.1236 293.6 51.1476 292.672 52.3956 292.672C53.7396 292.672 54.5396 293.568 54.5396 295.168V300H55.7716V294.88C55.7716 292.832 54.6036 291.552 52.6996 291.552C51.2596 291.552 50.3796 292.288 49.7876 293.2C49.3396 292.272 48.4756 291.552 47.1316 291.552C45.7396 291.552 45.0036 292.304 44.4596 293.12V291.728H43.2276V300ZM58.4463 300H59.6783V295.28C59.6783 293.76 60.6703 292.672 61.9823 292.672C63.2943 292.672 64.1103 293.584 64.1103 295.136V300H65.3423V295.232C65.3423 293.6 66.3663 292.672 67.6143 292.672C68.9583 292.672 69.7583 293.568 69.7583 295.168V300H70.9903V294.88C70.9903 292.832 69.8223 291.552 67.9183 291.552C66.4783 291.552 65.5983 292.288 65.0063 293.2C64.5583 292.272 63.6943 291.552 62.3503 291.552C60.9583 291.552 60.2223 292.304 59.6783 293.12V291.728H58.4463V300ZM77.2811 300.192C78.8491 300.192 79.8571 299.568 80.6891 298.64L79.9211 297.952C79.2491 298.656 78.4491 299.12 77.3131 299.12C75.8411 299.12 74.5771 298.112 74.4011 296.32H80.9611C80.9771 296.176 80.9771 296.08 80.9771 295.92C80.9771 293.504 79.5691 291.552 77.1211 291.552C74.8331 291.552 73.1531 293.472 73.1531 295.856V295.888C73.1531 298.448 75.0091 300.192 77.2811 300.192ZM74.4011 295.408C74.5611 293.792 75.6491 292.592 77.0891 292.592C78.7371 292.592 79.6011 293.904 79.7291 295.408H74.4011ZM83.1338 300H84.3658V295.264C84.3658 293.712 85.4218 292.672 86.8458 292.672C88.3018 292.672 89.1338 293.632 89.1338 295.168V300H90.3658V294.864C90.3658 292.896 89.1978 291.552 87.1978 291.552C85.7738 291.552 84.9098 292.272 84.3658 293.168V291.728H83.1338V300ZM96.7212 300.192C98.2732 300.192 99.2652 299.52 100.097 298.592L99.3132 297.856C98.6572 298.56 97.8412 299.088 96.7852 299.088C95.0572 299.088 93.7452 297.664 93.7452 295.872V295.84C93.7452 294.064 95.0252 292.64 96.7052 292.64C97.8252 292.64 98.5612 293.2 99.2172 293.888L100.033 293.024C99.2652 292.208 98.2892 291.552 96.7212 291.552C94.3052 291.552 92.4812 293.536 92.4812 295.872V295.904C92.4812 298.224 94.3052 300.192 96.7212 300.192ZM105.515 300.192C107.083 300.192 108.091 299.568 108.923 298.64L108.155 297.952C107.483 298.656 106.683 299.12 105.547 299.12C104.075 299.12 102.811 298.112 102.635 296.32H109.195C109.211 296.176 109.211 296.08 109.211 295.92C109.211 293.504 107.803 291.552 105.355 291.552C103.067 291.552 101.387 293.472 101.387 295.856V295.888C101.387 298.448 103.243 300.192 105.515 300.192ZM102.635 295.408C102.795 293.792 103.883 292.592 105.323 292.592C106.971 292.592 107.835 293.904 107.963 295.408H102.635ZM114.104 300.16C115.752 300.16 117.048 299.248 117.048 297.68V297.648C117.048 296.16 115.672 295.664 114.392 295.28C113.288 294.944 112.264 294.64 112.264 293.856V293.824C112.264 293.136 112.888 292.624 113.864 292.624C114.664 292.624 115.544 292.928 116.312 293.424L116.872 292.496C116.024 291.936 114.904 291.584 113.896 291.584C112.264 291.584 111.08 292.528 111.08 293.952V293.984C111.08 295.504 112.52 295.952 113.816 296.32C114.904 296.624 115.88 296.944 115.88 297.776V297.808C115.88 298.608 115.16 299.12 114.168 299.12C113.192 299.12 112.2 298.736 111.304 298.064L110.68 298.944C111.608 299.696 112.92 300.16 114.104 300.16ZM124.134 302.56H125.366V298.416C126.006 299.344 126.998 300.176 128.534 300.176C130.534 300.176 132.486 298.576 132.486 295.872V295.84C132.486 293.12 130.518 291.552 128.534 291.552C127.014 291.552 126.038 292.4 125.366 293.392V291.728H124.134V302.56ZM128.31 299.072C126.774 299.072 125.318 297.792 125.318 295.872V295.84C125.318 293.952 126.774 292.656 128.31 292.656C129.878 292.656 131.222 293.904 131.222 295.856V295.888C131.222 297.888 129.91 299.072 128.31 299.072ZM134.759 300H135.991V296.704C135.991 294.208 137.463 292.912 139.271 292.912H139.367V291.584C137.799 291.52 136.599 292.512 135.991 293.888V291.728H134.759V300ZM144.66 300.192C147.156 300.192 148.996 298.208 148.996 295.872V295.84C148.996 293.504 147.172 291.552 144.692 291.552C142.196 291.552 140.372 293.536 140.372 295.872V295.904C140.372 298.24 142.18 300.192 144.66 300.192ZM144.692 299.088C142.948 299.088 141.636 297.648 141.636 295.872V295.84C141.636 294.096 142.868 292.64 144.66 292.64C146.404 292.64 147.732 294.096 147.732 295.872V295.904C147.732 297.648 146.484 299.088 144.692 299.088ZM154.7 300.176C156.22 300.176 157.196 299.328 157.868 298.336V300H159.1V288.32H157.868V293.312C157.228 292.384 156.236 291.552 154.7 291.552C152.716 291.552 150.748 293.152 150.748 295.856V295.888C150.748 298.608 152.716 300.176 154.7 300.176ZM154.924 299.072C153.372 299.072 152.012 297.824 152.012 295.872V295.84C152.012 293.84 153.324 292.656 154.924 292.656C156.46 292.656 157.916 293.936 157.916 295.84V295.872C157.916 297.776 156.46 299.072 154.924 299.072ZM164.893 300.176C166.317 300.176 167.165 299.456 167.725 298.56V300H168.941V291.728H167.725V296.464C167.725 298.016 166.653 299.056 165.245 299.056C163.789 299.056 162.957 298.096 162.957 296.56V291.728H161.725V296.864C161.725 298.832 162.893 300.176 164.893 300.176ZM175.44 300.192C176.992 300.192 177.984 299.52 178.816 298.592L178.032 297.856C177.376 298.56 176.56 299.088 175.504 299.088C173.776 299.088 172.464 297.664 172.464 295.872V295.84C172.464 294.064 173.744 292.64 175.424 292.64C176.544 292.64 177.28 293.2 177.936 293.888L178.752 293.024C177.984 292.208 177.008 291.552 175.44 291.552C173.024 291.552 171.2 293.536 171.2 295.872V295.904C171.2 298.224 173.024 300.192 175.44 300.192ZM180.885 289.92H182.293V288.56H180.885V289.92ZM180.965 300H182.197V291.728H180.965V300ZM185.056 300H186.288V295.264C186.288 293.712 187.344 292.672 188.768 292.672C190.224 292.672 191.056 293.632 191.056 295.168V300H192.288V294.864C192.288 292.896 191.12 291.552 189.12 291.552C187.696 291.552 186.832 292.272 186.288 293.168V291.728H185.056V300ZM198.579 302.592C199.891 302.592 200.995 302.224 201.731 301.488C202.403 300.816 202.787 299.84 202.787 298.56V291.728H201.555V293.216C200.883 292.32 199.875 291.552 198.323 291.552C196.355 291.552 194.435 293.04 194.435 295.456V295.488C194.435 297.872 196.339 299.36 198.323 299.36C199.843 299.36 200.851 298.576 201.571 297.616V298.592C201.571 300.528 200.387 301.536 198.563 301.536C197.379 301.536 196.323 301.168 195.379 300.48L194.819 301.44C195.923 302.208 197.203 302.592 198.579 302.592ZM198.563 298.272C197.027 298.272 195.699 297.12 195.699 295.456V295.424C195.699 293.728 196.995 292.64 198.563 292.64C200.131 292.64 201.603 293.744 201.603 295.44V295.472C201.603 297.136 200.131 298.272 198.563 298.272ZM210.337 300H211.569V295.264C211.569 293.712 212.625 292.672 214.049 292.672C215.505 292.672 216.337 293.632 216.337 295.168V300H217.569V294.864C217.569 292.896 216.401 291.552 214.401 291.552C212.977 291.552 212.113 292.272 211.569 293.168V288.32H210.337V300ZM223.812 300.192C225.38 300.192 226.388 299.568 227.22 298.64L226.452 297.952C225.78 298.656 224.98 299.12 223.844 299.12C222.372 299.12 221.108 298.112 220.932 296.32H227.492C227.508 296.176 227.508 296.08 227.508 295.92C227.508 293.504 226.1 291.552 223.652 291.552C221.364 291.552 219.684 293.472 219.684 295.856V295.888C219.684 298.448 221.54 300.192 223.812 300.192ZM220.932 295.408C221.092 293.792 222.18 292.592 223.62 292.592C225.268 292.592 226.132 293.904 226.26 295.408H220.932ZM232.129 300.176C233.585 300.176 234.545 299.504 235.121 298.752V300H236.305V294.944C236.305 293.888 236.017 293.088 235.457 292.528C234.849 291.92 233.953 291.616 232.785 291.616C231.585 291.616 230.689 291.888 229.777 292.304L230.145 293.312C230.913 292.96 231.681 292.704 232.657 292.704C234.209 292.704 235.121 293.472 235.121 294.96V295.248C234.385 295.04 233.633 294.896 232.577 294.896C230.481 294.896 229.041 295.824 229.041 297.568V297.6C229.041 299.296 230.593 300.176 232.129 300.176ZM232.369 299.2C231.249 299.2 230.289 298.592 230.289 297.552V297.52C230.289 296.48 231.153 295.808 232.705 295.808C233.713 295.808 234.529 295.984 235.137 296.16V296.96C235.137 298.272 233.889 299.2 232.369 299.2ZM241.621 300.144C242.213 300.144 242.677 300.016 243.109 299.792V298.736C242.677 298.944 242.325 299.024 241.909 299.024C241.077 299.024 240.517 298.656 240.517 297.648V292.816H243.141V291.728H240.517V289.232H239.285V291.728H238.133V292.816H239.285V297.808C239.285 299.488 240.293 300.144 241.621 300.144ZM245.177 300H246.649V298.32H245.177V300ZM259.368 300.192C261.4 300.192 262.68 299.408 263.848 298.224L263.016 297.408C261.944 298.432 260.936 299.024 259.4 299.024C256.936 299.024 255.064 296.992 255.064 294.4V294.368C255.064 291.792 256.92 289.776 259.4 289.776C260.92 289.776 261.976 290.416 262.92 291.312L263.784 290.384C262.664 289.328 261.448 288.608 259.416 288.608C256.12 288.608 253.752 291.232 253.752 294.4V294.432C253.752 297.648 256.136 300.192 259.368 300.192ZM269.472 300.192C271.968 300.192 273.808 298.208 273.808 295.872V295.84C273.808 293.504 271.984 291.552 269.504 291.552C267.008 291.552 265.184 293.536 265.184 295.872V295.904C265.184 298.24 266.992 300.192 269.472 300.192ZM269.504 299.088C267.76 299.088 266.448 297.648 266.448 295.872V295.84C266.448 294.096 267.68 292.64 269.472 292.64C271.216 292.64 272.544 294.096 272.544 295.872V295.904C272.544 297.648 271.296 299.088 269.504 299.088ZM276.04 300H277.272V295.264C277.272 293.712 278.328 292.672 279.752 292.672C281.208 292.672 282.04 293.632 282.04 295.168V300H283.272V294.864C283.272 292.896 282.104 291.552 280.104 291.552C278.68 291.552 277.816 292.272 277.272 293.168V291.728H276.04V300ZM288.635 300.16C290.283 300.16 291.579 299.248 291.579 297.68V297.648C291.579 296.16 290.203 295.664 288.923 295.28C287.819 294.944 286.795 294.64 286.795 293.856V293.824C286.795 293.136 287.419 292.624 288.395 292.624C289.195 292.624 290.075 292.928 290.843 293.424L291.403 292.496C290.555 291.936 289.435 291.584 288.427 291.584C286.795 291.584 285.611 292.528 285.611 293.952V293.984C285.611 295.504 287.051 295.952 288.347 296.32C289.435 296.624 290.411 296.944 290.411 297.776V297.808C290.411 298.608 289.691 299.12 288.699 299.12C287.723 299.12 286.731 298.736 285.835 298.064L285.211 298.944C286.139 299.696 287.451 300.16 288.635 300.16ZM296.48 300.144C297.072 300.144 297.536 300.016 297.968 299.792V298.736C297.536 298.944 297.184 299.024 296.768 299.024C295.936 299.024 295.376 298.656 295.376 297.648V292.816H298V291.728H295.376V289.232H294.144V291.728H292.992V292.816H294.144V297.808C294.144 299.488 295.152 300.144 296.48 300.144ZM302.645 300.176C304.101 300.176 305.061 299.504 305.637 298.752V300H306.821V294.944C306.821 293.888 306.533 293.088 305.973 292.528C305.365 291.92 304.469 291.616 303.301 291.616C302.101 291.616 301.205 291.888 300.293 292.304L300.661 293.312C301.429 292.96 302.197 292.704 303.173 292.704C304.725 292.704 305.637 293.472 305.637 294.96V295.248C304.901 295.04 304.149 294.896 303.093 294.896C300.997 294.896 299.557 295.824 299.557 297.568V297.6C299.557 299.296 301.109 300.176 302.645 300.176ZM302.885 299.2C301.765 299.2 300.805 298.592 300.805 297.552V297.52C300.805 296.48 301.669 295.808 303.221 295.808C304.229 295.808 305.045 295.984 305.653 296.16V296.96C305.653 298.272 304.405 299.2 302.885 299.2ZM309.446 300H310.678V295.264C310.678 293.712 311.734 292.672 313.158 292.672C314.614 292.672 315.446 293.632 315.446 295.168V300H316.678V294.864C316.678 292.896 315.51 291.552 313.51 291.552C312.086 291.552 311.222 292.272 310.678 293.168V291.728H309.446V300ZM322.074 300.144C322.666 300.144 323.13 300.016 323.562 299.792V298.736C323.13 298.944 322.778 299.024 322.362 299.024C321.53 299.024 320.97 298.656 320.97 297.648V292.816H323.594V291.728H320.97V289.232H319.738V291.728H318.586V292.816H319.738V297.808C319.738 299.488 320.746 300.144 322.074 300.144ZM27.3081 322.144C27.9001 322.144 28.3641 322.016 28.7961 321.792V320.736C28.3641 320.944 28.0121 321.024 27.5961 321.024C26.7641 321.024 26.2041 320.656 26.2041 319.648V314.816H28.8281V313.728H26.2041V311.232H24.9721V313.728H23.8201V314.816H24.9721V319.808C24.9721 321.488 25.9801 322.144 27.3081 322.144ZM34.3904 322.192C35.9584 322.192 36.9664 321.568 37.7984 320.64L37.0304 319.952C36.3584 320.656 35.5584 321.12 34.4224 321.12C32.9504 321.12 31.6864 320.112 31.5104 318.32H38.0704C38.0864 318.176 38.0864 318.08 38.0864 317.92C38.0864 315.504 36.6784 313.552 34.2304 313.552C31.9424 313.552 30.2624 315.472 30.2624 317.856V317.888C30.2624 320.448 32.1184 322.192 34.3904 322.192ZM31.5104 317.408C31.6704 315.792 32.7584 314.592 34.1984 314.592C35.8464 314.592 36.7104 315.904 36.8384 317.408H31.5104ZM40.2432 322H41.4752V317.28C41.4752 315.76 42.4672 314.672 43.7792 314.672C45.0912 314.672 45.9072 315.584 45.9072 317.136V322H47.1392V317.232C47.1392 315.6 48.1632 314.672 49.4112 314.672C50.7552 314.672 51.5552 315.568 51.5552 317.168V322H52.7872V316.88C52.7872 314.832 51.6192 313.552 49.7152 313.552C48.2752 313.552 47.3952 314.288 46.8032 315.2C46.3552 314.272 45.4912 313.552 44.1472 313.552C42.7552 313.552 42.0192 314.304 41.4752 315.12V313.728H40.2432V322ZM55.4619 324.56H56.6939V320.416C57.3339 321.344 58.3259 322.176 59.8619 322.176C61.8619 322.176 63.8139 320.576 63.8139 317.872V317.84C63.8139 315.12 61.8459 313.552 59.8619 313.552C58.3419 313.552 57.3659 314.4 56.6939 315.392V313.728H55.4619V324.56ZM59.6379 321.072C58.1019 321.072 56.6459 319.792 56.6459 317.872V317.84C56.6459 315.952 58.1019 314.656 59.6379 314.656C61.2059 314.656 62.5499 315.904 62.5499 317.856V317.888C62.5499 319.888 61.2379 321.072 59.6379 321.072ZM69.7029 322.192C71.2709 322.192 72.2789 321.568 73.1109 320.64L72.3429 319.952C71.6709 320.656 70.8709 321.12 69.7349 321.12C68.2629 321.12 66.9989 320.112 66.8229 318.32H73.3829C73.3989 318.176 73.3989 318.08 73.3989 317.92C73.3989 315.504 71.9909 313.552 69.5429 313.552C67.2549 313.552 65.5749 315.472 65.5749 317.856V317.888C65.5749 320.448 67.4309 322.192 69.7029 322.192ZM66.8229 317.408C66.9829 315.792 68.0709 314.592 69.5109 314.592C71.1589 314.592 72.0229 315.904 72.1509 317.408H66.8229ZM75.5557 322H76.7877V318.704C76.7877 316.208 78.2597 314.912 80.0677 314.912H80.1637V313.584C78.5957 313.52 77.3957 314.512 76.7877 315.888V313.728H75.5557V322ZM84.0978 322.176C85.5538 322.176 86.5138 321.504 87.0898 320.752V322H88.2738V316.944C88.2738 315.888 87.9858 315.088 87.4258 314.528C86.8178 313.92 85.9218 313.616 84.7538 313.616C83.5538 313.616 82.6578 313.888 81.7458 314.304L82.1138 315.312C82.8818 314.96 83.6498 314.704 84.6258 314.704C86.1778 314.704 87.0898 315.472 87.0898 316.96V317.248C86.3538 317.04 85.6018 316.896 84.5458 316.896C82.4498 316.896 81.0098 317.824 81.0098 319.568V319.6C81.0098 321.296 82.5618 322.176 84.0978 322.176ZM84.3378 321.2C83.2178 321.2 82.2578 320.592 82.2578 319.552V319.52C82.2578 318.48 83.1218 317.808 84.6738 317.808C85.6818 317.808 86.4978 317.984 87.1058 318.16V318.96C87.1058 320.272 85.8578 321.2 84.3378 321.2ZM93.5893 322.144C94.1813 322.144 94.6453 322.016 95.0773 321.792V320.736C94.6453 320.944 94.2933 321.024 93.8773 321.024C93.0453 321.024 92.4853 320.656 92.4853 319.648V314.816H95.1093V313.728H92.4853V311.232H91.2533V313.728H90.1013V314.816H91.2533V319.808C91.2533 321.488 92.2613 322.144 93.5893 322.144ZM100.33 322.176C101.754 322.176 102.602 321.456 103.162 320.56V322H104.378V313.728H103.162V318.464C103.162 320.016 102.09 321.056 100.682 321.056C99.2261 321.056 98.3941 320.096 98.3941 318.56V313.728H97.1621V318.864C97.1621 320.832 98.3301 322.176 100.33 322.176ZM107.149 322H108.381V318.704C108.381 316.208 109.853 314.912 111.661 314.912H111.757V313.584C110.189 313.52 108.989 314.512 108.381 315.888V313.728H107.149V322ZM116.89 322.192C118.458 322.192 119.466 321.568 120.298 320.64L119.53 319.952C118.858 320.656 118.058 321.12 116.922 321.12C115.45 321.12 114.186 320.112 114.01 318.32H120.57C120.586 318.176 120.586 318.08 120.586 317.92C120.586 315.504 119.178 313.552 116.73 313.552C114.442 313.552 112.762 315.472 112.762 317.856V317.888C112.762 320.448 114.618 322.192 116.89 322.192ZM114.01 317.408C114.17 315.792 115.258 314.592 116.698 314.592C118.346 314.592 119.21 315.904 119.338 317.408H114.01ZM131.316 322.192C133.812 322.192 135.652 320.208 135.652 317.872V317.84C135.652 315.504 133.828 313.552 131.348 313.552C128.852 313.552 127.028 315.536 127.028 317.872V317.904C127.028 320.24 128.836 322.192 131.316 322.192ZM131.348 321.088C129.604 321.088 128.292 319.648 128.292 317.872V317.84C128.292 316.096 129.524 314.64 131.316 314.64C133.06 314.64 134.388 316.096 134.388 317.872V317.904C134.388 319.648 133.14 321.088 131.348 321.088ZM138.348 322H139.58V314.816H142.188V313.76H139.564V313.088C139.564 311.904 140.044 311.328 141.004 311.328C141.42 311.328 141.756 311.408 142.204 311.536V310.464C141.804 310.32 141.42 310.256 140.844 310.256C140.092 310.256 139.484 310.48 139.068 310.896C138.604 311.36 138.348 312.08 138.348 313.024V313.744H137.212V314.816H138.348V322ZM151.02 322.176C152.476 322.176 153.436 321.504 154.012 320.752V322H155.196V316.944C155.196 315.888 154.908 315.088 154.348 314.528C153.74 313.92 152.844 313.616 151.676 313.616C150.476 313.616 149.58 313.888 148.668 314.304L149.036 315.312C149.804 314.96 150.572 314.704 151.548 314.704C153.1 314.704 154.012 315.472 154.012 316.96V317.248C153.276 317.04 152.524 316.896 151.468 316.896C149.372 316.896 147.932 317.824 147.932 319.568V319.6C147.932 321.296 149.484 322.176 151.02 322.176ZM151.26 321.2C150.14 321.2 149.18 320.592 149.18 319.552V319.52C149.18 318.48 150.044 317.808 151.596 317.808C152.604 317.808 153.42 317.984 154.028 318.16V318.96C154.028 320.272 152.78 321.2 151.26 321.2ZM157.821 324.56H159.053V320.416C159.693 321.344 160.685 322.176 162.221 322.176C164.221 322.176 166.173 320.576 166.173 317.872V317.84C166.173 315.12 164.205 313.552 162.221 313.552C160.701 313.552 159.725 314.4 159.053 315.392V313.728H157.821V324.56ZM161.997 321.072C160.461 321.072 159.005 319.792 159.005 317.872V317.84C159.005 315.952 160.461 314.656 161.997 314.656C163.565 314.656 164.909 315.904 164.909 317.856V317.888C164.909 319.888 163.597 321.072 161.997 321.072ZM168.446 324.56H169.678V320.416C170.318 321.344 171.31 322.176 172.846 322.176C174.846 322.176 176.798 320.576 176.798 317.872V317.84C176.798 315.12 174.83 313.552 172.846 313.552C171.326 313.552 170.35 314.4 169.678 315.392V313.728H168.446V324.56ZM172.622 321.072C171.086 321.072 169.63 319.792 169.63 317.872V317.84C169.63 315.952 171.086 314.656 172.622 314.656C174.19 314.656 175.534 315.904 175.534 317.856V317.888C175.534 319.888 174.222 321.072 172.622 321.072ZM179.071 322H180.303V318.704C180.303 316.208 181.775 314.912 183.583 314.912H183.679V313.584C182.111 313.52 180.911 314.512 180.303 315.888V313.728H179.071V322ZM188.972 322.192C191.468 322.192 193.308 320.208 193.308 317.872V317.84C193.308 315.504 191.484 313.552 189.004 313.552C186.508 313.552 184.684 315.536 184.684 317.872V317.904C184.684 320.24 186.492 322.192 188.972 322.192ZM189.004 321.088C187.26 321.088 185.948 319.648 185.948 317.872V317.84C185.948 316.096 187.18 314.64 188.972 314.64C190.716 314.64 192.044 316.096 192.044 317.872V317.904C192.044 319.648 190.796 321.088 189.004 321.088ZM195.762 313.728H194.354L197.458 317.792L194.226 322H195.602L198.178 318.592L200.738 322H202.162L198.898 317.776L202.034 313.728H200.658L198.194 316.96L195.762 313.728ZM204.197 311.92H205.605V310.56H204.197V311.92ZM204.277 322H205.509V313.728H204.277V322ZM208.368 322H209.6V317.28C209.6 315.76 210.592 314.672 211.904 314.672C213.216 314.672 214.032 315.584 214.032 317.136V322H215.264V317.232C215.264 315.6 216.288 314.672 217.536 314.672C218.88 314.672 219.68 315.568 219.68 317.168V322H220.912V316.88C220.912 314.832 219.744 313.552 217.84 313.552C216.4 313.552 215.52 314.288 214.928 315.2C214.48 314.272 213.616 313.552 212.272 313.552C210.88 313.552 210.144 314.304 209.6 315.12V313.728H208.368V322ZM226.051 322.176C227.507 322.176 228.467 321.504 229.043 320.752V322H230.227V316.944C230.227 315.888 229.939 315.088 229.379 314.528C228.771 313.92 227.875 313.616 226.707 313.616C225.507 313.616 224.611 313.888 223.699 314.304L224.067 315.312C224.835 314.96 225.603 314.704 226.579 314.704C228.131 314.704 229.043 315.472 229.043 316.96V317.248C228.307 317.04 227.555 316.896 226.499 316.896C224.403 316.896 222.963 317.824 222.963 319.568V319.6C222.963 321.296 224.515 322.176 226.051 322.176ZM226.291 321.2C225.171 321.2 224.211 320.592 224.211 319.552V319.52C224.211 318.48 225.075 317.808 226.627 317.808C227.635 317.808 228.451 317.984 229.059 318.16V318.96C229.059 320.272 227.811 321.2 226.291 321.2ZM235.542 322.144C236.134 322.144 236.598 322.016 237.03 321.792V320.736C236.598 320.944 236.246 321.024 235.83 321.024C234.998 321.024 234.438 320.656 234.438 319.648V314.816H237.062V313.728H234.438V311.232H233.206V313.728H232.054V314.816H233.206V319.808C233.206 321.488 234.214 322.144 235.542 322.144ZM242.625 322.192C244.193 322.192 245.201 321.568 246.033 320.64L245.265 319.952C244.593 320.656 243.793 321.12 242.657 321.12C241.185 321.12 239.921 320.112 239.745 318.32H246.305C246.321 318.176 246.321 318.08 246.321 317.92C246.321 315.504 244.913 313.552 242.465 313.552C240.177 313.552 238.497 315.472 238.497 317.856V317.888C238.497 320.448 240.353 322.192 242.625 322.192ZM239.745 317.408C239.905 315.792 240.993 314.592 242.433 314.592C244.081 314.592 244.945 315.904 245.073 317.408H239.745ZM248.59 322H249.822V310.32H248.59V322ZM256.217 320.624L253.209 313.728H251.849L255.609 321.968C255.113 323.136 254.649 323.52 253.913 323.52C253.385 323.52 253.017 323.424 252.617 323.216L252.201 324.192C252.761 324.464 253.273 324.608 253.961 324.608C255.209 324.608 256.009 323.984 256.713 322.272L260.185 313.728H258.873L256.217 320.624ZM272.467 322H273.699V319.344H275.427V318.288H273.699V310.72H272.579L266.243 318.416L266.563 319.344H272.467V322ZM267.763 318.288L272.467 312.512V318.288H267.763ZM282.001 322.192C284.881 322.192 286.737 319.536 286.737 316.4V316.368C286.737 313.232 284.913 310.608 282.033 310.608C279.153 310.608 277.281 313.264 277.281 316.4V316.432C277.281 319.568 279.105 322.192 282.001 322.192ZM282.033 321.04C279.937 321.04 278.593 318.848 278.593 316.4V316.368C278.593 313.904 279.905 311.76 282.001 311.76C284.081 311.76 285.425 313.952 285.425 316.4V316.432C285.425 318.88 284.129 321.04 282.033 321.04ZM291.391 315.6C292.703 315.6 293.903 314.464 293.903 313.168V313.136C293.903 311.824 292.703 310.704 291.391 310.704C290.079 310.704 288.879 311.824 288.879 313.136V313.168C288.879 314.464 290.079 315.6 291.391 315.6ZM291.391 314.768C290.479 314.768 289.807 314 289.807 313.168V313.136C289.807 312.304 290.479 311.536 291.391 311.536C292.303 311.536 292.975 312.304 292.975 313.136V313.168C292.975 314 292.303 314.768 291.391 314.768ZM301.759 322.192C303.791 322.192 305.071 321.408 306.239 320.224L305.407 319.408C304.335 320.432 303.327 321.024 301.791 321.024C299.327 321.024 297.455 318.992 297.455 316.4V316.368C297.455 313.792 299.311 311.776 301.791 311.776C303.311 311.776 304.367 312.416 305.311 313.312L306.175 312.384C305.055 311.328 303.839 310.608 301.807 310.608C298.511 310.608 296.143 313.232 296.143 316.4V316.432C296.143 319.648 298.527 322.192 301.759 322.192ZM313.072 311.92H314.48V310.56H313.072V311.92ZM313.152 322H314.384V313.728H313.152V322ZM319.979 322.16C321.627 322.16 322.923 321.248 322.923 319.68V319.648C322.923 318.16 321.547 317.664 320.267 317.28C319.163 316.944 318.139 316.64 318.139 315.856V315.824C318.139 315.136 318.763 314.624 319.739 314.624C320.539 314.624 321.419 314.928 322.187 315.424L322.747 314.496C321.899 313.936 320.779 313.584 319.771 313.584C318.139 313.584 316.955 314.528 316.955 315.952V315.984C316.955 317.504 318.395 317.952 319.691 318.32C320.779 318.624 321.755 318.944 321.755 319.776V319.808C321.755 320.608 321.035 321.12 320.043 321.12C319.067 321.12 318.075 320.736 317.179 320.064L316.555 320.944C317.483 321.696 318.795 322.16 319.979 322.16ZM35.1884 346.592C36.5004 346.592 37.6044 346.224 38.3404 345.488C39.0124 344.816 39.3964 343.84 39.3964 342.56V335.728H38.1644V337.216C37.4924 336.32 36.4844 335.552 34.9324 335.552C32.9644 335.552 31.0444 337.04 31.0444 339.456V339.488C31.0444 341.872 32.9484 343.36 34.9324 343.36C36.4524 343.36 37.4604 342.576 38.1804 341.616V342.592C38.1804 344.528 36.9964 345.536 35.1724 345.536C33.9884 345.536 32.9324 345.168 31.9884 344.48L31.4284 345.44C32.5324 346.208 33.8124 346.592 35.1884 346.592ZM35.1724 342.272C33.6364 342.272 32.3084 341.12 32.3084 339.456V339.424C32.3084 337.728 33.6044 336.64 35.1724 336.64C36.7404 336.64 38.2124 337.744 38.2124 339.44V339.472C38.2124 341.136 36.7404 342.272 35.1724 342.272ZM45.7654 344.192C47.3334 344.192 48.3414 343.568 49.1734 342.64L48.4054 341.952C47.7334 342.656 46.9334 343.12 45.7974 343.12C44.3254 343.12 43.0614 342.112 42.8854 340.32H49.4454C49.4614 340.176 49.4614 340.08 49.4614 339.92C49.4614 337.504 48.0534 335.552 45.6054 335.552C43.3174 335.552 41.6374 337.472 41.6374 339.856V339.888C41.6374 342.448 43.4934 344.192 45.7654 344.192ZM42.8854 339.408C43.0454 337.792 44.1334 336.592 45.5734 336.592C47.2214 336.592 48.0854 337.904 48.2134 339.408H42.8854ZM51.6182 344H52.8502V339.264C52.8502 337.712 53.9062 336.672 55.3302 336.672C56.7862 336.672 57.6182 337.632 57.6182 339.168V344H58.8502V338.864C58.8502 336.896 57.6822 335.552 55.6822 335.552C54.2582 335.552 53.3942 336.272 52.8502 337.168V335.728H51.6182V344ZM65.0936 344.192C66.6616 344.192 67.6696 343.568 68.5016 342.64L67.7336 341.952C67.0616 342.656 66.2616 343.12 65.1256 343.12C63.6536 343.12 62.3896 342.112 62.2136 340.32H68.7736C68.7896 340.176 68.7896 340.08 68.7896 339.92C68.7896 337.504 67.3816 335.552 64.9336 335.552C62.6456 335.552 60.9656 337.472 60.9656 339.856V339.888C60.9656 342.448 62.8216 344.192 65.0936 344.192ZM62.2136 339.408C62.3736 337.792 63.4616 336.592 64.9016 336.592C66.5496 336.592 67.4136 337.904 67.5416 339.408H62.2136ZM70.9463 344H72.1783V340.704C72.1783 338.208 73.6503 336.912 75.4583 336.912H75.5543V335.584C73.9863 335.52 72.7863 336.512 72.1783 337.888V335.728H70.9463V344ZM79.4884 344.176C80.9444 344.176 81.9044 343.504 82.4804 342.752V344H83.6644V338.944C83.6644 337.888 83.3764 337.088 82.8164 336.528C82.2084 335.92 81.3124 335.616 80.1444 335.616C78.9444 335.616 78.0484 335.888 77.1364 336.304L77.5044 337.312C78.2724 336.96 79.0404 336.704 80.0164 336.704C81.5684 336.704 82.4804 337.472 82.4804 338.96V339.248C81.7444 339.04 80.9924 338.896 79.9364 338.896C77.8404 338.896 76.4004 339.824 76.4004 341.568V341.6C76.4004 343.296 77.9524 344.176 79.4884 344.176ZM79.7284 343.2C78.6084 343.2 77.6484 342.592 77.6484 341.552V341.52C77.6484 340.48 78.5124 339.808 80.0644 339.808C81.0724 339.808 81.8884 339.984 82.4964 340.16V340.96C82.4964 342.272 81.2484 343.2 79.7284 343.2ZM88.9799 344.144C89.5719 344.144 90.0359 344.016 90.4679 343.792V342.736C90.0359 342.944 89.6839 343.024 89.2679 343.024C88.4359 343.024 87.8759 342.656 87.8759 341.648V336.816H90.4999V335.728H87.8759V333.232H86.6439V335.728H85.4919V336.816H86.6439V341.808C86.6439 343.488 87.6519 344.144 88.9799 344.144ZM96.0623 344.192C97.6303 344.192 98.6383 343.568 99.4703 342.64L98.7023 341.952C98.0303 342.656 97.2303 343.12 96.0943 343.12C94.6223 343.12 93.3583 342.112 93.1823 340.32H99.7423C99.7583 340.176 99.7583 340.08 99.7583 339.92C99.7583 337.504 98.3503 335.552 95.9023 335.552C93.6143 335.552 91.9343 337.472 91.9343 339.856V339.888C91.9343 342.448 93.7903 344.192 96.0623 344.192ZM93.1823 339.408C93.3423 337.792 94.4303 336.592 95.8703 336.592C97.5183 336.592 98.3823 337.904 98.5103 339.408H93.1823ZM105.387 344.176C106.907 344.176 107.883 343.328 108.555 342.336V344H109.787V332.32H108.555V337.312C107.915 336.384 106.923 335.552 105.387 335.552C103.403 335.552 101.435 337.152 101.435 339.856V339.888C101.435 342.608 103.403 344.176 105.387 344.176ZM105.611 343.072C104.059 343.072 102.699 341.824 102.699 339.872V339.84C102.699 337.84 104.011 336.656 105.611 336.656C107.147 336.656 108.603 337.936 108.603 339.84V339.872C108.603 341.776 107.147 343.072 105.611 343.072ZM112.092 345.952C113.308 345.68 113.868 345.056 113.868 343.76V342.32H112.396V344H112.972C113.036 344.688 112.7 345.104 111.9 345.392L112.092 345.952ZM124.027 344.144C124.619 344.144 125.083 344.016 125.515 343.792V342.736C125.083 342.944 124.731 343.024 124.315 343.024C123.483 343.024 122.923 342.656 122.923 341.648V336.816H125.547V335.728H122.923V333.232H121.691V335.728H120.539V336.816H121.691V341.808C121.691 343.488 122.699 344.144 124.027 344.144ZM127.728 344H128.96V339.264C128.96 337.712 130.016 336.672 131.44 336.672C132.896 336.672 133.728 337.632 133.728 339.168V344H134.96V338.864C134.96 336.896 133.792 335.552 131.792 335.552C130.368 335.552 129.504 336.272 128.96 337.168V332.32H127.728V344ZM140.051 344.176C141.507 344.176 142.467 343.504 143.043 342.752V344H144.227V338.944C144.227 337.888 143.939 337.088 143.379 336.528C142.771 335.92 141.875 335.616 140.707 335.616C139.507 335.616 138.611 335.888 137.699 336.304L138.067 337.312C138.835 336.96 139.603 336.704 140.579 336.704C142.131 336.704 143.043 337.472 143.043 338.96V339.248C142.307 339.04 141.555 338.896 140.499 338.896C138.403 338.896 136.963 339.824 136.963 341.568V341.6C136.963 343.296 138.515 344.176 140.051 344.176ZM140.291 343.2C139.171 343.2 138.211 342.592 138.211 341.552V341.52C138.211 340.48 139.075 339.808 140.627 339.808C141.635 339.808 142.451 339.984 143.059 340.16V340.96C143.059 342.272 141.811 343.2 140.291 343.2ZM146.853 344H148.085V339.264C148.085 337.712 149.141 336.672 150.565 336.672C152.021 336.672 152.853 337.632 152.853 339.168V344H154.085V338.864C154.085 336.896 152.917 335.552 150.917 335.552C149.493 335.552 148.629 336.272 148.085 337.168V335.728H146.853V344ZM156.712 344H157.944V341.84L159.624 340.144L162.584 344H164.056L160.472 339.28L163.944 335.728H162.408L157.944 340.384V332.32H156.712V344ZM168.557 344.16C170.205 344.16 171.501 343.248 171.501 341.68V341.648C171.501 340.16 170.125 339.664 168.845 339.28C167.741 338.944 166.717 338.64 166.717 337.856V337.824C166.717 337.136 167.341 336.624 168.317 336.624C169.117 336.624 169.997 336.928 170.765 337.424L171.325 336.496C170.477 335.936 169.357 335.584 168.349 335.584C166.717 335.584 165.533 336.528 165.533 337.952V337.984C165.533 339.504 166.973 339.952 168.269 340.32C169.357 340.624 170.333 340.944 170.333 341.776V341.808C170.333 342.608 169.613 343.12 168.621 343.12C167.645 343.12 166.653 342.736 165.757 342.064L165.133 342.944C166.061 343.696 167.373 344.16 168.557 344.16ZM181.355 344.144C181.947 344.144 182.411 344.016 182.843 343.792V342.736C182.411 342.944 182.059 343.024 181.643 343.024C180.811 343.024 180.251 342.656 180.251 341.648V336.816H182.875V335.728H180.251V333.232H179.019V335.728H177.867V336.816H179.019V341.808C179.019 343.488 180.027 344.144 181.355 344.144ZM188.597 344.192C191.093 344.192 192.933 342.208 192.933 339.872V339.84C192.933 337.504 191.109 335.552 188.629 335.552C186.133 335.552 184.309 337.536 184.309 339.872V339.904C184.309 342.24 186.117 344.192 188.597 344.192ZM188.629 343.088C186.885 343.088 185.573 341.648 185.573 339.872V339.84C185.573 338.096 186.805 336.64 188.597 336.64C190.341 336.64 191.669 338.096 191.669 339.872V339.904C191.669 341.648 190.421 343.088 188.629 343.088ZM202.73 344.144C203.322 344.144 203.786 344.016 204.218 343.792V342.736C203.786 342.944 203.434 343.024 203.018 343.024C202.186 343.024 201.626 342.656 201.626 341.648V336.816H204.25V335.728H201.626V333.232H200.394V335.728H199.242V336.816H200.394V341.808C200.394 343.488 201.402 344.144 202.73 344.144ZM206.431 344H207.663V339.264C207.663 337.712 208.719 336.672 210.143 336.672C211.599 336.672 212.431 337.632 212.431 339.168V344H213.663V338.864C213.663 336.896 212.495 335.552 210.495 335.552C209.071 335.552 208.207 336.272 207.663 337.168V332.32H206.431V344ZM219.906 344.192C221.474 344.192 222.482 343.568 223.314 342.64L222.546 341.952C221.874 342.656 221.074 343.12 219.938 343.12C218.466 343.12 217.202 342.112 217.026 340.32H223.586C223.602 340.176 223.602 340.08 223.602 339.92C223.602 337.504 222.194 335.552 219.746 335.552C217.458 335.552 215.778 337.472 215.778 339.856V339.888C215.778 342.448 217.634 344.192 219.906 344.192ZM217.026 339.408C217.186 337.792 218.274 336.592 219.714 336.592C221.362 336.592 222.226 337.904 222.354 339.408H217.026ZM234.284 344.192C235.836 344.192 236.828 343.52 237.66 342.592L236.876 341.856C236.22 342.56 235.404 343.088 234.348 343.088C232.62 343.088 231.308 341.664 231.308 339.872V339.84C231.308 338.064 232.588 336.64 234.268 336.64C235.388 336.64 236.124 337.2 236.78 337.888L237.596 337.024C236.828 336.208 235.852 335.552 234.284 335.552C231.868 335.552 230.044 337.536 230.044 339.872V339.904C230.044 342.224 231.868 344.192 234.284 344.192ZM243.238 344.192C245.734 344.192 247.574 342.208 247.574 339.872V339.84C247.574 337.504 245.75 335.552 243.27 335.552C240.774 335.552 238.95 337.536 238.95 339.872V339.904C238.95 342.24 240.758 344.192 243.238 344.192ZM243.27 343.088C241.526 343.088 240.214 341.648 240.214 339.872V339.84C240.214 338.096 241.446 336.64 243.238 336.64C244.982 336.64 246.31 338.096 246.31 339.872V339.904C246.31 341.648 245.062 343.088 243.27 343.088ZM249.806 344H251.038V339.264C251.038 337.712 252.094 336.672 253.518 336.672C254.974 336.672 255.806 337.632 255.806 339.168V344H257.038V338.864C257.038 336.896 255.87 335.552 253.87 335.552C252.446 335.552 251.582 336.272 251.038 337.168V335.728H249.806V344ZM262.433 344.144C263.025 344.144 263.489 344.016 263.921 343.792V342.736C263.489 342.944 263.137 343.024 262.721 343.024C261.889 343.024 261.329 342.656 261.329 341.648V336.816H263.953V335.728H261.329V333.232H260.097V335.728H258.945V336.816H260.097V341.808C260.097 343.488 261.105 344.144 262.433 344.144ZM266.166 333.92H267.574V332.56H266.166V333.92ZM266.246 344H267.478V335.728H266.246V344ZM270.337 344H271.569V339.264C271.569 337.712 272.625 336.672 274.049 336.672C275.505 336.672 276.337 337.632 276.337 339.168V344H277.569V338.864C277.569 336.896 276.401 335.552 274.401 335.552C272.977 335.552 272.113 336.272 271.569 337.168V335.728H270.337V344ZM283.236 344.176C284.66 344.176 285.508 343.456 286.068 342.56V344H287.284V335.728H286.068V340.464C286.068 342.016 284.996 343.056 283.588 343.056C282.132 343.056 281.3 342.096 281.3 340.56V335.728H280.068V340.864C280.068 342.832 281.236 344.176 283.236 344.176ZM293.832 344.192C296.328 344.192 298.168 342.208 298.168 339.872V339.84C298.168 337.504 296.344 335.552 293.864 335.552C291.368 335.552 289.544 337.536 289.544 339.872V339.904C289.544 342.24 291.352 344.192 293.832 344.192ZM293.864 343.088C292.12 343.088 290.808 341.648 290.808 339.872V339.84C290.808 338.096 292.04 336.64 293.832 336.64C295.576 336.64 296.904 338.096 296.904 339.872V339.904C296.904 341.648 295.656 343.088 293.864 343.088ZM303.439 344.176C304.863 344.176 305.711 343.456 306.271 342.56V344H307.487V335.728H306.271V340.464C306.271 342.016 305.199 343.056 303.791 343.056C302.335 343.056 301.503 342.096 301.503 340.56V335.728H300.271V340.864C300.271 342.832 301.439 344.176 303.439 344.176ZM312.995 344.16C314.643 344.16 315.939 343.248 315.939 341.68V341.648C315.939 340.16 314.563 339.664 313.283 339.28C312.179 338.944 311.155 338.64 311.155 337.856V337.824C311.155 337.136 311.779 336.624 312.755 336.624C313.555 336.624 314.435 336.928 315.203 337.424L315.763 336.496C314.915 335.936 313.795 335.584 312.787 335.584C311.155 335.584 309.971 336.528 309.971 337.952V337.984C309.971 339.504 311.411 339.952 312.707 340.32C313.795 340.624 314.771 340.944 314.771 341.776V341.808C314.771 342.608 314.051 343.12 313.059 343.12C312.083 343.12 311.091 342.736 310.195 342.064L309.571 342.944C310.499 343.696 311.811 344.16 312.995 344.16ZM60.2379 366.192C62.7339 366.192 64.5739 364.208 64.5739 361.872V361.84C64.5739 359.504 62.7499 357.552 60.2699 357.552C57.7739 357.552 55.9499 359.536 55.9499 361.872V361.904C55.9499 364.24 57.7579 366.192 60.2379 366.192ZM60.2699 365.088C58.5259 365.088 57.2139 363.648 57.2139 361.872V361.84C57.2139 360.096 58.4459 358.64 60.2379 358.64C61.9819 358.64 63.3099 360.096 63.3099 361.872V361.904C63.3099 363.648 62.0619 365.088 60.2699 365.088ZM67.0272 357.728H65.6192L68.7232 361.792L65.4912 366H66.8672L69.4432 362.592L72.0032 366H73.4272L70.1632 361.776L73.2992 357.728H71.9232L69.4592 360.96L67.0272 357.728ZM78.8104 364.624L75.8024 357.728H74.4424L78.2024 365.968C77.7064 367.136 77.2424 367.52 76.5064 367.52C75.9784 367.52 75.6104 367.424 75.2104 367.216L74.7944 368.192C75.3544 368.464 75.8664 368.608 76.5544 368.608C77.8024 368.608 78.6024 367.984 79.3064 366.272L82.7784 357.728H81.4664L78.8104 364.624ZM87.9853 368.592C89.2973 368.592 90.4013 368.224 91.1373 367.488C91.8093 366.816 92.1933 365.84 92.1933 364.56V357.728H90.9613V359.216C90.2893 358.32 89.2813 357.552 87.7293 357.552C85.7613 357.552 83.8413 359.04 83.8413 361.456V361.488C83.8413 363.872 85.7453 365.36 87.7293 365.36C89.2493 365.36 90.2573 364.576 90.9773 363.616V364.592C90.9773 366.528 89.7933 367.536 87.9693 367.536C86.7853 367.536 85.7293 367.168 84.7853 366.48L84.2253 367.44C85.3293 368.208 86.6093 368.592 87.9853 368.592ZM87.9693 364.272C86.4333 364.272 85.1053 363.12 85.1053 361.456V361.424C85.1053 359.728 86.4013 358.64 87.9693 358.64C89.5373 358.64 91.0093 359.744 91.0093 361.44V361.472C91.0093 363.136 89.5373 364.272 87.9693 364.272ZM98.5623 366.192C100.13 366.192 101.138 365.568 101.97 364.64L101.202 363.952C100.53 364.656 99.7303 365.12 98.5943 365.12C97.1223 365.12 95.8583 364.112 95.6823 362.32H102.242C102.258 362.176 102.258 362.08 102.258 361.92C102.258 359.504 100.85 357.552 98.4023 357.552C96.1143 357.552 94.4343 359.472 94.4343 361.856V361.888C94.4343 364.448 96.2903 366.192 98.5623 366.192ZM95.6823 361.408C95.8423 359.792 96.9303 358.592 98.3703 358.592C100.018 358.592 100.882 359.904 101.01 361.408H95.6823ZM104.415 366H105.647V361.264C105.647 359.712 106.703 358.672 108.127 358.672C109.583 358.672 110.415 359.632 110.415 361.168V366H111.647V360.864C111.647 358.896 110.479 357.552 108.479 357.552C107.055 357.552 106.191 358.272 105.647 359.168V357.728H104.415V366ZM119.535 366H120.767V358.816H123.375V357.76H120.751V357.088C120.751 355.904 121.231 355.328 122.191 355.328C122.607 355.328 122.943 355.408 123.391 355.536V354.464C122.991 354.32 122.607 354.256 122.031 354.256C121.279 354.256 120.671 354.48 120.255 354.896C119.791 355.36 119.535 356.08 119.535 357.024V357.744H118.399V358.816H119.535V366ZM125.071 366H126.287V354.32H125.071V366ZM132.941 366.192C135.437 366.192 137.277 364.208 137.277 361.872V361.84C137.277 359.504 135.453 357.552 132.973 357.552C130.477 357.552 128.653 359.536 128.653 361.872V361.904C128.653 364.24 130.461 366.192 132.941 366.192ZM132.973 365.088C131.229 365.088 129.917 363.648 129.917 361.872V361.84C129.917 360.096 131.149 358.64 132.941 358.64C134.685 358.64 136.013 360.096 136.013 361.872V361.904C136.013 363.648 134.765 365.088 132.973 365.088ZM141.295 366.064H142.383L144.623 359.536L146.847 366.064H147.919L150.831 357.728H149.551L147.375 364.368L145.135 357.696H144.111L141.887 364.368L139.711 357.728H138.399L141.295 366.064ZM161.409 366.192C162.961 366.192 163.953 365.52 164.785 364.592L164.001 363.856C163.345 364.56 162.529 365.088 161.473 365.088C159.745 365.088 158.433 363.664 158.433 361.872V361.84C158.433 360.064 159.713 358.64 161.393 358.64C162.513 358.64 163.249 359.2 163.905 359.888L164.721 359.024C163.953 358.208 162.977 357.552 161.409 357.552C158.993 357.552 157.169 359.536 157.169 361.872V361.904C157.169 364.224 158.993 366.192 161.409 366.192ZM170.363 366.192C172.859 366.192 174.699 364.208 174.699 361.872V361.84C174.699 359.504 172.875 357.552 170.395 357.552C167.899 357.552 166.075 359.536 166.075 361.872V361.904C166.075 364.24 167.883 366.192 170.363 366.192ZM170.395 365.088C168.651 365.088 167.339 363.648 167.339 361.872V361.84C167.339 360.096 168.571 358.64 170.363 358.64C172.107 358.64 173.435 360.096 173.435 361.872V361.904C173.435 363.648 172.187 365.088 170.395 365.088ZM176.931 366H178.163V361.264C178.163 359.712 179.219 358.672 180.643 358.672C182.099 358.672 182.931 359.632 182.931 361.168V366H184.163V360.864C184.163 358.896 182.995 357.552 180.995 357.552C179.571 357.552 178.707 358.272 178.163 359.168V357.728H176.931V366ZM189.558 366.144C190.15 366.144 190.614 366.016 191.046 365.792V364.736C190.614 364.944 190.262 365.024 189.846 365.024C189.014 365.024 188.454 364.656 188.454 363.648V358.816H191.078V357.728H188.454V355.232H187.222V357.728H186.07V358.816H187.222V363.808C187.222 365.488 188.23 366.144 189.558 366.144ZM193.259 366H194.491V362.704C194.491 360.208 195.963 358.912 197.771 358.912H197.867V357.584C196.299 357.52 195.099 358.512 194.491 359.888V357.728H193.259V366ZM203.16 366.192C205.656 366.192 207.496 364.208 207.496 361.872V361.84C207.496 359.504 205.672 357.552 203.192 357.552C200.696 357.552 198.872 359.536 198.872 361.872V361.904C198.872 364.24 200.68 366.192 203.16 366.192ZM203.192 365.088C201.448 365.088 200.136 363.648 200.136 361.872V361.84C200.136 360.096 201.368 358.64 203.16 358.64C204.904 358.64 206.232 360.096 206.232 361.872V361.904C206.232 363.648 204.984 365.088 203.192 365.088ZM209.84 366H211.072V354.32H209.84V366ZM214.043 366H215.275V354.32H214.043V366ZM221.75 366.192C223.318 366.192 224.326 365.568 225.158 364.64L224.39 363.952C223.718 364.656 222.918 365.12 221.782 365.12C220.31 365.12 219.046 364.112 218.87 362.32H225.43C225.446 362.176 225.446 362.08 225.446 361.92C225.446 359.504 224.038 357.552 221.59 357.552C219.302 357.552 217.622 359.472 217.622 361.856V361.888C217.622 364.448 219.478 366.192 221.75 366.192ZM218.87 361.408C219.03 359.792 220.118 358.592 221.558 358.592C223.206 358.592 224.07 359.904 224.198 361.408H218.87ZM231.075 366.176C232.595 366.176 233.571 365.328 234.243 364.336V366H235.475V354.32H234.243V359.312C233.603 358.384 232.611 357.552 231.075 357.552C229.091 357.552 227.123 359.152 227.123 361.856V361.888C227.123 364.608 229.091 366.176 231.075 366.176ZM231.299 365.072C229.747 365.072 228.387 363.824 228.387 361.872V361.84C228.387 359.84 229.699 358.656 231.299 358.656C232.835 358.656 234.291 359.936 234.291 361.84V361.872C234.291 363.776 232.835 365.072 231.299 365.072ZM247.424 366.176C249.424 366.176 251.376 364.576 251.376 361.872V361.84C251.376 359.12 249.408 357.552 247.424 357.552C245.904 357.552 244.928 358.4 244.256 359.392V354.32H243.024V366H244.256V364.416C244.896 365.344 245.888 366.176 247.424 366.176ZM247.2 365.072C245.664 365.072 244.208 363.792 244.208 361.872V361.84C244.208 359.952 245.664 358.656 247.2 358.656C248.768 358.656 250.112 359.904 250.112 361.856V361.888C250.112 363.888 248.8 365.072 247.2 365.072ZM256.779 364.624L253.771 357.728H252.411L256.171 365.968C255.675 367.136 255.211 367.52 254.475 367.52C253.947 367.52 253.579 367.424 253.179 367.216L252.763 368.192C253.323 368.464 253.835 368.608 254.523 368.608C255.771 368.608 256.571 367.984 257.275 366.272L260.747 357.728H259.435L256.779 364.624ZM270.261 366.144C270.853 366.144 271.317 366.016 271.749 365.792V364.736C271.317 364.944 270.965 365.024 270.549 365.024C269.717 365.024 269.157 364.656 269.157 363.648V358.816H271.781V357.728H269.157V355.232H267.925V357.728H266.773V358.816H267.925V363.808C267.925 365.488 268.933 366.144 270.261 366.144ZM273.962 366H275.194V361.264C275.194 359.712 276.25 358.672 277.674 358.672C279.13 358.672 279.962 359.632 279.962 361.168V366H281.194V360.864C281.194 358.896 280.026 357.552 278.026 357.552C276.602 357.552 275.738 358.272 275.194 359.168V354.32H273.962V366ZM287.437 366.192C289.005 366.192 290.013 365.568 290.845 364.64L290.077 363.952C289.405 364.656 288.605 365.12 287.469 365.12C285.997 365.12 284.733 364.112 284.557 362.32H291.117C291.133 362.176 291.133 362.08 291.133 361.92C291.133 359.504 289.725 357.552 287.277 357.552C284.989 357.552 283.309 359.472 283.309 361.856V361.888C283.309 364.448 285.165 366.192 287.437 366.192ZM284.557 361.408C284.717 359.792 285.805 358.592 287.245 358.592C288.893 358.592 289.757 359.904 289.885 361.408H284.557ZM126.329 388H127.561V383.28C127.561 381.76 128.553 380.672 129.865 380.672C131.177 380.672 131.993 381.584 131.993 383.136V388H133.225V383.232C133.225 381.6 134.249 380.672 135.497 380.672C136.841 380.672 137.641 381.568 137.641 383.168V388H138.873V382.88C138.873 380.832 137.705 379.552 135.801 379.552C134.361 379.552 133.481 380.288 132.889 381.2C132.441 380.272 131.577 379.552 130.233 379.552C128.841 379.552 128.105 380.304 127.561 381.12V379.728H126.329V388ZM145.164 388.192C146.732 388.192 147.74 387.568 148.572 386.64L147.804 385.952C147.132 386.656 146.332 387.12 145.196 387.12C143.724 387.12 142.46 386.112 142.284 384.32H148.844C148.86 384.176 148.86 384.08 148.86 383.92C148.86 381.504 147.452 379.552 145.004 379.552C142.716 379.552 141.036 381.472 141.036 383.856V383.888C141.036 386.448 142.892 388.192 145.164 388.192ZM142.284 383.408C142.444 381.792 143.532 380.592 144.972 380.592C146.62 380.592 147.484 381.904 147.612 383.408H142.284ZM151.017 388H152.249V383.28C152.249 381.76 153.241 380.672 154.553 380.672C155.865 380.672 156.681 381.584 156.681 383.136V388H157.913V383.232C157.913 381.6 158.937 380.672 160.185 380.672C161.529 380.672 162.329 381.568 162.329 383.168V388H163.561V382.88C163.561 380.832 162.393 379.552 160.489 379.552C159.049 379.552 158.169 380.288 157.577 381.2C157.129 380.272 156.265 379.552 154.921 379.552C153.529 379.552 152.793 380.304 152.249 381.12V379.728H151.017V388ZM170.635 388.176C172.635 388.176 174.587 386.576 174.587 383.872V383.84C174.587 381.12 172.619 379.552 170.635 379.552C169.115 379.552 168.139 380.4 167.467 381.392V376.32H166.235V388H167.467V386.416C168.107 387.344 169.099 388.176 170.635 388.176ZM170.411 387.072C168.875 387.072 167.419 385.792 167.419 383.872V383.84C167.419 381.952 168.875 380.656 170.411 380.656C171.979 380.656 173.323 381.904 173.323 383.856V383.888C173.323 385.888 172.011 387.072 170.411 387.072ZM176.86 388H178.092V384.704C178.092 382.208 179.564 380.912 181.372 380.912H181.468V379.584C179.9 379.52 178.7 380.512 178.092 381.888V379.728H176.86V388ZM185.403 388.176C186.859 388.176 187.819 387.504 188.395 386.752V388H189.579V382.944C189.579 381.888 189.291 381.088 188.731 380.528C188.123 379.92 187.227 379.616 186.059 379.616C184.859 379.616 183.963 379.888 183.051 380.304L183.419 381.312C184.187 380.96 184.955 380.704 185.931 380.704C187.483 380.704 188.395 381.472 188.395 382.96V383.248C187.659 383.04 186.907 382.896 185.851 382.896C183.755 382.896 182.315 383.824 182.315 385.568V385.6C182.315 387.296 183.867 388.176 185.403 388.176ZM185.643 387.2C184.523 387.2 183.562 386.592 183.562 385.552V385.52C183.562 384.48 184.427 383.808 185.979 383.808C186.987 383.808 187.803 383.984 188.411 384.16V384.96C188.411 386.272 187.163 387.2 185.643 387.2ZM192.204 388H193.436V383.264C193.436 381.712 194.492 380.672 195.916 380.672C197.372 380.672 198.204 381.632 198.204 383.168V388H199.436V382.864C199.436 380.896 198.268 379.552 196.268 379.552C194.844 379.552 193.98 380.272 193.436 381.168V379.728H192.204V388ZM205.68 388.192C207.248 388.192 208.256 387.568 209.088 386.64L208.32 385.952C207.648 386.656 206.848 387.12 205.712 387.12C204.24 387.12 202.976 386.112 202.799 384.32H209.36C209.376 384.176 209.376 384.08 209.376 383.92C209.376 381.504 207.968 379.552 205.52 379.552C203.232 379.552 201.552 381.472 201.552 383.856V383.888C201.552 386.448 203.408 388.192 205.68 388.192ZM202.799 383.408C202.96 381.792 204.048 380.592 205.488 380.592C207.136 380.592 208 381.904 208.128 383.408H202.799ZM214.268 388.16C215.916 388.16 217.212 387.248 217.212 385.68V385.648C217.212 384.16 215.836 383.664 214.556 383.28C213.452 382.944 212.428 382.64 212.428 381.856V381.824C212.428 381.136 213.052 380.624 214.028 380.624C214.828 380.624 215.708 380.928 216.476 381.424L217.036 380.496C216.188 379.936 215.068 379.584 214.06 379.584C212.428 379.584 211.244 380.528 211.244 381.952V381.984C211.244 383.504 212.684 383.952 213.98 384.32C215.068 384.624 216.044 384.944 216.044 385.776V385.808C216.044 386.608 215.324 387.12 214.332 387.12C213.356 387.12 212.364 386.736 211.468 386.064L210.844 386.944C211.772 387.696 213.084 388.16 214.268 388.16ZM219.357 388H220.829V386.32H219.357V388Z" fill="#540F16"/>
<defs>
<filter id="filter0_d" x="0" y="44" width="355" height="400" filterUnits="userSpaceOnUse" color-interpolation-filters="sRGB">
<feFlood flood-opacity="0" result="BackgroundImageFix"/>
<feColorMatrix in="SourceAlpha" type="matrix" values="0 0 0 0 0 0 0 0 0 0 0 0 0 0 0 0 0 0 127 0" result="hardAlpha"/>
<feOffset dx="4" dy="4"/>
<feGaussianBlur stdDeviation="5"/>
<feColorMatrix type="matrix" values="0 0 0 0 0.329412 0 0 0 0 0.0588235 0 0 0 0 0.0862745 0 0 0 0.2 0"/>
<feBlend mode="normal" in2="BackgroundImageFix" result="effect1_dropShadow"/>
<feBlend mode="normal" in="SourceGraphic" in2="effect1_dropShadow" result="shape"/>
</filter>
</defs>
</svg>
