<svg width="355" height="384" viewBox="0 0 355 384" fill="none" xmlns="http://www.w3.org/2000/svg">
<g filter="url(#filter0_d)">
<rect x="6" y="50" width="335" height="320" rx="2" fill="white"/>
</g>
<rect x="6" y="50" width="335" height="320" rx="2" fill="#F2F2F2"/>
<circle cx="173" cy="62" r="62" fill="#CC112C" fill-opacity="0.1"/>
<circle cx="173" cy="62.0002" r="58.2041" fill="#CC112C" fill-opacity="0.1"/>
<circle cx="173" cy="62.0003" r="55.0408" fill="#CC112C"/>
<circle cx="173" cy="62.0001" r="50.6122" fill="white"/>
<path d="M155.858 79.0707C155.858 73.8553 153.212 73.8553 153.212 68.6399C153.212 63.4245 155.858 63.4245 155.858 58.2091C155.858 52.9937 153.212 52.9937 153.212 47.7783C153.212 42.563 155.858 42.563 155.858 37.3476M167.944 37.3052C167.944 42.5206 165.297 42.5206 165.297 47.7359C165.297 52.9513 167.944 52.9513 167.944 58.1667C167.944 63.3821 165.297 63.3821 165.297 68.5975C165.297 73.8129 167.944 73.8129 167.944 79.0283M180.074 37.3052C180.074 42.5206 177.427 42.5206 177.427 47.7359C177.427 52.9513 180.074 52.9513 180.074 58.1667C180.074 63.3821 177.427 63.3821 177.427 68.5975C177.427 73.8129 180.074 73.8129 180.074 79.0283M192.159 37.3052C192.159 42.5206 189.513 42.5206 189.513 47.7359C189.513 52.9513 192.159 52.9513 192.159 58.1667C192.159 63.3821 189.513 63.3821 189.513 68.5975C189.513 73.8129 192.159 73.8129 192.159 79.0283M146.463 73.9825V81.3604C146.463 83.9469 148.624 86.0246 151.315 86.0246H194.806C197.497 86.0246 199.658 83.9469 199.658 81.3604V73.9825M159.078 40.4429L155.814 37.3052L152.55 40.4429M171.164 40.4429L167.9 37.3052L164.636 40.4429M183.25 40.4429L179.986 37.2628L176.721 40.4005M195.335 40.4429L192.071 37.3052L188.807 40.4429" stroke="#540F16" stroke-width="3" stroke-miterlimit="10"/>
<path d="M94.317 160H96.777V146H94.317V160ZM100.245 160H102.665V154.04C102.665 152.4 103.645 151.42 105.045 151.42C106.485 151.42 107.305 152.36 107.305 154V160H109.725V153.26C109.725 150.82 108.345 149.22 105.965 149.22C104.325 149.22 103.345 150.08 102.665 151.06V149.44H100.245V160ZM117.527 160.24C119.587 160.24 120.807 159.42 121.847 158.26L120.387 156.82C119.627 157.6 118.787 158.12 117.647 158.12C115.787 158.12 114.487 156.62 114.487 154.74V154.7C114.487 152.86 115.787 151.34 117.547 151.34C118.747 151.34 119.527 151.88 120.267 152.66L121.787 151.04C120.787 149.96 119.547 149.22 117.567 149.22C114.387 149.22 112.067 151.74 112.067 154.74V154.78C112.067 157.78 114.387 160.24 117.527 160.24ZM124.073 160H126.493V155.98C126.493 153.18 127.973 151.8 130.093 151.8H130.233V149.24C128.373 149.16 127.153 150.24 126.493 151.82V149.44H124.073V160ZM136.823 160.24C138.763 160.24 140.143 159.46 141.143 158.26L139.723 157C138.883 157.82 138.043 158.26 136.863 158.26C135.303 158.26 134.083 157.3 133.823 155.58H141.583C141.603 155.34 141.623 155.12 141.623 154.9C141.623 151.86 139.923 149.22 136.563 149.22C133.543 149.22 131.403 151.7 131.403 154.72V154.76C131.403 158.02 133.763 160.24 136.823 160.24ZM133.803 153.98C134.023 152.34 135.063 151.2 136.543 151.2C138.143 151.2 139.063 152.42 139.223 153.98H133.803ZM147.093 160.22C148.713 160.22 149.813 159.54 150.533 158.68V160H152.893V153.74C152.893 152.36 152.533 151.24 151.753 150.48C151.013 149.72 149.833 149.3 148.253 149.3C146.573 149.3 145.433 149.64 144.273 150.16L144.913 152.06C145.873 151.66 146.753 151.4 147.933 151.4C149.633 151.4 150.553 152.2 150.553 153.7V153.96C149.733 153.7 148.893 153.52 147.713 153.52C145.133 153.52 143.353 154.64 143.353 156.92V156.96C143.353 159.08 145.113 160.22 147.093 160.22ZM147.773 158.46C146.613 158.46 145.713 157.88 145.713 156.86V156.82C145.713 155.72 146.633 155.06 148.193 155.06C149.153 155.06 149.973 155.24 150.593 155.48V156.2C150.593 157.54 149.373 158.46 147.773 158.46ZM159.411 160.2C161.611 160.2 163.331 159.1 163.331 156.88V156.84C163.331 154.94 161.591 154.24 160.051 153.76C158.811 153.36 157.671 153.04 157.671 152.26V152.22C157.671 151.62 158.211 151.18 159.151 151.18C160.031 151.18 161.111 151.56 162.131 152.18L163.091 150.46C161.971 149.72 160.531 149.26 159.211 149.26C157.111 149.26 155.451 150.48 155.451 152.48V152.52C155.451 154.54 157.191 155.18 158.751 155.62C159.991 156 161.111 156.28 161.111 157.1V157.14C161.111 157.84 160.511 158.28 159.471 158.28C158.391 158.28 157.171 157.84 156.011 156.98L154.931 158.62C156.251 159.66 157.911 160.2 159.411 160.2ZM170.651 160.24C172.591 160.24 173.971 159.46 174.971 158.26L173.551 157C172.711 157.82 171.871 158.26 170.691 158.26C169.131 158.26 167.911 157.3 167.651 155.58H175.411C175.431 155.34 175.451 155.12 175.451 154.9C175.451 151.86 173.751 149.22 170.391 149.22C167.371 149.22 165.231 151.7 165.231 154.72V154.76C165.231 158.02 167.591 160.24 170.651 160.24ZM167.631 153.98C167.851 152.34 168.891 151.2 170.371 151.2C171.971 151.2 172.891 152.42 173.051 153.98H167.631ZM182.241 160.22C183.961 160.22 185.061 159.34 185.841 158.24V160H188.261V145.4H185.841V151.08C185.081 150.08 183.981 149.22 182.241 149.22C179.721 149.22 177.341 151.2 177.341 154.7V154.74C177.341 158.24 179.761 160.22 182.241 160.22ZM182.821 158.12C181.181 158.12 179.781 156.78 179.781 154.74V154.7C179.781 152.6 181.161 151.32 182.821 151.32C184.441 151.32 185.881 152.66 185.881 154.7V154.74C185.881 156.76 184.441 158.12 182.821 158.12ZM203.315 160.22C205.815 160.22 208.215 158.24 208.215 154.74V154.7C208.215 151.18 205.795 149.22 203.315 149.22C201.595 149.22 200.495 150.1 199.715 151.2V145.4H197.295V160H199.715V158.36C200.455 159.34 201.555 160.22 203.315 160.22ZM202.735 158.12C201.095 158.12 199.655 156.76 199.655 154.74V154.7C199.655 152.68 201.095 151.32 202.735 151.32C204.375 151.32 205.755 152.66 205.755 154.7V154.74C205.755 156.82 204.395 158.12 202.735 158.12ZM210.853 160H213.273V145.4H210.853V160ZM221.456 160.24C224.716 160.24 227.116 157.74 227.116 154.74V154.7C227.116 151.68 224.736 149.22 221.496 149.22C218.256 149.22 215.856 151.72 215.856 154.74V154.78C215.856 157.78 218.236 160.24 221.456 160.24ZM221.496 158.12C219.616 158.12 218.276 156.58 218.276 154.74V154.7C218.276 152.86 219.516 151.34 221.456 151.34C223.356 151.34 224.696 152.88 224.696 154.74V154.78C224.696 156.6 223.456 158.12 221.496 158.12ZM234.601 160.24C237.861 160.24 240.261 157.74 240.261 154.74V154.7C240.261 151.68 237.881 149.22 234.641 149.22C231.401 149.22 229.001 151.72 229.001 154.74V154.78C229.001 157.78 231.381 160.24 234.601 160.24ZM234.641 158.12C232.761 158.12 231.421 156.58 231.421 154.74V154.7C231.421 152.86 232.661 151.34 234.601 151.34C236.501 151.34 237.841 152.88 237.841 154.74V154.78C237.841 156.6 236.601 158.12 234.641 158.12ZM247.085 160.22C248.805 160.22 249.905 159.34 250.685 158.24V160H253.105V145.4H250.685V151.08C249.925 150.08 248.825 149.22 247.085 149.22C244.565 149.22 242.185 151.2 242.185 154.7V154.74C242.185 158.24 244.605 160.22 247.085 160.22ZM247.665 158.12C246.025 158.12 244.625 156.78 244.625 154.74V154.7C244.625 152.6 246.005 151.32 247.665 151.32C249.285 151.32 250.725 152.66 250.725 154.7V154.74C250.725 156.76 249.285 158.12 247.665 158.12ZM127.029 184.24C129.089 184.24 130.309 183.42 131.349 182.26L129.889 180.82C129.129 181.6 128.289 182.12 127.149 182.12C125.289 182.12 123.989 180.62 123.989 178.74V178.7C123.989 176.86 125.289 175.34 127.049 175.34C128.249 175.34 129.029 175.88 129.769 176.66L131.289 175.04C130.289 173.96 129.049 173.22 127.069 173.22C123.889 173.22 121.569 175.74 121.569 178.74V178.78C121.569 181.78 123.889 184.24 127.029 184.24ZM133.615 171.82H136.215V169.52H133.615V171.82ZM133.715 184H136.135V173.44H133.715V184ZM139.297 184H141.717V179.98C141.717 177.18 143.197 175.8 145.317 175.8H145.457V173.24C143.597 173.16 142.377 174.24 141.717 175.82V173.44H139.297V184ZM152.088 184.24C154.148 184.24 155.368 183.42 156.408 182.26L154.948 180.82C154.188 181.6 153.348 182.12 152.208 182.12C150.348 182.12 149.048 180.62 149.048 178.74V178.7C149.048 176.86 150.348 175.34 152.108 175.34C153.308 175.34 154.088 175.88 154.828 176.66L156.348 175.04C155.348 173.96 154.108 173.22 152.128 173.22C148.948 173.22 146.628 175.74 146.628 178.74V178.78C146.628 181.78 148.948 184.24 152.088 184.24ZM162.273 184.22C163.913 184.22 164.893 183.36 165.573 182.36V184H168.013V173.44H165.573V179.4C165.573 181.04 164.593 182 163.193 182C161.753 182 160.933 181.08 160.933 179.44V173.44H158.513V180.16C158.513 182.62 159.893 184.22 162.273 184.22ZM171.176 184H173.596V169.4H171.176V184ZM179.798 184.22C181.418 184.22 182.518 183.54 183.238 182.68V184H185.598V177.74C185.598 176.36 185.238 175.24 184.458 174.48C183.718 173.72 182.538 173.3 180.958 173.3C179.278 173.3 178.138 173.64 176.978 174.16L177.618 176.06C178.578 175.66 179.458 175.4 180.638 175.4C182.338 175.4 183.258 176.2 183.258 177.7V177.96C182.438 177.7 181.598 177.52 180.418 177.52C177.838 177.52 176.058 178.64 176.058 180.92V180.96C176.058 183.08 177.818 184.22 179.798 184.22ZM180.478 182.46C179.318 182.46 178.418 181.88 178.418 180.86V180.82C178.418 179.72 179.338 179.06 180.898 179.06C181.858 179.06 182.678 179.24 183.298 179.48V180.2C183.298 181.54 182.078 182.46 180.478 182.46ZM191.939 184.18C192.859 184.18 193.519 183.98 194.119 183.64V181.66C193.639 181.9 193.159 182.02 192.619 182.02C191.799 182.02 191.319 181.64 191.319 180.7V175.52H194.159V173.44H191.319V170.54H188.899V173.44H187.559V175.52H188.899V181.08C188.899 183.4 190.159 184.18 191.939 184.18ZM196.662 171.82H199.262V169.52H196.662V171.82ZM196.762 184H199.182V173.44H196.762V184ZM207.364 184.24C210.624 184.24 213.024 181.74 213.024 178.74V178.7C213.024 175.68 210.644 173.22 207.404 173.22C204.164 173.22 201.764 175.72 201.764 178.74V178.78C201.764 181.78 204.144 184.24 207.364 184.24ZM207.404 182.12C205.524 182.12 204.184 180.58 204.184 178.74V178.7C204.184 176.86 205.424 175.34 207.364 175.34C209.264 175.34 210.604 176.88 210.604 178.74V178.78C210.604 180.6 209.364 182.12 207.404 182.12ZM215.489 184H217.909V178.04C217.909 176.4 218.889 175.42 220.289 175.42C221.729 175.42 222.549 176.36 222.549 178V184H224.969V177.26C224.969 174.82 223.589 173.22 221.209 173.22C219.569 173.22 218.589 174.08 217.909 175.06V173.44H215.489V184Z" fill="#CC112C"/>
<path d="M25.0674 222H26.3474V211.968H30.1074V210.8H21.3074V211.968H25.0674V222ZM32.0244 222H33.2564V217.264C33.2564 215.712 34.3124 214.672 35.7364 214.672C37.1924 214.672 38.0244 215.632 38.0244 217.168V222H39.2564V216.864C39.2564 214.896 38.0884 213.552 36.0884 213.552C34.6644 213.552 33.8004 214.272 33.2564 215.168V210.32H32.0244V222ZM45.4998 222.192C47.0678 222.192 48.0758 221.568 48.9078 220.64L48.1398 219.952C47.4678 220.656 46.6678 221.12 45.5318 221.12C44.0598 221.12 42.7958 220.112 42.6198 218.32H49.1798C49.1958 218.176 49.1958 218.08 49.1958 217.92C49.1958 215.504 47.7878 213.552 45.3398 213.552C43.0518 213.552 41.3718 215.472 41.3718 217.856V217.888C41.3718 220.448 43.2278 222.192 45.4998 222.192ZM42.6198 217.408C42.7798 215.792 43.8678 214.592 45.3078 214.592C46.9558 214.592 47.8198 215.904 47.9478 217.408H42.6198ZM59.3174 222H60.5974V211.968H64.3574V210.8H55.5574V211.968H59.3174V222ZM66.2744 222H67.5064V217.264C67.5064 215.712 68.5624 214.672 69.9864 214.672C71.4424 214.672 72.2744 215.632 72.2744 217.168V222H73.5064V216.864C73.5064 214.896 72.3384 213.552 70.3384 213.552C68.9144 213.552 68.0504 214.272 67.5064 215.168V210.32H66.2744V222ZM79.7498 222.192C81.3178 222.192 82.3258 221.568 83.1578 220.64L82.3898 219.952C81.7178 220.656 80.9178 221.12 79.7818 221.12C78.3098 221.12 77.0458 220.112 76.8698 218.32H83.4298C83.4458 218.176 83.4458 218.08 83.4458 217.92C83.4458 215.504 82.0378 213.552 79.5898 213.552C77.3018 213.552 75.6218 215.472 75.6218 217.856V217.888C75.6218 220.448 77.4778 222.192 79.7498 222.192ZM76.8698 217.408C77.0298 215.792 78.1178 214.592 79.5578 214.592C81.2058 214.592 82.0698 215.904 82.1978 217.408H76.8698ZM85.6026 222H86.8346V218.704C86.8346 216.208 88.3066 214.912 90.1146 214.912H90.2106V213.584C88.6426 213.52 87.4426 214.512 86.8346 215.888V213.728H85.6026V222ZM92.0869 222H93.3189V217.28C93.3189 215.76 94.3109 214.672 95.6229 214.672C96.9349 214.672 97.7509 215.584 97.7509 217.136V222H98.9829V217.232C98.9829 215.6 100.007 214.672 101.255 214.672C102.599 214.672 103.399 215.568 103.399 217.168V222H104.631V216.88C104.631 214.832 103.463 213.552 101.559 213.552C100.119 213.552 99.2389 214.288 98.6469 215.2C98.1989 214.272 97.3349 213.552 95.9909 213.552C94.5989 213.552 93.8629 214.304 93.3189 215.12V213.728H92.0869V222ZM106.554 222H107.85L109.178 219.04H115.274L116.586 222H117.946L112.842 210.72H111.658L106.554 222ZM109.674 217.888L112.234 212.192L114.778 217.888H109.674ZM119.978 211.92H121.386V210.56H119.978V211.92ZM120.058 222H121.29V213.728H120.058V222ZM127.621 222.176C129.141 222.176 130.117 221.328 130.789 220.336V222H132.021V210.32H130.789V215.312C130.149 214.384 129.157 213.552 127.621 213.552C125.637 213.552 123.669 215.152 123.669 217.856V217.888C123.669 220.608 125.637 222.176 127.621 222.176ZM127.845 221.072C126.293 221.072 124.933 219.824 124.933 217.872V217.84C124.933 215.84 126.245 214.656 127.845 214.656C129.381 214.656 130.837 215.936 130.837 217.84V217.872C130.837 219.776 129.381 221.072 127.845 221.072ZM136.63 216.24C138.182 216.24 139.414 214.96 139.414 213.44V213.424C139.414 211.904 138.198 210.64 136.63 210.64C135.078 210.64 133.846 211.92 133.846 213.44V213.456C133.846 214.976 135.062 216.24 136.63 216.24ZM136.63 215.936C135.222 215.936 134.166 214.816 134.166 213.456V213.44C134.166 212.08 135.238 210.944 136.63 210.944C138.038 210.944 139.094 212.064 139.094 213.424V213.44C139.094 214.8 138.022 215.936 136.63 215.936ZM135.542 214.8H136.086V213.824H136.678L137.35 214.8H138.006L137.254 213.728C137.638 213.616 137.91 213.328 137.91 212.864C137.91 212.272 137.446 211.968 136.822 211.968H135.542V214.8ZM136.086 213.376V212.448H136.774C137.142 212.448 137.35 212.608 137.35 212.912C137.35 213.184 137.142 213.376 136.774 213.376H136.086ZM146.024 224.56H147.256V220.416C147.896 221.344 148.888 222.176 150.424 222.176C152.424 222.176 154.376 220.576 154.376 217.872V217.84C154.376 215.12 152.408 213.552 150.424 213.552C148.904 213.552 147.928 214.4 147.256 215.392V213.728H146.024V224.56ZM150.2 221.072C148.664 221.072 147.208 219.792 147.208 217.872V217.84C147.208 215.952 148.664 214.656 150.2 214.656C151.768 214.656 153.112 215.904 153.112 217.856V217.888C153.112 219.888 151.8 221.072 150.2 221.072ZM156.649 222H157.881V218.704C157.881 216.208 159.353 214.912 161.161 214.912H161.257V213.584C159.689 213.52 158.489 214.512 157.881 215.888V213.728H156.649V222ZM166.55 222.192C169.046 222.192 170.886 220.208 170.886 217.872V217.84C170.886 215.504 169.062 213.552 166.582 213.552C164.086 213.552 162.262 215.536 162.262 217.872V217.904C162.262 220.24 164.07 222.192 166.55 222.192ZM166.582 221.088C164.838 221.088 163.526 219.648 163.526 217.872V217.84C163.526 216.096 164.758 214.64 166.55 214.64C168.294 214.64 169.622 216.096 169.622 217.872V217.904C169.622 219.648 168.374 221.088 166.582 221.088ZM175.402 222.064H176.49L180.09 213.728H178.762L175.962 220.592L173.178 213.728H171.818L175.402 222.064ZM182.056 211.92H183.464V210.56H182.056V211.92ZM182.136 222H183.368V213.728H182.136V222ZM189.7 222.176C191.22 222.176 192.196 221.328 192.868 220.336V222H194.1V210.32H192.868V215.312C192.228 214.384 191.236 213.552 189.7 213.552C187.716 213.552 185.748 215.152 185.748 217.856V217.888C185.748 220.608 187.716 222.176 189.7 222.176ZM189.924 221.072C188.372 221.072 187.012 219.824 187.012 217.872V217.84C187.012 215.84 188.324 214.656 189.924 214.656C191.46 214.656 192.916 215.936 192.916 217.84V217.872C192.916 219.776 191.46 221.072 189.924 221.072ZM200.469 222.192C202.037 222.192 203.045 221.568 203.877 220.64L203.109 219.952C202.437 220.656 201.637 221.12 200.501 221.12C199.029 221.12 197.765 220.112 197.589 218.32H204.149C204.165 218.176 204.165 218.08 204.165 217.92C204.165 215.504 202.757 213.552 200.309 213.552C198.021 213.552 196.341 215.472 196.341 217.856V217.888C196.341 220.448 198.197 222.192 200.469 222.192ZM197.589 217.408C197.749 215.792 198.837 214.592 200.277 214.592C201.925 214.592 202.789 215.904 202.917 217.408H197.589ZM209.057 222.16C210.705 222.16 212.001 221.248 212.001 219.68V219.648C212.001 218.16 210.625 217.664 209.345 217.28C208.241 216.944 207.217 216.64 207.217 215.856V215.824C207.217 215.136 207.841 214.624 208.817 214.624C209.617 214.624 210.497 214.928 211.265 215.424L211.825 214.496C210.977 213.936 209.857 213.584 208.849 213.584C207.217 213.584 206.033 214.528 206.033 215.952V215.984C206.033 217.504 207.473 217.952 208.769 218.32C209.857 218.624 210.833 218.944 210.833 219.776V219.808C210.833 220.608 210.113 221.12 209.121 221.12C208.145 221.12 207.153 220.736 206.257 220.064L205.633 220.944C206.561 221.696 207.873 222.16 209.057 222.16ZM222.815 222.192C224.367 222.192 225.359 221.52 226.191 220.592L225.407 219.856C224.751 220.56 223.935 221.088 222.879 221.088C221.151 221.088 219.839 219.664 219.839 217.872V217.84C219.839 216.064 221.119 214.64 222.799 214.64C223.919 214.64 224.655 215.2 225.311 215.888L226.127 215.024C225.359 214.208 224.383 213.552 222.815 213.552C220.399 213.552 218.575 215.536 218.575 217.872V217.904C218.575 220.224 220.399 222.192 222.815 222.192ZM231.769 222.192C234.265 222.192 236.105 220.208 236.105 217.872V217.84C236.105 215.504 234.281 213.552 231.801 213.552C229.305 213.552 227.481 215.536 227.481 217.872V217.904C227.481 220.24 229.289 222.192 231.769 222.192ZM231.801 221.088C230.057 221.088 228.745 219.648 228.745 217.872V217.84C228.745 216.096 229.977 214.64 231.769 214.64C233.513 214.64 234.841 216.096 234.841 217.872V217.904C234.841 219.648 233.593 221.088 231.801 221.088ZM238.337 222H239.569V217.264C239.569 215.712 240.625 214.672 242.049 214.672C243.505 214.672 244.337 215.632 244.337 217.168V222H245.569V216.864C245.569 214.896 244.401 213.552 242.401 213.552C240.977 213.552 240.113 214.272 239.569 215.168V213.728H238.337V222ZM250.932 222.16C252.58 222.16 253.876 221.248 253.876 219.68V219.648C253.876 218.16 252.5 217.664 251.22 217.28C250.116 216.944 249.092 216.64 249.092 215.856V215.824C249.092 215.136 249.716 214.624 250.692 214.624C251.492 214.624 252.372 214.928 253.14 215.424L253.7 214.496C252.852 213.936 251.732 213.584 250.724 213.584C249.092 213.584 247.908 214.528 247.908 215.952V215.984C247.908 217.504 249.348 217.952 250.644 218.32C251.732 218.624 252.708 218.944 252.708 219.776V219.808C252.708 220.608 251.988 221.12 250.996 221.12C250.02 221.12 249.028 220.736 248.132 220.064L247.508 220.944C248.436 221.696 249.748 222.16 250.932 222.16ZM258.777 222.144C259.369 222.144 259.833 222.016 260.265 221.792V220.736C259.833 220.944 259.481 221.024 259.065 221.024C258.233 221.024 257.673 220.656 257.673 219.648V214.816H260.297V213.728H257.673V211.232H256.441V213.728H255.289V214.816H256.441V219.808C256.441 221.488 257.449 222.144 258.777 222.144ZM264.942 222.176C266.398 222.176 267.358 221.504 267.934 220.752V222H269.118V216.944C269.118 215.888 268.83 215.088 268.27 214.528C267.662 213.92 266.766 213.616 265.598 213.616C264.398 213.616 263.502 213.888 262.59 214.304L262.958 215.312C263.726 214.96 264.494 214.704 265.47 214.704C267.022 214.704 267.934 215.472 267.934 216.96V217.248C267.198 217.04 266.446 216.896 265.39 216.896C263.294 216.896 261.854 217.824 261.854 219.568V219.6C261.854 221.296 263.406 222.176 264.942 222.176ZM265.182 221.2C264.062 221.2 263.102 220.592 263.102 219.552V219.52C263.102 218.48 263.966 217.808 265.518 217.808C266.526 217.808 267.342 217.984 267.95 218.16V218.96C267.95 220.272 266.702 221.2 265.182 221.2ZM271.743 222H272.975V217.264C272.975 215.712 274.031 214.672 275.455 214.672C276.911 214.672 277.743 215.632 277.743 217.168V222H278.975V216.864C278.975 214.896 277.807 213.552 275.807 213.552C274.383 213.552 273.519 214.272 272.975 215.168V213.728H271.743V222ZM284.371 222.144C284.963 222.144 285.427 222.016 285.859 221.792V220.736C285.427 220.944 285.075 221.024 284.659 221.024C283.827 221.024 283.267 220.656 283.267 219.648V214.816H285.891V213.728H283.267V211.232H282.035V213.728H280.883V214.816H282.035V219.808C282.035 221.488 283.043 222.144 284.371 222.144ZM292.868 222H294.1V217.264C294.1 215.712 295.156 214.672 296.58 214.672C298.036 214.672 298.868 215.632 298.868 217.168V222H300.1V216.864C300.1 214.896 298.932 213.552 296.932 213.552C295.508 213.552 294.644 214.272 294.1 215.168V210.32H292.868V222ZM306.344 222.192C307.912 222.192 308.92 221.568 309.752 220.64L308.984 219.952C308.312 220.656 307.512 221.12 306.376 221.12C304.904 221.12 303.64 220.112 303.464 218.32H310.024C310.04 218.176 310.04 218.08 310.04 217.92C310.04 215.504 308.632 213.552 306.184 213.552C303.896 213.552 302.216 215.472 302.216 217.856V217.888C302.216 220.448 304.072 222.192 306.344 222.192ZM303.464 217.408C303.624 215.792 304.712 214.592 306.152 214.592C307.8 214.592 308.664 215.904 308.792 217.408H303.464ZM314.66 222.176C316.116 222.176 317.076 221.504 317.652 220.752V222H318.836V216.944C318.836 215.888 318.548 215.088 317.988 214.528C317.38 213.92 316.484 213.616 315.316 213.616C314.116 213.616 313.22 213.888 312.308 214.304L312.676 215.312C313.444 214.96 314.212 214.704 315.188 214.704C316.74 214.704 317.652 215.472 317.652 216.96V217.248C316.916 217.04 316.164 216.896 315.108 216.896C313.012 216.896 311.572 217.824 311.572 219.568V219.6C311.572 221.296 313.124 222.176 314.66 222.176ZM314.9 221.2C313.78 221.2 312.82 220.592 312.82 219.552V219.52C312.82 218.48 313.684 217.808 315.236 217.808C316.244 217.808 317.06 217.984 317.668 218.16V218.96C317.668 220.272 316.42 221.2 314.9 221.2ZM324.152 222.144C324.744 222.144 325.208 222.016 325.64 221.792V220.736C325.208 220.944 324.856 221.024 324.44 221.024C323.608 221.024 323.048 220.656 323.048 219.648V214.816H325.672V213.728H323.048V211.232H321.816V213.728H320.664V214.816H321.816V219.808C321.816 221.488 322.824 222.144 324.152 222.144ZM27.818 241.064H28.906L31.146 234.536L33.37 241.064H34.442L37.354 232.728H36.074L33.898 239.368L31.658 232.696H30.634L28.41 239.368L26.234 232.728H24.922L27.818 241.064ZM39.4073 241H40.6393V236.264C40.6393 234.712 41.6953 233.672 43.1193 233.672C44.5753 233.672 45.4073 234.632 45.4073 236.168V241H46.6393V235.864C46.6393 233.896 45.4713 232.552 43.4713 232.552C42.0473 232.552 41.1833 233.272 40.6393 234.168V229.32H39.4073V241ZM49.2986 230.92H50.7066V229.56H49.2986V230.92ZM49.3786 241H50.6106V232.728H49.3786V241ZM57.1978 241.192C58.7498 241.192 59.7418 240.52 60.5738 239.592L59.7898 238.856C59.1338 239.56 58.3178 240.088 57.2618 240.088C55.5338 240.088 54.2218 238.664 54.2218 236.872V236.84C54.2218 235.064 55.5018 233.64 57.1818 233.64C58.3018 233.64 59.0378 234.2 59.6938 234.888L60.5098 234.024C59.7418 233.208 58.7658 232.552 57.1978 232.552C54.7818 232.552 52.9578 234.536 52.9578 236.872V236.904C52.9578 239.224 54.7818 241.192 57.1978 241.192ZM62.6104 241H63.8424V236.264C63.8424 234.712 64.8984 233.672 66.3224 233.672C67.7784 233.672 68.6104 234.632 68.6104 236.168V241H69.8424V235.864C69.8424 233.896 68.6744 232.552 66.6744 232.552C65.2504 232.552 64.3864 233.272 63.8424 234.168V229.32H62.6104V241ZM77.2986 230.92H78.7066V229.56H77.2986V230.92ZM77.3786 241H78.6106V232.728H77.3786V241ZM81.4698 241H82.7018V236.264C82.7018 234.712 83.7578 233.672 85.1818 233.672C86.6378 233.672 87.4698 234.632 87.4698 236.168V241H88.7018V235.864C88.7018 233.896 87.5338 232.552 85.5338 232.552C84.1098 232.552 83.2458 233.272 82.7018 234.168V232.728H81.4698V241ZM95.0571 241.192C96.6091 241.192 97.6011 240.52 98.4331 239.592L97.6491 238.856C96.9931 239.56 96.1771 240.088 95.1211 240.088C93.3931 240.088 92.0811 238.664 92.0811 236.872V236.84C92.0811 235.064 93.3611 233.64 95.0411 233.64C96.1611 233.64 96.8971 234.2 97.5531 234.888L98.3691 234.024C97.6011 233.208 96.6251 232.552 95.0571 232.552C92.6411 232.552 90.8171 234.536 90.8171 236.872V236.904C90.8171 239.224 92.6411 241.192 95.0571 241.192ZM100.47 241H101.702V237.704C101.702 235.208 103.174 233.912 104.982 233.912H105.078V232.584C103.51 232.52 102.31 233.512 101.702 234.888V232.728H100.47V241ZM110.211 241.192C111.779 241.192 112.787 240.568 113.619 239.64L112.851 238.952C112.179 239.656 111.379 240.12 110.243 240.12C108.771 240.12 107.507 239.112 107.331 237.32H113.891C113.907 237.176 113.907 237.08 113.907 236.92C113.907 234.504 112.499 232.552 110.051 232.552C107.763 232.552 106.083 234.472 106.083 236.856V236.888C106.083 239.448 107.939 241.192 110.211 241.192ZM107.331 236.408C107.491 234.792 108.579 233.592 110.019 233.592C111.667 233.592 112.531 234.904 112.659 236.408H107.331ZM118.528 241.176C119.984 241.176 120.944 240.504 121.52 239.752V241H122.704V235.944C122.704 234.888 122.416 234.088 121.856 233.528C121.248 232.92 120.352 232.616 119.184 232.616C117.984 232.616 117.088 232.888 116.176 233.304L116.544 234.312C117.312 233.96 118.08 233.704 119.056 233.704C120.608 233.704 121.52 234.472 121.52 235.96V236.248C120.784 236.04 120.032 235.896 118.976 235.896C116.88 235.896 115.44 236.824 115.44 238.568V238.6C115.44 240.296 116.992 241.176 118.528 241.176ZM118.768 240.2C117.648 240.2 116.688 239.592 116.688 238.552V238.52C116.688 237.48 117.552 236.808 119.104 236.808C120.112 236.808 120.928 236.984 121.536 237.16V237.96C121.536 239.272 120.288 240.2 118.768 240.2ZM128.065 241.16C129.713 241.16 131.009 240.248 131.009 238.68V238.648C131.009 237.16 129.633 236.664 128.353 236.28C127.249 235.944 126.225 235.64 126.225 234.856V234.824C126.225 234.136 126.849 233.624 127.825 233.624C128.625 233.624 129.505 233.928 130.273 234.424L130.833 233.496C129.985 232.936 128.865 232.584 127.857 232.584C126.225 232.584 125.041 233.528 125.041 234.952V234.984C125.041 236.504 126.481 236.952 127.777 237.32C128.865 237.624 129.841 237.944 129.841 238.776V238.808C129.841 239.608 129.121 240.12 128.129 240.12C127.153 240.12 126.161 239.736 125.265 239.064L124.641 239.944C125.569 240.696 126.881 241.16 128.065 241.16ZM136.914 241.192C138.482 241.192 139.49 240.568 140.322 239.64L139.554 238.952C138.882 239.656 138.082 240.12 136.946 240.12C135.474 240.12 134.21 239.112 134.034 237.32H140.594C140.61 237.176 140.61 237.08 140.61 236.92C140.61 234.504 139.202 232.552 136.754 232.552C134.466 232.552 132.786 234.472 132.786 236.856V236.888C132.786 239.448 134.642 241.192 136.914 241.192ZM134.034 236.408C134.194 234.792 135.282 233.592 136.722 233.592C138.37 233.592 139.234 234.904 139.362 236.408H134.034ZM145.503 241.16C147.151 241.16 148.447 240.248 148.447 238.68V238.648C148.447 237.16 147.071 236.664 145.791 236.28C144.687 235.944 143.663 235.64 143.663 234.856V234.824C143.663 234.136 144.287 233.624 145.263 233.624C146.063 233.624 146.943 233.928 147.711 234.424L148.271 233.496C147.423 232.936 146.303 232.584 145.295 232.584C143.663 232.584 142.479 233.528 142.479 234.952V234.984C142.479 236.504 143.919 236.952 145.215 237.32C146.303 237.624 147.279 237.944 147.279 238.776V238.808C147.279 239.608 146.559 240.12 145.567 240.12C144.591 240.12 143.599 239.736 142.703 239.064L142.079 239.944C143.007 240.696 144.319 241.16 145.503 241.16ZM159.932 241.176C161.932 241.176 163.884 239.576 163.884 236.872V236.84C163.884 234.12 161.916 232.552 159.932 232.552C158.412 232.552 157.436 233.4 156.764 234.392V229.32H155.532V241H156.764V239.416C157.404 240.344 158.396 241.176 159.932 241.176ZM159.708 240.072C158.172 240.072 156.716 238.792 156.716 236.872V236.84C156.716 234.952 158.172 233.656 159.708 233.656C161.276 233.656 162.62 234.904 162.62 236.856V236.888C162.62 238.888 161.308 240.072 159.708 240.072ZM166.269 241H167.501V229.32H166.269V241ZM174.136 241.192C176.632 241.192 178.472 239.208 178.472 236.872V236.84C178.472 234.504 176.648 232.552 174.168 232.552C171.672 232.552 169.848 234.536 169.848 236.872V236.904C169.848 239.24 171.656 241.192 174.136 241.192ZM174.168 240.088C172.424 240.088 171.112 238.648 171.112 236.872V236.84C171.112 235.096 172.344 233.64 174.136 233.64C175.88 233.64 177.208 235.096 177.208 236.872V236.904C177.208 238.648 175.96 240.088 174.168 240.088ZM184.48 241.192C186.976 241.192 188.816 239.208 188.816 236.872V236.84C188.816 234.504 186.992 232.552 184.512 232.552C182.016 232.552 180.192 234.536 180.192 236.872V236.904C180.192 239.24 182 241.192 184.48 241.192ZM184.512 240.088C182.768 240.088 181.456 238.648 181.456 236.872V236.84C181.456 235.096 182.688 233.64 184.48 233.64C186.224 233.64 187.552 235.096 187.552 236.872V236.904C187.552 238.648 186.304 240.088 184.512 240.088ZM194.52 241.176C196.04 241.176 197.016 240.328 197.688 239.336V241H198.92V229.32H197.688V234.312C197.048 233.384 196.056 232.552 194.52 232.552C192.536 232.552 190.568 234.152 190.568 236.856V236.888C190.568 239.608 192.536 241.176 194.52 241.176ZM194.744 240.072C193.192 240.072 191.832 238.824 191.832 236.872V236.84C191.832 234.84 193.144 233.656 194.744 233.656C196.28 233.656 197.736 234.936 197.736 236.84V236.872C197.736 238.776 196.28 240.072 194.744 240.072ZM206.934 241H208.166V233.816H210.774V232.76H208.15V232.088C208.15 230.904 208.63 230.328 209.59 230.328C210.006 230.328 210.342 230.408 210.79 230.536V229.464C210.39 229.32 210.006 229.256 209.43 229.256C208.678 229.256 208.07 229.48 207.654 229.896C207.19 230.36 206.934 231.08 206.934 232.024V232.744H205.798V233.816H206.934V241ZM212.47 241H213.686V229.32H212.47V241ZM220.34 241.192C222.836 241.192 224.676 239.208 224.676 236.872V236.84C224.676 234.504 222.852 232.552 220.372 232.552C217.876 232.552 216.052 234.536 216.052 236.872V236.904C216.052 239.24 217.86 241.192 220.34 241.192ZM220.372 240.088C218.628 240.088 217.316 238.648 217.316 236.872V236.84C217.316 235.096 218.548 233.64 220.34 233.64C222.084 233.64 223.411 235.096 223.411 236.872V236.904C223.411 238.648 222.164 240.088 220.372 240.088ZM228.693 241.064H229.781L232.021 234.536L234.245 241.064H235.317L238.229 232.728H236.949L234.773 239.368L232.533 232.696H231.509L229.285 239.368L227.109 232.728H225.797L228.693 241.064ZM247.847 241.144C248.439 241.144 248.903 241.016 249.335 240.792V239.736C248.903 239.944 248.551 240.024 248.135 240.024C247.303 240.024 246.743 239.656 246.743 238.648V233.816H249.367V232.728H246.743V230.232H245.511V232.728H244.359V233.816H245.511V238.808C245.511 240.488 246.519 241.144 247.847 241.144ZM255.09 241.192C257.586 241.192 259.426 239.208 259.426 236.872V236.84C259.426 234.504 257.602 232.552 255.122 232.552C252.626 232.552 250.802 234.536 250.802 236.872V236.904C250.802 239.24 252.61 241.192 255.09 241.192ZM255.122 240.088C253.378 240.088 252.066 238.648 252.066 236.872V236.84C252.066 235.096 253.298 233.64 255.09 233.64C256.834 233.64 258.161 235.096 258.161 236.872V236.904C258.161 238.648 256.914 240.088 255.122 240.088ZM269.222 241.144C269.814 241.144 270.278 241.016 270.71 240.792V239.736C270.278 239.944 269.926 240.024 269.51 240.024C268.678 240.024 268.118 239.656 268.118 238.648V233.816H270.742V232.728H268.118V230.232H266.886V232.728H265.734V233.816H266.886V238.808C266.886 240.488 267.894 241.144 269.222 241.144ZM272.955 230.92H274.363V229.56H272.955V230.92ZM273.035 241H274.267V232.728H273.035V241ZM279.862 241.16C281.51 241.16 282.806 240.248 282.806 238.68V238.648C282.806 237.16 281.43 236.664 280.15 236.28C279.046 235.944 278.022 235.64 278.022 234.856V234.824C278.022 234.136 278.646 233.624 279.622 233.624C280.422 233.624 281.302 233.928 282.07 234.424L282.63 233.496C281.782 232.936 280.662 232.584 279.654 232.584C278.022 232.584 276.838 233.528 276.838 234.952V234.984C276.838 236.504 278.278 236.952 279.574 237.32C280.662 237.624 281.638 237.944 281.638 238.776V238.808C281.638 239.608 280.918 240.12 279.926 240.12C278.95 240.12 277.958 239.736 277.062 239.064L276.438 239.944C277.366 240.696 278.678 241.16 279.862 241.16ZM287.674 241.16C289.323 241.16 290.619 240.248 290.619 238.68V238.648C290.619 237.16 289.243 236.664 287.963 236.28C286.859 235.944 285.835 235.64 285.835 234.856V234.824C285.835 234.136 286.459 233.624 287.435 233.624C288.235 233.624 289.115 233.928 289.883 234.424L290.443 233.496C289.595 232.936 288.475 232.584 287.467 232.584C285.835 232.584 284.651 233.528 284.651 234.952V234.984C284.651 236.504 286.091 236.952 287.387 237.32C288.475 237.624 289.451 237.944 289.451 238.776V238.808C289.451 239.608 288.731 240.12 287.739 240.12C286.763 240.12 285.771 239.736 284.875 239.064L284.251 239.944C285.179 240.696 286.491 241.16 287.674 241.16ZM295.947 241.176C297.371 241.176 298.219 240.456 298.779 239.56V241H299.995V232.728H298.779V237.464C298.779 239.016 297.707 240.056 296.299 240.056C294.843 240.056 294.011 239.096 294.011 237.56V232.728H292.779V237.864C292.779 239.832 293.947 241.176 295.947 241.176ZM306.383 241.192C307.951 241.192 308.959 240.568 309.791 239.64L309.023 238.952C308.351 239.656 307.551 240.12 306.415 240.12C304.943 240.12 303.679 239.112 303.503 237.32H310.063C310.079 237.176 310.079 237.08 310.079 236.92C310.079 234.504 308.671 232.552 306.223 232.552C303.935 232.552 302.255 234.472 302.255 236.856V236.888C302.255 239.448 304.111 241.192 306.383 241.192ZM303.503 236.408C303.663 234.792 304.751 233.592 306.191 233.592C307.839 233.592 308.703 234.904 308.831 236.408H303.503ZM314.971 241.16C316.619 241.16 317.915 240.248 317.915 238.68V238.648C317.915 237.16 316.539 236.664 315.259 236.28C314.155 235.944 313.131 235.64 313.131 234.856V234.824C313.131 234.136 313.755 233.624 314.731 233.624C315.531 233.624 316.411 233.928 317.179 234.424L317.739 233.496C316.891 232.936 315.771 232.584 314.763 232.584C313.131 232.584 311.947 233.528 311.947 234.952V234.984C311.947 236.504 313.387 236.952 314.683 237.32C315.771 237.624 316.747 237.944 316.747 238.776V238.808C316.747 239.608 316.027 240.12 315.035 240.12C314.059 240.12 313.067 239.736 312.171 239.064L311.547 239.944C312.475 240.696 313.787 241.16 314.971 241.16ZM319.756 242.952C320.972 242.68 321.532 242.056 321.532 240.76V239.32H320.06V241H320.636C320.7 241.688 320.364 242.104 319.564 242.392L319.756 242.952ZM22.0869 262.592C23.3989 262.592 24.5029 262.224 25.2389 261.488C25.9109 260.816 26.2949 259.84 26.2949 258.56V251.728H25.0629V253.216C24.3909 252.32 23.3829 251.552 21.8309 251.552C19.8629 251.552 17.9429 253.04 17.9429 255.456V255.488C17.9429 257.872 19.8469 259.36 21.8309 259.36C23.3509 259.36 24.3589 258.576 25.0789 257.616V258.592C25.0789 260.528 23.8949 261.536 22.0709 261.536C20.8869 261.536 19.8309 261.168 18.8869 260.48L18.3269 261.44C19.4309 262.208 20.7109 262.592 22.0869 262.592ZM22.0709 258.272C20.5349 258.272 19.2069 257.12 19.2069 255.456V255.424C19.2069 253.728 20.5029 252.64 22.0709 252.64C23.6389 252.64 25.1109 253.744 25.1109 255.44V255.472C25.1109 257.136 23.6389 258.272 22.0709 258.272ZM29.0799 249.92H30.4879V248.56H29.0799V249.92ZM29.1599 260H30.3919V251.728H29.1599V260ZM36.019 260.064H37.107L40.707 251.728H39.379L36.579 258.592L33.795 251.728H32.435L36.019 260.064ZM42.6736 249.92H44.0816V248.56H42.6736V249.92ZM42.7536 260H43.9856V251.728H42.7536V260ZM46.8448 260H48.0768V255.264C48.0768 253.712 49.1328 252.672 50.5568 252.672C52.0128 252.672 52.8448 253.632 52.8448 255.168V260H54.0768V254.864C54.0768 252.896 52.9088 251.552 50.9088 251.552C49.4848 251.552 48.6208 252.272 48.0768 253.168V251.728H46.8448V260ZM60.3681 262.592C61.6801 262.592 62.7841 262.224 63.5201 261.488C64.1921 260.816 64.5761 259.84 64.5761 258.56V251.728H63.3441V253.216C62.6721 252.32 61.6641 251.552 60.1121 251.552C58.1441 251.552 56.2241 253.04 56.2241 255.456V255.488C56.2241 257.872 58.1281 259.36 60.1121 259.36C61.6321 259.36 62.6401 258.576 63.3601 257.616V258.592C63.3601 260.528 62.1761 261.536 60.3521 261.536C59.1681 261.536 58.1121 261.168 57.1681 260.48L56.6081 261.44C57.7121 262.208 58.9921 262.592 60.3681 262.592ZM60.3521 258.272C58.8161 258.272 57.4881 257.12 57.4881 255.456V255.424C57.4881 253.728 58.7841 252.64 60.3521 252.64C61.9201 252.64 63.3921 253.744 63.3921 255.44V255.472C63.3921 257.136 61.9201 258.272 60.3521 258.272ZM74.59 260.176C76.046 260.176 77.006 259.504 77.582 258.752V260H78.766V254.944C78.766 253.888 78.478 253.088 77.918 252.528C77.31 251.92 76.414 251.616 75.246 251.616C74.046 251.616 73.15 251.888 72.238 252.304L72.606 253.312C73.374 252.96 74.142 252.704 75.118 252.704C76.67 252.704 77.582 253.472 77.582 254.96V255.248C76.846 255.04 76.094 254.896 75.038 254.896C72.942 254.896 71.502 255.824 71.502 257.568V257.6C71.502 259.296 73.054 260.176 74.59 260.176ZM74.83 259.2C73.71 259.2 72.75 258.592 72.75 257.552V257.52C72.75 256.48 73.614 255.808 75.166 255.808C76.174 255.808 76.99 255.984 77.598 256.16V256.96C77.598 258.272 76.35 259.2 74.83 259.2ZM81.3916 260H82.6236V255.264C82.6236 253.712 83.6796 252.672 85.1036 252.672C86.5596 252.672 87.3916 253.632 87.3916 255.168V260H88.6236V254.864C88.6236 252.896 87.4556 251.552 85.4556 251.552C84.0316 251.552 83.1676 252.272 82.6236 253.168V251.728H81.3916V260ZM93.715 260.176C95.171 260.176 96.131 259.504 96.707 258.752V260H97.891V254.944C97.891 253.888 97.603 253.088 97.043 252.528C96.435 251.92 95.539 251.616 94.371 251.616C93.171 251.616 92.275 251.888 91.363 252.304L91.731 253.312C92.499 252.96 93.267 252.704 94.243 252.704C95.795 252.704 96.707 253.472 96.707 254.96V255.248C95.971 255.04 95.219 254.896 94.163 254.896C92.067 254.896 90.627 255.824 90.627 257.568V257.6C90.627 259.296 92.179 260.176 93.715 260.176ZM93.955 259.2C92.835 259.2 91.875 258.592 91.875 257.552V257.52C91.875 256.48 92.739 255.808 94.291 255.808C95.299 255.808 96.115 255.984 96.723 256.16V256.96C96.723 258.272 95.475 259.2 93.955 259.2ZM100.629 260H101.861V248.32H100.629V260ZM108.384 262.592C109.696 262.592 110.8 262.224 111.536 261.488C112.208 260.816 112.592 259.84 112.592 258.56V251.728H111.36V253.216C110.688 252.32 109.68 251.552 108.128 251.552C106.16 251.552 104.24 253.04 104.24 255.456V255.488C104.24 257.872 106.144 259.36 108.128 259.36C109.648 259.36 110.656 258.576 111.376 257.616V258.592C111.376 260.528 110.192 261.536 108.368 261.536C107.184 261.536 106.128 261.168 105.184 260.48L104.624 261.44C105.728 262.208 107.008 262.592 108.384 262.592ZM108.368 258.272C106.832 258.272 105.504 257.12 105.504 255.456V255.424C105.504 253.728 106.8 252.64 108.368 252.64C109.936 252.64 111.408 253.744 111.408 255.44V255.472C111.408 257.136 109.936 258.272 108.368 258.272ZM118.961 260.192C120.529 260.192 121.537 259.568 122.369 258.64L121.601 257.952C120.929 258.656 120.129 259.12 118.993 259.12C117.521 259.12 116.257 258.112 116.081 256.32H122.641C122.657 256.176 122.657 256.08 122.657 255.92C122.657 253.504 121.249 251.552 118.801 251.552C116.513 251.552 114.833 253.472 114.833 255.856V255.888C114.833 258.448 116.689 260.192 118.961 260.192ZM116.081 255.408C116.241 253.792 117.329 252.592 118.769 252.592C120.417 252.592 121.281 253.904 121.409 255.408H116.081ZM127.549 260.16C129.198 260.16 130.494 259.248 130.494 257.68V257.648C130.494 256.16 129.118 255.664 127.838 255.28C126.734 254.944 125.71 254.64 125.71 253.856V253.824C125.71 253.136 126.334 252.624 127.31 252.624C128.11 252.624 128.99 252.928 129.758 253.424L130.318 252.496C129.47 251.936 128.35 251.584 127.342 251.584C125.71 251.584 124.526 252.528 124.526 253.952V253.984C124.526 255.504 125.966 255.952 127.262 256.32C128.35 256.624 129.326 256.944 129.326 257.776V257.808C129.326 258.608 128.606 259.12 127.614 259.12C126.638 259.12 125.646 258.736 124.75 258.064L124.126 258.944C125.054 259.696 126.366 260.16 127.549 260.16ZM132.814 249.92H134.222V248.56H132.814V249.92ZM132.894 260H134.126V251.728H132.894V260ZM140.713 260.192C142.265 260.192 143.257 259.52 144.089 258.592L143.305 257.856C142.649 258.56 141.833 259.088 140.777 259.088C139.049 259.088 137.737 257.664 137.737 255.872V255.84C137.737 254.064 139.017 252.64 140.697 252.64C141.817 252.64 142.553 253.2 143.209 253.888L144.025 253.024C143.257 252.208 142.281 251.552 140.713 251.552C138.297 251.552 136.473 253.536 136.473 255.872V255.904C136.473 258.224 138.297 260.192 140.713 260.192ZM154.539 260.192C156.107 260.192 157.115 259.568 157.947 258.64L157.179 257.952C156.507 258.656 155.707 259.12 154.571 259.12C153.099 259.12 151.835 258.112 151.659 256.32H158.219C158.235 256.176 158.235 256.08 158.235 255.92C158.235 253.504 156.827 251.552 154.379 251.552C152.091 251.552 150.411 253.472 150.411 255.856V255.888C150.411 258.448 152.267 260.192 154.539 260.192ZM151.659 255.408C151.819 253.792 152.907 252.592 154.347 252.592C155.995 252.592 156.859 253.904 156.987 255.408H151.659ZM160.856 260H162.088V252.816H164.696V251.76H162.072V251.088C162.072 249.904 162.552 249.328 163.512 249.328C163.928 249.328 164.264 249.408 164.712 249.536V248.464C164.312 248.32 163.928 248.256 163.352 248.256C162.6 248.256 161.992 248.48 161.576 248.896C161.112 249.36 160.856 250.08 160.856 251.024V251.744H159.72V252.816H160.856V260ZM166.744 260H167.96V252.816H170.568V251.76H167.96V251.088C167.96 249.904 168.424 249.328 169.4 249.328C169.816 249.328 170.152 249.408 170.584 249.536V248.464C170.2 248.32 169.8 248.256 169.224 248.256C168.472 248.256 167.88 248.48 167.448 248.896C166.984 249.36 166.744 250.08 166.744 251.024V251.744H165.608V252.816H166.744V260ZM175.617 260.192C177.185 260.192 178.193 259.568 179.025 258.64L178.257 257.952C177.585 258.656 176.785 259.12 175.649 259.12C174.177 259.12 172.913 258.112 172.737 256.32H179.297C179.313 256.176 179.313 256.08 179.313 255.92C179.313 253.504 177.905 251.552 175.457 251.552C173.169 251.552 171.489 253.472 171.489 255.856V255.888C171.489 258.448 173.345 260.192 175.617 260.192ZM172.737 255.408C172.897 253.792 173.985 252.592 175.425 252.592C177.073 252.592 177.937 253.904 178.065 255.408H172.737ZM185.198 260.192C186.75 260.192 187.742 259.52 188.574 258.592L187.79 257.856C187.134 258.56 186.318 259.088 185.262 259.088C183.534 259.088 182.222 257.664 182.222 255.872V255.84C182.222 254.064 183.502 252.64 185.182 252.64C186.302 252.64 187.038 253.2 187.694 253.888L188.51 253.024C187.742 252.208 186.766 251.552 185.198 251.552C182.782 251.552 180.958 253.536 180.958 255.872V255.904C180.958 258.224 182.782 260.192 185.198 260.192ZM193.378 260.144C193.97 260.144 194.434 260.016 194.866 259.792V258.736C194.434 258.944 194.082 259.024 193.666 259.024C192.834 259.024 192.274 258.656 192.274 257.648V252.816H194.898V251.728H192.274V249.232H191.042V251.728H189.89V252.816H191.042V257.808C191.042 259.488 192.05 260.144 193.378 260.144ZM199.815 260.16C201.463 260.16 202.759 259.248 202.759 257.68V257.648C202.759 256.16 201.383 255.664 200.103 255.28C198.999 254.944 197.975 254.64 197.975 253.856V253.824C197.975 253.136 198.599 252.624 199.575 252.624C200.375 252.624 201.255 252.928 202.023 253.424L202.583 252.496C201.735 251.936 200.615 251.584 199.607 251.584C197.975 251.584 196.791 252.528 196.791 253.952V253.984C196.791 255.504 198.231 255.952 199.527 256.32C200.615 256.624 201.591 256.944 201.591 257.776V257.808C201.591 258.608 200.871 259.12 199.879 259.12C198.903 259.12 197.911 258.736 197.015 258.064L196.391 258.944C197.319 259.696 198.631 260.16 199.815 260.16ZM212.037 260.064H213.125L215.365 253.536L217.589 260.064H218.661L221.573 251.728H220.293L218.117 258.368L215.877 251.696H214.853L212.629 258.368L210.453 251.728H209.141L212.037 260.064ZM223.626 260H224.858V255.264C224.858 253.712 225.914 252.672 227.338 252.672C228.794 252.672 229.626 253.632 229.626 255.168V260H230.858V254.864C230.858 252.896 229.69 251.552 227.69 251.552C226.266 251.552 225.402 252.272 224.858 253.168V248.32H223.626V260ZM233.517 249.92H234.925V248.56H233.517V249.92ZM233.597 260H234.829V251.728H233.597V260ZM241.417 260.192C242.969 260.192 243.961 259.52 244.793 258.592L244.009 257.856C243.353 258.56 242.537 259.088 241.481 259.088C239.753 259.088 238.441 257.664 238.441 255.872V255.84C238.441 254.064 239.721 252.64 241.401 252.64C242.521 252.64 243.257 253.2 243.913 253.888L244.729 253.024C243.961 252.208 242.985 251.552 241.417 251.552C239.001 251.552 237.177 253.536 237.177 255.872V255.904C237.177 258.224 239.001 260.192 241.417 260.192ZM246.829 260H248.061V255.264C248.061 253.712 249.117 252.672 250.541 252.672C251.997 252.672 252.829 253.632 252.829 255.168V260H254.061V254.864C254.061 252.896 252.893 251.552 250.893 251.552C249.469 251.552 248.605 252.272 248.061 253.168V248.32H246.829V260ZM261.597 260H262.829V248.32H261.597V260ZM268.153 260.176C269.609 260.176 270.569 259.504 271.145 258.752V260H272.329V254.944C272.329 253.888 272.041 253.088 271.481 252.528C270.873 251.92 269.977 251.616 268.809 251.616C267.609 251.616 266.713 251.888 265.801 252.304L266.169 253.312C266.937 252.96 267.705 252.704 268.681 252.704C270.233 252.704 271.145 253.472 271.145 254.96V255.248C270.409 255.04 269.657 254.896 268.601 254.896C266.505 254.896 265.065 255.824 265.065 257.568V257.6C265.065 259.296 266.617 260.176 268.153 260.176ZM268.393 259.2C267.273 259.2 266.312 258.592 266.312 257.552V257.52C266.312 256.48 267.177 255.808 268.729 255.808C269.737 255.808 270.553 255.984 271.161 256.16V256.96C271.161 258.272 269.913 259.2 268.393 259.2ZM277.69 260.16C279.338 260.16 280.634 259.248 280.634 257.68V257.648C280.634 256.16 279.258 255.664 277.978 255.28C276.874 254.944 275.85 254.64 275.85 253.856V253.824C275.85 253.136 276.474 252.624 277.45 252.624C278.25 252.624 279.13 252.928 279.898 253.424L280.458 252.496C279.61 251.936 278.49 251.584 277.482 251.584C275.85 251.584 274.666 252.528 274.666 253.952V253.984C274.666 255.504 276.106 255.952 277.402 256.32C278.49 256.624 279.466 256.944 279.466 257.776V257.808C279.466 258.608 278.746 259.12 277.754 259.12C276.778 259.12 275.786 258.736 274.89 258.064L274.266 258.944C275.194 259.696 276.506 260.16 277.69 260.16ZM285.535 260.144C286.127 260.144 286.591 260.016 287.023 259.792V258.736C286.591 258.944 286.239 259.024 285.823 259.024C284.991 259.024 284.431 258.656 284.431 257.648V252.816H287.055V251.728H284.431V249.232H283.199V251.728H282.047V252.816H283.199V257.808C283.199 259.488 284.207 260.144 285.535 260.144ZM297.648 260.192C299.216 260.192 300.224 259.568 301.056 258.64L300.288 257.952C299.616 258.656 298.816 259.12 297.68 259.12C296.208 259.12 294.944 258.112 294.768 256.32H301.328C301.344 256.176 301.344 256.08 301.344 255.92C301.344 253.504 299.936 251.552 297.488 251.552C295.2 251.552 293.52 253.472 293.52 255.856V255.888C293.52 258.448 295.376 260.192 297.648 260.192ZM294.768 255.408C294.928 253.792 296.016 252.592 297.456 252.592C299.104 252.592 299.968 253.904 300.096 255.408H294.768ZM305.863 260.064H306.951L310.551 251.728H309.223L306.423 258.592L303.639 251.728H302.279L305.863 260.064ZM315.617 260.192C317.185 260.192 318.193 259.568 319.025 258.64L318.257 257.952C317.585 258.656 316.785 259.12 315.649 259.12C314.177 259.12 312.913 258.112 312.737 256.32H319.297C319.313 256.176 319.313 256.08 319.313 255.92C319.313 253.504 317.905 251.552 315.457 251.552C313.169 251.552 311.489 253.472 311.489 255.856V255.888C311.489 258.448 313.345 260.192 315.617 260.192ZM312.737 255.408C312.897 253.792 313.985 252.592 315.425 252.592C317.073 252.592 317.937 253.904 318.065 255.408H312.737ZM321.47 260H322.702V255.264C322.702 253.712 323.758 252.672 325.182 252.672C326.638 252.672 327.47 253.632 327.47 255.168V260H328.702V254.864C328.702 252.896 327.534 251.552 325.534 251.552C324.11 251.552 323.246 252.272 322.702 253.168V251.728H321.47V260ZM31.1525 279.176C32.6085 279.176 33.5685 278.504 34.1445 277.752V279H35.3285V273.944C35.3285 272.888 35.0405 272.088 34.4805 271.528C33.8725 270.92 32.9765 270.616 31.8085 270.616C30.6085 270.616 29.7125 270.888 28.8005 271.304L29.1685 272.312C29.9365 271.96 30.7045 271.704 31.6805 271.704C33.2325 271.704 34.1445 272.472 34.1445 273.96V274.248C33.4085 274.04 32.6565 273.896 31.6005 273.896C29.5045 273.896 28.0645 274.824 28.0645 276.568V276.6C28.0645 278.296 29.6165 279.176 31.1525 279.176ZM31.3925 278.2C30.2725 278.2 29.3125 277.592 29.3125 276.552V276.52C29.3125 275.48 30.1765 274.808 31.7285 274.808C32.7365 274.808 33.5525 274.984 34.1605 275.16V275.96C34.1605 277.272 32.9125 278.2 31.3925 278.2ZM38.4181 279H39.6501V271.816H42.2581V270.76H39.6341V270.088C39.6341 268.904 40.1141 268.328 41.0741 268.328C41.4901 268.328 41.8261 268.408 42.2741 268.536V267.464C41.8741 267.32 41.4901 267.256 40.9141 267.256C40.1621 267.256 39.5541 267.48 39.1381 267.896C38.6741 268.36 38.4181 269.08 38.4181 270.024V270.744H37.2821V271.816H38.4181V279ZM46.5971 279.144C47.1891 279.144 47.6531 279.016 48.0851 278.792V277.736C47.6531 277.944 47.3011 278.024 46.8851 278.024C46.0531 278.024 45.4931 277.656 45.4931 276.648V271.816H48.1171V270.728H45.4931V268.232H44.2611V270.728H43.1091V271.816H44.2611V276.808C44.2611 278.488 45.2691 279.144 46.5971 279.144ZM53.6795 279.192C55.2475 279.192 56.2555 278.568 57.0875 277.64L56.3195 276.952C55.6475 277.656 54.8475 278.12 53.7115 278.12C52.2395 278.12 50.9755 277.112 50.7995 275.32H57.3595C57.3755 275.176 57.3755 275.08 57.3755 274.92C57.3755 272.504 55.9675 270.552 53.5195 270.552C51.2315 270.552 49.5515 272.472 49.5515 274.856V274.888C49.5515 277.448 51.4075 279.192 53.6795 279.192ZM50.7995 274.408C50.9595 272.792 52.0475 271.592 53.4875 271.592C55.1355 271.592 55.9995 272.904 56.1275 274.408H50.7995ZM59.5323 279H60.7643V275.704C60.7643 273.208 62.2363 271.912 64.0443 271.912H64.1403V270.584C62.5723 270.52 61.3723 271.512 60.7643 272.888V270.728H59.5323V279ZM73.5815 279.144C74.1735 279.144 74.6375 279.016 75.0695 278.792V277.736C74.6375 277.944 74.2855 278.024 73.8695 278.024C73.0375 278.024 72.4775 277.656 72.4775 276.648V271.816H75.1015V270.728H72.4775V268.232H71.2455V270.728H70.0935V271.816H71.2455V276.808C71.2455 278.488 72.2535 279.144 73.5815 279.144ZM77.2823 279H78.5143V274.264C78.5143 272.712 79.5703 271.672 80.9943 271.672C82.4503 271.672 83.2823 272.632 83.2823 274.168V279H84.5143V273.864C84.5143 271.896 83.3463 270.552 81.3463 270.552C79.9223 270.552 79.0583 271.272 78.5143 272.168V267.32H77.2823V279ZM90.7576 279.192C92.3256 279.192 93.3336 278.568 94.1656 277.64L93.3976 276.952C92.7256 277.656 91.9256 278.12 90.7896 278.12C89.3176 278.12 88.0536 277.112 87.8776 275.32H94.4376C94.4536 275.176 94.4536 275.08 94.4536 274.92C94.4536 272.504 93.0456 270.552 90.5976 270.552C88.3096 270.552 86.6296 272.472 86.6296 274.856V274.888C86.6296 277.448 88.4856 279.192 90.7576 279.192ZM87.8776 274.408C88.0376 272.792 89.1256 271.592 90.5656 271.592C92.2136 271.592 93.0776 272.904 93.2056 274.408H87.8776ZM103.599 279.064H104.687L106.927 272.536L109.151 279.064H110.223L113.135 270.728H111.855L109.679 277.368L107.439 270.696H106.415L104.191 277.368L102.015 270.728H100.703L103.599 279.064ZM115.189 279H116.421V275.704C116.421 273.208 117.893 271.912 119.701 271.912H119.797V270.584C118.229 270.52 117.029 271.512 116.421 272.888V270.728H115.189V279ZM123.731 279.176C125.187 279.176 126.147 278.504 126.723 277.752V279H127.907V273.944C127.907 272.888 127.619 272.088 127.059 271.528C126.451 270.92 125.555 270.616 124.387 270.616C123.187 270.616 122.291 270.888 121.379 271.304L121.747 272.312C122.515 271.96 123.283 271.704 124.259 271.704C125.811 271.704 126.723 272.472 126.723 273.96V274.248C125.987 274.04 125.235 273.896 124.179 273.896C122.083 273.896 120.643 274.824 120.643 276.568V276.6C120.643 278.296 122.195 279.176 123.731 279.176ZM123.971 278.2C122.851 278.2 121.891 277.592 121.891 276.552V276.52C121.891 275.48 122.755 274.808 124.307 274.808C125.315 274.808 126.131 274.984 126.739 275.16V275.96C126.739 277.272 125.491 278.2 123.971 278.2ZM130.532 281.56H131.764V277.416C132.404 278.344 133.396 279.176 134.932 279.176C136.932 279.176 138.884 277.576 138.884 274.872V274.84C138.884 272.12 136.916 270.552 134.932 270.552C133.412 270.552 132.436 271.4 131.764 272.392V270.728H130.532V281.56ZM134.708 278.072C133.172 278.072 131.716 276.792 131.716 274.872V274.84C131.716 272.952 133.172 271.656 134.708 271.656C136.276 271.656 137.62 272.904 137.62 274.856V274.888C137.62 276.888 136.308 278.072 134.708 278.072ZM145.954 279H147.186V274.264C147.186 272.712 148.242 271.672 149.666 271.672C151.122 271.672 151.954 272.632 151.954 274.168V279H153.186V273.864C153.186 271.896 152.018 270.552 150.018 270.552C148.594 270.552 147.73 271.272 147.186 272.168V267.32H145.954V279ZM158.278 279.176C159.734 279.176 160.694 278.504 161.27 277.752V279H162.454V273.944C162.454 272.888 162.166 272.088 161.606 271.528C160.998 270.92 160.102 270.616 158.934 270.616C157.734 270.616 156.838 270.888 155.926 271.304L156.294 272.312C157.062 271.96 157.83 271.704 158.806 271.704C160.358 271.704 161.27 272.472 161.27 273.96V274.248C160.534 274.04 159.782 273.896 158.726 273.896C156.63 273.896 155.19 274.824 155.19 276.568V276.6C155.19 278.296 156.742 279.176 158.278 279.176ZM158.518 278.2C157.398 278.2 156.438 277.592 156.438 276.552V276.52C156.438 275.48 157.302 274.808 158.854 274.808C159.862 274.808 160.678 274.984 161.286 275.16V275.96C161.286 277.272 160.038 278.2 158.518 278.2ZM167.815 279.16C169.463 279.16 170.759 278.248 170.759 276.68V276.648C170.759 275.16 169.383 274.664 168.103 274.28C166.999 273.944 165.975 273.64 165.975 272.856V272.824C165.975 272.136 166.599 271.624 167.575 271.624C168.375 271.624 169.255 271.928 170.023 272.424L170.583 271.496C169.735 270.936 168.615 270.584 167.607 270.584C165.975 270.584 164.791 271.528 164.791 272.952V272.984C164.791 274.504 166.231 274.952 167.527 275.32C168.615 275.624 169.591 275.944 169.591 276.776V276.808C169.591 277.608 168.871 278.12 167.879 278.12C166.903 278.12 165.911 277.736 165.015 277.064L164.391 277.944C165.319 278.696 166.631 279.16 167.815 279.16ZM182.245 279.176C184.245 279.176 186.197 277.576 186.197 274.872V274.84C186.197 272.12 184.229 270.552 182.245 270.552C180.725 270.552 179.749 271.4 179.077 272.392V267.32H177.845V279H179.077V277.416C179.717 278.344 180.709 279.176 182.245 279.176ZM182.021 278.072C180.485 278.072 179.029 276.792 179.029 274.872V274.84C179.029 272.952 180.485 271.656 182.021 271.656C183.589 271.656 184.933 272.904 184.933 274.856V274.888C184.933 276.888 183.621 278.072 182.021 278.072ZM192.086 279.192C193.654 279.192 194.662 278.568 195.494 277.64L194.726 276.952C194.054 277.656 193.254 278.12 192.118 278.12C190.646 278.12 189.382 277.112 189.206 275.32H195.766C195.782 275.176 195.782 275.08 195.782 274.92C195.782 272.504 194.374 270.552 191.926 270.552C189.638 270.552 187.958 272.472 187.958 274.856V274.888C187.958 277.448 189.814 279.192 192.086 279.192ZM189.206 274.408C189.366 272.792 190.454 271.592 191.894 271.592C193.542 271.592 194.406 272.904 194.534 274.408H189.206ZM201.555 279.192C203.123 279.192 204.131 278.568 204.963 277.64L204.195 276.952C203.523 277.656 202.723 278.12 201.587 278.12C200.115 278.12 198.851 277.112 198.674 275.32H205.235C205.251 275.176 205.251 275.08 205.251 274.92C205.251 272.504 203.843 270.552 201.395 270.552C199.107 270.552 197.427 272.472 197.427 274.856V274.888C197.427 277.448 199.283 279.192 201.555 279.192ZM198.674 274.408C198.835 272.792 199.923 271.592 201.363 271.592C203.011 271.592 203.875 272.904 204.003 274.408H198.674ZM207.407 279H208.639V274.264C208.639 272.712 209.695 271.672 211.119 271.672C212.575 271.672 213.407 272.632 213.407 274.168V279H214.639V273.864C214.639 271.896 213.471 270.552 211.471 270.552C210.047 270.552 209.183 271.272 208.639 272.168V270.728H207.407V279ZM222.064 279H223.296V275.704C223.296 273.208 224.768 271.912 226.576 271.912H226.672V270.584C225.104 270.52 223.904 271.512 223.296 272.888V270.728H222.064V279ZM231.805 279.192C233.373 279.192 234.381 278.568 235.213 277.64L234.445 276.952C233.773 277.656 232.973 278.12 231.837 278.12C230.365 278.12 229.101 277.112 228.924 275.32H235.485C235.501 275.176 235.501 275.08 235.501 274.92C235.501 272.504 234.093 270.552 231.645 270.552C229.357 270.552 227.677 272.472 227.677 274.856V274.888C227.677 277.448 229.533 279.192 231.805 279.192ZM228.924 274.408C229.085 272.792 230.173 271.592 231.613 271.592C233.261 271.592 234.125 272.904 234.253 274.408H228.924ZM237.657 279H238.889V274.28C238.889 272.76 239.881 271.672 241.193 271.672C242.505 271.672 243.321 272.584 243.321 274.136V279H244.553V274.232C244.553 272.6 245.577 271.672 246.825 271.672C248.169 271.672 248.969 272.568 248.969 274.168V279H250.201V273.88C250.201 271.832 249.033 270.552 247.129 270.552C245.689 270.552 244.809 271.288 244.217 272.2C243.769 271.272 242.905 270.552 241.561 270.552C240.169 270.552 239.433 271.304 238.889 272.12V270.728H237.657V279ZM256.652 279.192C259.148 279.192 260.988 277.208 260.988 274.872V274.84C260.988 272.504 259.164 270.552 256.684 270.552C254.188 270.552 252.364 272.536 252.364 274.872V274.904C252.364 277.24 254.172 279.192 256.652 279.192ZM256.684 278.088C254.94 278.088 253.628 276.648 253.628 274.872V274.84C253.628 273.096 254.86 271.64 256.652 271.64C258.396 271.64 259.724 273.096 259.724 274.872V274.904C259.724 276.648 258.476 278.088 256.684 278.088ZM265.503 279.064H266.591L270.191 270.728H268.863L266.063 277.592L263.279 270.728H261.919L265.503 279.064ZM275.258 279.192C276.826 279.192 277.834 278.568 278.666 277.64L277.898 276.952C277.226 277.656 276.426 278.12 275.29 278.12C273.818 278.12 272.554 277.112 272.378 275.32H278.938C278.954 275.176 278.954 275.08 278.954 274.92C278.954 272.504 277.546 270.552 275.098 270.552C272.81 270.552 271.13 272.472 271.13 274.856V274.888C271.13 277.448 272.986 279.192 275.258 279.192ZM272.378 274.408C272.538 272.792 273.626 271.592 275.066 271.592C276.714 271.592 277.578 272.904 277.706 274.408H272.378ZM284.582 279.176C286.102 279.176 287.078 278.328 287.75 277.336V279H288.982V267.32H287.75V272.312C287.11 271.384 286.118 270.552 284.582 270.552C282.598 270.552 280.63 272.152 280.63 274.856V274.888C280.63 277.608 282.598 279.176 284.582 279.176ZM284.806 278.072C283.254 278.072 281.894 276.824 281.894 274.872V274.84C281.894 272.84 283.206 271.656 284.806 271.656C286.342 271.656 287.798 272.936 287.798 274.84V274.872C287.798 276.776 286.342 278.072 284.806 278.072ZM291.591 279H293.063V277.32H291.591V279ZM299.702 279H300.998L302.326 276.04H308.422L309.734 279H311.094L305.99 267.72H304.806L299.702 279ZM302.822 274.888L305.382 269.192L307.926 274.888H302.822ZM315.831 279.16C317.479 279.16 318.775 278.248 318.775 276.68V276.648C318.775 275.16 317.399 274.664 316.119 274.28C315.015 273.944 313.991 273.64 313.991 272.856V272.824C313.991 272.136 314.615 271.624 315.591 271.624C316.391 271.624 317.271 271.928 318.039 272.424L318.599 271.496C317.751 270.936 316.631 270.584 315.623 270.584C313.991 270.584 312.807 271.528 312.807 272.952V272.984C312.807 274.504 314.247 274.952 315.543 275.32C316.631 275.624 317.607 275.944 317.607 276.776V276.808C317.607 277.608 316.887 278.12 315.895 278.12C314.919 278.12 313.927 277.736 313.031 277.064L312.407 277.944C313.335 278.696 314.647 279.16 315.831 279.16ZM18.8526 298H20.0846V293.28C20.0846 291.76 21.0766 290.672 22.3886 290.672C23.7006 290.672 24.5166 291.584 24.5166 293.136V298H25.7486V293.232C25.7486 291.6 26.7726 290.672 28.0206 290.672C29.3646 290.672 30.1646 291.568 30.1646 293.168V298H31.3966V292.88C31.3966 290.832 30.2286 289.552 28.3246 289.552C26.8846 289.552 26.0046 290.288 25.4126 291.2C24.9646 290.272 24.1006 289.552 22.7566 289.552C21.3646 289.552 20.6286 290.304 20.0846 291.12V289.728H18.8526V298ZM37.1113 298.176C38.5353 298.176 39.3833 297.456 39.9433 296.56V298H41.1593V289.728H39.9433V294.464C39.9433 296.016 38.8713 297.056 37.4633 297.056C36.0073 297.056 35.1753 296.096 35.1753 294.56V289.728H33.9433V294.864C33.9433 296.832 35.1113 298.176 37.1113 298.176ZM46.6667 298.16C48.3147 298.16 49.6107 297.248 49.6107 295.68V295.648C49.6107 294.16 48.2347 293.664 46.9547 293.28C45.8507 292.944 44.8267 292.64 44.8267 291.856V291.824C44.8267 291.136 45.4507 290.624 46.4267 290.624C47.2267 290.624 48.1067 290.928 48.8747 291.424L49.4347 290.496C48.5867 289.936 47.4667 289.584 46.4587 289.584C44.8267 289.584 43.6427 290.528 43.6427 291.952V291.984C43.6427 293.504 45.0827 293.952 46.3787 294.32C47.4667 294.624 48.4427 294.944 48.4427 295.776V295.808C48.4427 296.608 47.7227 297.12 46.7307 297.12C45.7547 297.12 44.7627 296.736 43.8667 296.064L43.2427 296.944C44.1707 297.696 45.4827 298.16 46.6667 298.16ZM55.6274 298.192C57.1794 298.192 58.1714 297.52 59.0034 296.592L58.2194 295.856C57.5634 296.56 56.7474 297.088 55.6914 297.088C53.9634 297.088 52.6514 295.664 52.6514 293.872V293.84C52.6514 292.064 53.9314 290.64 55.6114 290.64C56.7314 290.64 57.4674 291.2 58.1234 291.888L58.9394 291.024C58.1714 290.208 57.1954 289.552 55.6274 289.552C53.2114 289.552 51.3874 291.536 51.3874 293.872V293.904C51.3874 296.224 53.2114 298.192 55.6274 298.192ZM61.1521 298H62.3841V286.32H61.1521V298ZM68.8592 298.192C70.4272 298.192 71.4352 297.568 72.2672 296.64L71.4992 295.952C70.8272 296.656 70.0272 297.12 68.8912 297.12C67.4192 297.12 66.1552 296.112 65.9792 294.32H72.5392C72.5552 294.176 72.5552 294.08 72.5552 293.92C72.5552 291.504 71.1472 289.552 68.6992 289.552C66.4112 289.552 64.7312 291.472 64.7312 293.856V293.888C64.7312 296.448 66.5872 298.192 68.8592 298.192ZM65.9792 293.408C66.1392 291.792 67.2272 290.592 68.6672 290.592C70.3152 290.592 71.1792 291.904 71.3072 293.408H65.9792ZM77.4479 298.16C79.0959 298.16 80.3919 297.248 80.3919 295.68V295.648C80.3919 294.16 79.0159 293.664 77.7359 293.28C76.6319 292.944 75.6079 292.64 75.6079 291.856V291.824C75.6079 291.136 76.2319 290.624 77.2079 290.624C78.0079 290.624 78.8879 290.928 79.6559 291.424L80.2159 290.496C79.3679 289.936 78.2479 289.584 77.2399 289.584C75.6079 289.584 74.4239 290.528 74.4239 291.952V291.984C74.4239 293.504 75.8639 293.952 77.1599 294.32C78.2479 294.624 79.2239 294.944 79.2239 295.776V295.808C79.2239 296.608 78.5039 297.12 77.5119 297.12C76.5359 297.12 75.5439 296.736 74.6479 296.064L74.0239 296.944C74.9519 297.696 76.2639 298.16 77.4479 298.16ZM87.4776 298H88.7096V294.704C88.7096 292.208 90.1816 290.912 91.9896 290.912H92.0856V289.584C90.5176 289.52 89.3176 290.512 88.7096 291.888V289.728H87.4776V298ZM97.2186 298.192C98.7866 298.192 99.7946 297.568 100.627 296.64L99.8586 295.952C99.1866 296.656 98.3866 297.12 97.2506 297.12C95.7786 297.12 94.5146 296.112 94.3386 294.32H100.899C100.915 294.176 100.915 294.08 100.915 293.92C100.915 291.504 99.5066 289.552 97.0586 289.552C94.7706 289.552 93.0906 291.472 93.0906 293.856V293.888C93.0906 296.448 94.9466 298.192 97.2186 298.192ZM94.3386 293.408C94.4986 291.792 95.5866 290.592 97.0266 290.592C98.6746 290.592 99.5386 291.904 99.6666 293.408H94.3386ZM103.183 298H104.415V286.32H103.183V298ZM109.738 298.176C111.194 298.176 112.154 297.504 112.73 296.752V298H113.914V292.944C113.914 291.888 113.626 291.088 113.066 290.528C112.458 289.92 111.562 289.616 110.394 289.616C109.194 289.616 108.298 289.888 107.386 290.304L107.754 291.312C108.522 290.96 109.29 290.704 110.266 290.704C111.818 290.704 112.73 291.472 112.73 292.96V293.248C111.994 293.04 111.242 292.896 110.186 292.896C108.09 292.896 106.65 293.824 106.65 295.568V295.6C106.65 297.296 108.202 298.176 109.738 298.176ZM109.978 297.2C108.858 297.2 107.898 296.592 107.898 295.552V295.52C107.898 294.48 108.762 293.808 110.314 293.808C111.322 293.808 112.138 293.984 112.746 294.16V294.96C112.746 296.272 111.498 297.2 109.978 297.2ZM117.324 289.728H115.916L119.02 293.792L115.788 298H117.164L119.74 294.592L122.3 298H123.724L120.46 293.776L123.596 289.728H122.22L119.756 292.96L117.324 289.728ZM125.28 299.952C126.496 299.68 127.056 299.056 127.056 297.76V296.32H125.584V298H126.16C126.224 298.688 125.888 299.104 125.088 299.392L125.28 299.952ZM134.446 298H135.678V293.28C135.678 291.76 136.67 290.672 137.982 290.672C139.294 290.672 140.11 291.584 140.11 293.136V298H141.342V293.232C141.342 291.6 142.366 290.672 143.614 290.672C144.958 290.672 145.758 291.568 145.758 293.168V298H146.99V292.88C146.99 290.832 145.822 289.552 143.918 289.552C142.478 289.552 141.598 290.288 141.006 291.2C140.558 290.272 139.694 289.552 138.35 289.552C136.958 289.552 136.222 290.304 135.678 291.12V289.728H134.446V298ZM153.441 298.192C155.937 298.192 157.777 296.208 157.777 293.872V293.84C157.777 291.504 155.953 289.552 153.473 289.552C150.977 289.552 149.153 291.536 149.153 293.872V293.904C149.153 296.24 150.961 298.192 153.441 298.192ZM153.473 297.088C151.729 297.088 150.417 295.648 150.417 293.872V293.84C150.417 292.096 151.649 290.64 153.441 290.64C155.185 290.64 156.513 292.096 156.513 293.872V293.904C156.513 295.648 155.265 297.088 153.473 297.088ZM160.009 298H161.241V294.704C161.241 292.208 162.713 290.912 164.521 290.912H164.617V289.584C163.049 289.52 161.849 290.512 161.241 291.888V289.728H160.009V298ZM169.75 298.192C171.318 298.192 172.326 297.568 173.158 296.64L172.39 295.952C171.718 296.656 170.918 297.12 169.782 297.12C168.31 297.12 167.046 296.112 166.87 294.32H173.43C173.446 294.176 173.446 294.08 173.446 293.92C173.446 291.504 172.038 289.552 169.59 289.552C167.302 289.552 165.622 291.472 165.622 293.856V293.888C165.622 296.448 167.478 298.192 169.75 298.192ZM166.87 293.408C167.03 291.792 168.118 290.592 169.558 290.592C171.206 290.592 172.07 291.904 172.198 293.408H166.87ZM184.175 298.192C186.671 298.192 188.511 296.208 188.511 293.872V293.84C188.511 291.504 186.687 289.552 184.207 289.552C181.711 289.552 179.887 291.536 179.887 293.872V293.904C179.887 296.24 181.695 298.192 184.175 298.192ZM184.207 297.088C182.463 297.088 181.151 295.648 181.151 293.872V293.84C181.151 292.096 182.383 290.64 184.175 290.64C185.919 290.64 187.247 292.096 187.247 293.872V293.904C187.247 295.648 185.999 297.088 184.207 297.088ZM190.965 289.728H189.557L192.661 293.792L189.429 298H190.805L193.381 294.592L195.941 298H197.365L194.101 293.776L197.237 289.728H195.861L193.397 292.96L190.965 289.728ZM202.748 296.624L199.74 289.728H198.38L202.14 297.968C201.644 299.136 201.18 299.52 200.444 299.52C199.916 299.52 199.548 299.424 199.148 299.216L198.732 300.192C199.292 300.464 199.804 300.608 200.492 300.608C201.74 300.608 202.54 299.984 203.244 298.272L206.716 289.728H205.404L202.748 296.624ZM211.923 300.592C213.235 300.592 214.339 300.224 215.075 299.488C215.747 298.816 216.131 297.84 216.131 296.56V289.728H214.899V291.216C214.227 290.32 213.219 289.552 211.667 289.552C209.699 289.552 207.779 291.04 207.779 293.456V293.488C207.779 295.872 209.683 297.36 211.667 297.36C213.187 297.36 214.195 296.576 214.915 295.616V296.592C214.915 298.528 213.731 299.536 211.907 299.536C210.723 299.536 209.667 299.168 208.723 298.48L208.163 299.44C209.267 300.208 210.547 300.592 211.923 300.592ZM211.907 296.272C210.371 296.272 209.043 295.12 209.043 293.456V293.424C209.043 291.728 210.339 290.64 211.907 290.64C213.475 290.64 214.947 291.744 214.947 293.44V293.472C214.947 295.136 213.475 296.272 211.907 296.272ZM222.5 298.192C224.068 298.192 225.076 297.568 225.908 296.64L225.14 295.952C224.468 296.656 223.668 297.12 222.532 297.12C221.06 297.12 219.796 296.112 219.62 294.32H226.18C226.196 294.176 226.196 294.08 226.196 293.92C226.196 291.504 224.788 289.552 222.34 289.552C220.052 289.552 218.372 291.472 218.372 293.856V293.888C218.372 296.448 220.228 298.192 222.5 298.192ZM219.62 293.408C219.78 291.792 220.868 290.592 222.308 290.592C223.956 290.592 224.82 291.904 224.948 293.408H219.62ZM228.353 298H229.585V293.264C229.585 291.712 230.641 290.672 232.065 290.672C233.521 290.672 234.353 291.632 234.353 293.168V298H235.585V292.864C235.585 290.896 234.417 289.552 232.417 289.552C230.993 289.552 230.129 290.272 229.585 291.168V289.728H228.353V298ZM243.041 287.92H244.449V286.56H243.041V287.92ZM243.121 298H244.353V289.728H243.121V298ZM249.948 298.16C251.596 298.16 252.892 297.248 252.892 295.68V295.648C252.892 294.16 251.516 293.664 250.236 293.28C249.132 292.944 248.108 292.64 248.108 291.856V291.824C248.108 291.136 248.732 290.624 249.708 290.624C250.508 290.624 251.388 290.928 252.156 291.424L252.716 290.496C251.868 289.936 250.748 289.584 249.74 289.584C248.108 289.584 246.924 290.528 246.924 291.952V291.984C246.924 293.504 248.364 293.952 249.66 294.32C250.748 294.624 251.724 294.944 251.724 295.776V295.808C251.724 296.608 251.004 297.12 250.012 297.12C249.036 297.12 248.044 296.736 247.148 296.064L246.524 296.944C247.452 297.696 248.764 298.16 249.948 298.16ZM259.978 300.56H261.21V296.416C261.85 297.344 262.842 298.176 264.378 298.176C266.378 298.176 268.33 296.576 268.33 293.872V293.84C268.33 291.12 266.362 289.552 264.378 289.552C262.858 289.552 261.882 290.4 261.21 291.392V289.728H259.978V300.56ZM264.154 297.072C262.618 297.072 261.162 295.792 261.162 293.872V293.84C261.162 291.952 262.618 290.656 264.154 290.656C265.722 290.656 267.066 291.904 267.066 293.856V293.888C267.066 295.888 265.754 297.072 264.154 297.072ZM270.603 298H271.835V294.704C271.835 292.208 273.307 290.912 275.115 290.912H275.211V289.584C273.643 289.52 272.443 290.512 271.835 291.888V289.728H270.603V298ZM280.504 298.192C283 298.192 284.84 296.208 284.84 293.872V293.84C284.84 291.504 283.016 289.552 280.536 289.552C278.04 289.552 276.216 291.536 276.216 293.872V293.904C276.216 296.24 278.024 298.192 280.504 298.192ZM280.536 297.088C278.792 297.088 277.48 295.648 277.48 293.872V293.84C277.48 292.096 278.712 290.64 280.504 290.64C282.248 290.64 283.576 292.096 283.576 293.872V293.904C283.576 295.648 282.328 297.088 280.536 297.088ZM289.355 298.064H290.443L294.043 289.728H292.715L289.915 296.592L287.131 289.728H285.771L289.355 298.064ZM296.01 287.92H297.418V286.56H296.01V287.92ZM296.09 298H297.322V289.728H296.09V298ZM303.653 298.176C305.173 298.176 306.149 297.328 306.821 296.336V298H308.053V286.32H306.821V291.312C306.181 290.384 305.189 289.552 303.653 289.552C301.669 289.552 299.701 291.152 299.701 293.856V293.888C299.701 296.608 301.669 298.176 303.653 298.176ZM303.877 297.072C302.325 297.072 300.965 295.824 300.965 293.872V293.84C300.965 291.84 302.277 290.656 303.877 290.656C305.413 290.656 306.869 291.936 306.869 293.84V293.872C306.869 295.776 305.413 297.072 303.877 297.072ZM314.422 298.192C315.99 298.192 316.998 297.568 317.83 296.64L317.062 295.952C316.39 296.656 315.59 297.12 314.454 297.12C312.982 297.12 311.718 296.112 311.542 294.32H318.102C318.118 294.176 318.118 294.08 318.118 293.92C318.118 291.504 316.71 289.552 314.262 289.552C311.974 289.552 310.294 291.472 310.294 293.856V293.888C310.294 296.448 312.15 298.192 314.422 298.192ZM311.542 293.408C311.702 291.792 312.79 290.592 314.23 290.592C315.878 290.592 316.742 291.904 316.87 293.408H311.542ZM323.746 298.176C325.266 298.176 326.242 297.328 326.914 296.336V298H328.146V286.32H326.914V291.312C326.274 290.384 325.282 289.552 323.746 289.552C321.762 289.552 319.794 291.152 319.794 293.856V293.888C319.794 296.608 321.762 298.176 323.746 298.176ZM323.97 297.072C322.418 297.072 321.058 295.824 321.058 293.872V293.84C321.058 291.84 322.37 290.656 323.97 290.656C325.506 290.656 326.962 291.936 326.962 293.84V293.872C326.962 295.776 325.506 297.072 323.97 297.072ZM40.3706 317.144C40.9626 317.144 41.4266 317.016 41.8586 316.792V315.736C41.4266 315.944 41.0746 316.024 40.6586 316.024C39.8266 316.024 39.2666 315.656 39.2666 314.648V309.816H41.8906V308.728H39.2666V306.232H38.0346V308.728H36.8826V309.816H38.0346V314.808C38.0346 316.488 39.0426 317.144 40.3706 317.144ZM47.6129 317.192C50.1089 317.192 51.9489 315.208 51.9489 312.872V312.84C51.9489 310.504 50.1249 308.552 47.6449 308.552C45.1489 308.552 43.3249 310.536 43.3249 312.872V312.904C43.3249 315.24 45.1329 317.192 47.6129 317.192ZM47.6449 316.088C45.9009 316.088 44.5889 314.648 44.5889 312.872V312.84C44.5889 311.096 45.8209 309.64 47.6129 309.64C49.3569 309.64 50.6849 311.096 50.6849 312.872V312.904C50.6849 314.648 49.4369 316.088 47.6449 316.088ZM61.7456 317.144C62.3376 317.144 62.8016 317.016 63.2336 316.792V315.736C62.8016 315.944 62.4496 316.024 62.0336 316.024C61.2016 316.024 60.6416 315.656 60.6416 314.648V309.816H63.2656V308.728H60.6416V306.232H59.4096V308.728H58.2576V309.816H59.4096V314.808C59.4096 316.488 60.4176 317.144 61.7456 317.144ZM65.4463 317H66.6783V312.264C66.6783 310.712 67.7343 309.672 69.1583 309.672C70.6143 309.672 71.4463 310.632 71.4463 312.168V317H72.6783V311.864C72.6783 309.896 71.5103 308.552 69.5103 308.552C68.0863 308.552 67.2223 309.272 66.6783 310.168V305.32H65.4463V317ZM78.9217 317.192C80.4897 317.192 81.4977 316.568 82.3297 315.64L81.5617 314.952C80.8897 315.656 80.0897 316.12 78.9537 316.12C77.4817 316.12 76.2177 315.112 76.0417 313.32H82.6017C82.6177 313.176 82.6177 313.08 82.6177 312.92C82.6177 310.504 81.2097 308.552 78.7617 308.552C76.4737 308.552 74.7937 310.472 74.7937 312.856V312.888C74.7937 315.448 76.6497 317.192 78.9217 317.192ZM76.0417 312.408C76.2017 310.792 77.2897 309.592 78.7297 309.592C80.3777 309.592 81.2417 310.904 81.3697 312.408H76.0417ZM93.0433 317.176C94.5633 317.176 95.5393 316.328 96.2113 315.336V317H97.4433V305.32H96.2113V310.312C95.5713 309.384 94.5793 308.552 93.0433 308.552C91.0593 308.552 89.0913 310.152 89.0913 312.856V312.888C89.0913 315.608 91.0593 317.176 93.0433 317.176ZM93.2673 316.072C91.7153 316.072 90.3553 314.824 90.3553 312.872V312.84C90.3553 310.84 91.6673 309.656 93.2673 309.656C94.8033 309.656 96.2593 310.936 96.2593 312.84V312.872C96.2593 314.776 94.8033 316.072 93.2673 316.072ZM102.66 317.176C104.116 317.176 105.076 316.504 105.652 315.752V317H106.836V311.944C106.836 310.888 106.548 310.088 105.988 309.528C105.38 308.92 104.484 308.616 103.316 308.616C102.116 308.616 101.22 308.888 100.308 309.304L100.676 310.312C101.444 309.96 102.212 309.704 103.188 309.704C104.74 309.704 105.652 310.472 105.652 311.96V312.248C104.916 312.04 104.164 311.896 103.108 311.896C101.012 311.896 99.5723 312.824 99.5723 314.568V314.6C99.5723 316.296 101.124 317.176 102.66 317.176ZM102.9 316.2C101.78 316.2 100.82 315.592 100.82 314.552V314.52C100.82 313.48 101.684 312.808 103.236 312.808C104.244 312.808 105.06 312.984 105.668 313.16V313.96C105.668 315.272 104.42 316.2 102.9 316.2ZM109.462 317H110.694V312.28C110.694 310.76 111.686 309.672 112.998 309.672C114.31 309.672 115.126 310.584 115.126 312.136V317H116.358V312.232C116.358 310.6 117.382 309.672 118.63 309.672C119.974 309.672 120.774 310.568 120.774 312.168V317H122.006V311.88C122.006 309.832 120.838 308.552 118.934 308.552C117.494 308.552 116.614 309.288 116.022 310.2C115.574 309.272 114.71 308.552 113.366 308.552C111.974 308.552 111.238 309.304 110.694 310.12V308.728H109.462V317ZM127.145 317.176C128.601 317.176 129.561 316.504 130.137 315.752V317H131.321V311.944C131.321 310.888 131.033 310.088 130.473 309.528C129.865 308.92 128.969 308.616 127.801 308.616C126.601 308.616 125.705 308.888 124.793 309.304L125.161 310.312C125.929 309.96 126.697 309.704 127.673 309.704C129.225 309.704 130.137 310.472 130.137 311.96V312.248C129.401 312.04 128.649 311.896 127.593 311.896C125.497 311.896 124.057 312.824 124.057 314.568V314.6C124.057 316.296 125.609 317.176 127.145 317.176ZM127.385 316.2C126.265 316.2 125.305 315.592 125.305 314.552V314.52C125.305 313.48 126.169 312.808 127.721 312.808C128.729 312.808 129.545 312.984 130.153 313.16V313.96C130.153 315.272 128.905 316.2 127.385 316.2ZM137.61 319.592C138.922 319.592 140.026 319.224 140.762 318.488C141.434 317.816 141.818 316.84 141.818 315.56V308.728H140.586V310.216C139.914 309.32 138.906 308.552 137.354 308.552C135.386 308.552 133.466 310.04 133.466 312.456V312.488C133.466 314.872 135.37 316.36 137.354 316.36C138.874 316.36 139.882 315.576 140.602 314.616V315.592C140.602 317.528 139.418 318.536 137.594 318.536C136.41 318.536 135.354 318.168 134.41 317.48L133.85 318.44C134.954 319.208 136.234 319.592 137.61 319.592ZM137.594 315.272C136.058 315.272 134.73 314.12 134.73 312.456V312.424C134.73 310.728 136.026 309.64 137.594 309.64C139.162 309.64 140.634 310.744 140.634 312.44V312.472C140.634 314.136 139.162 315.272 137.594 315.272ZM148.187 317.192C149.755 317.192 150.763 316.568 151.595 315.64L150.827 314.952C150.155 315.656 149.355 316.12 148.219 316.12C146.747 316.12 145.483 315.112 145.307 313.32H151.867C151.883 313.176 151.883 313.08 151.883 312.92C151.883 310.504 150.475 308.552 148.027 308.552C145.739 308.552 144.059 310.472 144.059 312.856V312.888C144.059 315.448 145.915 317.192 148.187 317.192ZM145.307 312.408C145.467 310.792 146.555 309.592 147.995 309.592C149.643 309.592 150.507 310.904 150.635 312.408H145.307ZM157.512 317.176C159.032 317.176 160.008 316.328 160.68 315.336V317H161.912V305.32H160.68V310.312C160.04 309.384 159.048 308.552 157.512 308.552C155.528 308.552 153.56 310.152 153.56 312.856V312.888C153.56 315.608 155.528 317.176 157.512 317.176ZM157.736 316.072C156.184 316.072 154.824 314.824 154.824 312.872V312.84C154.824 310.84 156.136 309.656 157.736 309.656C159.272 309.656 160.728 310.936 160.728 312.84V312.872C160.728 314.776 159.272 316.072 157.736 316.072ZM172.23 317.144C172.822 317.144 173.286 317.016 173.718 316.792V315.736C173.286 315.944 172.934 316.024 172.518 316.024C171.686 316.024 171.126 315.656 171.126 314.648V309.816H173.75V308.728H171.126V306.232H169.894V308.728H168.742V309.816H169.894V314.808C169.894 316.488 170.902 317.144 172.23 317.144ZM175.963 306.92H177.371V305.56H175.963V306.92ZM176.043 317H177.275V308.728H176.043V317ZM182.87 317.16C184.518 317.16 185.814 316.248 185.814 314.68V314.648C185.814 313.16 184.438 312.664 183.158 312.28C182.054 311.944 181.03 311.64 181.03 310.856V310.824C181.03 310.136 181.654 309.624 182.63 309.624C183.43 309.624 184.31 309.928 185.078 310.424L185.638 309.496C184.79 308.936 183.67 308.584 182.662 308.584C181.03 308.584 179.846 309.528 179.846 310.952V310.984C179.846 312.504 181.286 312.952 182.582 313.32C183.67 313.624 184.646 313.944 184.646 314.776V314.808C184.646 315.608 183.926 316.12 182.934 316.12C181.958 316.12 180.966 315.736 180.07 315.064L179.446 315.944C180.374 316.696 181.686 317.16 182.87 317.16ZM190.682 317.16C192.33 317.16 193.626 316.248 193.626 314.68V314.648C193.626 313.16 192.25 312.664 190.97 312.28C189.866 311.944 188.842 311.64 188.842 310.856V310.824C188.842 310.136 189.466 309.624 190.442 309.624C191.242 309.624 192.122 309.928 192.89 310.424L193.45 309.496C192.602 308.936 191.482 308.584 190.474 308.584C188.842 308.584 187.658 309.528 187.658 310.952V310.984C187.658 312.504 189.098 312.952 190.394 313.32C191.482 313.624 192.458 313.944 192.458 314.776V314.808C192.458 315.608 191.738 316.12 190.746 316.12C189.77 316.12 188.778 315.736 187.882 315.064L187.258 315.944C188.186 316.696 189.498 317.16 190.682 317.16ZM198.955 317.176C200.379 317.176 201.227 316.456 201.787 315.56V317H203.003V308.728H201.787V313.464C201.787 315.016 200.715 316.056 199.307 316.056C197.851 316.056 197.019 315.096 197.019 313.56V308.728H195.787V313.864C195.787 315.832 196.955 317.176 198.955 317.176ZM209.39 317.192C210.958 317.192 211.966 316.568 212.798 315.64L212.03 314.952C211.358 315.656 210.558 316.12 209.422 316.12C207.95 316.12 206.686 315.112 206.51 313.32H213.07C213.086 313.176 213.086 313.08 213.086 312.92C213.086 310.504 211.678 308.552 209.23 308.552C206.942 308.552 205.262 310.472 205.262 312.856V312.888C205.262 315.448 207.118 317.192 209.39 317.192ZM206.51 312.408C206.67 310.792 207.758 309.592 209.198 309.592C210.846 309.592 211.71 310.904 211.838 312.408H206.51ZM217.979 317.16C219.627 317.16 220.923 316.248 220.923 314.68V314.648C220.923 313.16 219.547 312.664 218.267 312.28C217.163 311.944 216.139 311.64 216.139 310.856V310.824C216.139 310.136 216.763 309.624 217.739 309.624C218.539 309.624 219.419 309.928 220.187 310.424L220.747 309.496C219.899 308.936 218.779 308.584 217.771 308.584C216.139 308.584 214.955 309.528 214.955 310.952V310.984C214.955 312.504 216.395 312.952 217.691 313.32C218.779 313.624 219.755 313.944 219.755 314.776V314.808C219.755 315.608 219.035 316.12 218.043 316.12C217.067 316.12 216.075 315.736 215.179 315.064L214.555 315.944C215.483 316.696 216.795 317.16 217.979 317.16ZM222.764 318.952C223.98 318.68 224.54 318.056 224.54 316.76V315.32H223.068V317H223.644C223.708 317.688 223.372 318.104 222.572 318.392L222.764 318.952ZM231.931 317H233.163V312.264C233.163 310.712 234.219 309.672 235.643 309.672C237.099 309.672 237.931 310.632 237.931 312.168V317H239.163V311.864C239.163 309.896 237.995 308.552 235.995 308.552C234.571 308.552 233.707 309.272 233.163 310.168V305.32H231.931V317ZM245.406 317.192C246.974 317.192 247.982 316.568 248.814 315.64L248.046 314.952C247.374 315.656 246.574 316.12 245.438 316.12C243.966 316.12 242.702 315.112 242.526 313.32H249.086C249.102 313.176 249.102 313.08 249.102 312.92C249.102 310.504 247.694 308.552 245.246 308.552C242.958 308.552 241.278 310.472 241.278 312.856V312.888C241.278 315.448 243.134 317.192 245.406 317.192ZM242.526 312.408C242.686 310.792 243.774 309.592 245.214 309.592C246.862 309.592 247.726 310.904 247.854 312.408H242.526ZM251.371 317H252.603V305.32H251.371V317ZM255.462 319.56H256.694V315.416C257.334 316.344 258.326 317.176 259.862 317.176C261.862 317.176 263.814 315.576 263.814 312.872V312.84C263.814 310.12 261.846 308.552 259.862 308.552C258.342 308.552 257.366 309.4 256.694 310.392V308.728H255.462V319.56ZM259.638 316.072C258.102 316.072 256.646 314.792 256.646 312.872V312.84C256.646 310.952 258.102 309.656 259.638 309.656C261.206 309.656 262.55 310.904 262.55 312.856V312.888C262.55 314.888 261.238 316.072 259.638 316.072ZM266.119 306.92H267.527V305.56H266.119V306.92ZM266.199 317H267.431V308.728H266.199V317ZM270.29 317H271.522V312.264C271.522 310.712 272.578 309.672 274.002 309.672C275.458 309.672 276.29 310.632 276.29 312.168V317H277.522V311.864C277.522 309.896 276.354 308.552 274.354 308.552C272.93 308.552 272.066 309.272 271.522 310.168V308.728H270.29V317ZM283.813 319.592C285.125 319.592 286.229 319.224 286.965 318.488C287.637 317.816 288.021 316.84 288.021 315.56V308.728H286.789V310.216C286.117 309.32 285.109 308.552 283.557 308.552C281.589 308.552 279.669 310.04 279.669 312.456V312.488C279.669 314.872 281.573 316.36 283.557 316.36C285.077 316.36 286.085 315.576 286.805 314.616V315.592C286.805 317.528 285.621 318.536 283.797 318.536C282.613 318.536 281.557 318.168 280.613 317.48L280.053 318.44C281.157 319.208 282.437 319.592 283.813 319.592ZM283.797 315.272C282.261 315.272 280.933 314.12 280.933 312.456V312.424C280.933 310.728 282.229 309.64 283.797 309.64C285.365 309.64 286.837 310.744 286.837 312.44V312.472C286.837 314.136 285.365 315.272 283.797 315.272ZM298.339 317.144C298.931 317.144 299.395 317.016 299.827 316.792V315.736C299.395 315.944 299.043 316.024 298.627 316.024C297.795 316.024 297.235 315.656 297.235 314.648V309.816H299.859V308.728H297.235V306.232H296.003V308.728H294.851V309.816H296.003V314.808C296.003 316.488 297.011 317.144 298.339 317.144ZM305.582 317.192C308.078 317.192 309.918 315.208 309.918 312.872V312.84C309.918 310.504 308.094 308.552 305.614 308.552C303.118 308.552 301.294 310.536 301.294 312.872V312.904C301.294 315.24 303.102 317.192 305.582 317.192ZM305.614 316.088C303.87 316.088 302.558 314.648 302.558 312.872V312.84C302.558 311.096 303.79 309.64 305.582 309.64C307.326 309.64 308.654 311.096 308.654 312.872V312.904C308.654 314.648 307.406 316.088 305.614 316.088ZM40.7432 336H41.9752V332.704C41.9752 330.208 43.4472 328.912 45.2552 328.912H45.3512V327.584C43.7832 327.52 42.5832 328.512 41.9752 329.888V327.728H40.7432V336ZM50.4842 336.192C52.0522 336.192 53.0602 335.568 53.8922 334.64L53.1242 333.952C52.4522 334.656 51.6522 335.12 50.5162 335.12C49.0442 335.12 47.7802 334.112 47.6042 332.32H54.1642C54.1802 332.176 54.1802 332.08 54.1802 331.92C54.1802 329.504 52.7722 327.552 50.3242 327.552C48.0362 327.552 46.3562 329.472 46.3562 331.856V331.888C46.3562 334.448 48.2122 336.192 50.4842 336.192ZM47.6042 331.408C47.7642 329.792 48.8522 328.592 50.2922 328.592C51.9402 328.592 52.8042 329.904 52.9322 331.408H47.6042ZM59.0729 336.16C60.7209 336.16 62.0169 335.248 62.0169 333.68V333.648C62.0169 332.16 60.6409 331.664 59.3609 331.28C58.2569 330.944 57.2329 330.64 57.2329 329.856V329.824C57.2329 329.136 57.8569 328.624 58.8329 328.624C59.6329 328.624 60.5129 328.928 61.2809 329.424L61.8409 328.496C60.9929 327.936 59.8729 327.584 58.8649 327.584C57.2329 327.584 56.0489 328.528 56.0489 329.952V329.984C56.0489 331.504 57.4889 331.952 58.7849 332.32C59.8729 332.624 60.8489 332.944 60.8489 333.776V333.808C60.8489 334.608 60.1289 335.12 59.1369 335.12C58.1609 335.12 57.1689 334.736 56.2729 334.064L55.6489 334.944C56.5769 335.696 57.8889 336.16 59.0729 336.16ZM66.9174 336.144C67.5094 336.144 67.9734 336.016 68.4054 335.792V334.736C67.9734 334.944 67.6214 335.024 67.2054 335.024C66.3734 335.024 65.8134 334.656 65.8134 333.648V328.816H68.4374V327.728H65.8134V325.232H64.5814V327.728H63.4294V328.816H64.5814V333.808C64.5814 335.488 65.5894 336.144 66.9174 336.144ZM74.1598 336.192C76.6558 336.192 78.4958 334.208 78.4958 331.872V331.84C78.4958 329.504 76.6718 327.552 74.1918 327.552C71.6958 327.552 69.8718 329.536 69.8718 331.872V331.904C69.8718 334.24 71.6798 336.192 74.1598 336.192ZM74.1918 335.088C72.4478 335.088 71.1358 333.648 71.1358 331.872V331.84C71.1358 330.096 72.3678 328.64 74.1598 328.64C75.9038 328.64 77.2318 330.096 77.2318 331.872V331.904C77.2318 333.648 75.9838 335.088 74.1918 335.088ZM80.7276 336H81.9596V332.704C81.9596 330.208 83.4316 328.912 85.2396 328.912H85.3356V327.584C83.7676 327.52 82.5676 328.512 81.9596 329.888V327.728H80.7276V336ZM90.4686 336.192C92.0366 336.192 93.0446 335.568 93.8766 334.64L93.1086 333.952C92.4366 334.656 91.6366 335.12 90.5006 335.12C89.0286 335.12 87.7646 334.112 87.5886 332.32H94.1486C94.1646 332.176 94.1646 332.08 94.1646 331.92C94.1646 329.504 92.7566 327.552 90.3086 327.552C88.0206 327.552 86.3406 329.472 86.3406 331.856V331.888C86.3406 334.448 88.1966 336.192 90.4686 336.192ZM87.5886 331.408C87.7486 329.792 88.8366 328.592 90.2766 328.592C91.9246 328.592 92.7886 329.904 92.9166 331.408H87.5886ZM103.582 336.176C105.038 336.176 105.998 335.504 106.574 334.752V336H107.758V330.944C107.758 329.888 107.47 329.088 106.91 328.528C106.302 327.92 105.406 327.616 104.238 327.616C103.038 327.616 102.142 327.888 101.23 328.304L101.598 329.312C102.366 328.96 103.134 328.704 104.11 328.704C105.662 328.704 106.574 329.472 106.574 330.96V331.248C105.838 331.04 105.086 330.896 104.03 330.896C101.934 330.896 100.494 331.824 100.494 333.568V333.6C100.494 335.296 102.046 336.176 103.582 336.176ZM103.822 335.2C102.702 335.2 101.742 334.592 101.742 333.552V333.52C101.742 332.48 102.606 331.808 104.158 331.808C105.166 331.808 105.982 331.984 106.59 332.16V332.96C106.59 334.272 105.342 335.2 103.822 335.2ZM114.112 336.192C115.664 336.192 116.656 335.52 117.488 334.592L116.704 333.856C116.048 334.56 115.232 335.088 114.176 335.088C112.448 335.088 111.136 333.664 111.136 331.872V331.84C111.136 330.064 112.416 328.64 114.096 328.64C115.216 328.64 115.952 329.2 116.608 329.888L117.424 329.024C116.656 328.208 115.68 327.552 114.112 327.552C111.696 327.552 109.872 329.536 109.872 331.872V331.904C109.872 334.224 111.696 336.192 114.112 336.192ZM119.524 336H120.756V331.264C120.756 329.712 121.812 328.672 123.236 328.672C124.692 328.672 125.524 329.632 125.524 331.168V336H126.756V330.864C126.756 328.896 125.588 327.552 123.588 327.552C122.164 327.552 121.3 328.272 120.756 329.168V324.32H119.524V336ZM129.416 325.92H130.824V324.56H129.416V325.92ZM129.496 336H130.728V327.728H129.496V336ZM133.587 336H134.819V331.264C134.819 329.712 135.875 328.672 137.299 328.672C138.755 328.672 139.587 329.632 139.587 331.168V336H140.819V330.864C140.819 328.896 139.651 327.552 137.651 327.552C136.227 327.552 135.363 328.272 134.819 329.168V327.728H133.587V336ZM147.11 338.592C148.422 338.592 149.526 338.224 150.262 337.488C150.934 336.816 151.318 335.84 151.318 334.56V327.728H150.086V329.216C149.414 328.32 148.406 327.552 146.854 327.552C144.886 327.552 142.966 329.04 142.966 331.456V331.488C142.966 333.872 144.87 335.36 146.854 335.36C148.374 335.36 149.382 334.576 150.102 333.616V334.592C150.102 336.528 148.918 337.536 147.094 337.536C145.91 337.536 144.854 337.168 143.91 336.48L143.35 337.44C144.454 338.208 145.734 338.592 147.11 338.592ZM147.094 334.272C145.558 334.272 144.23 333.12 144.23 331.456V331.424C144.23 329.728 145.526 328.64 147.094 328.64C148.662 328.64 150.134 329.744 150.134 331.44V331.472C150.134 333.136 148.662 334.272 147.094 334.272ZM158.868 336H160.1V331.28C160.1 329.76 161.092 328.672 162.404 328.672C163.716 328.672 164.532 329.584 164.532 331.136V336H165.764V331.232C165.764 329.6 166.788 328.672 168.036 328.672C169.38 328.672 170.18 329.568 170.18 331.168V336H171.412V330.88C171.412 328.832 170.244 327.552 168.34 327.552C166.9 327.552 166.02 328.288 165.428 329.2C164.98 328.272 164.116 327.552 162.772 327.552C161.38 327.552 160.644 328.304 160.1 329.12V327.728H158.868V336ZM177.127 336.176C178.551 336.176 179.399 335.456 179.959 334.56V336H181.175V327.728H179.959V332.464C179.959 334.016 178.887 335.056 177.479 335.056C176.023 335.056 175.191 334.096 175.191 332.56V327.728H173.959V332.864C173.959 334.832 175.127 336.176 177.127 336.176ZM186.682 336.16C188.33 336.16 189.626 335.248 189.626 333.68V333.648C189.626 332.16 188.25 331.664 186.97 331.28C185.866 330.944 184.842 330.64 184.842 329.856V329.824C184.842 329.136 185.466 328.624 186.442 328.624C187.242 328.624 188.122 328.928 188.89 329.424L189.45 328.496C188.602 327.936 187.482 327.584 186.474 327.584C184.842 327.584 183.658 328.528 183.658 329.952V329.984C183.658 331.504 185.098 331.952 186.394 332.32C187.482 332.624 188.458 332.944 188.458 333.776V333.808C188.458 334.608 187.738 335.12 186.746 335.12C185.77 335.12 184.778 334.736 183.882 334.064L183.258 334.944C184.186 335.696 185.498 336.16 186.682 336.16ZM195.643 336.192C197.195 336.192 198.187 335.52 199.019 334.592L198.235 333.856C197.579 334.56 196.763 335.088 195.707 335.088C193.979 335.088 192.667 333.664 192.667 331.872V331.84C192.667 330.064 193.947 328.64 195.627 328.64C196.747 328.64 197.483 329.2 198.139 329.888L198.955 329.024C198.187 328.208 197.211 327.552 195.643 327.552C193.227 327.552 191.403 329.536 191.403 331.872V331.904C191.403 334.224 193.227 336.192 195.643 336.192ZM201.168 336H202.4V324.32H201.168V336ZM208.875 336.192C210.443 336.192 211.451 335.568 212.283 334.64L211.515 333.952C210.843 334.656 210.043 335.12 208.907 335.12C207.435 335.12 206.171 334.112 205.995 332.32H212.555C212.571 332.176 212.571 332.08 212.571 331.92C212.571 329.504 211.163 327.552 208.715 327.552C206.427 327.552 204.747 329.472 204.747 331.856V331.888C204.747 334.448 206.603 336.192 208.875 336.192ZM205.995 331.408C206.155 329.792 207.243 328.592 208.683 328.592C210.331 328.592 211.195 329.904 211.323 331.408H205.995ZM217.464 336.16C219.112 336.16 220.408 335.248 220.408 333.68V333.648C220.408 332.16 219.032 331.664 217.752 331.28C216.648 330.944 215.624 330.64 215.624 329.856V329.824C215.624 329.136 216.248 328.624 217.224 328.624C218.024 328.624 218.904 328.928 219.672 329.424L220.232 328.496C219.384 327.936 218.264 327.584 217.256 327.584C215.624 327.584 214.44 328.528 214.44 329.952V329.984C214.44 331.504 215.88 331.952 217.176 332.32C218.264 332.624 219.24 332.944 219.24 333.776V333.808C219.24 334.608 218.52 335.12 217.528 335.12C216.552 335.12 215.56 334.736 214.664 334.064L214.04 334.944C214.968 335.696 216.28 336.16 217.464 336.16ZM229.957 336.176C231.413 336.176 232.373 335.504 232.949 334.752V336H234.133V330.944C234.133 329.888 233.845 329.088 233.285 328.528C232.677 327.92 231.781 327.616 230.613 327.616C229.413 327.616 228.517 327.888 227.605 328.304L227.973 329.312C228.741 328.96 229.509 328.704 230.485 328.704C232.037 328.704 232.949 329.472 232.949 330.96V331.248C232.213 331.04 231.461 330.896 230.405 330.896C228.309 330.896 226.869 331.824 226.869 333.568V333.6C226.869 335.296 228.421 336.176 229.957 336.176ZM230.197 335.2C229.077 335.2 228.117 334.592 228.117 333.552V333.52C228.117 332.48 228.981 331.808 230.533 331.808C231.541 331.808 232.357 331.984 232.965 332.16V332.96C232.965 334.272 231.717 335.2 230.197 335.2ZM236.759 336H237.991V331.264C237.991 329.712 239.047 328.672 240.471 328.672C241.927 328.672 242.759 329.632 242.759 331.168V336H243.991V330.864C243.991 328.896 242.823 327.552 240.823 327.552C239.399 327.552 238.535 328.272 237.991 329.168V327.728H236.759V336ZM250.09 336.176C251.61 336.176 252.586 335.328 253.258 334.336V336H254.49V324.32H253.258V329.312C252.618 328.384 251.626 327.552 250.09 327.552C248.106 327.552 246.138 329.152 246.138 331.856V331.888C246.138 334.608 248.106 336.176 250.09 336.176ZM250.314 335.072C248.762 335.072 247.402 333.824 247.402 331.872V331.84C247.402 329.84 248.714 328.656 250.314 328.656C251.85 328.656 253.306 329.936 253.306 331.84V331.872C253.306 333.776 251.85 335.072 250.314 335.072ZM262.072 325.92H263.48V324.56H262.072V325.92ZM261.368 338.608C262.616 338.608 263.384 337.936 263.384 336.48V327.728H262.152V336.464C262.152 337.232 261.768 337.568 261.208 337.568C261.032 337.568 260.792 337.552 260.6 337.52V338.528C260.872 338.592 261.08 338.608 261.368 338.608ZM270.019 336.192C272.515 336.192 274.355 334.208 274.355 331.872V331.84C274.355 329.504 272.531 327.552 270.051 327.552C267.555 327.552 265.731 329.536 265.731 331.872V331.904C265.731 334.24 267.539 336.192 270.019 336.192ZM270.051 335.088C268.307 335.088 266.995 333.648 266.995 331.872V331.84C266.995 330.096 268.227 328.64 270.019 328.64C271.763 328.64 273.091 330.096 273.091 331.872V331.904C273.091 333.648 271.843 335.088 270.051 335.088ZM276.619 325.92H278.027V324.56H276.619V325.92ZM276.699 336H277.931V327.728H276.699V336ZM280.79 336H282.022V331.264C282.022 329.712 283.078 328.672 284.502 328.672C285.958 328.672 286.79 329.632 286.79 331.168V336H288.022V330.864C288.022 328.896 286.854 327.552 284.854 327.552C283.43 327.552 282.566 328.272 282.022 329.168V327.728H280.79V336ZM293.417 336.144C294.009 336.144 294.473 336.016 294.905 335.792V334.736C294.473 334.944 294.121 335.024 293.705 335.024C292.873 335.024 292.313 334.656 292.313 333.648V328.816H294.937V327.728H292.313V325.232H291.081V327.728H289.929V328.816H291.081V333.808C291.081 335.488 292.089 336.144 293.417 336.144ZM299.854 336.16C301.502 336.16 302.798 335.248 302.798 333.68V333.648C302.798 332.16 301.422 331.664 300.142 331.28C299.038 330.944 298.014 330.64 298.014 329.856V329.824C298.014 329.136 298.638 328.624 299.614 328.624C300.414 328.624 301.294 328.928 302.062 329.424L302.622 328.496C301.774 327.936 300.654 327.584 299.646 327.584C298.014 327.584 296.83 328.528 296.83 329.952V329.984C296.83 331.504 298.27 331.952 299.566 332.32C300.654 332.624 301.63 332.944 301.63 333.776V333.808C301.63 334.608 300.91 335.12 299.918 335.12C298.942 335.12 297.95 334.736 297.054 334.064L296.43 334.944C297.358 335.696 298.67 336.16 299.854 336.16ZM304.943 336H306.415V334.32H304.943V336Z" fill="#540F16"/>
<defs>
<filter id="filter0_d" x="0" y="44" width="355" height="340" filterUnits="userSpaceOnUse" color-interpolation-filters="sRGB">
<feFlood flood-opacity="0" result="BackgroundImageFix"/>
<feColorMatrix in="SourceAlpha" type="matrix" values="0 0 0 0 0 0 0 0 0 0 0 0 0 0 0 0 0 0 127 0" result="hardAlpha"/>
<feOffset dx="4" dy="4"/>
<feGaussianBlur stdDeviation="5"/>
<feColorMatrix type="matrix" values="0 0 0 0 0.329412 0 0 0 0 0.0588235 0 0 0 0 0.0862745 0 0 0 0.2 0"/>
<feBlend mode="normal" in2="BackgroundImageFix" result="effect1_dropShadow"/>
<feBlend mode="normal" in="SourceGraphic" in2="effect1_dropShadow" result="shape"/>
</filter>
</defs>
</svg>
