<svg width="355" height="364" viewBox="0 0 355 364" fill="none" xmlns="http://www.w3.org/2000/svg">
<g filter="url(#filter0_d)">
<rect x="6" y="50" width="335" height="300" rx="2" fill="white"/>
</g>
<rect x="6" y="50" width="335" height="300" rx="2" fill="#F2F2F2"/>
<circle cx="173" cy="62" r="62" fill="#CC112C" fill-opacity="0.1"/>
<circle cx="173" cy="62.0002" r="58.2041" fill="#CC112C" fill-opacity="0.1"/>
<circle cx="173" cy="62.0003" r="55.0408" fill="#CC112C"/>
<circle cx="173" cy="62.0002" r="50.6122" fill="white"/>
<path d="M164.846 86.7587C134.144 67.0355 172.409 49.4967 166.897 33.564C166.897 33.564 183.84 39.346 176.831 56.3709C170.855 70.8902 191.253 71.4684 189.266 58.4267C189.266 58.4267 203.559 80.013 178.434 86.7587" stroke="#540F16" stroke-width="3" stroke-miterlimit="10" stroke-linejoin="round"/>
<path d="M166.897 33.5635C180.421 44.6136 153.757 72.1746 173.05 86.7582" stroke="#540F16" stroke-width="3" stroke-miterlimit="10" stroke-linejoin="round"/>
<path d="M88.0344 162H97.8544V159.76H90.4944V148H88.0344V162ZM104.962 162.24C108.222 162.24 110.622 159.74 110.622 156.74V156.7C110.622 153.68 108.242 151.22 105.002 151.22C101.762 151.22 99.3619 153.72 99.3619 156.74V156.78C99.3619 159.78 101.742 162.24 104.962 162.24ZM105.002 160.12C103.122 160.12 101.782 158.58 101.782 156.74V156.7C101.782 154.86 103.022 153.34 104.962 153.34C106.862 153.34 108.202 154.88 108.202 156.74V156.78C108.202 158.6 106.962 160.12 105.002 160.12ZM113.086 162H115.506V156.04C115.506 154.4 116.486 153.42 117.886 153.42C119.326 153.42 120.146 154.36 120.146 156V162H122.566V155.26C122.566 152.82 121.186 151.22 118.806 151.22C117.166 151.22 116.186 152.08 115.506 153.06V151.44H113.086V162ZM130.189 165.24C132.089 165.24 133.569 164.78 134.529 163.82C135.409 162.94 135.869 161.62 135.869 159.84V151.44H133.449V153.02C132.629 152.04 131.529 151.22 129.749 151.22C127.289 151.22 124.949 153.06 124.949 156.18V156.22C124.949 159.32 127.269 161.16 129.749 161.16C131.489 161.16 132.589 160.36 133.469 159.22V160.04C133.469 162.16 132.289 163.28 130.129 163.28C128.689 163.28 127.509 162.86 126.369 162.16L125.469 163.98C126.829 164.8 128.449 165.24 130.189 165.24ZM130.389 159.1C128.729 159.1 127.389 157.92 127.389 156.2V156.16C127.389 154.42 128.709 153.26 130.389 153.26C132.069 153.26 133.489 154.44 133.489 156.16V156.2C133.489 157.92 132.069 159.1 130.389 159.1ZM145.043 162H147.463V147.4H145.043V162ZM153.665 162.22C155.285 162.22 156.385 161.54 157.105 160.68V162H159.465V155.74C159.465 154.36 159.105 153.24 158.325 152.48C157.585 151.72 156.405 151.3 154.825 151.3C153.145 151.3 152.005 151.64 150.845 152.16L151.485 154.06C152.445 153.66 153.325 153.4 154.505 153.4C156.205 153.4 157.125 154.2 157.125 155.7V155.96C156.305 155.7 155.465 155.52 154.285 155.52C151.705 155.52 149.925 156.64 149.925 158.92V158.96C149.925 161.08 151.685 162.22 153.665 162.22ZM154.345 160.46C153.185 160.46 152.285 159.88 152.285 158.86V158.82C152.285 157.72 153.205 157.06 154.765 157.06C155.725 157.06 156.545 157.24 157.165 157.48V158.2C157.165 159.54 155.945 160.46 154.345 160.46ZM165.984 162.2C168.184 162.2 169.904 161.1 169.904 158.88V158.84C169.904 156.94 168.164 156.24 166.624 155.76C165.384 155.36 164.244 155.04 164.244 154.26V154.22C164.244 153.62 164.784 153.18 165.724 153.18C166.604 153.18 167.684 153.56 168.704 154.18L169.664 152.46C168.544 151.72 167.104 151.26 165.784 151.26C163.684 151.26 162.024 152.48 162.024 154.48V154.52C162.024 156.54 163.764 157.18 165.324 157.62C166.564 158 167.684 158.28 167.684 159.1V159.14C167.684 159.84 167.084 160.28 166.044 160.28C164.964 160.28 163.744 159.84 162.584 158.98L161.504 160.62C162.824 161.66 164.484 162.2 165.984 162.2ZM175.728 162.18C176.648 162.18 177.308 161.98 177.908 161.64V159.66C177.428 159.9 176.948 160.02 176.408 160.02C175.588 160.02 175.108 159.64 175.108 158.7V153.52H177.948V151.44H175.108V148.54H172.688V151.44H171.348V153.52H172.688V159.08C172.688 161.4 173.948 162.18 175.728 162.18ZM180.451 149.82H183.051V147.52H180.451V149.82ZM180.551 162H182.971V151.44H180.551V162ZM186.133 162H188.553V156.04C188.553 154.4 189.533 153.42 190.933 153.42C192.373 153.42 193.193 154.36 193.193 156V162H195.613V155.26C195.613 152.82 194.233 151.22 191.853 151.22C190.213 151.22 189.233 152.08 188.553 153.06V151.44H186.133V162ZM203.236 165.24C205.136 165.24 206.616 164.78 207.576 163.82C208.456 162.94 208.916 161.62 208.916 159.84V151.44H206.496V153.02C205.676 152.04 204.576 151.22 202.796 151.22C200.336 151.22 197.996 153.06 197.996 156.18V156.22C197.996 159.32 200.316 161.16 202.796 161.16C204.536 161.16 205.636 160.36 206.516 159.22V160.04C206.516 162.16 205.336 163.28 203.176 163.28C201.736 163.28 200.556 162.86 199.416 162.16L198.516 163.98C199.876 164.8 201.496 165.24 203.236 165.24ZM203.436 159.1C201.776 159.1 200.436 157.92 200.436 156.2V156.16C200.436 154.42 201.756 153.26 203.436 153.26C205.116 153.26 206.536 154.44 206.536 156.16V156.2C206.536 157.92 205.116 159.1 203.436 159.1ZM217.95 162H220.37V156.04C220.37 154.4 221.35 153.42 222.75 153.42C224.19 153.42 225.01 154.36 225.01 156V162H227.43V155.26C227.43 152.82 226.05 151.22 223.67 151.22C222.03 151.22 221.05 152.08 220.37 153.06V147.4H217.95V162ZM235.192 162.24C237.132 162.24 238.512 161.46 239.512 160.26L238.092 159C237.252 159.82 236.412 160.26 235.232 160.26C233.672 160.26 232.452 159.3 232.192 157.58H239.952C239.972 157.34 239.992 157.12 239.992 156.9C239.992 153.86 238.292 151.22 234.932 151.22C231.912 151.22 229.772 153.7 229.772 156.72V156.76C229.772 160.02 232.132 162.24 235.192 162.24ZM232.172 155.98C232.392 154.34 233.432 153.2 234.912 153.2C236.512 153.2 237.432 154.42 237.592 155.98H232.172ZM245.462 162.22C247.082 162.22 248.182 161.54 248.902 160.68V162H251.262V155.74C251.262 154.36 250.902 153.24 250.122 152.48C249.382 151.72 248.202 151.3 246.622 151.3C244.942 151.3 243.802 151.64 242.642 152.16L243.282 154.06C244.242 153.66 245.122 153.4 246.302 153.4C248.002 153.4 248.922 154.2 248.922 155.7V155.96C248.102 155.7 247.262 155.52 246.082 155.52C243.502 155.52 241.722 156.64 241.722 158.92V158.96C241.722 161.08 243.482 162.22 245.462 162.22ZM246.142 160.46C244.982 160.46 244.082 159.88 244.082 158.86V158.82C244.082 157.72 245.002 157.06 246.562 157.06C247.522 157.06 248.342 157.24 248.962 157.48V158.2C248.962 159.54 247.742 160.46 246.142 160.46ZM257.603 162.18C258.523 162.18 259.183 161.98 259.783 161.64V159.66C259.303 159.9 258.823 160.02 258.283 160.02C257.463 160.02 256.983 159.64 256.983 158.7V153.52H259.823V151.44H256.983V148.54H254.563V151.44H253.223V153.52H254.563V159.08C254.563 161.4 255.823 162.18 257.603 162.18Z" fill="#CC112C"/>
<path d="M50.1768 194H51.4568V183.968H55.2168V182.8H46.4168V183.968H50.1768V194ZM57.1338 194H58.3658V189.264C58.3658 187.712 59.4218 186.672 60.8458 186.672C62.3018 186.672 63.1338 187.632 63.1338 189.168V194H64.3658V188.864C64.3658 186.896 63.1978 185.552 61.1978 185.552C59.7738 185.552 58.9098 186.272 58.3658 187.168V182.32H57.1338V194ZM70.6092 194.192C72.1772 194.192 73.1852 193.568 74.0172 192.64L73.2492 191.952C72.5772 192.656 71.7772 193.12 70.6412 193.12C69.1692 193.12 67.9052 192.112 67.7292 190.32H74.2892C74.3052 190.176 74.3052 190.08 74.3052 189.92C74.3052 187.504 72.8972 185.552 70.4492 185.552C68.1612 185.552 66.4812 187.472 66.4812 189.856V189.888C66.4812 192.448 68.3372 194.192 70.6092 194.192ZM67.7292 189.408C67.8892 187.792 68.9772 186.592 70.4172 186.592C72.0652 186.592 72.9292 187.904 73.0572 189.408H67.7292ZM76.4619 194H77.6939V190.704C77.6939 188.208 79.1659 186.912 80.9739 186.912H81.0699V185.584C79.5019 185.52 78.3019 186.512 77.6939 187.888V185.728H76.4619V194ZM82.9463 194H84.1783V189.28C84.1783 187.76 85.1703 186.672 86.4823 186.672C87.7943 186.672 88.6103 187.584 88.6103 189.136V194H89.8423V189.232C89.8423 187.6 90.8663 186.672 92.1143 186.672C93.4583 186.672 94.2583 187.568 94.2583 189.168V194H95.4903V188.88C95.4903 186.832 94.3223 185.552 92.4183 185.552C90.9783 185.552 90.0983 186.288 89.5063 187.2C89.0583 186.272 88.1943 185.552 86.8503 185.552C85.4583 185.552 84.7223 186.304 84.1783 187.12V185.728H82.9463V194ZM97.4131 194H98.7091L100.037 191.04H106.133L107.445 194H108.805L103.701 182.72H102.517L97.4131 194ZM100.533 189.888L103.093 184.192L105.637 189.888H100.533ZM110.838 183.92H112.246V182.56H110.838V183.92ZM110.918 194H112.15V185.728H110.918V194ZM118.481 194.176C120.001 194.176 120.977 193.328 121.649 192.336V194H122.881V182.32H121.649V187.312C121.009 186.384 120.017 185.552 118.481 185.552C116.497 185.552 114.529 187.152 114.529 189.856V189.888C114.529 192.608 116.497 194.176 118.481 194.176ZM118.705 193.072C117.153 193.072 115.793 191.824 115.793 189.872V189.84C115.793 187.84 117.105 186.656 118.705 186.656C120.241 186.656 121.697 187.936 121.697 189.84V189.872C121.697 191.776 120.241 193.072 118.705 193.072ZM127.49 188.24C129.042 188.24 130.274 186.96 130.274 185.44V185.424C130.274 183.904 129.058 182.64 127.49 182.64C125.938 182.64 124.706 183.92 124.706 185.44V185.456C124.706 186.976 125.922 188.24 127.49 188.24ZM127.49 187.936C126.082 187.936 125.026 186.816 125.026 185.456V185.44C125.026 184.08 126.098 182.944 127.49 182.944C128.898 182.944 129.954 184.064 129.954 185.424V185.44C129.954 186.8 128.882 187.936 127.49 187.936ZM126.402 186.8H126.946V185.824H127.538L128.21 186.8H128.866L128.114 185.728C128.498 185.616 128.77 185.328 128.77 184.864C128.77 184.272 128.306 183.968 127.682 183.968H126.402V186.8ZM126.946 185.376V184.448H127.634C128.002 184.448 128.21 184.608 128.21 184.912C128.21 185.184 128.002 185.376 127.634 185.376H126.946ZM136.916 183.92H138.324V182.56H136.916V183.92ZM136.996 194H138.228V185.728H136.996V194ZM143.823 194.16C145.471 194.16 146.767 193.248 146.767 191.68V191.648C146.767 190.16 145.391 189.664 144.111 189.28C143.007 188.944 141.983 188.64 141.983 187.856V187.824C141.983 187.136 142.607 186.624 143.583 186.624C144.383 186.624 145.263 186.928 146.031 187.424L146.591 186.496C145.743 185.936 144.623 185.584 143.615 185.584C141.983 185.584 140.799 186.528 140.799 187.952V187.984C140.799 189.504 142.239 189.952 143.535 190.32C144.623 190.624 145.599 190.944 145.599 191.776V191.808C145.599 192.608 144.879 193.12 143.887 193.12C142.911 193.12 141.919 192.736 141.023 192.064L140.399 192.944C141.327 193.696 142.639 194.16 143.823 194.16ZM157.581 194.192C159.133 194.192 160.125 193.52 160.957 192.592L160.173 191.856C159.517 192.56 158.701 193.088 157.645 193.088C155.917 193.088 154.605 191.664 154.605 189.872V189.84C154.605 188.064 155.885 186.64 157.565 186.64C158.685 186.64 159.421 187.2 160.077 187.888L160.893 187.024C160.125 186.208 159.149 185.552 157.581 185.552C155.165 185.552 153.341 187.536 153.341 189.872V189.904C153.341 192.224 155.165 194.192 157.581 194.192ZM163.105 194H164.337V182.32H163.105V194ZM167.228 183.92H168.636V182.56H167.228V183.92ZM167.308 194H168.54V185.728H167.308V194ZM171.399 194H172.631V189.264C172.631 187.712 173.687 186.672 175.111 186.672C176.567 186.672 177.399 187.632 177.399 189.168V194H178.631V188.864C178.631 186.896 177.463 185.552 175.463 185.552C174.039 185.552 173.175 186.272 172.631 187.168V185.728H171.399V194ZM181.291 183.92H182.699V182.56H181.291V183.92ZM181.371 194H182.603V185.728H181.371V194ZM189.19 194.192C190.742 194.192 191.734 193.52 192.566 192.592L191.782 191.856C191.126 192.56 190.31 193.088 189.254 193.088C187.526 193.088 186.214 191.664 186.214 189.872V189.84C186.214 188.064 187.494 186.64 189.174 186.64C190.294 186.64 191.03 187.2 191.686 187.888L192.502 187.024C191.734 186.208 190.758 185.552 189.19 185.552C186.774 185.552 184.95 187.536 184.95 189.872V189.904C184.95 192.224 186.774 194.192 189.19 194.192ZM197.067 194.176C198.523 194.176 199.483 193.504 200.059 192.752V194H201.243V188.944C201.243 187.888 200.955 187.088 200.395 186.528C199.787 185.92 198.891 185.616 197.723 185.616C196.523 185.616 195.627 185.888 194.715 186.304L195.083 187.312C195.851 186.96 196.619 186.704 197.595 186.704C199.147 186.704 200.059 187.472 200.059 188.96V189.248C199.323 189.04 198.571 188.896 197.515 188.896C195.419 188.896 193.979 189.824 193.979 191.568V191.6C193.979 193.296 195.531 194.176 197.067 194.176ZM197.307 193.2C196.187 193.2 195.227 192.592 195.227 191.552V191.52C195.227 190.48 196.091 189.808 197.643 189.808C198.651 189.808 199.467 189.984 200.075 190.16V190.96C200.075 192.272 198.827 193.2 197.307 193.2ZM203.98 194H205.212V182.32H203.98V194ZM208.183 194H209.415V182.32H208.183V194ZM215.81 192.624L212.802 185.728H211.442L215.202 193.968C214.706 195.136 214.242 195.52 213.506 195.52C212.978 195.52 212.61 195.424 212.21 195.216L211.794 196.192C212.354 196.464 212.866 196.608 213.554 196.608C214.802 196.608 215.602 195.984 216.306 194.272L219.778 185.728H218.466L215.81 192.624ZM226.524 196.56H227.756V192.416C228.396 193.344 229.388 194.176 230.924 194.176C232.924 194.176 234.876 192.576 234.876 189.872V189.84C234.876 187.12 232.908 185.552 230.924 185.552C229.404 185.552 228.428 186.4 227.756 187.392V185.728H226.524V196.56ZM230.7 193.072C229.164 193.072 227.708 191.792 227.708 189.872V189.84C227.708 187.952 229.164 186.656 230.7 186.656C232.268 186.656 233.612 187.904 233.612 189.856V189.888C233.612 191.888 232.3 193.072 230.7 193.072ZM237.149 194H238.381V190.704C238.381 188.208 239.853 186.912 241.661 186.912H241.757V185.584C240.189 185.52 238.989 186.512 238.381 187.888V185.728H237.149V194ZM247.05 194.192C249.546 194.192 251.386 192.208 251.386 189.872V189.84C251.386 187.504 249.562 185.552 247.082 185.552C244.586 185.552 242.762 187.536 242.762 189.872V189.904C242.762 192.24 244.57 194.192 247.05 194.192ZM247.082 193.088C245.338 193.088 244.026 191.648 244.026 189.872V189.84C244.026 188.096 245.258 186.64 247.05 186.64C248.794 186.64 250.122 188.096 250.122 189.872V189.904C250.122 191.648 248.874 193.088 247.082 193.088ZM255.902 194.064H256.99L260.59 185.728H259.262L256.462 192.592L253.678 185.728H252.318L255.902 194.064ZM265.656 194.192C267.224 194.192 268.232 193.568 269.064 192.64L268.296 191.952C267.624 192.656 266.824 193.12 265.688 193.12C264.216 193.12 262.952 192.112 262.776 190.32H269.336C269.352 190.176 269.352 190.08 269.352 189.92C269.352 187.504 267.944 185.552 265.496 185.552C263.208 185.552 261.528 187.472 261.528 189.856V189.888C261.528 192.448 263.384 194.192 265.656 194.192ZM262.776 189.408C262.936 187.792 264.024 186.592 265.464 186.592C267.112 186.592 267.976 187.904 268.104 189.408H262.776ZM271.509 194H272.741V189.264C272.741 187.712 273.797 186.672 275.221 186.672C276.677 186.672 277.509 187.632 277.509 189.168V194H278.741V188.864C278.741 186.896 277.573 185.552 275.573 185.552C274.149 185.552 273.285 186.272 272.741 187.168V185.728H271.509V194ZM288.933 194.144C289.525 194.144 289.989 194.016 290.421 193.792V192.736C289.989 192.944 289.637 193.024 289.221 193.024C288.389 193.024 287.829 192.656 287.829 191.648V186.816H290.453V185.728H287.829V183.232H286.597V185.728H285.445V186.816H286.597V191.808C286.597 193.488 287.605 194.144 288.933 194.144ZM296.175 194.192C298.671 194.192 300.511 192.208 300.511 189.872V189.84C300.511 187.504 298.687 185.552 296.207 185.552C293.711 185.552 291.887 187.536 291.887 189.872V189.904C291.887 192.24 293.695 194.192 296.175 194.192ZM296.207 193.088C294.463 193.088 293.151 191.648 293.151 189.872V189.84C293.151 188.096 294.383 186.64 296.175 186.64C297.919 186.64 299.247 188.096 299.247 189.872V189.904C299.247 191.648 297.999 193.088 296.207 193.088ZM17.9932 218.56H19.2252V214.416C19.8652 215.344 20.8572 216.176 22.3932 216.176C24.3932 216.176 26.3452 214.576 26.3452 211.872V211.84C26.3452 209.12 24.3772 207.552 22.3932 207.552C20.8732 207.552 19.8972 208.4 19.2252 209.392V207.728H17.9932V218.56ZM22.1692 215.072C20.6332 215.072 19.1772 213.792 19.1772 211.872V211.84C19.1772 209.952 20.6332 208.656 22.1692 208.656C23.7372 208.656 25.0812 209.904 25.0812 211.856V211.888C25.0812 213.888 23.7692 215.072 22.1692 215.072ZM28.6182 216H29.8502V212.704C29.8502 210.208 31.3222 208.912 33.1302 208.912H33.2262V207.584C31.6582 207.52 30.4582 208.512 29.8502 209.888V207.728H28.6182V216ZM38.5192 216.192C41.0152 216.192 42.8552 214.208 42.8552 211.872V211.84C42.8552 209.504 41.0312 207.552 38.5512 207.552C36.0552 207.552 34.2312 209.536 34.2312 211.872V211.904C34.2312 214.24 36.0392 216.192 38.5192 216.192ZM38.5512 215.088C36.8072 215.088 35.4952 213.648 35.4952 211.872V211.84C35.4952 210.096 36.7272 208.64 38.5192 208.64C40.2632 208.64 41.5912 210.096 41.5912 211.872V211.904C41.5912 213.648 40.3432 215.088 38.5512 215.088ZM47.3706 216.064H48.4586L52.0586 207.728H50.7306L47.9306 214.592L45.1466 207.728H43.7866L47.3706 216.064ZM54.0252 205.92H55.4332V204.56H54.0252V205.92ZM54.1052 216H55.3372V207.728H54.1052V216ZM61.6683 216.176C63.1883 216.176 64.1643 215.328 64.8363 214.336V216H66.0683V204.32H64.8363V209.312C64.1963 208.384 63.2043 207.552 61.6683 207.552C59.6843 207.552 57.7163 209.152 57.7163 211.856V211.888C57.7163 214.608 59.6843 216.176 61.6683 216.176ZM61.8923 215.072C60.3403 215.072 58.9803 213.824 58.9803 211.872V211.84C58.9803 209.84 60.2923 208.656 61.8923 208.656C63.4283 208.656 64.8843 209.936 64.8843 211.84V211.872C64.8843 213.776 63.4283 215.072 61.8923 215.072ZM72.4373 216.192C74.0053 216.192 75.0133 215.568 75.8453 214.64L75.0773 213.952C74.4053 214.656 73.6053 215.12 72.4693 215.12C70.9973 215.12 69.7333 214.112 69.5573 212.32H76.1173C76.1333 212.176 76.1333 212.08 76.1333 211.92C76.1333 209.504 74.7253 207.552 72.2773 207.552C69.9893 207.552 68.3093 209.472 68.3093 211.856V211.888C68.3093 214.448 70.1653 216.192 72.4373 216.192ZM69.5573 211.408C69.7173 209.792 70.8053 208.592 72.2453 208.592C73.8933 208.592 74.7573 209.904 74.8853 211.408H69.5573ZM85.8549 216.144C86.4469 216.144 86.9109 216.016 87.3429 215.792V214.736C86.9109 214.944 86.5589 215.024 86.1429 215.024C85.3109 215.024 84.7509 214.656 84.7509 213.648V208.816H87.3749V207.728H84.7509V205.232H83.5189V207.728H82.3669V208.816H83.5189V213.808C83.5189 215.488 84.5269 216.144 85.8549 216.144ZM89.5557 216H90.7877V211.264C90.7877 209.712 91.8437 208.672 93.2677 208.672C94.7237 208.672 95.5557 209.632 95.5557 211.168V216H96.7877V210.864C96.7877 208.896 95.6197 207.552 93.6197 207.552C92.1957 207.552 91.3317 208.272 90.7877 209.168V204.32H89.5557V216ZM103.031 216.192C104.599 216.192 105.607 215.568 106.439 214.64L105.671 213.952C104.999 214.656 104.199 215.12 103.063 215.12C101.591 215.12 100.327 214.112 100.151 212.32H106.711C106.727 212.176 106.727 212.08 106.727 211.92C106.727 209.504 105.319 207.552 102.871 207.552C100.583 207.552 98.9031 209.472 98.9031 211.856V211.888C98.9031 214.448 100.759 216.192 103.031 216.192ZM100.151 211.408C100.311 209.792 101.399 208.592 102.839 208.592C104.487 208.592 105.351 209.904 105.479 211.408H100.151ZM108.884 216H110.116V212.704C110.116 210.208 111.588 208.912 113.396 208.912H113.492V207.584C111.924 207.52 110.724 208.512 110.116 209.888V207.728H108.884V216ZM117.426 216.176C118.882 216.176 119.842 215.504 120.418 214.752V216H121.602V210.944C121.602 209.888 121.314 209.088 120.754 208.528C120.146 207.92 119.25 207.616 118.082 207.616C116.882 207.616 115.986 207.888 115.074 208.304L115.442 209.312C116.21 208.96 116.978 208.704 117.954 208.704C119.506 208.704 120.418 209.472 120.418 210.96V211.248C119.682 211.04 118.93 210.896 117.874 210.896C115.778 210.896 114.338 211.824 114.338 213.568V213.6C114.338 215.296 115.89 216.176 117.426 216.176ZM117.666 215.2C116.546 215.2 115.586 214.592 115.586 213.552V213.52C115.586 212.48 116.45 211.808 118.002 211.808C119.01 211.808 119.826 211.984 120.434 212.16V212.96C120.434 214.272 119.186 215.2 117.666 215.2ZM124.228 218.56H125.46V214.416C126.1 215.344 127.092 216.176 128.628 216.176C130.628 216.176 132.58 214.576 132.58 211.872V211.84C132.58 209.12 130.612 207.552 128.628 207.552C127.108 207.552 126.132 208.4 125.46 209.392V207.728H124.228V218.56ZM128.404 215.072C126.868 215.072 125.412 213.792 125.412 211.872V211.84C125.412 209.952 126.868 208.656 128.404 208.656C129.972 208.656 131.316 209.904 131.316 211.856V211.888C131.316 213.888 130.004 215.072 128.404 215.072ZM138.469 216.192C140.037 216.192 141.045 215.568 141.877 214.64L141.109 213.952C140.437 214.656 139.637 215.12 138.501 215.12C137.029 215.12 135.765 214.112 135.589 212.32H142.149C142.165 212.176 142.165 212.08 142.165 211.92C142.165 209.504 140.757 207.552 138.309 207.552C136.021 207.552 134.341 209.472 134.341 211.856V211.888C134.341 214.448 136.197 216.192 138.469 216.192ZM135.589 211.408C135.749 209.792 136.837 208.592 138.277 208.592C139.925 208.592 140.789 209.904 140.917 211.408H135.589ZM147.361 216.176C148.785 216.176 149.633 215.456 150.193 214.56V216H151.409V207.728H150.193V212.464C150.193 214.016 149.121 215.056 147.713 215.056C146.257 215.056 145.425 214.096 145.425 212.56V207.728H144.193V212.864C144.193 214.832 145.361 216.176 147.361 216.176ZM156.949 216.144C157.541 216.144 158.005 216.016 158.437 215.792V214.736C158.005 214.944 157.653 215.024 157.237 215.024C156.405 215.024 155.845 214.656 155.845 213.648V208.816H158.469V207.728H155.845V205.232H154.613V207.728H153.461V208.816H154.613V213.808C154.613 215.488 155.621 216.144 156.949 216.144ZM160.681 205.92H162.089V204.56H160.681V205.92ZM160.761 216H161.993V207.728H160.761V216ZM168.581 216.192C170.133 216.192 171.125 215.52 171.957 214.592L171.173 213.856C170.517 214.56 169.701 215.088 168.645 215.088C166.917 215.088 165.605 213.664 165.605 211.872V211.84C165.605 210.064 166.885 208.64 168.565 208.64C169.685 208.64 170.421 209.2 171.077 209.888L171.893 209.024C171.125 208.208 170.149 207.552 168.581 207.552C166.165 207.552 164.341 209.536 164.341 211.872V211.904C164.341 214.224 166.165 216.192 168.581 216.192ZM178.79 216H180.022V211.28C180.022 209.76 181.014 208.672 182.326 208.672C183.638 208.672 184.454 209.584 184.454 211.136V216H185.686V211.232C185.686 209.6 186.71 208.672 187.958 208.672C189.302 208.672 190.102 209.568 190.102 211.168V216H191.334V210.88C191.334 208.832 190.166 207.552 188.262 207.552C186.822 207.552 185.942 208.288 185.35 209.2C184.902 208.272 184.038 207.552 182.694 207.552C181.302 207.552 180.566 208.304 180.022 209.12V207.728H178.79V216ZM197.049 216.176C198.473 216.176 199.321 215.456 199.881 214.56V216H201.097V207.728H199.881V212.464C199.881 214.016 198.809 215.056 197.401 215.056C195.945 215.056 195.113 214.096 195.113 212.56V207.728H193.881V212.864C193.881 214.832 195.049 216.176 197.049 216.176ZM206.604 216.16C208.252 216.16 209.548 215.248 209.548 213.68V213.648C209.548 212.16 208.172 211.664 206.892 211.28C205.788 210.944 204.764 210.64 204.764 209.856V209.824C204.764 209.136 205.388 208.624 206.364 208.624C207.164 208.624 208.044 208.928 208.812 209.424L209.372 208.496C208.524 207.936 207.404 207.584 206.396 207.584C204.764 207.584 203.58 208.528 203.58 209.952V209.984C203.58 211.504 205.02 211.952 206.316 212.32C207.404 212.624 208.38 212.944 208.38 213.776V213.808C208.38 214.608 207.66 215.12 206.668 215.12C205.692 215.12 204.7 214.736 203.804 214.064L203.18 214.944C204.108 215.696 205.42 216.16 206.604 216.16ZM215.565 216.192C217.117 216.192 218.109 215.52 218.941 214.592L218.157 213.856C217.501 214.56 216.685 215.088 215.629 215.088C213.901 215.088 212.589 213.664 212.589 211.872V211.84C212.589 210.064 213.869 208.64 215.549 208.64C216.669 208.64 217.405 209.2 218.061 209.888L218.877 209.024C218.109 208.208 217.133 207.552 215.565 207.552C213.149 207.552 211.325 209.536 211.325 211.872V211.904C211.325 214.224 213.149 216.192 215.565 216.192ZM221.09 216H222.322V204.32H221.09V216ZM228.797 216.192C230.365 216.192 231.373 215.568 232.205 214.64L231.437 213.952C230.765 214.656 229.965 215.12 228.829 215.12C227.357 215.12 226.093 214.112 225.917 212.32H232.477C232.493 212.176 232.493 212.08 232.493 211.92C232.493 209.504 231.085 207.552 228.637 207.552C226.349 207.552 224.669 209.472 224.669 211.856V211.888C224.669 214.448 226.525 216.192 228.797 216.192ZM225.917 211.408C226.077 209.792 227.165 208.592 228.605 208.592C230.253 208.592 231.117 209.904 231.245 211.408H225.917ZM239.446 218.56H240.678V214.416C241.318 215.344 242.31 216.176 243.846 216.176C245.846 216.176 247.798 214.576 247.798 211.872V211.84C247.798 209.12 245.83 207.552 243.846 207.552C242.326 207.552 241.35 208.4 240.678 209.392V207.728H239.446V218.56ZM243.622 215.072C242.086 215.072 240.63 213.792 240.63 211.872V211.84C240.63 209.952 242.086 208.656 243.622 208.656C245.19 208.656 246.534 209.904 246.534 211.856V211.888C246.534 213.888 245.222 215.072 243.622 215.072ZM253.687 216.192C255.255 216.192 256.263 215.568 257.095 214.64L256.327 213.952C255.655 214.656 254.855 215.12 253.719 215.12C252.247 215.12 250.983 214.112 250.807 212.32H257.367C257.383 212.176 257.383 212.08 257.383 211.92C257.383 209.504 255.975 207.552 253.527 207.552C251.239 207.552 249.559 209.472 249.559 211.856V211.888C249.559 214.448 251.415 216.192 253.687 216.192ZM250.807 211.408C250.967 209.792 252.055 208.592 253.495 208.592C255.143 208.592 256.007 209.904 256.135 211.408H250.807ZM259.54 216H260.772V211.264C260.772 209.712 261.828 208.672 263.252 208.672C264.708 208.672 265.54 209.632 265.54 211.168V216H266.772V210.864C266.772 208.896 265.604 207.552 263.604 207.552C262.18 207.552 261.316 208.272 260.772 209.168V207.728H259.54V216ZM273.015 216.192C274.583 216.192 275.591 215.568 276.423 214.64L275.655 213.952C274.983 214.656 274.183 215.12 273.047 215.12C271.575 215.12 270.311 214.112 270.135 212.32H276.695C276.711 212.176 276.711 212.08 276.711 211.92C276.711 209.504 275.303 207.552 272.855 207.552C270.567 207.552 268.887 209.472 268.887 211.856V211.888C268.887 214.448 270.743 216.192 273.015 216.192ZM270.135 211.408C270.295 209.792 271.383 208.592 272.823 208.592C274.471 208.592 275.335 209.904 275.463 211.408H270.135ZM281.636 216.144C282.228 216.144 282.692 216.016 283.124 215.792V214.736C282.692 214.944 282.34 215.024 281.924 215.024C281.092 215.024 280.532 214.656 280.532 213.648V208.816H283.156V207.728H280.532V205.232H279.3V207.728H278.148V208.816H279.3V213.808C279.3 215.488 280.308 216.144 281.636 216.144ZM285.337 216H286.569V212.704C286.569 210.208 288.041 208.912 289.849 208.912H289.945V207.584C288.377 207.52 287.177 208.512 286.569 209.888V207.728H285.337V216ZM293.879 216.176C295.335 216.176 296.295 215.504 296.871 214.752V216H298.055V210.944C298.055 209.888 297.767 209.088 297.207 208.528C296.599 207.92 295.703 207.616 294.535 207.616C293.335 207.616 292.439 207.888 291.527 208.304L291.895 209.312C292.663 208.96 293.431 208.704 294.407 208.704C295.959 208.704 296.871 209.472 296.871 210.96V211.248C296.135 211.04 295.383 210.896 294.327 210.896C292.231 210.896 290.791 211.824 290.791 213.568V213.6C290.791 215.296 292.343 216.176 293.879 216.176ZM294.119 215.2C292.999 215.2 292.039 214.592 292.039 213.552V213.52C292.039 212.48 292.903 211.808 294.455 211.808C295.463 211.808 296.279 211.984 296.887 212.16V212.96C296.887 214.272 295.639 215.2 294.119 215.2ZM303.371 216.144C303.963 216.144 304.427 216.016 304.859 215.792V214.736C304.427 214.944 304.075 215.024 303.659 215.024C302.827 215.024 302.267 214.656 302.267 213.648V208.816H304.891V207.728H302.267V205.232H301.035V207.728H299.883V208.816H301.035V213.808C301.035 215.488 302.043 216.144 303.371 216.144ZM307.103 205.92H308.511V204.56H307.103V205.92ZM307.183 216H308.415V207.728H307.183V216ZM311.274 216H312.506V211.264C312.506 209.712 313.562 208.672 314.986 208.672C316.442 208.672 317.274 209.632 317.274 211.168V216H318.506V210.864C318.506 208.896 317.338 207.552 315.338 207.552C313.914 207.552 313.05 208.272 312.506 209.168V207.728H311.274V216ZM324.798 218.592C326.11 218.592 327.214 218.224 327.95 217.488C328.622 216.816 329.006 215.84 329.006 214.56V207.728H327.774V209.216C327.102 208.32 326.094 207.552 324.542 207.552C322.574 207.552 320.654 209.04 320.654 211.456V211.488C320.654 213.872 322.558 215.36 324.542 215.36C326.062 215.36 327.07 214.576 327.79 213.616V214.592C327.79 216.528 326.606 217.536 324.782 217.536C323.598 217.536 322.542 217.168 321.598 216.48L321.038 217.44C322.142 218.208 323.422 218.592 324.798 218.592ZM324.782 214.272C323.246 214.272 321.918 213.12 321.918 211.456V211.424C321.918 209.728 323.214 208.64 324.782 208.64C326.35 208.64 327.822 209.744 327.822 211.44V211.472C327.822 213.136 326.35 214.272 324.782 214.272ZM38.6338 238H39.8658V233.264C39.8658 231.712 40.9218 230.672 42.3458 230.672C43.8018 230.672 44.6338 231.632 44.6338 233.168V238H45.8658V232.864C45.8658 230.896 44.6978 229.552 42.6978 229.552C41.2738 229.552 40.4098 230.272 39.8658 231.168V226.32H38.6338V238ZM52.1092 238.192C53.6772 238.192 54.6852 237.568 55.5172 236.64L54.7492 235.952C54.0772 236.656 53.2772 237.12 52.1412 237.12C50.6692 237.12 49.4052 236.112 49.2292 234.32H55.7892C55.8052 234.176 55.8052 234.08 55.8052 233.92C55.8052 231.504 54.3972 229.552 51.9492 229.552C49.6612 229.552 47.9812 231.472 47.9812 233.856V233.888C47.9812 236.448 49.8372 238.192 52.1092 238.192ZM49.2292 233.408C49.3892 231.792 50.4772 230.592 51.9172 230.592C53.5652 230.592 54.4292 231.904 54.5572 233.408H49.2292ZM60.4259 238.176C61.8819 238.176 62.8419 237.504 63.4179 236.752V238H64.6019V232.944C64.6019 231.888 64.3139 231.088 63.7539 230.528C63.1459 229.92 62.2499 229.616 61.0819 229.616C59.8819 229.616 58.9859 229.888 58.0739 230.304L58.4419 231.312C59.2099 230.96 59.9779 230.704 60.9539 230.704C62.5059 230.704 63.4179 231.472 63.4179 232.96V233.248C62.6819 233.04 61.9299 232.896 60.8739 232.896C58.7779 232.896 57.3379 233.824 57.3379 235.568V235.6C57.3379 237.296 58.8899 238.176 60.4259 238.176ZM60.6659 237.2C59.5459 237.2 58.5859 236.592 58.5859 235.552V235.52C58.5859 234.48 59.4499 233.808 61.0019 233.808C62.0099 233.808 62.8259 233.984 63.4339 234.16V234.96C63.4339 236.272 62.1859 237.2 60.6659 237.2ZM69.9174 238.144C70.5094 238.144 70.9734 238.016 71.4054 237.792V236.736C70.9734 236.944 70.6214 237.024 70.2054 237.024C69.3734 237.024 68.8134 236.656 68.8134 235.648V230.816H71.4374V229.728H68.8134V227.232H67.5814V229.728H66.4294V230.816H67.5814V235.808C67.5814 237.488 68.5894 238.144 69.9174 238.144ZM80.8791 238.176C82.3351 238.176 83.2951 237.504 83.8711 236.752V238H85.0551V232.944C85.0551 231.888 84.7671 231.088 84.2071 230.528C83.5991 229.92 82.7031 229.616 81.5351 229.616C80.3351 229.616 79.4391 229.888 78.5271 230.304L78.8951 231.312C79.6631 230.96 80.4311 230.704 81.4071 230.704C82.9591 230.704 83.8711 231.472 83.8711 232.96V233.248C83.1351 233.04 82.3831 232.896 81.3271 232.896C79.2311 232.896 77.7911 233.824 77.7911 235.568V235.6C77.7911 237.296 79.3431 238.176 80.8791 238.176ZM81.1191 237.2C79.9991 237.2 79.0391 236.592 79.0391 235.552V235.52C79.0391 234.48 79.9031 233.808 81.4551 233.808C82.4631 233.808 83.2791 233.984 83.8871 234.16V234.96C83.8871 236.272 82.6391 237.2 81.1191 237.2ZM87.6807 238H88.9127V233.264C88.9127 231.712 89.9687 230.672 91.3927 230.672C92.8487 230.672 93.6807 231.632 93.6807 233.168V238H94.9127V232.864C94.9127 230.896 93.7447 229.552 91.7447 229.552C90.3207 229.552 89.4567 230.272 88.9127 231.168V229.728H87.6807V238ZM101.012 238.176C102.532 238.176 103.508 237.328 104.18 236.336V238H105.412V226.32H104.18V231.312C103.54 230.384 102.548 229.552 101.012 229.552C99.0281 229.552 97.0601 231.152 97.0601 233.856V233.888C97.0601 236.608 99.0281 238.176 101.012 238.176ZM101.236 237.072C99.6841 237.072 98.3241 235.824 98.3241 233.872V233.84C98.3241 231.84 99.6361 230.656 101.236 230.656C102.772 230.656 104.228 231.936 104.228 233.84V233.872C104.228 235.776 102.772 237.072 101.236 237.072ZM116.002 238.176C117.426 238.176 118.274 237.456 118.834 236.56V238H120.05V229.728H118.834V234.464C118.834 236.016 117.762 237.056 116.354 237.056C114.898 237.056 114.066 236.096 114.066 234.56V229.728H112.834V234.864C112.834 236.832 114.002 238.176 116.002 238.176ZM122.821 240.56H124.053V236.416C124.693 237.344 125.685 238.176 127.221 238.176C129.221 238.176 131.173 236.576 131.173 233.872V233.84C131.173 231.12 129.205 229.552 127.221 229.552C125.701 229.552 124.725 230.4 124.053 231.392V229.728H122.821V240.56ZM126.997 237.072C125.461 237.072 124.005 235.792 124.005 233.872V233.84C124.005 231.952 125.461 230.656 126.997 230.656C128.565 230.656 129.909 231.904 129.909 233.856V233.888C129.909 235.888 128.597 237.072 126.997 237.072ZM141.011 238.144C141.603 238.144 142.067 238.016 142.499 237.792V236.736C142.067 236.944 141.715 237.024 141.299 237.024C140.467 237.024 139.907 236.656 139.907 235.648V230.816H142.531V229.728H139.907V227.232H138.675V229.728H137.523V230.816H138.675V235.808C138.675 237.488 139.683 238.144 141.011 238.144ZM148.254 238.192C150.75 238.192 152.59 236.208 152.59 233.872V233.84C152.59 231.504 150.766 229.552 148.286 229.552C145.79 229.552 143.966 231.536 143.966 233.872V233.904C143.966 236.24 145.774 238.192 148.254 238.192ZM148.286 237.088C146.542 237.088 145.23 235.648 145.23 233.872V233.84C145.23 232.096 146.462 230.64 148.254 230.64C149.998 230.64 151.326 232.096 151.326 233.872V233.904C151.326 235.648 150.078 237.088 148.286 237.088ZM161.106 238H162.354V226.72H161.426L158.69 227.664L158.994 228.688L161.106 228.032V238ZM169.305 238.192C171.577 238.192 173.321 236.624 173.321 234.464V234.432C173.321 232.336 171.529 230.992 169.449 230.992C167.993 230.992 166.985 231.648 166.249 232.72V232.56C166.249 230.032 167.385 227.76 169.545 227.76C170.569 227.76 171.353 228.16 172.185 228.864L172.921 227.888C171.945 227.088 170.953 226.608 169.609 226.608C166.681 226.608 164.953 229.28 164.953 232.688V232.72C164.953 235.008 165.465 236.16 166.361 237.056C167.065 237.76 168.073 238.192 169.305 238.192ZM169.321 237.072C167.673 237.072 166.489 235.984 166.489 234.56V234.528C166.489 233.28 167.609 232.08 169.289 232.08C170.905 232.08 172.025 233.104 172.025 234.48V234.512C172.025 235.936 170.969 237.072 169.321 237.072ZM180.509 238H181.741V233.264C181.741 231.712 182.797 230.672 184.221 230.672C185.677 230.672 186.509 231.632 186.509 233.168V238H187.741V232.864C187.741 230.896 186.573 229.552 184.573 229.552C183.149 229.552 182.285 230.272 181.741 231.168V226.32H180.509V238ZM194.144 238.192C196.64 238.192 198.48 236.208 198.48 233.872V233.84C198.48 231.504 196.656 229.552 194.176 229.552C191.68 229.552 189.856 231.536 189.856 233.872V233.904C189.856 236.24 191.664 238.192 194.144 238.192ZM194.176 237.088C192.432 237.088 191.12 235.648 191.12 233.872V233.84C191.12 232.096 192.352 230.64 194.144 230.64C195.888 230.64 197.216 232.096 197.216 233.872V233.904C197.216 235.648 195.968 237.088 194.176 237.088ZM203.752 238.176C205.176 238.176 206.024 237.456 206.584 236.56V238H207.8V229.728H206.584V234.464C206.584 236.016 205.512 237.056 204.104 237.056C202.648 237.056 201.816 236.096 201.816 234.56V229.728H200.584V234.864C200.584 236.832 201.752 238.176 203.752 238.176ZM210.571 238H211.803V234.704C211.803 232.208 213.275 230.912 215.083 230.912H215.179V229.584C213.611 229.52 212.411 230.512 211.803 231.888V229.728H210.571V238ZM219.792 238.16C221.44 238.16 222.736 237.248 222.736 235.68V235.648C222.736 234.16 221.36 233.664 220.08 233.28C218.976 232.944 217.952 232.64 217.952 231.856V231.824C217.952 231.136 218.576 230.624 219.552 230.624C220.352 230.624 221.232 230.928 222 231.424L222.56 230.496C221.712 229.936 220.592 229.584 219.584 229.584C217.952 229.584 216.768 230.528 216.768 231.952V231.984C216.768 233.504 218.208 233.952 219.504 234.32C220.592 234.624 221.568 234.944 221.568 235.776V235.808C221.568 236.608 220.848 237.12 219.856 237.12C218.88 237.12 217.888 236.736 216.992 236.064L216.368 236.944C217.296 237.696 218.608 238.16 219.792 238.16ZM229.821 240.56H231.053V236.416C231.693 237.344 232.685 238.176 234.221 238.176C236.221 238.176 238.173 236.576 238.173 233.872V233.84C238.173 231.12 236.205 229.552 234.221 229.552C232.701 229.552 231.725 230.4 231.053 231.392V229.728H229.821V240.56ZM233.997 237.072C232.461 237.072 231.005 235.792 231.005 233.872V233.84C231.005 231.952 232.461 230.656 233.997 230.656C235.565 230.656 236.909 231.904 236.909 233.856V233.888C236.909 235.888 235.597 237.072 233.997 237.072ZM242.91 238.176C244.366 238.176 245.326 237.504 245.902 236.752V238H247.086V232.944C247.086 231.888 246.798 231.088 246.238 230.528C245.63 229.92 244.734 229.616 243.566 229.616C242.366 229.616 241.47 229.888 240.558 230.304L240.926 231.312C241.694 230.96 242.462 230.704 243.438 230.704C244.99 230.704 245.902 231.472 245.902 232.96V233.248C245.166 233.04 244.414 232.896 243.358 232.896C241.262 232.896 239.822 233.824 239.822 235.568V235.6C239.822 237.296 241.374 238.176 242.91 238.176ZM243.15 237.2C242.03 237.2 241.07 236.592 241.07 235.552V235.52C241.07 234.48 241.934 233.808 243.486 233.808C244.494 233.808 245.31 233.984 245.918 234.16V234.96C245.918 236.272 244.67 237.2 243.15 237.2ZM249.744 227.92H251.152V226.56H249.744V227.92ZM249.824 238H251.056V229.728H249.824V238ZM253.915 238H255.147V233.264C255.147 231.712 256.203 230.672 257.627 230.672C259.083 230.672 259.915 231.632 259.915 233.168V238H261.147V232.864C261.147 230.896 259.979 229.552 257.979 229.552C256.555 229.552 255.691 230.272 255.147 231.168V229.728H253.915V238ZM268.571 238H269.803V234.704C269.803 232.208 271.275 230.912 273.083 230.912H273.179V229.584C271.611 229.52 270.411 230.512 269.803 231.888V229.728H268.571V238ZM278.312 238.192C279.88 238.192 280.888 237.568 281.72 236.64L280.952 235.952C280.28 236.656 279.48 237.12 278.344 237.12C276.872 237.12 275.608 236.112 275.432 234.32H281.992C282.008 234.176 282.008 234.08 282.008 233.92C282.008 231.504 280.6 229.552 278.152 229.552C275.864 229.552 274.184 231.472 274.184 233.856V233.888C274.184 236.448 276.04 238.192 278.312 238.192ZM275.432 233.408C275.592 231.792 276.68 230.592 278.12 230.592C279.768 230.592 280.632 231.904 280.76 233.408H275.432ZM284.277 238H285.509V226.32H284.277V238ZM288.4 227.92H289.808V226.56H288.4V227.92ZM288.48 238H289.712V229.728H288.48V238ZM296.187 238.192C297.755 238.192 298.763 237.568 299.595 236.64L298.827 235.952C298.155 236.656 297.355 237.12 296.219 237.12C294.747 237.12 293.483 236.112 293.307 234.32H299.867C299.883 234.176 299.883 234.08 299.883 233.92C299.883 231.504 298.475 229.552 296.027 229.552C293.739 229.552 292.059 231.472 292.059 233.856V233.888C292.059 236.448 293.915 238.192 296.187 238.192ZM293.307 233.408C293.467 231.792 294.555 230.592 295.995 230.592C297.643 230.592 298.507 231.904 298.635 233.408H293.307ZM302.504 238H303.736V230.816H306.344V229.76H303.72V229.088C303.72 227.904 304.2 227.328 305.16 227.328C305.576 227.328 305.912 227.408 306.36 227.536V226.464C305.96 226.32 305.576 226.256 305 226.256C304.248 226.256 303.64 226.48 303.224 226.896C302.76 227.36 302.504 228.08 302.504 229.024V229.744H301.368V230.816H302.504V238ZM307.052 238H308.524V236.32H307.052V238ZM21.9112 260H23.1912V249.968H26.9512V248.8H18.1512V249.968H21.9112V260ZM28.8682 260H30.1002V255.264C30.1002 253.712 31.1562 252.672 32.5802 252.672C34.0362 252.672 34.8682 253.632 34.8682 255.168V260H36.1002V254.864C36.1002 252.896 34.9322 251.552 32.9322 251.552C31.5082 251.552 30.6442 252.272 30.1002 253.168V248.32H28.8682V260ZM41.1916 260.176C42.6476 260.176 43.6076 259.504 44.1836 258.752V260H45.3676V254.944C45.3676 253.888 45.0796 253.088 44.5196 252.528C43.9116 251.92 43.0156 251.616 41.8476 251.616C40.6476 251.616 39.7516 251.888 38.8396 252.304L39.2076 253.312C39.9756 252.96 40.7436 252.704 41.7196 252.704C43.2716 252.704 44.1836 253.472 44.1836 254.96V255.248C43.4476 255.04 42.6956 254.896 41.6396 254.896C39.5436 254.896 38.1036 255.824 38.1036 257.568V257.6C38.1036 259.296 39.6556 260.176 41.1916 260.176ZM41.4316 259.2C40.3116 259.2 39.3516 258.592 39.3516 257.552V257.52C39.3516 256.48 40.2156 255.808 41.7676 255.808C42.7756 255.808 43.5916 255.984 44.1996 256.16V256.96C44.1996 258.272 42.9516 259.2 41.4316 259.2ZM50.6831 260.144C51.2751 260.144 51.7391 260.016 52.1711 259.792V258.736C51.7391 258.944 51.3871 259.024 50.9711 259.024C50.1391 259.024 49.5791 258.656 49.5791 257.648V252.816H52.2031V251.728H49.5791V249.232H48.3471V251.728H47.1951V252.816H48.3471V257.808C48.3471 259.488 49.3551 260.144 50.6831 260.144ZM54.0627 252.432C55.2787 252.16 55.8387 251.536 55.8387 250.24V248.8H54.3667V250.48H54.9427C55.0067 251.168 54.6707 251.584 53.8707 251.872L54.0627 252.432ZM60.6667 260.16C62.3147 260.16 63.6107 259.248 63.6107 257.68V257.648C63.6107 256.16 62.2347 255.664 60.9547 255.28C59.8507 254.944 58.8267 254.64 58.8267 253.856V253.824C58.8267 253.136 59.4507 252.624 60.4267 252.624C61.2267 252.624 62.1067 252.928 62.8747 253.424L63.4347 252.496C62.5867 251.936 61.4667 251.584 60.4587 251.584C58.8267 251.584 57.6427 252.528 57.6427 253.952V253.984C57.6427 255.504 59.0827 255.952 60.3787 256.32C61.4667 256.624 62.4427 256.944 62.4427 257.776V257.808C62.4427 258.608 61.7227 259.12 60.7307 259.12C59.7547 259.12 58.7627 258.736 57.8667 258.064L57.2427 258.944C58.1707 259.696 59.4827 260.16 60.6667 260.16ZM73.7363 260.176C75.1603 260.176 76.0083 259.456 76.5683 258.56V260H77.7843V251.728H76.5683V256.464C76.5683 258.016 75.4963 259.056 74.0883 259.056C72.6323 259.056 71.8003 258.096 71.8003 256.56V251.728H70.5683V256.864C70.5683 258.832 71.7363 260.176 73.7363 260.176ZM80.5557 262.56H81.7877V258.416C82.4277 259.344 83.4197 260.176 84.9557 260.176C86.9557 260.176 88.9077 258.576 88.9077 255.872V255.84C88.9077 253.12 86.9397 251.552 84.9557 251.552C83.4357 251.552 82.4597 252.4 81.7877 253.392V251.728H80.5557V262.56ZM84.7317 259.072C83.1957 259.072 81.7397 257.792 81.7397 255.872V255.84C81.7397 253.952 83.1957 252.656 84.7317 252.656C86.2997 252.656 87.6437 253.904 87.6437 255.856V255.888C87.6437 257.888 86.3317 259.072 84.7317 259.072ZM98.7456 260.144C99.3376 260.144 99.8016 260.016 100.234 259.792V258.736C99.8016 258.944 99.4496 259.024 99.0336 259.024C98.2016 259.024 97.6416 258.656 97.6416 257.648V252.816H100.266V251.728H97.6416V249.232H96.4096V251.728H95.2576V252.816H96.4096V257.808C96.4096 259.488 97.4176 260.144 98.7456 260.144ZM105.988 260.192C108.484 260.192 110.324 258.208 110.324 255.872V255.84C110.324 253.504 108.5 251.552 106.02 251.552C103.524 251.552 101.7 253.536 101.7 255.872V255.904C101.7 258.24 103.508 260.192 105.988 260.192ZM106.02 259.088C104.276 259.088 102.964 257.648 102.964 255.872V255.84C102.964 254.096 104.196 252.64 105.988 252.64C107.732 252.64 109.06 254.096 109.06 255.872V255.904C109.06 257.648 107.812 259.088 106.02 259.088ZM121.017 260.16C123.401 260.16 125.225 258.88 125.225 256.976V256.944C125.225 255.616 124.249 254.704 122.921 254.208C123.961 253.728 124.841 252.928 124.841 251.632V251.6C124.841 249.872 123.065 248.64 121.017 248.64C118.969 248.64 117.193 249.872 117.193 251.6V251.632C117.193 252.928 118.073 253.728 119.113 254.208C117.769 254.688 116.809 255.632 116.809 256.96V256.992C116.809 258.864 118.633 260.16 121.017 260.16ZM121.017 253.76C119.593 253.76 118.457 252.928 118.457 251.712V251.68C118.457 250.56 119.561 249.744 121.017 249.744C122.473 249.744 123.577 250.576 123.577 251.68V251.712C123.577 252.928 122.441 253.76 121.017 253.76ZM121.017 259.056C119.177 259.056 118.089 258.08 118.089 256.96V256.928C118.089 255.68 119.385 254.8 121.017 254.8C122.649 254.8 123.945 255.68 123.945 256.928V256.96C123.945 258.096 122.857 259.056 121.017 259.056ZM132.228 260H133.46V255.264C133.46 253.712 134.516 252.672 135.94 252.672C137.396 252.672 138.228 253.632 138.228 255.168V260H139.46V254.864C139.46 252.896 138.292 251.552 136.292 251.552C134.868 251.552 134.004 252.272 133.46 253.168V248.32H132.228V260ZM145.863 260.192C148.359 260.192 150.199 258.208 150.199 255.872V255.84C150.199 253.504 148.375 251.552 145.895 251.552C143.399 251.552 141.575 253.536 141.575 255.872V255.904C141.575 258.24 143.383 260.192 145.863 260.192ZM145.895 259.088C144.151 259.088 142.839 257.648 142.839 255.872V255.84C142.839 254.096 144.071 252.64 145.863 252.64C147.607 252.64 148.935 254.096 148.935 255.872V255.904C148.935 257.648 147.687 259.088 145.895 259.088ZM155.471 260.176C156.895 260.176 157.743 259.456 158.303 258.56V260H159.519V251.728H158.303V256.464C158.303 258.016 157.231 259.056 155.823 259.056C154.367 259.056 153.535 258.096 153.535 256.56V251.728H152.303V256.864C152.303 258.832 153.471 260.176 155.471 260.176ZM162.29 260H163.522V256.704C163.522 254.208 164.994 252.912 166.802 252.912H166.898V251.584C165.33 251.52 164.13 252.512 163.522 253.888V251.728H162.29V260ZM171.51 260.16C173.158 260.16 174.454 259.248 174.454 257.68V257.648C174.454 256.16 173.078 255.664 171.798 255.28C170.694 254.944 169.67 254.64 169.67 253.856V253.824C169.67 253.136 170.294 252.624 171.27 252.624C172.07 252.624 172.95 252.928 173.718 253.424L174.278 252.496C173.43 251.936 172.31 251.584 171.302 251.584C169.67 251.584 168.486 252.528 168.486 253.952V253.984C168.486 255.504 169.926 255.952 171.222 256.32C172.31 256.624 173.286 256.944 173.286 257.776V257.808C173.286 258.608 172.566 259.12 171.574 259.12C170.598 259.12 169.606 258.736 168.71 258.064L168.086 258.944C169.014 259.696 170.326 260.16 171.51 260.16ZM183.732 260.064H184.82L187.06 253.536L189.284 260.064H190.356L193.268 251.728H191.988L189.812 258.368L187.572 251.696H186.548L184.324 258.368L182.148 251.728H180.836L183.732 260.064ZM195.321 260H196.553V255.264C196.553 253.712 197.609 252.672 199.033 252.672C200.489 252.672 201.321 253.632 201.321 255.168V260H202.553V254.864C202.553 252.896 201.385 251.552 199.385 251.552C197.961 251.552 197.097 252.272 196.553 253.168V248.32H195.321V260ZM205.213 249.92H206.621V248.56H205.213V249.92ZM205.293 260H206.525V251.728H205.293V260ZM209.496 260H210.728V248.32H209.496V260ZM217.203 260.192C218.771 260.192 219.779 259.568 220.611 258.64L219.843 257.952C219.171 258.656 218.371 259.12 217.235 259.12C215.763 259.12 214.499 258.112 214.323 256.32H220.883C220.899 256.176 220.899 256.08 220.899 255.92C220.899 253.504 219.491 251.552 217.043 251.552C214.755 251.552 213.075 253.472 213.075 255.856V255.888C213.075 258.448 214.931 260.192 217.203 260.192ZM214.323 255.408C214.483 253.792 215.571 252.592 217.011 252.592C218.659 252.592 219.523 253.904 219.651 255.408H214.323ZM231.389 258.624L228.381 251.728H227.021L230.781 259.968C230.285 261.136 229.821 261.52 229.085 261.52C228.557 261.52 228.189 261.424 227.789 261.216L227.373 262.192C227.933 262.464 228.445 262.608 229.133 262.608C230.381 262.608 231.181 261.984 231.885 260.272L235.357 251.728H234.045L231.389 258.624ZM240.597 260.192C243.093 260.192 244.933 258.208 244.933 255.872V255.84C244.933 253.504 243.109 251.552 240.629 251.552C238.133 251.552 236.309 253.536 236.309 255.872V255.904C236.309 258.24 238.117 260.192 240.597 260.192ZM240.629 259.088C238.885 259.088 237.573 257.648 237.573 255.872V255.84C237.573 254.096 238.805 252.64 240.597 252.64C242.341 252.64 243.669 254.096 243.669 255.872V255.904C243.669 257.648 242.421 259.088 240.629 259.088ZM250.205 260.176C251.629 260.176 252.477 259.456 253.037 258.56V260H254.253V251.728H253.037V256.464C253.037 258.016 251.965 259.056 250.557 259.056C249.101 259.056 248.269 258.096 248.269 256.56V251.728H247.037V256.864C247.037 258.832 248.205 260.176 250.205 260.176ZM264.013 260.064H265.101L267.341 253.536L269.565 260.064H270.637L273.549 251.728H272.269L270.093 258.368L267.853 251.696H266.829L264.605 258.368L262.429 251.728H261.117L264.013 260.064ZM278.812 260.192C280.38 260.192 281.388 259.568 282.22 258.64L281.452 257.952C280.78 258.656 279.98 259.12 278.844 259.12C277.372 259.12 276.108 258.112 275.932 256.32H282.492C282.508 256.176 282.508 256.08 282.508 255.92C282.508 253.504 281.1 251.552 278.652 251.552C276.364 251.552 274.684 253.472 274.684 255.856V255.888C274.684 258.448 276.54 260.192 278.812 260.192ZM275.932 255.408C276.092 253.792 277.18 252.592 278.62 252.592C280.268 252.592 281.132 253.904 281.26 255.408H275.932ZM287.129 260.176C288.585 260.176 289.545 259.504 290.121 258.752V260H291.305V254.944C291.305 253.888 291.017 253.088 290.457 252.528C289.849 251.92 288.953 251.616 287.785 251.616C286.585 251.616 285.689 251.888 284.777 252.304L285.145 253.312C285.913 252.96 286.681 252.704 287.657 252.704C289.209 252.704 290.121 253.472 290.121 254.96V255.248C289.385 255.04 288.633 254.896 287.577 254.896C285.481 254.896 284.041 255.824 284.041 257.568V257.6C284.041 259.296 285.593 260.176 287.129 260.176ZM287.369 259.2C286.249 259.2 285.289 258.592 285.289 257.552V257.52C285.289 256.48 286.153 255.808 287.705 255.808C288.713 255.808 289.529 255.984 290.137 256.16V256.96C290.137 258.272 288.889 259.2 287.369 259.2ZM293.931 260H295.163V256.704C295.163 254.208 296.635 252.912 298.443 252.912H298.539V251.584C296.971 251.52 295.771 252.512 295.163 253.888V251.728H293.931V260ZM307.98 260.144C308.572 260.144 309.036 260.016 309.468 259.792V258.736C309.036 258.944 308.684 259.024 308.268 259.024C307.436 259.024 306.876 258.656 306.876 257.648V252.816H309.5V251.728H306.876V249.232H305.644V251.728H304.492V252.816H305.644V257.808C305.644 259.488 306.652 260.144 307.98 260.144ZM311.681 260H312.913V255.264C312.913 253.712 313.969 252.672 315.393 252.672C316.849 252.672 317.681 253.632 317.681 255.168V260H318.913V254.864C318.913 252.896 317.745 251.552 315.745 251.552C314.321 251.552 313.457 252.272 312.913 253.168V248.32H311.681V260ZM325.156 260.192C326.724 260.192 327.732 259.568 328.564 258.64L327.796 257.952C327.124 258.656 326.324 259.12 325.188 259.12C323.716 259.12 322.452 258.112 322.276 256.32H328.836C328.852 256.176 328.852 256.08 328.852 255.92C328.852 253.504 327.444 251.552 324.996 251.552C322.708 251.552 321.028 253.472 321.028 255.856V255.888C321.028 258.448 322.884 260.192 325.156 260.192ZM322.276 255.408C322.436 253.792 323.524 252.592 324.964 252.592C326.612 252.592 327.476 253.904 327.604 255.408H322.276ZM19.8916 282H21.1236V277.264C21.1236 275.712 22.1796 274.672 23.6036 274.672C25.0596 274.672 25.8916 275.632 25.8916 277.168V282H27.1236V276.864C27.1236 274.896 25.9556 273.552 23.9556 273.552C22.5316 273.552 21.6676 274.272 21.1236 275.168V270.32H19.8916V282ZM33.367 282.192C34.935 282.192 35.943 281.568 36.775 280.64L36.007 279.952C35.335 280.656 34.535 281.12 33.399 281.12C31.927 281.12 30.663 280.112 30.487 278.32H37.047C37.063 278.176 37.063 278.08 37.063 277.92C37.063 275.504 35.655 273.552 33.207 273.552C30.919 273.552 29.239 275.472 29.239 277.856V277.888C29.239 280.448 31.095 282.192 33.367 282.192ZM30.487 277.408C30.647 275.792 31.735 274.592 33.175 274.592C34.823 274.592 35.687 275.904 35.815 277.408H30.487ZM41.6838 282.176C43.1398 282.176 44.0998 281.504 44.6758 280.752V282H45.8598V276.944C45.8598 275.888 45.5718 275.088 45.0118 274.528C44.4038 273.92 43.5078 273.616 42.3398 273.616C41.1398 273.616 40.2438 273.888 39.3318 274.304L39.6998 275.312C40.4678 274.96 41.2358 274.704 42.2118 274.704C43.7638 274.704 44.6758 275.472 44.6758 276.96V277.248C43.9398 277.04 43.1878 276.896 42.1318 276.896C40.0358 276.896 38.5958 277.824 38.5958 279.568V279.6C38.5958 281.296 40.1478 282.176 41.6838 282.176ZM41.9238 281.2C40.8038 281.2 39.8438 280.592 39.8438 279.552V279.52C39.8438 278.48 40.7078 277.808 42.2598 277.808C43.2678 277.808 44.0838 277.984 44.6918 278.16V278.96C44.6918 280.272 43.4438 281.2 41.9238 281.2ZM51.1753 282.144C51.7673 282.144 52.2313 282.016 52.6633 281.792V280.736C52.2313 280.944 51.8793 281.024 51.4633 281.024C50.6313 281.024 50.0713 280.656 50.0713 279.648V274.816H52.6953V273.728H50.0713V271.232H48.8393V273.728H47.6873V274.816H48.8393V279.808C48.8393 281.488 49.8473 282.144 51.1753 282.144ZM61.8649 282.064H62.9529L65.1929 275.536L67.4169 282.064H68.4889L71.4009 273.728H70.1209L67.9449 280.368L65.7049 273.696H64.6809L62.4569 280.368L60.2809 273.728H58.9689L61.8649 282.064ZM73.4541 282H74.6861V278.704C74.6861 276.208 76.1581 274.912 77.9661 274.912H78.0621V273.584C76.4941 273.52 75.2941 274.512 74.6861 275.888V273.728H73.4541V282ZM81.9963 282.176C83.4523 282.176 84.4123 281.504 84.9883 280.752V282H86.1723V276.944C86.1723 275.888 85.8843 275.088 85.3243 274.528C84.7163 273.92 83.8203 273.616 82.6523 273.616C81.4523 273.616 80.5563 273.888 79.6443 274.304L80.0123 275.312C80.7803 274.96 81.5483 274.704 82.5243 274.704C84.0763 274.704 84.9883 275.472 84.9883 276.96V277.248C84.2523 277.04 83.5003 276.896 82.4443 276.896C80.3483 276.896 78.9083 277.824 78.9083 279.568V279.6C78.9083 281.296 80.4603 282.176 81.9963 282.176ZM82.2363 281.2C81.1163 281.2 80.1562 280.592 80.1562 279.552V279.52C80.1562 278.48 81.0203 277.808 82.5723 277.808C83.5803 277.808 84.3963 277.984 85.0043 278.16V278.96C85.0043 280.272 83.7563 281.2 82.2363 281.2ZM88.7979 284.56H90.0299V280.416C90.6699 281.344 91.6619 282.176 93.1979 282.176C95.1979 282.176 97.1499 280.576 97.1499 277.872V277.84C97.1499 275.12 95.1819 273.552 93.1979 273.552C91.6779 273.552 90.7019 274.4 90.0299 275.392V273.728H88.7979V284.56ZM92.9739 281.072C91.4379 281.072 89.9819 279.792 89.9819 277.872V277.84C89.9819 275.952 91.4379 274.656 92.9739 274.656C94.5419 274.656 95.8859 275.904 95.8859 277.856V277.888C95.8859 279.888 94.5739 281.072 92.9739 281.072ZM104.22 284.56H105.452V280.416C106.092 281.344 107.084 282.176 108.62 282.176C110.62 282.176 112.572 280.576 112.572 277.872V277.84C112.572 275.12 110.604 273.552 108.62 273.552C107.1 273.552 106.124 274.4 105.452 275.392V273.728H104.22V284.56ZM108.396 281.072C106.86 281.072 105.404 279.792 105.404 277.872V277.84C105.404 275.952 106.86 274.656 108.396 274.656C109.964 274.656 111.308 275.904 111.308 277.856V277.888C111.308 279.888 109.996 281.072 108.396 281.072ZM114.957 282H116.189V270.32H114.957V282ZM122.088 282.176C123.512 282.176 124.36 281.456 124.92 280.56V282H126.136V273.728H124.92V278.464C124.92 280.016 123.848 281.056 122.44 281.056C120.984 281.056 120.152 280.096 120.152 278.56V273.728H118.92V278.864C118.92 280.832 120.088 282.176 122.088 282.176ZM131.643 282.16C133.291 282.16 134.587 281.248 134.587 279.68V279.648C134.587 278.16 133.211 277.664 131.931 277.28C130.827 276.944 129.803 276.64 129.803 275.856V275.824C129.803 275.136 130.427 274.624 131.403 274.624C132.203 274.624 133.083 274.928 133.851 275.424L134.411 274.496C133.563 273.936 132.443 273.584 131.435 273.584C129.803 273.584 128.619 274.528 128.619 275.952V275.984C128.619 277.504 130.059 277.952 131.355 278.32C132.443 278.624 133.419 278.944 133.419 279.776V279.808C133.419 280.608 132.699 281.12 131.707 281.12C130.731 281.12 129.739 280.736 128.843 280.064L128.219 280.944C129.147 281.696 130.459 282.16 131.643 282.16ZM144.137 282.176C145.593 282.176 146.553 281.504 147.129 280.752V282H148.313V276.944C148.313 275.888 148.025 275.088 147.465 274.528C146.857 273.92 145.961 273.616 144.793 273.616C143.593 273.616 142.697 273.888 141.785 274.304L142.153 275.312C142.921 274.96 143.689 274.704 144.665 274.704C146.217 274.704 147.129 275.472 147.129 276.96V277.248C146.393 277.04 145.641 276.896 144.585 276.896C142.489 276.896 141.049 277.824 141.049 279.568V279.6C141.049 281.296 142.601 282.176 144.137 282.176ZM144.377 281.2C143.257 281.2 142.297 280.592 142.297 279.552V279.52C142.297 278.48 143.161 277.808 144.713 277.808C145.721 277.808 146.537 277.984 147.145 278.16V278.96C147.145 280.272 145.897 281.2 144.377 281.2ZM150.939 282H152.171V277.264C152.171 275.712 153.227 274.672 154.651 274.672C156.107 274.672 156.939 275.632 156.939 277.168V282H158.171V276.864C158.171 274.896 157.003 273.552 155.003 273.552C153.579 273.552 152.715 274.272 152.171 275.168V273.728H150.939V282ZM168.059 282.176C169.515 282.176 170.475 281.504 171.051 280.752V282H172.235V276.944C172.235 275.888 171.947 275.088 171.387 274.528C170.779 273.92 169.883 273.616 168.715 273.616C167.515 273.616 166.619 273.888 165.707 274.304L166.075 275.312C166.843 274.96 167.611 274.704 168.587 274.704C170.139 274.704 171.051 275.472 171.051 276.96V277.248C170.315 277.04 169.563 276.896 168.507 276.896C166.411 276.896 164.971 277.824 164.971 279.568V279.6C164.971 281.296 166.523 282.176 168.059 282.176ZM168.299 281.2C167.179 281.2 166.219 280.592 166.219 279.552V279.52C166.219 278.48 167.083 277.808 168.635 277.808C169.643 277.808 170.459 277.984 171.067 278.16V278.96C171.067 280.272 169.819 281.2 168.299 281.2ZM178.332 282.176C179.852 282.176 180.828 281.328 181.5 280.336V282H182.732V270.32H181.5V275.312C180.86 274.384 179.868 273.552 178.332 273.552C176.348 273.552 174.38 275.152 174.38 277.856V277.888C174.38 280.608 176.348 282.176 178.332 282.176ZM178.556 281.072C177.004 281.072 175.644 279.824 175.644 277.872V277.84C175.644 275.84 176.956 274.656 178.556 274.656C180.092 274.656 181.548 275.936 181.548 277.84V277.872C181.548 279.776 180.092 281.072 178.556 281.072ZM188.957 282.176C190.477 282.176 191.453 281.328 192.125 280.336V282H193.357V270.32H192.125V275.312C191.485 274.384 190.493 273.552 188.957 273.552C186.973 273.552 185.005 275.152 185.005 277.856V277.888C185.005 280.608 186.973 282.176 188.957 282.176ZM189.181 281.072C187.629 281.072 186.269 279.824 186.269 277.872V277.84C186.269 275.84 187.581 274.656 189.181 274.656C190.717 274.656 192.173 275.936 192.173 277.84V277.872C192.173 279.776 190.717 281.072 189.181 281.072ZM196.142 271.92H197.55V270.56H196.142V271.92ZM196.222 282H197.454V273.728H196.222V282ZM203.082 282.144C203.674 282.144 204.138 282.016 204.57 281.792V280.736C204.138 280.944 203.786 281.024 203.37 281.024C202.538 281.024 201.978 280.656 201.978 279.648V274.816H204.602V273.728H201.978V271.232H200.746V273.728H199.594V274.816H200.746V279.808C200.746 281.488 201.754 282.144 203.082 282.144ZM206.814 271.92H208.222V270.56H206.814V271.92ZM206.894 282H208.126V273.728H206.894V282ZM214.761 282.192C217.257 282.192 219.097 280.208 219.097 277.872V277.84C219.097 275.504 217.273 273.552 214.793 273.552C212.297 273.552 210.473 275.536 210.473 277.872V277.904C210.473 280.24 212.281 282.192 214.761 282.192ZM214.793 281.088C213.049 281.088 211.737 279.648 211.737 277.872V277.84C211.737 276.096 212.969 274.64 214.761 274.64C216.505 274.64 217.833 276.096 217.833 277.872V277.904C217.833 279.648 216.585 281.088 214.793 281.088ZM221.329 282H222.561V277.264C222.561 275.712 223.617 274.672 225.041 274.672C226.497 274.672 227.329 275.632 227.329 277.168V282H228.561V276.864C228.561 274.896 227.393 273.552 225.393 273.552C223.969 273.552 223.105 274.272 222.561 275.168V273.728H221.329V282ZM233.653 282.176C235.109 282.176 236.069 281.504 236.645 280.752V282H237.829V276.944C237.829 275.888 237.541 275.088 236.981 274.528C236.373 273.92 235.477 273.616 234.309 273.616C233.109 273.616 232.213 273.888 231.301 274.304L231.669 275.312C232.437 274.96 233.205 274.704 234.181 274.704C235.733 274.704 236.645 275.472 236.645 276.96V277.248C235.909 277.04 235.157 276.896 234.101 276.896C232.005 276.896 230.565 277.824 230.565 279.568V279.6C230.565 281.296 232.117 282.176 233.653 282.176ZM233.893 281.2C232.773 281.2 231.812 280.592 231.812 279.552V279.52C231.812 278.48 232.677 277.808 234.229 277.808C235.237 277.808 236.053 277.984 236.661 278.16V278.96C236.661 280.272 235.413 281.2 233.893 281.2ZM240.566 282H241.798V270.32H240.566V282ZM253.118 282.16C255.502 282.16 257.326 280.88 257.326 278.976V278.944C257.326 277.616 256.35 276.704 255.022 276.208C256.062 275.728 256.942 274.928 256.942 273.632V273.6C256.942 271.872 255.166 270.64 253.118 270.64C251.07 270.64 249.294 271.872 249.294 273.6V273.632C249.294 274.928 250.174 275.728 251.214 276.208C249.87 276.688 248.91 277.632 248.91 278.96V278.992C248.91 280.864 250.734 282.16 253.118 282.16ZM253.118 275.76C251.694 275.76 250.558 274.928 250.558 273.712V273.68C250.558 272.56 251.662 271.744 253.118 271.744C254.574 271.744 255.678 272.576 255.678 273.68V273.712C255.678 274.928 254.542 275.76 253.118 275.76ZM253.118 281.056C251.278 281.056 250.19 280.08 250.19 278.96V278.928C250.19 277.68 251.486 276.8 253.118 276.8C254.75 276.8 256.046 277.68 256.046 278.928V278.96C256.046 280.096 254.958 281.056 253.118 281.056ZM264.329 282H265.561V277.264C265.561 275.712 266.617 274.672 268.041 274.672C269.497 274.672 270.329 275.632 270.329 277.168V282H271.561V276.864C271.561 274.896 270.393 273.552 268.393 273.552C266.969 273.552 266.105 274.272 265.561 275.168V270.32H264.329V282ZM277.965 282.192C280.461 282.192 282.301 280.208 282.301 277.872V277.84C282.301 275.504 280.477 273.552 277.997 273.552C275.501 273.552 273.677 275.536 273.677 277.872V277.904C273.677 280.24 275.485 282.192 277.965 282.192ZM277.997 281.088C276.253 281.088 274.941 279.648 274.941 277.872V277.84C274.941 276.096 276.173 274.64 277.965 274.64C279.709 274.64 281.036 276.096 281.036 277.872V277.904C281.036 279.648 279.789 281.088 277.997 281.088ZM287.572 282.176C288.996 282.176 289.844 281.456 290.404 280.56V282H291.62V273.728H290.404V278.464C290.404 280.016 289.332 281.056 287.924 281.056C286.468 281.056 285.636 280.096 285.636 278.56V273.728H284.404V278.864C284.404 280.832 285.572 282.176 287.572 282.176ZM294.392 282H295.624V278.704C295.624 276.208 297.096 274.912 298.904 274.912H299V273.584C297.432 273.52 296.232 274.512 295.624 275.888V273.728H294.392V282ZM303.612 282.16C305.26 282.16 306.556 281.248 306.556 279.68V279.648C306.556 278.16 305.18 277.664 303.9 277.28C302.796 276.944 301.772 276.64 301.772 275.856V275.824C301.772 275.136 302.396 274.624 303.372 274.624C304.172 274.624 305.052 274.928 305.82 275.424L306.38 274.496C305.532 273.936 304.412 273.584 303.404 273.584C301.772 273.584 300.588 274.528 300.588 275.952V275.984C300.588 277.504 302.028 277.952 303.324 278.32C304.412 278.624 305.388 278.944 305.388 279.776V279.808C305.388 280.608 304.668 281.12 303.676 281.12C302.7 281.12 301.708 280.736 300.812 280.064L300.188 280.944C301.116 281.696 302.428 282.16 303.612 282.16ZM317.418 282.192C319.914 282.192 321.754 280.208 321.754 277.872V277.84C321.754 275.504 319.93 273.552 317.45 273.552C314.954 273.552 313.13 275.536 313.13 277.872V277.904C313.13 280.24 314.938 282.192 317.418 282.192ZM317.45 281.088C315.706 281.088 314.394 279.648 314.394 277.872V277.84C314.394 276.096 315.626 274.64 317.418 274.64C319.162 274.64 320.49 276.096 320.49 277.872V277.904C320.49 279.648 319.242 281.088 317.45 281.088ZM324.449 282H325.681V274.816H328.289V273.76H325.665V273.088C325.665 271.904 326.145 271.328 327.105 271.328C327.521 271.328 327.857 271.408 328.305 271.536V270.464C327.905 270.32 327.521 270.256 326.945 270.256C326.193 270.256 325.585 270.48 325.169 270.896C324.705 271.36 324.449 272.08 324.449 273.024V273.744H323.313V274.816H324.449V282ZM55.6416 306.56H56.8736V302.416C57.5136 303.344 58.5056 304.176 60.0416 304.176C62.0416 304.176 63.9936 302.576 63.9936 299.872V299.84C63.9936 297.12 62.0256 295.552 60.0416 295.552C58.5216 295.552 57.5456 296.4 56.8736 297.392V295.728H55.6416V306.56ZM59.8176 303.072C58.2816 303.072 56.8256 301.792 56.8256 299.872V299.84C56.8256 297.952 58.2816 296.656 59.8176 296.656C61.3856 296.656 62.7296 297.904 62.7296 299.856V299.888C62.7296 301.888 61.4176 303.072 59.8176 303.072ZM68.7306 304.176C70.1866 304.176 71.1466 303.504 71.7226 302.752V304H72.9066V298.944C72.9066 297.888 72.6186 297.088 72.0586 296.528C71.4506 295.92 70.5546 295.616 69.3866 295.616C68.1866 295.616 67.2906 295.888 66.3786 296.304L66.7466 297.312C67.5146 296.96 68.2826 296.704 69.2586 296.704C70.8106 296.704 71.7226 297.472 71.7226 298.96V299.248C70.9866 299.04 70.2346 298.896 69.1786 298.896C67.0826 298.896 65.6426 299.824 65.6426 301.568V301.6C65.6426 303.296 67.1946 304.176 68.7306 304.176ZM68.9706 303.2C67.8506 303.2 66.8906 302.592 66.8906 301.552V301.52C66.8906 300.48 67.7546 299.808 69.3066 299.808C70.3146 299.808 71.1306 299.984 71.7386 300.16V300.96C71.7386 302.272 70.4906 303.2 68.9706 303.2ZM75.5643 293.92H76.9723V292.56H75.5643V293.92ZM75.6443 304H76.8763V295.728H75.6443V304ZM79.7354 304H80.9674V299.264C80.9674 297.712 82.0234 296.672 83.4474 296.672C84.9034 296.672 85.7354 297.632 85.7354 299.168V304H86.9674V298.864C86.9674 296.896 85.7994 295.552 83.7994 295.552C82.3754 295.552 81.5114 296.272 80.9674 297.168V295.728H79.7354V304ZM94.3916 304H95.6236V300.704C95.6236 298.208 97.0956 296.912 98.9036 296.912H98.9996V295.584C97.4316 295.52 96.2316 296.512 95.6236 297.888V295.728H94.3916V304ZM104.133 304.192C105.701 304.192 106.709 303.568 107.541 302.64L106.773 301.952C106.101 302.656 105.301 303.12 104.165 303.12C102.693 303.12 101.429 302.112 101.253 300.32H107.813C107.829 300.176 107.829 300.08 107.829 299.92C107.829 297.504 106.421 295.552 103.973 295.552C101.685 295.552 100.005 297.472 100.005 299.856V299.888C100.005 302.448 101.861 304.192 104.133 304.192ZM101.253 299.408C101.413 297.792 102.501 296.592 103.941 296.592C105.589 296.592 106.453 297.904 106.581 299.408H101.253ZM110.097 304H111.329V292.32H110.097V304ZM114.221 293.92H115.629V292.56H114.221V293.92ZM114.301 304H115.533V295.728H114.301V304ZM122.008 304.192C123.576 304.192 124.584 303.568 125.416 302.64L124.648 301.952C123.976 302.656 123.176 303.12 122.04 303.12C120.568 303.12 119.304 302.112 119.128 300.32H125.688C125.704 300.176 125.704 300.08 125.704 299.92C125.704 297.504 124.296 295.552 121.848 295.552C119.56 295.552 117.88 297.472 117.88 299.856V299.888C117.88 302.448 119.736 304.192 122.008 304.192ZM119.128 299.408C119.288 297.792 120.376 296.592 121.816 296.592C123.464 296.592 124.328 297.904 124.456 299.408H119.128ZM128.324 304H129.556V296.816H132.164V295.76H129.54V295.088C129.54 293.904 130.02 293.328 130.98 293.328C131.396 293.328 131.732 293.408 132.18 293.536V292.464C131.78 292.32 131.396 292.256 130.82 292.256C130.068 292.256 129.46 292.48 129.044 292.896C128.58 293.36 128.324 294.08 128.324 295.024V295.744H127.188V296.816H128.324V304ZM140.996 304.176C142.452 304.176 143.412 303.504 143.988 302.752V304H145.172V298.944C145.172 297.888 144.884 297.088 144.324 296.528C143.716 295.92 142.82 295.616 141.652 295.616C140.452 295.616 139.556 295.888 138.644 296.304L139.012 297.312C139.78 296.96 140.548 296.704 141.524 296.704C143.076 296.704 143.988 297.472 143.988 298.96V299.248C143.252 299.04 142.5 298.896 141.444 298.896C139.348 298.896 137.908 299.824 137.908 301.568V301.6C137.908 303.296 139.46 304.176 140.996 304.176ZM141.236 303.2C140.116 303.2 139.156 302.592 139.156 301.552V301.52C139.156 300.48 140.02 299.808 141.572 299.808C142.58 299.808 143.396 299.984 144.004 300.16V300.96C144.004 302.272 142.756 303.2 141.236 303.2ZM148.262 304H149.494V296.816H152.102V295.76H149.478V295.088C149.478 293.904 149.958 293.328 150.918 293.328C151.334 293.328 151.67 293.408 152.118 293.536V292.464C151.718 292.32 151.334 292.256 150.758 292.256C150.006 292.256 149.398 292.48 148.982 292.896C148.518 293.36 148.262 294.08 148.262 295.024V295.744H147.126V296.816H148.262V304ZM156.441 304.144C157.033 304.144 157.497 304.016 157.929 303.792V302.736C157.497 302.944 157.145 303.024 156.729 303.024C155.897 303.024 155.337 302.656 155.337 301.648V296.816H157.961V295.728H155.337V293.232H154.105V295.728H152.953V296.816H154.105V301.808C154.105 303.488 155.113 304.144 156.441 304.144ZM163.523 304.192C165.091 304.192 166.099 303.568 166.931 302.64L166.163 301.952C165.491 302.656 164.691 303.12 163.555 303.12C162.083 303.12 160.819 302.112 160.643 300.32H167.203C167.219 300.176 167.219 300.08 167.219 299.92C167.219 297.504 165.811 295.552 163.363 295.552C161.075 295.552 159.395 297.472 159.395 299.856V299.888C159.395 302.448 161.251 304.192 163.523 304.192ZM160.643 299.408C160.803 297.792 161.891 296.592 163.331 296.592C164.979 296.592 165.843 297.904 165.971 299.408H160.643ZM169.376 304H170.608V300.704C170.608 298.208 172.08 296.912 173.888 296.912H173.984V295.584C172.416 295.52 171.216 296.512 170.608 297.888V295.728H169.376V304ZM184.193 302.624L181.185 295.728H179.825L183.585 303.968C183.089 305.136 182.625 305.52 181.889 305.52C181.361 305.52 180.993 305.424 180.593 305.216L180.177 306.192C180.737 306.464 181.249 306.608 181.937 306.608C183.185 306.608 183.985 305.984 184.689 304.272L188.161 295.728H186.849L184.193 302.624ZM193.402 304.192C195.898 304.192 197.738 302.208 197.738 299.872V299.84C197.738 297.504 195.914 295.552 193.434 295.552C190.938 295.552 189.114 297.536 189.114 299.872V299.904C189.114 302.24 190.922 304.192 193.402 304.192ZM193.434 303.088C191.69 303.088 190.378 301.648 190.378 299.872V299.84C190.378 298.096 191.61 296.64 193.402 296.64C195.146 296.64 196.474 298.096 196.474 299.872V299.904C196.474 301.648 195.226 303.088 193.434 303.088ZM203.01 304.176C204.434 304.176 205.282 303.456 205.842 302.56V304H207.058V295.728H205.842V300.464C205.842 302.016 204.77 303.056 203.362 303.056C201.906 303.056 201.074 302.096 201.074 300.56V295.728H199.842V300.864C199.842 302.832 201.01 304.176 203.01 304.176ZM217.394 304.144C217.986 304.144 218.45 304.016 218.882 303.792V302.736C218.45 302.944 218.098 303.024 217.682 303.024C216.85 303.024 216.29 302.656 216.29 301.648V296.816H218.914V295.728H216.29V293.232H215.058V295.728H213.906V296.816H215.058V301.808C215.058 303.488 216.066 304.144 217.394 304.144ZM223.559 304.176C225.015 304.176 225.975 303.504 226.551 302.752V304H227.735V298.944C227.735 297.888 227.447 297.088 226.887 296.528C226.279 295.92 225.383 295.616 224.215 295.616C223.015 295.616 222.119 295.888 221.207 296.304L221.575 297.312C222.343 296.96 223.111 296.704 224.087 296.704C225.639 296.704 226.551 297.472 226.551 298.96V299.248C225.815 299.04 225.063 298.896 224.007 298.896C221.911 298.896 220.471 299.824 220.471 301.568V301.6C220.471 303.296 222.023 304.176 223.559 304.176ZM223.799 303.2C222.679 303.2 221.719 302.592 221.719 301.552V301.52C221.719 300.48 222.583 299.808 224.135 299.808C225.143 299.808 225.959 299.984 226.567 300.16V300.96C226.567 302.272 225.319 303.2 223.799 303.2ZM230.36 304H231.592V301.84L233.272 300.144L236.232 304H237.704L234.12 299.28L237.592 295.728H236.056L231.592 300.384V292.32H230.36V304ZM242.68 304.192C244.248 304.192 245.256 303.568 246.088 302.64L245.32 301.952C244.648 302.656 243.848 303.12 242.712 303.12C241.24 303.12 239.976 302.112 239.799 300.32H246.36C246.376 300.176 246.376 300.08 246.376 299.92C246.376 297.504 244.968 295.552 242.52 295.552C240.232 295.552 238.552 297.472 238.552 299.856V299.888C238.552 302.448 240.408 304.192 242.68 304.192ZM239.799 299.408C239.96 297.792 241.048 296.592 242.488 296.592C244.136 296.592 245 297.904 245.128 299.408H239.799ZM253.361 293.92H254.769V292.56H253.361V293.92ZM253.441 304H254.673V295.728H253.441V304ZM260.3 304.144C260.892 304.144 261.356 304.016 261.788 303.792V302.736C261.356 302.944 261.004 303.024 260.588 303.024C259.756 303.024 259.196 302.656 259.196 301.648V296.816H261.82V295.728H259.196V293.232H257.964V295.728H256.812V296.816H257.964V301.808C257.964 303.488 258.972 304.144 260.3 304.144ZM272.574 304.192C275.07 304.192 276.91 302.208 276.91 299.872V299.84C276.91 297.504 275.086 295.552 272.606 295.552C270.11 295.552 268.286 297.536 268.286 299.872V299.904C268.286 302.24 270.094 304.192 272.574 304.192ZM272.606 303.088C270.862 303.088 269.55 301.648 269.55 299.872V299.84C269.55 298.096 270.782 296.64 272.574 296.64C274.318 296.64 275.646 298.096 275.646 299.872V299.904C275.646 301.648 274.398 303.088 272.606 303.088ZM279.606 304H280.838V296.816H283.446V295.76H280.822V295.088C280.822 293.904 281.302 293.328 282.262 293.328C282.678 293.328 283.014 293.408 283.462 293.536V292.464C283.062 292.32 282.678 292.256 282.102 292.256C281.35 292.256 280.742 292.48 280.326 292.896C279.862 293.36 279.606 294.08 279.606 295.024V295.744H278.47V296.816H279.606V304ZM285.494 304H286.71V296.816H289.318V295.76H286.71V295.088C286.71 293.904 287.174 293.328 288.15 293.328C288.566 293.328 288.902 293.408 289.334 293.536V292.464C288.95 292.32 288.55 292.256 287.974 292.256C287.222 292.256 286.63 292.48 286.198 292.896C285.734 293.36 285.494 294.08 285.494 295.024V295.744H284.358V296.816H285.494V304ZM290.045 304H291.517V302.32H290.045V304Z" fill="#540F16"/>
<defs>
<filter id="filter0_d" x="0" y="44" width="355" height="320" filterUnits="userSpaceOnUse" color-interpolation-filters="sRGB">
<feFlood flood-opacity="0" result="BackgroundImageFix"/>
<feColorMatrix in="SourceAlpha" type="matrix" values="0 0 0 0 0 0 0 0 0 0 0 0 0 0 0 0 0 0 127 0" result="hardAlpha"/>
<feOffset dx="4" dy="4"/>
<feGaussianBlur stdDeviation="5"/>
<feColorMatrix type="matrix" values="0 0 0 0 0.329412 0 0 0 0 0.0588235 0 0 0 0 0.0862745 0 0 0 0.2 0"/>
<feBlend mode="normal" in2="BackgroundImageFix" result="effect1_dropShadow"/>
<feBlend mode="normal" in="SourceGraphic" in2="effect1_dropShadow" result="shape"/>
</filter>
</defs>
</svg>
