<svg width="355" height="294" viewBox="0 0 355 294" fill="none" xmlns="http://www.w3.org/2000/svg">
<g filter="url(#filter0_d)">
<rect x="6" y="50" width="335" height="230" rx="2" fill="white"/>
</g>
<rect x="6" y="50" width="335" height="230" rx="2" fill="#F2F2F2"/>
<circle cx="173" cy="62" r="62" fill="#CC112C" fill-opacity="0.1"/>
<circle cx="173" cy="62" r="58.2041" fill="#CC112C" fill-opacity="0.1"/>
<circle cx="173" cy="62" r="55.0408" fill="#CC112C"/>
<circle cx="173" cy="62" r="50.6122" fill="white"/>
<path d="M168.024 35.9976C167.812 41.8482 164.85 44.1466 159.842 45.5396C154.834 46.9326 148.556 50.0669 148.98 72.5638" stroke="#540F16" stroke-width="3" stroke-miterlimit="10" stroke-linejoin="round"/>
<path d="M156.244 72.5641C156.244 72.5641 156.95 63.7186 156.738 59.052C156.456 53.689 164.426 77.161 157.796 89.1408" stroke="#540F16" stroke-width="3" stroke-miterlimit="10" stroke-linejoin="round"/>
<path d="M173.032 72.564V88.3048" stroke="#540F16" stroke-width="3" stroke-miterlimit="10" stroke-linejoin="round"/>
<path d="M177.969 35.9976C178.181 41.8482 181.143 44.1466 186.151 45.5396C191.159 46.9326 197.507 49.9972 197.014 72.4941" stroke="#540F16" stroke-width="3" stroke-miterlimit="10" stroke-linejoin="round"/>
<path d="M189.819 72.5641C189.819 72.5641 189.114 63.7186 189.325 59.052C189.608 53.689 181.637 77.161 188.267 89.1408" stroke="#540F16" stroke-width="3" stroke-miterlimit="10" stroke-linejoin="round"/>
<path d="M176.488 49.7191C176.982 54.5249 179.944 58.0074 182.131 59.2611" stroke="#540F16" stroke-width="3" stroke-miterlimit="10" stroke-linejoin="round"/>
<path d="M169.505 49.7186C169.011 54.5244 166.049 58.0069 163.862 59.2606" stroke="#540F16" stroke-width="3" stroke-miterlimit="10" stroke-linejoin="round"/>
<path d="M92.4973 160H94.9173V150L99.2973 156.56H99.3773L103.797 149.96V160H106.257V146H103.637L99.3773 152.62L95.1173 146H92.4973V160ZM113.221 160.22C114.861 160.22 115.841 159.36 116.521 158.36V160H118.961V149.44H116.521V155.4C116.521 157.04 115.541 158 114.141 158C112.701 158 111.881 157.08 111.881 155.44V149.44H109.461V156.16C109.461 158.62 110.841 160.22 113.221 160.22ZM125.603 160.2C127.803 160.2 129.523 159.1 129.523 156.88V156.84C129.523 154.94 127.783 154.24 126.243 153.76C125.003 153.36 123.863 153.04 123.863 152.26V152.22C123.863 151.62 124.403 151.18 125.343 151.18C126.223 151.18 127.303 151.56 128.323 152.18L129.283 150.46C128.163 149.72 126.723 149.26 125.403 149.26C123.303 149.26 121.643 150.48 121.643 152.48V152.52C121.643 154.54 123.383 155.18 124.943 155.62C126.183 156 127.303 156.28 127.303 157.1V157.14C127.303 157.84 126.703 158.28 125.663 158.28C124.583 158.28 123.363 157.84 122.203 156.98L121.123 158.62C122.443 159.66 124.103 160.2 125.603 160.2ZM136.882 160.24C138.942 160.24 140.162 159.42 141.202 158.26L139.742 156.82C138.982 157.6 138.142 158.12 137.002 158.12C135.142 158.12 133.842 156.62 133.842 154.74V154.7C133.842 152.86 135.142 151.34 136.902 151.34C138.102 151.34 138.882 151.88 139.622 152.66L141.142 151.04C140.142 149.96 138.902 149.22 136.922 149.22C133.742 149.22 131.422 151.74 131.422 154.74V154.78C131.422 157.78 133.742 160.24 136.882 160.24ZM143.568 160H145.988V145.4H143.568V160ZM153.991 160.24C155.931 160.24 157.311 159.46 158.311 158.26L156.891 157C156.051 157.82 155.211 158.26 154.031 158.26C152.471 158.26 151.251 157.3 150.991 155.58H158.751C158.771 155.34 158.791 155.12 158.791 154.9C158.791 151.86 157.091 149.22 153.731 149.22C150.711 149.22 148.571 151.7 148.571 154.72V154.76C148.571 158.02 150.931 160.24 153.991 160.24ZM150.971 153.98C151.191 152.34 152.231 151.2 153.711 151.2C155.311 151.2 156.231 152.42 156.391 153.98H150.971ZM164.841 160.2C167.041 160.2 168.761 159.1 168.761 156.88V156.84C168.761 154.94 167.021 154.24 165.481 153.76C164.241 153.36 163.101 153.04 163.101 152.26V152.22C163.101 151.62 163.641 151.18 164.581 151.18C165.461 151.18 166.541 151.56 167.561 152.18L168.521 150.46C167.401 149.72 165.961 149.26 164.641 149.26C162.541 149.26 160.881 150.48 160.881 152.48V152.52C160.881 154.54 162.621 155.18 164.181 155.62C165.421 156 166.541 156.28 166.541 157.1V157.14C166.541 157.84 165.941 158.28 164.901 158.28C163.821 158.28 162.601 157.84 161.441 156.98L160.361 158.62C161.681 159.66 163.341 160.2 164.841 160.2ZM177.237 160H179.657V155.98C179.657 153.18 181.137 151.8 183.257 151.8H183.397V149.24C181.537 149.16 180.317 150.24 179.657 151.82V149.44H177.237V160ZM189.987 160.24C191.927 160.24 193.307 159.46 194.307 158.26L192.887 157C192.047 157.82 191.207 158.26 190.027 158.26C188.467 158.26 187.247 157.3 186.987 155.58H194.747C194.767 155.34 194.787 155.12 194.787 154.9C194.787 151.86 193.087 149.22 189.727 149.22C186.707 149.22 184.567 151.7 184.567 154.72V154.76C184.567 158.02 186.927 160.24 189.987 160.24ZM186.967 153.98C187.187 152.34 188.227 151.2 189.707 151.2C191.307 151.2 192.227 152.42 192.387 153.98H186.967ZM197.357 160H199.777V145.4H197.357V160ZM205.98 160.22C207.6 160.22 208.7 159.54 209.42 158.68V160H211.78V153.74C211.78 152.36 211.42 151.24 210.64 150.48C209.9 149.72 208.72 149.3 207.14 149.3C205.46 149.3 204.32 149.64 203.16 150.16L203.8 152.06C204.76 151.66 205.64 151.4 206.82 151.4C208.52 151.4 209.44 152.2 209.44 153.7V153.96C208.62 153.7 207.78 153.52 206.6 153.52C204.02 153.52 202.24 154.64 202.24 156.92V156.96C202.24 159.08 204 160.22 205.98 160.22ZM206.66 158.46C205.5 158.46 204.6 157.88 204.6 156.86V156.82C204.6 155.72 205.52 155.06 207.08 155.06C208.04 155.06 208.86 155.24 209.48 155.48V156.2C209.48 157.54 208.26 158.46 206.66 158.46ZM216.538 149.44H213.898L217.618 154.62L213.758 160H216.338L218.918 156.24L221.518 160H224.158L220.278 154.6L223.998 149.44H221.418L218.978 152.98L216.538 149.44ZM226.32 147.82H228.92V145.52H226.32V147.82ZM226.42 160H228.84V149.44H226.42V160ZM232.002 160H234.422V154.04C234.422 152.4 235.402 151.42 236.802 151.42C238.242 151.42 239.062 152.36 239.062 154V160H241.482V153.26C241.482 150.82 240.102 149.22 237.722 149.22C236.082 149.22 235.102 150.08 234.422 151.06V149.44H232.002V160ZM249.105 163.24C251.005 163.24 252.485 162.78 253.445 161.82C254.325 160.94 254.785 159.62 254.785 157.84V149.44H252.365V151.02C251.545 150.04 250.445 149.22 248.665 149.22C246.205 149.22 243.865 151.06 243.865 154.18V154.22C243.865 157.32 246.185 159.16 248.665 159.16C250.405 159.16 251.505 158.36 252.385 157.22V158.04C252.385 160.16 251.205 161.28 249.045 161.28C247.605 161.28 246.425 160.86 245.285 160.16L244.385 161.98C245.745 162.8 247.365 163.24 249.105 163.24ZM249.305 157.1C247.645 157.1 246.305 155.92 246.305 154.2V154.16C246.305 152.42 247.625 151.26 249.305 151.26C250.985 151.26 252.405 152.44 252.405 154.16V154.2C252.405 155.92 250.985 157.1 249.305 157.1Z" fill="#CC112C"/>
<path d="M44.3721 198H45.6521V187.968H49.4121V186.8H40.6121V187.968H44.3721V198ZM51.3291 198H52.5611V193.264C52.5611 191.712 53.6171 190.672 55.0411 190.672C56.4971 190.672 57.3291 191.632 57.3291 193.168V198H58.5611V192.864C58.5611 190.896 57.3931 189.552 55.3931 189.552C53.9691 189.552 53.1051 190.272 52.5611 191.168V186.32H51.3291V198ZM64.8045 198.192C66.3725 198.192 67.3805 197.568 68.2125 196.64L67.4445 195.952C66.7725 196.656 65.9725 197.12 64.8365 197.12C63.3645 197.12 62.1005 196.112 61.9245 194.32H68.4845C68.5005 194.176 68.5005 194.08 68.5005 193.92C68.5005 191.504 67.0925 189.552 64.6445 189.552C62.3565 189.552 60.6765 191.472 60.6765 193.856V193.888C60.6765 196.448 62.5325 198.192 64.8045 198.192ZM61.9245 193.408C62.0845 191.792 63.1725 190.592 64.6125 190.592C66.2605 190.592 67.1245 191.904 67.2525 193.408H61.9245ZM70.6573 198H71.8893V194.704C71.8893 192.208 73.3613 190.912 75.1693 190.912H75.2653V189.584C73.6973 189.52 72.4973 190.512 71.8893 191.888V189.728H70.6573V198ZM77.1416 198H78.3736V193.28C78.3736 191.76 79.3656 190.672 80.6776 190.672C81.9896 190.672 82.8056 191.584 82.8056 193.136V198H84.0376V193.232C84.0376 191.6 85.0616 190.672 86.3096 190.672C87.6536 190.672 88.4536 191.568 88.4536 193.168V198H89.6856V192.88C89.6856 190.832 88.5176 189.552 86.6136 189.552C85.1736 189.552 84.2936 190.288 83.7016 191.2C83.2536 190.272 82.3896 189.552 81.0456 189.552C79.6536 189.552 78.9176 190.304 78.3736 191.12V189.728H77.1416V198ZM91.6084 198H92.9044L94.2324 195.04H100.328L101.64 198H103L97.8964 186.72H96.7124L91.6084 198ZM94.7284 193.888L97.2884 188.192L99.8324 193.888H94.7284ZM105.033 187.92H106.441V186.56H105.033V187.92ZM105.113 198H106.345V189.728H105.113V198ZM112.676 198.176C114.196 198.176 115.172 197.328 115.844 196.336V198H117.076V186.32H115.844V191.312C115.204 190.384 114.212 189.552 112.676 189.552C110.692 189.552 108.724 191.152 108.724 193.856V193.888C108.724 196.608 110.692 198.176 112.676 198.176ZM112.9 197.072C111.348 197.072 109.988 195.824 109.988 193.872V193.84C109.988 191.84 111.3 190.656 112.9 190.656C114.436 190.656 115.892 191.936 115.892 193.84V193.872C115.892 195.776 114.436 197.072 112.9 197.072ZM121.685 192.24C123.237 192.24 124.469 190.96 124.469 189.44V189.424C124.469 187.904 123.253 186.64 121.685 186.64C120.133 186.64 118.901 187.92 118.901 189.44V189.456C118.901 190.976 120.117 192.24 121.685 192.24ZM121.685 191.936C120.277 191.936 119.221 190.816 119.221 189.456V189.44C119.221 188.08 120.293 186.944 121.685 186.944C123.093 186.944 124.149 188.064 124.149 189.424V189.44C124.149 190.8 123.077 191.936 121.685 191.936ZM120.597 190.8H121.141V189.824H121.733L122.405 190.8H123.061L122.309 189.728C122.693 189.616 122.965 189.328 122.965 188.864C122.965 188.272 122.501 187.968 121.877 187.968H120.597V190.8ZM121.141 189.376V188.448H121.829C122.197 188.448 122.405 188.608 122.405 188.912C122.405 189.184 122.197 189.376 121.829 189.376H121.141ZM131.079 198H132.311V193.264C132.311 191.712 133.367 190.672 134.791 190.672C136.247 190.672 137.079 191.632 137.079 193.168V198H138.311V192.864C138.311 190.896 137.143 189.552 135.143 189.552C133.719 189.552 132.855 190.272 132.311 191.168V186.32H131.079V198ZM144.555 198.192C146.123 198.192 147.131 197.568 147.963 196.64L147.195 195.952C146.523 196.656 145.723 197.12 144.587 197.12C143.115 197.12 141.851 196.112 141.674 194.32H148.235C148.251 194.176 148.251 194.08 148.251 193.92C148.251 191.504 146.843 189.552 144.395 189.552C142.107 189.552 140.427 191.472 140.427 193.856V193.888C140.427 196.448 142.283 198.192 144.555 198.192ZM141.674 193.408C141.835 191.792 142.923 190.592 144.363 190.592C146.011 190.592 146.875 191.904 147.003 193.408H141.674ZM152.871 198.176C154.327 198.176 155.287 197.504 155.863 196.752V198H157.047V192.944C157.047 191.888 156.759 191.088 156.199 190.528C155.591 189.92 154.695 189.616 153.527 189.616C152.327 189.616 151.431 189.888 150.519 190.304L150.887 191.312C151.655 190.96 152.423 190.704 153.399 190.704C154.951 190.704 155.863 191.472 155.863 192.96V193.248C155.127 193.04 154.375 192.896 153.319 192.896C151.223 192.896 149.783 193.824 149.783 195.568V195.6C149.783 197.296 151.335 198.176 152.871 198.176ZM153.111 197.2C151.991 197.2 151.031 196.592 151.031 195.552V195.52C151.031 194.48 151.895 193.808 153.447 193.808C154.455 193.808 155.271 193.984 155.879 194.16V194.96C155.879 196.272 154.631 197.2 153.111 197.2ZM162.363 198.144C162.955 198.144 163.419 198.016 163.851 197.792V196.736C163.419 196.944 163.067 197.024 162.651 197.024C161.819 197.024 161.259 196.656 161.259 195.648V190.816H163.883V189.728H161.259V187.232H160.027V189.728H158.875V190.816H160.027V195.808C160.027 197.488 161.035 198.144 162.363 198.144ZM173.052 198.064H174.14L176.38 191.536L178.604 198.064H179.676L182.588 189.728H181.308L179.132 196.368L176.892 189.696H175.868L173.644 196.368L171.468 189.728H170.156L173.052 198.064ZM184.642 198H185.874V194.704C185.874 192.208 187.346 190.912 189.154 190.912H189.25V189.584C187.682 189.52 186.482 190.512 185.874 191.888V189.728H184.642V198ZM193.184 198.176C194.64 198.176 195.6 197.504 196.176 196.752V198H197.36V192.944C197.36 191.888 197.072 191.088 196.512 190.528C195.904 189.92 195.008 189.616 193.84 189.616C192.64 189.616 191.744 189.888 190.832 190.304L191.2 191.312C191.968 190.96 192.736 190.704 193.712 190.704C195.264 190.704 196.176 191.472 196.176 192.96V193.248C195.44 193.04 194.688 192.896 193.632 192.896C191.536 192.896 190.096 193.824 190.096 195.568V195.6C190.096 197.296 191.648 198.176 193.184 198.176ZM193.424 197.2C192.304 197.2 191.344 196.592 191.344 195.552V195.52C191.344 194.48 192.208 193.808 193.76 193.808C194.768 193.808 195.584 193.984 196.192 194.16V194.96C196.192 196.272 194.944 197.2 193.424 197.2ZM199.985 200.56H201.217V196.416C201.857 197.344 202.849 198.176 204.385 198.176C206.385 198.176 208.337 196.576 208.337 193.872V193.84C208.337 191.12 206.369 189.552 204.385 189.552C202.865 189.552 201.889 190.4 201.217 191.392V189.728H199.985V200.56ZM204.161 197.072C202.625 197.072 201.169 195.792 201.169 193.872V193.84C201.169 191.952 202.625 190.656 204.161 190.656C205.729 190.656 207.073 191.904 207.073 193.856V193.888C207.073 195.888 205.761 197.072 204.161 197.072ZM213.346 198.16C214.994 198.16 216.29 197.248 216.29 195.68V195.648C216.29 194.16 214.914 193.664 213.634 193.28C212.53 192.944 211.506 192.64 211.506 191.856V191.824C211.506 191.136 212.13 190.624 213.106 190.624C213.906 190.624 214.786 190.928 215.554 191.424L216.114 190.496C215.266 189.936 214.146 189.584 213.138 189.584C211.506 189.584 210.322 190.528 210.322 191.952V191.984C210.322 193.504 211.762 193.952 213.058 194.32C214.146 194.624 215.122 194.944 215.122 195.776V195.808C215.122 196.608 214.402 197.12 213.41 197.12C212.434 197.12 211.442 196.736 210.546 196.064L209.922 196.944C210.85 197.696 212.162 198.16 213.346 198.16ZM223.376 198H224.608V193.264C224.608 191.712 225.664 190.672 227.088 190.672C228.544 190.672 229.376 191.632 229.376 193.168V198H230.608V192.864C230.608 190.896 229.44 189.552 227.44 189.552C226.016 189.552 225.152 190.272 224.608 191.168V186.32H223.376V198ZM236.851 198.192C238.419 198.192 239.427 197.568 240.259 196.64L239.491 195.952C238.819 196.656 238.019 197.12 236.883 197.12C235.411 197.12 234.147 196.112 233.971 194.32H240.531C240.547 194.176 240.547 194.08 240.547 193.92C240.547 191.504 239.139 189.552 236.691 189.552C234.403 189.552 232.723 191.472 232.723 193.856V193.888C232.723 196.448 234.579 198.192 236.851 198.192ZM233.971 193.408C234.131 191.792 235.219 190.592 236.659 190.592C238.307 190.592 239.171 191.904 239.299 193.408H233.971ZM242.816 198H244.048V186.32H242.816V198ZM246.907 200.56H248.139V196.416C248.779 197.344 249.771 198.176 251.307 198.176C253.307 198.176 255.259 196.576 255.259 193.872V193.84C255.259 191.12 253.291 189.552 251.307 189.552C249.787 189.552 248.811 190.4 248.139 191.392V189.728H246.907V200.56ZM251.083 197.072C249.547 197.072 248.091 195.792 248.091 193.872V193.84C248.091 191.952 249.547 190.656 251.083 190.656C252.651 190.656 253.995 191.904 253.995 193.856V193.888C253.995 195.888 252.683 197.072 251.083 197.072ZM260.268 198.16C261.916 198.16 263.212 197.248 263.212 195.68V195.648C263.212 194.16 261.836 193.664 260.556 193.28C259.452 192.944 258.428 192.64 258.428 191.856V191.824C258.428 191.136 259.052 190.624 260.028 190.624C260.828 190.624 261.708 190.928 262.476 191.424L263.036 190.496C262.188 189.936 261.068 189.584 260.06 189.584C258.428 189.584 257.244 190.528 257.244 191.952V191.984C257.244 193.504 258.684 193.952 259.98 194.32C261.068 194.624 262.044 194.944 262.044 195.776V195.808C262.044 196.608 261.324 197.12 260.332 197.12C259.356 197.12 258.364 196.736 257.468 196.064L256.844 196.944C257.772 197.696 259.084 198.16 260.268 198.16ZM270.298 198H271.53V194.704C271.53 192.208 273.002 190.912 274.81 190.912H274.906V189.584C273.338 189.52 272.138 190.512 271.53 191.888V189.728H270.298V198ZM280.039 198.192C281.607 198.192 282.615 197.568 283.447 196.64L282.679 195.952C282.007 196.656 281.207 197.12 280.071 197.12C278.599 197.12 277.335 196.112 277.159 194.32H283.719C283.735 194.176 283.735 194.08 283.735 193.92C283.735 191.504 282.327 189.552 279.879 189.552C277.591 189.552 275.911 191.472 275.911 193.856V193.888C275.911 196.448 277.767 198.192 280.039 198.192ZM277.159 193.408C277.319 191.792 278.407 190.592 279.847 190.592C281.495 190.592 282.359 191.904 282.487 193.408H277.159ZM286.004 198H287.236V186.32H286.004V198ZM292.559 198.176C294.015 198.176 294.975 197.504 295.551 196.752V198H296.735V192.944C296.735 191.888 296.447 191.088 295.887 190.528C295.279 189.92 294.383 189.616 293.215 189.616C292.015 189.616 291.119 189.888 290.207 190.304L290.575 191.312C291.343 190.96 292.111 190.704 293.087 190.704C294.639 190.704 295.551 191.472 295.551 192.96V193.248C294.815 193.04 294.063 192.896 293.007 192.896C290.911 192.896 289.471 193.824 289.471 195.568V195.6C289.471 197.296 291.023 198.176 292.559 198.176ZM292.799 197.2C291.679 197.2 290.719 196.592 290.719 195.552V195.52C290.719 194.48 291.583 193.808 293.135 193.808C294.143 193.808 294.959 193.984 295.567 194.16V194.96C295.567 196.272 294.319 197.2 292.799 197.2ZM300.144 189.728H298.736L301.84 193.792L298.608 198H299.984L302.56 194.592L305.12 198H306.544L303.28 193.776L306.416 189.728H305.04L302.576 192.96L300.144 189.728ZM42.7699 217.176C44.2899 217.176 45.2659 216.328 45.9379 215.336V217H47.1699V205.32H45.9379V210.312C45.2979 209.384 44.3059 208.552 42.7699 208.552C40.7859 208.552 38.8179 210.152 38.8179 212.856V212.888C38.8179 215.608 40.7859 217.176 42.7699 217.176ZM42.9939 216.072C41.4419 216.072 40.0819 214.824 40.0819 212.872V212.84C40.0819 210.84 41.3939 209.656 42.9939 209.656C44.5299 209.656 45.9859 210.936 45.9859 212.84V212.872C45.9859 214.776 44.5299 216.072 42.9939 216.072ZM52.3869 217.176C53.8429 217.176 54.8029 216.504 55.3789 215.752V217H56.5629V211.944C56.5629 210.888 56.2749 210.088 55.7149 209.528C55.1069 208.92 54.2109 208.616 53.0429 208.616C51.8429 208.616 50.9469 208.888 50.0349 209.304L50.4029 210.312C51.1709 209.96 51.9389 209.704 52.9149 209.704C54.4669 209.704 55.3789 210.472 55.3789 211.96V212.248C54.6429 212.04 53.8909 211.896 52.8349 211.896C50.7389 211.896 49.2989 212.824 49.2989 214.568V214.6C49.2989 216.296 50.8509 217.176 52.3869 217.176ZM52.6269 216.2C51.5069 216.2 50.5469 215.592 50.5469 214.552V214.52C50.5469 213.48 51.4109 212.808 52.9629 212.808C53.9709 212.808 54.7869 212.984 55.3949 213.16V213.96C55.3949 215.272 54.1469 216.2 52.6269 216.2ZM59.1885 217H60.4205V212.28C60.4205 210.76 61.4125 209.672 62.7245 209.672C64.0365 209.672 64.8525 210.584 64.8525 212.136V217H66.0845V212.232C66.0845 210.6 67.1085 209.672 68.3565 209.672C69.7005 209.672 70.5005 210.568 70.5005 212.168V217H71.7325V211.88C71.7325 209.832 70.5645 208.552 68.6605 208.552C67.2205 208.552 66.3405 209.288 65.7485 210.2C65.3005 209.272 64.4365 208.552 63.0925 208.552C61.7005 208.552 60.9645 209.304 60.4205 210.12V208.728H59.1885V217ZM76.8713 217.176C78.3273 217.176 79.2873 216.504 79.8633 215.752V217H81.0473V211.944C81.0473 210.888 80.7593 210.088 80.1993 209.528C79.5913 208.92 78.6953 208.616 77.5273 208.616C76.3273 208.616 75.4313 208.888 74.5193 209.304L74.8873 210.312C75.6553 209.96 76.4233 209.704 77.3993 209.704C78.9513 209.704 79.8633 210.472 79.8633 211.96V212.248C79.1273 212.04 78.3753 211.896 77.3193 211.896C75.2233 211.896 73.7833 212.824 73.7833 214.568V214.6C73.7833 216.296 75.3353 217.176 76.8713 217.176ZM77.1113 216.2C75.9913 216.2 75.0312 215.592 75.0312 214.552V214.52C75.0312 213.48 75.8953 212.808 77.4473 212.808C78.4553 212.808 79.2713 212.984 79.8793 213.16V213.96C79.8793 215.272 78.6313 216.2 77.1113 216.2ZM87.3369 219.592C88.6489 219.592 89.7529 219.224 90.4889 218.488C91.1609 217.816 91.5449 216.84 91.5449 215.56V208.728H90.3129V210.216C89.6409 209.32 88.6329 208.552 87.0809 208.552C85.1129 208.552 83.1929 210.04 83.1929 212.456V212.488C83.1929 214.872 85.0969 216.36 87.0809 216.36C88.6009 216.36 89.6089 215.576 90.3289 214.616V215.592C90.3289 217.528 89.1449 218.536 87.3209 218.536C86.1369 218.536 85.0809 218.168 84.1369 217.48L83.5769 218.44C84.6809 219.208 85.9609 219.592 87.3369 219.592ZM87.3209 215.272C85.7849 215.272 84.4569 214.12 84.4569 212.456V212.424C84.4569 210.728 85.7529 209.64 87.3209 209.64C88.8889 209.64 90.3609 210.744 90.3609 212.44V212.472C90.3609 214.136 88.8889 215.272 87.3209 215.272ZM97.9139 217.192C99.4819 217.192 100.49 216.568 101.322 215.64L100.554 214.952C99.8819 215.656 99.0819 216.12 97.9459 216.12C96.4739 216.12 95.2099 215.112 95.0339 213.32H101.594C101.61 213.176 101.61 213.08 101.61 212.92C101.61 210.504 100.202 208.552 97.7539 208.552C95.4659 208.552 93.7859 210.472 93.7859 212.856V212.888C93.7859 215.448 95.6419 217.192 97.9139 217.192ZM95.0339 212.408C95.1939 210.792 96.2819 209.592 97.7219 209.592C99.3699 209.592 100.234 210.904 100.362 212.408H95.0339ZM107.239 217.176C108.759 217.176 109.735 216.328 110.407 215.336V217H111.639V205.32H110.407V210.312C109.767 209.384 108.775 208.552 107.239 208.552C105.255 208.552 103.287 210.152 103.287 212.856V212.888C103.287 215.608 105.255 217.176 107.239 217.176ZM107.463 216.072C105.911 216.072 104.551 214.824 104.551 212.872V212.84C104.551 210.84 105.863 209.656 107.463 209.656C108.999 209.656 110.455 210.936 110.455 212.84V212.872C110.455 214.776 108.999 216.072 107.463 216.072ZM113.944 218.952C115.16 218.68 115.72 218.056 115.72 216.76V215.32H114.248V217H114.824C114.888 217.688 114.552 218.104 113.752 218.392L113.944 218.952ZM125.878 217.144C126.47 217.144 126.934 217.016 127.366 216.792V215.736C126.934 215.944 126.582 216.024 126.166 216.024C125.334 216.024 124.774 215.656 124.774 214.648V209.816H127.398V208.728H124.774V206.232H123.542V208.728H122.39V209.816H123.542V214.808C123.542 216.488 124.55 217.144 125.878 217.144ZM129.611 206.92H131.019V205.56H129.611V206.92ZM129.691 217H130.923V208.728H129.691V217ZM137.446 219.592C138.758 219.592 139.862 219.224 140.598 218.488C141.27 217.816 141.654 216.84 141.654 215.56V208.728H140.422V210.216C139.75 209.32 138.742 208.552 137.19 208.552C135.222 208.552 133.302 210.04 133.302 212.456V212.488C133.302 214.872 135.206 216.36 137.19 216.36C138.71 216.36 139.718 215.576 140.438 214.616V215.592C140.438 217.528 139.254 218.536 137.43 218.536C136.246 218.536 135.19 218.168 134.246 217.48L133.686 218.44C134.79 219.208 136.07 219.592 137.446 219.592ZM137.43 215.272C135.894 215.272 134.566 214.12 134.566 212.456V212.424C134.566 210.728 135.862 209.64 137.43 209.64C138.998 209.64 140.47 210.744 140.47 212.44V212.472C140.47 214.136 138.998 215.272 137.43 215.272ZM144.407 217H145.639V212.264C145.639 210.712 146.695 209.672 148.119 209.672C149.575 209.672 150.407 210.632 150.407 212.168V217H151.639V211.864C151.639 209.896 150.471 208.552 148.471 208.552C147.047 208.552 146.183 209.272 145.639 210.168V205.32H144.407V217ZM157.035 217.144C157.627 217.144 158.091 217.016 158.523 216.792V215.736C158.091 215.944 157.739 216.024 157.323 216.024C156.491 216.024 155.931 215.656 155.931 214.648V209.816H158.555V208.728H155.931V206.232H154.699V208.728H153.547V209.816H154.699V214.808C154.699 216.488 155.707 217.144 157.035 217.144ZM160.287 218.952C161.503 218.68 162.063 218.056 162.063 216.76V215.32H160.591V217H161.167C161.231 217.688 160.895 218.104 160.095 218.392L160.287 218.952ZM171.918 217.176C173.374 217.176 174.334 216.504 174.91 215.752V217H176.094V211.944C176.094 210.888 175.806 210.088 175.246 209.528C174.638 208.92 173.742 208.616 172.574 208.616C171.374 208.616 170.478 208.888 169.566 209.304L169.934 210.312C170.702 209.96 171.47 209.704 172.446 209.704C173.998 209.704 174.91 210.472 174.91 211.96V212.248C174.174 212.04 173.422 211.896 172.366 211.896C170.27 211.896 168.83 212.824 168.83 214.568V214.6C168.83 216.296 170.382 217.176 171.918 217.176ZM172.158 216.2C171.038 216.2 170.078 215.592 170.078 214.552V214.52C170.078 213.48 170.942 212.808 172.494 212.808C173.502 212.808 174.318 212.984 174.926 213.16V213.96C174.926 215.272 173.678 216.2 172.158 216.2ZM178.72 217H179.952V212.264C179.952 210.712 181.008 209.672 182.432 209.672C183.888 209.672 184.72 210.632 184.72 212.168V217H185.952V211.864C185.952 209.896 184.784 208.552 182.784 208.552C181.36 208.552 180.496 209.272 179.952 210.168V208.728H178.72V217ZM192.051 217.176C193.571 217.176 194.547 216.328 195.219 215.336V217H196.451V205.32H195.219V210.312C194.579 209.384 193.587 208.552 192.051 208.552C190.067 208.552 188.099 210.152 188.099 212.856V212.888C188.099 215.608 190.067 217.176 192.051 217.176ZM192.275 216.072C190.723 216.072 189.363 214.824 189.363 212.872V212.84C189.363 210.84 190.675 209.656 192.275 209.656C193.811 209.656 195.267 210.936 195.267 212.84V212.872C195.267 214.776 193.811 216.072 192.275 216.072ZM206.737 217.16C208.385 217.16 209.681 216.248 209.681 214.68V214.648C209.681 213.16 208.305 212.664 207.025 212.28C205.921 211.944 204.897 211.64 204.897 210.856V210.824C204.897 210.136 205.521 209.624 206.497 209.624C207.297 209.624 208.177 209.928 208.945 210.424L209.505 209.496C208.657 208.936 207.537 208.584 206.529 208.584C204.897 208.584 203.713 209.528 203.713 210.952V210.984C203.713 212.504 205.153 212.952 206.449 213.32C207.537 213.624 208.513 213.944 208.513 214.776V214.808C208.513 215.608 207.793 216.12 206.801 216.12C205.825 216.12 204.833 215.736 203.937 215.064L203.313 215.944C204.241 216.696 205.553 217.16 206.737 217.16ZM215.746 217.192C218.242 217.192 220.082 215.208 220.082 212.872V212.84C220.082 210.504 218.258 208.552 215.778 208.552C213.282 208.552 211.458 210.536 211.458 212.872V212.904C211.458 215.24 213.266 217.192 215.746 217.192ZM215.778 216.088C214.034 216.088 212.722 214.648 212.722 212.872V212.84C212.722 211.096 213.954 209.64 215.746 209.64C217.49 209.64 218.818 211.096 218.818 212.872V212.904C218.818 214.648 217.57 216.088 215.778 216.088ZM222.314 217H223.546V213.704C223.546 211.208 225.018 209.912 226.826 209.912H226.922V208.584C225.354 208.52 224.154 209.512 223.546 210.888V208.728H222.314V217ZM232.055 217.192C233.623 217.192 234.631 216.568 235.463 215.64L234.695 214.952C234.023 215.656 233.223 216.12 232.087 216.12C230.615 216.12 229.351 215.112 229.174 213.32H235.735C235.751 213.176 235.751 213.08 235.751 212.92C235.751 210.504 234.343 208.552 231.895 208.552C229.607 208.552 227.927 210.472 227.927 212.856V212.888C227.927 215.448 229.783 217.192 232.055 217.192ZM229.174 212.408C229.335 210.792 230.423 209.592 231.863 209.592C233.511 209.592 234.375 210.904 234.503 212.408H229.174ZM242.704 217H243.936V212.28C243.936 210.76 244.928 209.672 246.24 209.672C247.552 209.672 248.368 210.584 248.368 212.136V217H249.6V212.232C249.6 210.6 250.624 209.672 251.872 209.672C253.216 209.672 254.016 210.568 254.016 212.168V217H255.248V211.88C255.248 209.832 254.08 208.552 252.176 208.552C250.736 208.552 249.856 209.288 249.264 210.2C248.816 209.272 247.952 208.552 246.608 208.552C245.216 208.552 244.48 209.304 243.936 210.12V208.728H242.704V217ZM260.963 217.176C262.387 217.176 263.235 216.456 263.795 215.56V217H265.011V208.728H263.795V213.464C263.795 215.016 262.723 216.056 261.315 216.056C259.859 216.056 259.027 215.096 259.027 213.56V208.728H257.795V213.864C257.795 215.832 258.963 217.176 260.963 217.176ZM270.518 217.16C272.166 217.16 273.462 216.248 273.462 214.68V214.648C273.462 213.16 272.086 212.664 270.806 212.28C269.702 211.944 268.678 211.64 268.678 210.856V210.824C268.678 210.136 269.302 209.624 270.278 209.624C271.078 209.624 271.958 209.928 272.726 210.424L273.286 209.496C272.438 208.936 271.318 208.584 270.31 208.584C268.678 208.584 267.494 209.528 267.494 210.952V210.984C267.494 212.504 268.934 212.952 270.23 213.32C271.318 213.624 272.294 213.944 272.294 214.776V214.808C272.294 215.608 271.574 216.12 270.582 216.12C269.606 216.12 268.614 215.736 267.718 215.064L267.094 215.944C268.022 216.696 269.334 217.16 270.518 217.16ZM279.479 217.192C281.031 217.192 282.023 216.52 282.855 215.592L282.071 214.856C281.415 215.56 280.599 216.088 279.543 216.088C277.815 216.088 276.503 214.664 276.503 212.872V212.84C276.503 211.064 277.783 209.64 279.463 209.64C280.583 209.64 281.319 210.2 281.975 210.888L282.791 210.024C282.023 209.208 281.047 208.552 279.479 208.552C277.063 208.552 275.239 210.536 275.239 212.872V212.904C275.239 215.224 277.063 217.192 279.479 217.192ZM285.004 217H286.236V205.32H285.004V217ZM292.711 217.192C294.279 217.192 295.287 216.568 296.119 215.64L295.351 214.952C294.679 215.656 293.879 216.12 292.743 216.12C291.271 216.12 290.007 215.112 289.831 213.32H296.391C296.407 213.176 296.407 213.08 296.407 212.92C296.407 210.504 294.999 208.552 292.551 208.552C290.263 208.552 288.583 210.472 288.583 212.856V212.888C288.583 215.448 290.439 217.192 292.711 217.192ZM289.831 212.408C289.991 210.792 291.079 209.592 292.519 209.592C294.167 209.592 295.031 210.904 295.159 212.408H289.831ZM301.299 217.16C302.948 217.16 304.244 216.248 304.244 214.68V214.648C304.244 213.16 302.868 212.664 301.588 212.28C300.484 211.944 299.46 211.64 299.46 210.856V210.824C299.46 210.136 300.084 209.624 301.06 209.624C301.86 209.624 302.74 209.928 303.508 210.424L304.068 209.496C303.22 208.936 302.1 208.584 301.092 208.584C299.46 208.584 298.276 209.528 298.276 210.952V210.984C298.276 212.504 299.716 212.952 301.012 213.32C302.1 213.624 303.076 213.944 303.076 214.776V214.808C303.076 215.608 302.356 216.12 301.364 216.12C300.388 216.12 299.396 215.736 298.5 215.064L297.876 215.944C298.804 216.696 300.116 217.16 301.299 217.16ZM306.084 218.952C307.3 218.68 307.86 218.056 307.86 216.76V215.32H306.388V217H306.964C307.028 217.688 306.692 218.104 305.892 218.392L306.084 218.952ZM99.2283 225.92H100.636V224.56H99.2283V225.92ZM99.3083 236H100.54V227.728H99.3083V236ZM103.399 236H104.631V231.28C104.631 229.76 105.623 228.672 106.935 228.672C108.247 228.672 109.063 229.584 109.063 231.136V236H110.295V231.232C110.295 229.6 111.319 228.672 112.567 228.672C113.911 228.672 114.711 229.568 114.711 231.168V236H115.943V230.88C115.943 228.832 114.775 227.552 112.871 227.552C111.431 227.552 110.551 228.288 109.959 229.2C109.511 228.272 108.647 227.552 107.303 227.552C105.911 227.552 105.175 228.304 104.631 229.12V227.728H103.399V236ZM118.618 238.56H119.85V234.416C120.49 235.344 121.482 236.176 123.018 236.176C125.018 236.176 126.97 234.576 126.97 231.872V231.84C126.97 229.12 125.002 227.552 123.018 227.552C121.498 227.552 120.522 228.4 119.85 229.392V227.728H118.618V238.56ZM122.794 235.072C121.258 235.072 119.802 233.792 119.802 231.872V231.84C119.802 229.952 121.258 228.656 122.794 228.656C124.362 228.656 125.706 229.904 125.706 231.856V231.888C125.706 233.888 124.394 235.072 122.794 235.072ZM129.243 236H130.475V232.704C130.475 230.208 131.947 228.912 133.755 228.912H133.851V227.584C132.283 227.52 131.083 228.512 130.475 229.888V227.728H129.243V236ZM139.144 236.192C141.64 236.192 143.48 234.208 143.48 231.872V231.84C143.48 229.504 141.656 227.552 139.176 227.552C136.68 227.552 134.856 229.536 134.856 231.872V231.904C134.856 234.24 136.664 236.192 139.144 236.192ZM139.176 235.088C137.432 235.088 136.12 233.648 136.12 231.872V231.84C136.12 230.096 137.352 228.64 139.144 228.64C140.888 228.64 142.216 230.096 142.216 231.872V231.904C142.216 233.648 140.968 235.088 139.176 235.088ZM147.996 236.064H149.084L152.684 227.728H151.356L148.556 234.592L145.772 227.728H144.412L147.996 236.064ZM157.75 236.192C159.318 236.192 160.326 235.568 161.158 234.64L160.39 233.952C159.718 234.656 158.918 235.12 157.782 235.12C156.31 235.12 155.046 234.112 154.87 232.32H161.43C161.446 232.176 161.446 232.08 161.446 231.92C161.446 229.504 160.038 227.552 157.59 227.552C155.302 227.552 153.622 229.472 153.622 231.856V231.888C153.622 234.448 155.478 236.192 157.75 236.192ZM154.87 231.408C155.03 229.792 156.118 228.592 157.558 228.592C159.206 228.592 160.07 229.904 160.198 231.408H154.87ZM166.339 236.16C167.987 236.16 169.283 235.248 169.283 233.68V233.648C169.283 232.16 167.907 231.664 166.627 231.28C165.523 230.944 164.499 230.64 164.499 229.856V229.824C164.499 229.136 165.123 228.624 166.099 228.624C166.899 228.624 167.779 228.928 168.547 229.424L169.107 228.496C168.259 227.936 167.139 227.584 166.131 227.584C164.499 227.584 163.315 228.528 163.315 229.952V229.984C163.315 231.504 164.755 231.952 166.051 232.32C167.139 232.624 168.115 232.944 168.115 233.776V233.808C168.115 234.608 167.395 235.12 166.403 235.12C165.427 235.12 164.435 234.736 163.539 234.064L162.915 234.944C163.843 235.696 165.155 236.16 166.339 236.16ZM176.832 236H178.064V228.816H180.672V227.76H178.048V227.088C178.048 225.904 178.528 225.328 179.488 225.328C179.904 225.328 180.24 225.408 180.688 225.536V224.464C180.288 224.32 179.904 224.256 179.328 224.256C178.576 224.256 177.968 224.48 177.552 224.896C177.088 225.36 176.832 226.08 176.832 227.024V227.744H175.696V228.816H176.832V236ZM182.368 236H183.584V224.32H182.368V236ZM190.078 236.192C191.646 236.192 192.654 235.568 193.486 234.64L192.718 233.952C192.046 234.656 191.246 235.12 190.11 235.12C188.638 235.12 187.374 234.112 187.198 232.32H193.758C193.774 232.176 193.774 232.08 193.774 231.92C193.774 229.504 192.366 227.552 189.918 227.552C187.63 227.552 185.95 229.472 185.95 231.856V231.888C185.95 234.448 187.806 236.192 190.078 236.192ZM187.198 231.408C187.358 229.792 188.446 228.592 189.886 228.592C191.534 228.592 192.398 229.904 192.526 231.408H187.198ZM196.23 227.728H194.822L197.926 231.792L194.694 236H196.07L198.646 232.592L201.206 236H202.63L199.366 231.776L202.502 227.728H201.126L198.662 230.96L196.23 227.728ZM204.666 225.92H206.074V224.56H204.666V225.92ZM204.746 236H205.978V227.728H204.746V236ZM213.237 236.176C215.237 236.176 217.189 234.576 217.189 231.872V231.84C217.189 229.12 215.221 227.552 213.237 227.552C211.717 227.552 210.741 228.4 210.069 229.392V224.32H208.837V236H210.069V234.416C210.709 235.344 211.701 236.176 213.237 236.176ZM213.013 235.072C211.477 235.072 210.021 233.792 210.021 231.872V231.84C210.021 229.952 211.477 228.656 213.013 228.656C214.581 228.656 215.925 229.904 215.925 231.856V231.888C215.925 233.888 214.613 235.072 213.013 235.072ZM219.494 225.92H220.902V224.56H219.494V225.92ZM219.574 236H220.806V227.728H219.574V236ZM223.777 236H225.009V224.32H223.777V236ZM227.9 225.92H229.308V224.56H227.9V225.92ZM227.98 236H229.212V227.728H227.98V236ZM234.839 236.144C235.431 236.144 235.895 236.016 236.327 235.792V234.736C235.895 234.944 235.543 235.024 235.127 235.024C234.295 235.024 233.735 234.656 233.735 233.648V228.816H236.359V227.728H233.735V225.232H232.503V227.728H231.351V228.816H232.503V233.808C232.503 235.488 233.511 236.144 234.839 236.144ZM242.076 234.624L239.068 227.728H237.708L241.468 235.968C240.972 237.136 240.508 237.52 239.772 237.52C239.244 237.52 238.876 237.424 238.476 237.216L238.06 238.192C238.62 238.464 239.132 238.608 239.82 238.608C241.068 238.608 241.868 237.984 242.572 236.272L246.044 227.728H244.732L242.076 234.624ZM246.49 236H247.962V234.32H246.49V236Z" fill="#540F16"/>
<defs>
<filter id="filter0_d" x="0" y="44" width="355" height="250" filterUnits="userSpaceOnUse" color-interpolation-filters="sRGB">
<feFlood flood-opacity="0" result="BackgroundImageFix"/>
<feColorMatrix in="SourceAlpha" type="matrix" values="0 0 0 0 0 0 0 0 0 0 0 0 0 0 0 0 0 0 127 0" result="hardAlpha"/>
<feOffset dx="4" dy="4"/>
<feGaussianBlur stdDeviation="5"/>
<feColorMatrix type="matrix" values="0 0 0 0 0.329412 0 0 0 0 0.0588235 0 0 0 0 0.0862745 0 0 0 0.2 0"/>
<feBlend mode="normal" in2="BackgroundImageFix" result="effect1_dropShadow"/>
<feBlend mode="normal" in="SourceGraphic" in2="effect1_dropShadow" result="shape"/>
</filter>
</defs>
</svg>
