<svg width="355" height="294" viewBox="0 0 355 294" fill="none" xmlns="http://www.w3.org/2000/svg">
<g filter="url(#filter0_d)">
<rect x="6" y="50" width="335" height="230" rx="2" fill="white"/>
</g>
<rect x="6" y="50" width="335" height="230" rx="2" fill="#F2F2F2"/>
<circle cx="173" cy="62" r="62" fill="#CC112C" fill-opacity="0.1"/>
<circle cx="173" cy="62.0001" r="58.2041" fill="#CC112C" fill-opacity="0.1"/>
<circle cx="173" cy="62" r="55.0408" fill="#CC112C"/>
<circle cx="173" cy="62.0001" r="50.6122" fill="white"/>
<path d="M157.348 58.1742H164.826L166.724 52.1919L169.888 67.1476L174.144 47.36L177.481 63.006L179.494 58.1166H187.259" stroke="#540F16" stroke-width="3" stroke-miterlimit="10" stroke-linejoin="round"/>
<path d="M159.649 44.2541C160.742 42.0107 165.056 35.7984 173.166 41.4355" stroke="#540F16" stroke-width="3" stroke-miterlimit="10" stroke-linejoin="round"/>
<path d="M181.219 42.1832C184.327 40.9753 192.781 44.254 192.781 53.0548" stroke="#540F16" stroke-width="3" stroke-miterlimit="10" stroke-linejoin="round"/>
<path d="M194.622 71.5196C193.644 74.9709 189.848 77.0417 187.259 77.1567" stroke="#540F16" stroke-width="3" stroke-miterlimit="10" stroke-linejoin="round"/>
<path d="M177.998 73.8203C178.458 76.5814 180.126 78.9973 184.613 79.63C189.1 80.2628 190.94 86.0725 190.94 86.0725" stroke="#540F16" stroke-width="3" stroke-miterlimit="10" stroke-linejoin="round"/>
<path d="M189.618 76.5813C193.587 78.7096 193.989 85.3821 193.989 85.3821" stroke="#540F16" stroke-width="3" stroke-miterlimit="10" stroke-linejoin="round"/>
<path d="M148.259 56.2184C144.062 59.6697 144.349 74.0501 160.166 71.6342" stroke="#540F16" stroke-width="3" stroke-miterlimit="10" stroke-linejoin="round"/>
<path d="M152.228 61.9708C153.781 63.4088 155.104 64.3867 157.98 62.6611" stroke="#540F16" stroke-width="3" stroke-miterlimit="10" stroke-linejoin="round"/>
<path d="M155.852 63.6389C155.795 66.1698 157.635 67.4928 159.649 67.953" stroke="#540F16" stroke-width="3" stroke-miterlimit="10" stroke-linejoin="round"/>
<path d="M172.476 43.4487C172.476 40.9752 174.489 38.962 176.963 38.962C179.436 38.962 181.449 40.9752 181.449 43.4487" stroke="#540F16" stroke-width="3" stroke-miterlimit="10" stroke-linejoin="round"/>
<path d="M191.573 53.3424C193.874 52.4796 196.463 53.63 197.383 55.9309C198.303 58.2317 197.095 60.8202 194.794 61.7406" stroke="#540F16" stroke-width="3" stroke-miterlimit="10" stroke-linejoin="round"/>
<path d="M185.821 63.6389C187.086 65.1919 186.799 67.4353 185.303 68.6433C183.75 69.9087 181.507 69.6211 180.299 68.1256" stroke="#540F16" stroke-width="3" stroke-miterlimit="10" stroke-linejoin="round"/>
<path d="M162.18 64.1566C155.852 67.0903 161.432 82.3911 174.317 73.7628C178.228 74.223 181.047 74.223 183.463 74.1079" stroke="#540F16" stroke-width="3" stroke-miterlimit="10" stroke-linejoin="round"/>
<path d="M160.684 42.8159C156.141 40.9752 151.54 43.2761 151.883 48.9132" stroke="#540F16" stroke-width="3" stroke-miterlimit="10" stroke-linejoin="round"/>
<path d="M155.852 50.4088C152.516 45.8646 143.543 51.5593 149.065 57.2539" stroke="#540F16" stroke-width="3" stroke-miterlimit="10" stroke-linejoin="round"/>
<path d="M197.268 59.4398C198.418 60.7628 199.109 62.4885 199.109 64.3867C199.109 68.5858 195.715 71.9221 191.573 71.9221C188.985 71.9221 186.741 70.6566 185.361 68.6433" stroke="#540F16" stroke-width="3" stroke-miterlimit="10" stroke-linejoin="round"/>
<path d="M107.575 160H110.035V155.5H112.815C115.895 155.5 118.415 153.86 118.415 150.72V150.68C118.415 147.86 116.375 146 113.095 146H107.575V160ZM110.035 153.28V148.24H112.895C114.735 148.24 115.915 149.1 115.915 150.74V150.78C115.915 152.24 114.755 153.28 112.895 153.28H110.035ZM123.499 160.22C125.119 160.22 126.219 159.54 126.939 158.68V160H129.299V153.74C129.299 152.36 128.939 151.24 128.159 150.48C127.419 149.72 126.239 149.3 124.659 149.3C122.979 149.3 121.839 149.64 120.679 150.16L121.319 152.06C122.279 151.66 123.159 151.4 124.339 151.4C126.039 151.4 126.959 152.2 126.959 153.7V153.96C126.139 153.7 125.299 153.52 124.119 153.52C121.539 153.52 119.759 154.64 119.759 156.92V156.96C119.759 159.08 121.519 160.22 123.499 160.22ZM124.179 158.46C123.019 158.46 122.119 157.88 122.119 156.86V156.82C122.119 155.72 123.039 155.06 124.599 155.06C125.559 155.06 126.379 155.24 126.999 155.48V156.2C126.999 157.54 125.779 158.46 124.179 158.46ZM132.238 147.82H134.838V145.52H132.238V147.82ZM132.338 160H134.758V149.44H132.338V160ZM137.92 160H140.34V154.04C140.34 152.4 141.32 151.42 142.72 151.42C144.16 151.42 144.98 152.36 144.98 154V160H147.4V153.26C147.4 150.82 146.02 149.22 143.64 149.22C142 149.22 141.02 150.08 140.34 151.06V149.44H137.92V160ZM156.319 160H158.739V155.98C158.739 153.18 160.219 151.8 162.339 151.8H162.479V149.24C160.619 149.16 159.399 150.24 158.739 151.82V149.44H156.319V160ZM169.069 160.24C171.009 160.24 172.389 159.46 173.389 158.26L171.969 157C171.129 157.82 170.289 158.26 169.109 158.26C167.549 158.26 166.329 157.3 166.069 155.58H173.829C173.849 155.34 173.869 155.12 173.869 154.9C173.869 151.86 172.169 149.22 168.809 149.22C165.789 149.22 163.649 151.7 163.649 154.72V154.76C163.649 158.02 166.009 160.24 169.069 160.24ZM166.049 153.98C166.269 152.34 167.309 151.2 168.789 151.2C170.389 151.2 171.309 152.42 171.469 153.98H166.049ZM176.439 160H178.859V145.4H176.439V160ZM182.062 147.82H184.662V145.52H182.062V147.82ZM182.162 160H184.582V149.44H182.162V160ZM192.585 160.24C194.525 160.24 195.905 159.46 196.905 158.26L195.485 157C194.645 157.82 193.805 158.26 192.625 158.26C191.065 158.26 189.845 157.3 189.585 155.58H197.345C197.365 155.34 197.385 155.12 197.385 154.9C197.385 151.86 195.685 149.22 192.325 149.22C189.305 149.22 187.165 151.7 187.165 154.72V154.76C187.165 158.02 189.525 160.24 192.585 160.24ZM189.565 153.98C189.785 152.34 190.825 151.2 192.305 151.2C193.905 151.2 194.825 152.42 194.985 153.98H189.565ZM202.647 160.08H204.827L209.147 149.44H206.607L203.747 157.2L200.907 149.44H198.307L202.647 160.08ZM211.242 147.82H213.842V145.52H211.242V147.82ZM211.342 160H213.762V149.44H211.342V160ZM216.924 160H219.344V154.04C219.344 152.4 220.324 151.42 221.724 151.42C223.164 151.42 223.984 152.36 223.984 154V160H226.404V153.26C226.404 150.82 225.024 149.22 222.644 149.22C221.004 149.22 220.024 150.08 219.344 151.06V149.44H216.924V160ZM234.027 163.24C235.927 163.24 237.407 162.78 238.367 161.82C239.247 160.94 239.707 159.62 239.707 157.84V149.44H237.287V151.02C236.467 150.04 235.367 149.22 233.587 149.22C231.127 149.22 228.787 151.06 228.787 154.18V154.22C228.787 157.32 231.107 159.16 233.587 159.16C235.327 159.16 236.427 158.36 237.307 157.22V158.04C237.307 160.16 236.127 161.28 233.967 161.28C232.527 161.28 231.347 160.86 230.207 160.16L229.307 161.98C230.667 162.8 232.287 163.24 234.027 163.24ZM234.227 157.1C232.567 157.1 231.227 155.92 231.227 154.2V154.16C231.227 152.42 232.547 151.26 234.227 151.26C235.907 151.26 237.327 152.44 237.327 154.16V154.2C237.327 155.92 235.907 157.1 234.227 157.1Z" fill="#CC112C"/>
<path d="M71.7549 198H73.0349V187.968H76.7949V186.8H67.9949V187.968H71.7549V198ZM78.7119 198H79.9439V193.264C79.9439 191.712 80.9999 190.672 82.4239 190.672C83.8799 190.672 84.7119 191.632 84.7119 193.168V198H85.9439V192.864C85.9439 190.896 84.7759 189.552 82.7759 189.552C81.3519 189.552 80.4879 190.272 79.9439 191.168V186.32H78.7119V198ZM92.1873 198.192C93.7553 198.192 94.7633 197.568 95.5953 196.64L94.8273 195.952C94.1553 196.656 93.3553 197.12 92.2193 197.12C90.7473 197.12 89.4833 196.112 89.3073 194.32H95.8673C95.8833 194.176 95.8833 194.08 95.8833 193.92C95.8833 191.504 94.4753 189.552 92.0273 189.552C89.7393 189.552 88.0593 191.472 88.0593 193.856V193.888C88.0593 196.448 89.9153 198.192 92.1873 198.192ZM89.3073 193.408C89.4673 191.792 90.5553 190.592 91.9953 190.592C93.6433 190.592 94.5073 191.904 94.6353 193.408H89.3073ZM98.0401 198H99.2721V194.704C99.2721 192.208 100.744 190.912 102.552 190.912H102.648V189.584C101.08 189.52 99.8801 190.512 99.2721 191.888V189.728H98.0401V198ZM104.524 198H105.756V193.28C105.756 191.76 106.748 190.672 108.06 190.672C109.372 190.672 110.188 191.584 110.188 193.136V198H111.42V193.232C111.42 191.6 112.444 190.672 113.692 190.672C115.036 190.672 115.836 191.568 115.836 193.168V198H117.068V192.88C117.068 190.832 115.9 189.552 113.996 189.552C112.556 189.552 111.676 190.288 111.084 191.2C110.636 190.272 109.772 189.552 108.428 189.552C107.036 189.552 106.3 190.304 105.756 191.12V189.728H104.524V198ZM118.991 198H120.287L121.615 195.04H127.711L129.023 198H130.383L125.279 186.72H124.095L118.991 198ZM122.111 193.888L124.671 188.192L127.215 193.888H122.111ZM132.416 187.92H133.824V186.56H132.416V187.92ZM132.496 198H133.728V189.728H132.496V198ZM140.059 198.176C141.579 198.176 142.555 197.328 143.227 196.336V198H144.459V186.32H143.227V191.312C142.587 190.384 141.595 189.552 140.059 189.552C138.075 189.552 136.107 191.152 136.107 193.856V193.888C136.107 196.608 138.075 198.176 140.059 198.176ZM140.283 197.072C138.731 197.072 137.371 195.824 137.371 193.872V193.84C137.371 191.84 138.683 190.656 140.283 190.656C141.819 190.656 143.275 191.936 143.275 193.84V193.872C143.275 195.776 141.819 197.072 140.283 197.072ZM149.068 192.24C150.62 192.24 151.852 190.96 151.852 189.44V189.424C151.852 187.904 150.636 186.64 149.068 186.64C147.516 186.64 146.284 187.92 146.284 189.44V189.456C146.284 190.976 147.5 192.24 149.068 192.24ZM149.068 191.936C147.66 191.936 146.604 190.816 146.604 189.456V189.44C146.604 188.08 147.676 186.944 149.068 186.944C150.476 186.944 151.532 188.064 151.532 189.424V189.44C151.532 190.8 150.46 191.936 149.068 191.936ZM147.98 190.8H148.524V189.824H149.116L149.788 190.8H150.444L149.692 189.728C150.076 189.616 150.348 189.328 150.348 188.864C150.348 188.272 149.884 187.968 149.26 187.968H147.98V190.8ZM148.524 189.376V188.448H149.212C149.58 188.448 149.788 188.608 149.788 188.912C149.788 189.184 149.58 189.376 149.212 189.376H148.524ZM158.67 198H159.934V192.96H166.398V198H167.662V186.8H166.398V191.776H159.934V186.8H158.67V198ZM174.234 198.192C175.802 198.192 176.81 197.568 177.642 196.64L176.874 195.952C176.202 196.656 175.402 197.12 174.266 197.12C172.794 197.12 171.53 196.112 171.354 194.32H177.914C177.93 194.176 177.93 194.08 177.93 193.92C177.93 191.504 176.522 189.552 174.074 189.552C171.786 189.552 170.106 191.472 170.106 193.856V193.888C170.106 196.448 171.962 198.192 174.234 198.192ZM171.354 193.408C171.514 191.792 172.602 190.592 174.042 190.592C175.69 190.592 176.554 191.904 176.682 193.408H171.354ZM182.551 198.176C184.007 198.176 184.967 197.504 185.543 196.752V198H186.727V192.944C186.727 191.888 186.439 191.088 185.879 190.528C185.271 189.92 184.375 189.616 183.207 189.616C182.007 189.616 181.111 189.888 180.199 190.304L180.567 191.312C181.335 190.96 182.103 190.704 183.079 190.704C184.631 190.704 185.543 191.472 185.543 192.96V193.248C184.807 193.04 184.055 192.896 182.999 192.896C180.903 192.896 179.463 193.824 179.463 195.568V195.6C179.463 197.296 181.015 198.176 182.551 198.176ZM182.791 197.2C181.671 197.2 180.711 196.592 180.711 195.552V195.52C180.711 194.48 181.575 193.808 183.127 193.808C184.135 193.808 184.951 193.984 185.559 194.16V194.96C185.559 196.272 184.311 197.2 182.791 197.2ZM192.042 198.144C192.634 198.144 193.098 198.016 193.53 197.792V196.736C193.098 196.944 192.746 197.024 192.33 197.024C191.498 197.024 190.938 196.656 190.938 195.648V190.816H193.562V189.728H190.938V187.232H189.706V189.728H188.554V190.816H189.706V195.808C189.706 197.488 190.714 198.144 192.042 198.144ZM203.276 198.16C204.924 198.16 206.22 197.248 206.22 195.68V195.648C206.22 194.16 204.844 193.664 203.564 193.28C202.46 192.944 201.436 192.64 201.436 191.856V191.824C201.436 191.136 202.06 190.624 203.036 190.624C203.836 190.624 204.716 190.928 205.484 191.424L206.044 190.496C205.196 189.936 204.076 189.584 203.068 189.584C201.436 189.584 200.252 190.528 200.252 191.952V191.984C200.252 193.504 201.692 193.952 202.988 194.32C204.076 194.624 205.052 194.944 205.052 195.776V195.808C205.052 196.608 204.332 197.12 203.34 197.12C202.364 197.12 201.372 196.736 200.476 196.064L199.852 196.944C200.78 197.696 202.092 198.16 203.276 198.16ZM211.121 198.144C211.713 198.144 212.177 198.016 212.609 197.792V196.736C212.177 196.944 211.825 197.024 211.409 197.024C210.577 197.024 210.017 196.656 210.017 195.648V190.816H212.641V189.728H210.017V187.232H208.785V189.728H207.633V190.816H208.785V195.808C208.785 197.488 209.793 198.144 211.121 198.144ZM214.853 187.92H216.261V186.56H214.853V187.92ZM214.933 198H216.165V189.728H214.933V198ZM219.024 198H220.256V193.28C220.256 191.76 221.248 190.672 222.56 190.672C223.872 190.672 224.688 191.584 224.688 193.136V198H225.92V193.232C225.92 191.6 226.944 190.672 228.192 190.672C229.536 190.672 230.336 191.568 230.336 193.168V198H231.568V192.88C231.568 190.832 230.4 189.552 228.496 189.552C227.056 189.552 226.176 190.288 225.584 191.2C225.136 190.272 224.272 189.552 222.928 189.552C221.536 189.552 220.8 190.304 220.256 191.12V189.728H219.024V198ZM237.283 198.176C238.707 198.176 239.555 197.456 240.115 196.56V198H241.331V189.728H240.115V194.464C240.115 196.016 239.043 197.056 237.635 197.056C236.179 197.056 235.347 196.096 235.347 194.56V189.728H234.115V194.864C234.115 196.832 235.283 198.176 237.283 198.176ZM244.215 198H245.447V186.32H244.215V198ZM250.77 198.176C252.226 198.176 253.186 197.504 253.762 196.752V198H254.946V192.944C254.946 191.888 254.658 191.088 254.098 190.528C253.49 189.92 252.594 189.616 251.426 189.616C250.226 189.616 249.33 189.888 248.418 190.304L248.786 191.312C249.554 190.96 250.322 190.704 251.298 190.704C252.85 190.704 253.762 191.472 253.762 192.96V193.248C253.026 193.04 252.274 192.896 251.218 192.896C249.122 192.896 247.682 193.824 247.682 195.568V195.6C247.682 197.296 249.234 198.176 250.77 198.176ZM251.01 197.2C249.89 197.2 248.93 196.592 248.93 195.552V195.52C248.93 194.48 249.794 193.808 251.346 193.808C252.354 193.808 253.17 193.984 253.778 194.16V194.96C253.778 196.272 252.53 197.2 251.01 197.2ZM260.261 198.144C260.853 198.144 261.317 198.016 261.749 197.792V196.736C261.317 196.944 260.965 197.024 260.549 197.024C259.717 197.024 259.157 196.656 259.157 195.648V190.816H261.781V189.728H259.157V187.232H257.925V189.728H256.773V190.816H257.925V195.808C257.925 197.488 258.933 198.144 260.261 198.144ZM267.344 198.192C268.912 198.192 269.92 197.568 270.752 196.64L269.984 195.952C269.312 196.656 268.512 197.12 267.376 197.12C265.904 197.12 264.64 196.112 264.464 194.32H271.024C271.04 194.176 271.04 194.08 271.04 193.92C271.04 191.504 269.632 189.552 267.184 189.552C264.896 189.552 263.216 191.472 263.216 193.856V193.888C263.216 196.448 265.072 198.192 267.344 198.192ZM264.464 193.408C264.624 191.792 265.712 190.592 267.152 190.592C268.8 190.592 269.664 191.904 269.792 193.408H264.464ZM275.932 198.16C277.58 198.16 278.876 197.248 278.876 195.68V195.648C278.876 194.16 277.5 193.664 276.22 193.28C275.116 192.944 274.092 192.64 274.092 191.856V191.824C274.092 191.136 274.716 190.624 275.692 190.624C276.492 190.624 277.372 190.928 278.14 191.424L278.7 190.496C277.852 189.936 276.732 189.584 275.724 189.584C274.092 189.584 272.908 190.528 272.908 191.952V191.984C272.908 193.504 274.348 193.952 275.644 194.32C276.732 194.624 277.708 194.944 277.708 195.776V195.808C277.708 196.608 276.988 197.12 275.996 197.12C275.02 197.12 274.028 196.736 273.132 196.064L272.508 196.944C273.436 197.696 274.748 198.16 275.932 198.16ZM35.6049 217.144C36.1969 217.144 36.6609 217.016 37.0929 216.792V215.736C36.6609 215.944 36.3089 216.024 35.8929 216.024C35.0609 216.024 34.5009 215.656 34.5009 214.648V209.816H37.1249V208.728H34.5009V206.232H33.2689V208.728H32.1169V209.816H33.2689V214.808C33.2689 216.488 34.2769 217.144 35.6049 217.144ZM39.3057 217H40.5377V212.264C40.5377 210.712 41.5937 209.672 43.0177 209.672C44.4737 209.672 45.3057 210.632 45.3057 212.168V217H46.5377V211.864C46.5377 209.896 45.3697 208.552 43.3697 208.552C41.9457 208.552 41.0817 209.272 40.5377 210.168V205.32H39.3057V217ZM52.7811 217.192C54.3491 217.192 55.3571 216.568 56.1891 215.64L55.4211 214.952C54.7491 215.656 53.9491 216.12 52.8131 216.12C51.3411 216.12 50.0771 215.112 49.9011 213.32H56.4611C56.4771 213.176 56.4771 213.08 56.4771 212.92C56.4771 210.504 55.0691 208.552 52.6211 208.552C50.3331 208.552 48.6531 210.472 48.6531 212.856V212.888C48.6531 215.448 50.5091 217.192 52.7811 217.192ZM49.9011 212.408C50.0611 210.792 51.1491 209.592 52.5891 209.592C54.2371 209.592 55.1011 210.904 55.2291 212.408H49.9011ZM58.6338 217H59.8658V213.704C59.8658 211.208 61.3378 209.912 63.1458 209.912H63.2418V208.584C61.6738 208.52 60.4738 209.512 59.8658 210.888V208.728H58.6338V217ZM65.1182 217H66.3502V212.28C66.3502 210.76 67.3422 209.672 68.6542 209.672C69.9662 209.672 70.7822 210.584 70.7822 212.136V217H72.0142V212.232C72.0142 210.6 73.0382 209.672 74.2862 209.672C75.6302 209.672 76.4302 210.568 76.4302 212.168V217H77.6622V211.88C77.6622 209.832 76.4942 208.552 74.5902 208.552C73.1502 208.552 72.2702 209.288 71.6782 210.2C71.2302 209.272 70.3662 208.552 69.0222 208.552C67.6302 208.552 66.8942 209.304 66.3502 210.12V208.728H65.1182V217ZM84.1129 217.192C86.6089 217.192 88.4489 215.208 88.4489 212.872V212.84C88.4489 210.504 86.6249 208.552 84.1449 208.552C81.6489 208.552 79.8249 210.536 79.8249 212.872V212.904C79.8249 215.24 81.6329 217.192 84.1129 217.192ZM84.1449 216.088C82.4009 216.088 81.0889 214.648 81.0889 212.872V212.84C81.0889 211.096 82.3209 209.64 84.1129 209.64C85.8569 209.64 87.1849 211.096 87.1849 212.872V212.904C87.1849 214.648 85.9369 216.088 84.1449 216.088ZM90.6807 217H91.9127V213.704C91.9127 211.208 93.3847 209.912 95.1927 209.912H95.2887V208.584C93.7207 208.52 92.5207 209.512 91.9127 210.888V208.728H90.6807V217ZM100.422 217.192C101.99 217.192 102.998 216.568 103.83 215.64L103.062 214.952C102.39 215.656 101.59 216.12 100.454 216.12C98.9817 216.12 97.7177 215.112 97.5417 213.32H104.102C104.118 213.176 104.118 213.08 104.118 212.92C104.118 210.504 102.71 208.552 100.262 208.552C97.9737 208.552 96.2937 210.472 96.2937 212.856V212.888C96.2937 215.448 98.1497 217.192 100.422 217.192ZM97.5417 212.408C97.7017 210.792 98.7897 209.592 100.23 209.592C101.878 209.592 102.742 210.904 102.87 212.408H97.5417ZM110.002 217.192C111.554 217.192 112.546 216.52 113.378 215.592L112.594 214.856C111.938 215.56 111.122 216.088 110.066 216.088C108.338 216.088 107.026 214.664 107.026 212.872V212.84C107.026 211.064 108.306 209.64 109.986 209.64C111.106 209.64 111.842 210.2 112.498 210.888L113.314 210.024C112.546 209.208 111.57 208.552 110.002 208.552C107.586 208.552 105.762 210.536 105.762 212.872V212.904C105.762 215.224 107.586 217.192 110.002 217.192ZM118.797 217.192C120.365 217.192 121.373 216.568 122.205 215.64L121.437 214.952C120.765 215.656 119.965 216.12 118.829 216.12C117.357 216.12 116.093 215.112 115.917 213.32H122.477C122.493 213.176 122.493 213.08 122.493 212.92C122.493 210.504 121.085 208.552 118.637 208.552C116.349 208.552 114.669 210.472 114.669 212.856V212.888C114.669 215.448 116.525 217.192 118.797 217.192ZM115.917 212.408C116.077 210.792 117.165 209.592 118.605 209.592C120.253 209.592 121.117 210.904 121.245 212.408H115.917ZM124.649 219.56H125.881V215.416C126.521 216.344 127.513 217.176 129.049 217.176C131.049 217.176 133.001 215.576 133.001 212.872V212.84C133.001 210.12 131.033 208.552 129.049 208.552C127.529 208.552 126.553 209.4 125.881 210.392V208.728H124.649V219.56ZM128.825 216.072C127.289 216.072 125.833 214.792 125.833 212.872V212.84C125.833 210.952 127.289 209.656 128.825 209.656C130.393 209.656 131.737 210.904 131.737 212.856V212.888C131.737 214.888 130.425 216.072 128.825 216.072ZM138.042 217.144C138.634 217.144 139.098 217.016 139.53 216.792V215.736C139.098 215.944 138.746 216.024 138.33 216.024C137.498 216.024 136.938 215.656 136.938 214.648V209.816H139.562V208.728H136.938V206.232H135.706V208.728H134.554V209.816H135.706V214.808C135.706 216.488 136.714 217.144 138.042 217.144ZM145.285 217.192C147.781 217.192 149.621 215.208 149.621 212.872V212.84C149.621 210.504 147.797 208.552 145.317 208.552C142.821 208.552 140.997 210.536 140.997 212.872V212.904C140.997 215.24 142.805 217.192 145.285 217.192ZM145.317 216.088C143.573 216.088 142.261 214.648 142.261 212.872V212.84C142.261 211.096 143.493 209.64 145.285 209.64C147.029 209.64 148.357 211.096 148.357 212.872V212.904C148.357 214.648 147.109 216.088 145.317 216.088ZM151.853 217H153.085V213.704C153.085 211.208 154.557 209.912 156.365 209.912H156.461V208.584C154.893 208.52 153.693 209.512 153.085 210.888V208.728H151.853V217ZM161.073 217.16C162.721 217.16 164.017 216.248 164.017 214.68V214.648C164.017 213.16 162.641 212.664 161.361 212.28C160.257 211.944 159.233 211.64 159.233 210.856V210.824C159.233 210.136 159.857 209.624 160.833 209.624C161.633 209.624 162.513 209.928 163.281 210.424L163.841 209.496C162.993 208.936 161.873 208.584 160.865 208.584C159.233 208.584 158.049 209.528 158.049 210.952V210.984C158.049 212.504 159.489 212.952 160.785 213.32C161.873 213.624 162.849 213.944 162.849 214.776V214.808C162.849 215.608 162.129 216.12 161.137 216.12C160.161 216.12 159.169 215.736 158.273 215.064L157.649 215.944C158.577 216.696 159.889 217.16 161.073 217.16ZM173.871 217.144C174.463 217.144 174.927 217.016 175.359 216.792V215.736C174.927 215.944 174.575 216.024 174.159 216.024C173.327 216.024 172.767 215.656 172.767 214.648V209.816H175.391V208.728H172.767V206.232H171.535V208.728H170.383V209.816H171.535V214.808C171.535 216.488 172.543 217.144 173.871 217.144ZM177.571 217H178.803V212.264C178.803 210.712 179.859 209.672 181.283 209.672C182.739 209.672 183.571 210.632 183.571 212.168V217H184.803V211.864C184.803 209.896 183.635 208.552 181.635 208.552C180.211 208.552 179.347 209.272 178.803 210.168V205.32H177.571V217ZM190.471 217.176C191.895 217.176 192.743 216.456 193.303 215.56V217H194.519V208.728H193.303V213.464C193.303 215.016 192.231 216.056 190.823 216.056C189.367 216.056 188.535 215.096 188.535 213.56V208.728H187.303V213.864C187.303 215.832 188.471 217.176 190.471 217.176ZM200.026 217.16C201.674 217.16 202.97 216.248 202.97 214.68V214.648C202.97 213.16 201.594 212.664 200.314 212.28C199.21 211.944 198.186 211.64 198.186 210.856V210.824C198.186 210.136 198.81 209.624 199.786 209.624C200.586 209.624 201.466 209.928 202.234 210.424L202.794 209.496C201.946 208.936 200.826 208.584 199.818 208.584C198.186 208.584 197.002 209.528 197.002 210.952V210.984C197.002 212.504 198.442 212.952 199.738 213.32C200.826 213.624 201.802 213.944 201.802 214.776V214.808C201.802 215.608 201.082 216.12 200.09 216.12C199.114 216.12 198.122 215.736 197.226 215.064L196.602 215.944C197.53 216.696 198.842 217.16 200.026 217.16ZM214.456 217.176C216.456 217.176 218.408 215.576 218.408 212.872V212.84C218.408 210.12 216.44 208.552 214.456 208.552C212.936 208.552 211.96 209.4 211.288 210.392V205.32H210.056V217H211.288V215.416C211.928 216.344 212.92 217.176 214.456 217.176ZM214.232 216.072C212.696 216.072 211.24 214.792 211.24 212.872V212.84C211.24 210.952 212.696 209.656 214.232 209.656C215.8 209.656 217.144 210.904 217.144 212.856V212.888C217.144 214.888 215.832 216.072 214.232 216.072ZM220.793 217H222.025V205.32H220.793V217ZM228.66 217.192C231.156 217.192 232.996 215.208 232.996 212.872V212.84C232.996 210.504 231.172 208.552 228.692 208.552C226.196 208.552 224.372 210.536 224.372 212.872V212.904C224.372 215.24 226.18 217.192 228.66 217.192ZM228.692 216.088C226.948 216.088 225.636 214.648 225.636 212.872V212.84C225.636 211.096 226.868 209.64 228.66 209.64C230.404 209.64 231.732 211.096 231.732 212.872V212.904C231.732 214.648 230.484 216.088 228.692 216.088ZM238.956 217.192C240.508 217.192 241.5 216.52 242.332 215.592L241.548 214.856C240.892 215.56 240.076 216.088 239.02 216.088C237.292 216.088 235.98 214.664 235.98 212.872V212.84C235.98 211.064 237.26 209.64 238.94 209.64C240.06 209.64 240.796 210.2 241.452 210.888L242.268 210.024C241.5 209.208 240.524 208.552 238.956 208.552C236.54 208.552 234.716 210.536 234.716 212.872V212.904C234.716 215.224 236.54 217.192 238.956 217.192ZM244.368 217H245.6V214.84L247.28 213.144L250.24 217H251.712L248.128 212.28L251.6 208.728H250.064L245.6 213.384V205.32H244.368V217ZM253.51 206.92H254.918V205.56H253.51V206.92ZM253.59 217H254.822V208.728H253.59V217ZM257.681 217H258.913V212.264C258.913 210.712 259.969 209.672 261.393 209.672C262.849 209.672 263.681 210.632 263.681 212.168V217H264.913V211.864C264.913 209.896 263.745 208.552 261.745 208.552C260.321 208.552 259.457 209.272 258.913 210.168V208.728H257.681V217ZM271.204 219.592C272.516 219.592 273.62 219.224 274.356 218.488C275.028 217.816 275.412 216.84 275.412 215.56V208.728H274.18V210.216C273.508 209.32 272.5 208.552 270.948 208.552C268.98 208.552 267.06 210.04 267.06 212.456V212.488C267.06 214.872 268.964 216.36 270.948 216.36C272.468 216.36 273.476 215.576 274.196 214.616V215.592C274.196 217.528 273.012 218.536 271.188 218.536C270.004 218.536 268.948 218.168 268.004 217.48L267.444 218.44C268.548 219.208 269.828 219.592 271.204 219.592ZM271.188 215.272C269.652 215.272 268.324 214.12 268.324 212.456V212.424C268.324 210.728 269.62 209.64 271.188 209.64C272.756 209.64 274.228 210.744 274.228 212.44V212.472C274.228 214.136 272.756 215.272 271.188 215.272ZM282.962 219.56H284.194V215.416C284.834 216.344 285.826 217.176 287.362 217.176C289.362 217.176 291.314 215.576 291.314 212.872V212.84C291.314 210.12 289.346 208.552 287.362 208.552C285.842 208.552 284.866 209.4 284.194 210.392V208.728H282.962V219.56ZM287.138 216.072C285.602 216.072 284.146 214.792 284.146 212.872V212.84C284.146 210.952 285.602 209.656 287.138 209.656C288.706 209.656 290.05 210.904 290.05 212.856V212.888C290.05 214.888 288.738 216.072 287.138 216.072ZM296.051 217.176C297.507 217.176 298.467 216.504 299.043 215.752V217H300.227V211.944C300.227 210.888 299.939 210.088 299.379 209.528C298.771 208.92 297.875 208.616 296.707 208.616C295.507 208.616 294.611 208.888 293.699 209.304L294.067 210.312C294.835 209.96 295.603 209.704 296.579 209.704C298.131 209.704 299.043 210.472 299.043 211.96V212.248C298.307 212.04 297.555 211.896 296.499 211.896C294.403 211.896 292.963 212.824 292.963 214.568V214.6C292.963 216.296 294.515 217.176 296.051 217.176ZM296.291 216.2C295.171 216.2 294.211 215.592 294.211 214.552V214.52C294.211 213.48 295.075 212.808 296.627 212.808C297.635 212.808 298.451 212.984 299.059 213.16V213.96C299.059 215.272 297.811 216.2 296.291 216.2ZM302.885 206.92H304.293V205.56H302.885V206.92ZM302.965 217H304.197V208.728H302.965V217ZM307.056 217H308.288V212.264C308.288 210.712 309.344 209.672 310.768 209.672C312.224 209.672 313.056 210.632 313.056 212.168V217H314.288V211.864C314.288 209.896 313.12 208.552 311.12 208.552C309.696 208.552 308.832 209.272 308.288 210.168V208.728H307.056V217ZM100.206 236.16C101.854 236.16 103.15 235.248 103.15 233.68V233.648C103.15 232.16 101.774 231.664 100.494 231.28C99.3898 230.944 98.3658 230.64 98.3658 229.856V229.824C98.3658 229.136 98.9898 228.624 99.9658 228.624C100.766 228.624 101.646 228.928 102.414 229.424L102.974 228.496C102.126 227.936 101.006 227.584 99.9978 227.584C98.3658 227.584 97.1818 228.528 97.1818 229.952V229.984C97.1818 231.504 98.6218 231.952 99.9178 232.32C101.006 232.624 101.982 232.944 101.982 233.776V233.808C101.982 234.608 101.262 235.12 100.27 235.12C99.2938 235.12 98.3018 234.736 97.4058 234.064L96.7818 234.944C97.7098 235.696 99.0218 236.16 100.206 236.16ZM105.471 225.92H106.879V224.56H105.471V225.92ZM105.551 236H106.783V227.728H105.551V236ZM113.306 238.592C114.618 238.592 115.722 238.224 116.458 237.488C117.13 236.816 117.514 235.84 117.514 234.56V227.728H116.282V229.216C115.61 228.32 114.602 227.552 113.05 227.552C111.082 227.552 109.162 229.04 109.162 231.456V231.488C109.162 233.872 111.066 235.36 113.05 235.36C114.57 235.36 115.578 234.576 116.298 233.616V234.592C116.298 236.528 115.114 237.536 113.29 237.536C112.106 237.536 111.05 237.168 110.106 236.48L109.546 237.44C110.65 238.208 111.93 238.592 113.306 238.592ZM113.29 234.272C111.754 234.272 110.426 233.12 110.426 231.456V231.424C110.426 229.728 111.722 228.64 113.29 228.64C114.858 228.64 116.33 229.744 116.33 231.44V231.472C116.33 233.136 114.858 234.272 113.29 234.272ZM120.267 236H121.499V231.264C121.499 229.712 122.555 228.672 123.979 228.672C125.435 228.672 126.267 229.632 126.267 231.168V236H127.499V230.864C127.499 228.896 126.331 227.552 124.331 227.552C122.907 227.552 122.043 228.272 121.499 229.168V227.728H120.267V236ZM132.59 236.176C134.046 236.176 135.006 235.504 135.582 234.752V236H136.766V230.944C136.766 229.888 136.478 229.088 135.918 228.528C135.31 227.92 134.414 227.616 133.246 227.616C132.046 227.616 131.15 227.888 130.238 228.304L130.606 229.312C131.374 228.96 132.142 228.704 133.118 228.704C134.67 228.704 135.582 229.472 135.582 230.96V231.248C134.846 231.04 134.094 230.896 133.038 230.896C130.942 230.896 129.502 231.824 129.502 233.568V233.6C129.502 235.296 131.054 236.176 132.59 236.176ZM132.83 235.2C131.71 235.2 130.75 234.592 130.75 233.552V233.52C130.75 232.48 131.614 231.808 133.166 231.808C134.174 231.808 134.99 231.984 135.598 232.16V232.96C135.598 234.272 134.35 235.2 132.83 235.2ZM139.504 236H140.736V224.32H139.504V236ZM146.331 236.16C147.979 236.16 149.275 235.248 149.275 233.68V233.648C149.275 232.16 147.899 231.664 146.619 231.28C145.515 230.944 144.491 230.64 144.491 229.856V229.824C144.491 229.136 145.115 228.624 146.091 228.624C146.891 228.624 147.771 228.928 148.539 229.424L149.099 228.496C148.251 227.936 147.131 227.584 146.123 227.584C144.491 227.584 143.307 228.528 143.307 229.952V229.984C143.307 231.504 144.747 231.952 146.043 232.32C147.131 232.624 148.107 232.944 148.107 233.776V233.808C148.107 234.608 147.387 235.12 146.395 235.12C145.419 235.12 144.427 234.736 143.531 234.064L142.907 234.944C143.835 235.696 145.147 236.16 146.331 236.16ZM159.128 236.144C159.72 236.144 160.184 236.016 160.616 235.792V234.736C160.184 234.944 159.832 235.024 159.416 235.024C158.584 235.024 158.024 234.656 158.024 233.648V228.816H160.648V227.728H158.024V225.232H156.792V227.728H155.64V228.816H156.792V233.808C156.792 235.488 157.8 236.144 159.128 236.144ZM166.371 236.192C168.867 236.192 170.707 234.208 170.707 231.872V231.84C170.707 229.504 168.883 227.552 166.403 227.552C163.907 227.552 162.083 229.536 162.083 231.872V231.904C162.083 234.24 163.891 236.192 166.371 236.192ZM166.403 235.088C164.659 235.088 163.347 233.648 163.347 231.872V231.84C163.347 230.096 164.579 228.64 166.371 228.64C168.115 228.64 169.443 230.096 169.443 231.872V231.904C169.443 233.648 168.195 235.088 166.403 235.088ZM180.503 236.144C181.095 236.144 181.559 236.016 181.991 235.792V234.736C181.559 234.944 181.207 235.024 180.791 235.024C179.959 235.024 179.399 234.656 179.399 233.648V228.816H182.023V227.728H179.399V225.232H178.167V227.728H177.015V228.816H178.167V233.808C178.167 235.488 179.175 236.144 180.503 236.144ZM184.204 236H185.436V231.264C185.436 229.712 186.492 228.672 187.916 228.672C189.372 228.672 190.204 229.632 190.204 231.168V236H191.436V230.864C191.436 228.896 190.268 227.552 188.268 227.552C186.844 227.552 185.98 228.272 185.436 229.168V224.32H184.204V236ZM197.68 236.192C199.248 236.192 200.256 235.568 201.088 234.64L200.32 233.952C199.648 234.656 198.848 235.12 197.712 235.12C196.24 235.12 194.976 234.112 194.799 232.32H201.36C201.376 232.176 201.376 232.08 201.376 231.92C201.376 229.504 199.968 227.552 197.52 227.552C195.232 227.552 193.552 229.472 193.552 231.856V231.888C193.552 234.448 195.408 236.192 197.68 236.192ZM194.799 231.408C194.96 229.792 196.048 228.592 197.488 228.592C199.136 228.592 200 229.904 200.128 231.408H194.799ZM212.729 236.176C214.729 236.176 216.681 234.576 216.681 231.872V231.84C216.681 229.12 214.713 227.552 212.729 227.552C211.209 227.552 210.233 228.4 209.561 229.392V224.32H208.329V236H209.561V234.416C210.201 235.344 211.193 236.176 212.729 236.176ZM212.505 235.072C210.969 235.072 209.513 233.792 209.513 231.872V231.84C209.513 229.952 210.969 228.656 212.505 228.656C214.073 228.656 215.417 229.904 215.417 231.856V231.888C215.417 233.888 214.105 235.072 212.505 235.072ZM218.954 236H220.186V232.704C220.186 230.208 221.658 228.912 223.466 228.912H223.562V227.584C221.994 227.52 220.794 228.512 220.186 229.888V227.728H218.954V236ZM227.496 236.176C228.952 236.176 229.912 235.504 230.488 234.752V236H231.672V230.944C231.672 229.888 231.384 229.088 230.824 228.528C230.216 227.92 229.32 227.616 228.152 227.616C226.952 227.616 226.056 227.888 225.144 228.304L225.512 229.312C226.28 228.96 227.048 228.704 228.024 228.704C229.576 228.704 230.488 229.472 230.488 230.96V231.248C229.752 231.04 229 230.896 227.944 230.896C225.848 230.896 224.408 231.824 224.408 233.568V233.6C224.408 235.296 225.96 236.176 227.496 236.176ZM227.736 235.2C226.616 235.2 225.656 234.592 225.656 233.552V233.52C225.656 232.48 226.52 231.808 228.072 231.808C229.08 231.808 229.896 231.984 230.504 232.16V232.96C230.504 234.272 229.256 235.2 227.736 235.2ZM234.33 225.92H235.738V224.56H234.33V225.92ZM234.41 236H235.642V227.728H234.41V236ZM238.501 236H239.733V231.264C239.733 229.712 240.789 228.672 242.213 228.672C243.669 228.672 244.501 229.632 244.501 231.168V236H245.733V230.864C245.733 228.896 244.565 227.552 242.565 227.552C241.141 227.552 240.277 228.272 239.733 229.168V227.728H238.501V236ZM248.216 236H249.688V234.32H248.216V236Z" fill="#540F16"/>
<defs>
<filter id="filter0_d" x="0" y="44" width="355" height="250" filterUnits="userSpaceOnUse" color-interpolation-filters="sRGB">
<feFlood flood-opacity="0" result="BackgroundImageFix"/>
<feColorMatrix in="SourceAlpha" type="matrix" values="0 0 0 0 0 0 0 0 0 0 0 0 0 0 0 0 0 0 127 0" result="hardAlpha"/>
<feOffset dx="4" dy="4"/>
<feGaussianBlur stdDeviation="5"/>
<feColorMatrix type="matrix" values="0 0 0 0 0.329412 0 0 0 0 0.0588235 0 0 0 0 0.0862745 0 0 0 0.2 0"/>
<feBlend mode="normal" in2="BackgroundImageFix" result="effect1_dropShadow"/>
<feBlend mode="normal" in="SourceGraphic" in2="effect1_dropShadow" result="shape"/>
</filter>
</defs>
</svg>
