<svg width="196" height="196" viewBox="0 0 196 196" fill="none" xmlns="http://www.w3.org/2000/svg">
<circle cx="98" cy="98" r="98" fill="#CC112C" fill-opacity="0.1"/>
<circle cx="98" cy="98" r="92" fill="#CC112C" fill-opacity="0.1"/>
<circle cx="98" cy="98" r="87" fill="#CC112C"/>
<circle cx="98" cy="98" r="80" fill="white"/>
<path d="M70.8358 128.019C70.8358 119.783 66.6567 119.783 66.6567 111.548C66.6567 103.312 70.8358 103.312 70.8358 95.0765C70.8358 86.8409 66.6567 86.8409 66.6567 78.6052C66.6567 70.3696 70.8358 70.3696 70.8358 62.1339M89.9204 62.067C89.9204 70.3026 85.7413 70.3026 85.7413 78.5383C85.7413 86.7739 89.9204 86.7739 89.9204 95.0096C89.9204 103.245 85.7413 103.245 85.7413 111.481C85.7413 119.717 89.9204 119.717 89.9204 127.952M109.075 62.067C109.075 70.3026 104.896 70.3026 104.896 78.5383C104.896 86.7739 109.075 86.7739 109.075 95.0096C109.075 103.245 104.896 103.245 104.896 111.481C104.896 119.717 109.075 119.717 109.075 127.952M128.159 62.067C128.159 70.3026 123.98 70.3026 123.98 78.5383C123.98 86.7739 128.159 86.7739 128.159 95.0096C128.159 103.245 123.98 103.245 123.98 111.481C123.98 119.717 128.159 119.717 128.159 127.952M56 119.984V131.635C56 135.719 59.4129 139 63.6617 139H132.338C136.587 139 140 135.719 140 131.635V119.984M75.9204 67.0217L70.7662 62.067L65.6119 67.0217M95.005 67.0217L89.8507 62.067L84.6965 67.0217M114.09 67.0217L108.935 62L103.781 66.9548M133.174 67.0217L128.02 62.067L122.866 67.0217" stroke="#540F16" stroke-width="3" stroke-miterlimit="10"/>
</svg>
