<svg width="196" height="196" viewBox="0 0 196 196" fill="none" xmlns="http://www.w3.org/2000/svg">
<circle cx="98" cy="98" r="98" fill="#CC112C" fill-opacity="0.1"/>
<circle cx="98" cy="98" r="92" fill="#CC112C" fill-opacity="0.1"/>
<circle cx="98" cy="98" r="87" fill="#CC112C"/>
<circle cx="98" cy="98" r="80" fill="white"/>
<path d="M90.1345 56C89.8001 65.2477 85.1175 68.8807 77.2016 71.0826C69.2858 73.2844 59.3632 78.2385 60.0321 113.798" stroke="#540F16" stroke-width="3" stroke-miterlimit="10" stroke-linejoin="round"/>
<path d="M71.5156 113.798C71.5156 113.798 72.6305 99.8166 72.296 92.4405C71.85 83.9634 84.4485 121.064 73.9684 140" stroke="#540F16" stroke-width="3" stroke-miterlimit="10" stroke-linejoin="round"/>
<path d="M98.0504 113.798V138.679" stroke="#540F16" stroke-width="3" stroke-miterlimit="10" stroke-linejoin="round"/>
<path d="M105.855 56C106.189 65.2477 110.872 68.8807 118.788 71.0826C126.703 73.2844 136.738 78.1284 135.957 113.688" stroke="#540F16" stroke-width="3" stroke-miterlimit="10" stroke-linejoin="round"/>
<path d="M124.585 113.798C124.585 113.798 123.47 99.8166 123.805 92.4405C124.251 83.9634 111.652 121.064 122.132 140" stroke="#540F16" stroke-width="3" stroke-miterlimit="10" stroke-linejoin="round"/>
<path d="M103.513 77.688C104.294 85.2843 108.976 90.7889 112.433 92.7706" stroke="#540F16" stroke-width="3" stroke-miterlimit="10" stroke-linejoin="round"/>
<path d="M92.4759 77.688C91.6954 85.2843 87.0128 90.7889 83.5566 92.7706" stroke="#540F16" stroke-width="3" stroke-miterlimit="10" stroke-linejoin="round"/>
</svg>
