<svg width="196" height="196" viewBox="0 0 196 196" fill="none" xmlns="http://www.w3.org/2000/svg">
<circle cx="98" cy="98" r="98" fill="#CC112C" fill-opacity="0.1"/>
<circle cx="98" cy="98" r="92" fill="#CC112C" fill-opacity="0.1"/>
<circle cx="98" cy="98" r="87" fill="#CC112C"/>
<circle cx="98" cy="98" r="80" fill="white"/>
<path d="M73.9908 94.3679H85.8107L88.8111 84.9121L93.8118 108.552L100.54 77.2747L105.813 102.005L108.996 94.277H121.27" stroke="#540F16" stroke-width="3" stroke-miterlimit="10" stroke-linejoin="round"/>
<path d="M77.6277 72.3646C79.3553 68.8187 86.1744 58.9991 98.9943 67.9094" stroke="#540F16" stroke-width="3" stroke-miterlimit="10" stroke-linejoin="round"/>
<path d="M111.723 69.0916C116.636 67.1823 129.999 72.3648 129.999 86.2758" stroke="#540F16" stroke-width="3" stroke-miterlimit="10" stroke-linejoin="round"/>
<path d="M132.908 115.462C131.363 120.917 125.362 124.19 121.27 124.372" stroke="#540F16" stroke-width="3" stroke-miterlimit="10" stroke-linejoin="round"/>
<path d="M106.632 119.099C107.359 123.463 109.996 127.282 117.088 128.282C124.18 129.282 127.089 138.465 127.089 138.465" stroke="#540F16" stroke-width="3" stroke-miterlimit="10" stroke-linejoin="round"/>
<path d="M124.998 123.463C131.272 126.827 131.908 137.374 131.908 137.374" stroke="#540F16" stroke-width="3" stroke-miterlimit="10" stroke-linejoin="round"/>
<path d="M59.6252 91.2766C52.9903 96.7319 53.4449 119.462 78.446 115.644" stroke="#540F16" stroke-width="3" stroke-miterlimit="10" stroke-linejoin="round"/>
<path d="M65.8988 100.369C68.3537 102.642 70.4449 104.187 74.991 101.46" stroke="#540F16" stroke-width="3" stroke-miterlimit="10" stroke-linejoin="round"/>
<path d="M71.6269 103.005C71.536 107.006 74.4455 109.097 77.6277 109.824" stroke="#540F16" stroke-width="3" stroke-miterlimit="10" stroke-linejoin="round"/>
<path d="M97.9033 71.0919C97.9033 67.1823 101.086 64 104.995 64C108.905 64 112.087 67.1823 112.087 71.0919" stroke="#540F16" stroke-width="3" stroke-miterlimit="10" stroke-linejoin="round"/>
<path d="M128.089 86.7304C131.726 85.3666 135.818 87.185 137.272 90.8219C138.727 94.4587 136.818 98.5502 133.181 100.005" stroke="#540F16" stroke-width="3" stroke-miterlimit="10" stroke-linejoin="round"/>
<path d="M118.997 103.005C120.997 105.46 120.543 109.006 118.179 110.916C115.724 112.916 112.178 112.461 110.269 110.097" stroke="#540F16" stroke-width="3" stroke-miterlimit="10" stroke-linejoin="round"/>
<path d="M81.6283 103.824C71.6269 108.461 80.4463 132.646 100.813 119.008C106.995 119.735 111.451 119.735 115.269 119.553" stroke="#540F16" stroke-width="3" stroke-miterlimit="10" stroke-linejoin="round"/>
<path d="M79.2643 70.0917C72.0839 67.1822 64.8102 70.8191 65.3533 79.7294" stroke="#540F16" stroke-width="3" stroke-miterlimit="10" stroke-linejoin="round"/>
<path d="M71.6269 82.0934C66.3535 74.9106 52.1697 83.9119 60.8982 92.9131" stroke="#540F16" stroke-width="3" stroke-miterlimit="10" stroke-linejoin="round"/>
<path d="M137.091 96.3682C138.909 98.4594 140 101.187 140 104.187C140 110.825 134.636 116.098 128.089 116.098C123.998 116.098 120.452 114.098 118.27 110.916" stroke="#540F16" stroke-width="3" stroke-miterlimit="10" stroke-linejoin="round"/>
</svg>
