<svg width="400" height="62" viewBox="0 0 400 62" fill="none" xmlns="http://www.w3.org/2000/svg">
<path d="M1.69036 20.968C1.22935 20.3646 0.922013 19.4595 0.614675 18.4035C0.153669 17.1967 0 16.1408 0 14.9339C0 12.6712 0.461006 11.1626 1.53669 10.1067C2.61237 9.20155 3.84172 8.59814 5.53208 8.59814H43.4883C43.9493 9.20155 44.2566 10.1067 44.564 11.1626C44.8713 12.2186 45.025 13.4254 45.025 14.6322C45.025 16.895 44.564 18.4035 43.4883 19.4595C42.4126 20.3646 41.1832 20.968 39.4929 20.968H29.8118V60.3405C29.1971 60.4914 28.1214 60.6422 26.7384 60.7931C25.3554 60.9439 23.9723 61.0948 22.743 61.0948C21.36 61.0948 20.2843 60.9439 19.2086 60.7931C18.1329 60.6422 17.3646 60.1896 16.5962 59.7371C15.8279 59.2845 15.3669 58.5303 15.0595 57.6252C14.7522 56.72 14.5985 55.5132 14.5985 54.0047V20.968H1.69036Z" fill="white"/>
<path d="M92.6625 60.4916C92.0478 60.6424 91.1258 60.7933 89.8964 60.9441C88.6671 61.095 87.4377 61.2458 86.0547 61.2458C84.8253 61.2458 83.596 61.095 82.674 60.9441C81.5983 60.7933 80.83 60.4916 80.0616 59.8882C79.2933 59.4356 78.8323 58.6813 78.5249 57.7762C78.2176 56.8711 77.9103 55.8151 77.9103 54.3066V35.6009C77.9103 33.3381 77.2956 31.6788 76.0662 30.6228C74.8369 29.7177 73.4539 29.2651 71.6098 29.2651C70.3805 29.2651 69.3048 29.416 68.3828 29.7177C67.4608 30.0194 66.5388 30.3211 65.9241 30.7736V60.6424C65.3094 60.7933 64.3874 60.9441 63.158 61.095C61.9287 61.2458 60.6993 61.3967 59.3163 61.3967C58.087 61.3967 56.8576 61.2458 55.9356 61.095C54.8599 60.9441 54.0916 60.6424 53.3232 60.039C52.5549 59.5864 52.0939 58.8322 51.7866 57.9271C51.4792 57.022 51.1719 55.966 51.1719 54.4575V4.97789C51.7866 4.82704 52.7086 4.67619 53.9379 4.52534C55.1673 4.37449 56.3966 4.22363 57.7796 4.22363C59.009 4.22363 60.2383 4.37449 61.1603 4.52534C62.236 4.67619 63.0044 4.97789 63.7727 5.5813C64.5411 6.03386 65.0021 6.78812 65.3094 7.69324C65.6167 8.59835 65.9241 9.65432 65.9241 11.1628V19.4597C66.6924 19.158 67.7681 18.8563 69.3048 18.4038C70.8415 18.102 72.5318 17.8003 74.3759 17.8003C80.0616 17.8003 84.518 19.158 87.7451 22.0242C90.9721 24.8904 92.5088 28.9634 92.5088 34.545V60.4916H92.6625Z" fill="white"/>
<path d="M124.164 61.9998C120.784 61.9998 117.557 61.5473 114.637 60.6422C111.717 59.7371 109.105 58.2285 106.953 56.4183C104.802 54.6081 103.112 52.1944 101.882 49.3282C100.653 46.4621 100.038 43.1433 100.038 39.372C100.038 35.6007 100.653 32.4328 101.882 29.7174C103.112 27.0021 104.802 24.7393 106.8 23.0799C108.797 21.2697 111.102 20.0629 113.715 19.3086C116.327 18.5544 118.94 18.1018 121.706 18.1018C124.779 18.1018 127.545 18.5544 130.157 19.4595C132.616 20.3646 134.921 21.5714 136.612 23.2308C138.456 24.8902 139.839 26.7004 140.914 28.9632C141.99 31.226 142.451 33.6396 142.451 36.2041C142.451 38.1652 141.836 39.6737 140.761 40.5788C139.685 41.6348 138.148 42.2382 136.151 42.5399L114.637 45.7078C115.252 47.518 116.635 49.0265 118.479 49.9317C120.476 50.8368 122.781 51.2893 125.24 51.2893C127.545 51.2893 129.85 50.9876 132.001 50.3842C134.153 49.7808 135.843 49.0265 137.226 48.2723C138.148 48.8757 138.917 49.6299 139.531 50.6859C140.146 51.7419 140.453 52.7979 140.453 53.8538C140.453 56.4183 139.224 58.3794 136.765 59.5862C134.921 60.4913 132.77 61.2456 130.465 61.5473C128.313 61.849 126.162 61.9998 124.164 61.9998ZM121.706 28.5106C120.323 28.5106 119.093 28.8123 118.171 29.2649C117.096 29.7174 116.327 30.3208 115.713 31.0751C115.098 31.8294 114.637 32.5836 114.33 33.4887C114.022 34.3939 113.869 35.299 113.715 36.2041L128.621 33.7905C128.467 32.5836 127.852 31.5277 126.777 30.3208C125.547 29.114 123.857 28.5106 121.706 28.5106Z" fill="white"/>
<path d="M164.426 60.4918C163.811 60.6426 162.889 60.7935 161.66 60.9443C160.43 61.0952 159.201 61.246 157.818 61.246C156.588 61.246 155.359 61.0952 154.437 60.9443C153.515 60.7935 152.593 60.4918 151.825 59.8883C151.056 59.4358 150.595 58.6815 150.288 57.7764C149.981 56.8713 149.673 55.8153 149.673 54.3068V28.6619C149.673 27.3042 149.981 26.2483 150.442 25.3432C150.903 24.438 151.671 23.5329 152.593 22.7787C153.515 22.0244 154.591 21.421 155.974 20.8176C157.357 20.2142 158.74 19.7616 160.43 19.3091C161.967 18.8565 163.657 18.5548 165.348 18.2531C167.038 17.9514 168.728 17.8005 170.419 17.8005C173.185 17.8005 175.336 18.2531 177.026 19.3091C178.717 20.365 179.485 22.0244 179.485 24.438C179.485 25.1923 179.331 25.9466 179.178 26.8517C178.87 27.6059 178.717 28.3602 178.256 28.9636C177.026 28.9636 175.797 28.9636 174.568 29.1145C173.338 29.2653 172.109 29.4162 170.88 29.567C169.65 29.8687 168.575 30.0196 167.499 30.3213C166.423 30.623 165.501 30.9247 164.733 31.2264V60.4918H164.426Z" fill="white"/>
<path d="M205.148 17.9517C207.453 17.9517 209.912 18.2534 212.217 19.0076C214.522 19.611 216.519 20.667 218.21 22.0247C219.9 20.8179 221.898 19.9127 224.049 19.1585C226.2 18.4042 228.813 18.1025 231.886 18.1025C234.038 18.1025 236.189 18.4042 238.34 19.0076C240.492 19.611 242.336 20.5162 244.026 21.723C245.716 22.9298 246.946 24.5892 248.021 26.5502C248.943 28.5113 249.558 31.0758 249.558 33.942V60.7937C248.943 60.9446 248.021 61.0954 246.792 61.2463C245.563 61.3971 244.333 61.548 242.95 61.548C241.721 61.548 240.492 61.3971 239.57 61.2463C238.494 61.0954 237.726 60.7937 236.957 60.1903C236.189 59.7378 235.728 58.9835 235.421 58.0784C235.113 57.1733 234.806 56.1173 234.806 54.6088V34.0929C234.806 32.4335 234.345 31.0758 233.269 30.3216C232.347 29.5673 230.964 29.1147 229.274 29.1147C228.506 29.1147 227.583 29.2656 226.661 29.7181C225.739 30.0199 224.971 30.4724 224.51 30.925C224.51 31.0758 224.664 31.3775 224.664 31.5284C224.664 31.6792 224.664 31.9809 224.664 32.1318V60.492C224.049 60.6429 223.127 60.7937 221.898 60.9446C220.668 61.0954 219.439 61.2463 218.056 61.2463C216.827 61.2463 215.597 61.0954 214.675 60.9446C213.6 60.7937 212.831 60.492 212.063 59.8886C211.295 59.4361 210.834 58.6818 210.526 57.7767C210.219 56.8716 209.912 55.8156 209.912 54.3071V34.0929C209.912 32.4335 209.451 31.0758 208.375 30.3216C207.299 29.5673 206.07 29.1147 204.533 29.1147C203.458 29.1147 202.535 29.2656 201.767 29.5673C200.999 29.869 200.384 30.1707 199.923 30.4724V60.3412C199.308 60.492 198.386 60.6429 197.157 60.7937C195.928 60.9446 194.698 61.0954 193.315 61.0954C192.086 61.0954 190.857 60.9446 189.935 60.7937C188.859 60.6429 188.091 60.3412 187.322 59.7378C186.554 59.2852 186.093 58.531 185.786 57.6258C185.478 56.7207 185.171 55.6648 185.171 54.1562V28.813C185.171 27.3045 185.478 26.0977 186.247 25.1926C186.861 24.2875 187.783 23.3823 189.013 22.6281C191.01 21.2704 193.469 20.2144 196.389 19.3093C199.001 18.4042 201.921 17.9517 205.148 17.9517Z" fill="white"/>
<path d="M270.918 10.5599C271.84 9.95647 273.377 9.50391 275.375 8.9005C277.372 8.44794 279.37 8.14624 281.368 8.14624C284.288 8.14624 286.9 8.5988 289.051 9.35306C291.356 10.1073 292.739 11.465 293.354 13.2752C294.43 16.2923 295.505 19.611 296.735 23.5332C297.964 27.4553 299.193 31.5284 300.423 35.7522C301.652 39.9761 302.881 44.0491 303.957 48.1221C305.186 52.1951 306.108 55.8156 307.03 58.9835C306.262 59.7377 305.34 60.492 303.957 60.9446C302.574 61.3971 300.884 61.6988 299.04 61.6988C297.657 61.6988 296.427 61.548 295.505 61.3971C294.583 61.2463 293.815 60.7937 293.2 60.3412C292.586 59.8886 292.125 59.2852 291.664 58.5309C291.356 57.7767 290.895 56.8716 290.588 55.9664L289.051 50.0832H273.377C272.916 51.7426 272.455 53.5528 271.994 55.363C271.533 57.1733 271.072 58.9835 270.611 60.6429C269.843 60.9446 268.921 61.0954 267.999 61.3971C267.077 61.548 266.001 61.6988 264.772 61.6988C261.852 61.6988 259.7 61.2463 258.164 60.1903C256.781 59.1343 256.012 57.7767 256.012 56.1173C256.012 55.363 256.166 54.4579 256.32 53.7037C256.473 52.9494 256.781 51.8934 257.088 50.8375C257.549 49.3289 258.01 47.3679 258.778 45.1051C259.547 42.8423 260.315 40.4286 261.237 37.7133C262.159 34.998 263.081 32.2826 264.003 29.5673C264.925 26.8519 265.847 24.1366 266.769 21.723C267.691 19.3093 268.46 17.0465 269.228 15.0854C269.843 12.9735 270.457 11.465 270.918 10.5599ZM281.368 21.5721C280.599 23.9857 279.677 26.5502 278.602 29.5673C277.526 32.4335 276.604 35.4505 275.836 38.4676H286.593C285.824 35.4505 284.902 32.4335 284.134 29.4164C283.365 26.5502 282.597 23.8349 281.829 21.5721H281.368Z" fill="white"/>
<path d="M312.562 7.69347C312.562 5.58154 313.331 3.77131 314.714 2.26279C316.25 0.754262 318.094 0 320.553 0C323.012 0 325.009 0.754262 326.392 2.26279C327.929 3.77131 328.544 5.58154 328.544 7.69347C328.544 9.8054 327.775 11.6156 326.392 13.1242C324.856 14.6327 323.012 15.3869 320.553 15.3869C318.094 15.3869 316.097 14.6327 314.714 13.1242C313.331 11.6156 312.562 9.8054 312.562 7.69347ZM328.083 60.4918C327.468 60.6426 326.546 60.7935 325.317 60.9444C324.087 61.0952 322.858 61.2461 321.475 61.2461C320.246 61.2461 319.016 61.0952 318.094 60.9444C317.019 60.7935 316.25 60.4918 315.482 59.8884C314.714 59.4358 314.253 58.6816 313.945 57.7764C313.638 56.8713 313.331 55.8154 313.331 54.3068V19.6108C313.945 19.46 314.867 19.3091 316.097 19.1582C317.326 19.0074 318.555 18.8565 319.938 18.8565C321.168 18.8565 322.397 19.0074 323.319 19.1582C324.395 19.3091 325.163 19.6108 325.931 20.2142C326.7 20.6668 327.161 21.421 327.468 22.3261C327.775 23.2313 328.083 24.2872 328.083 25.7958V60.4918Z" fill="white"/>
<path d="M335.612 39.9756C335.612 36.2043 336.227 33.0364 337.303 30.1702C338.532 27.4549 340.069 25.1921 342.066 23.231C344.064 21.4208 346.523 20.0631 349.289 19.158C352.055 18.2529 354.975 17.8003 358.202 17.8003C359.431 17.8003 360.507 17.9512 361.582 18.102C362.658 18.2529 363.58 18.5546 364.348 18.8563V5.12875C364.963 4.97789 365.885 4.82704 367.114 4.52534C368.344 4.37449 369.727 4.22363 370.956 4.22363C372.186 4.22363 373.415 4.37449 374.337 4.52534C375.413 4.67619 376.181 4.97789 376.949 5.5813C377.718 6.03386 378.179 6.78812 378.486 7.69324C378.793 8.59835 378.947 9.65432 378.947 11.1628V51.5913C378.947 54.3066 377.718 56.4185 375.105 57.9271C373.415 58.983 371.264 59.8881 368.651 60.7933C366.039 61.5475 362.965 62.0001 359.431 62.0001C355.589 62.0001 352.362 61.5475 349.289 60.4916C346.369 59.4356 343.757 57.9271 341.759 56.1168C339.761 54.1558 338.071 51.893 336.995 49.1776C336.227 46.4623 335.612 43.2944 335.612 39.9756ZM360.353 29.2651C357.28 29.2651 354.821 30.1702 353.131 31.9805C351.44 33.7907 350.672 36.3552 350.672 39.9756C350.672 43.4452 351.44 46.1606 352.977 47.9708C354.514 49.781 356.819 50.6862 359.738 50.6862C360.814 50.6862 361.736 50.5353 362.504 50.2336C363.273 49.9319 364.041 49.6302 364.502 49.1776V30.3211C363.273 29.5668 361.89 29.2651 360.353 29.2651Z" fill="white"/>
<path d="M387.246 12.5219C387.246 11.6168 387.399 10.8625 387.707 10.1082C388.014 9.35399 388.475 8.75058 388.936 8.14717C389.551 7.54376 390.165 7.24205 390.934 6.94035C391.702 6.63864 392.624 6.48779 393.546 6.48779C394.468 6.48779 395.39 6.63864 396.158 6.94035C396.927 7.24205 397.541 7.69461 398.156 8.14717C398.771 8.75058 399.232 9.35399 399.539 10.1082C399.846 10.8625 400 11.6168 400 12.5219C400 13.427 399.846 14.1813 399.539 14.9355C399.232 15.6898 398.771 16.2932 398.156 16.8966C397.541 17.5 396.927 17.8017 396.158 18.1034C395.39 18.4051 394.468 18.556 393.546 18.556C392.624 18.556 391.702 18.4051 390.934 18.1034C390.165 17.8017 389.551 17.3492 388.936 16.8966C388.321 16.2932 388.014 15.6898 387.707 14.9355C387.399 14.0304 387.246 13.2761 387.246 12.5219ZM389.397 12.5219C389.397 13.1253 389.551 13.7287 389.704 14.1813C389.858 14.6338 390.165 15.0864 390.626 15.5389C390.934 15.8406 391.395 16.1423 392.009 16.444C392.47 16.5949 393.085 16.7458 393.7 16.7458C394.314 16.7458 394.929 16.5949 395.39 16.444C395.851 16.2932 396.312 15.9915 396.773 15.5389C397.08 15.2372 397.388 14.7847 397.541 14.1813C397.695 13.7287 397.849 13.1253 397.849 12.5219C397.849 11.9185 397.695 11.3151 397.541 10.8625C397.388 10.41 397.08 9.9574 396.773 9.50484C396.466 9.05228 396.005 8.90143 395.39 8.59973C394.929 8.44887 394.314 8.29802 393.7 8.29802C393.085 8.29802 392.47 8.44887 392.009 8.59973C391.548 8.75058 391.087 9.05228 390.626 9.50484C390.319 9.9574 390.012 10.41 389.704 10.8625C389.397 11.3151 389.397 11.9185 389.397 12.5219ZM393.085 13.2761V15.0864C392.931 15.0864 392.931 15.0864 392.778 15.0864C392.624 15.0864 392.47 15.0864 392.317 15.0864C392.009 15.0864 391.856 15.0864 391.702 14.9355C391.548 14.7847 391.548 14.6338 391.548 14.3321V10.1082C391.548 9.9574 391.702 9.80654 391.856 9.65569C392.009 9.50484 392.317 9.50484 392.624 9.50484C392.931 9.50484 393.239 9.50484 393.546 9.50484C394.468 9.50484 395.083 9.65569 395.39 9.9574C395.851 10.2591 396.005 10.7117 396.005 11.3151C396.005 11.7676 395.851 12.0693 395.697 12.2202C395.544 12.5219 395.236 12.6727 394.929 12.8236C395.083 13.1253 395.39 13.427 395.544 13.7287C395.697 14.0304 396.005 14.1813 396.005 14.483C396.005 14.6338 395.851 14.7847 395.697 14.9355C395.544 15.0864 395.39 15.0864 395.083 15.0864C394.775 15.0864 394.622 15.0864 394.468 14.9355C394.314 14.7847 394.161 14.6338 394.007 14.483L393.392 13.2761H393.085ZM393.546 12.0693C393.853 12.0693 394.007 12.0693 394.161 11.9185C394.314 11.7676 394.314 11.6168 394.314 11.4659C394.314 11.0134 394.007 10.8625 393.546 10.8625C393.392 10.8625 393.392 10.8625 393.392 10.8625H393.239V12.0693H393.546Z" fill="white"/>
</svg>
