<svg width="180" height="28" viewBox="0 0 180 28" fill="none" xmlns="http://www.w3.org/2000/svg">
<path d="M0.760661 9.46969C0.553208 9.19718 0.414906 8.78842 0.276604 8.31153C0.069151 7.76652 0 7.28963 0 6.74462C0 5.72272 0.207453 5.04145 0.69151 4.56457C1.17557 4.15581 1.72877 3.8833 2.48943 3.8833H19.5697C19.7772 4.15581 19.9155 4.56457 20.0538 5.04145C20.1921 5.51834 20.2612 6.06335 20.2612 6.60837C20.2612 7.63027 20.0538 8.31153 19.5697 8.78842C19.0857 9.19718 18.5325 9.46969 17.7718 9.46969H13.4153V27.2507C13.1387 27.3189 12.6546 27.387 12.0323 27.4551C11.4099 27.5233 10.7876 27.5914 10.2343 27.5914C9.61199 27.5914 9.12793 27.5233 8.64387 27.4551C8.15981 27.387 7.81406 27.1826 7.46831 26.9782C7.12255 26.7739 6.9151 26.4332 6.7768 26.0245C6.63849 25.6157 6.56934 25.0707 6.56934 24.3894V9.46969H0.760661Z" fill="white"/>
<path d="M41.6981 27.3187C41.4215 27.3868 41.0066 27.455 40.4534 27.5231C39.9002 27.5912 39.347 27.6593 38.7246 27.6593C38.1714 27.6593 37.6182 27.5912 37.2033 27.5231C36.7192 27.455 36.3735 27.3187 36.0277 27.0462C35.682 26.8418 35.4745 26.5012 35.3362 26.0924C35.1979 25.6837 35.0596 25.2068 35.0596 24.5255V16.0778C35.0596 15.0559 34.783 14.3065 34.2298 13.8296C33.6766 13.4209 33.0542 13.2165 32.2244 13.2165C31.6712 13.2165 31.1872 13.2846 30.7723 13.4209C30.3573 13.5571 29.9424 13.6934 29.6658 13.8978V27.3868C29.3892 27.455 28.9743 27.5231 28.4211 27.5912C27.8679 27.6593 27.3147 27.7275 26.6923 27.7275C26.1391 27.7275 25.5859 27.6593 25.171 27.5912C24.687 27.5231 24.3412 27.3868 23.9955 27.1143C23.6497 26.91 23.4423 26.5693 23.3039 26.1606C23.1656 25.7518 23.0273 25.2749 23.0273 24.5936V2.2481C23.3039 2.17998 23.7189 2.11185 24.2721 2.04372C24.8253 1.9756 25.3785 1.90747 26.0008 1.90747C26.554 1.90747 27.1073 1.9756 27.5222 2.04372C28.0062 2.11185 28.352 2.2481 28.6977 2.52061C29.0435 2.72499 29.2509 3.06562 29.3892 3.47438C29.5275 3.88314 29.6658 4.36003 29.6658 5.0413V8.78826C30.0116 8.65201 30.4956 8.51576 31.1872 8.31138C31.8787 8.17512 32.6393 8.03887 33.4691 8.03887C36.0277 8.03887 38.0331 8.65201 39.4853 9.94641C40.9374 11.2408 41.629 13.0802 41.629 15.6009V27.3187H41.6981Z" fill="white"/>
<path d="M55.8738 27.9999C54.3525 27.9999 52.9003 27.7955 51.5864 27.3868C50.2726 26.978 49.097 26.2967 48.1289 25.4792C47.1608 24.6617 46.4001 23.5717 45.8469 22.2773C45.2937 20.9829 45.0171 19.4841 45.0171 17.7809C45.0171 16.0777 45.2937 14.6471 45.8469 13.4208C46.4001 12.1945 47.1608 11.1726 48.0597 10.4232C48.9587 9.60571 49.996 9.0607 51.1715 8.72006C52.3471 8.37943 53.5227 8.17505 54.7674 8.17505C56.1504 8.17505 57.3951 8.37943 58.5707 8.78819C59.6771 9.19695 60.7144 9.74196 61.475 10.4914C62.3048 11.2407 62.9272 12.0583 63.4113 13.0802C63.8953 14.1021 64.1028 15.1921 64.1028 16.3502C64.1028 17.2359 63.8262 17.9172 63.3421 18.3259C62.858 18.8028 62.1665 19.0753 61.2676 19.2116L51.5864 20.6422C51.863 21.4597 52.4854 22.141 53.3152 22.5498C54.2142 22.9585 55.2514 23.1629 56.3579 23.1629C57.3951 23.1629 58.4324 23.0267 59.4005 22.7542C60.3686 22.4816 61.1293 22.141 61.7516 21.8004C62.1665 22.0729 62.5123 22.4135 62.7889 22.8904C63.0655 23.3673 63.2038 23.8442 63.2038 24.3211C63.2038 25.4792 62.6506 26.3649 61.5442 26.9099C60.7144 27.3186 59.7463 27.6593 58.709 27.7955C57.7409 27.9318 56.7728 27.9999 55.8738 27.9999ZM54.7674 12.8758C54.145 12.8758 53.5918 13.012 53.1769 13.2164C52.6929 13.4208 52.3471 13.6933 52.0705 14.0339C51.7939 14.3746 51.5864 14.7152 51.4481 15.124C51.3098 15.5327 51.2407 15.9415 51.1715 16.3502L57.8792 15.2602C57.81 14.7152 57.5334 14.2383 57.0494 13.6933C56.4962 13.1483 55.7355 12.8758 54.7674 12.8758Z" fill="white"/>
<path d="M73.9915 27.3187C73.7149 27.3868 73.3 27.4549 72.7468 27.523C72.1936 27.5912 71.6404 27.6593 71.018 27.6593C70.4648 27.6593 69.9116 27.5912 69.4967 27.523C69.0818 27.4549 68.6669 27.3187 68.3211 27.0462C67.9754 26.8418 67.7679 26.5011 67.6296 26.0924C67.4913 25.6836 67.353 25.2067 67.353 24.5255V12.9439C67.353 12.3308 67.4913 11.8539 67.6988 11.4452C67.9062 11.0364 68.252 10.6276 68.6669 10.287C69.0818 9.94636 69.5659 9.67386 70.1882 9.40135C70.8106 9.12884 71.4329 8.92446 72.1936 8.72008C72.8851 8.5157 73.6458 8.37945 74.4064 8.2432C75.1671 8.10695 75.9277 8.03882 76.6884 8.03882C77.9331 8.03882 78.9012 8.2432 79.6619 8.72008C80.4226 9.19697 80.7683 9.94636 80.7683 11.0364C80.7683 11.377 80.6992 11.7177 80.63 12.1264C80.4917 12.4671 80.4226 12.8077 80.2151 13.0802C79.6619 13.0802 79.1087 13.0802 78.5555 13.1483C78.0023 13.2164 77.4491 13.2846 76.8959 13.3527C76.3427 13.489 75.8586 13.5571 75.3745 13.6933C74.8905 13.8296 74.4756 13.9658 74.1298 14.1021V27.3187H73.9915Z" fill="white"/>
<path d="M92.3165 8.10718C93.3538 8.10718 94.4602 8.24343 95.4975 8.58406C96.5347 8.85657 97.4337 9.33346 98.1944 9.9466C98.955 9.40158 99.854 8.99282 100.822 8.65219C101.79 8.31156 102.966 8.1753 104.349 8.1753C105.317 8.1753 106.285 8.31156 107.253 8.58406C108.221 8.85657 109.051 9.26533 109.812 9.81034C110.572 10.3554 111.126 11.1048 111.61 11.9904C112.025 12.876 112.301 14.0342 112.301 15.3286V27.4551C112.025 27.5233 111.61 27.5914 111.056 27.6595C110.503 27.7277 109.95 27.7958 109.328 27.7958C108.774 27.7958 108.221 27.7277 107.806 27.6595C107.322 27.5914 106.977 27.4552 106.631 27.1826C106.285 26.9783 106.078 26.6376 105.939 26.2289C105.801 25.8201 105.663 25.3432 105.663 24.662V15.3967C105.663 14.6473 105.455 14.0342 104.971 13.6936C104.556 13.3529 103.934 13.1486 103.173 13.1486C102.827 13.1486 102.413 13.2167 101.998 13.4211C101.583 13.5573 101.237 13.7617 101.03 13.9661C101.03 14.0342 101.099 14.1705 101.099 14.2386C101.099 14.3067 101.099 14.443 101.099 14.5111V27.3189C100.822 27.387 100.407 27.4552 99.854 27.5233C99.3008 27.5914 98.7476 27.6595 98.1252 27.6595C97.572 27.6595 97.0188 27.5914 96.6039 27.5233C96.1198 27.4552 95.7741 27.3189 95.4283 27.0464C95.0826 26.842 94.8751 26.5014 94.7368 26.0926C94.5985 25.6839 94.4602 25.207 94.4602 24.5257V15.3967C94.4602 14.6473 94.2528 14.0342 93.7687 13.6936C93.2846 13.3529 92.7314 13.1486 92.0399 13.1486C91.5559 13.1486 91.141 13.2167 90.7952 13.3529C90.4495 13.4892 90.1729 13.6254 89.9654 13.7617V27.2508C89.6888 27.3189 89.2739 27.387 88.7207 27.4551C88.1675 27.5233 87.6143 27.5914 86.9919 27.5914C86.4387 27.5914 85.8855 27.5233 85.4706 27.4551C84.9865 27.387 84.6408 27.2508 84.295 26.9783C83.9493 26.7739 83.7418 26.4333 83.6035 26.0245C83.4652 25.6157 83.3269 25.1388 83.3269 24.4576V13.0123C83.3269 12.331 83.4652 11.786 83.811 11.3773C84.0876 10.9685 84.5025 10.5597 85.0557 10.2191C85.9546 9.60596 87.0611 9.12908 88.3749 8.72032C89.5505 8.31156 90.8644 8.10718 92.3165 8.10718Z" fill="white"/>
<path d="M121.913 4.76898C122.328 4.49647 123.02 4.29209 123.919 4.01959C124.818 3.81521 125.717 3.67896 126.615 3.67896C127.929 3.67896 129.105 3.88333 130.073 4.22397C131.11 4.5646 131.733 5.17774 132.009 5.99526C132.493 7.35779 132.977 8.85658 133.531 10.6279C134.084 12.3992 134.637 14.2386 135.19 16.1461C135.743 18.0537 136.297 19.8931 136.781 21.7325C137.334 23.5719 137.749 25.207 138.164 26.6376C137.818 26.9783 137.403 27.3189 136.781 27.5233C136.158 27.7277 135.398 27.8639 134.568 27.8639C133.945 27.8639 133.392 27.7958 132.977 27.7277C132.562 27.6595 132.217 27.4552 131.94 27.2508C131.663 27.0464 131.456 26.7739 131.249 26.4333C131.11 26.0926 130.903 25.6839 130.765 25.2751L130.073 22.6182H123.02C122.812 23.3676 122.605 24.1851 122.397 25.0026C122.19 25.8201 121.982 26.6376 121.775 27.387C121.429 27.5233 121.014 27.5914 120.599 27.7277C120.184 27.7958 119.7 27.8639 119.147 27.8639C117.833 27.8639 116.865 27.6595 116.174 27.1826C115.551 26.7058 115.206 26.0926 115.206 25.3432C115.206 25.0026 115.275 24.5938 115.344 24.2532C115.413 23.9126 115.551 23.4357 115.69 22.9588C115.897 22.2775 116.105 21.3919 116.45 20.37C116.796 19.3481 117.142 18.2581 117.557 17.0318C117.972 15.8055 118.387 14.5792 118.801 13.3529C119.216 12.1267 119.631 10.9004 120.046 9.81035C120.461 8.72033 120.807 7.69843 121.153 6.81278C121.429 5.85901 121.706 5.17774 121.913 4.76898ZM126.615 9.74223C126.27 10.8323 125.855 11.9904 125.371 13.3529C124.887 14.6473 124.472 16.0099 124.126 17.3724H128.967C128.621 16.0099 128.206 14.6473 127.86 13.2848C127.514 11.9904 127.169 10.7641 126.823 9.74223H126.615Z" fill="white"/>
<path d="M140.653 3.47446C140.653 2.52069 140.999 1.70317 141.621 1.0219C142.313 0.340633 143.143 0 144.249 0C145.355 0 146.254 0.340633 146.877 1.0219C147.568 1.70317 147.845 2.52069 147.845 3.47446C147.845 4.42823 147.499 5.24575 146.877 5.92702C146.185 6.60829 145.355 6.94892 144.249 6.94892C143.143 6.94892 142.244 6.60829 141.621 5.92702C140.999 5.24575 140.653 4.42823 140.653 3.47446ZM147.637 27.3188C147.361 27.3869 146.946 27.455 146.393 27.5232C145.839 27.5913 145.286 27.6594 144.664 27.6594C144.111 27.6594 143.557 27.5913 143.143 27.5232C142.658 27.455 142.313 27.3188 141.967 27.0463C141.621 26.8419 141.414 26.5013 141.275 26.0925C141.137 25.6837 140.999 25.2069 140.999 24.5256V8.85647C141.275 8.78834 141.69 8.72021 142.244 8.65209C142.797 8.58396 143.35 8.51583 143.972 8.51583C144.526 8.51583 145.079 8.58396 145.494 8.65209C145.978 8.72021 146.323 8.85646 146.669 9.12897C147.015 9.33335 147.222 9.67399 147.361 10.0827C147.499 10.4915 147.637 10.9684 147.637 11.6497V27.3188Z" fill="white"/>
<path d="M151.025 18.0535C151.025 16.3503 151.302 14.9197 151.786 13.6253C152.339 12.399 153.031 11.3771 153.93 10.4914C154.829 9.67391 155.935 9.06077 157.18 8.65201C158.425 8.24325 159.738 8.03887 161.191 8.03887C161.744 8.03887 162.228 8.107 162.712 8.17512C163.196 8.24325 163.611 8.3795 163.957 8.51576V2.31623C164.233 2.2481 164.648 2.17998 165.201 2.04372C165.755 1.9756 166.377 1.90747 166.93 1.90747C167.483 1.90747 168.037 1.9756 168.451 2.04372C168.936 2.11185 169.281 2.2481 169.627 2.52061C169.973 2.72499 170.18 3.06562 170.319 3.47438C170.457 3.88314 170.526 4.36003 170.526 5.0413V23.2992C170.526 24.5255 169.973 25.4793 168.797 26.1606C168.037 26.6374 167.068 27.0462 165.893 27.455C164.717 27.7956 163.334 28 161.744 28C160.015 28 158.563 27.7956 157.18 27.3187C155.866 26.8418 154.69 26.1606 153.791 25.343C152.892 24.4574 152.132 23.4355 151.648 22.2092C151.302 20.9829 151.025 19.5523 151.025 18.0535ZM162.159 13.2165C160.776 13.2165 159.669 13.6253 158.909 14.4428C158.148 15.2603 157.802 16.4184 157.802 18.0535C157.802 19.6204 158.148 20.8467 158.839 21.6642C159.531 22.4817 160.568 22.8905 161.882 22.8905C162.366 22.8905 162.781 22.8224 163.127 22.6861C163.473 22.5498 163.818 22.4136 164.026 22.2092V13.6934C163.473 13.3527 162.85 13.2165 162.159 13.2165Z" fill="white"/>
<path d="M174.26 5.655C174.26 5.24624 174.33 4.9056 174.468 4.56497C174.606 4.22434 174.814 3.95183 175.021 3.67932C175.298 3.40682 175.574 3.27056 175.92 3.13431C176.266 2.99806 176.681 2.92993 177.096 2.92993C177.511 2.92993 177.925 2.99806 178.271 3.13431C178.617 3.27056 178.894 3.47494 179.17 3.67932C179.447 3.95183 179.654 4.22434 179.793 4.56497C179.931 4.9056 180 5.24624 180 5.655C180 6.06376 179.931 6.40439 179.793 6.74502C179.654 7.08566 179.447 7.35816 179.17 7.63067C178.894 7.90318 178.617 8.03943 178.271 8.17568C177.925 8.31194 177.511 8.38006 177.096 8.38006C176.681 8.38006 176.266 8.31194 175.92 8.17568C175.574 8.03943 175.298 7.83505 175.021 7.63067C174.745 7.35816 174.606 7.08566 174.468 6.74502C174.33 6.33626 174.26 5.99563 174.26 5.655ZM175.229 5.655C175.229 5.9275 175.298 6.20001 175.367 6.40439C175.436 6.60877 175.574 6.81315 175.782 7.01753C175.92 7.15378 176.128 7.29004 176.404 7.42629C176.612 7.49442 176.888 7.56254 177.165 7.56254C177.441 7.56254 177.718 7.49442 177.925 7.42629C178.133 7.35816 178.34 7.22191 178.548 7.01753C178.686 6.88128 178.824 6.6769 178.894 6.40439C178.963 6.20001 179.032 5.9275 179.032 5.655C179.032 5.38249 178.963 5.10998 178.894 4.9056C178.824 4.70122 178.686 4.49684 178.548 4.29246C178.41 4.08808 178.202 4.01996 177.925 3.8837C177.718 3.81558 177.441 3.74745 177.165 3.74745C176.888 3.74745 176.612 3.81558 176.404 3.8837C176.197 3.95183 175.989 4.08808 175.782 4.29246C175.644 4.49684 175.505 4.70122 175.367 4.9056C175.229 5.10998 175.229 5.38249 175.229 5.655ZM176.888 5.99563V6.81315C176.819 6.81315 176.819 6.81315 176.75 6.81315C176.681 6.81315 176.612 6.81315 176.542 6.81315C176.404 6.81315 176.335 6.81315 176.266 6.74502C176.197 6.6769 176.197 6.60877 176.197 6.47252V4.56497C176.197 4.49684 176.266 4.42872 176.335 4.36059C176.404 4.29246 176.542 4.29246 176.681 4.29246C176.819 4.29246 176.957 4.29246 177.096 4.29246C177.511 4.29246 177.787 4.36059 177.925 4.49684C178.133 4.6331 178.202 4.83748 178.202 5.10998C178.202 5.31436 178.133 5.45062 178.064 5.51874C177.995 5.655 177.856 5.72312 177.718 5.79125C177.787 5.9275 177.925 6.06376 177.995 6.20001C178.064 6.33626 178.202 6.40439 178.202 6.54064C178.202 6.60877 178.133 6.6769 178.064 6.74502C177.995 6.81315 177.926 6.81315 177.787 6.81315C177.649 6.81315 177.58 6.81315 177.511 6.74502C177.441 6.6769 177.372 6.60877 177.303 6.54064L177.027 5.99563H176.888ZM177.096 5.45062C177.234 5.45062 177.303 5.45062 177.372 5.38249C177.441 5.31436 177.441 5.24624 177.441 5.17811C177.441 4.97373 177.303 4.9056 177.096 4.9056C177.027 4.9056 177.027 4.9056 177.027 4.9056H176.957V5.45062H177.096Z" fill="white"/>
</svg>
